<svg xmlns="http://www.w3.org/2000/svg" width="68.387" height="80" viewBox="0 0 68.387 80">
  <defs>
    <style>
      .cls-1 {
        fill: #ffcbbe;
      }

      .cls-2 {
        fill: #ffb39d;
      }

      .cls-3 {
        fill: #a4e7ff;
      }

      .cls-4 {
        fill: #ffddcf;
      }
    </style>
  </defs>
  <g id="_001-washing-hands" data-name="001-washing-hands" transform="translate(0 -0.001)">
    <path id="Path_242" data-name="Path 242" class="cls-1" d="M64.155,26.274a4.837,4.837,0,0,0-6.839,0l4.34-4.34a4.836,4.836,0,0,0-6.838-6.839l3.414-3.414a4.911,4.911,0,0,0,.2-6.794,4.836,4.836,0,0,0-6.961-.127l-3.5,3.5a4.836,4.836,0,0,0-6.839-6.839L27.373,15.184l-5.921,5.922c-.2-1.513-.6-4.691-.609-4.76a4.235,4.235,0,0,0-8.082-1.107c-3.48,8.016-5.173,17.038-3,25.3a6.725,6.725,0,0,1-1.782,6.446L2.124,52.841a7.253,7.253,0,0,0,0,10.258l4.689,4.689a7.253,7.253,0,0,0,10.258,0l7.261-7.261a6.664,6.664,0,0,1,5.117-1.939A19.3,19.3,0,0,0,44.066,53.2l0,0,.241-.24,10.419-10.42,9.427-9.427A4.836,4.836,0,0,0,64.155,26.274Zm0,0"/>
    <path id="Path_243" data-name="Path 243" class="cls-2" d="M45.814,199.446l7.261-7.261a6.664,6.664,0,0,1,5.117-1.939,19.3,19.3,0,0,0,14.616-5.391l0,0,.241-.241L83.471,174.2l7.761-7.762c-10.242-8.176-23.077-14.2-32.517-4.344-15.343,16.018-12.929,26.116-24.446,36.068l1.286,1.287A7.254,7.254,0,0,0,45.814,199.446Zm0,0" transform="translate(-28.742 -133.378)"/>
    <path id="Path_244" data-name="Path 244" class="cls-3" d="M154.755,61.313a4.678,4.678,0,0,1-.956-3.919A12.1,12.1,0,0,0,136.091,44.38a5.735,5.735,0,0,1-5.45-.007A12.434,12.434,0,0,0,115.1,47.66a5.613,5.613,0,0,1-4.943,2.085,13.73,13.73,0,0,0-15.04,14.718,6.385,6.385,0,0,1-2.131,5.156,10.643,10.643,0,0,0,7.2,18.482l44.449-12.537a9.05,9.05,0,0,0,10.122-14.252Zm0,0" transform="translate(-88.446 -35.957)"/>
    <path id="Path_245" data-name="Path 245" class="cls-4" d="M150.664,104.824a4.837,4.837,0,0,0-6.839,0l4.34-4.34a4.836,4.836,0,0,0-6.839-6.838l3.414-3.414a4.912,4.912,0,0,0,.2-6.794,4.837,4.837,0,0,0-6.961-.127l-3.5,3.5a4.836,4.836,0,0,0-6.839-6.839L113.881,93.734l-5.922,5.922c-.2-1.513-.6-4.691-.609-4.76a4.235,4.235,0,0,0-8.082-1.106c-3.48,8.015-5.172,17.038-3,25.3a6.724,6.724,0,0,1-1.781,6.445l-5.854,5.854a7.254,7.254,0,0,0,0,10.258l4.689,4.689a7.253,7.253,0,0,0,10.258,0l7.261-7.261a6.664,6.664,0,0,1,5.117-1.939,19.3,19.3,0,0,0,14.616-5.391l0,0,.241-.24,19.846-19.846A4.836,4.836,0,0,0,150.664,104.824Zm0,0" transform="translate(-85.904 -68.462)"/>
    <g id="Group_21" data-name="Group 21" transform="translate(32.953 18.703)">
      <path id="Path_246" data-name="Path 246" class="cls-1" d="M287.437,138.522a1.245,1.245,0,0,1,0-1.762l14.383-14.383a1.246,1.246,0,1,1,1.762,1.762L289.2,138.522A1.312,1.312,0,0,1,287.437,138.522Zm0,0" transform="translate(-287.071 -122.012)"/>
      <path id="Path_247" data-name="Path 247" class="cls-1" d="M329.837,183.689a1.247,1.247,0,0,1,0-1.763l13.851-13.851a1.246,1.246,0,0,1,1.763,1.762L331.6,183.689A1.313,1.313,0,0,1,329.837,183.689Zm0,0" transform="translate(-322.634 -160.34)"/>
      <path id="Path_248" data-name="Path 248" class="cls-1" d="M372.237,245.887a1.245,1.245,0,0,1,0-1.762l10.043-10.044a1.246,1.246,0,0,1,1.762,1.762L374,245.887A1.168,1.168,0,0,1,372.237,245.887Zm0,0" transform="translate(-358.194 -215.699)"/>
    </g>
  </g>
</svg>
