<svg xmlns="http://www.w3.org/2000/svg" width="55.742" height="72" viewBox="0 0 55.742 72">
  <defs>
    <style>
      .cls-1 {
        fill: #dad8db;
      }

      .cls-2 {
        fill: #966a5b;
      }

      .cls-3 {
        fill: #785353;
      }

      .cls-4 {
        fill: #ffe09f;
      }

      .cls-5 {
        fill: #f6d190;
      }

      .cls-6 {
        fill: #a4ccff;
      }

      .cls-7 {
        fill: #e2a975;
      }

      .cls-8 {
        fill: #dbeaff;
      }

      .cls-9 {
        fill: #edf4ff;
      }

      .cls-10 {
        fill: #8bb3ea;
      }
    </style>
  </defs>
  <g id="_006-sneeze" data-name="006-sneeze" transform="translate(-57.807)">
    <path id="Path_1212" data-name="Path 1212" class="cls-1" d="M121.769,350.023l-7.963-3.185H85.935l-7.963,3.185a5.806,5.806,0,0,0-3.65,5.391V366.58a3.484,3.484,0,0,0,3.484,3.484H95.225l4.786-3.328,4.5,3.328h17.419a3.484,3.484,0,0,0,3.484-3.484V355.414A5.807,5.807,0,0,0,121.769,350.023Z" transform="translate(-14.193 -298.064)"/>
    <path id="Path_1213" data-name="Path 1213" class="cls-2" d="M192.212,0h-9.667a5.806,5.806,0,0,0-4.831,2.586l-.6.9L173.666,9.29V23.226H201.5V9.29A9.29,9.29,0,0,0,192.212,0Z" transform="translate(-99.566)"/>
    <path id="Path_1214" data-name="Path 1214" class="cls-3" d="M148.517,24.774h-2.323a5.806,5.806,0,0,0-5.806,5.806V44.516h8.129Z" transform="translate(-70.968 -21.29)"/>
    <path id="Path_1215" data-name="Path 1215" class="cls-4" d="M207.782,90.71H206.04a2.323,2.323,0,0,1-2.323-2.323V86.065a3.484,3.484,0,0,0-3.484-3.484H186.3a3.479,3.479,0,0,0-1.161.2L183,97.678c0,7.055,3.21,12.774,10.265,12.774A12.774,12.774,0,0,0,206.04,97.678V96.516h1.577a3.017,3.017,0,0,0,3.054-2.6A2.9,2.9,0,0,0,207.782,90.71Z" transform="translate(-107.588 -70.968)"/>
    <path id="Path_1216" data-name="Path 1216" class="cls-5" d="M141.42,98.883v-14.9a3.494,3.494,0,0,0-2.323,3.287v2.323a2.323,2.323,0,0,1-2.323,2.323H135.2a3.017,3.017,0,0,0-3.054,2.6,2.9,2.9,0,0,0,2.888,3.2h1.742v1.162a12.733,12.733,0,0,0,15.1,12.553A12.77,12.77,0,0,1,141.42,98.883Z" transform="translate(-63.871 -72.174)"/>
    <path id="Path_1217" data-name="Path 1217" class="cls-6" d="M191.868,198.2q-.34.006-.676.029c-7.345.5-9.515,10.816-9.515,14.366v22.764a1.161,1.161,0,0,0,1.161,1.161H204.9a1.161,1.161,0,0,0,1.161-1.161V212.129A13.935,13.935,0,0,0,191.868,198.2Z" transform="translate(-106.451 -170.323)"/>
    <path id="Path_1218" data-name="Path 1218" class="cls-4" d="M238.015,238.149H233.37v-4.6a2.323,2.323,0,0,0-2.323-2.323l-1.381,2.323v34.677l1.381,2.484h6.968v-20.9l1.932-1.288a3.484,3.484,0,0,0,1.551-2.9v-3.987A3.484,3.484,0,0,0,238.015,238.149Z" transform="translate(-147.692 -198.71)"/>
    <path id="Path_1219" data-name="Path 1219" class="cls-7" d="M199.354,139.1a1.161,1.161,0,0,1-.565-2.176l2.353-1.308-2.353-1.308a1.161,1.161,0,1,1,1.127-2.03l4.18,2.323a1.161,1.161,0,0,1,0,2.03l-4.18,2.323A1.153,1.153,0,0,1,199.354,139.1Z" transform="translate(-120.643 -113.547)"/>
    <path id="Path_1220" data-name="Path 1220" class="cls-7" d="M272.9,139.095a1.155,1.155,0,0,1-.562-.146l-4.18-2.323a1.161,1.161,0,0,1,0-2.03l4.18-2.323a1.161,1.161,0,1,1,1.127,2.03l-2.353,1.308,2.353,1.308a1.161,1.161,0,0,1-.565,2.176Z" transform="translate(-180.26 -113.546)"/>
    <path id="Path_1221" data-name="Path 1221" class="cls-8" d="M68.259,208.775h-9.29a1.161,1.161,0,0,1,0-2.323h9.29a1.161,1.161,0,1,1,0,2.323Z" transform="translate(0 -177.42)"/>
    <path id="Path_1222" data-name="Path 1222" class="cls-9" d="M92,244.127a1.161,1.161,0,0,1-.52-2.2l4.645-2.323a1.161,1.161,0,0,1,1.039,2.078L92.517,244A1.155,1.155,0,0,1,92,244.127Z" transform="translate(-28.384 -205.805)"/>
    <path id="Path_1223" data-name="Path 1223" class="cls-8" d="M382.064,208.775h-9.29a1.161,1.161,0,1,1,0-2.323h9.29a1.161,1.161,0,0,1,0,2.323Z" transform="translate(-269.676 -177.42)"/>
    <path id="Path_1224" data-name="Path 1224" class="cls-9" d="M377.416,244.127A1.154,1.154,0,0,1,376.9,244l-4.645-2.323a1.161,1.161,0,0,1,1.039-2.078l4.645,2.323a1.161,1.161,0,0,1-.521,2.2Z" transform="translate(-269.675 -205.805)"/>
    <path id="Path_1225" data-name="Path 1225" class="cls-5" d="M222.968,270.71h2.323V231.226a2.323,2.323,0,0,0-2.323,2.323Z" transform="translate(-141.935 -198.71)"/>
    <path id="Path_1226" data-name="Path 1226" class="cls-10" d="M161.548,211.624a14.555,14.555,0,0,1,8.353-13.2,14.281,14.281,0,0,0-13,14.366v22.764a1.161,1.161,0,0,0,1.161,1.161h3.484Z" transform="translate(-85.161 -170.516)"/>
  </g>
</svg>
