<svg xmlns="http://www.w3.org/2000/svg" width="139.998" height="140" viewBox="0 0 139.998 140">
  <defs>
    <style>
      .cls-1 {
        fill: #c3ddff;
      }

      .cls-2 {
        fill: #a4ccff;
      }

      .cls-3 {
        fill: #faf5dc;
      }

      .cls-4 {
        fill: #f5ebcd;
      }

      .cls-5 {
        fill: #ffcacc;
      }

      .cls-6 {
        fill: #ffd064;
      }

      .cls-7 {
        fill: #ffe07d;
      }

      .cls-8 {
        fill: #ff8086;
      }

      .cls-9 {
        fill: #e5646e;
      }
    </style>
  </defs>
  <g id="_009-world" data-name="009-world" transform="translate(-0.003)">
    <path id="Path_1266" data-name="Path 1266" class="cls-1" d="M158.079,103.651a48.622,48.622,0,0,0-6.491-22.225l-2.9-4.445a48.857,48.857,0,0,0-71.731-7.829c-10.184,8.961-15.289,22.09-15.289,36.722,0,27,20.569,47.035,47.572,47.035,7.6,0,14.8.125,21.214-2.97A48.907,48.907,0,0,0,158.081,108.1Z" transform="translate(-44.8 -41.437)"/>
    <path id="Path_1267" data-name="Path 1267" class="cls-2" d="M110.3,182.527a48.9,48.9,0,0,1-36.728-81.171,49.159,49.159,0,0,0-7.167,7.83l-2.9,4.444a48.615,48.615,0,0,0-6.489,22.225V140.3a48.624,48.624,0,0,0,6.491,22.225l2.9,4.445a49,49,0,0,0,76.164,3.379A48.7,48.7,0,0,1,110.3,182.527Z" transform="translate(-41.422 -73.641)"/>
    <path id="Path_1268" data-name="Path 1268" class="cls-3" d="M164.724,107.955c.033-.737.051-1.477.051-2.222s-.019-1.485-.051-2.222H149.183A79.065,79.065,0,0,0,145.5,81.285h12.737a48.99,48.99,0,0,0-2.9-4.445H143.882a48.435,48.435,0,0,0-11.014-16.971,49.112,49.112,0,0,0-33.975,0A48.428,48.428,0,0,0,87.88,76.84h-9.91l-2.085,1.8L75.7,81.285H86.267A79.053,79.053,0,0,0,82.58,103.51h-11.1l-.673,2.222,1.071,2.222h10.7a79.053,79.053,0,0,0,3.688,22.225h-5.39l0,2.718,3.684,1.727h3.321q1.111,2.747,2.421,5.254c.949,1.817,4.451,5.016,4.451,5.016l4.138.349a45.95,45.95,0,0,1-6.3-10.619h21.067v15.11l1.431,1.962,3.014-1.566V134.625h21.067a40.435,40.435,0,0,1-10.379,14.826l5.9.278a50.516,50.516,0,0,0,9.2-15.1H155.32a48.928,48.928,0,0,0,2.9-4.445H145.5a79.053,79.053,0,0,0,3.688-22.225ZM113.659,130.18H90.876a75.123,75.123,0,0,1-3.854-22.225h26.636V130.18Zm0-26.669H87.023a75.126,75.126,0,0,1,3.854-22.225h22.783V103.51Zm0-26.67H92.592C97.443,65.672,105.026,58.115,113.659,57ZM118.1,57c8.633,1.118,16.216,8.675,21.067,19.843H118.1Zm22.783,73.182H118.1V107.955H144.74A75.114,75.114,0,0,1,140.886,130.18ZM118.1,103.51V81.285h22.783a75.123,75.123,0,0,1,3.854,22.225Z" transform="translate(-51.445 -41.296)"/>
    <g id="Group_269" data-name="Group 269" transform="translate(0.393 0.412)">
      <path id="Path_1269" data-name="Path 1269" class="cls-4" d="M80.75,134.435h2.171a48.759,48.759,0,0,1,2.271-4.445H83.653A48.873,48.873,0,0,0,80.75,134.435Z" transform="translate(-59.06 -94.857)"/>
      <path id="Path_1270" data-name="Path 1270" class="cls-4" d="M180.583,370.1a20.548,20.548,0,0,1-10.687,5.018v-4.337c-1.5-.067-2.982-.2-4.445-.4v4.733c-5.49-.711-10.56-4.033-14.768-9.224a48.712,48.712,0,0,1-8.589-5.365,44.62,44.62,0,0,0,8.586,11.714,49.309,49.309,0,0,0,35.16-.42c1.338-1.274,1.433-2.294,2.642-3.845a48.832,48.832,0,0,1-7.9,2.122Z" transform="translate(-103.63 -262.358)"/>
      <path id="Path_1271" data-name="Path 1271" class="cls-4" d="M61.723,231.969q-.3-2.194-.4-4.445H56.88q-.05,1.106-.051,2.222t.051,2.223Z" transform="translate(-41.68 -165.722)"/>
      <path id="Path_1272" data-name="Path 1272" class="cls-4" d="M88.1,325.059H80.755a48.978,48.978,0,0,0,2.9,4.445h8.127A49.13,49.13,0,0,1,88.1,325.059Z" transform="translate(-59.064 -236.587)"/>
      <path id="Path_1273" data-name="Path 1273" class="cls-4" d="M218.792,459.173H218.6q-2.188,0-4.336-.144a2.222,2.222,0,1,1,.3-4.434q2,.133,4.041.133a2.3,2.3,0,0,1,2.316,2.223,2.144,2.144,0,0,1-2.129,2.222Z" transform="translate(-154.562 -330.697)"/>
      <path id="Path_1274" data-name="Path 1274" class="cls-4" d="M126.6,434.763a2.209,2.209,0,0,1-.9-.194c-1.372-.612-2.743-1.283-4.078-2a2.223,2.223,0,0,1,2.092-3.922c1.244.664,2.522,1.289,3.8,1.859a2.223,2.223,0,0,1-.907,4.253Z" transform="translate(-87.896 -311.663)"/>
      <path id="Path_1275" data-name="Path 1275" class="cls-4" d="M52.559,374.644A2.212,2.212,0,0,1,50.9,373.9c-1.009-1.128-1.986-2.3-2.9-3.484a2.223,2.223,0,0,1,3.516-2.722c.853,1.1,1.76,2.193,2.7,3.244a2.221,2.221,0,0,1-1.656,3.7Z" transform="translate(-34.927 -266.94)"/>
      <path id="Path_1276" data-name="Path 1276" class="cls-4" d="M9.609,289.548A2.223,2.223,0,0,1,7.491,288c-.449-1.417-.857-2.887-1.215-4.366a2.222,2.222,0,1,1,4.319-1.046c.334,1.381.716,2.751,1.133,4.071a2.224,2.224,0,0,1-2.118,2.894Z" transform="translate(-4.904 -204.491)"/>
      <path id="Path_1277" data-name="Path 1277" class="cls-4" d="M456.9,220.284a2.222,2.222,0,0,1-2.223-2.223c0-1.393-.05-2.815-.148-4.224a2.223,2.223,0,0,1,4.436-.306c.1,1.51.156,3.034.156,4.529A2.222,2.222,0,0,1,456.9,220.284Z" transform="translate(-330.633 -154.052)"/>
      <path id="Path_1278" data-name="Path 1278" class="cls-4" d="M3.651,194.283a2.2,2.2,0,0,1-.254-.014,2.222,2.222,0,0,1-1.956-2.461c.171-1.507.4-3.017.673-4.486a2.224,2.224,0,0,1,4.371.818c-.256,1.366-.469,2.77-.629,4.174a2.219,2.219,0,0,1-2.2,1.97Z" transform="translate(-1.427 -135.194)"/>
      <path id="Path_1279" data-name="Path 1279" class="cls-4" d="M432.219,128.211a2.225,2.225,0,0,1-2.029-1.312c-.571-1.268-1.2-2.541-1.866-3.781a2.223,2.223,0,0,1,3.915-2.107c.716,1.333,1.391,2.7,2.005,4.065a2.224,2.224,0,0,1-2.025,3.135Z" transform="translate(-311.401 -87.484)"/>
      <path id="Path_1280" data-name="Path 1280" class="cls-4" d="M34.228,105.627a2.222,2.222,0,0,1-1.906-3.363c.764-1.276,1.591-2.557,2.459-3.807a2.222,2.222,0,1,1,3.651,2.535c-.812,1.169-1.582,2.364-2.294,3.553A2.222,2.222,0,0,1,34.228,105.627Z" transform="translate(-23.646 -71.253)"/>
      <path id="Path_1281" data-name="Path 1281" class="cls-4" d="M371.9,54.379a2.223,2.223,0,0,1-1.478-.562c-1.04-.926-2.133-1.832-3.251-2.693a2.222,2.222,0,1,1,2.713-3.52c1.2.924,2.374,1.9,3.494,2.893a2.223,2.223,0,0,1-1.478,3.883Z" transform="translate(-266.53 -34.661)"/>
      <path id="Path_1282" data-name="Path 1282" class="cls-4" d="M99.2,39.185a2.223,2.223,0,0,1-1.278-4.042c1.233-.864,2.509-1.7,3.8-2.47a2.222,2.222,0,1,1,2.292,3.807c-1.2.723-2.39,1.5-3.538,2.3A2.212,2.212,0,0,1,99.2,39.185Z" transform="translate(-70.849 -23.917)"/>
      <path id="Path_1283" data-name="Path 1283" class="cls-4" d="M286.605,11.662a2.217,2.217,0,0,1-.664-.1c-1.341-.42-2.711-.8-4.072-1.117a2.223,2.223,0,1,1,1.025-4.326c1.461.345,2.932.749,4.376,1.2a2.224,2.224,0,0,1-.664,4.345Z" transform="translate(-203.942 -4.811)"/>
      <path id="Path_1284" data-name="Path 1284" class="cls-4" d="M187.007,6.618a2.222,2.222,0,0,1-.412-4.406c1.478-.281,2.986-.513,4.482-.689a2.223,2.223,0,0,1,.521,4.415c-1.393.164-2.8.38-4.174.641a2.188,2.188,0,0,1-.417.039Z" transform="translate(-134.649 -1.505)"/>
    </g>
    <path id="Path_1285" data-name="Path 1285" class="cls-5" d="M262.347,456.282a2.222,2.222,0,0,1-.313-4.422c.71-.1,1.413-.216,2.114-.342a2.222,2.222,0,1,1,.79,4.373q-1.13.205-2.274.368A2.229,2.229,0,0,1,262.347,456.282Z" transform="translate(-188.995 -328.029)"/>
    <path id="Path_1286" data-name="Path 1286" class="cls-5" d="M171.416,451.9a2.227,2.227,0,0,1-.46-.048c-1.467-.308-2.947-.675-4.4-1.089a2.223,2.223,0,0,1,1.22-4.276c1.352.386,2.732.727,4.1,1.015a2.223,2.223,0,0,1-.456,4.4Z" transform="translate(-119.838 -324.342)"/>
    <path id="Path_1287" data-name="Path 1287" class="cls-5" d="M86.4,408.606a2.213,2.213,0,0,1-1.309-.428c-1.22-.892-2.42-1.835-3.566-2.805a2.222,2.222,0,1,1,2.869-3.394c1.068.9,2.183,1.781,3.318,2.61a2.223,2.223,0,0,1-1.313,4.017Z" transform="translate(-58.658 -291.68)"/>
    <path id="Path_1288" data-name="Path 1288" class="cls-5" d="M26.574,334.373a2.221,2.221,0,0,1-1.932-1.12c-.755-1.32-1.465-2.672-2.11-4.016a2.223,2.223,0,0,1,4.011-1.921c.6,1.249,1.257,2.5,1.958,3.732a2.222,2.222,0,0,1-1.927,3.325Z" transform="translate(-16.211 -236.897)"/>
    <path id="Path_1289" data-name="Path 1289" class="cls-5" d="M2.485,242.143A2.221,2.221,0,0,1,.275,240.13c-.141-1.487-.232-3.009-.271-4.524a2.223,2.223,0,0,1,2.166-2.277h.056a2.223,2.223,0,0,1,2.223,2.167c.035,1.412.119,2.83.25,4.216a2.22,2.22,0,0,1-2,2.422c-.072.007-.143.01-.213.01Z" transform="translate(0 -169.527)"/>
    <path id="Path_1290" data-name="Path 1290" class="cls-5" d="M449.457,172.93a2.221,2.221,0,0,1-2.17-1.759c-.293-1.369-.638-2.746-1.029-4.093a2.223,2.223,0,0,1,4.271-1.235c.419,1.45.79,2.93,1.1,4.4a2.221,2.221,0,0,1-2.175,2.686Z" transform="translate(-324.168 -119.33)"/>
    <path id="Path_1291" data-name="Path 1291" class="cls-5" d="M14.118,148.09a2.225,2.225,0,0,1-2.105-2.938c.482-1.416,1.022-2.844,1.606-4.244a2.223,2.223,0,0,1,4.1,1.717c-.547,1.3-1.051,2.635-1.5,3.956A2.225,2.225,0,0,1,14.118,148.09Z" transform="translate(-8.64 -101.387)"/>
    <path id="Path_1292" data-name="Path 1292" class="cls-5" d="M405.951,88.123a2.219,2.219,0,0,1-1.793-.906c-.825-1.12-1.706-2.235-2.62-3.311a2.222,2.222,0,1,1,3.386-2.878c.983,1.156,1.929,2.352,2.815,3.556a2.222,2.222,0,0,1-1.789,3.539Z" transform="translate(-291.356 -58.304)"/>
    <path id="Path_1293" data-name="Path 1293" class="cls-5" d="M63.046,68.8a2.223,2.223,0,0,1-1.628-3.736c1.024-1.1,2.1-2.181,3.2-3.209A2.223,2.223,0,1,1,67.656,65.1c-1.024.958-2.027,1.964-2.982,2.992A2.222,2.222,0,0,1,63.046,68.8Z" transform="translate(-44.19 -44.505)"/>
    <path id="Path_1294" data-name="Path 1294" class="cls-5" d="M331.519,28.483a2.22,2.22,0,0,1-1.1-.29c-1.22-.692-2.478-1.35-3.744-1.953a2.222,2.222,0,1,1,1.914-4.011c1.359.648,2.713,1.354,4.024,2.1a2.222,2.222,0,0,1-1.1,4.156Z" transform="translate(-236.43 -15.992)"/>
    <path id="Path_1295" data-name="Path 1295" class="cls-5" d="M141.124,18.14a2.223,2.223,0,0,1-.866-4.27c1.385-.585,2.806-1.13,4.23-1.617a2.223,2.223,0,0,1,1.441,4.206c-1.326.454-2.652.959-3.939,1.5A2.229,2.229,0,0,1,141.124,18.14Z" transform="translate(-100.918 -8.815)"/>
    <path id="Path_1296" data-name="Path 1296" class="cls-5" d="M239.173,4.692c-.067,0-.135,0-.2-.009-1.4-.128-2.822-.208-4.219-.24A2.222,2.222,0,0,1,234.8,0h.05c1.5.034,3.021.119,4.523.256a2.223,2.223,0,0,1-.2,4.436Z" transform="translate(-168.979)"/>
    <path id="Path_1297" data-name="Path 1297" class="cls-5" d="M453.7,266.793a2.257,2.257,0,0,1-.4-.035,2.222,2.222,0,0,1-1.795-2.58q.189-1.055.345-2.12a2.221,2.221,0,1,1,4.4.636q-.163,1.141-.367,2.268A2.223,2.223,0,0,1,453.7,266.793Z" transform="translate(-328.021 -189.019)"/>
    <g id="Group_271" data-name="Group 271" transform="translate(82.306 82.305)">
      <path id="Path_1298" data-name="Path 1298" class="cls-3" d="M360.966,329.848a28.849,28.849,0,0,0-47.318-22.16c-6.342,5.292-9.522,13.255-9.522,22.16,0,15.932,12.06,27.729,27.992,27.729,8.908,0,16.873-2.919,22.165-9.264A28.731,28.731,0,0,0,360.966,329.848Z" transform="translate(-303.271 -301)"/>
      <path id="Path_1299" data-name="Path 1299" class="cls-6" d="M0,0H35.5V4.438H0Z" transform="translate(42.991 17.865) rotate(135)"/>
      <circle id="Ellipse_319" data-name="Ellipse 319" class="cls-7" cx="2.219" cy="2.219" r="2.219" transform="translate(39.182 14.076)"/>
      <circle id="Ellipse_320" data-name="Ellipse 320" class="cls-7" cx="2.219" cy="2.219" r="2.219" transform="translate(14.076 39.182)"/>
      <path id="Path_1300" data-name="Path 1300" class="cls-6" d="M0,0H35.5V4.438H0Z" transform="translate(17.866 14.704) rotate(45)"/>
      <circle id="Ellipse_321" data-name="Ellipse 321" class="cls-7" cx="2.219" cy="2.219" r="2.219" transform="translate(14.076 14.076)"/>
      <circle id="Ellipse_322" data-name="Ellipse 322" class="cls-7" cx="2.219" cy="2.219" r="2.219" transform="translate(39.182 39.182)"/>
      <path id="Path_1301" data-name="Path 1301" class="cls-6" d="M0,0H35.5V4.438H0Z" transform="translate(31.067 11.095) rotate(90)"/>
      <circle id="Ellipse_323" data-name="Ellipse 323" class="cls-7" cx="2.219" cy="2.219" r="2.219" transform="translate(26.629 8.876)"/>
      <circle id="Ellipse_324" data-name="Ellipse 324" class="cls-7" cx="2.219" cy="2.219" r="2.219" transform="translate(26.629 44.381)"/>
      <path id="Path_1302" data-name="Path 1302" class="cls-6" d="M341.574,398.385h35.5v4.438h-35.5Z" transform="translate(-330.478 -371.756)"/>
      <path id="Path_1303" data-name="Path 1303" class="cls-8" d="M390.4,377.018a11.1,11.1,0,0,0-17.094-9.335c-3.066,1.974-4.233,5.418-4.233,9.335,0,6.128,4.1,10.39,10.232,10.39,3.923,0,7.37-1.331,9.343-4.4A11.043,11.043,0,0,0,390.4,377.018Z" transform="translate(-350.46 -348.171)"/>
      <path id="Path_1304" data-name="Path 1304" class="cls-9" d="M380.344,389.462a11.094,11.094,0,0,1-9.328-17.1,11.1,11.1,0,1,0,15.342,15.323A11.111,11.111,0,0,1,380.344,389.462Z" transform="translate(-348.167 -352.847)"/>
      <g id="Group_270" data-name="Group 270" transform="translate(8.877 24.687)">
        <path id="Path_1305" data-name="Path 1305" class="cls-7" d="M414.439,395.722a2.219,2.219,0,0,1-.019-4.438h.019a2.219,2.219,0,0,1,0,4.438Z" transform="translate(-390.677 -391.284)"/>
        <path id="Path_1306" data-name="Path 1306" class="cls-7" d="M400.57,416.518a2.219,2.219,0,1,1-.017-4.438h.017a2.219,2.219,0,1,1,0,4.438Z" transform="translate(-380.601 -406.394)"/>
        <path id="Path_1307" data-name="Path 1307" class="cls-7" d="M386.7,395.722a2.219,2.219,0,1,1-.019-4.438h.019a2.219,2.219,0,0,1,0,4.438Z" transform="translate(-370.524 -391.284)"/>
        <circle id="Ellipse_325" data-name="Ellipse 325" class="cls-7" cx="2.219" cy="2.219" r="2.219" transform="translate(0 1.942)"/>
        <circle id="Ellipse_326" data-name="Ellipse 326" class="cls-7" cx="2.219" cy="2.219" r="2.219" transform="translate(35.505 1.942)"/>
      </g>
      <path id="Path_1308" data-name="Path 1308" class="cls-4" d="M333.542,372.766a28.85,28.85,0,0,1-22.169-47.31,28.848,28.848,0,1,0,40.635,40.625A28.732,28.732,0,0,1,333.542,372.766Z" transform="translate(-300.996 -318.769)"/>
    </g>
  </g>
</svg>
