<svg id="_010-dog" data-name="010-dog" xmlns="http://www.w3.org/2000/svg" width="87.344" height="57.622" viewBox="0 0 87.344 57.622">
  <defs>
    <style>
      .cls-1 {
        fill: #e0b799;
      }

      .cls-2 {
        fill: #d1986f;
      }

      .cls-3 {
        fill: #fbf1cf;
      }

      .cls-4 {
        fill: #f5e2a2;
      }

      .cls-5 {
        fill: #e7889d;
      }

      .cls-6 {
        fill: #e16e7e;
      }

      .cls-7 {
        fill: #4e5660;
      }
    </style>
  </defs>
  <path id="Path_991" data-name="Path 991" class="cls-1" d="M30.138,90.727c-8.1-.027-22.63,7-28.852,21.637-6.421,15.1,13.066,22.192,17.532,9.477s11.39-23.319,13.69-24.383C34.7,96.443,35.891,90.746,30.138,90.727Z" transform="translate(0 -90.11)"/>
  <path id="Path_992" data-name="Path 992" class="cls-1" d="M315,90.727c8.1-.027,22.63,7,28.852,21.637,6.421,15.1-13.066,22.192-17.532,9.477s-11.39-23.319-13.69-24.383C310.435,96.443,309.247,90.746,315,90.727Z" transform="translate(-257.794 -90.11)"/>
  <path id="Path_993" data-name="Path 993" class="cls-2" d="M326.733,96.094a35.075,35.075,0,0,0-5.666-4.372,21.212,21.212,0,0,0-6.066-1c-5.753.019-4.565,5.716-2.37,6.731,2.3,1.064,9.224,11.668,13.69,24.383,1.818,5.176,6.125,7.069,10.16,6.477a32.8,32.8,0,0,0,.816-7.394,33.9,33.9,0,0,0-10.565-24.83Z" transform="translate(-257.795 -90.11)"/>
  <path id="Path_994" data-name="Path 994" class="cls-2" d="M56.53,96.094A35.07,35.07,0,0,1,62.2,91.722a21.211,21.211,0,0,1,6.066-1c5.753.019,4.565,5.716,2.37,6.731-2.3,1.064-9.224,11.668-13.69,24.383-1.818,5.176-6.125,7.069-10.16,6.477a32.8,32.8,0,0,1-.816-7.394A33.9,33.9,0,0,1,56.53,96.094Z" transform="translate(-38.124 -90.11)"/>
  <path id="Path_995" data-name="Path 995" class="cls-3" d="M132.557,117.927c0-17.654-14.311-30.814-31.964-30.814s-31.964,13.16-31.964,30.814,14.311,26.808,31.964,26.808S132.557,135.58,132.557,117.927Z" transform="translate(-56.921 -87.113)"/>
  <path id="Path_996" data-name="Path 996" class="cls-4" d="M111.114,163.172c-42.711-2.275-36.623-39.515-26.6-52.394a30.169,30.169,0,0,0-15.884,26.777c0,17.654,14.311,26.808,31.964,26.808A45.085,45.085,0,0,0,111.114,163.172Z" transform="translate(-56.921 -106.741)"/>
  <g id="Group_183" data-name="Group 183" transform="translate(16.113 15.668)">
    <path id="Path_997" data-name="Path 997" class="cls-5" d="M223.572,315.517a11.077,11.077,0,0,1-6.67-2.222v6.554a6.67,6.67,0,1,0,13.34,0v-6.554A11.077,11.077,0,0,1,223.572,315.517Z" transform="translate(-196.013 -290.378)"/>
    <path id="Path_998" data-name="Path 998" class="cls-6" d="M249.779,326.96a1.279,1.279,0,0,1-1.279-1.279v-4.553a1.279,1.279,0,1,1,2.559,0v4.553A1.279,1.279,0,0,1,249.779,326.96Z" transform="translate(-222.221 -295.813)"/>
    <ellipse id="Ellipse_168" data-name="Ellipse 168" class="cls-5" cx="7.241" cy="5.766" rx="7.241" ry="5.766" transform="translate(0 10.638)"/>
    <ellipse id="Ellipse_169" data-name="Ellipse 169" class="cls-5" cx="7.241" cy="5.766" rx="7.241" ry="5.766" transform="translate(40.635 10.638)"/>
    <ellipse id="Ellipse_170" data-name="Ellipse 170" class="cls-1" cx="7.15" cy="9.06" rx="7.15" ry="9.06" transform="translate(37.985)"/>
    <g id="Group_182" data-name="Group 182" transform="translate(10.182 6.816)">
      <path id="Path_999" data-name="Path 999" class="cls-7" d="M155.417,224.028a1.279,1.279,0,0,1-1.279-1.279v-2.557a1.279,1.279,0,0,1,2.559,0v2.557A1.279,1.279,0,0,1,155.417,224.028Z" transform="translate(-154.138 -218.912)"/>
      <path id="Path_1000" data-name="Path 1000" class="cls-7" d="M344.141,224.028a1.279,1.279,0,0,1-1.279-1.279v-2.557a1.279,1.279,0,0,1,2.559,0v2.557A1.279,1.279,0,0,1,344.141,224.028Z" transform="translate(-310.667 -218.912)"/>
      <path id="Path_1001" data-name="Path 1001" class="cls-7" d="M208.96,302.781a12.416,12.416,0,0,1-9.36-4.264,1.279,1.279,0,1,1,1.929-1.681,9.847,9.847,0,0,0,14.862,0,1.279,1.279,0,1,1,1.929,1.681A12.417,12.417,0,0,1,208.96,302.781Z" transform="translate(-191.583 -283.179)"/>
      <path id="Path_1002" data-name="Path 1002" class="cls-7" d="M231.41,244.9a12.757,12.757,0,0,0-6.461,0,3.749,3.749,0,0,0-2.151,1.519,1.964,1.964,0,0,0,.826,2.9l3.1,1.38a3.573,3.573,0,0,0,2.9,0l3.1-1.38a1.964,1.964,0,0,0,.826-2.9A3.748,3.748,0,0,0,231.41,244.9Z" transform="translate(-210.802 -240.12)"/>
    </g>
  </g>
</svg>
