<svg id="_012-dogs" data-name="012-dogs" xmlns="http://www.w3.org/2000/svg" width="160.5" height="160.5" viewBox="0 0 160.5 160.5">
  <defs>
    <style>
      .cls-1 {
        fill: #ec407a;
      }

      .cls-2 {
        fill: #e91e63;
      }

      .cls-3 {
        fill: #a34a18;
      }

      .cls-4 {
        fill: #8a3e14;
      }

      .cls-5 {
        fill: #633e31;
      }

      .cls-6 {
        fill: #59382c;
      }

      .cls-7 {
        fill: #e6cabd;
      }

      .cls-8 {
        fill: #d9a990;
      }

      .cls-9 {
        fill: #bf6024;
      }

      .cls-10 {
        fill: #ffc400;
      }

      .cls-11 {
        fill: #ff9800;
      }

      .cls-12 {
        fill: #ffab00;
      }
    </style>
  </defs>
  <path id="Path_387" data-name="Path 387" class="cls-1" d="M314.806,6.023a.689.689,0,0,0,1.037,0A18.308,18.308,0,0,1,329.534,0c8.411,0,14.209,6.833,14.209,14.79,0,9.131-7.768,19.922-27.892,29.336a1.247,1.247,0,0,1-1.053,0c-20.125-9.414-27.892-20.2-27.892-29.336,0-7.957,5.8-14.79,14.209-14.79A18.3,18.3,0,0,1,314.806,6.023Zm0,0" transform="translate(-196.968)"/>
  <path id="Path_388" data-name="Path 388" class="cls-2" d="M381.163,0a18.7,18.7,0,0,0-5.171.713,14.533,14.533,0,0,1,9.692,14.077c0,8.445-6.654,18.31-23.574,27.193,1.373.721,2.807,1.436,4.318,2.143a1.247,1.247,0,0,0,1.053,0c20.124-9.414,27.892-20.2,27.892-29.336C395.372,6.833,389.574,0,381.163,0Zm0,0" transform="translate(-248.597)"/>
  <path id="Path_389" data-name="Path 389" class="cls-3" d="M104.156,343.792c0-16.378-12.613-29.655-28.17-29.655s-28.17,13.277-28.17,29.655,12.613,29.657,28.17,29.657S104.156,360.171,104.156,343.792Zm0,0" transform="translate(-32.827 -215.662)"/>
  <path id="Path_390" data-name="Path 390" class="cls-4" d="M127.071,314.137a26.91,26.91,0,0,0-4.844.438c13.249,2.417,23.326,14.578,23.326,29.217s-10.077,26.8-23.326,29.218a27.018,27.018,0,0,0,4.844.438c15.558,0,28.17-13.279,28.17-29.657S142.628,314.137,127.071,314.137Zm0,0" transform="translate(-83.911 -215.662)"/>
  <path id="Path_391" data-name="Path 391" class="cls-5" d="M19.125,153.227H9.3a9.3,9.3,0,0,1-9.3-9.3V117.012a15.538,15.538,0,0,1,15.539-15.539,12.89,12.89,0,0,1,12.889,12.89v29.56A9.3,9.3,0,0,1,19.125,153.227Zm0,0" transform="translate(0 -69.663)"/>
  <path id="Path_392" data-name="Path 392" class="cls-6" d="M40.442,101.473a15.539,15.539,0,0,0-4.062.54,12.909,12.909,0,0,1,9.2,12.366v29.532a9.309,9.309,0,0,1-9.3,9.316h7.754a9.31,9.31,0,0,0,9.3-9.316V114.379A12.9,12.9,0,0,0,40.442,101.473Zm0,0" transform="translate(-24.903 -69.663)"/>
  <path id="Path_393" data-name="Path 393" class="cls-5" d="M193.976,153.227H203.8a9.3,9.3,0,0,0,9.3-9.3V117.011a15.538,15.538,0,0,0-15.539-15.538,12.89,12.89,0,0,0-12.889,12.889v29.561A9.3,9.3,0,0,0,193.976,153.227Zm0,0" transform="translate(-126.782 -69.663)"/>
  <path id="Path_394" data-name="Path 394" class="cls-6" d="M217.7,101.473a12.9,12.9,0,0,0-3.692.54,15.559,15.559,0,0,1,11.479,15.019v26.879a9.31,9.31,0,0,1-9.305,9.316h7.754a9.31,9.31,0,0,0,9.3-9.316V117.031A15.549,15.549,0,0,0,217.7,101.473Zm0,0" transform="translate(-146.924 -69.663)"/>
  <path id="Path_395" data-name="Path 395" class="cls-7" d="M97.542,173.079a21.966,21.966,0,0,1-21.98,22H52.109a21.923,21.923,0,0,1-22.017-21.54,21.667,21.667,0,0,1,5.072-14.163,12.231,12.231,0,0,0,2.81-7.869V139.771a17.65,17.65,0,0,1,17.638-17.661H72.023a17.65,17.65,0,0,1,17.639,17.661V151.51a12.644,12.644,0,0,0,2.936,8.022A21.663,21.663,0,0,1,97.542,173.079Zm0,0" transform="translate(-20.658 -83.831)"/>
  <path id="Path_396" data-name="Path 396" class="cls-8" d="M167.45,159.532a12.639,12.639,0,0,1-2.938-8.022V139.771a17.65,17.65,0,0,0-17.638-17.661h-7.754a17.65,17.65,0,0,1,17.639,17.661V151.51a12.644,12.644,0,0,0,2.936,8.022,21.664,21.664,0,0,1,4.945,13.547,21.967,21.967,0,0,1-21.981,22h7.754a21.966,21.966,0,0,0,21.98-22A21.656,21.656,0,0,0,167.45,159.532Zm0,0" transform="translate(-95.51 -83.831)"/>
  <path id="Path_397" data-name="Path 397" class="cls-9" d="M161.468,150.027V139.771a17.65,17.65,0,0,0-17.638-17.661h-8.206S127.1,150.027,161.468,150.027Zm0,0" transform="translate(-92.466 -83.831)"/>
  <path id="Path_398" data-name="Path 398" class="cls-3" d="M146.741,122.109h-7.815a17.65,17.65,0,0,1,17.639,17.661v9.688a50.325,50.325,0,0,0,7.815.568V139.771A17.652,17.652,0,0,0,146.741,122.109Zm0,0" transform="translate(-95.376 -83.831)"/>
  <path id="Path_399" data-name="Path 399" class="cls-7" d="M52.041,472.886a5.168,5.168,0,0,1-5.165,5.166H24.127a5.166,5.166,0,0,1-5.166-5.166A10.336,10.336,0,0,1,29.3,462.551h12.41A10.334,10.334,0,0,1,52.041,472.886Zm0,0" transform="translate(-13.017 -317.552)"/>
  <path id="Path_400" data-name="Path 400" class="cls-8" d="M74.531,462.551H66.777a10.336,10.336,0,0,1,10.339,10.334,5.168,5.168,0,0,1-5.17,5.167H79.7a5.168,5.168,0,0,0,5.169-5.167A10.336,10.336,0,0,0,74.531,462.551Zm0,0" transform="translate(-45.844 -317.552)"/>
  <path id="Path_401" data-name="Path 401" class="cls-7" d="M183.951,472.886a5.166,5.166,0,0,1-5.165,5.166H156.037a5.166,5.166,0,0,1-5.166-5.166,10.336,10.336,0,0,1,10.335-10.335h12.41A10.334,10.334,0,0,1,183.951,472.886Zm0,0" transform="translate(-103.577 -317.552)"/>
  <path id="Path_402" data-name="Path 402" class="cls-8" d="M206.441,462.551h-7.754a10.335,10.335,0,0,1,10.337,10.334,5.168,5.168,0,0,1-5.169,5.167h7.754a5.168,5.168,0,0,0,5.169-5.167A10.336,10.336,0,0,0,206.441,462.551Zm0,0" transform="translate(-136.404 -317.552)"/>
  <path id="Path_403" data-name="Path 403" class="cls-5" d="M102.085,267.838a2.351,2.351,0,0,0-2.351,2.351,5.409,5.409,0,0,1-5.4,5.4H78.85v-6.178a2.351,2.351,0,0,0-4.7,0v6.178H58.667a5.408,5.408,0,0,1-5.4-5.4,2.351,2.351,0,0,0-4.7,0,10.116,10.116,0,0,0,10.1,10.1H94.33a10.117,10.117,0,0,0,10.106-10.1A2.352,2.352,0,0,0,102.085,267.838Zm0,0" transform="translate(-33.339 -183.345)"/>
  <path id="Path_404" data-name="Path 404" class="cls-5" d="M117.87,234.945a9.045,9.045,0,1,1,9.046-9.044A9.072,9.072,0,0,1,117.87,234.945Zm0,0" transform="translate(-74.71 -148.876)"/>
  <path id="Path_405" data-name="Path 405" class="cls-6" d="M129.189,216.852a8.975,8.975,0,0,0-3.877.879,9.036,9.036,0,0,1,0,16.333,8.957,8.957,0,0,0,3.877.879,9.046,9.046,0,1,0,0-18.091Zm0,0" transform="translate(-86.03 -148.874)"/>
  <path id="Path_406" data-name="Path 406" class="cls-10" d="M332.08,401.373h-7.46a22.171,22.171,0,0,1-22.1-22.106v-20.9a2.859,2.859,0,0,1,2.852-2.851h45.966a2.86,2.86,0,0,1,2.852,2.851v20.9A22.171,22.171,0,0,1,332.08,401.373Zm0,0" transform="translate(-207.684 -244.07)"/>
  <path id="Path_407" data-name="Path 407" class="cls-11" d="M400.353,355.516h-7.141a2.86,2.86,0,0,1,2.857,2.847V379.3a22.171,22.171,0,0,1-22.143,22.068h7.141A22.171,22.171,0,0,0,403.21,379.3V358.363A2.86,2.86,0,0,0,400.353,355.516Zm0,0" transform="translate(-256.709 -244.07)"/>
  <path id="Path_408" data-name="Path 408" class="cls-12" d="M275.51,279.427h-9.063a8.588,8.588,0,0,1-8.588-8.586V246.064A14.341,14.341,0,0,1,272.2,231.723a11.9,11.9,0,0,1,11.9,11.9v27.222A8.588,8.588,0,0,1,275.51,279.427Zm0,0" transform="translate(-177.027 -159.083)"/>
  <path id="Path_409" data-name="Path 409" class="cls-12" d="M436.887,279.427h9.064a8.588,8.588,0,0,0,8.588-8.586V246.064A14.341,14.341,0,0,0,440.2,231.723a11.9,11.9,0,0,0-11.9,11.9v27.222A8.587,8.587,0,0,0,436.887,279.427Zm0,0" transform="translate(-294.039 -159.083)"/>
  <path id="Path_410" data-name="Path 410" class="cls-11" d="M458.787,231.723a11.866,11.866,0,0,0-3.408.5,14.344,14.344,0,0,1,10.593,13.843v24.777a8.586,8.586,0,0,1-8.586,8.586h7.156a8.587,8.587,0,0,0,8.586-8.586V246.064A14.341,14.341,0,0,0,458.787,231.723Zm0,0" transform="translate(-312.628 -159.083)"/>
  <path id="Path_411" data-name="Path 411" class="cls-7" d="M347.887,237.38A20.26,20.26,0,0,1,327.6,257.662H305.954a20.22,20.22,0,0,1-20.32-19.854,19.957,19.957,0,0,1,4.68-13.056,11.265,11.265,0,0,0,2.594-7.253V206.677a16.279,16.279,0,0,1,16.28-16.279h15.146a16.279,16.279,0,0,1,16.279,16.279V217.5a11.647,11.647,0,0,0,2.711,7.395A19.957,19.957,0,0,1,347.887,237.38Zm0,0" transform="translate(-196.094 -130.713)"/>
  <path id="Path_412" data-name="Path 412" class="cls-8" d="M412.408,224.893A11.647,11.647,0,0,1,409.7,217.5V206.677A16.279,16.279,0,0,0,393.418,190.4h-7.156a16.279,16.279,0,0,1,16.279,16.279V217.5a11.647,11.647,0,0,0,2.711,7.395,19.95,19.95,0,0,1,4.563,12.486,20.259,20.259,0,0,1-20.287,20.283h7.156A20.259,20.259,0,0,0,416.97,237.38,19.958,19.958,0,0,0,412.408,224.893Zm0,0" transform="translate(-265.178 -130.713)"/>
  <path id="Path_413" data-name="Path 413" class="cls-10" d="M406.886,216.132v-9.454A16.279,16.279,0,0,0,390.607,190.4h-7.574S375.162,216.132,406.886,216.132Zm0,0" transform="translate(-262.367 -130.713)"/>
  <path id="Path_414" data-name="Path 414" class="cls-12" d="M393.34,190.4h-7.192a16.28,16.28,0,0,1,16.28,16.279v8.934a46.529,46.529,0,0,0,7.19.52v-9.454A16.279,16.279,0,0,0,393.34,190.4Zm0,0" transform="translate(-265.1 -130.713)"/>
  <path id="Path_415" data-name="Path 415" class="cls-5" d="M351.677,323.621a2.351,2.351,0,0,0-2.351,2.351,4.811,4.811,0,0,1-4.8,4.8H330.415v-5.52a2.351,2.351,0,0,0-4.7,0v5.52H311.606a4.812,4.812,0,0,1-4.806-4.8,2.351,2.351,0,0,0-4.7,0,9.518,9.518,0,0,0,9.508,9.507h32.915a9.518,9.518,0,0,0,9.507-9.507A2.35,2.35,0,0,0,351.677,323.621Zm0,0" transform="translate(-207.397 -221.683)"/>
  <path id="Path_416" data-name="Path 416" class="cls-5" d="M366.646,293.837a8.348,8.348,0,1,1,8.348-8.348A8.372,8.372,0,0,1,366.646,293.837Zm0,0" transform="translate(-245.979 -190.264)"/>
  <path id="Path_417" data-name="Path 417" class="cls-6" d="M377.094,277.141a8.259,8.259,0,0,0-3.578.812,8.339,8.339,0,0,1,0,15.074,8.276,8.276,0,0,0,3.578.811,8.348,8.348,0,0,0,0-16.7Zm0,0" transform="translate(-256.427 -190.264)"/>
  <path id="Path_418" data-name="Path 418" class="cls-7" d="M305.893,476.145a4.736,4.736,0,0,1-4.738,4.736H280.1a4.735,4.735,0,0,1-4.736-4.736,9.471,9.471,0,0,1,9.473-9.473h11.586A9.473,9.473,0,0,1,305.893,476.145Zm0,0" transform="translate(-189.041 -320.381)"/>
  <path id="Path_419" data-name="Path 419" class="cls-8" d="M326.648,466.672h-7.156a9.507,9.507,0,0,1,9.541,9.473,4.754,4.754,0,0,1-4.771,4.736h7.155a4.754,4.754,0,0,0,4.771-4.736A9.506,9.506,0,0,0,326.648,466.672Zm0,0" transform="translate(-219.339 -320.381)"/>
  <path id="Path_420" data-name="Path 420" class="cls-7" d="M427.634,476.365a4.706,4.706,0,0,1-4.7,4.7H401.806a4.7,4.7,0,0,1-4.7-4.7,9.407,9.407,0,0,1,9.407-9.4h11.721A9.4,9.4,0,0,1,427.634,476.365Zm0,0" transform="translate(-272.62 -320.58)"/>
  <path id="Path_421" data-name="Path 421" class="cls-8" d="M448.39,466.957h-7.156a9.474,9.474,0,0,1,9.541,9.406,4.737,4.737,0,0,1-4.771,4.7h7.156a4.737,4.737,0,0,0,4.771-4.7A9.475,9.475,0,0,0,448.39,466.957Zm0,0" transform="translate(-302.918 -320.577)"/>
  <g id="Group_51" data-name="Group 51" transform="translate(14.188 152.466)">
    <path id="Path_422" data-name="Path 422" class="cls-5" d="M49.964,488.722v5.683h-4.7v-5.683a2.351,2.351,0,0,1,4.7,0Zm0,0" transform="translate(-45.262 -486.371)"/>
    <path id="Path_423" data-name="Path 423" class="cls-5" d="M87.894,488.722v5.683h-4.7v-5.683a2.351,2.351,0,0,1,4.7,0Zm0,0" transform="translate(-71.301 -486.371)"/>
    <path id="Path_424" data-name="Path 424" class="cls-5" d="M181.874,488.722v5.683h-4.7v-5.683a2.351,2.351,0,0,1,4.7,0Zm0,0" transform="translate(-135.821 -486.371)"/>
    <path id="Path_425" data-name="Path 425" class="cls-5" d="M219.8,488.722v5.683h-4.7v-5.683a2.351,2.351,0,0,1,4.7,0Zm0,0" transform="translate(-161.861 -486.371)"/>
    <path id="Path_426" data-name="Path 426" class="cls-5" d="M303.761,490.312V495.5h-4.7v-5.185a2.351,2.351,0,0,1,4.7,0Zm0,0" transform="translate(-219.499 -487.463)"/>
    <path id="Path_427" data-name="Path 427" class="cls-5" d="M338.761,490.312V495.5h-4.7v-5.185a2.351,2.351,0,0,1,4.7,0Zm0,0" transform="translate(-243.528 -487.463)"/>
    <path id="Path_428" data-name="Path 428" class="cls-5" d="M425.5,490.312v5.172h-4.7v-5.172a2.351,2.351,0,0,1,4.7,0Zm0,0" transform="translate(-303.078 -487.463)"/>
    <path id="Path_429" data-name="Path 429" class="cls-5" d="M460.5,490.312v5.172h-4.7v-5.172a2.351,2.351,0,0,1,4.7,0Zm0,0" transform="translate(-327.106 -487.463)"/>
  </g>
</svg>
