<svg xmlns="http://www.w3.org/2000/svg" width="170.988" height="171.007" viewBox="0 0 170.988 171.007">
  <defs>
    <style>
      .cls-1 {
        fill: #206496;
      }

      .cls-2 {
        fill: #e6f6fd;
      }

      .cls-3 {
        fill: #fbda53;
      }

      .cls-4 {
        fill: #f27935;
      }
    </style>
  </defs>
  <g id="_017-bin" data-name="017-bin" transform="translate(-8.997 -8.992)">
    <path id="Path_781" data-name="Path 781" class="cls-1" d="M179.985,94.511A85.321,85.321,0,0,1,135.2,169.666a82.1,82.1,0,0,1-16.131,6.728c-1.264.372-2.565.743-3.866,1.041-1.189.3-2.379.595-3.605.818a87.78,87.78,0,0,1-13.381,1.673c-1.227.037-2.49.074-3.717.074s-2.49-.037-3.717-.074A87.78,87.78,0,0,1,77.4,178.252c-1.227-.223-2.416-.52-3.605-.818-1.3-.3-2.6-.669-3.866-1.041A82.1,82.1,0,0,1,53.8,169.666,85.488,85.488,0,1,1,179.985,94.511Z" transform="translate(0 0)"/>
    <path id="Path_782" data-name="Path 782" class="cls-2" d="M60.762,49.436,30.332,28.082l6.412-9.125a11.151,11.151,0,0,1,15.525-2.721l12.173,8.549a11.151,11.151,0,0,1,2.721,15.525ZM40.691,26.268,58.944,39.062l2.133-3.04a3.717,3.717,0,0,0-.907-5.174L48,22.3a3.717,3.717,0,0,0-5.174.907Z" transform="translate(57.965 14.192)"/>
    <path id="Path_783" data-name="Path 783" class="cls-3" d="M102.476,78.851A7.434,7.434,0,0,1,98.209,77.5L25.191,26.265a7.435,7.435,0,0,1,8.541-12.173l73.018,51.241a7.434,7.434,0,0,1-4.274,13.518Z" transform="translate(35.408 10.196)"/>
    <path id="Path_784" data-name="Path 784" class="cls-4" d="M109.205,36l-3.9,60.288a81.526,81.526,0,0,1-20,7.768,84.845,84.845,0,0,1-41.406,0,81.525,81.525,0,0,1-20-7.768L20,36Z" transform="translate(29.894 73.378)"/>
    <rect id="Rectangle_52" data-name="Rectangle 52" class="cls-3" width="105" height="11" rx="1.5" transform="translate(41.982 97.99)"/>
    <g id="Group_117" data-name="Group 117" transform="translate(64.743 120.51)">
      <path id="Path_785" data-name="Path 785" class="cls-2" d="M38.434,42.717V98.4c-1.227.037-2.49.074-3.717.074S32.227,98.433,31,98.4V42.717a3.717,3.717,0,0,1,7.434,0Z" transform="translate(-4.963 -38.981)"/>
      <path id="Path_786" data-name="Path 786" class="cls-2" d="M49.31,43.1,44.144,94.878c-1.264.372-2.565.743-3.866,1.041-1.189.3-2.379.595-3.605.818a3.167,3.167,0,0,1-.074-1.189l5.278-53.188a3.735,3.735,0,1,1,7.434.743Z" transform="translate(10.179 -38.995)"/>
      <path id="Path_787" data-name="Path 787" class="cls-2" d="M36.725,95.547a3.167,3.167,0,0,1-.074,1.189c-1.227-.223-2.416-.52-3.605-.818-1.3-.3-2.6-.669-3.866-1.041L24.014,43.1a3.735,3.735,0,1,1,7.434-.743Z" transform="translate(-23.995 -38.995)"/>
    </g>
  </g>
</svg>
