<svg id="_019-teamwork" data-name="019-teamwork" xmlns="http://www.w3.org/2000/svg" width="200" height="200" viewBox="0 0 200 200">
  <defs>
    <style>
      .cls-1 {
        fill: #949bf0;
      }

      .cls-2 {
        fill: #2ba1cf;
      }

      .cls-3 {
        fill: #66baed;
      }

      .cls-4 {
        fill: #f2f0ec;
      }

      .cls-5 {
        fill: #d8d5d0;
      }

      .cls-6 {
        fill: #cc7a3b;
      }

      .cls-7 {
        fill: #a35418;
      }

      .cls-8 {
        fill: #eab599;
      }

      .cls-9 {
        fill: #f6caae;
      }

      .cls-10 {
        fill: #3d4159;
      }

      .cls-11 {
        fill: #fff;
      }

      .cls-12 {
        fill: #bfd5de;
      }

      .cls-13 {
        fill: #dde8ed;
      }

      .cls-14 {
        fill: #d3a489;
      }

      .cls-15 {
        fill: #f74f4f;
      }

      .cls-16 {
        fill: #bf8e75;
      }

      .cls-17 {
        fill: #2a2f4f;
      }
    </style>
  </defs>
  <path id="Path_1452" data-name="Path 1452" class="cls-1" d="M200,100a99.933,99.933,0,0,1-69.678,95.314,98,98,0,0,1-14.416,3.424.309.309,0,0,1-.066.009q-3.635.581-7.346.894-.792.066-1.588.122c-.748.049-1.5.093-2.254.127q-2.314.11-4.652.11-2.4,0-4.767-.114-1.071-.048-2.144-.127c-.534-.037-1.065-.073-1.6-.117q-3.8-.318-7.521-.923c-1.184-.192-2.364-.4-3.531-.633A98.772,98.772,0,0,1,65.7,193.959q-4.134-1.506-8.09-3.363-1.346-.632-2.678-1.311-3.415-1.726-6.673-3.706A100,100,0,1,1,200,100Zm0,0"/>
  <path id="Path_1453" data-name="Path 1453" class="cls-2" d="M93.826,289.935v68.314a98.772,98.772,0,0,1-14.743-4.126q-4.134-1.506-8.09-3.363-1.346-.632-2.678-1.311-3.415-1.726-6.673-3.706a100.292,100.292,0,0,1-39.677-45V289.935a27.106,27.106,0,0,1,20.078-26.18c.424-.114.848-.221,1.282-.31a26.176,26.176,0,0,1,3.526-.523c.731-.056,1.469-.09,2.216-.09H66.719a26.945,26.945,0,0,1,5.748.613c.105.02.212.044.317.069.311.07.626.146.931.229a.217.217,0,0,0,.024.008,27.132,27.132,0,0,1,20.087,26.184Zm0,0" transform="translate(-13.385 -160.163)"/>
  <path id="Path_1454" data-name="Path 1454" class="cls-3" d="M111.972,289.935v68.314a98.772,98.772,0,0,1-14.743-4.126q-4.134-1.506-8.09-3.363-1.346-.632-2.678-1.311-3.415-1.726-6.673-3.706a100.524,100.524,0,0,1-28.046-25.293V289.935a27.106,27.106,0,0,1,20.078-26.18c.426-.114.85-.221,1.282-.31a26.249,26.249,0,0,1,3.526-.523c.731-.056,1.469-.09,2.217-.09h6.02a26.945,26.945,0,0,1,5.748.613c.105.02.212.044.317.069.311.07.626.146.931.229a.217.217,0,0,0,.024.008,27.132,27.132,0,0,1,20.087,26.184Zm0,0" transform="translate(-31.53 -160.163)"/>
  <path id="Path_1455" data-name="Path 1455" class="cls-4" d="M105.03,264.4l-.064.307-8.109,37.712a7.888,7.888,0,0,1-7.672,6.255h-.137a7.887,7.887,0,0,1-7.672-6.255l-8.109-37.709-.064-.31Zm0,0" transform="translate(-44.608 -161.118)"/>
  <path id="Path_1456" data-name="Path 1456" class="cls-5" d="M89.117,267.918l-12.2,6.781L73.2,257.434l7.582-4.465" transform="translate(-44.608 -154.153)"/>
  <path id="Path_1457" data-name="Path 1457" class="cls-5" d="M113.941,267.918l12.2,6.781,3.711-17.265-7.582-4.465" transform="translate(-69.433 -154.153)"/>
  <path id="Path_1458" data-name="Path 1458" class="cls-6" d="M20.676,125.5V84.628a36.435,36.435,0,1,1,72.87,0V125.5" transform="translate(-12.599 -29.367)"/>
  <path id="Path_1459" data-name="Path 1459" class="cls-7" d="M35.661,86.229c0,14.458,8.467,31.184,13.116,39.279H20.672V84.633A36.412,36.412,0,0,1,56.841,48.2C45.64,48.478,35.661,66.45,35.661,86.229Zm0,0" transform="translate(-12.597 -29.371)"/>
  <path id="Path_1460" data-name="Path 1460" class="cls-8" d="M108.534,236.105v11.868a9.669,9.669,0,0,1-19.339,0V236.105Zm0,0" transform="translate(-54.353 -143.877)"/>
  <path id="Path_1461" data-name="Path 1461" class="cls-9" d="M117.58,264.563v.752a9.668,9.668,0,0,1-6.81,9.236,9.666,9.666,0,0,1-6.731-7.977q.968.06,1.947.06a33.4,33.4,0,0,0,11.594-2.071Zm0,0" transform="translate(-63.399 -161.218)"/>
  <path id="Path_1462" data-name="Path 1462" class="cls-9" d="M17.986,172.289a8.993,8.993,0,1,1-7.553-8.876A8.993,8.993,0,0,1,17.986,172.289Zm0,0" transform="translate(0 -99.509)"/>
  <path id="Path_1463" data-name="Path 1463" class="cls-8" d="M32.4,172.47a8.993,8.993,0,0,1-7.553,8.878,33.615,33.615,0,0,1,0-17.754A8.991,8.991,0,0,1,32.4,172.47Zm0,0" transform="translate(-14.413 -99.69)"/>
  <path id="Path_1464" data-name="Path 1464" class="cls-8" d="M21.221,181.3a3.214,3.214,0,1,1-3.215-3.214A3.214,3.214,0,0,1,21.221,181.3Zm0,0" transform="translate(-9.014 -108.523)"/>
  <path id="Path_1465" data-name="Path 1465" class="cls-8" d="M84.844,125.08v30.911a33.33,33.33,0,0,1-17.72,8.818l-.165.027a33.039,33.039,0,0,1-5.206.4A33.457,33.457,0,0,1,28.3,131.784V119.043a33.715,33.715,0,0,1,.342-4.8,21.2,21.2,0,0,0,26.646-1.714,18.949,18.949,0,0,0,5.028-7.857,22.079,22.079,0,0,0,6.906,13.783A24.693,24.693,0,0,0,84.844,125.08Zm0,0" transform="translate(-17.243 -63.782)"/>
  <path id="Path_1466" data-name="Path 1466" class="cls-9" d="M101.1,125.08v30.911a33.33,33.33,0,0,1-17.72,8.818l-.165.027a33.462,33.462,0,0,1-28.244-33.052V119.043q0-.508.018-1.012a20.965,20.965,0,0,0,16.551-5.508,18.944,18.944,0,0,0,5.028-7.855,22.079,22.079,0,0,0,6.906,13.783A24.693,24.693,0,0,0,101.1,125.08Zm0,0" transform="translate(-33.497 -63.782)"/>
  <path id="Path_1467" data-name="Path 1467" class="cls-8" d="M142.611,158.182a5.557,5.557,0,0,0-11.115,0" transform="translate(-80.13 -93.006)"/>
  <path id="Path_1468" data-name="Path 1468" class="cls-8" d="M79.074,158.182a5.556,5.556,0,1,0-11.113,0" transform="translate(-41.414 -93.006)"/>
  <path id="Path_1469" data-name="Path 1469" class="cls-10" d="M80.06,166.986a3.8,3.8,0,1,1-3.8-3.795A3.8,3.8,0,0,1,80.06,166.986Zm0,0" transform="translate(-44.161 -99.445)"/>
  <path id="Path_1470" data-name="Path 1470" class="cls-10" d="M143.6,166.986a3.795,3.795,0,1,1-3.795-3.795A3.8,3.8,0,0,1,143.6,166.986Zm0,0" transform="translate(-82.88 -99.445)"/>
  <path id="Path_1471" data-name="Path 1471" class="cls-8" d="M109.275,192.263h-7.591a1.637,1.637,0,0,1,0-3.275h7.591a1.637,1.637,0,0,1,0,3.275Zm0,0" transform="translate(-60.966 -115.165)"/>
  <path id="Path_1472" data-name="Path 1472" class="cls-8" d="M100.024,211.348a16.284,16.284,0,0,0-8.157,2.21,1.6,1.6,0,0,0-.587,2.119,1.455,1.455,0,0,0,2.022.616,13.321,13.321,0,0,1,13.446,0,1.453,1.453,0,0,0,2.022-.616,1.6,1.6,0,0,0-.587-2.119A16.284,16.284,0,0,0,100.024,211.348Zm0,0" transform="translate(-55.511 -128.348)"/>
  <path id="Path_1473" data-name="Path 1473" class="cls-11" d="M84.847,168.654a1.627,1.627,0,1,1-1.627-1.627A1.627,1.627,0,0,1,84.847,168.654Zm0,0" transform="translate(-49.721 -101.782)"/>
  <path id="Path_1474" data-name="Path 1474" class="cls-11" d="M148.861,168.654a1.626,1.626,0,1,1-1.625-1.627A1.626,1.626,0,0,1,148.861,168.654Zm0,0" transform="translate(-88.731 -101.782)"/>
  <path id="Path_1475" data-name="Path 1475" class="cls-8" d="M159.246,190.071a4.168,4.168,0,1,1-4.169-4.169A4.168,4.168,0,0,1,159.246,190.071Zm0,0" transform="translate(-91.961 -113.284)"/>
  <path id="Path_1476" data-name="Path 1476" class="cls-8" d="M63.987,190.071A4.167,4.167,0,1,1,59.82,185.9,4.167,4.167,0,0,1,63.987,190.071Zm0,0" transform="translate(-33.913 -113.284)"/>
  <path id="Path_1477" data-name="Path 1477" class="cls-12" d="M371.735,285.878V298.4A100.4,100.4,0,0,1,323.1,347.531a99.8,99.8,0,0,1-26.482,8.138.309.309,0,0,1-.066.009v-69.8a28.35,28.35,0,0,1,26.038-28.258c.768-.066,1.538-.093,2.318-.093h18.466a28.311,28.311,0,0,1,28.363,28.351Zm0,0" transform="translate(-180.711 -156.931)"/>
  <path id="Path_1478" data-name="Path 1478" class="cls-13" d="M394.328,285.878V298.4a100.4,100.4,0,0,1-48.637,49.135,98.97,98.97,0,0,1-12.065,4.713V285.878a28.357,28.357,0,0,1,28.36-28.351h3.983A28.354,28.354,0,0,1,394.328,285.878Zm0,0" transform="translate(-203.303 -156.931)"/>
  <path id="Path_1479" data-name="Path 1479" class="cls-14" d="M292.38,162.787a9.4,9.4,0,1,1-7.9-9.288A9.408,9.408,0,0,1,292.38,162.787Zm0,0" transform="translate(-166.702 -93.465)"/>
  <path id="Path_1480" data-name="Path 1480" class="cls-15" d="M388.522,283.711l-7.613,12.21-7.613-12.21" transform="translate(-227.478 -172.886)"/>
  <path id="Path_1481" data-name="Path 1481" class="cls-15" d="M387.047,344.5l-10.242,12.924L366.563,344.5l10.245-37.668Zm0,0" transform="translate(-223.374 -186.978)"/>
  <path id="Path_1482" data-name="Path 1482" class="cls-16" d="M307.462,162.976a9.408,9.408,0,0,1-7.9,9.288,35.182,35.182,0,0,1,0-18.576A9.411,9.411,0,0,1,307.462,162.976Zm0,0" transform="translate(-181.784 -93.653)"/>
  <path id="Path_1483" data-name="Path 1483" class="cls-16" d="M295.768,172.221a3.362,3.362,0,1,1-3.363-3.362A3.363,3.363,0,0,1,295.768,172.221Zm0,0" transform="translate(-176.136 -102.899)"/>
  <path id="Path_1484" data-name="Path 1484" class="cls-12" d="M366.805,262.837l-12.766,7.1-3.883-18.065,7.932-4.672" transform="translate(-213.376 -150.635)"/>
  <path id="Path_1485" data-name="Path 1485" class="cls-12" d="M392.777,262.837l12.767,7.1,3.883-18.065-7.933-4.672" transform="translate(-239.349 -150.635)"/>
  <path id="Path_1486" data-name="Path 1486" class="cls-14" d="M463.828,162.787a9.4,9.4,0,1,0,7.9-9.288A9.408,9.408,0,0,0,463.828,162.787Zm0,0" transform="translate(-282.645 -93.465)"/>
  <g id="Group_282" data-name="Group 282" transform="translate(118.425 29.258)">
    <path id="Path_1487" data-name="Path 1487" class="cls-16" d="M463.828,162.976a9.408,9.408,0,0,0,7.9,9.288,35.182,35.182,0,0,0,0-18.576A9.411,9.411,0,0,0,463.828,162.976Zm0,0" transform="translate(-401.07 -122.911)"/>
    <path id="Path_1488" data-name="Path 1488" class="cls-16" d="M486.031,172.221a3.363,3.363,0,1,1-3.363-3.362A3.363,3.363,0,0,1,486.031,172.221Zm0,0" transform="translate(-410.501 -132.157)"/>
    <path id="Path_1489" data-name="Path 1489" class="cls-16" d="M373.18,109.964a35.008,35.008,0,0,1-29.388,34.554,34.58,34.58,0,0,1-5.618.452,35,35,0,0,1-35.005-35.005c0-9.148,3.177-22.881,8.922-29.117,6.4-6.944,15.9-5.89,26.083-5.89a34.594,34.594,0,0,1,5.618.453A35.007,35.007,0,0,1,373.18,109.964Zm0,0" transform="translate(-303.168 -74.9)"/>
    <path id="Path_1490" data-name="Path 1490" class="cls-16" d="M387.117,229.559v12.416a10.117,10.117,0,0,1-20.235,0V229.559Zm0,0" transform="translate(-341.994 -169.145)"/>
  </g>
  <path id="Path_1491" data-name="Path 1491" class="cls-14" d="M396.582,259.328v.787a10.115,10.115,0,0,1-7.126,9.663,10.112,10.112,0,0,1-7.042-8.347q1.014.062,2.039.063a34.78,34.78,0,0,0,5.618-.452A34.42,34.42,0,0,0,396.582,259.328Zm0,0" transform="translate(-233.034 -158.028)"/>
  <path id="Path_1492" data-name="Path 1492" class="cls-14" d="M390.709,110.758a35.008,35.008,0,0,1-29.388,34.554,35.009,35.009,0,0,1,0-69.109,35.018,35.018,0,0,1,29.216,31.064C390.651,108.416,390.709,109.582,390.709,110.758Zm0,0" transform="translate(-202.272 -45.311)"/>
  <path id="Path_1493" data-name="Path 1493" class="cls-16" d="M378.211,195.68a17.75,17.75,0,0,0-8.534,2.192,1.544,1.544,0,0,0-.615,2.1,1.56,1.56,0,0,0,2.115.61,14.6,14.6,0,0,1,14.069,0,1.551,1.551,0,1,0,1.5-2.715A17.759,17.759,0,0,0,378.211,195.68Zm0,0" transform="translate(-223.779 -120.78)"/>
  <path id="Path_1494" data-name="Path 1494" class="cls-10" d="M361.309,153.253a3.971,3.971,0,1,1-3.972-3.972A3.971,3.971,0,0,1,361.309,153.253Zm0,0" transform="translate(-215.333 -90.968)"/>
  <path id="Path_1495" data-name="Path 1495" class="cls-10" d="M419.809,153.253a3.971,3.971,0,1,1-3.97-3.972A3.97,3.97,0,0,1,419.809,153.253Zm0,0" transform="translate(-250.982 -90.968)"/>
  <path id="Path_1496" data-name="Path 1496" class="cls-11" d="M366.317,155a1.7,1.7,0,1,1-1.7-1.7A1.7,1.7,0,0,1,366.317,155Zm0,0" transform="translate(-221.151 -93.415)"/>
  <path id="Path_1497" data-name="Path 1497" class="cls-11" d="M425.317,155a1.7,1.7,0,1,1-1.7-1.7A1.7,1.7,0,0,1,425.317,155Zm0,0" transform="translate(-257.104 -93.415)"/>
  <path id="Path_1498" data-name="Path 1498" class="cls-16" d="M387.886,179.7h-7.942a1.713,1.713,0,1,1,0-3.426h7.942a1.713,1.713,0,1,1,0,3.426Zm0,0" transform="translate(-230.484 -107.417)"/>
  <path id="Path_1499" data-name="Path 1499" class="cls-12" d="M422.289,327.727h15.26V332.4h-15.26Zm0,0" transform="translate(-257.332 -199.708)"/>
  <path id="Path_1500" data-name="Path 1500" class="cls-17" d="M387.539,49.363A21.215,21.215,0,0,1,407.2,69.47l.1,2.025h6.1l3.285,21.848,7.957-2.463-1.068-21.408A21.217,21.217,0,0,0,402.3,49.308Zm0,0" transform="translate(-236.157 -30.047)"/>
  <path id="Path_1501" data-name="Path 1501" class="cls-10" d="M430.354,27.816a21.623,21.623,0,0,1-30.58,30.58Zm0,0" transform="translate(-243.612 -16.951)"/>
  <path id="Path_1502" data-name="Path 1502" class="cls-10" d="M340.833,71.491H314.3L311.008,93.34l-7.957-2.463,1.067-21.41A21.219,21.219,0,0,1,325.39,49.3l38.329.145,5.067,9.12" transform="translate(-184.672 -30.045)"/>
  <path id="Path_1503" data-name="Path 1503" class="cls-17" d="M340.149,49.363A21.215,21.215,0,0,0,320.491,69.47l-.1,2.025h-6.1L311,93.342l-7.957-2.463,1.068-21.408a21.217,21.217,0,0,1,21.271-20.163Zm0,0" transform="translate(-184.669 -30.047)"/>
  <path id="Path_1504" data-name="Path 1504" class="cls-10" d="M232.256,418.859v7.5a100.263,100.263,0,0,1-84.779,0v-7.494a31.981,31.981,0,0,1,23.689-30.89c.5-.134,1-.258,1.511-.368a31.614,31.614,0,0,1,4.16-.612c.865-.07,1.735-.107,2.617-.107h20.824a32.052,32.052,0,0,1,6.784.719c.127.024.253.053.375.082.368.085.734.175,1.1.273a.161.161,0,0,1,.029.008,32.009,32.009,0,0,1,23.694,30.894Zm0,0" transform="translate(-89.869 -235.757)"/>
  <path id="Path_1505" data-name="Path 1505" class="cls-3" d="M245.476,388.723l-.078.363-10.2,47.433q-.792.066-1.588.122c-.748.049-1.5.093-2.254.127q-2.314.11-4.652.11-2.4,0-4.767-.114-1.071-.048-2.144-.127c-.534-.037-1.065-.073-1.6-.117L208,389.09l-.076-.368Zm0,0" transform="translate(-126.705 -236.878)"/>
  <path id="Path_1506" data-name="Path 1506" class="cls-10" d="M251.187,416.422,242.6,430.188l-8.583-13.766" transform="translate(-142.606 -253.757)"/>
  <path id="Path_1507" data-name="Path 1507" class="cls-10" d="M252.125,469.407c-.748.049-1.5.093-2.254.127q-2.314.11-4.652.11-2.4,0-4.767-.114-1.071-.048-2.144-.127l6.911-26.91Zm0,0" transform="translate(-145.219 -269.644)"/>
  <path id="Path_1508" data-name="Path 1508" class="cls-2" d="M226.7,392.88l-14.4,8-4.379-20.369,8.945-5.269" transform="translate(-126.702 -228.663)"/>
  <path id="Path_1509" data-name="Path 1509" class="cls-2" d="M255.988,392.88l14.4,8,4.379-20.369-8.945-5.269" transform="translate(-155.993 -228.663)"/>
  <path id="Path_1510" data-name="Path 1510" class="cls-17" d="M282.572,416.213h4.567l-7.976,19.4a99.378,99.378,0,0,1-11.253,1.152l14.012-47.69.107-.356,9.85,3.217Zm0,0" transform="translate(-163.258 -236.878)"/>
  <path id="Path_1511" data-name="Path 1511" class="cls-17" d="M206.4,436.763A99.059,99.059,0,0,1,195.14,435.6l-7.968-19.383h4.567l-9.309-24.274,9.853-3.217.107.356Zm0,0" transform="translate(-111.168 -236.878)"/>
  <path id="Path_1512" data-name="Path 1512" class="cls-8" d="M249.6,355.352v14a11.409,11.409,0,0,1-22.818,0v-14Zm0,0" transform="translate(-138.197 -216.542)"/>
  <path id="Path_1513" data-name="Path 1513" class="cls-9" d="M260.274,388.922v.888a11.41,11.41,0,0,1-8.035,10.9,11.406,11.406,0,0,1-7.942-9.413q1.144.071,2.3.07a39.335,39.335,0,0,0,13.68-2.443Zm0,0" transform="translate(-148.868 -236.999)"/>
  <path id="Path_1514" data-name="Path 1514" class="cls-9" d="M142.771,280.056a10.612,10.612,0,0,1-8.911,10.474,10.733,10.733,0,0,1-1.7.136,10.61,10.61,0,1,1,10.609-10.609Zm0,0" transform="translate(-74.07 -164.193)"/>
  <path id="Path_1515" data-name="Path 1515" class="cls-8" d="M159.779,280.271a10.612,10.612,0,0,1-8.911,10.474,39.69,39.69,0,0,1,0-20.947A10.612,10.612,0,0,1,159.779,280.271Zm0,0" transform="translate(-91.078 -164.408)"/>
  <path id="Path_1516" data-name="Path 1516" class="cls-8" d="M146.591,290.694A3.792,3.792,0,1,1,142.8,286.9,3.793,3.793,0,0,1,146.591,290.694Zm0,0" transform="translate(-84.708 -174.831)"/>
  <path id="Path_1517" data-name="Path 1517" class="cls-9" d="M336.105,280.056a10.613,10.613,0,1,0,8.911-10.474A10.612,10.612,0,0,0,336.105,280.056Zm0,0" transform="translate(-204.814 -164.193)"/>
  <path id="Path_1518" data-name="Path 1518" class="cls-8" d="M336.105,280.271a10.612,10.612,0,0,0,8.911,10.474,39.69,39.69,0,0,0,0-20.947A10.612,10.612,0,0,0,336.105,280.271Zm0,0" transform="translate(-204.814 -164.408)"/>
  <path id="Path_1519" data-name="Path 1519" class="cls-8" d="M233.889,182.113v15.031a39.475,39.475,0,0,1-33.141,38.963l-.192.032a38.784,38.784,0,0,1-6.143.478,39.471,39.471,0,0,1-39.471-39.471V182.113a39.45,39.45,0,0,1,39.471-39.476h0a39.447,39.447,0,0,1,39.473,39.476Zm0,0" transform="translate(-94.417 -86.919)"/>
  <path id="Path_1520" data-name="Path 1520" class="cls-8" d="M361.142,290.694a3.792,3.792,0,1,1-3.792-3.792A3.792,3.792,0,0,1,361.142,290.694Zm0,0" transform="translate(-215.45 -174.831)"/>
  <path id="Path_1521" data-name="Path 1521" class="cls-9" d="M253.061,182.858v15.031a39.475,39.475,0,0,1-33.139,38.963l-.194.032a39.48,39.48,0,0,1-33.322-39V182.858a39.482,39.482,0,0,1,33.33-39A39.481,39.481,0,0,1,253.061,182.858Zm0,0" transform="translate(-113.591 -87.664)"/>
  <path id="Path_1522" data-name="Path 1522" class="cls-10" d="M220.5,269.305a4.478,4.478,0,1,1-4.477-4.477A4.478,4.478,0,0,1,220.5,269.305Zm0,0" transform="translate(-128.909 -161.38)"/>
  <path id="Path_1523" data-name="Path 1523" class="cls-10" d="M286.469,269.305a4.478,4.478,0,1,1-4.478-4.477A4.478,4.478,0,0,1,286.469,269.305Zm0,0" transform="translate(-169.109 -161.38)"/>
  <path id="Path_1524" data-name="Path 1524" class="cls-11" d="M226.146,271.275a1.919,1.919,0,1,1-1.92-1.92A1.919,1.919,0,0,1,226.146,271.275Zm0,0" transform="translate(-135.469 -164.139)"/>
  <path id="Path_1525" data-name="Path 1525" class="cls-11" d="M292.677,271.275a1.919,1.919,0,1,1-1.918-1.92A1.918,1.918,0,0,1,292.677,271.275Zm0,0" transform="translate(-176.012 -164.139)"/>
  <path id="Path_1526" data-name="Path 1526" class="cls-8" d="M250.471,294.633h-8.957a1.932,1.932,0,1,1,0-3.864h8.957a1.932,1.932,0,0,1,0,3.864Zm0,0" transform="translate(-145.995 -177.188)"/>
  <path id="Path_1527" data-name="Path 1527" class="cls-8" d="M239.558,317.147a27.928,27.928,0,0,0-9.624,1.671c-.85.314-1.161,1.032-.693,1.6a2.261,2.261,0,0,0,2.385.467,23.534,23.534,0,0,1,15.863,0,2.257,2.257,0,0,0,2.385-.467c.468-.57.157-1.288-.693-1.6A27.934,27.934,0,0,0,239.558,317.147Zm0,0" transform="translate(-138.561 -192.147)"/>
  <path id="Path_1528" data-name="Path 1528" class="cls-17" d="M233.886,159.193v15.4h-7.347V162.531l-53.033-9.854-11.221-2.086v24h-7.347v-15.4a31.778,31.778,0,0,1,31.778-31.781h15.393c.418,0,.836.008,1.254.029A31.773,31.773,0,0,1,233.886,159.193Zm0,0" transform="translate(-94.415 -77.641)"/>
  <path id="Path_1529" data-name="Path 1529" class="cls-10" d="M262.853,159.238v15.4h-7.347V162.577l-53.033-9.854a31.782,31.782,0,0,1,29.857-25.238A31.773,31.773,0,0,1,262.853,159.238Zm0,0" transform="translate(-123.382 -77.686)"/>
</svg>
