<svg xmlns="http://www.w3.org/2000/svg" xmlns:xlink="http://www.w3.org/1999/xlink" width="238" height="240" viewBox="0 0 238 240">
  <defs>
    <style>
      .cls-1 {
        fill: #a4ccff;
      }

      .cls-2 {
        fill: #65a9ff;
      }

      .cls-3 {
        fill: #edbb8e;
      }

      .cls-4 {
        fill: #dba375;
      }

      .cls-5 {
        fill: #935635;
      }

      .cls-6 {
        fill: #804000;
      }

      .cls-7 {
        fill: #f4e3c3;
      }

      .cls-8 {
        fill: #fed8b2;
      }

      .cls-9 {
        fill: #b97850;
      }

      .cls-10 {
        fill: #324a5e;
      }

      .cls-11 {
        filter: url(#Path_1104);
      }
    </style>
    <filter id="Path_1104" x="0" y="0" width="238" height="240" filterUnits="userSpaceOnUse">
      <feOffset dx="3" dy="3" input="SourceAlpha"/>
      <feGaussianBlur stdDeviation="3" result="blur"/>
      <feFlood flood-opacity="0.502"/>
      <feComposite operator="in" in2="blur"/>
      <feComposite in="SourceGraphic"/>
    </filter>
  </defs>
  <g id="_031-dog" data-name="031-dog" transform="translate(6 5.749)">
    <g class="cls-11" transform="matrix(1, 0, 0, 1, -6, -5.75)">
      <path id="Path_1104-2" data-name="Path 1104" class="cls-1" d="M110,0c60.751,0,110,49.7,110,111S170.751,222,110,222,0,172.3,0,111,49.249,0,110,0Z" transform="translate(6 6)"/>
    </g>
    <path id="Path_584" data-name="Path 584" class="cls-2" d="M295.447,215.01l-67.861-68.479-47.786,33.7-43.88,15.706,34.369,34.681,51.848,68.661A110.784,110.784,0,0,0,295.447,215.01Z" transform="translate(-77.548 -82.932)"/>
    <g id="Group_84" data-name="Group 84" transform="translate(60.324 100.106)">
      <path id="Path_585" data-name="Path 585" class="cls-3" d="M190.084,352.647A108.671,108.671,0,0,0,239.7,340.728l-28.058-99.1a14.856,14.856,0,0,0-14.264-10.857H182.79a14.854,14.854,0,0,0-14.264,10.857l-28.059,99.1A108.674,108.674,0,0,0,190.084,352.647Z" transform="translate(-140.467 -230.773)"/>
      <path id="Path_586" data-name="Path 586" class="cls-3" d="M182.789,230.772a14.854,14.854,0,0,0-14.264,10.857l-28.059,99.1a108.677,108.677,0,0,0,49.617,11.919h0V230.772Z" transform="translate(-140.466 -230.772)"/>
    </g>
    <path id="Path_587" data-name="Path 587" class="cls-4" d="M277.558,241.631a14.856,14.856,0,0,0-14.264-10.857H256V352.647a108.665,108.665,0,0,0,49.616-11.919Z" transform="translate(-146.059 -130.667)"/>
    <path id="Path_588" data-name="Path 588" class="cls-5" d="M149.363,142.222h5.927a6.036,6.036,0,0,1,5.8,4.412l11.576,40.884a6.071,6.071,0,0,1-5.8,7.753H137.787a6.072,6.072,0,0,1-5.8-7.753l11.576-40.884A6.037,6.037,0,0,1,149.363,142.222Z" transform="translate(-75.172 -80.49)"/>
    <path id="Path_589" data-name="Path 589" class="cls-6" d="M302.053,142.222h5.927a6.036,6.036,0,0,1,5.8,4.412l11.576,40.884a6.072,6.072,0,0,1-5.8,7.753H290.477a6.072,6.072,0,0,1-5.8-7.753l11.576-40.884A6.036,6.036,0,0,1,302.053,142.222Z" transform="translate(-162.288 -80.49)"/>
    <g id="Group_85" data-name="Group 85" transform="translate(76.481 61.732)">
      <path id="Path_590" data-name="Path 590" class="cls-7" d="M216.368,228.509h-9.641a9.817,9.817,0,0,1-9.427-7.176l-18.829-66.5a9.876,9.876,0,0,1,9.427-12.611h47.3a9.876,9.876,0,0,1,9.427,12.611l-18.829,66.5A9.814,9.814,0,0,1,216.368,228.509Z" transform="translate(-178.089 -142.222)"/>
      <path id="Path_591" data-name="Path 591" class="cls-7" d="M187.9,142.222a9.876,9.876,0,0,0-9.427,12.611l18.829,66.5a9.818,9.818,0,0,0,9.427,7.176h4.82V142.222Z" transform="translate(-178.089 -142.222)"/>
    </g>
    <path id="Path_592" data-name="Path 592" class="cls-8" d="M279.649,142.222H256v86.287h4.82a9.817,9.817,0,0,0,9.427-7.176l18.829-66.5A9.876,9.876,0,0,0,279.649,142.222Z" transform="translate(-146.059 -80.49)"/>
    <ellipse id="Ellipse_125" data-name="Ellipse 125" class="cls-9" cx="12.215" cy="12.327" rx="12.215" ry="12.327" transform="translate(85.51 74.059)"/>
    <g id="Group_86" data-name="Group 86" transform="translate(94.024 82.65)">
      <ellipse id="Ellipse_126" data-name="Ellipse 126" class="cls-10" cx="3.702" cy="3.736" rx="3.702" ry="3.736"/>
      <ellipse id="Ellipse_127" data-name="Ellipse 127" class="cls-10" cx="3.702" cy="3.736" rx="3.702" ry="3.736" transform="translate(24.431)"/>
    </g>
    <g id="Group_87" data-name="Group 87" transform="translate(103.833 135.693)">
      <ellipse id="Ellipse_128" data-name="Ellipse 128" class="cls-5" cx="6.108" cy="6.163" rx="6.108" ry="6.163"/>
      <path id="Path_593" data-name="Path 593" class="cls-5" d="M247.886,312.889a6.164,6.164,0,0,0,0,12.327h0V312.889Z" transform="translate(-241.778 -312.889)"/>
    </g>
    <path id="Path_594" data-name="Path 594" class="cls-6" d="M262.108,319.052A6.135,6.135,0,0,0,256,312.889v12.327A6.136,6.136,0,0,0,262.108,319.052Z" transform="translate(-146.059 -177.196)"/>
  </g>
</svg>
