<svg xmlns="http://www.w3.org/2000/svg" width="70" height="60.156" viewBox="0 0 70 60.156">
  <defs>
    <style>
      .cls-1 {
        fill: #ffe07d;
      }

      .cls-2 {
        fill: #dbeaff;
      }

      .cls-3 {
        fill: #ff8086;
      }

      .cls-4 {
        fill: #edf4ff;
      }

      .cls-5 {
        fill: #e5646e;
      }

      .cls-6 {
        fill: #c3ddff;
      }

      .cls-7 {
        fill: #ffd064;
      }
    </style>
  </defs>
  <g id="_048-air" data-name="048-air" transform="translate(0 -36)">
    <path id="Path_1245" data-name="Path 1245" class="cls-1" d="M278.219,338.563H274.3l2.773-2.773a1.094,1.094,0,0,0-1.547-1.547l-2.773,2.773v-3.922a1.094,1.094,0,0,0-2.187,0v3.922l-2.773-2.773a1.094,1.094,0,1,0-1.547,1.547l2.773,2.773h-3.922a1.094,1.094,0,0,0,0,2.188h3.922l-2.773,2.773a1.094,1.094,0,0,0,1.547,1.547l2.773-2.773v3.922a1.094,1.094,0,0,0,2.188,0V342.3l2.773,2.773a1.094,1.094,0,0,0,1.547-1.547L274.3,340.75h3.922a1.094,1.094,0,0,0,0-2.187Z" transform="translate(-227.906 -255.531)"/>
    <g id="Group_266" data-name="Group 266" transform="translate(5.469 36)">
      <path id="Path_1246" data-name="Path 1246" class="cls-2" d="M283.4,46.832a1.094,1.094,0,0,0,1.457-.519,14.221,14.221,0,0,1,27.069,6.093c0,.466-.023.926-.067,1.381h2.2c.038-.455.059-.916.059-1.381a16.408,16.408,0,0,0-31.233-7.032A1.094,1.094,0,0,0,283.4,46.832Z" transform="translate(-249.586 -36)"/>
      <path id="Path_1247" data-name="Path 1247" class="cls-2" d="M58.594,260h-17.5a1.094,1.094,0,0,0,0,2.188h17.5Z" transform="translate(-40 -229.375)"/>
    </g>
    <path id="Path_1248" data-name="Path 1248" class="cls-3" d="M298.764,360.375a4.376,4.376,0,0,0-6.533-3.807,4.116,4.116,0,0,0-1.9,3.807c0,2.416,1.64,3.828,4.056,3.828,1.631,0,3.053-.345,3.805-1.668A4.355,4.355,0,0,0,298.764,360.375Z" transform="translate(-250.639 -276.25)"/>
    <g id="Group_267" data-name="Group 267" transform="translate(2.188 72.094)">
      <path id="Path_1249" data-name="Path 1249" class="cls-2" d="M46.625,300H17.094a1.094,1.094,0,0,0,0,2.188H46.625Z" transform="translate(-16 -300)"/>
      <path id="Path_1250" data-name="Path 1250" class="cls-2" d="M259.586,378.616c.028.3.047.655.047.962a9.846,9.846,0,0,1-18.867,3.941,1.094,1.094,0,0,0-2,.877,12.03,12.03,0,0,0,22.983-6.152C261.023,378.37,260.3,378.451,259.586,378.616Z" transform="translate(-208.227 -367.547)"/>
    </g>
    <path id="Path_1251" data-name="Path 1251" class="cls-4" d="M27.344,342.188H1.094a1.094,1.094,0,1,1,0-2.187h26.25a1.094,1.094,0,0,1,0,2.188Z" transform="translate(0 -262.438)"/>
    <path id="Path_1252" data-name="Path 1252" class="cls-4" d="M80.063,180.75H57.094a1.094,1.094,0,0,1,0-2.187H80.063a2.188,2.188,0,0,0,0-4.375,1.094,1.094,0,0,1,0-2.187,4.375,4.375,0,0,1,0,8.75Z" transform="translate(-48.344 -117.406)"/>
    <path id="Path_1253" data-name="Path 1253" class="cls-5" d="M294.016,366.7a4.371,4.371,0,0,1-3.8-6.541,4.376,4.376,0,1,0,5.963,5.967A4.38,4.38,0,0,1,294.016,366.7Z" transform="translate(-248.625 -279.838)"/>
    <path id="Path_1254" data-name="Path 1254" class="cls-6" d="M213.9,156a1.079,1.079,0,0,0-1.087.983,14.238,14.238,0,0,1-14.185,13.236H169.094a1.094,1.094,0,0,0,0,2.188h29.531a16.428,16.428,0,0,0,16.363-15.2A1.106,1.106,0,0,0,213.9,156Z" transform="translate(-145.031 -103.594)"/>
    <path id="Path_1255" data-name="Path 1255" class="cls-6" d="M244.031,300H233.094a1.094,1.094,0,0,0,0,2.188h10.938a9.858,9.858,0,0,1,9.8,8.882,1.079,1.079,0,0,0,1.08.962A1.1,1.1,0,0,0,256,310.826,12.048,12.048,0,0,0,244.031,300Z" transform="translate(-200.281 -227.906)"/>
    <path id="Path_1256" data-name="Path 1256" class="cls-7" d="M0,0H2.188V4.375H0Z" transform="translate(45.853 46.223) rotate(-45)"/>
    <circle id="Ellipse_308" data-name="Ellipse 308" class="cls-1" cx="1.094" cy="1.094" r="1.094" transform="translate(45.539 44.352)"/>
    <path id="Path_1257" data-name="Path 1257" class="cls-7" d="M0,0H2.188V4.375H0Z" transform="translate(61.336 58.59) rotate(135)"/>
    <circle id="Ellipse_309" data-name="Ellipse 309" class="cls-1" cx="1.094" cy="1.094" r="1.094" transform="translate(59.461 58.273)"/>
    <path id="Path_1258" data-name="Path 1258" class="cls-7" d="M0,0H2.188V4.375H0Z" transform="translate(47.409 60.148) rotate(-135)"/>
    <circle id="Ellipse_310" data-name="Ellipse 310" class="cls-1" cx="1.094" cy="1.094" r="1.094" transform="translate(45.539 58.273)"/>
    <path id="Path_1259" data-name="Path 1259" class="cls-7" d="M0,0H2.188V4.375H0Z" transform="translate(59.776 44.665) rotate(45)"/>
    <circle id="Ellipse_311" data-name="Ellipse 311" class="cls-1" cx="1.094" cy="1.094" r="1.094" transform="translate(59.461 44.352)"/>
    <path id="Path_1260" data-name="Path 1260" class="cls-7" d="M0,0H2.188V4.375H0Z" transform="translate(43.75 53.5) rotate(-90)"/>
    <circle id="Ellipse_312" data-name="Ellipse 312" class="cls-1" cx="1" cy="1" r="1" transform="translate(43 51.156)"/>
    <path id="Path_1261" data-name="Path 1261" class="cls-7" d="M0,0H2.188V4.375H0Z" transform="translate(63.438 51.313) rotate(90)"/>
    <ellipse id="Ellipse_313" data-name="Ellipse 313" class="cls-1" cx="1.5" cy="1" rx="1.5" ry="1" transform="translate(62 51.156)"/>
    <path id="Path_1262" data-name="Path 1262" class="cls-7" d="M0,0H2.188V4.375H0Z" transform="translate(54.688 62.25) rotate(180)"/>
    <circle id="Ellipse_314" data-name="Ellipse 314" class="cls-1" cx="1" cy="1" r="1" transform="translate(53 61.156)"/>
    <path id="Path_1263" data-name="Path 1263" class="cls-7" d="M384,84h2.188v4.375H384Z" transform="translate(-331.5 -41.438)"/>
    <circle id="Ellipse_315" data-name="Ellipse 315" class="cls-1" cx="1" cy="1" r="1" transform="translate(53 41.156)"/>
    <path id="Path_1264" data-name="Path 1264" class="cls-3" d="M361.934,114.563a6.533,6.533,0,0,1-1.119,3.666c-1.179,1.747-3.177,2.421-5.444,2.421-3.624,0-5.8-2.463-5.8-6.087,0-2.267.387-4.265,2.135-5.444a6.564,6.564,0,0,1,10.229,5.444Z" transform="translate(-301.777 -62.156)"/>
    <path id="Path_1265" data-name="Path 1265" class="cls-5" d="M352.34,126.412a6.563,6.563,0,0,1-5.444-10.229,6.563,6.563,0,1,0,9.11,9.11A6.532,6.532,0,0,1,352.34,126.412Z" transform="translate(-296.969 -69.22)"/>
    <g id="Group_268" data-name="Group 268" transform="translate(50.077 50.387)">
      <circle id="Ellipse_316" data-name="Ellipse 316" class="cls-1" cx="1" cy="1" r="1" transform="translate(4.923 -0.231)"/>
      <ellipse id="Ellipse_317" data-name="Ellipse 317" class="cls-1" cx="1.5" cy="1" rx="1.5" ry="1" transform="translate(-0.077 -0.231)"/>
      <ellipse id="Ellipse_318" data-name="Ellipse 318" class="cls-1" cx="1" cy="1.5" rx="1" ry="1.5" transform="translate(2.923 2.769)"/>
    </g>
  </g>
</svg>
