<svg xmlns="http://www.w3.org/2000/svg" width="60.651" height="63.019" viewBox="0 0 60.651 63.019">
  <defs>
    <style>
      .cls-1 {
        fill: #cfd0d1;
      }

      .cls-2 {
        fill: #bf4028;
      }

      .cls-3 {
        fill: #06728d;
      }

      .cls-4 {
        fill: #2e4555;
      }

      .cls-5 {
        fill: #294e58;
      }

      .cls-6 {
        fill: #0db89a;
      }

      .cls-7 {
        fill: #f04b36;
      }

      .cls-8 {
        fill: #4da0d8;
      }

      .cls-9 {
        fill: #f7a93b;
      }
    </style>
  </defs>
  <g id="_145-paint-palette-1" data-name="145-paint-palette-1" transform="translate(-18.687 -17.498)">
    <path id="Path_1087" data-name="Path 1087" class="cls-1" d="M143.655,119.313a6.4,6.4,0,0,1-9.607-1.273,10.466,10.466,0,0,1-1.08-3.588,12.934,12.934,0,0,1,0-3.858c.617-3.2,3.2-5.749,3.781-8.951a7.919,7.919,0,0,0-2.354-7.061,11.737,11.737,0,0,0-3.164-1.968,22.4,22.4,0,0,0-27.394,7.562,34.3,34.3,0,0,0-3.627,6.983c-3.048,7.717-4.63,16.4-2.045,24.307a36.5,36.5,0,0,0,4.4,8.643,35.321,35.321,0,0,0,4.013,5.286,27.577,27.577,0,0,0,17.015,8.141,37.565,37.565,0,0,0,18.79-3.125,23.942,23.942,0,0,0,8.8-5.98,24.524,24.524,0,0,0,4.553-9.337c1.775-6.135,2.546-12.732.81-18.906a9.51,9.51,0,0,0-1.891-3.858,4.622,4.622,0,0,0-3.82-1.7c-1.929.193-3.357,1.929-4.283,3.665S145.006,117.924,143.655,119.313Z" transform="translate(-78.181 -73.207)"/>
    <path id="Path_1088" data-name="Path 1088" class="cls-2" d="M129.489,341.417a3.251,3.251,0,0,1-.424,1.5,10.384,10.384,0,0,1-5.054,4.939,9.639,9.639,0,0,1-2.971.772,14.881,14.881,0,0,1-4.128.154,5.058,5.058,0,0,1-3.511-2.006,5.37,5.37,0,0,0,2.739-1.235,8.129,8.129,0,0,0,2.161-1.968,12.211,12.211,0,0,0,.965-2.315,7.846,7.846,0,0,1,5.787-4.553,4.2,4.2,0,0,1,2.392.231C129.065,337.714,129.643,339.681,129.489,341.417Z" transform="translate(-91.524 -271.699)"/>
    <path id="Path_1089" data-name="Path 1089" class="cls-3" d="M191.9,171.215l-2.508-2.508a1.073,1.073,0,0,1,0-1.466l36.152-36.152a2.772,2.772,0,0,1,3.974,0h0a2.772,2.772,0,0,1,0,3.974l-36.152,36.152A1,1,0,0,1,191.9,171.215Z" transform="translate(-152.62 -105.123)"/>
    <path id="Path_1090" data-name="Path 1090" class="cls-4" d="M184.1,331.881l-2.431-2.431a1.142,1.142,0,0,1,0-1.582h0a1.142,1.142,0,0,1,1.582,0l2.431,2.431a1.142,1.142,0,0,1,0,1.582h0A1.074,1.074,0,0,1,184.1,331.881Z" transform="translate(-146.365 -264.361)"/>
    <circle id="Ellipse_250" data-name="Ellipse 250" class="cls-5" cx="7.446" cy="7.446" r="7.446" transform="translate(37.464 28.088)"/>
    <circle id="Ellipse_251" data-name="Ellipse 251" class="cls-6" cx="6.057" cy="6.057" r="6.057" transform="translate(60.15 53.167)"/>
    <circle id="Ellipse_252" data-name="Ellipse 252" class="cls-7" cx="6.057" cy="6.057" r="6.057" transform="translate(23.304 38.004)"/>
    <circle id="Ellipse_253" data-name="Ellipse 253" class="cls-8" cx="5.865" cy="5.865" r="5.865" transform="translate(46.646 63.314)"/>
    <circle id="Ellipse_254" data-name="Ellipse 254" class="cls-9" cx="4.707" cy="4.707" r="4.707" transform="translate(24.654 54.517)"/>
  </g>
</svg>
