<svg xmlns="http://www.w3.org/2000/svg" width="124.701" height="125.989" viewBox="0 0 124.701 125.989">
  <defs>
    <style>
      .cls-1 {
        fill: #ffcbbe;
      }

      .cls-2 {
        fill: #ffb39d;
      }

      .cls-3 {
        fill: #a4e7ff;
      }

      .cls-4 {
        fill: #ffddcf;
      }
    </style>
  </defs>
  <g id="_001-washing-hands" data-name="001-washing-hands" transform="translate(0 -0.001)">
    <path id="Path_681" data-name="Path 681" class="cls-1" d="M97.879,40.084a7.379,7.379,0,0,0-10.434,0l6.621-6.621A7.378,7.378,0,0,0,83.632,23.029l5.208-5.208a7.492,7.492,0,0,0,.311-10.365,7.378,7.378,0,0,0-10.621-.194L73.2,12.6A7.378,7.378,0,0,0,62.764,2.162l-21,21L32.728,32.2c-.3-2.309-.915-7.156-.93-7.262a6.462,6.462,0,0,0-12.331-1.689c-5.31,12.23-7.892,25.994-4.577,38.6a10.261,10.261,0,0,1-2.718,9.834L3.241,80.616a11.066,11.066,0,0,0,0,15.65L10.4,103.42a11.066,11.066,0,0,0,15.65,0L37.123,92.342a10.167,10.167,0,0,1,7.807-2.959,29.437,29.437,0,0,0,22.3-8.224l0,0L67.6,80.8,83.5,64.9,97.878,50.518A7.378,7.378,0,0,0,97.879,40.084Zm0,0"/>
    <path id="Path_682" data-name="Path 682" class="cls-2" d="M51.882,221.769,62.96,210.691a10.167,10.167,0,0,1,7.807-2.959,29.438,29.438,0,0,0,22.3-8.225l0,0,.367-.367,15.9-15.9,11.841-11.842c-15.626-12.474-35.208-21.663-49.61-6.628-23.409,24.438-19.725,39.845-37.3,55.027l1.962,1.963A11.067,11.067,0,0,0,51.882,221.769Zm0,0" transform="translate(-25.837 -118.349)"/>
    <path id="Path_683" data-name="Path 683" class="cls-3" d="M189.035,71.005a7.137,7.137,0,0,1-1.458-5.979,18.467,18.467,0,0,0-27.016-19.855,8.75,8.75,0,0,1-8.315-.011,18.97,18.97,0,0,0-23.712,5.015,8.564,8.564,0,0,1-7.542,3.182A20.948,20.948,0,0,0,98.047,75.812,9.741,9.741,0,0,1,94.8,83.678a16.237,16.237,0,0,0,10.984,28.2l67.813-19.126a13.807,13.807,0,0,0,15.443-21.744Zm0,0" transform="translate(-67.506 -32.322)"/>
    <path id="Path_684" data-name="Path 684" class="cls-4" d="M184.387,118.635a7.379,7.379,0,0,0-10.434,0l6.621-6.621a7.378,7.378,0,0,0-10.434-10.433l5.208-5.209a7.493,7.493,0,0,0,.312-10.365,7.379,7.379,0,0,0-10.621-.194l-5.334,5.334a7.378,7.378,0,0,0-10.434-10.434l-21,21-9.035,9.035c-.3-2.309-.914-7.156-.93-7.262a6.461,6.461,0,0,0-12.331-1.688c-5.309,12.229-7.891,25.993-4.577,38.6a10.259,10.259,0,0,1-2.717,9.833l-8.932,8.931a11.067,11.067,0,0,0,0,15.651l7.154,7.153a11.066,11.066,0,0,0,15.65,0l11.078-11.078a10.166,10.166,0,0,1,7.807-2.959,29.437,29.437,0,0,0,22.3-8.224l0,0,.367-.366,30.279-30.279A7.378,7.378,0,0,0,184.387,118.635Zm0,0" transform="translate(-65.221 -59.222)"/>
    <g id="Group_96" data-name="Group 96" transform="translate(70.641 30.025)">
      <path id="Path_685" data-name="Path 685" class="cls-1" d="M287.629,147.2a1.9,1.9,0,0,1,0-2.689l21.944-21.944a1.9,1.9,0,0,1,2.689,2.689L290.317,147.2A2,2,0,0,1,287.629,147.2Zm0,0" transform="translate(-287.071 -122.012)"/>
      <path id="Path_686" data-name="Path 686" class="cls-1" d="M330.029,192.089a1.9,1.9,0,0,1,0-2.69l21.132-21.132a1.9,1.9,0,0,1,2.69,2.689l-21.133,21.133A2,2,0,0,1,330.029,192.089Zm0,0" transform="translate(-319.039 -156.466)"/>
      <path id="Path_687" data-name="Path 687" class="cls-1" d="M372.429,252.285a1.9,1.9,0,0,1,0-2.689l15.323-15.323a1.9,1.9,0,0,1,2.689,2.689l-15.323,15.323A1.783,1.783,0,0,1,372.429,252.285Zm0,0" transform="translate(-351.005 -206.228)"/>
    </g>
  </g>
</svg>
