<svg xmlns="http://www.w3.org/2000/svg" width="84.446" height="85.684" viewBox="0 0 84.446 85.684">
  <defs>
    <style>
      .cls-1 {
        fill: #b9b9b9;
      }

      .cls-2 {
        fill: #a8a8a8;
      }

      .cls-3 {
        fill: #e06661;
      }

      .cls-4 {
        fill: #878787;
      }

      .cls-5 {
        fill: #6f7478;
      }

      .cls-6 {
        fill: #ee6d67;
      }

      .cls-7 {
        fill: #f7ba61;
      }

      .cls-8 {
        fill: #ea9d2d;
      }

      .cls-9 {
        fill: #985713;
      }

      .cls-10 {
        fill: #aac16b;
      }

      .cls-11 {
        fill: #a4bb67;
      }

      .cls-12 {
        fill: #f55648;
      }

      .cls-13 {
        fill: #ff5a4b;
      }

      .cls-14 {
        fill: #fbedbf;
      }

      .cls-15 {
        fill: #f08b24;
      }

      .cls-16 {
        fill: #fd9226;
      }
    </style>
  </defs>
  <g id="cook" transform="translate(-0.263)">
    <path id="Path_322" data-name="Path 322" class="cls-1" d="M28.536,131.133,2.435,124a2.938,2.938,0,0,1,1.532-5.673l24.4,6.6Zm0,0" transform="translate(0 -96.513)"/>
    <path id="Path_323" data-name="Path 323" class="cls-2" d="M136.857,151.672l-.193.632a26.34,26.34,0,0,0-1,5.2l3.4.93-.164-6.209Zm0,0" transform="translate(-110.537 -123.815)"/>
    <path id="Path_324" data-name="Path 324" class="cls-3" d="M196.788,164.056c-1.124-2.886-11.233-7.6-24.1-11.079s-23.967-4.492-26.392-2.566l-.481.631-.575,2.127a14.693,14.693,0,0,0,10.35,18.018l22.695,6.133a14.693,14.693,0,0,0,18.024-10.35l.6-2.361Zm0,0" transform="translate(-117.935 -122)"/>
    <path id="Path_325" data-name="Path 325" class="cls-4" d="M177.391,153.076c-14.1-3.812-26.122-4.681-26.864-1.94s10.084,8.052,24.18,11.865,26.122,4.681,26.864,1.941S191.487,156.888,177.391,153.076Zm0,0" transform="translate(-122.638 -122.072)"/>
    <path id="Path_326" data-name="Path 326" class="cls-5" d="M193.006,182.14c-11.563-3.124-21.194-4.706-21.511-3.53s8.8,4.661,20.361,7.786,21.193,4.706,21.511,3.53S204.568,185.265,193.006,182.14Zm0,0" transform="translate(-139.777 -145.489)"/>
    <path id="Path_327" data-name="Path 327" class="cls-6" d="M239.611,240.4a1.53,1.53,0,0,1-.415-.06q-1.451-.428-2.843-.87a1.469,1.469,0,1,1,.89-2.8q1.359.432,2.781.851a1.469,1.469,0,0,1-.414,2.88Zm0,0" transform="translate(-191.893 -193.144)"/>
    <path id="Path_328" data-name="Path 328" class="cls-6" d="M285.973,253.266a1.516,1.516,0,0,1-.321-.035q-1.425-.318-2.895-.682a1.469,1.469,0,0,1,.707-2.852c.957.237,1.9.458,2.827.666a1.469,1.469,0,0,1-.318,2.9Zm0,0" transform="translate(-229.72 -203.806)"/>
    <path id="Path_329" data-name="Path 329" class="cls-7" d="M299.844,32h5.877v7.347h-5.877Zm0,0" transform="translate(-244.559 -26.123)"/>
    <path id="Path_330" data-name="Path 330" class="cls-8" d="M299.844,32h5.877v3.673h-5.877Zm0,0" transform="translate(-244.559 -26.123)"/>
    <path id="Path_331" data-name="Path 331" class="cls-9" d="M287.517,0h4.408a3.673,3.673,0,0,1,0,7.347h-4.408a3.673,3.673,0,0,1,0-7.347Zm0,0" transform="translate(-231.498)"/>
    <path id="Path_332" data-name="Path 332" class="cls-10" d="M363.707,68.364l5.695-4.641,4.641,5.694-5.694,4.642Zm0,0" transform="translate(-296.693 -52.019)"/>
    <path id="Path_333" data-name="Path 333" class="cls-11" d="M363.7,70.992l4.97-4.051,4.16,5.1-4.97,4.051Zm0,0" transform="translate(-296.684 -54.647)"/>
    <path id="Path_334" data-name="Path 334" class="cls-12" d="M228.66,44.408A4.408,4.408,0,1,1,224.252,40,4.408,4.408,0,0,1,228.66,44.408Zm0,0" transform="translate(-179.252 -32.653)"/>
    <path id="Path_335" data-name="Path 335" class="cls-13" d="M225.907,40.129a4.379,4.379,0,0,0-3.269,1.74,3.527,3.527,0,1,0,3.275-1.74Zm0,0" transform="translate(-181.14 -32.759)"/>
    <g id="Group_22" data-name="Group 22" transform="translate(43.529 17.632)">
      <path id="Path_336" data-name="Path 336" class="cls-14" d="M235.836,112h2.939v2.939h-2.939Zm0,0" transform="translate(-235.836 -109.061)"/>
      <path id="Path_337" data-name="Path 337" class="cls-14" d="M307.836,96h2.939v2.939h-2.939Zm0,0" transform="translate(-294.612 -96)"/>
      <path id="Path_338" data-name="Path 338" class="cls-14" d="M307.836,128h2.939v4.408h-2.939Zm0,0" transform="translate(-294.612 -122.123)"/>
      <path id="Path_339" data-name="Path 339" class="cls-14" d="M395.836,136h2.939v2.939h-2.939Zm0,0" transform="translate(-366.45 -128.653)"/>
      <path id="Path_340" data-name="Path 340" class="cls-14" d="M395.836,168h2.939v2.939h-2.939Zm0,0" transform="translate(-366.45 -154.776)"/>
    </g>
    <path id="Path_341" data-name="Path 341" class="cls-15" d="M173.952,366.039l-1.406-4.217a11.02,11.02,0,0,1,.821-8.836L178.36,344v8.081a11.021,11.021,0,0,0,2.2,6.612,11.021,11.021,0,0,1,2.2,6.612v.735Zm0,0" transform="translate(-140.18 -280.82)"/>
    <path id="Path_342" data-name="Path 342" class="cls-14" d="M132.742,439.437l2.786-.929,1.405,4.216-2.787.93Zm0,0" transform="translate(-108.148 -357.97)"/>
    <path id="Path_343" data-name="Path 343" class="cls-14" d="M147.2,345.99l3.266-5.876,2.569,1.428-3.267,5.877Zm0,0" transform="translate(-119.95 -277.647)"/>
    <path id="Path_344" data-name="Path 344" class="cls-14" d="M129.9,399.054a12.515,12.515,0,0,1,.933-10.015l2.568,1.428a9.568,9.568,0,0,0-.712,7.658Zm0,0" transform="translate(-105.305 -317.587)"/>
    <path id="Path_345" data-name="Path 345" class="cls-16" d="M248.353,333.394l-4.993-8.987v8.081a11.021,11.021,0,0,1-2.2,6.612c-.2.263-.349.551-.522.829a13.226,13.226,0,0,0-1.375-9.147L233.269,320v9.7a13.223,13.223,0,0,1-2.644,7.934,13.223,13.223,0,0,0-2.644,7.934v.882h19.788l1.406-4.217A11.02,11.02,0,0,0,248.353,333.394Zm0,0" transform="translate(-185.895 -261.228)"/>
    <path id="Path_346" data-name="Path 346" class="cls-14" d="M338.25,341.54l2.568-1.427,1.971,3.548-2.568,1.428Zm0,0" transform="translate(-275.912 -277.647)"/>
    <path id="Path_347" data-name="Path 347" class="cls-14" d="M362.7,383.106l-2.939-.095a9.565,9.565,0,0,0-1.2-4.945l-1.551-2.792,2.568-1.427,1.551,2.792A12.492,12.492,0,0,1,362.7,383.106Zm0,0" transform="translate(-291.228 -305.186)"/>
    <path id="Path_348" data-name="Path 348" class="cls-14" d="M361.66,448.411l.98-2.938,2.786.93-.981,2.938Zm0,0" transform="translate(-295.022 -363.656)"/>
    <path id="Path_349" data-name="Path 349" class="cls-14" d="M172.82,311.364l1.469-2.939,2.629,1.314-1.469,2.939Zm0,0" transform="translate(-140.865 -251.779)"/>
    <path id="Path_350" data-name="Path 350" class="cls-14" d="M439.592,76.753l-2.078-2.078a3.608,3.608,0,0,0,.451-4.544l-.633-.953,2.445-1.628.633.949A6.554,6.554,0,0,1,439.592,76.753Zm0,0" transform="translate(-356.796 -55.144)"/>
    <path id="Path_351" data-name="Path 351" class="cls-6" d="M157.311,196.213a1.469,1.469,0,0,0,.517-2.845c-5.6-2.109-9.787-4.273-11.461-5.9L144.958,186a1.233,1.233,0,0,0-.156-.109,14.564,14.564,0,0,0,.429,4.462,47.79,47.79,0,0,0,11.561,5.77A1.5,1.5,0,0,0,157.311,196.213Zm0,0" transform="translate(-117.973 -151.746)"/>
  </g>
</svg>
