<svg xmlns="http://www.w3.org/2000/svg" width="239.221" height="254.531" viewBox="0 0 239.221 254.531">
  <defs>
    <style>
      .cls-1 {
        fill: #414b82;
      }

      .cls-2 {
        fill: #5f6e9b;
      }

      .cls-3 {
        fill: #ffb69e;
      }

      .cls-4 {
        fill: #783c28;
      }

      .cls-5 {
        fill: #64afff;
      }

      .cls-6 {
        fill: #4699f2;
      }

      .cls-7 {
        fill: #c8e6eb;
      }

      .cls-8 {
        fill: #3c5a73;
      }

      .cls-9 {
        fill: #e64937;
      }

      .cls-10 {
        fill: #a5c8cd;
      }

      .cls-11 {
        fill: #87afb9;
      }

      .cls-12 {
        fill: #d13d2c;
      }
    </style>
  </defs>
  <g id="cooking" transform="translate(-8.346 15.035)">
    <g id="Group_25" data-name="Group 25" transform="translate(8.346 -15.035)">
      <g id="XMLID_165_" transform="translate(29.794 123.328)">
        <path id="Path_352" data-name="Path 352" class="cls-1" d="M85.425,371.6a11.851,11.851,0,0,1-9.98-13.465l8.135-54.715L70.508,255.5a11.851,11.851,0,0,1,22.866-6.238L107.1,299.586a11.851,11.851,0,0,1,.289,4.862l-8.5,57.176A11.853,11.853,0,0,1,85.425,371.6Z" transform="translate(-70.087 -240.53)"/>
      </g>
      <g id="XMLID_163_" transform="translate(0 123.329)">
        <path id="Path_353" data-name="Path 353" class="cls-2" d="M18.456,371.6a11.851,11.851,0,0,1-9.98-13.465l8.266-55.595-5.905-48.734a11.851,11.851,0,0,1,23.53-2.852l6.1,50.321a11.868,11.868,0,0,1-.043,3.169l-8.5,57.176a11.852,11.852,0,0,1-13.465,9.98Z" transform="translate(-8.346 -240.533)"/>
      </g>
      <circle id="Ellipse_90" data-name="Ellipse 90" class="cls-3" cx="21.798" cy="21.798" r="21.798" transform="translate(47.481 39.367) rotate(-64.537)"/>
      <g id="Group_23" data-name="Group 23" transform="translate(82.592 37.993)">
        <path id="Path_354" data-name="Path 354" class="cls-4" d="M226.73,100.288S193.465,71.5,191.3,69.639c-4.611-3.968-7.662-7.984-10.42-4.779s-1.255,9.019,3.357,12.987a12.925,12.925,0,0,0,8.955,3.406l28.534,24.8a3.816,3.816,0,0,0,5.007-5.761Z" transform="translate(-179.497 -63.696)"/>
      </g>
      <g id="Group_24" data-name="Group 24" transform="translate(2.816 52.037)">
        <path id="Path_355" data-name="Path 355" class="cls-5" d="M33.421,111.223,14.182,172.836l32.827,12.589A16.872,16.872,0,0,0,68.4,174.507l15.069-47.539a26.233,26.233,0,1,0-50.048-15.745Z" transform="translate(-14.182 -92.8)"/>
      </g>
      <g id="XMLID_166_" transform="translate(39.596 55.014)">
        <path id="Path_356" data-name="Path 356" class="cls-3" d="M192.482,101.815a9.876,9.876,0,0,0-13.966.089l-21.718,22-8.678-6.852-13.508,1.621,1.66,14.19L151.5,144.882a9.876,9.876,0,0,0,13.147-.813l27.928-28.287A9.876,9.876,0,0,0,192.482,101.815Z" transform="translate(-113.276 -98.967)"/>
        <path id="Path_357" data-name="Path 357" class="cls-6" d="M125.242,118.2l-18.848-14.881a9.876,9.876,0,0,0-12.239,15.5l19.24,15.19Z" transform="translate(-90.399 -100.121)"/>
      </g>
      <path id="Path_358" data-name="Path 358" class="cls-7" d="M226.709,26.93a.594.594,0,0,1,.961-.513,6.953,6.953,0,0,1,2.621,4.783c.515,4.838-4.726,7.757-7.376,9.759a14.744,14.744,0,0,0-2.807,3.144.6.6,0,0,1-1.058-.255,8.742,8.742,0,0,1-.14-1.971c.118-2.452,1.305-4.161,2.978-5.89C225.582,32.2,227.169,32.325,226.709,26.93Z" transform="translate(-117.294 -6.348)"/>
    </g>
    <g id="Group_29" data-name="Group 29" transform="translate(120.887 39.497)">
      <path id="Path_359" data-name="Path 359" class="cls-7" d="M245.464,284.362a3.906,3.906,0,0,0-3.906,3.906v9.78a3.906,3.906,0,0,0,3.906,3.906h8.519V284.362h-8.519Z" transform="translate(-241.558 -194.414)"/>
      <g id="Group_26" data-name="Group 26" transform="translate(22.49 71.829)">
        <path id="Path_360" data-name="Path 360" class="cls-8" d="M294.777,246.816a4.079,4.079,0,0,0-3.927,2.976l-2.687,9.564h35.967l-2.688-9.564a4.079,4.079,0,0,0-3.927-2.976Z" transform="translate(-288.162 -246.816)"/>
        <path id="Path_361" data-name="Path 361" class="cls-8" d="M439.541,250.618a4.079,4.079,0,0,0-3.927-2.976H412.877a4.079,4.079,0,0,0-3.927,2.976l-2.688,9.564h35.967Z" transform="translate(-349.271 -247.243)"/>
      </g>
      <path id="Path_362" data-name="Path 362" class="cls-9" d="M271.869,173.909a29.627,29.627,0,0,0-.576,5.814v18.941a10.552,10.552,0,0,0,10.552,10.552h31.969a10.552,10.552,0,0,0,10.552-10.552V179.723a29.627,29.627,0,0,0-.576-5.814Z" transform="translate(-256.944 -137.263)"/>
      <g id="Group_27" data-name="Group 27" transform="translate(10.633 32.355)">
        <path id="Path_363" data-name="Path 363" class="cls-10" d="M319.807,173.6H267.885a4.292,4.292,0,1,1,0-8.584h51.922a4.292,4.292,0,1,1,0,8.584Z" transform="translate(-263.593 -165.015)"/>
      </g>
      <path id="Path_364" data-name="Path 364" class="cls-7" d="M324.577,98.814a.576.576,0,0,1,.654-.828,6.956,6.956,0,0,1,4.342,3.358c2.39,4.237-1.265,9-2.906,11.883a14.976,14.976,0,0,0-1.344,4.05.577.577,0,0,1-1.031.193c-1.887-2.674-1.644-5.477-.538-8.4C325.649,104.127,327.16,103.617,324.577,98.814Z" transform="translate(-283.646 -97.969)"/>
      <path id="Path_365" data-name="Path 365" class="cls-11" d="M375.655,267.544a6.909,6.909,0,0,0-6.91-6.909H262.8a6.909,6.909,0,0,0-6.909,6.909V375.227a6.909,6.909,0,0,0,6.909,6.909H368.745a6.909,6.909,0,0,0,6.91-6.909Z" transform="translate(-248.975 -182.137)"/>
      <path id="Path_366" data-name="Path 366" class="cls-10" d="M376.892,301.588a4.932,4.932,0,0,0-4.932-4.932H296.329a4.932,4.932,0,0,0-4.932,4.932V378.46a4.932,4.932,0,0,0,4.932,4.932h75.63a4.932,4.932,0,0,0,4.932-4.932V301.588Z" transform="translate(-267.346 -200.776)"/>
      <g id="Group_28" data-name="Group 28" transform="translate(29.738 40.938)">
        <path id="Path_367" data-name="Path 367" class="cls-12" d="M317.345,193.326h-6.03a8.143,8.143,0,0,1-8.134-8.134V182.8h5.42v2.39a2.717,2.717,0,0,0,2.714,2.714h6.03a2.717,2.717,0,0,0,2.714-2.714V182.8h5.42v2.39a8.143,8.143,0,0,1-8.134,8.134Z" transform="translate(-303.182 -182.803)"/>
      </g>
    </g>
  </g>
</svg>
