<svg xmlns="http://www.w3.org/2000/svg" width="135.481" height="137.864" viewBox="0 0 135.481 137.864">
  <defs>
    <style>
      .cls-1 {
        fill: #ba5250;
      }

      .cls-2 {
        fill: #f4a89f;
      }

      .cls-3 {
        fill: #f74f73;
      }
    </style>
  </defs>
  <g id="cough_1_" data-name="cough (1)" transform="translate(-13.163 -10.4)">
    <path id="Path_439" data-name="Path 439" class="cls-1" d="M96.162,166.445c-7.28,14.622-14.375,27.743-21.051,37.451a72.115,72.115,0,0,1-14.245-7.683,7.17,7.17,0,0,1-2.652-3.951,7.176,7.176,0,0,0-3.179-4.307l-5.973-3.683a3.647,3.647,0,0,0-4.994,1.158,35.662,35.662,0,0,0-4.02,9.083,6.87,6.87,0,0,0,2.472,7.448,216.681,216.681,0,0,0,36.723,22.184,3,3,0,0,0,3.528-.762,164.912,164.912,0,0,0,21.262-31.853Z" transform="translate(-15.112 -88.647)"/>
    <path id="Path_440" data-name="Path 440" class="cls-2" d="M157.418,148.264s-1.874-33.921-4.819-51.056c0,0-48.833-72.091-57.264-83.791a7.3,7.3,0,0,0-8.321-2.606c-8.519,2.964-26.493,8.471-40.982,7.878,0,0,2.537,7.5,13.263,7.958a14.261,14.261,0,0,1-7.727,3.806s1.324,3.594,8.083,3.587a4.669,4.669,0,0,1,3.85,1.983,52.756,52.756,0,0,1,2.924,4.694,8.948,8.948,0,0,1,.478,7.519l-1.149,2.977,5.766,4.729a14.5,14.5,0,0,1,7.5-5.25,6.6,6.6,0,0,1,8.412,6.882A12.071,12.071,0,0,1,84.9,64.13l5.97,4.992s4.172-5.807,9.141-12.693a31.8,31.8,0,0,1,4.762,7.452l1.153,1.8L99.722,77.8s10.32,35.906,9.271,66.982a3.384,3.384,0,0,0,3.39,3.484Z" transform="translate(-18.673 0)"/>
    <path id="Path_441" data-name="Path 441" class="cls-1" d="M209.919,127.914c.432,3.813,2.16,9.2,7.494,15.031,2.813,3.075,5.561,6.2,8.136,9.481,3.219,4.1,7.177,9.308,9.96,13.572l5.3-8.566-27.134-31.184a2.152,2.152,0,0,0-3.76,1.666Z" transform="translate(-111.766 -65.392)"/>
    <g id="Group_52" data-name="Group 52" transform="translate(13.163 58.708)">
      <path id="Path_442" data-name="Path 442" class="cls-3" d="M68.608,136.639c-4.772,5.946-13.335,11.958-18.244,15.148a.816.816,0,0,1-1.075-1.2A62.45,62.45,0,0,1,67.577,135.41a.818.818,0,0,1,1.031,1.229Z" transform="translate(-33.58 -129.668)"/>
      <path id="Path_443" data-name="Path 443" class="cls-3" d="M100.521,138.988C99.2,148.36,93.874,160.2,90.659,166.72a1.013,1.013,0,0,1-1.909-.6A77.529,77.529,0,0,1,98.64,138.33a1.016,1.016,0,0,1,1.88.658Z" transform="translate(-56.096 -131.1)"/>
      <circle id="Ellipse_93" data-name="Ellipse 93" class="cls-3" cx="1.86" cy="1.86" r="1.86" transform="translate(3.141)"/>
      <circle id="Ellipse_94" data-name="Ellipse 94" class="cls-3" cx="2.778" cy="2.778" r="2.778" transform="translate(0 28.178)"/>
    </g>
    <path id="Path_444" data-name="Path 444" class="cls-1" d="M171.006,107.841l4.658-6.445a1.2,1.2,0,0,1,2.15.885l-.893,14.815Z" transform="translate(-89.668 -51.412)"/>
    <path id="Path_445" data-name="Path 445" class="cls-3" d="M129.222,150.16a35.31,35.31,0,0,1,.362,12.083,1.013,1.013,0,0,1-2,.059,36.123,36.123,0,0,1-.355-12.071,1.014,1.014,0,0,1,1.99-.072Z" transform="translate(-64.604 -78.949)"/>
    <path id="Path_446" data-name="Path 446" class="cls-3" d="M75.4,174.5a4.775,4.775,0,0,1-.752.993c-1.666,1.7-3.683.146-2.476-1.907a4.233,4.233,0,0,1,.962-1.148c1.65-1.339,3.311.207,2.266,2.062Z" transform="translate(-33.312 -91.764)"/>
    <path id="Path_447" data-name="Path 447" class="cls-3" d="M129.827,196.833a5.033,5.033,0,0,1,.018,1.316c-.287,2.5-2.975,2.505-3.3.014a4.444,4.444,0,0,1,.058-1.58C127.111,194.395,129.5,194.611,129.827,196.833Z" transform="translate(-64.386 -104.897)"/>
    <path id="Path_448" data-name="Path 448" class="cls-1" d="M260.188,238.045l-23.122,17.343a11.042,11.042,0,0,0-1.6,16.249c.175.193,5.1,5.946,5.1,5.946h22.846s-.727-21.731-3.23-39.539Z" transform="translate(-124.673 -129.322)"/>
    <path id="Path_449" data-name="Path 449" class="cls-2" d="M213.507,100.38a12.654,12.654,0,0,0-3.014,11.223,10.524,10.524,0,0,0,3.215,5.442c5.01,4.589,18.893,17.562,24.293,25.292,0,0-7.934,14.432-15.074,23.582a5.281,5.281,0,0,0-.756,5.145l.013.032a5.392,5.392,0,0,1-.076,4.073c-.45,1.042-1.068,2.369-1.86,3.844a7.543,7.543,0,0,0,1.305,8.9,23.635,23.635,0,0,0,5,3.559,3.4,3.4,0,0,0,4.578-1.161l29-47a2.875,2.875,0,0,0-.135-3.225c-4.091-5.515-18.714-24.461-37.863-40.416a6.16,6.16,0,0,0-8.632.712Z" transform="translate(-111.924 -49.895)"/>
    <path id="Path_450" data-name="Path 450" class="cls-3" d="M73.861,122.545a5.549,5.549,0,0,1-1.428.294c-2.777.21-3.349-2.712-.7-3.585a4.936,4.936,0,0,1,1.731-.267c2.487.094,2.75,2.734.4,3.558Z" transform="translate(-32.3 -61.686)"/>
  </g>
</svg>
