<svg xmlns="http://www.w3.org/2000/svg" width="110.102" height="112" viewBox="0 0 110.102 112">
  <defs>
    <style>
      .cls-1 {
        fill: #655a56;
      }

      .cls-2 {
        fill: #f4edea;
      }

      .cls-3 {
        fill: #b8c2c2;
      }

      .cls-4 {
        fill: #d7baad;
      }

      .cls-5 {
        fill: #e8cbbf;
      }

      .cls-6 {
        fill: #ccc3ba;
      }

      .cls-7 {
        fill: #c9ab9f;
      }

      .cls-8 {
        fill: #aa7f5f;
      }

      .cls-9 {
        fill: #a7b2b1;
      }

      .cls-10 {
        fill: #776e6b;
      }
    </style>
  </defs>
  <g id="FLAT" transform="translate(-24 -24)">
    <rect id="Rectangle_38" data-name="Rectangle 38" class="cls-1" width="95" height="106" rx="32" transform="translate(32 24)"/>
    <path id="Path_706" data-name="Path 706" class="cls-2" d="M88,56h79.729v91.119H88Z" transform="translate(-48.814 -24.407)"/>
    <path id="Path_707" data-name="Path 707" class="cls-3" d="M172.78,254.792,153.763,248H138.576l-19.017,6.792A11.39,11.39,0,0,0,112,265.518v10.956h17.085v17.085h34.169V276.475h17.085V265.518a11.39,11.39,0,0,0-7.559-10.726Z" transform="translate(-67.119 -170.847)"/>
    <path id="Path_708" data-name="Path 708" class="cls-4" d="M224,208v9.492l3.084,2.313a7.516,7.516,0,0,0,9.019,0l3.084-2.313V208Z" transform="translate(-152.542 -140.339)"/>
    <path id="Path_709" data-name="Path 709" class="cls-4" d="M309.228,144a4.264,4.264,0,0,1,1.034,8.4l-4.363,1.091H304V144Z" transform="translate(-213.559 -91.525)"/>
    <path id="Path_710" data-name="Path 710" class="cls-5" d="M136,368h11.39v17.085H136Z" transform="translate(-85.424 -262.373)"/>
    <path id="Path_711" data-name="Path 711" class="cls-6" d="M384,80h3.8v3.8H384Z" transform="translate(-274.576 -42.712)"/>
    <path id="Path_712" data-name="Path 712" class="cls-6" d="M352,80h3.8v3.8H352Z" transform="translate(-250.169 -42.712)"/>
    <path id="Path_713" data-name="Path 713" class="cls-6" d="M123.8,104a3.8,3.8,0,0,0-3.8,3.8v7.593a3.8,3.8,0,0,0,3.8,3.8h1.9l5.695,5.695v-5.695h7.593a3.8,3.8,0,0,0,3.8-3.8V107.8a3.8,3.8,0,0,0-3.8-3.8Z" transform="translate(-73.22 -61.017)"/>
    <path id="Path_714" data-name="Path 714" class="cls-2" d="M144,128h7.593v3.8H144Z" transform="translate(-91.525 -79.322)"/>
    <path id="Path_715" data-name="Path 715" class="cls-4" d="M172.264,144a4.264,4.264,0,0,0-1.034,8.4l4.363,1.091h1.9V144Z" transform="translate(-109.831 -91.525)"/>
    <path id="Path_716" data-name="Path 716" class="cls-5" d="M226.576,88v18.983a13.288,13.288,0,0,1-13.288,13.288h0A13.288,13.288,0,0,1,200,106.983V97.492A9.492,9.492,0,0,1,209.492,88Z" transform="translate(-134.237 -48.814)"/>
    <path id="Path_717" data-name="Path 717" class="cls-1" d="M232,152h3.8v3.8H232Z" transform="translate(-158.644 -97.627)"/>
    <path id="Path_718" data-name="Path 718" class="cls-1" d="M264,152h3.8v3.8H264Z" transform="translate(-183.051 -97.627)"/>
    <path id="Path_719" data-name="Path 719" class="cls-7" d="M240,184h7.593v3.8H240Z" transform="translate(-164.746 -122.034)"/>
    <path id="Path_720" data-name="Path 720" class="cls-8" d="M200,97.492h26.576V88H209.492A9.492,9.492,0,0,0,200,97.492Z" transform="translate(-134.237 -48.814)"/>
    <g id="Group_97" data-name="Group 97" transform="translate(24 52.475)">
      <path id="Path_721" data-name="Path 721" class="cls-5" d="M328,368h11.39v17.085H328Z" transform="translate(-255.864 -314.847)"/>
      <path id="Path_722" data-name="Path 722" class="cls-5" d="M365.369,162.983a5.369,5.369,0,0,1,3.8,1.573l7.133,7.133A3.8,3.8,0,0,0,382.779,169V144l4.556,3.417a7.593,7.593,0,0,1,3.037,6.075v74.034H375.186v-17.41a12.962,12.962,0,0,0-3.8-9.166h0a12.962,12.962,0,0,1-3.8-9.166V179.742a3.8,3.8,0,0,0-1.112-2.685l-4.909-4.909a5.369,5.369,0,0,1,3.8-9.166Z" transform="translate(-280.271 -144)"/>
      <path id="Path_723" data-name="Path 723" class="cls-5" d="M49,162.983a5.369,5.369,0,0,0-3.8,1.573l-7.133,7.133A3.8,3.8,0,0,1,31.593,169V144l-4.556,3.417A7.593,7.593,0,0,0,24,153.492v74.034H39.186v-17.41a12.962,12.962,0,0,1,3.8-9.166h0a12.962,12.962,0,0,0,3.8-9.166V179.742a3.8,3.8,0,0,1,1.112-2.685l4.909-4.909a5.369,5.369,0,0,0-3.8-9.166Z" transform="translate(-24 -144)"/>
    </g>
    <path id="Path_724" data-name="Path 724" class="cls-9" d="M176,328h3.8v9.492H176Z" transform="translate(-115.932 -231.864)"/>
    <path id="Path_725" data-name="Path 725" class="cls-9" d="M320,328h3.8v9.492H320Z" transform="translate(-225.763 -231.864)"/>
    <path id="Path_726" data-name="Path 726" class="cls-2" d="M248,304h26.576v32.271H248Z" transform="translate(-170.847 -213.559)"/>
    <path id="Path_727" data-name="Path 727" class="cls-10" d="M275.48,381.289a3.8,3.8,0,0,0-1.9-2.2L267.39,376l-6.187,3.093a3.8,3.8,0,0,0-1.9,2.2l-3.3,9.9h22.78Z" transform="translate(-176.949 -268.475)"/>
    <path id="Path_728" data-name="Path 728" class="cls-10" d="M295.593,341.247V339.8a3.8,3.8,0,0,0-7.593,0v1.45a3.8,3.8,0,0,0,2.1,3.4l1.7.849,1.7-.849a3.8,3.8,0,0,0,2.1-3.4Z" transform="translate(-201.356 -237.966)"/>
  </g>
</svg>
