<svg xmlns="http://www.w3.org/2000/svg" width="128.74" height="167.662" viewBox="0 0 128.74 167.662">
  <defs>
    <style>
      .cls-1 {
        fill: #aabece;
      }

      .cls-2 {
        fill: #cfdfe8;
      }

      .cls-3 {
        fill: #e9f0f4;
      }
    </style>
  </defs>
  <g id="Layer_60" data-name="Layer 60" transform="translate(-12 -4)">
    <path id="Path_430" data-name="Path 430" class="cls-1" d="M66.964,33.958H60.976V18.988H49V13H60.976a5.988,5.988,0,0,1,5.988,5.988Z" transform="translate(73.777 17.946)"/>
    <path id="Path_431" data-name="Path 431" class="cls-2" d="M125.77,24.958V69.867a20.958,20.958,0,0,1-20.958,20.958H32.958a20.958,20.958,0,0,1-17.724-9.79A20.569,20.569,0,0,1,12,69.867V24.958A20.958,20.958,0,0,1,32.958,4h71.855a20.209,20.209,0,0,1,5.748.808A20.958,20.958,0,0,1,125.77,24.958Z" transform="translate(0 0)"/>
    <path id="Path_432" data-name="Path 432" class="cls-3" d="M113.795,15.976V60.885A20.958,20.958,0,0,1,92.837,81.843H20.982a20.209,20.209,0,0,1-5.748-.808A20.569,20.569,0,0,1,12,69.867V24.958A20.958,20.958,0,0,1,32.958,4h71.855a20.209,20.209,0,0,1,5.748.808A20.568,20.568,0,0,1,113.795,15.976Z" transform="translate(0 0)"/>
    <path id="Path_433" data-name="Path 433" class="cls-2" d="M115.817,40.512A7.455,7.455,0,0,1,108.332,48H21.508a7.515,7.515,0,0,1-7.485-5.988,6.946,6.946,0,0,1,0-1.377,7.455,7.455,0,0,1,7.485-7.6h86.825a6.945,6.945,0,0,1,1.5,0,7.515,7.515,0,0,1,5.988,7.485Z" transform="translate(3.965 57.798)"/>
    <path id="Path_434" data-name="Path 434" class="cls-3" d="M109.829,34.524a7.455,7.455,0,0,1-7.485,7.485H15.52a6.946,6.946,0,0,1-1.5,0,6.946,6.946,0,0,1,0-1.377,7.455,7.455,0,0,1,7.485-7.6h86.825a6.945,6.945,0,0,1,1.5,0,6.945,6.945,0,0,1,0,1.5Z" transform="translate(3.965 57.798)"/>
    <path id="Path_435" data-name="Path 435" class="cls-1" d="M105.819,38v4.7a51.226,51.226,0,0,1-6.377,24.7A50.568,50.568,0,0,1,86.089,82.909,46.672,46.672,0,0,1,81.867,85.9L83.873,88.9l9.97,14.97H27.976l9.97-14.97L39.952,85.9a46.677,46.677,0,0,1-4.221-2.994A50.9,50.9,0,0,1,16,42.7V38Z" transform="translate(7.976 67.795)"/>
    <path id="Path_436" data-name="Path 436" class="cls-2" d="M70.1,40A16.048,16.048,0,0,1,84.562,63.263,50.568,50.568,0,0,1,71.119,78.922,46.672,46.672,0,0,1,66.9,81.916L68.9,84.91a9.641,9.641,0,0,1-7.994,14.97H27.976l9.97-14.97,2.006-2.994a46.674,46.674,0,0,1-4.221-2.994A50.718,50.718,0,0,1,16,40Z" transform="translate(7.976 71.782)"/>
    <path id="Path_437" data-name="Path 437" class="cls-1" d="M95.843,57.9A38.652,38.652,0,0,1,84.975,84.843H28.868a37.994,37.994,0,0,1-7.874-11.976A38.383,38.383,0,0,1,18,57.9C18,36.4,35.425,7,56.922,7a27.215,27.215,0,0,1,15.239,5C86.083,21.281,95.843,41.82,95.843,57.9Z" transform="translate(11.964 5.982)"/>
    <path id="Path_438" data-name="Path 438" class="cls-2" d="M83.867,45.921v.3A26.736,26.736,0,0,1,57.131,72.867H33.179A15.149,15.149,0,0,1,18,58.047V57.9C18,36.4,35.425,7,56.921,7a27.215,27.215,0,0,1,15.239,5A61.855,61.855,0,0,1,83.867,45.921Z" transform="translate(11.964 5.982)"/>
  </g>
</svg>
