<svg xmlns="http://www.w3.org/2000/svg" xmlns:xlink="http://www.w3.org/1999/xlink" width="100" height="100" viewBox="0 0 100 100">
  <defs>
    <style>
      .cls-1, .cls-7 {
        fill: #fff;
      }

      .cls-1 {
        stroke: #707070;
      }

      .cls-2 {
        clip-path: url(#clip-path);
      }

      .cls-3 {
        fill: #ffda45;
      }

      .cls-4 {
        fill: #ffbc36;
      }

      .cls-5 {
        fill: #704639;
      }

      .cls-6 {
        fill: #5e382c;
      }

      .cls-7 {
        stroke: rgba(112,112,112,0);
      }

      .cls-8 {
        stroke: none;
      }

      .cls-9 {
        fill: none;
      }
    </style>
    <clipPath id="clip-path">
      <circle id="Ellipse_234" data-name="Ellipse 234" class="cls-1" cx="50" cy="50" r="50" transform="translate(400 920)"/>
    </clipPath>
  </defs>
  <g id="Mask_Group_29" data-name="Mask Group 29" class="cls-2" transform="translate(-400 -920)">
    <g id="sad" transform="translate(400 920)">
      <path id="Path_1050" data-name="Path 1050" class="cls-3" d="M50,0a50,50,0,1,0,50,50A50.172,50.172,0,0,0,50,0Z"/>
      <path id="Path_1051" data-name="Path 1051" class="cls-4" d="M100,50a50.172,50.172,0,0,1-50,50V0A50.172,50.172,0,0,1,100,50Z"/>
      <path id="Path_1052" data-name="Path 1052" d="M32.422,47.07a8.789,8.789,0,1,1,8.789-8.789A8.8,8.8,0,0,1,32.422,47.07Z"/>
      <path id="Path_1053" data-name="Path 1053" d="M67.578,47.07a8.789,8.789,0,1,1,8.789-8.789A8.8,8.8,0,0,1,67.578,47.07Z"/>
      <path id="Path_1054" data-name="Path 1054" class="cls-5" d="M73.438,76.25a2.9,2.9,0,0,1-3.574-2.109,20.526,20.526,0,0,0-39.727,0,2.917,2.917,0,0,1-3.574,2.109,2.857,2.857,0,0,1-2.109-3.515,26.379,26.379,0,0,1,51.094,0A2.857,2.857,0,0,1,73.438,76.25Z"/>
      <path id="Path_1055" data-name="Path 1055" class="cls-6" d="M73.438,76.25a2.9,2.9,0,0,1-3.574-2.109A20.509,20.509,0,0,0,50,58.789V52.93a26.387,26.387,0,0,1,25.547,19.8A2.857,2.857,0,0,1,73.438,76.25Z"/>
    </g>
    <g id="Ellipse_238" data-name="Ellipse 238" class="cls-7" transform="translate(425 953)">
      <circle class="cls-8" cx="3.5" cy="3.5" r="3.5"/>
      <circle class="cls-9" cx="3.5" cy="3.5" r="3"/>
    </g>
    <g id="Ellipse_239" data-name="Ellipse 239" class="cls-7" transform="translate(460 953)">
      <circle class="cls-8" cx="3.5" cy="3.5" r="3.5"/>
      <circle class="cls-9" cx="3.5" cy="3.5" r="3"/>
    </g>
  </g>
</svg>
