<svg xmlns="http://www.w3.org/2000/svg" xmlns:xlink="http://www.w3.org/1999/xlink" width="180" height="180" viewBox="0 0 180 180">
  <defs>
    <style>
      .cls-1 {
        fill: #fff;
        stroke: rgba(112,112,112,0);
      }

      .cls-2 {
        clip-path: url(#clip-path);
      }

      .cls-3 {
        fill: #ffe07d;
      }

      .cls-4 {
        fill: #ff8086;
      }

      .cls-5 {
        fill: #a4ccff;
      }

      .cls-6 {
        fill: #c3ddff;
      }

      .cls-7 {
        fill: #faf5dc;
      }

      .cls-8 {
        fill: #ffd064;
      }

      .cls-9 {
        fill: #e5646e;
      }

      .cls-10 {
        fill: #f5ebcd;
      }
    </style>
    <clipPath id="clip-path">
      <circle id="Ellipse_31" data-name="Ellipse 31" class="cls-1" cx="90" cy="90" r="90"/>
    </clipPath>
  </defs>
  <g id="Mask_Group_9" data-name="Mask Group 9" class="cls-2">
    <g id="_020-dna" data-name="020-dna" transform="translate(25.014 0)">
      <path id="Path_69" data-name="Path 69" class="cls-3" d="M34.139,136.516H98.01v5.806H34.139Z" transform="translate(-25.43 -2.968)"/>
      <path id="Path_70" data-name="Path 70" class="cls-4" d="M34.139,80.129H98.01v5.806H34.139Z" transform="translate(-25.43 -1.742)"/>
      <path id="Path_71" data-name="Path 71" class="cls-4" d="M34.139,5.935H98.01v5.806H34.139Z" transform="translate(-25.43 -0.129)"/>
      <path id="Path_72" data-name="Path 72" class="cls-3" d="M34.139,59.355H98.01v5.806H34.139Z" transform="translate(-25.43 -1.29)"/>
      <path id="Path_73" data-name="Path 73" class="cls-5" d="M68.566,31.14C53.221,23.148,38.674,15.572,37.01,2.523A2.883,2.883,0,0,0,34.151,0H28.3a2.93,2.93,0,0,0-2.906,3.208C27.276,22.729,46.31,32.642,63.2,41.44c16.308,8.494,31.714,16.518,31.714,31.14S79.51,95.227,63.2,103.721c-16.892,8.8-35.926,18.712-37.811,38.232a2.93,2.93,0,0,0,2.906,3.208h5.854a2.883,2.883,0,0,0,2.859-2.522c1.664-13.049,16.211-20.625,31.556-28.618,17.794-9.268,37.963-19.773,37.963-41.44S86.36,40.409,68.566,31.14Z" transform="translate(-25.239 0)"/>
      <path id="Path_74" data-name="Path 74" class="cls-6" d="M68.563,104.527c-16.308-8.494-31.714-16.518-31.714-31.14,0-13.817,13.758-21.742,29.032-29.74q-1.335-.7-2.682-1.4c-3.181-1.657-6.436-3.357-9.64-5.15-14.718,8.235-28.323,18.5-28.323,36.29,0,21.668,20.169,32.172,37.963,41.44,16.308,8.494,31.714,16.518,31.714,31.14h11.613C106.526,124.3,86.357,113.8,68.563,104.527Z" transform="translate(-25.236 -0.806)"/>
      <path id="Path_75" data-name="Path 75" class="cls-6" d="M95.665,2.469C94.129,14.787,81.124,22.232,66.782,29.741c4.016,2.1,8.212,4.249,12.324,6.55,13.814-7.729,26.647-17.243,28.172-33.1A2.925,2.925,0,0,0,104.372,0H98.518a2.858,2.858,0,0,0-2.853,2.469Z" transform="translate(-26.14 0)"/>
      <g id="Group_7" data-name="Group 7" transform="translate(55.011 104.386)">
        <path id="Path_76" data-name="Path 76" class="cls-7" d="M157.109,144.513A37.808,37.808,0,0,0,95.1,115.47c-8.312,6.935-12.479,17.371-12.479,29.043,0,20.88,15.8,36.341,36.685,36.341,11.675,0,22.114-3.826,29.049-12.142a37.649,37.649,0,0,0,8.758-24.2Z" transform="translate(-81.495 -106.706)"/>
        <path id="Path_77" data-name="Path 77" class="cls-8" d="M0,0H46.524V5.816H0Z" transform="translate(56.34 23.417) rotate(135)"/>
        <circle id="Ellipse_32" data-name="Ellipse 32" class="cls-3" cx="2.908" cy="2.908" r="2.908" transform="translate(51.351 18.448)"/>
        <circle id="Ellipse_33" data-name="Ellipse 33" class="cls-3" cx="2.908" cy="2.908" r="2.908" transform="translate(18.448 51.35)"/>
        <path id="Path_78" data-name="Path 78" class="cls-8" d="M.07.512H46.594V6.328H.07Z" transform="translate(23.73 18.863) rotate(45)"/>
        <circle id="Ellipse_34" data-name="Ellipse 34" class="cls-3" cx="2.908" cy="2.908" r="2.908" transform="translate(18.448 18.448)"/>
        <circle id="Ellipse_35" data-name="Ellipse 35" class="cls-3" cx="2.908" cy="2.908" r="2.908" transform="translate(51.351 51.35)"/>
        <path id="Path_79" data-name="Path 79" class="cls-8" d="M0,0H46.531V5.817H0Z" transform="translate(40.715 14.541) rotate(90)"/>
        <circle id="Ellipse_36" data-name="Ellipse 36" class="cls-3" cx="2.908" cy="2.908" r="2.908" transform="translate(34.899 11.633)"/>
        <circle id="Ellipse_37" data-name="Ellipse 37" class="cls-3" cx="2.908" cy="2.908" r="2.908" transform="translate(34.899 58.165)"/>
        <path id="Path_80" data-name="Path 80" class="cls-8" d="M96.334,142.38h46.531V148.2H96.334Z" transform="translate(-81.793 -107.481)"/>
        <path id="Path_81" data-name="Path 81" class="cls-4" d="M134.36,145.03a14.543,14.543,0,0,0-22.4-12.234c-4.018,2.587-5.548,7.1-5.548,12.235,0,8.031,5.379,13.617,13.41,13.617,5.141,0,9.659-1.744,12.245-5.771a14.476,14.476,0,0,0,2.3-7.847Z" transform="translate(-82.012 -107.223)"/>
        <path id="Path_82" data-name="Path 82" class="cls-9" d="M124.156,155.26a14.539,14.539,0,0,1-12.224-22.413,14.542,14.542,0,1,0,20.107,20.081,14.559,14.559,0,0,1-7.882,2.332Z" transform="translate(-81.987 -107.274)"/>
        <g id="Group_6" data-name="Group 6" transform="translate(11.633 32.354)">
          <path id="Path_83" data-name="Path 83" class="cls-3" d="M125.13,145.6a2.908,2.908,0,0,1-.026-5.816h.026a2.908,2.908,0,0,1,0,5.816Z" transform="translate(-93.988 -139.779)"/>
          <path id="Path_84" data-name="Path 84" class="cls-3" d="M120.049,153.213a2.908,2.908,0,1,1-.023-5.816h.023a2.908,2.908,0,0,1,0,5.816Z" transform="translate(-93.878 -139.944)"/>
          <path id="Path_85" data-name="Path 85" class="cls-3" d="M114.971,145.6a2.908,2.908,0,1,1-.026-5.816h.026a2.908,2.908,0,0,1,0,5.816Z" transform="translate(-93.768 -139.779)"/>
          <circle id="Ellipse_38" data-name="Ellipse 38" class="cls-3" cx="2.908" cy="2.908" r="2.908" transform="translate(0 2.545)"/>
          <circle id="Ellipse_39" data-name="Ellipse 39" class="cls-3" cx="2.908" cy="2.908" r="2.908" transform="translate(46.532 2.545)"/>
        </g>
        <path id="Path_86" data-name="Path 86" class="cls-10" d="M124.124,177.667a37.81,37.81,0,0,1-29.054-62,37.808,37.808,0,1,0,53.255,53.242A37.655,37.655,0,0,1,124.124,177.667Z" transform="translate(-81.47 -106.9)"/>
      </g>
    </g>
  </g>
</svg>
