<svg xmlns="http://www.w3.org/2000/svg" xmlns:xlink="http://www.w3.org/1999/xlink" width="100" height="100" viewBox="0 0 100 100">
  <defs>
    <style>
      .cls-1 {
        fill: #fff;
        stroke: #707070;
      }

      .cls-2 {
        clip-path: url(#clip-path);
      }

      .cls-3 {
        fill: #f8fafd;
      }

      .cls-4 {
        fill: #704639;
      }

      .cls-5 {
        fill: #474c54;
      }
    </style>
    <clipPath id="clip-path">
      <circle id="Ellipse_231" data-name="Ellipse 231" class="cls-1" cx="50" cy="50" r="50" transform="translate(140 920)"/>
    </clipPath>
  </defs>
  <g id="Mask_Group_26" data-name="Mask Group 26" class="cls-2" transform="translate(-140 -920)">
    <g id="doubt" transform="translate(140 920)">
      <path id="Path_1013" data-name="Path 1013" class="cls-3" d="M72.174,41.326a4.326,4.326,0,1,1-.913,0,3.315,3.315,0,0,1,.478-.021A2.738,2.738,0,0,1,72.174,41.326Zm0,0"/>
      <path id="Path_1014" data-name="Path 1014" class="cls-3" d="M23.913,45.652a4.362,4.362,0,0,1,3.914-4.326,4.287,4.287,0,0,1,.869,0,4.348,4.348,0,1,1-4.783,4.326Zm0,0"/>
      <path id="Path_1015" data-name="Path 1015" d="M72.174,41.326a8.674,8.674,0,1,1-.913,0,4.37,4.37,0,1,0,.913,0Zm0,0"/>
      <path id="Path_1016" data-name="Path 1016" d="M23.913,45.652A4.348,4.348,0,1,0,28.7,41.326a8.7,8.7,0,1,1-.869,0A4.362,4.362,0,0,0,23.913,45.652Zm0,0"/>
      <path id="Path_1018" data-name="Path 1018" class="cls-4" d="M80.435,65.217c0-3.6-3.894-6.522-8.7-6.522s-8.7,2.92-8.7,6.522,3.894,6.522,8.7,6.522S80.435,68.819,80.435,65.217Zm0,0"/>
      <path id="Path_1019" data-name="Path 1019" class="cls-4" d="M36.956,65.217c0-3.6-3.893-6.522-8.7-6.522s-8.7,2.92-8.7,6.522,3.893,6.522,8.7,6.522S36.956,68.819,36.956,65.217Zm0,0"/>
      <g id="Group_194" data-name="Group 194" transform="translate(39.13 6.522)">
        <path id="Path_1022" data-name="Path 1022" class="cls-4" d="M60.87,73.913H56.521a6.522,6.522,0,1,0-13.043,0H39.13a10.87,10.87,0,1,1,21.739,0Zm0,0" transform="translate(-39.13 -6.522)"/>
      </g>
      <path id="Path_1023" data-name="Path 1023" class="cls-5" d="M84.782,39.13c-14.75,0-23.913-5-23.913-13.043h4.348c0,6.007,9.826,8.7,19.565,8.7Zm0,0"/>
      <path id="Path_1024" data-name="Path 1024" class="cls-5" d="M45.652,39.13H41.3c0-5.891-8.961-10.869-19.565-10.869V23.913C35.147,23.913,45.652,30.6,45.652,39.13Zm0,0"/>
    </g>
  </g>
</svg>
