<svg xmlns="http://www.w3.org/2000/svg" xmlns:xlink="http://www.w3.org/1999/xlink" width="184" height="173" viewBox="0 0 184 173">
  <defs>
    <style>
      .cls-1 {
        fill: #fff;
        stroke: rgba(112,112,112,0);
      }

      .cls-2 {
        clip-path: url(#clip-path);
      }

      .cls-3 {
        fill: #eceaec;
      }

      .cls-4 {
        fill: #dad8db;
      }

      .cls-5 {
        fill: #c8c5c9;
      }

      .cls-6 {
        fill: #ffe09f;
      }

      .cls-7 {
        fill: #b6b1b7;
      }

      .cls-8 {
        fill: #faf5dc;
      }

      .cls-9 {
        fill: #f5ebcd;
      }

      .cls-10 {
        fill: #c3ddff;
      }

      .cls-11 {
        fill: #a4ccff;
      }

      .cls-12 {
        fill: #f6d190;
      }
    </style>
    <clipPath id="clip-path">
      <ellipse id="Ellipse_42" data-name="Ellipse 42" class="cls-1" cx="92" cy="86.5" rx="92" ry="86.5"/>
    </clipPath>
  </defs>
  <g id="Mask_Group_10" data-name="Mask Group 10" class="cls-2">
    <g id="_049-epi" data-name="049-epi" transform="translate(29.678 0)">
      <path id="Path_87" data-name="Path 87" class="cls-3" d="M145.191,116.431l-15.136-5.93-5.232.2-.866-2.861a11.247,11.247,0,0,1-4.295-4.76,10.382,10.382,0,0,1,2.413-11.943A37.706,37.706,0,0,0,133.548,64.2V55.831l-2.287-5.207,2.287-5.954V40.192c0-19.785-15.208-37-35.613-39.792L86.064.42A43.208,43.208,0,0,0,74.193,3.784L57.14,24.015V64.2c0,10.343-.334,17.026,6.648,24.012C65.2,89.624,68.1,92.2,68.64,94.07c1.6,5.493-2.394,14.153-7.667,16.219l-7.03.212-15.135,5.93a13.969,13.969,0,0,0-9.131,12.878v38.134a5.766,5.766,0,0,0,5.935,5.581H86.064l6.2-3.294,5.666,3.294h50.451a5.766,5.766,0,0,0,5.935-5.581V129.309a13.968,13.968,0,0,0-9.131-12.879Z" transform="translate(-29.677 -0.024)"/>
      <path id="Path_88" data-name="Path 88" class="cls-4" d="M74.194,71.392V4C60.166,10.273,50.452,23.727,50.452,39.3v5.581l2.826,5.869-2.826,5.292v8.371a37.677,37.677,0,0,0,11.276,26.7l-.01.026a11.784,11.784,0,0,1,3.146,4.906,10.606,10.606,0,0,1-4.758,12.041l-1.741,2.817A64.847,64.847,0,0,0,92,120.223V103.481c.025,0,.049,0,.074,0C81.276,96.423,74.194,84.692,74.194,71.392Z" transform="translate(-29.677 -0.239)"/>
      <path id="Path_89" data-name="Path 89" class="cls-5" d="M59.355,142.451a5.766,5.766,0,0,0-5.935,5.581V156.4H65.29v-8.371a5.766,5.766,0,0,0-5.935-5.581Z" transform="translate(-29.677 -8.516)"/>
      <path id="Path_90" data-name="Path 90" class="cls-6" d="M109.806,35.613H74.193L67.921,50.561l53.755-3.786c0-6.164-5.314-11.161-11.871-11.161Z" transform="translate(-29.677 -2.129)"/>
      <path id="Path_91" data-name="Path 91" class="cls-5" d="M118.709,47.484h14.839V58.645H118.709Z" transform="translate(-29.677 -2.839)"/>
      <path id="Path_92" data-name="Path 92" class="cls-7" d="M50.452,47.484H65.29V58.645H50.452Z" transform="translate(-29.677 -2.839)"/>
      <path id="Path_93" data-name="Path 93" class="cls-8" d="M69.719,59.355v8.371c0,10.992-.636,20.5,9.187,25.047A31.11,31.11,0,0,0,92,95.629c16.39,0,29.677-12.493,29.677-27.9V59.355Z" transform="translate(-29.677 -3.548)"/>
      <path id="Path_94" data-name="Path 94" class="cls-9" d="M62.322,59.355v8.371c0,10.989,6.763,20.5,16.584,25.047A37.054,37.054,0,0,1,74.194,74.7V59.355Z" transform="translate(-29.677 -3.548)"/>
      <path id="Path_95" data-name="Path 95" class="cls-10" d="M47.484,171.064H71.226a2.883,2.883,0,0,0,2.968-2.79V157.113a2.883,2.883,0,0,0-2.968-2.79H47.484a2.883,2.883,0,0,0-2.968,2.79v11.161A2.883,2.883,0,0,0,47.484,171.064Z" transform="translate(-29.677 -9.226)"/>
      <path id="Path_96" data-name="Path 96" class="cls-10" d="M121.677,58.645a8.649,8.649,0,0,1-8.9,8.371H100.9a2.883,2.883,0,0,1-2.968-2.79,5.947,5.947,0,0,0-11.871,0,2.883,2.883,0,0,1-2.968,2.79h-8.9a8.649,8.649,0,0,1-8.9-8.371l8.9-11.161h47.484V58.645Z" transform="translate(-29.677 -2.839)"/>
      <path id="Path_97" data-name="Path 97" class="cls-11" d="M92,22.323a5.766,5.766,0,0,0,5.935-5.581V.375C96.645.2,95.337.1,94.008.045a44.62,44.62,0,0,0-7.944.349V16.742A5.766,5.766,0,0,0,92,22.323Z" transform="translate(-29.677 0)"/>
      <path id="Path_98" data-name="Path 98" class="cls-12" d="M62.322,46.775l11.871,2.491V35.613C67.637,35.613,62.322,40.61,62.322,46.775Z" transform="translate(-29.677 -2.129)"/>
      <path id="Path_99" data-name="Path 99" class="cls-11" d="M74.194,67.016H71.226a8.649,8.649,0,0,1-8.9-8.371V47.484H74.194Z" transform="translate(-29.677 -2.839)"/>
      <path id="Path_100" data-name="Path 100" class="cls-10" d="M126.389,115.9a14.3,14.3,0,0,1-2.432-1.229A58.452,58.452,0,0,1,92,124.048v5.581a64.489,64.489,0,0,0,38.055-12.3Z" transform="translate(-29.677 -6.855)"/>
      <g id="Group_8" data-name="Group 8" transform="translate(24.267 103.242)">
        <path id="Path_101" data-name="Path 101" class="cls-11" d="M57.611,115.9a14.772,14.772,0,0,0,2.494-1.191A58.215,58.215,0,0,0,92,124.051v5.581a64.488,64.488,0,0,1-38.055-12.3Z" transform="translate(-53.944 -110.099)"/>
        <path id="Path_102" data-name="Path 102" class="cls-11" d="M92,109.806a5.766,5.766,0,0,0-5.935,5.581v64.177H97.935V115.387A5.766,5.766,0,0,0,92,109.806Z" transform="translate(-53.944 -109.806)"/>
      </g>
    </g>
  </g>
</svg>
