<svg xmlns="http://www.w3.org/2000/svg" xmlns:xlink="http://www.w3.org/1999/xlink" width="100" height="100" viewBox="0 0 100 100">
  <defs>
    <style>
      .cls-1, .cls-5 {
        fill: #fff;
      }

      .cls-1 {
        stroke: #707070;
      }

      .cls-2 {
        clip-path: url(#clip-path);
      }

      .cls-3 {
        fill: #401510;
      }

      .cls-4 {
        fill: #ffe7a3;
      }

      .cls-6 {
        fill: #def1ff;
      }

      .cls-7 {
        fill: #ff5440;
      }
    </style>
    <clipPath id="clip-path">
      <circle id="Ellipse_232" data-name="Ellipse 232" class="cls-1" cx="50" cy="50" r="50" transform="translate(280 920)"/>
    </clipPath>
  </defs>
  <g id="Mask_Group_27" data-name="Mask Group 27" class="cls-2" transform="translate(-280 -920)">
    <g id="emoji_1_" data-name="emoji (1)" transform="translate(280 920)">
      <path id="Path_1028" data-name="Path 1028" class="cls-3" d="M66.8,60.805H63.783L50,64.829,36.217,60.805H33.2a3.027,3.027,0,0,0-3.018,3.018V75.9A3.027,3.027,0,0,0,33.2,78.914h3.018L50,74.89l13.783,4.024H66.8A3.027,3.027,0,0,0,69.819,75.9V63.823A3.027,3.027,0,0,0,66.8,60.805Z"/>
      <path id="Path_1029" data-name="Path 1029" class="cls-4" d="M63.783,66.842V60.805H57.746L48.692,69.86l9.054,9.054h6.036V72.878a3.027,3.027,0,0,0-3.018-3.018A3.027,3.027,0,0,0,63.783,66.842Z"/>
      <path id="Path_1030" data-name="Path 1030" class="cls-5" d="M57.746,66.842V60.805H36.217v6.036a3.027,3.027,0,0,0,3.018,3.018,3.027,3.027,0,0,0-3.018,3.018v6.036H57.746V72.878a3.027,3.027,0,0,0-3.018-3.018A3.027,3.027,0,0,0,57.746,66.842Z"/>
      <path id="Path_1031" data-name="Path 1031" class="cls-6" d="M30.181,40.987V54.567A10.563,10.563,0,0,0,40.745,44c0-.037,0-.073,0-.11A28.572,28.572,0,0,1,30.181,40.987Z"/>
      <path id="Path_1032" data-name="Path 1032" class="cls-5" d="M21.321,38.256a10.56,10.56,0,0,0,8.86,16.311c2.5,0,4.527-4.728,4.527-10.563,0-.42-.012-.833-.032-1.239C30.079,41.327,27.362,39.053,21.321,38.256Z"/>
      <path id="Path_1033" data-name="Path 1033" class="cls-3" d="M30.181,40.987a3.028,3.028,0,1,0,2.186.943C31.617,41.625,30.9,41.306,30.181,40.987Z"/>
      <path id="Path_1034" data-name="Path 1034" class="cls-7" d="M51.509,86.459H48.491a1.509,1.509,0,0,1,0-3.018h3.018a1.509,1.509,0,1,1,0,3.018Z"/>
      <path id="Path_1035" data-name="Path 1035" class="cls-6" d="M78.68,38.255a25.457,25.457,0,0,0-4.8,1.093L69.819,54.567A10.562,10.562,0,0,0,78.68,38.255Z"/>
      <path id="Path_1036" data-name="Path 1036" class="cls-5" d="M73.881,39.348A22.626,22.626,0,0,1,74.346,44c0,5.835-2.026,10.563-4.527,10.563A10.563,10.563,0,0,1,59.255,44c0-.036,0-.072,0-.111C66.32,43.35,69.139,40.921,73.881,39.348Z"/>
      <path id="Path_1037" data-name="Path 1037" class="cls-3" d="M69.819,40.987a3.028,3.028,0,1,1-2.186.943C68.383,41.625,69.1,41.306,69.819,40.987Z"/>
      <g id="Group_195" data-name="Group 195">
        <path id="Path_1038" data-name="Path 1038" class="cls-7" d="M48.282,37.814a2.512,2.512,0,0,0-5.014,0,1.492,1.492,0,0,0-.008.154v1.006c0,.832-.677.633-1.509.633H30.794A30.3,30.3,0,0,0,16.6,36.459a1.509,1.509,0,0,0,0,3.018,27.387,27.387,0,0,1,12.969,2.888,30.3,30.3,0,0,0,14.194,3.148,4.532,4.532,0,0,0,4.527-4.527V37.968C48.29,37.916,48.287,37.865,48.282,37.814Z"/>
        <path id="Path_1039" data-name="Path 1039" class="cls-7" d="M51.718,37.814a2.512,2.512,0,0,1,5.014,0,1.492,1.492,0,0,1,.008.154v1.006c0,.832.677.633,1.509.633H69.206A30.3,30.3,0,0,1,83.4,36.459a1.509,1.509,0,1,1,0,3.018,27.387,27.387,0,0,0-12.969,2.888,30.3,30.3,0,0,1-14.194,3.148,4.532,4.532,0,0,1-4.527-4.527V37.968C51.71,37.916,51.713,37.865,51.718,37.814Z"/>
      </g>
    </g>
  </g>
</svg>
