<svg xmlns="http://www.w3.org/2000/svg" xmlns:xlink="http://www.w3.org/1999/xlink" width="184" height="173" viewBox="0 0 184 173">
  <defs>
    <style>
      .cls-1 {
        fill: #fff;
        stroke: rgba(112,112,112,0);
      }

      .cls-2 {
        clip-path: url(#clip-path);
      }

      .cls-3 {
        fill: #ffe07d;
      }

      .cls-4 {
        fill: #ff8086;
      }

      .cls-5 {
        fill: #a4ccff;
      }

      .cls-6 {
        fill: #c3ddff;
      }

      .cls-7 {
        fill: #faf5dc;
      }

      .cls-8 {
        fill: #ffd064;
      }

      .cls-9 {
        fill: #e5646e;
      }

      .cls-10 {
        fill: #f5ebcd;
      }
    </style>
    <clipPath id="clip-path">
      <ellipse id="Ellipse_31" data-name="Ellipse 31" class="cls-1" cx="92" cy="86.5" rx="92" ry="86.5"/>
    </clipPath>
  </defs>
  <g id="Mask_Group_9" data-name="Mask Group 9" class="cls-2">
    <g id="_020-dna" data-name="020-dna" transform="translate(25.236 0)">
      <path id="Path_69" data-name="Path 69" class="cls-3" d="M34.139,136.516h65.29V142.1H34.139Z" transform="translate(-25.236 -8.161)"/>
      <path id="Path_70" data-name="Path 70" class="cls-4" d="M34.139,80.129h65.29V85.71H34.139Z" transform="translate(-25.236 -4.79)"/>
      <path id="Path_71" data-name="Path 71" class="cls-4" d="M34.139,5.935h65.29v5.581H34.139Z" transform="translate(-25.236 -0.355)"/>
      <path id="Path_72" data-name="Path 72" class="cls-3" d="M34.139,59.355h65.29v5.581H34.139Z" transform="translate(-25.236 -3.548)"/>
      <path id="Path_73" data-name="Path 73" class="cls-5" d="M69.526,29.929C53.84,22.247,38.97,14.966,37.269,2.425A2.891,2.891,0,0,0,34.346,0H28.362a2.889,2.889,0,0,0-2.971,3.083c1.927,18.762,21.383,28.289,38.651,36.746C80.713,47.993,96.462,55.7,96.462,69.758S80.713,91.523,64.043,99.688c-17.268,8.456-36.724,17.984-38.651,36.746a2.889,2.889,0,0,0,2.971,3.083h5.984a2.891,2.891,0,0,0,2.922-2.424c1.7-12.541,16.572-19.823,32.258-27.5,18.189-8.908,38.807-19,38.807-39.829S87.715,38.837,69.526,29.929Z" transform="translate(-25.236 0)"/>
      <path id="Path_74" data-name="Path 74" class="cls-6" d="M69.526,101.9c-16.67-8.164-32.419-15.875-32.419-29.929,0-13.28,14.063-20.9,29.678-28.584q-1.365-.672-2.742-1.346c-3.252-1.592-6.579-3.227-9.854-4.95C39.143,45.011,25.236,54.873,25.236,71.976c0,20.825,20.618,30.921,38.807,39.829,16.67,8.164,32.419,15.875,32.419,29.929h11.871C108.333,120.909,87.715,110.813,69.526,101.9Z" transform="translate(-25.236 -2.218)"/>
      <path id="Path_75" data-name="Path 75" class="cls-6" d="M96.307,2.373c-1.57,11.838-14.864,18.994-29.524,26.211,4.105,2.018,8.394,4.083,12.6,6.295,14.121-7.429,27.24-16.573,28.8-31.808A2.884,2.884,0,0,0,105.208,0H99.223a2.869,2.869,0,0,0-2.917,2.373Z" transform="translate(-25.236 0)"/>
      <g id="Group_7" data-name="Group 7" transform="translate(56.233 100.326)">
        <path id="Path_76" data-name="Path 76" class="cls-7" d="M158.764,143.042c0-20.068-17.3-36.337-38.647-36.337a39.995,39.995,0,0,0-24.744,8.423c-8.5,6.666-12.756,16.7-12.756,27.913,0,20.068,16.156,34.927,37.5,34.927,11.934,0,22.605-3.677,29.694-11.669a34.909,34.909,0,0,0,8.953-23.258Z" transform="translate(-81.47 -106.706)"/>
        <path id="Path_77" data-name="Path 77" class="cls-8" d="M0,0,46.137,1.422l.178,5.767L.178,5.767Z" transform="translate(57.592 22.506) rotate(135)"/>
        <ellipse id="Ellipse_32" data-name="Ellipse 32" class="cls-3" cx="2.973" cy="2.795" rx="2.973" ry="2.795" transform="translate(52.492 17.73)"/>
        <ellipse id="Ellipse_33" data-name="Ellipse 33" class="cls-3" cx="2.973" cy="2.795" rx="2.973" ry="2.795" transform="translate(18.858 49.353)"/>
        <path id="Path_78" data-name="Path 78" class="cls-8" d="M.564,3.391,46.7,1.969l-.178,5.767L.386,9.158Z" transform="translate(25.936 15.728) rotate(45)"/>
        <ellipse id="Ellipse_34" data-name="Ellipse 34" class="cls-3" cx="2.973" cy="2.795" rx="2.973" ry="2.795" transform="translate(18.858 17.73)"/>
        <ellipse id="Ellipse_35" data-name="Ellipse 35" class="cls-3" cx="2.973" cy="2.795" rx="2.973" ry="2.795" transform="translate(52.492 49.353)"/>
        <path id="Path_79" data-name="Path 79" class="cls-8" d="M0,0H44.722V5.946H0Z" transform="translate(41.62 13.976) rotate(90)"/>
        <ellipse id="Ellipse_36" data-name="Ellipse 36" class="cls-3" cx="2.973" cy="2.795" rx="2.973" ry="2.795" transform="translate(35.675 11.181)"/>
        <ellipse id="Ellipse_37" data-name="Ellipse 37" class="cls-3" cx="2.973" cy="2.795" rx="2.973" ry="2.795" transform="translate(35.675 55.903)"/>
        <path id="Path_80" data-name="Path 80" class="cls-8" d="M96.334,142.38H143.9v5.59H96.334Z" transform="translate(-81.47 -108.838)"/>
        <path id="Path_81" data-name="Path 81" class="cls-4" d="M134.981,144.464c0-7.718-6.655-13.975-14.864-13.975a15.485,15.485,0,0,0-8.037,2.217c-4.107,2.487-5.671,6.824-5.671,11.759,0,7.718,5.5,13.088,13.708,13.088,5.255,0,9.873-1.676,12.517-5.546a13.316,13.316,0,0,0,2.347-7.542Z" transform="translate(-81.47 -108.127)"/>
        <path id="Path_82" data-name="Path 82" class="cls-9" d="M124.576,154.388c-8.209,0-14.864-6.257-14.864-13.975a13.351,13.351,0,0,1,2.368-7.566,13.789,13.789,0,0,0-6.827,11.759c0,7.718,6.655,13.976,14.864,13.976a15.134,15.134,0,0,0,12.517-6.434,15.574,15.574,0,0,1-8.058,2.242Z" transform="translate(-81.47 -108.268)"/>
        <g id="Group_6" data-name="Group 6" transform="translate(11.892 31.096)">
          <path id="Path_83" data-name="Path 83" class="cls-3" d="M125.195,145.369a2.8,2.8,0,1,1-.026-5.59h.026a2.8,2.8,0,1,1,0,5.59Z" transform="translate(-93.361 -139.779)"/>
          <path id="Path_84" data-name="Path 84" class="cls-3" d="M120.114,152.987a2.8,2.8,0,1,1-.023-5.59h.023a2.8,2.8,0,1,1,0,5.59Z" transform="translate(-93.361 -140.234)"/>
          <path id="Path_85" data-name="Path 85" class="cls-3" d="M115.036,145.369a2.8,2.8,0,1,1-.026-5.59h.026a2.8,2.8,0,1,1,0,5.59Z" transform="translate(-93.361 -139.779)"/>
          <ellipse id="Ellipse_38" data-name="Ellipse 38" class="cls-3" cx="2.973" cy="2.795" rx="2.973" ry="2.795" transform="translate(0 2.446)"/>
          <ellipse id="Ellipse_39" data-name="Ellipse 39" class="cls-3" cx="2.973" cy="2.795" rx="2.973" ry="2.795" transform="translate(47.566 2.446)"/>
        </g>
        <path id="Path_86" data-name="Path 86" class="cls-10" d="M125.072,175.256c-21.344,0-38.647-16.268-38.647-36.337a34.9,34.9,0,0,1,8.948-23.255,35.433,35.433,0,0,0-13.9,27.913c0,20.068,17.3,36.337,38.647,36.337a39.58,39.58,0,0,0,29.694-13.078A40,40,0,0,1,125.072,175.256Z" transform="translate(-81.47 -107.241)"/>
      </g>
    </g>
  </g>
</svg>
