<svg xmlns="http://www.w3.org/2000/svg" xmlns:xlink="http://www.w3.org/1999/xlink" width="170" height="170" viewBox="0 0 170 170">
  <defs>
    <style>
      .cls-1 {
        fill: #fff;
        stroke: #707070;
      }

      .cls-2 {
        clip-path: url(#clip-path);
      }

      .cls-3 {
        fill: #03aa6f;
      }

      .cls-4 {
        fill: #86daf1;
      }
    </style>
    <clipPath id="clip-path">
      <circle id="Ellipse_99" data-name="Ellipse 99" class="cls-1" cx="85" cy="85" r="85" transform="translate(530 1663)"/>
    </clipPath>
  </defs>
  <g id="Mask_Group_17" data-name="Mask Group 17" class="cls-2" transform="translate(-530 -1663)">
    <g id="world" transform="translate(530 1663)">
      <g id="Group_60" data-name="Group 60">
        <path id="Path_497" data-name="Path 497" class="cls-3" d="M146.55,26.4l-8.794,5.862L123.1,29.334,114.306,26.4l-11.725,2.931L93.788,26.4,99.65,14.678h11.725l11.491-5.745A83.956,83.956,0,0,1,146.55,26.4Z"/>
        <path id="Path_498" data-name="Path 498" class="cls-3" d="M79.132,14.678,76.2,23.472,67.407,26.4,58.613,41.059,43.956,49.853,23.438,52.784v8.794L29.3,67.44V79.165L20.507,73.3,11.713,67.44l-5.1-15.33A84.952,84.952,0,0,1,53.219,6.177l8.325,5.57Z"/>
        <path id="Path_499" data-name="Path 499" class="cls-3" d="M84.994,96.753l-2.931,14.656L70.338,123.134v8.794l-11.725,8.794v14.656l-8.794-2.931L43.957,137.79V108.478L29.3,105.546,23.438,93.821V85.028L29.3,79.165l8.794-8.794L43.957,82.1H64.475l8.794,14.656Z"/>
        <path id="Path_500" data-name="Path 500" class="cls-3" d="M159.155,43.492a84.923,84.923,0,0,1-4.69,90.487l-7.914-7.914V114.34l-5.862-11.725L134.826,90.89V79.165L126.032,73.3l-11.725,2.931L93.788,67.44,90.857,46.921l8.794-8.794h17.587l5.862,8.794,17.587,2.931,17.587-5.862Z"/>
      </g>
      <path id="Path_501" data-name="Path 501" class="cls-4" d="M102.582,29.334,114.307,26.4l8.794,2.931,14.656,2.931,8.794-5.862a83.713,83.713,0,0,1,12.6,17.089l-.879.5-17.587,5.862L123.1,46.921l-5.862-8.794H99.651l-8.794,8.794L93.789,67.44l20.519,8.794L126.032,73.3l8.794,5.862V90.89l5.862,11.725,5.862,11.725v11.725l7.914,7.914A85.006,85.006,0,0,1,6.613,52.11l5.1,15.33L20.507,73.3,29.3,79.165l-5.863,5.863v8.794L29.3,105.546l14.656,2.931V137.79l5.862,14.656,8.794,2.931V140.721l11.725-8.794v-8.794l11.725-11.725,2.931-14.656H73.269L64.475,82.1H43.957L38.094,70.371,29.3,79.165V67.44l-5.862-5.862V52.784l20.519-2.931,14.656-8.794L67.407,26.4,76.2,23.471l2.931-8.794L61.545,11.746,53.22,6.177a85.012,85.012,0,0,1,69.646,2.756l-11.491,5.745H99.651L93.788,26.4Z"/>
    </g>
  </g>
</svg>
