<svg xmlns="http://www.w3.org/2000/svg" xmlns:xlink="http://www.w3.org/1999/xlink" width="180" height="180" viewBox="0 0 180 180">
  <defs>
    <style>
      .cls-1 {
        fill: #ff9393;
        stroke: rgba(112,112,112,0);
      }

      .cls-2 {
        clip-path: url(#clip-path);
      }

      .cls-3 {
        fill: #ffd1a2;
      }

      .cls-4 {
        fill: #ffe5c1;
      }

      .cls-5 {
        fill: #ffbc85;
      }

      .cls-6 {
        fill: #a4ccff;
      }

      .cls-7 {
        fill: #ffd400;
      }

      .cls-8 {
        fill: #fdbf00;
      }

      .cls-9 {
        fill: #ff9200;
      }

      .cls-10 {
        fill: #ff6319;
      }
    </style>
    <clipPath id="clip-path">
      <circle id="Ellipse_25" data-name="Ellipse 25" class="cls-1" cx="90" cy="90" r="90"/>
    </clipPath>
  </defs>
  <g id="Mask_Group_7" data-name="Mask Group 7" class="cls-2">
    <g id="payment" transform="translate(13.72 -0.982)">
      <path id="Path_59" data-name="Path 59" class="cls-3" d="M159.07,107.344a15.116,15.116,0,0,0-21.351,0l-23.883,23.883H37.485a2.57,2.57,0,0,0-2.57,2.57V172.56a2.57,2.57,0,0,0,2.57,2.57H99.676a31.08,31.08,0,0,0,22.121-9.162l37.273-37.273a15.114,15.114,0,0,0,0-21.35Z" transform="translate(-10.926 5.852)"/>
      <path id="Path_60" data-name="Path 60" class="cls-4" d="M102.375,118.775H79.5C77.317,116.021,71,109.9,57.946,109.9c-13.788,0-20.214,6.832-22.08,9.292a2.565,2.565,0,0,0-.952,2v.123c0,.03,0,.061,0,.091v25a2.57,2.57,0,0,0,2.57,2.57h64.89a15.1,15.1,0,1,0,0-30.193Z" transform="translate(-10.926 5.7)"/>
      <path id="Path_61" data-name="Path 61" class="cls-5" d="M160.232,107.344a15.116,15.116,0,0,0-21.351,0L115,131.228H88.371v43.9h12.468a31.08,31.08,0,0,0,22.121-9.162l37.273-37.273a15.114,15.114,0,0,0,0-21.35Z" transform="translate(-12.088 5.852)"/>
      <path id="Path_62" data-name="Path 62" class="cls-3" d="M103.537,149.166a15.1,15.1,0,1,0,0-30.194H88.371v30.193h15.166Z" transform="translate(-12.088 5.503)"/>
      <path id="Path_63" data-name="Path 63" class="cls-6" d="M36.952,113.556H12.963a2.57,2.57,0,0,0-2.57,2.57v56.665a2.57,2.57,0,0,0,2.57,2.57H36.952a2.57,2.57,0,0,0,2.57-2.57V116.126a2.57,2.57,0,0,0-2.57-2.57Z" transform="translate(-10.392 5.621)"/>
      <path id="Path_1004" data-name="Path 1004" class="cls-7" d="M47.511-.746A48.336,48.336,0,1,1-.825,47.59,48.336,48.336,0,0,1,47.511-.746Z" transform="translate(21.683 95.714) rotate(-80.792)"/>
      <path id="Path_64" data-name="Path 64" class="cls-8" d="M136.713,48.342A48.4,48.4,0,0,0,88.371,0V96.684A48.4,48.4,0,0,0,136.713,48.342Z" transform="translate(-12.088 8.089)"/>
      <path id="Path_65" data-name="Path 65" class="cls-9" d="M101.862,52.7c-2.492-5.45-8.271-7.515-12.095-8.881l-.01,0c-2.064-.737-5.507-1.968-6.194-3.471a2.944,2.944,0,0,1,.976-3.479c1.5-1.062,4.4-1.146,6.461-.187a3.126,3.126,0,0,1,1.77,1.866,5.141,5.141,0,0,0,9.632-3.6,13.414,13.414,0,0,0-7.062-7.59,17.192,17.192,0,0,0-2.161-.831V24.789a5.141,5.141,0,0,0-10.281,0v1.638a14.642,14.642,0,0,0-4.29,2.042,13.285,13.285,0,0,0-4.394,16.153c2.493,5.451,8.271,7.515,12.095,8.88l.005,0c2.064.737,5.511,1.97,6.2,3.473a2.944,2.944,0,0,1-.976,3.479c-1.5,1.062-4.4,1.147-6.461.187a3.125,3.125,0,0,1-1.771-1.866,5.141,5.141,0,1,0-9.632,3.6,13.412,13.412,0,0,0,7.063,7.59,17.22,17.22,0,0,0,2.161.827V72.75a5.141,5.141,0,0,0,10.281,0V70.906a14.642,14.642,0,0,0,4.29-2.051A13.287,13.287,0,0,0,101.862,52.7Z" transform="translate(-11.755 7.662)"/>
      <g id="Group_5" data-name="Group 5" transform="translate(76.283 27.311)">
        <path id="Path_66" data-name="Path 66" class="cls-10" d="M91.333,36.68a3.126,3.126,0,0,1,1.77,1.866,5.141,5.141,0,1,0,9.632-3.6,13.414,13.414,0,0,0-7.062-7.59,17.191,17.191,0,0,0-2.161-.831V24.789a5.141,5.141,0,0,0-5.141-5.141V36.017a7.657,7.657,0,0,1,2.962.663Z" transform="translate(-88.371 -19.649)"/>
        <path id="Path_67" data-name="Path 67" class="cls-10" d="M102.195,53.225C99.7,47.775,93.924,45.71,90.1,44.344l-.01,0c-.51-.182-1.1-.394-1.719-.633V54.663c1.877.729,3.957,1.707,4.474,2.838a2.944,2.944,0,0,1-.976,3.479,5.961,5.961,0,0,1-3.5.851V78.412a5.141,5.141,0,0,0,5.141-5.141V71.428a14.643,14.643,0,0,0,4.29-2.051,13.286,13.286,0,0,0,4.393-16.152Z" transform="translate(-88.371 -20.172)"/>
      </g>
    </g>
  </g>
</svg>
