<svg xmlns="http://www.w3.org/2000/svg" xmlns:xlink="http://www.w3.org/1999/xlink" width="100" height="100" viewBox="0 0 100 100">
  <defs>
    <style>
      .cls-1, .cls-4 {
        fill: #fff;
      }

      .cls-1 {
        stroke: #707070;
      }

      .cls-2 {
        clip-path: url(#clip-path);
      }

      .cls-3 {
        fill: #ffe853;
      }

      .cls-5 {
        fill: #29334c;
      }

      .cls-6 {
        fill: #552d0e;
      }

      .cls-7 {
        fill: #704639;
      }
    </style>
    <clipPath id="clip-path">
      <circle id="Ellipse_233" data-name="Ellipse 233" class="cls-1" cx="50" cy="50" r="50" transform="translate(140 1040)"/>
    </clipPath>
  </defs>
  <g id="Mask_Group_28" data-name="Mask Group 28" class="cls-2" transform="translate(-140 -1040)">
    <g id="emoji" transform="translate(128.281 1016.563)">
      <path id="Path_1041" data-name="Path 1041" class="cls-3" d="M63.928,123.389c-.079.005-.158.008-.237.01-.222.008-.444.015-.663.02-.441.013-.878.018-1.309.018a50,50,0,1,1,0-100h.071C89.369,23.476,90.515,122.233,63.928,123.389Z"/>
      <path id="Path_1044" data-name="Path 1044" class="cls-4" d="M51.168,58.809a11.759,11.759,0,1,1-23.518,0C27.65,52.317,51.168,52.317,51.168,58.809Z" transform="translate(4.877 9.337)"/>
      <circle id="Ellipse_236" data-name="Ellipse 236" class="cls-5" cx="6.535" cy="6.535" r="6.535" transform="translate(37.875 61.613)"/>
      <path id="Path_1045" data-name="Path 1045" class="cls-4" d="M77.862,58.809a11.759,11.759,0,1,1-23.518,0C54.344,52.317,77.862,52.317,77.862,58.809Z" transform="translate(13.048 9.337)"/>
      <circle id="Ellipse_237" data-name="Ellipse 237" class="cls-5" cx="6.535" cy="6.535" r="6.535" transform="translate(72.786 61.613)"/>
      <path id="Path_1049" data-name="Path 1049" class="cls-6" d="M80.036,76.9A3.632,3.632,0,0,1,76.4,80.532H50v-7.27H76.4A3.635,3.635,0,0,1,80.036,76.9Z" transform="translate(11.719 15.252)"/>
      <g id="Group_196" data-name="Group 196" transform="translate(31.683 56.389)">
        <path id="Path_1046" data-name="Path 1046" class="cls-7" d="M51.168,60.424H27.65a11.759,11.759,0,0,1,23.518,0Z" transform="translate(-26.806 -48.666)"/>
        <path id="Path_1047" data-name="Path 1047" class="cls-6" d="M77.862,60.424H54.344a11.759,11.759,0,0,1,23.518,0Z" transform="translate(-18.635 -48.666)"/>
        <path id="Path_1048" data-name="Path 1048" class="cls-7" d="M87.075,76.9a3.632,3.632,0,0,1-3.635,3.635h-52.8a3.635,3.635,0,1,1,0-7.27h52.8A3.635,3.635,0,0,1,87.075,76.9Z" transform="translate(-27.004 -41.137)"/>
      </g>
    </g>
  </g>
</svg>
