<svg xmlns="http://www.w3.org/2000/svg" width="30" height="30" viewBox="0 0 30 30">
  <defs>
    <style>
      .cls-1 {
        fill: #fc3a52;
      }

      .cls-2 {
        fill: #fd7283;
      }

      .cls-3 {
        fill: #f0f0ff;
      }
    </style>
  </defs>
  <g id="_001-virus" data-name="001-virus" transform="translate(-1 -1)">
    <path id="Path_1569" data-name="Path 1569" class="cls-1" d="M2,16a2,2,0,0,1,2-2H5.19A10.933,10.933,0,0,1,6.94,9.768L6.1,8.929A2,2,0,0,1,8.929,6.1l.839.839A10.933,10.933,0,0,1,14,5.19V4a2,2,0,0,1,4,0V5.19a10.933,10.933,0,0,1,4.232,1.75l.839-.839A2,2,0,0,1,25.9,8.929l-.839.839A10.933,10.933,0,0,1,26.81,14H28a2,2,0,0,1,0,4H26.81a10.933,10.933,0,0,1-1.75,4.232l.839.839A2,2,0,1,1,23.071,25.9l-.839-.839A10.933,10.933,0,0,1,18,26.81V28a2,2,0,0,1-4,0V26.81a10.933,10.933,0,0,1-4.232-1.75l-.839.84A2,2,0,1,1,6.1,23.072l.839-.839A10.933,10.933,0,0,1,5.19,18H4a2,2,0,0,1-2-2Z"/>
    <path id="Path_1570" data-name="Path 1570" class="cls-2" d="M16,31a3,3,0,0,1-3-3v-.387a11.834,11.834,0,0,1-3.093-1.278l-.272.271a3.071,3.071,0,0,1-4.243,0,3,3,0,0,1,0-4.243l.271-.271A11.822,11.822,0,0,1,4.387,19H4a3,3,0,0,1,0-6h.387A11.834,11.834,0,0,1,5.665,9.907l-.271-.271a3,3,0,0,1,0-4.243,3.072,3.072,0,0,1,4.243,0l.271.271A11.823,11.823,0,0,1,13,4.387V4a3,3,0,0,1,6,0v.387a11.834,11.834,0,0,1,3.093,1.278l.271-.271a3.071,3.071,0,0,1,4.243,0,3,3,0,0,1,0,4.243l-.271.271A11.822,11.822,0,0,1,27.613,13H28a3,3,0,0,1,0,6h-.387a11.834,11.834,0,0,1-1.278,3.093l.271.271a3,3,0,0,1,0,4.243,3.072,3.072,0,0,1-4.243,0l-.271-.271A11.823,11.823,0,0,1,19,27.613V28a3,3,0,0,1-3,3ZM9.65,23.764l.686.473a9.9,9.9,0,0,0,3.846,1.589l.819.151V28a1,1,0,0,0,2,0V25.977l.819-.15a9.889,9.889,0,0,0,3.845-1.589l.685-.473,1.428,1.427a1.022,1.022,0,0,0,1.414,0,1,1,0,0,0,0-1.414L23.764,22.35l.473-.685a9.9,9.9,0,0,0,1.589-3.846L25.977,17H28a1,1,0,0,0,0-2H25.977l-.15-.819a9.889,9.889,0,0,0-1.589-3.845l-.473-.685,1.427-1.428a1,1,0,0,0,0-1.414,1.022,1.022,0,0,0-1.414,0L22.35,8.236l-.685-.473a9.9,9.9,0,0,0-3.846-1.589L17,6.023V4a1,1,0,0,0-2,0V6.023l-.819.15a9.889,9.889,0,0,0-3.845,1.589l-.685.473L8.222,6.808a1.022,1.022,0,0,0-1.414,0,1,1,0,0,0,0,1.414L8.236,9.65l-.473.686a9.9,9.9,0,0,0-1.589,3.846L6.023,15H4a1,1,0,1,0,0,2H6.023l.15.819a9.889,9.889,0,0,0,1.589,3.845l.473.685L6.808,23.778a1,1,0,0,0,0,1.414,1.022,1.022,0,0,0,1.414,0Z"/>
    <rect id="Rectangle_100" data-name="Rectangle 100" class="cls-3" width="4" height="6" rx="2" transform="translate(18.745 12.413) rotate(135)"/>
    <rect id="Rectangle_101" data-name="Rectangle 101" class="cls-3" width="4" height="6" rx="2" transform="translate(19.586 22.832) rotate(-135)"/>
    <g id="Group_285" data-name="Group 285">
      <circle id="Ellipse_355" data-name="Ellipse 355" class="cls-2" cx="2" cy="2" r="2" transform="translate(10 18)"/>
      <circle id="Ellipse_356" data-name="Ellipse 356" class="cls-2" cx="1" cy="1" r="1" transform="translate(8 14)"/>
      <circle id="Ellipse_357" data-name="Ellipse 357" class="cls-2" cx="1" cy="1" r="1" transform="translate(21 11)"/>
      <circle id="Ellipse_358" data-name="Ellipse 358" class="cls-2" cx="1" cy="1" r="1" transform="translate(15 23)"/>
    </g>
  </g>
</svg>
