<svg id="_003---Cloudy-Head" data-name="003---Cloudy-Head" xmlns="http://www.w3.org/2000/svg" width="156.673" height="151.545" viewBox="0 0 156.673 151.545">
  <defs>
    <style>
      .cls-1 {
        fill: #e2c4ff;
      }

      .cls-2 {
        fill: #82624b;
      }

      .cls-3 {
        fill: #e4ae80;
      }

      .cls-4 {
        fill: #f0bf93;
      }

      .cls-5 {
        fill: #ddffd3;
      }

      .cls-6 {
        fill: #444;
      }

      .cls-7 {
        fill: #dda378;
      }
    </style>
  </defs>
  <path id="Path" class="cls-1" d="M89.067,54h21.618a10.633,10.633,0,0,1,10.809,10.447,2.658,2.658,0,0,1-2.7,2.612H10.7A2.658,2.658,0,0,1,8,64.447,10.633,10.633,0,0,1,18.809,54Z" transform="translate(13.561 84.485)"/>
  <path id="Path-2" data-name="Path" class="cls-2" d="M19.371,58.4c-.513-.862-10.133-22.358,3.7-34.268l.213-.078a82.938,82.938,0,0,1,56.885.078c12.863,11.153,5.35,30.559,3.891,33.824Z" transform="translate(26.565 28.166)"/>
  <path id="Path-3" data-name="Path" class="cls-3" d="M67.262,49.99,68.64,60.464s-2.7,13.059-24.32,13.059S20,60.464,20,60.464L21.378,49.99Z" transform="translate(33.988 78.022)"/>
  <path id="Path-4" data-name="Path" class="cls-4" d="M93.5,59.374c-.54,1.045-1,1.959-1.351,2.769a13.657,13.657,0,0,0-1.216,5.746c.027,1.907-.676,5.746-6.729,5.746a30.739,30.739,0,0,1-2.7,12.38c-2.189,4.022-9.7,8.045-12.457,9.429A4.864,4.864,0,0,0,67.4,96.7a18.132,18.132,0,0,1-12.863,6.66A18.132,18.132,0,0,1,41.67,96.7a4.864,4.864,0,0,0-1.648-1.254c-2.756-1.384-10.269-5.407-12.457-9.429a31.008,31.008,0,0,1-2.675-12.38c-6.08,0-6.783-3.839-6.729-5.746a14.11,14.11,0,0,0-1.243-5.746c-.351-.81-.811-1.724-1.351-2.769-4.351-7.94,1.189-12.981,6.593-10.552,0,0,2.216-18.283,10.917-23.428a2.7,2.7,0,0,1,3.54.653c1.783,2.351,6.512,6.791,17.916,6.791s16.132-4.44,17.916-6.791a2.733,2.733,0,0,1,3.567-.653c8.674,5.145,10.89,23.428,10.89,23.428,5.4-2.429,10.944,2.612,6.593,10.552Z" transform="translate(23.776 37.74)"/>
  <path id="Path-5" data-name="Path" class="cls-1" d="M124.267,37.6h20.267a11.962,11.962,0,0,0,12.16-11.753,11.962,11.962,0,0,0-12.16-11.753,12.794,12.794,0,0,0-1.432.078,11.562,11.562,0,0,0,.081-1.384A11.9,11.9,0,0,0,132.4,1.054a12.129,12.129,0,0,0-13.236,9.1,10.952,10.952,0,0,0-9.3-3.856,10.813,10.813,0,0,0-8.509,5.293l-50.181-.522a12.242,12.242,0,0,0-23.888-.914,11.044,11.044,0,0,0-12-3.281,10.477,10.477,0,0,0-7.211,9.837,1.44,1.44,0,0,0,.027.34A10.466,10.466,0,0,0,.106,28.458,10.687,10.687,0,0,0,10.773,37.6Z" transform="translate(-0.021 -0.978)"/>
  <path id="Path-6" data-name="Path" class="cls-5" d="M103.873,37.564A15.949,15.949,0,0,1,87.66,53.236H28.21A16.064,16.064,0,0,1,12.227,40.16a15.624,15.624,0,0,1,10.687-17.4A16.025,16.025,0,0,1,39.019,8.834a16.366,16.366,0,0,1,9.35,2.873,17.683,17.683,0,0,1,19.623-10.4,17.139,17.139,0,0,1,14.263,16.67,15.981,15.981,0,0,1-.811,5.093,16.932,16.932,0,0,1,6.215-1.175A15.949,15.949,0,0,1,103.873,37.564Z" transform="translate(20.373 -0.942)"/>
  <path id="Path-7" data-name="Path" class="cls-6" d="M40.107,44.447A7.975,7.975,0,0,1,32,36.612a2.7,2.7,0,0,1,5.4,0,2.7,2.7,0,0,0,5.4,0,2.7,2.7,0,0,1,5.4,0A7.975,7.975,0,0,1,40.107,44.447Z" transform="translate(54.415 52.248)"/>
  <path id="Path-8" data-name="Path" class="cls-6" d="M28.107,44.447A7.975,7.975,0,0,1,20,36.612a2.7,2.7,0,0,1,5.4,0,2.7,2.7,0,0,0,5.4,0,2.7,2.7,0,0,1,5.4,0A7.975,7.975,0,0,1,28.107,44.447Z" transform="translate(33.988 52.248)"/>
  <g id="Group_76" data-name="Group 76" transform="translate(72.904 94.083)">
    <path id="Path-9" data-name="Path" class="cls-7" d="M34.247,55.284H29.7a2.613,2.613,0,1,1,0-5.224h4.545a.8.8,0,0,0,.659-.421A1.336,1.336,0,0,0,35,48.43L29.54,41.146a2.557,2.557,0,0,1,.6-3.649,2.764,2.764,0,0,1,3.775.582l5.6,7.475a2.439,2.439,0,0,1,.2.316,6.431,6.431,0,0,1-.189,6.467,6.212,6.212,0,0,1-5.288,2.946Z" transform="translate(-27 -37)"/>
  </g>
</svg>
