<svg id="_008-coronavirus" data-name="008-coronavirus" xmlns="http://www.w3.org/2000/svg" width="80" height="80" viewBox="0 0 80 80">
  <defs>
    <style>
      .cls-1 {
        fill: #c3ddff;
      }

      .cls-2 {
        fill: #ffd064;
      }

      .cls-3 {
        fill: #ffe07d;
      }

      .cls-4 {
        fill: #ff8086;
      }

      .cls-5 {
        fill: #e5646e;
      }
    </style>
  </defs>
  <g id="Group_255" data-name="Group 255" transform="translate(8.337 8.337)">
    <g id="Group_232" data-name="Group 232" transform="translate(24.331)">
      <path id="Path_1170" data-name="Path 1170" class="cls-1" d="M211.368,61a1.29,1.29,0,0,1-1.264-1.038L209.1,54.9a1.29,1.29,0,1,1,2.53-.5l1.008,5.062a1.29,1.29,0,0,1-1.013,1.518A1.344,1.344,0,0,1,211.368,61Z" transform="translate(-209.071 -53.358)"/>
    </g>
    <g id="Group_233" data-name="Group 233" transform="translate(35.407 55.684)">
      <path id="Path_1171" data-name="Path 1171" class="cls-1" d="M282.255,417.376a1.29,1.29,0,0,1-1.264-1.038l-1.008-5.062a1.29,1.29,0,1,1,2.53-.5l1.008,5.062a1.29,1.29,0,0,1-1.013,1.518A1.344,1.344,0,0,1,282.255,417.376Z" transform="translate(-279.958 -409.733)"/>
    </g>
    <g id="Group_236" data-name="Group 236" transform="translate(0 24.332)">
      <g id="Group_234" data-name="Group 234" transform="translate(55.683)">
        <path id="Path_1172" data-name="Path 1172" class="cls-1" d="M411.014,212.668a1.291,1.291,0,0,1-.251-2.556l5.063-1.007a1.291,1.291,0,0,1,.5,2.532l-5.063,1.007A1.348,1.348,0,0,1,411.014,212.668Z" transform="translate(-409.725 -209.081)"/>
      </g>
      <g id="Group_235" data-name="Group 235" transform="translate(0 11.076)">
        <path id="Path_1173" data-name="Path 1173" class="cls-1" d="M54.643,283.555A1.291,1.291,0,0,1,54.393,281l5.063-1.007a1.291,1.291,0,0,1,.5,2.532L54.9,283.531a1.345,1.345,0,0,1-.253.025Z" transform="translate(-53.354 -279.968)"/>
      </g>
    </g>
    <g id="Group_242" data-name="Group 242" transform="translate(4.624 4.624)">
      <g id="Group_237" data-name="Group 237" transform="translate(40.086)">
        <path id="Path_1174" data-name="Path 1174" class="cls-1" d="M340.788,89.826a1.29,1.29,0,0,1-1.071-2.007l2.868-4.291a1.29,1.29,0,1,1,2.145,1.434l-2.868,4.291A1.287,1.287,0,0,1,340.788,89.826Z" transform="translate(-339.498 -82.955)"/>
      </g>
      <g id="Group_238" data-name="Group 238" transform="translate(8.543 47.206)">
        <path id="Path_1175" data-name="Path 1175" class="cls-1" d="M138.917,391.946a1.29,1.29,0,0,1-1.071-2.007l2.868-4.291a1.29,1.29,0,1,1,2.145,1.434l-2.868,4.291A1.287,1.287,0,0,1,138.917,391.946Z" transform="translate(-137.627 -385.075)"/>
      </g>
      <g id="Group_241" data-name="Group 241" transform="translate(0 8.543)">
        <g id="Group_239" data-name="Group 239" transform="translate(47.205 31.542)">
          <path id="Path_1176" data-name="Path 1176" class="cls-1" d="M390.644,344.944a1.29,1.29,0,0,1-.716-.217l-4.292-2.867a1.291,1.291,0,0,1,1.434-2.146l4.292,2.867a1.291,1.291,0,0,1-.718,2.363Z" transform="translate(-385.062 -339.495)"/>
        </g>
        <g id="Group_240" data-name="Group 240">
          <path id="Path_1177" data-name="Path 1177" class="cls-1" d="M88.531,143.077a1.29,1.29,0,0,1-.716-.217l-4.292-2.867a1.29,1.29,0,0,1,1.434-2.146l4.292,2.867a1.291,1.291,0,0,1-.718,2.363Z" transform="translate(-82.949 -137.629)"/>
        </g>
      </g>
    </g>
    <g id="Group_254" data-name="Group 254" transform="translate(0 0)">
      <g id="Group_243" data-name="Group 243" transform="translate(13.168 4.623)">
        <path id="Path_1178" data-name="Path 1178" class="cls-1" d="M141.788,89.82a1.287,1.287,0,0,1-1.074-.573l-2.868-4.291a1.29,1.29,0,1,1,2.145-1.434l2.868,4.291a1.29,1.29,0,0,1-1.071,2.007Z" transform="translate(-137.628 -82.948)"/>
      </g>
      <g id="Group_244" data-name="Group 244" transform="translate(44.71 51.829)">
        <path id="Path_1179" data-name="Path 1179" class="cls-1" d="M343.659,391.937a1.287,1.287,0,0,1-1.074-.573l-2.868-4.291a1.29,1.29,0,1,1,2.145-1.434l2.868,4.291a1.29,1.29,0,0,1-1.071,2.007Z" transform="translate(-339.499 -385.064)"/>
      </g>
      <g id="Group_247" data-name="Group 247" transform="translate(4.624 13.167)">
        <g id="Group_245" data-name="Group 245" transform="translate(47.205)">
          <path id="Path_1180" data-name="Path 1180" class="cls-1" d="M386.356,143.078a1.291,1.291,0,0,1-.718-2.363l4.292-2.867a1.29,1.29,0,0,1,1.434,2.146l-4.292,2.867A1.291,1.291,0,0,1,386.356,143.078Z" transform="translate(-385.064 -137.629)"/>
        </g>
        <g id="Group_246" data-name="Group 246" transform="translate(0 31.542)">
          <path id="Path_1181" data-name="Path 1181" class="cls-1" d="M84.243,344.944a1.291,1.291,0,0,1-.718-2.363l4.292-2.867a1.291,1.291,0,0,1,1.434,2.146l-4.292,2.867A1.291,1.291,0,0,1,84.243,344.944Z" transform="translate(-82.951 -339.495)"/>
        </g>
      </g>
      <g id="Group_253" data-name="Group 253">
        <g id="Group_248" data-name="Group 248" transform="translate(35.407)">
          <path id="Path_1182" data-name="Path 1182" class="cls-1" d="M281.251,61a1.344,1.344,0,0,1-.253-.025,1.29,1.29,0,0,1-1.013-1.518l1.008-5.062a1.29,1.29,0,1,1,2.53.5l-1.008,5.062A1.29,1.29,0,0,1,281.251,61Z" transform="translate(-279.959 -53.36)"/>
        </g>
        <g id="Group_249" data-name="Group 249" transform="translate(24.331 55.684)">
          <path id="Path_1183" data-name="Path 1183" class="cls-1" d="M210.364,417.378a1.343,1.343,0,0,1-.253-.025,1.29,1.29,0,0,1-1.013-1.518l1.008-5.062a1.29,1.29,0,1,1,2.53.5l-1.008,5.062A1.29,1.29,0,0,1,210.364,417.378Z" transform="translate(-209.072 -409.735)"/>
        </g>
        <g id="Group_252" data-name="Group 252" transform="translate(0 24.332)">
          <g id="Group_250" data-name="Group 250" transform="translate(55.683 11.076)">
            <path id="Path_1184" data-name="Path 1184" class="cls-1" d="M416.08,283.557a1.343,1.343,0,0,1-.253-.025l-5.063-1.007a1.291,1.291,0,0,1,.5-2.532L416.331,281a1.29,1.29,0,0,1-.251,2.556Z" transform="translate(-409.725 -279.971)"/>
          </g>
          <g id="Group_251" data-name="Group 251">
            <path id="Path_1185" data-name="Path 1185" class="cls-1" d="M59.709,212.67a1.346,1.346,0,0,1-.253-.025l-5.063-1.007a1.291,1.291,0,0,1,.5-2.532l5.063,1.007a1.291,1.291,0,0,1-.251,2.556Z" transform="translate(-53.354 -209.084)"/>
          </g>
        </g>
      </g>
    </g>
  </g>
  <path id="Path_1186" data-name="Path 1186" class="cls-2" d="M0,0H2.581V10.323H0Z" transform="translate(6.133 27.372) rotate(-67.486)"/>
  <circle id="Ellipse_275" data-name="Ellipse 275" class="cls-3" cx="2.581" cy="2.581" r="2.581" transform="translate(2.848 23.1)"/>
  <path id="Path_1187" data-name="Path 1187" class="cls-2" d="M0,0H2.581V10.323H0Z" transform="translate(73.846 52.627) rotate(112.514)"/>
  <circle id="Ellipse_276" data-name="Ellipse 276" class="cls-3" cx="2.581" cy="2.581" r="2.581" transform="translate(71.99 51.739)"/>
  <path id="Path_1188" data-name="Path 1188" class="cls-2" d="M0,0H2.581V10.323H0Z" transform="translate(27.383 73.856) rotate(-157.486)"/>
  <circle id="Ellipse_277" data-name="Ellipse 277" class="cls-3" cx="2.581" cy="2.581" r="2.581" transform="translate(23.1 71.99)"/>
  <path id="Path_1189" data-name="Path 1189" class="cls-2" d="M0,0H2.581V10.323H0Z" transform="translate(52.638 6.144) rotate(22.514)"/>
  <circle id="Ellipse_278" data-name="Ellipse 278" class="cls-3" cx="2.581" cy="2.581" r="2.581" transform="translate(51.739 2.848)"/>
  <path id="Path_1190" data-name="Path 1190" class="cls-2" d="M0,0H2.581V10.323H0Z" transform="translate(7.117 55.002) rotate(-112.514)"/>
  <circle id="Ellipse_279" data-name="Ellipse 279" class="cls-3" cx="2.581" cy="2.581" r="2.581" transform="translate(2.848 51.739)"/>
  <path id="Path_1191" data-name="Path 1191" class="cls-2" d="M0,0H2.581V10.323H0Z" transform="translate(72.904 24.997) rotate(67.486)"/>
  <circle id="Ellipse_280" data-name="Ellipse 280" class="cls-3" cx="2.581" cy="2.581" r="2.581" transform="translate(71.99 23.1)"/>
  <path id="Path_1192" data-name="Path 1192" class="cls-2" d="M0,0H2.581V10.323H0Z" transform="translate(54.992 72.893) rotate(157.486)"/>
  <circle id="Ellipse_281" data-name="Ellipse 281" class="cls-3" cx="2.581" cy="2.581" r="2.581" transform="translate(51.739 71.99)"/>
  <path id="Path_1193" data-name="Path 1193" class="cls-2" d="M0,0H2.581V10.323H0Z" transform="translate(24.987 7.107) rotate(-22.514)"/>
  <circle id="Ellipse_282" data-name="Ellipse 282" class="cls-3" cx="2.581" cy="2.581" r="2.581" transform="translate(23.1 2.848)"/>
  <path id="Path_1194" data-name="Path 1194" class="cls-2" d="M0,0H2.581V10.323H0Z" transform="translate(13.537 15.366) rotate(-45)"/>
  <circle id="Ellipse_283" data-name="Ellipse 283" class="cls-3" cx="2.581" cy="2.581" r="2.581" transform="translate(10.96 10.96)"/>
  <path id="Path_1195" data-name="Path 1195" class="cls-2" d="M0,0H2.581V10.323H0Z" transform="translate(66.472 64.634) rotate(135)"/>
  <circle id="Ellipse_284" data-name="Ellipse 284" class="cls-3" cx="2.581" cy="2.581" r="2.581" transform="translate(63.879 63.879)"/>
  <path id="Path_1196" data-name="Path 1196" class="cls-2" d="M0,0H2.581V10.323H0Z" transform="translate(15.361 66.467) rotate(-135)"/>
  <circle id="Ellipse_285" data-name="Ellipse 285" class="cls-3" cx="2.581" cy="2.581" r="2.581" transform="translate(10.96 63.879)"/>
  <path id="Path_1197" data-name="Path 1197" class="cls-2" d="M0,0H2.581V10.323H0Z" transform="translate(64.63 13.533) rotate(45)"/>
  <circle id="Ellipse_286" data-name="Ellipse 286" class="cls-3" cx="2.581" cy="2.581" r="2.581" transform="translate(63.879 10.96)"/>
  <path id="Path_1198" data-name="Path 1198" class="cls-2" d="M0,0H2.581V10.323H0Z" transform="translate(3.871 41.29) rotate(-90)"/>
  <circle id="Ellipse_287" data-name="Ellipse 287" class="cls-3" cx="2.581" cy="2.581" r="2.581" transform="translate(0 37.419)"/>
  <path id="Path_1199" data-name="Path 1199" class="cls-2" d="M0,0H2.581V10.323H0Z" transform="translate(76.129 38.71) rotate(90)"/>
  <circle id="Ellipse_288" data-name="Ellipse 288" class="cls-3" cx="2.581" cy="2.581" r="2.581" transform="translate(74.839 37.419)"/>
  <path id="Path_1200" data-name="Path 1200" class="cls-2" d="M0,0H2.581V10.323H0Z" transform="translate(41.29 76.129) rotate(180)"/>
  <circle id="Ellipse_289" data-name="Ellipse 289" class="cls-3" cx="2.581" cy="2.581" r="2.581" transform="translate(37.419 74.839)"/>
  <path id="Path_1201" data-name="Path 1201" class="cls-2" d="M247.742,24.774h2.581V35.1h-2.581Z" transform="translate(-209.032 -20.903)"/>
  <circle id="Ellipse_290" data-name="Ellipse 290" class="cls-3" cx="2.581" cy="2.581" r="2.581" transform="translate(37.419 0)"/>
  <path id="Path_1202" data-name="Path 1202" class="cls-4" d="M141.769,109.678A27.1,27.1,0,0,0,97.9,88.393c-6.289,4.962-9.4,12.652-9.4,21.285,0,14.965,11.207,26.354,26.172,26.354,8.635,0,16.327-3.3,21.289-9.589A26.981,26.981,0,0,0,141.769,109.678Z" transform="translate(-74.672 -69.678)"/>
  <path id="Path_1203" data-name="Path 1203" class="cls-5" d="M114.194,163.643a27.1,27.1,0,0,1-21.287-43.865,27.1,27.1,0,1,0,38.06,38.05A27,27,0,0,1,114.194,163.643Z" transform="translate(-69.678 -101.063)"/>
  <circle id="Ellipse_291" data-name="Ellipse 291" class="cls-3" cx="2.581" cy="2.581" r="2.581" transform="translate(37.419 29.678)"/>
  <circle id="Ellipse_292" data-name="Ellipse 292" class="cls-3" cx="2.581" cy="2.581" r="2.581" transform="translate(37.419 45.161)"/>
  <circle id="Ellipse_293" data-name="Ellipse 293" class="cls-3" cx="2.581" cy="2.581" r="2.581" transform="translate(45.161 37.419)"/>
  <circle id="Ellipse_294" data-name="Ellipse 294" class="cls-3" cx="2.581" cy="2.581" r="2.581" transform="translate(29.678 37.419)"/>
  <g id="Group_256" data-name="Group 256" transform="translate(31.303 20.83)">
    <path id="Path_1204" data-name="Path 1204" class="cls-1" d="M201.627,135.893a1.3,1.3,0,1,1,.439-.077l-.013,0A1.3,1.3,0,0,1,201.627,135.893Z" transform="translate(-200.336 -133.311)"/>
  </g>
  <g id="Group_257" data-name="Group 257" transform="translate(56.591 31.305)">
    <path id="Path_1205" data-name="Path 1205" class="cls-1" d="M363.474,202.934a1.3,1.3,0,1,1,.491-.1l-.013,0A1.291,1.291,0,0,1,363.474,202.934Z" transform="translate(-362.183 -200.353)"/>
  </g>
  <g id="Group_258" data-name="Group 258" transform="translate(20.829 46.118)">
    <path id="Path_1206" data-name="Path 1206" class="cls-1" d="M134.6,297.739a1.3,1.3,0,1,1,.534-.117l-.011.005A1.272,1.272,0,0,1,134.6,297.739Z" transform="translate(-133.305 -295.157)"/>
  </g>
  <g id="Group_259" data-name="Group 259" transform="translate(46.116 56.592)">
    <path id="Path_1207" data-name="Path 1207" class="cls-1" d="M296.433,364.772a1.3,1.3,0,1,1,.439-.077l-.013,0A1.294,1.294,0,0,1,296.433,364.772Z" transform="translate(-295.142 -362.189)"/>
  </g>
  <g id="Group_260" data-name="Group 260" transform="translate(20.831 31.303)">
    <path id="Path_1208" data-name="Path 1208" class="cls-1" d="M134.61,202.928a1.275,1.275,0,0,1-.523-.112,1.293,1.293,0,1,1,1.709-.666l-.005.011A1.292,1.292,0,0,1,134.61,202.928Z" transform="translate(-133.321 -200.342)"/>
  </g>
  <g id="Group_261" data-name="Group 261" transform="translate(46.12 20.829)">
    <path id="Path_1209" data-name="Path 1209" class="cls-1" d="M296.457,135.891a1.295,1.295,0,1,1,1.195-.8l-.005.012A1.291,1.291,0,0,1,296.457,135.891Z" transform="translate(-295.166 -133.304)"/>
  </g>
  <g id="Group_262" data-name="Group 262" transform="translate(31.306 56.591)">
    <path id="Path_1210" data-name="Path 1210" class="cls-1" d="M201.651,364.773a1.295,1.295,0,1,1,1.195-.8l-.005.012A1.291,1.291,0,0,1,201.651,364.773Z" transform="translate(-200.36 -362.186)"/>
  </g>
  <g id="Group_263" data-name="Group 263" transform="translate(56.595 46.117)">
    <path id="Path_1211" data-name="Path 1211" class="cls-1" d="M363.5,297.733a1.275,1.275,0,0,1-.523-.112,1.293,1.293,0,1,1,1.709-.666l-.005.011A1.292,1.292,0,0,1,363.5,297.733Z" transform="translate(-362.208 -295.146)"/>
  </g>
  <g id="Group_264" data-name="Group 264" transform="translate(18.065 18.065)">
    <circle id="Ellipse_295" data-name="Ellipse 295" class="cls-3" cx="2.581" cy="2.581" r="2.581" transform="translate(19.355)"/>
    <circle id="Ellipse_296" data-name="Ellipse 296" class="cls-3" cx="2.581" cy="2.581" r="2.581" transform="translate(19.355 38.71)"/>
    <circle id="Ellipse_297" data-name="Ellipse 297" class="cls-3" cx="2.581" cy="2.581" r="2.581" transform="translate(38.71 19.355)"/>
    <circle id="Ellipse_298" data-name="Ellipse 298" class="cls-3" cx="2.581" cy="2.581" r="2.581" transform="translate(0 19.355)"/>
    <circle id="Ellipse_299" data-name="Ellipse 299" class="cls-3" cx="2.581" cy="2.581" r="2.581" transform="translate(33.041 33.041)"/>
    <circle id="Ellipse_300" data-name="Ellipse 300" class="cls-3" cx="2.581" cy="2.581" r="2.581" transform="translate(5.669 5.669)"/>
    <circle id="Ellipse_301" data-name="Ellipse 301" class="cls-3" cx="2.581" cy="2.581" r="2.581" transform="translate(5.669 33.041)"/>
    <circle id="Ellipse_302" data-name="Ellipse 302" class="cls-3" cx="2.581" cy="2.581" r="2.581" transform="translate(33.041 5.669)"/>
  </g>
  <circle id="Ellipse_303" data-name="Ellipse 303" class="cls-1" cx="1.29" cy="1.29" r="1.29" transform="translate(30.981 30.968)"/>
  <circle id="Ellipse_304" data-name="Ellipse 304" class="cls-1" cx="1.29" cy="1.29" r="1.29" transform="translate(30.981 46.452)"/>
  <circle id="Ellipse_305" data-name="Ellipse 305" class="cls-1" cx="1.29" cy="1.29" r="1.29" transform="translate(46.452 30.968)"/>
  <circle id="Ellipse_306" data-name="Ellipse 306" class="cls-1" cx="1.29" cy="1.29" r="1.29" transform="translate(46.452 46.452)"/>
</svg>
