<svg xmlns="http://www.w3.org/2000/svg" width="192" height="179.751" viewBox="0 0 192 179.751">
  <defs>
    <style>
      .cls-1 {
        fill: #c3ddff;
      }

      .cls-2 {
        fill: #a4ccff;
      }

      .cls-3 {
        fill: #95d6a4;
      }

      .cls-4 {
        fill: #78c2a4;
      }

      .cls-5 {
        fill: #ff8086;
      }

      .cls-6 {
        fill: #ff9a9f;
      }

      .cls-7 {
        fill: #ffe07d;
      }

      .cls-8 {
        fill: #faf5dc;
      }

      .cls-9 {
        fill: #ffd064;
      }

      .cls-10 {
        fill: #e5646e;
      }

      .cls-11 {
        fill: #f5ebcd;
      }
    </style>
  </defs>
  <g id="_017-world" data-name="017-world" transform="translate(0 -16.331)">
    <path id="Path_1148" data-name="Path 1148" class="cls-1" d="M149.769,58.456,67.294,20.106A77.156,77.156,0,0,0,31.37,37.631C15.024,51.826,7.5,72.761,7.5,96.11c0,42.757,31.85,74.45,74.607,74.45,41.783,0,77.366-71.539,77.366-71.539q.053-1.448.054-2.91A77.072,77.072,0,0,0,149.769,58.456Z" transform="translate(-4.688 -2.359)"/>
    <path id="Path_1149" data-name="Path 1149" class="cls-2" d="M85.161,195A77.421,77.421,0,0,1,26.683,66.84a77.42,77.42,0,0,0,50.736,135.9q2.041,0,4.057-.1l5.643-7.663q-.976.024-1.958.025Z" transform="translate(0 -31.568)"/>
    <path id="Path_1150" data-name="Path 1150" class="cls-3" d="M202.581,96.661c-6.421,1.959-38.983,11.01-40.2-6.781-.6-8.7,23.159,1.523,26.516-8.129,1.548-4.452-.968-6.387-6.387-9.484-5.729-3.274-4.007-15.579,10.371-16.17A77.553,77.553,0,0,0,110.4,17.747c1.668,4.15,4.464,16.381-16.477,23.262C71.345,48.428,75.28,59.685,80.538,61.331c6.956,2.176,13.583-3.755,15.968,1.774,3.548,8.226-10,12.1-14.839,20.161-8.441,14.068,10.2,24.263,17.177,14.839,6.21-8.387,1.371-15.161,7.823-18.71,4.74-2.607,13.341,7.469,18.742-.161,4.065-5.742,9.871-10.516,17.186-9.32a9.881,9.881,0,0,1,6.814,5.61c2.676,6.056-1.58,17.346-12.823,19.436-9.113,1.694-19.263-3.288-22.177,3.468-3.549,8.226-7.1,14.436-17.016,15.645s-14.668,10.3-12.58,17.661c2.928,10.323,32.787,18.246,41.86,31.44l4.186,3.432c11.762-.607,21.242.616,31.041-4.669a77.45,77.45,0,0,0,40.682-65.277Z" transform="translate(-47.796)"/>
    <path id="Path_1151" data-name="Path 1151" class="cls-4" d="M216.622,377.037c-2.124,0-4.2-.086-6.285-.254a13.35,13.35,0,0,1,2.6,7.89,77.185,77.185,0,0,0,54.374-26.567,77.09,77.09,0,0,1-50.688,18.931Z" transform="translate(-131.461 -213.609)"/>
    <path id="Path_1152" data-name="Path 1152" class="cls-5" d="M275.38,336.483l-62.439-19.45,5.345-.517a3.1,3.1,0,0,0-.6-6.163l-18.544,1.793a3.1,3.1,0,0,0-1.987,5.17l12.559,13.76a3.1,3.1,0,1,0,4.573-4.176l-3.774-4.135L273.536,342.4a3.069,3.069,0,0,0,.923.142,3.1,3.1,0,0,0,.922-6.055Z" transform="translate(-122.716 -183.753)"/>
    <path id="Path_1153" data-name="Path 1153" class="cls-6" d="M252.457,206.4l-81.092-94.638,7.039,2.975a3.1,3.1,0,0,0,2.413-5.7l-19.134-8.088a3.1,3.1,0,0,0-4.213,3.6l5.008,20.161a3.1,3.1,0,0,0,6.012-1.494l-1.849-7.438,81.11,94.659a3.1,3.1,0,0,0,4.705-4.031Z" transform="translate(-98.363 -52.729)"/>
    <path id="Path_1154" data-name="Path 1154" class="cls-5" d="M330.008,203.438,292.5,108.231l3.541,2.884a3.1,3.1,0,0,0,3.913-4.8L286.366,95.246a3.1,3.1,0,0,0-5.051,2.277l-.7,17.512a3.1,3.1,0,0,0,2.97,3.218c.042,0,.085,0,.127,0a3.1,3.1,0,0,0,3.091-2.973l.168-4.187,37.272,94.613a3.1,3.1,0,0,0,2.882,1.963,3.051,3.051,0,0,0,1.134-.218,3.1,3.1,0,0,0,1.748-4.017Z" transform="translate(-175.384 -48.888)"/>
    <circle id="Ellipse_266" data-name="Ellipse 266" class="cls-7" cx="3.097" cy="3.097" r="3.097" transform="translate(148.645 127.815)"/>
    <g id="Group_230" data-name="Group 230" transform="translate(111.345 115.428)">
      <path id="Path_1155" data-name="Path 1155" class="cls-8" d="M379.569,320.917a40.329,40.329,0,0,0-66.148-30.979c-8.866,7.4-13.311,18.529-13.311,30.979,0,22.272,16.859,38.763,39.131,38.763,12.453,0,23.588-4.081,30.985-12.951a40.16,40.16,0,0,0,9.342-25.812Z" transform="translate(-298.914 -280.589)"/>
      <path id="Path_1156" data-name="Path 1156" class="cls-9" d="M0,0H49.634V6.2H0Z" transform="translate(60.098 24.974) rotate(135)"/>
      <circle id="Ellipse_267" data-name="Ellipse 267" class="cls-7" cx="3.102" cy="3.102" r="3.102" transform="translate(54.774 19.677)"/>
      <circle id="Ellipse_268" data-name="Ellipse 268" class="cls-7" cx="3.102" cy="3.102" r="3.102" transform="translate(19.677 54.774)"/>
      <path id="Path_1157" data-name="Path 1157" class="cls-9" d="M0,0H49.634V6.2H0Z" transform="translate(24.974 20.557) rotate(45)"/>
      <circle id="Ellipse_269" data-name="Ellipse 269" class="cls-7" cx="3.102" cy="3.102" r="3.102" transform="translate(19.677 19.677)"/>
      <circle id="Ellipse_270" data-name="Ellipse 270" class="cls-7" cx="3.102" cy="3.102" r="3.102" transform="translate(54.774 54.774)"/>
      <path id="Path_1158" data-name="Path 1158" class="cls-9" d="M0,0H49.634V6.2H0Z" transform="translate(43.43 15.511) rotate(90)"/>
      <circle id="Ellipse_271" data-name="Ellipse 271" class="cls-7" cx="3.102" cy="3.102" r="3.102" transform="translate(37.226 12.409)"/>
      <circle id="Ellipse_272" data-name="Ellipse 272" class="cls-7" cx="3.102" cy="3.102" r="3.102" transform="translate(37.226 62.042)"/>
      <path id="Path_1159" data-name="Path 1159" class="cls-9" d="M338.282,379.857h49.633v6.2H338.282Z" transform="translate(-322.771 -342.632)"/>
      <path id="Path_1160" data-name="Path 1160" class="cls-5" d="M396.131,362.278a15.513,15.513,0,0,0-23.9-13.05c-4.286,2.76-5.918,7.574-5.918,13.05,0,8.566,5.738,14.525,14.3,14.525,5.484,0,10.3-1.86,13.061-6.156A15.442,15.442,0,0,0,396.131,362.278Z" transform="translate(-340.293 -321.951)"/>
      <path id="Path_1161" data-name="Path 1161" class="cls-10" d="M383.263,377.236a15.508,15.508,0,0,1-13.039-23.907,15.512,15.512,0,1,0,21.447,21.42,15.53,15.53,0,0,1-8.408,2.488Z" transform="translate(-338.283 -326.051)"/>
      <g id="Group_229" data-name="Group 229" transform="translate(12.409 34.511)">
        <path id="Path_1162" data-name="Path 1162" class="cls-7" d="M413.4,378.823a3.1,3.1,0,0,1-.027-6.2h.027a3.1,3.1,0,0,1,0,6.2Z" transform="translate(-380.181 -372.619)"/>
        <path id="Path_1163" data-name="Path 1163" class="cls-7" d="M399.261,400.021a3.1,3.1,0,1,1-.024-6.2h.024a3.1,3.1,0,0,1,0,6.2Z" transform="translate(-371.346 -385.868)"/>
        <path id="Path_1164" data-name="Path 1164" class="cls-7" d="M385.127,378.823a3.1,3.1,0,1,1-.027-6.2h.027a3.1,3.1,0,0,1,0,6.2Z" transform="translate(-362.51 -372.619)"/>
        <circle id="Ellipse_273" data-name="Ellipse 273" class="cls-7" cx="3.102" cy="3.102" r="3.102" transform="translate(0 2.714)"/>
        <circle id="Ellipse_274" data-name="Ellipse 274" class="cls-7" cx="3.102" cy="3.102" r="3.102" transform="translate(49.634 2.714)"/>
      </g>
      <path id="Path_1165" data-name="Path 1165" class="cls-11" d="M342.418,371.654a40.33,40.33,0,0,1-30.991-66.136,40.328,40.328,0,1,0,56.805,56.791A40.167,40.167,0,0,1,342.418,371.654Z" transform="translate(-296.92 -296.17)"/>
    </g>
  </g>
</svg>
