<svg xmlns="http://www.w3.org/2000/svg" width="204" height="171.096" viewBox="0 0 204 171.096">
  <defs>
    <style>
      .cls-1 {
        fill: #ff8086;
      }

      .cls-2 {
        fill: #e5646e;
      }

      .cls-3 {
        fill: #ffe07d;
      }

      .cls-4 {
        fill: #ffd064;
      }

      .cls-5 {
        fill: #faf5dc;
      }

      .cls-6 {
        fill: #f5ebcd;
      }
    </style>
  </defs>
  <g id="_027-china" data-name="027-china" transform="translate(0 -41.291)">
    <path id="Path_1132" data-name="Path 1132" class="cls-1" d="M190.1,57.742h-8.3L165.343,41.291l-11.578,2.895a3.289,3.289,0,0,0-2.226,1.9l-7.906,18.448a3.123,3.123,0,0,0,1.917,4.164,3.29,3.29,0,0,1,.629,5.9L114.64,94.007a13.161,13.161,0,0,1-11.06,1.277L85.361,89.211A32.9,32.9,0,0,1,75.213,83.69l-9.061-7.249a9.871,9.871,0,0,1-3.513-5.772L60.784,61.4a3.29,3.29,0,0,0-4.267-2.476l-22.65,7.55a6.58,6.58,0,0,0-4.3,4.647L27.15,80.775,10.7,83.125,6.845,92.383a6.582,6.582,0,0,0,.694,2.942L13.426,107.1v13.466a6.581,6.581,0,0,0,2.247,4.952L36.34,142.276a6.582,6.582,0,0,0,4.334,1.628H54.652l6.469,4.313a9.87,9.87,0,0,0,7.411,1.466l13.679-3.321-.8,20.121,10.518,12.992,8.7-3.479a13.161,13.161,0,0,1,10.774.448l21.036,10.518,3.29-7.479L158.762,140l3.911-23.338a3.985,3.985,0,0,0-1.112-3.476l-9.379-9.379,13.161-9.871L169.6,98.19a3.29,3.29,0,0,0,4.653,0L190.041,82.4a3.188,3.188,0,0,0,.6-3.68l-2.263-4.526,4.776-11.94a3.29,3.29,0,0,0-3.055-4.512Z" transform="translate(-4.118)"/>
    <path id="Path_1133" data-name="Path 1133" class="cls-2" d="M87.815,245.031l8.7-3.479a13.162,13.162,0,0,1,10.774.448l18.573,9.286a17.849,17.849,0,0,1-2.436-8.576l-13.093-6.546a19.6,19.6,0,0,0-5.465-1.839,19.861,19.861,0,0,0-10.8,1.117l-6.43,2.572L80.508,229.1a16.977,16.977,0,0,0,1.75-7.22v-8.843a6.581,6.581,0,0,0-7.871-6.453L61.944,209.07a3.287,3.287,0,0,1-2.47-.488l-6.521-4.347a6.375,6.375,0,0,0-3.536-1.071H35.376L13.161,183.727V168.707l-.694-1.389L6.581,155.547v-9.258l-3.755.536A3.288,3.288,0,0,0,0,150.082v5.464a6.578,6.578,0,0,0,.695,2.943l5.886,11.772v13.466a6.58,6.58,0,0,0,2.247,4.952l22.215,19.438a6.58,6.58,0,0,0,4.333,1.628H49.355l6.469,4.313a9.872,9.872,0,0,0,7.412,1.466l12.442-2.488v9.038a10.1,10.1,0,0,1-1.8,5.57,3.263,3.263,0,0,0,.128,3.861l10.016,12.528A3.29,3.29,0,0,0,87.815,245.031Z" transform="translate(0 -63.163)"/>
    <path id="Path_1134" data-name="Path 1134" class="cls-3" d="M239.756,255.415,144.188,196.84l8.282,1.035a3.29,3.29,0,0,0,.816-6.529l-21.9-2.738a3.29,3.29,0,0,0-3.264,4.9l10.951,19.164a3.29,3.29,0,0,0,5.713-3.265l-3.941-6.9,95.476,58.517a3.289,3.289,0,1,0,3.437-5.61Z" transform="translate(-76.811 -88.606)"/>
    <path id="Path_1135" data-name="Path 1135" class="cls-4" d="M347.68,255.98l-30.13-54.235,6.716,5.246a3.29,3.29,0,1,0,4.049-5.186l-17.393-13.589a3.29,3.29,0,0,0-5.315,2.527l-.437,22.067a3.292,3.292,0,0,0,3.226,3.356h.064a3.292,3.292,0,0,0,3.29-3.225l.154-7.809,30.025,54.044a3.29,3.29,0,0,0,5.751-3.2Z" transform="translate(-183.578 -87.966)"/>
    <path id="Path_1136" data-name="Path 1136" class="cls-4" d="M290.481,327.8,231.2,316.533l1.512-.465a3.29,3.29,0,1,0-1.934-6.289l-14.6,4.492a3.289,3.289,0,0,0-.967,5.8l12.358,8.991a3.289,3.289,0,1,0,3.869-5.321l-.875-.636,58.7,11.16a3.221,3.221,0,0,0,.617.058,3.291,3.291,0,0,0,.611-6.523Z" transform="translate(-128.642 -161.423)"/>
    <g id="Group_228" data-name="Group 228" transform="translate(118.304 126.692)">
      <path id="Path_1137" data-name="Path 1137" class="cls-5" d="M384.536,298.478a42.849,42.849,0,0,0-70.282-32.915c-9.42,7.86-14.143,19.688-14.143,32.915,0,23.664,17.912,41.186,41.577,41.186,13.231,0,25.062-4.336,32.922-13.76a42.67,42.67,0,0,0,9.926-27.425Z" transform="translate(-298.84 -255.63)"/>
      <path id="Path_1138" data-name="Path 1138" class="cls-4" d="M0,0H52.736V6.592H0Z" transform="translate(63.853 26.534) rotate(135)"/>
      <circle id="Ellipse_258" data-name="Ellipse 258" class="cls-3" cx="3.296" cy="3.296" r="3.296" transform="translate(58.197 20.907)"/>
      <circle id="Ellipse_259" data-name="Ellipse 259" class="cls-3" cx="3.296" cy="3.296" r="3.296" transform="translate(20.907 58.197)"/>
      <path id="Path_1139" data-name="Path 1139" class="cls-4" d="M0,0H52.736V6.592H0Z" transform="translate(26.535 21.843) rotate(45)"/>
      <circle id="Ellipse_260" data-name="Ellipse 260" class="cls-3" cx="3.296" cy="3.296" r="3.296" transform="translate(20.907 20.907)"/>
      <circle id="Ellipse_261" data-name="Ellipse 261" class="cls-3" cx="3.296" cy="3.296" r="3.296" transform="translate(58.197 58.197)"/>
      <path id="Path_1140" data-name="Path 1140" class="cls-4" d="M0,0H52.736V6.592H0Z" transform="translate(46.144 16.48) rotate(90)"/>
      <circle id="Ellipse_262" data-name="Ellipse 262" class="cls-3" cx="3.296" cy="3.296" r="3.296" transform="translate(39.552 13.184)"/>
      <circle id="Ellipse_263" data-name="Ellipse 263" class="cls-3" cx="3.296" cy="3.296" r="3.296" transform="translate(39.552 65.92)"/>
      <path id="Path_1141" data-name="Path 1141" class="cls-4" d="M338.282,354.9h52.736v6.592H338.282Z" transform="translate(-321.802 -315.346)"/>
      <path id="Path_1142" data-name="Path 1142" class="cls-1" d="M397.995,338.289a16.483,16.483,0,0,0-25.39-13.866c-4.554,2.932-6.288,8.047-6.288,13.866,0,9.1,6.1,15.433,15.2,15.433,5.826,0,10.947-1.977,13.877-6.54A16.407,16.407,0,0,0,397.995,338.289Z" transform="translate(-338.667 -295.441)"/>
      <path id="Path_1143" data-name="Path 1143" class="cls-2" d="M384.524,353.772a16.478,16.478,0,0,1-13.854-25.4,16.481,16.481,0,1,0,22.787,22.758A16.5,16.5,0,0,1,384.524,353.772Z" transform="translate(-336.731 -299.388)"/>
      <g id="Group_227" data-name="Group 227" transform="translate(13.184 36.668)">
        <path id="Path_1144" data-name="Path 1144" class="cls-3" d="M413.593,354.252a3.3,3.3,0,0,1-.029-6.592h.029a3.3,3.3,0,0,1,0,6.592Z" transform="translate(-378.3 -347.66)"/>
        <path id="Path_1145" data-name="Path 1145" class="cls-3" d="M399.456,375.45a3.3,3.3,0,1,1-.026-6.592h.026a3.3,3.3,0,0,1,0,6.592Z" transform="translate(-369.796 -360.412)"/>
        <path id="Path_1146" data-name="Path 1146" class="cls-3" d="M385.322,354.252a3.3,3.3,0,1,1-.029-6.592h.029a3.3,3.3,0,0,1,0,6.592Z" transform="translate(-361.291 -347.66)"/>
        <circle id="Ellipse_264" data-name="Ellipse 264" class="cls-3" cx="3.296" cy="3.296" r="3.296" transform="translate(0 2.884)"/>
        <circle id="Ellipse_265" data-name="Ellipse 265" class="cls-3" cx="3.296" cy="3.296" r="3.296" transform="translate(52.736 2.884)"/>
      </g>
      <path id="Path_1147" data-name="Path 1147" class="cls-6" d="M345.262,350.829a42.851,42.851,0,0,1-32.928-70.27A42.849,42.849,0,1,0,372.69,340.9,42.677,42.677,0,0,1,345.262,350.829Z" transform="translate(-296.92 -270.626)"/>
    </g>
  </g>
</svg>
