<svg xmlns="http://www.w3.org/2000/svg" width="233.783" height="289.89" viewBox="0 0 233.783 289.89">
  <defs>
    <style>
      .cls-1 {
        fill: #f6d190;
      }

      .cls-2 {
        fill: #dad8db;
      }

      .cls-3 {
        fill: #eceaec;
      }

      .cls-4 {
        fill: #966a5b;
      }

      .cls-5 {
        fill: #785353;
      }

      .cls-6 {
        fill: #ffe09f;
      }

      .cls-7 {
        fill: #6e4848;
      }

      .cls-8 {
        fill: #ecbd83;
      }

      .cls-9 {
        fill: #faf5dc;
      }

      .cls-10 {
        fill: #f5ebcd;
      }

      .cls-11 {
        fill: #ffd064;
      }

      .cls-12 {
        fill: #ffe07d;
      }

      .cls-13 {
        fill: #ff8086;
      }

      .cls-14 {
        fill: #e5646e;
      }
    </style>
  </defs>
  <g id="_028-infected" data-name="028-infected" transform="translate(-49.549)">
    <path id="Path_833" data-name="Path 833" class="cls-1" d="M212,271.009l-3.792-1.166a9.351,9.351,0,0,1-6.6-8.938V250.893H145.5V260.9a9.351,9.351,0,0,1-6.6,8.938l-3.792,1.166-4.492,25.806h85.877Z" transform="translate(-35.167 -108.839)"/>
    <path id="Path_834" data-name="Path 834" class="cls-2" d="M214.021,302.219,195.3,296.46,138.386,322.81,81.47,296.459l-18.718,5.759a18.7,18.7,0,0,0-13.2,17.876v32.943a9.352,9.352,0,0,0,9.351,9.351H217.872a9.352,9.352,0,0,0,9.351-9.351V320.094a18.7,18.7,0,0,0-13.2-17.875Z" transform="translate(0 -128.606)"/>
    <path id="Path_835" data-name="Path 835" class="cls-3" d="M162.844,325.305a65.4,65.4,0,0,0,56.916-33.2l-18.469-5.683a46.713,46.713,0,0,1-76.893,0L105.929,292.1a65.393,65.393,0,0,0,56.915,33.2Z" transform="translate(-24.458 -124.252)"/>
    <path id="Path_836" data-name="Path 836" class="cls-4" d="M204.753,0h-36.89a13.936,13.936,0,0,0-12.08,7,4.661,4.661,0,0,1-4.028,2.353h-3.11l2.843,70.135h85.994V32.729A32.73,32.73,0,0,0,204.753,0Z" transform="translate(-42.989)"/>
    <path id="Path_837" data-name="Path 837" class="cls-5" d="M107.355,39.894V86.651h32.729V25.867a9.351,9.351,0,0,0-9.351-9.351,23.378,23.378,0,0,0-23.378,23.378Z" transform="translate(-25.077 -7.165)"/>
    <path id="Path_838" data-name="Path 838" class="cls-6" d="M240.738,111.251c-.748-4.6-5.066-7.781-9.724-7.781h-4.175a9.351,9.351,0,0,1-9.351-9.351V80.092a14.027,14.027,0,0,0-14.027-14.027H156.7l-11.038,58.47,34.416,14.721,46.757-17.083h4.676a9.358,9.358,0,0,0,9.223-10.922Z" transform="translate(-41.696 -28.659)"/>
    <path id="Path_839" data-name="Path 839" class="cls-1" d="M136.5,122.172V66.064a14.027,14.027,0,0,0-14.027,14.027V94.118a9.351,9.351,0,0,1-9.351,9.351h-4.175c-4.659,0-8.976,3.183-9.724,7.781a9.357,9.357,0,0,0,9.223,10.922h4.676l12.152,5.382Z" transform="translate(-21.494 -28.659)"/>
    <g id="Group_170" data-name="Group 170" transform="translate(115.008 70.135)">
      <path id="Path_840" data-name="Path 840" class="cls-7" d="M169.837,137.9a4.674,4.674,0,0,1-4.676-4.676v-4.676a4.676,4.676,0,1,1,9.351,0v4.676A4.674,4.674,0,0,1,169.837,137.9Z" transform="translate(-165.161 -123.871)"/>
    </g>
    <g id="Group_171" data-name="Group 171" transform="translate(152.413 70.135)">
      <path id="Path_841" data-name="Path 841" class="cls-7" d="M235.9,137.9a4.674,4.674,0,0,1-4.676-4.676v-4.676a4.676,4.676,0,1,1,9.351,0v4.676A4.674,4.674,0,0,1,235.9,137.9Z" transform="translate(-231.226 -123.871)"/>
    </g>
    <path id="Path_842" data-name="Path 842" class="cls-8" d="M156.9,238.778a55.782,55.782,0,0,0,56.107,0v-15.81H156.9v15.81Z" transform="translate(-46.571 -96.725)"/>
    <path id="Path_843" data-name="Path 843" class="cls-9" d="M225.18,123.881a4.782,4.782,0,0,0-4.365,4.826V142.72a4.53,4.53,0,0,1-4.53,4.53H160.032c-15.661,10.95-2.253,46.034,23.733,45.841,3.932-.029,7.744.363,11.382-.592a47.381,47.381,0,0,0,35.02-45.836V128.547a4.676,4.676,0,0,0-4.986-4.666Z" transform="translate(-45.024 -53.736)"/>
    <path id="Path_844" data-name="Path 844" class="cls-10" d="M147.249,147.249h-9.5a4.53,4.53,0,0,1-4.53-4.53V128.706a4.782,4.782,0,0,0-4.365-4.826,4.676,4.676,0,0,0-4.986,4.665v18.7a46.721,46.721,0,0,0,58.493,45.25A46.8,46.8,0,0,1,147.249,147.249Z" transform="translate(-32.241 -53.736)"/>
    <g id="Group_173" data-name="Group 173" transform="translate(161.764 168.323)">
      <path id="Path_845" data-name="Path 845" class="cls-9" d="M370.691,358.074a60.786,60.786,0,0,0-99.7-46.693c-13.363,11.15-20.062,27.929-20.062,46.693,0,33.57,25.41,58.427,58.98,58.427,18.77,0,35.553-6.151,46.7-19.52A60.534,60.534,0,0,0,370.691,358.074Z" transform="translate(-249.124 -297.29)"/>
      <path id="Path_846" data-name="Path 846" class="cls-11" d="M0,0H74.81V9.351H0Z" transform="translate(90.58 37.647) rotate(135)"/>
      <circle id="Ellipse_149" data-name="Ellipse 149" class="cls-12" cx="4.676" cy="4.676" r="4.676" transform="translate(82.557 29.658)"/>
      <circle id="Ellipse_150" data-name="Ellipse 150" class="cls-12" cx="4.676" cy="4.676" r="4.676" transform="translate(29.658 82.558)"/>
      <path id="Path_847" data-name="Path 847" class="cls-11" d="M0,0H74.81V9.351H0Z" transform="translate(37.647 30.986) rotate(45)"/>
      <circle id="Ellipse_151" data-name="Ellipse 151" class="cls-12" cx="4.676" cy="4.676" r="4.676" transform="translate(29.658 29.658)"/>
      <circle id="Ellipse_152" data-name="Ellipse 152" class="cls-12" cx="4.676" cy="4.676" r="4.676" transform="translate(82.557 82.558)"/>
      <path id="Path_848" data-name="Path 848" class="cls-11" d="M0,0H74.81V9.351H0Z" transform="translate(65.459 23.378) rotate(90)"/>
      <circle id="Ellipse_153" data-name="Ellipse 153" class="cls-12" cx="4.676" cy="4.676" r="4.676" transform="translate(56.108 18.703)"/>
      <circle id="Ellipse_154" data-name="Ellipse 154" class="cls-12" cx="4.676" cy="4.676" r="4.676" transform="translate(56.108 93.513)"/>
      <path id="Path_849" data-name="Path 849" class="cls-11" d="M289.032,396.387h74.81v9.351h-74.81Z" transform="translate(-265.654 -340.279)"/>
      <path id="Path_850" data-name="Path 850" class="cls-13" d="M361.956,386.733a23.382,23.382,0,0,0-36.018-19.67c-6.46,4.16-8.92,11.415-8.92,19.67,0,12.911,8.649,21.893,21.56,21.893,8.265,0,15.529-2.8,19.686-9.278a23.273,23.273,0,0,0,3.692-12.615Z" transform="translate(-277.794 -325.949)"/>
      <path id="Path_851" data-name="Path 851" class="cls-14" d="M344.2,405.939A23.375,23.375,0,0,1,324.545,369.9a23.38,23.38,0,1,0,32.326,32.285,23.4,23.4,0,0,1-12.672,3.75Z" transform="translate(-276.401 -328.79)"/>
      <g id="Group_172" data-name="Group 172" transform="translate(18.702 52.017)">
        <path id="Path_852" data-name="Path 852" class="cls-12" d="M365.606,398.512a4.676,4.676,0,0,1-.041-9.351h.041a4.676,4.676,0,1,1,0,9.351Z" transform="translate(-315.538 -389.161)"/>
        <path id="Path_853" data-name="Path 853" class="cls-12" d="M351.493,419.674a4.676,4.676,0,0,1-.036-9.351h.037a4.676,4.676,0,1,1,0,9.351Z" transform="translate(-309.416 -398.341)"/>
        <path id="Path_854" data-name="Path 854" class="cls-12" d="M337.384,398.512a4.676,4.676,0,1,1-.041-9.351h.041a4.676,4.676,0,1,1,0,9.351Z" transform="translate(-303.294 -389.161)"/>
        <circle id="Ellipse_155" data-name="Ellipse 155" class="cls-12" cx="4.676" cy="4.676" r="4.676" transform="translate(0 4.091)"/>
        <circle id="Ellipse_156" data-name="Ellipse 156" class="cls-12" cx="4.676" cy="4.676" r="4.676" transform="translate(74.81 4.091)"/>
      </g>
      <path id="Path_855" data-name="Path 855" class="cls-10" d="M316.318,421.86a60.788,60.788,0,0,1-46.71-99.684,60.785,60.785,0,1,0,85.62,85.6A60.544,60.544,0,0,1,316.318,421.86Z" transform="translate(-247.742 -308.086)"/>
    </g>
  </g>
</svg>
