<svg xmlns="http://www.w3.org/2000/svg" xmlns:xlink="http://www.w3.org/1999/xlink" width="238" height="239.662" viewBox="0 0 238 239.662">
  <defs>
    <style>
      .cls-1 {
        fill: #a4ccff;
      }

      .cls-2 {
        fill: #65a9ff;
      }

      .cls-3 {
        fill: #324a5e;
      }

      .cls-4 {
        fill: #2b3b4e;
      }

      .cls-5 {
        fill: #ff6472;
      }

      .cls-6 {
        fill: #c75163;
      }

      .cls-7 {
        filter: url(#Ellipse_129);
      }
    </style>
    <filter id="Ellipse_129" x="0" y="0" width="238" height="239.662" filterUnits="userSpaceOnUse">
      <feOffset dx="3" dy="3" input="SourceAlpha"/>
      <feGaussianBlur stdDeviation="3" result="blur"/>
      <feFlood flood-opacity="0.502"/>
      <feComposite operator="in" in2="blur"/>
      <feComposite in="SourceGraphic"/>
    </filter>
  </defs>
  <g id="_031-home" data-name="031-home" transform="translate(6 6)">
    <g class="cls-7" transform="matrix(1, 0, 0, 1, -6, -6)">
      <ellipse id="Ellipse_129-2" data-name="Ellipse 129" class="cls-1" cx="110" cy="110.831" rx="110" ry="110.831" transform="translate(6 6)"/>
    </g>
    <path id="Path_595" data-name="Path 595" class="cls-2" d="M267.441,264.553,233.48,230.592l-114.308-10.2-32.116,10.2,57.039,57.039-36.121,9.823,49.264,49.264q1.511.04,3.031.042A110.978,110.978,0,0,0,267.441,264.553Z" transform="translate(-50.992 -124.883)"/>
    <path id="Path_596" data-name="Path 596" class="cls-3" d="M231.819,148.2,159.438,74.99,87.057,148.2h20.681v66.862h103.4V148.2Z" transform="translate(-49.331 -42.493)"/>
    <path id="Path_597" data-name="Path 597" class="cls-4" d="M256,74.992V215.065h52.294V148.2h20.918Z" transform="translate(-146.304 -42.494)"/>
    <path id="Path_598" data-name="Path 598" class="cls-5" d="M183.574,259.485a15.693,15.693,0,0,1,31.385,0,15.693,15.693,0,0,1,31.385,0c0,15-31.386,32.953-31.386,32.953S183.574,275.335,183.574,259.485Z" transform="translate(-104.854 -138.145)"/>
    <path id="Path_599" data-name="Path 599" class="cls-6" d="M287.387,259.485A15.693,15.693,0,0,0,256,259.48v32.958C256.013,292.431,287.387,274.487,287.387,259.485Z" transform="translate(-146.032 -138.145)"/>
  </g>
</svg>
