<svg xmlns="http://www.w3.org/2000/svg" width="167.742" height="260" viewBox="0 0 167.742 260">
  <defs>
    <style>
      .cls-1 {
        fill: #f6d190;
      }

      .cls-2 {
        fill: #edf4ff;
      }

      .cls-3 {
        fill: #a4ccff;
      }

      .cls-4 {
        fill: #fff;
      }

      .cls-5 {
        fill: #ecbd83;
      }

      .cls-6 {
        fill: #966a5b;
      }

      .cls-7 {
        fill: #ffe09f;
      }

      .cls-8 {
        fill: #fff5d7;
      }

      .cls-9 {
        fill: #c3ddff;
      }

      .cls-10 {
        fill: #faf5dc;
      }

      .cls-11 {
        fill: #f5ebcd;
      }

      .cls-12 {
        fill: #dbeaff;
      }
    </style>
  </defs>
  <g id="_038-doctor" data-name="038-doctor" transform="translate(-90.839)">
    <path id="Path_856" data-name="Path 856" class="cls-1" d="M257.162,292.54l-7.376-3.026a8.387,8.387,0,0,1-5.2-7.759V268.6H194.259v13.156a8.386,8.386,0,0,1-5.2,7.759l-7.376,3.026v15.79h75.484Z" transform="translate(-44.71 -132.201)"/>
    <path id="Path_857" data-name="Path 857" class="cls-2" d="M248.172,327.874l-17.467-7.165-24.6-10.091a41.806,41.806,0,0,1-62.79,0l-24.6,10.091-17.467,7.165a16.774,16.774,0,0,0-10.408,15.519v61.1a8.387,8.387,0,0,0,8.387,8.387h58.71l16.689-8.972,16.859,8.972h58.71a8.387,8.387,0,0,0,8.387-8.387v-61.1a16.774,16.774,0,0,0-10.408-15.519Z" transform="translate(0 -152.882)"/>
    <path id="Path_858" data-name="Path 858" class="cls-3" d="M220.445,404.5l36.683-91.708-5.288-2.169a41.806,41.806,0,0,1-62.79,0l-5.288,2.169Z" transform="translate(-45.736 -152.882)"/>
    <path id="Path_859" data-name="Path 859" class="cls-4" d="M161.484,471.1H136.323a4.193,4.193,0,0,1-4.194-4.194V450.129a4.193,4.193,0,0,1,4.194-4.193h25.161a4.193,4.193,0,0,1,4.194,4.193V466.9A4.193,4.193,0,0,1,161.484,471.1Z" transform="translate(-20.322 -219.484)"/>
    <path id="Path_860" data-name="Path 860" class="cls-5" d="M206.451,254.269a54.29,54.29,0,0,0,50.322,0V239.484H206.451v14.785Z" transform="translate(-56.903 -117.871)"/>
    <path id="Path_861" data-name="Path 861" class="cls-6" d="M323,116h20.493V95.033L323,90.839Z" transform="translate(-114.267 -44.71)"/>
    <path id="Path_862" data-name="Path 862" class="cls-6" d="M168.974,116H148.645V95.033l20.329-4.194Z" transform="translate(-28.451 -44.71)"/>
    <path id="Path_863" data-name="Path 863" class="cls-7" d="M279.968,111.807h-6.29l-8.387,6.028v-27h-67.1v41.936h81.774a10.484,10.484,0,0,0,0-20.968Z" transform="translate(-52.839 -44.71)"/>
    <path id="Path_864" data-name="Path 864" class="cls-1" d="M157.29,90.839v20.968H142.613a10.484,10.484,0,1,0,0,20.968h27.258V90.839Z" transform="translate(-20.322 -44.71)"/>
    <path id="Path_865" data-name="Path 865" class="cls-8" d="M252.194,140.645A4.191,4.191,0,0,1,248,136.452a4.194,4.194,0,1,0-8.387,0,4.194,4.194,0,0,1-8.387,0,12.581,12.581,0,0,1,25.161,0A4.191,4.191,0,0,1,252.194,140.645Z" transform="translate(-69.097 -60.968)"/>
    <path id="Path_866" data-name="Path 866" class="cls-9" d="M243.663,0H201.728a33.915,33.915,0,0,0-4.193.259l-9.2,23.608,9.2,26.456h79.677V33.548A33.548,33.548,0,0,0,243.663,0Z" transform="translate(-47.985 0)"/>
    <path id="Path_867" data-name="Path 867" class="cls-10" d="M254.122,132.129A16.774,16.774,0,0,1,237.347,148.9H195.412a16.774,16.774,0,0,1-16.774-16.774L175.5,151.567c0,25.4,14.62,46.047,40.015,46.512.291.006.574-.028.864-.028s.573.034.864.028c3.324-.061,6.553.652,9.656-.1,20.6-4.992,35.609-24.338,35.609-46.412V132.129Z" transform="translate(-41.67 -65.032)"/>
    <path id="Path_868" data-name="Path 868" class="cls-11" d="M186.13,151.568v-3.257a16.735,16.735,0,0,1-12.581-16.181h-8.387v19.438c0,25.4,19.871,47.186,45.265,47.651.292.006.574-.028.864-.028s.573.034.864.028a44.656,44.656,0,0,0,9.656-1.239C201.2,193,186.13,173.652,186.13,151.568Z" transform="translate(-36.581 -65.033)"/>
    <path id="Path_869" data-name="Path 869" class="cls-4" d="M198.452,153.226a16.791,16.791,0,0,1-16.774-16.774v-8.387a4.191,4.191,0,0,1,4.193-4.194h25.161a4.191,4.191,0,0,1,4.193,4.194v8.387A16.791,16.791,0,0,1,198.452,153.226Z" transform="translate(-44.71 -60.968)"/>
    <path id="Path_870" data-name="Path 870" class="cls-9" d="M198.194,140.387v4.194a8.387,8.387,0,1,0,16.774,0v-4.194Z" transform="translate(-52.839 -69.097)"/>
    <path id="Path_871" data-name="Path 871" class="cls-4" d="M281.032,153.226a16.791,16.791,0,0,1-16.774-16.774v-8.387a4.191,4.191,0,0,1,4.194-4.194h25.161a4.191,4.191,0,0,1,4.193,4.194v8.387A16.79,16.79,0,0,1,281.032,153.226Z" transform="translate(-85.355 -60.968)"/>
    <path id="Path_872" data-name="Path 872" class="cls-9" d="M280.774,140.387v4.194a8.387,8.387,0,1,0,16.774,0v-4.194Z" transform="translate(-93.484 -69.097)"/>
    <path id="Path_873" data-name="Path 873" class="cls-12" d="M255.4,308.847l-15.812-7.906a4.194,4.194,0,0,0-5.794,2.258l-27.98,73.447a4.193,4.193,0,0,1-7.838,0L170,303.2a4.193,4.193,0,0,0-5.794-2.258l-15.812,7.906a4.193,4.193,0,0,0-1.09,6.716l12.66,12.66-7.037,10.556a4.194,4.194,0,0,0-.262,4.2L185.12,407.9h33.549l32.46-64.92a4.194,4.194,0,0,0-.262-4.2l-7.037-10.556,12.66-12.66A4.193,4.193,0,0,0,255.4,308.847Z" transform="translate(-27.184 -147.901)"/>
    <path id="Path_874" data-name="Path 874" class="cls-3" d="M148.645,33.8V50.575H178V.512A33.563,33.563,0,0,0,148.645,33.8Z" transform="translate(-28.451 -0.252)"/>
  </g>
</svg>
