<svg xmlns="http://www.w3.org/2000/svg" width="80" height="68.75" viewBox="0 0 80 68.75">
  <defs>
    <style>
      .cls-1 {
        fill: #dad8db;
      }

      .cls-2 {
        fill: #fff;
      }

      .cls-3 {
        fill: #f6d190;
      }

      .cls-4 {
        fill: #ecbd83;
      }

      .cls-5 {
        fill: #ffe09f;
      }

      .cls-6 {
        fill: #966a5b;
      }

      .cls-7 {
        fill: #785353;
      }

      .cls-8 {
        fill: #6e4848;
      }

      .cls-9 {
        fill: #e2a975;
      }

      .cls-10 {
        fill: #9b959d;
      }

      .cls-11 {
        fill: #c8c5c9;
      }
    </style>
  </defs>
  <g id="_041-stayhome" data-name="041-stayhome" transform="translate(0 -36)">
    <path id="Path_875" data-name="Path 875" class="cls-1" d="M107.5,110.25H40V61.5L73.75,44,107.5,61.5Z" transform="translate(-33.75 -6.75)"/>
    <path id="Path_876" data-name="Path 876" class="cls-2" d="M100.177,81.153l-27.5,14.194A1.25,1.25,0,0,0,72,96.458V135.23a1.25,1.25,0,0,0,1.25,1.25H84.5l4.453-4.141h24.453L117,136.48h11.25a1.25,1.25,0,0,0,1.25-1.25V96.458a1.25,1.25,0,0,0-.677-1.111l-27.5-14.194A1.25,1.25,0,0,0,100.177,81.153Z" transform="translate(-60.75 -37.981)"/>
    <path id="Path_877" data-name="Path 877" class="cls-3" d="M181.081,339.456l-6.122-2.041a2.5,2.5,0,0,1-1.709-2.372V333.3h-10v1.745a2.5,2.5,0,0,1-1.709,2.372l-6.122,2.041A5,5,0,0,0,152,344.2v5.146h32.5V344.2a5,5,0,0,0-3.419-4.743Z" transform="translate(-128.25 -250.846)"/>
    <path id="Path_878" data-name="Path 878" class="cls-4" d="M229,313a12.447,12.447,0,0,0,5-1.047V308H224v3.953A12.446,12.446,0,0,0,229,313Z" transform="translate(-189 -229.5)"/>
    <path id="Path_879" data-name="Path 879" class="cls-5" d="M201,196v10c0,5.523,3.071,9.775,8.594,9.775a10.275,10.275,0,0,0,1.885.047A10,10,0,0,0,219.594,206V196Z" transform="translate(-169.594 -135)"/>
    <path id="Path_880" data-name="Path 880" class="cls-3" d="M195.75,206V196H192v10a10,10,0,0,0,10,10,10.136,10.136,0,0,0,1.885-.177A10.012,10.012,0,0,1,195.75,206Z" transform="translate(-162 -135)"/>
    <path id="Path_881" data-name="Path 881" class="cls-6" d="M220.5,156h-8.75a3.75,3.75,0,0,0-3.75,3.75l1.25,6.25a2.5,2.5,0,0,1,2.5-2.5h7.5a2.5,2.5,0,0,1,2.5,2.5,3.75,3.75,0,0,0,3.75,3.75,1.25,1.25,0,0,0,1.25-1.25v-6.25A6.25,6.25,0,0,0,220.5,156Z" transform="translate(-175.5 -101.25)"/>
    <path id="Path_882" data-name="Path 882" class="cls-7" d="M187.75,180a3.75,3.75,0,0,0-3.75,3.75v5a1.26,1.26,0,0,0,1.28,1.25,3.75,3.75,0,0,0,3.72-3.75v-5A1.25,1.25,0,0,0,187.75,180Z" transform="translate(-155.25 -121.5)"/>
    <path id="Path_883" data-name="Path 883" class="cls-8" d="M225.25,247.75A1.25,1.25,0,0,1,224,246.5v-1.25a1.25,1.25,0,1,1,2.5,0v1.25A1.25,1.25,0,0,1,225.25,247.75Z" transform="translate(-189 -175.5)"/>
    <path id="Path_884" data-name="Path 884" class="cls-8" d="M273.25,247.75A1.25,1.25,0,0,1,272,246.5v-1.25a1.25,1.25,0,0,1,2.5,0v1.25A1.25,1.25,0,0,1,273.25,247.75Z" transform="translate(-229.5 -175.5)"/>
    <g id="Group_174" data-name="Group 174" transform="translate(36.615 73.917)">
      <path id="Path_885" data-name="Path 885" class="cls-9" d="M237.72,282a4.294,4.294,0,0,1-3-1.183,1.25,1.25,0,0,1,1.733-1.8,1.974,1.974,0,0,0,2.537,0,1.25,1.25,0,0,1,1.733,1.8A4.292,4.292,0,0,1,237.72,282Z" transform="translate(-234.334 -278.669)"/>
    </g>
    <g id="Group_175" data-name="Group 175" transform="translate(0 36)">
      <path id="Path_886" data-name="Path 886" class="cls-10" d="M78.749,58.5a1.256,1.256,0,0,1-.572-.139L40,38.656,1.824,58.361A1.25,1.25,0,0,1,.676,56.139l38.75-20a1.252,1.252,0,0,1,1.147,0l38.75,20a1.25,1.25,0,0,1-.575,2.361Z" transform="translate(0 -36)"/>
    </g>
    <g id="Group_176" data-name="Group 176" transform="translate(2.5 102.25)">
      <path id="Path_887" data-name="Path 887" class="cls-10" d="M89.75,462.5H17.25a1.25,1.25,0,0,1,0-2.5h72.5a1.25,1.25,0,0,1,0,2.5Z" transform="translate(-16 -460)"/>
    </g>
    <path id="Path_888" data-name="Path 888" class="cls-11" d="M181.081,363.025l-5.378-1.793a8.732,8.732,0,0,1-14.906,0l-5.378,1.793A5,5,0,0,0,152,367.768v5.146h32.5v-5.146A5,5,0,0,0,181.081,363.025Z" transform="translate(-128.25 -274.415)"/>
  </g>
</svg>
