<svg xmlns="http://www.w3.org/2000/svg" width="179" height="264.24" viewBox="0 0 179 264.24">
  <defs>
    <style>
      .cls-1 {
        fill: #eceaec;
      }

      .cls-2 {
        fill: #dad8db;
      }

      .cls-3 {
        fill: #c8c5c9;
      }

      .cls-4 {
        fill: #ffe09f;
      }

      .cls-5 {
        fill: #b6b1b7;
      }

      .cls-6 {
        fill: #faf5dc;
      }

      .cls-7 {
        fill: #f5ebcd;
      }

      .cls-8 {
        fill: #c3ddff;
      }

      .cls-9 {
        fill: #a4ccff;
      }

      .cls-10 {
        fill: #f6d190;
      }
    </style>
  </defs>
  <g id="_049-epi" data-name="049-epi" transform="translate(-82.581 0)">
    <path id="Path_889" data-name="Path 889" class="cls-1" d="M248.468,178.338l-21.736-9.057-7.514.3-1.243-4.37a16.859,16.859,0,0,1-6.168-7.27,16.577,16.577,0,0,1,3.465-18.242,59.415,59.415,0,0,0,16.477-41.135V85.777l-3.284-7.953,3.284-9.094V61.891c0-30.22-21.84-56.511-51.143-60.779l-17.048.031a59.233,59.233,0,0,0-17.049,5.138l-24.489,30.9V98.564c0,15.8-.48,26.005,9.548,36.676,2.024,2.154,6.188,6.095,6.967,8.945,2.294,8.39-3.438,21.618-11.01,24.772l-10.1.324-21.736,9.057a21.309,21.309,0,0,0-13.113,19.67v58.246a8.524,8.524,0,0,0,8.524,8.524h72.453l8.911-5.032,8.137,5.032h72.453a8.524,8.524,0,0,0,8.524-8.524V198.009a21.308,21.308,0,0,0-13.113-19.671Z" transform="translate(0 -0.538)"/>
    <path id="Path_890" data-name="Path 890" class="cls-2" d="M174.484,114.066V11.131a59.711,59.711,0,0,0-34.1,53.923v8.524l4.058,8.965-4.058,8.083v12.786a59.4,59.4,0,0,0,16.193,40.779l-.014.04a18.168,18.168,0,0,1,4.518,7.494,16.669,16.669,0,0,1-6.834,18.391l-2.5,4.3a88.985,88.985,0,0,0,48.3,14.23V163.078c.036,0,.071-.005.107-.005A59.57,59.57,0,0,1,174.484,114.066Z" transform="translate(-27.973 -5.386)"/>
    <path id="Path_891" data-name="Path 891" class="cls-3" d="M157.17,396.389a8.524,8.524,0,0,0-8.524,8.524V417.7h17.048V404.913A8.523,8.523,0,0,0,157.17,396.389Z" transform="translate(-31.969 -191.816)"/>
    <path id="Path_892" data-name="Path 892" class="cls-4" d="M249.15,99.1H198.007L189,121.929l77.2-5.782A17.047,17.047,0,0,0,249.15,99.1Z" transform="translate(-51.497 -47.955)"/>
    <path id="Path_893" data-name="Path 893" class="cls-3" d="M330.323,132.131h21.309v17.048H330.323Z" transform="translate(-119.884 -63.939)"/>
    <path id="Path_894" data-name="Path 894" class="cls-5" d="M140.388,132.131H161.7v17.048H140.388Z" transform="translate(-27.973 -63.939)"/>
    <path id="Path_895" data-name="Path 895" class="cls-6" d="M193.99,165.163v12.786c0,16.788-.914,31.31,13.194,38.257a42.637,42.637,0,0,0,61.423-38.257V165.163Z" transform="translate(-53.906 -79.924)"/>
    <path id="Path_896" data-name="Path 896" class="cls-7" d="M173.42,165.163v12.786a42.636,42.636,0,0,0,23.816,38.257,59.424,59.424,0,0,1-6.768-27.6v-23.44Z" transform="translate(-43.958 -79.924)"/>
    <path id="Path_897" data-name="Path 897" class="cls-8" d="M128.134,454.993h34.1a4.262,4.262,0,0,0,4.262-4.262V433.684a4.262,4.262,0,0,0-4.262-4.262h-34.1a4.262,4.262,0,0,0-4.262,4.262v17.048A4.262,4.262,0,0,0,128.134,454.993Z" transform="translate(-19.981 -207.801)"/>
    <path id="Path_898" data-name="Path 898" class="cls-8" d="M262.656,149.179a12.786,12.786,0,0,1-12.786,12.786H232.823a4.262,4.262,0,0,1-4.262-4.262,8.524,8.524,0,1,0-17.048,0,4.262,4.262,0,0,1-4.262,4.262H194.466a12.786,12.786,0,0,1-12.786-12.786l12.786-17.048h68.191v17.048Z" transform="translate(-47.955 -63.939)"/>
    <path id="Path_899" data-name="Path 899" class="cls-9" d="M248.009,34.1a8.524,8.524,0,0,0,8.524-8.524v-25C254.68.3,252.8.158,250.893.069A60.286,60.286,0,0,0,239.485.6V25.572A8.523,8.523,0,0,0,248.009,34.1Z" transform="translate(-75.927 0)"/>
    <path id="Path_900" data-name="Path 900" class="cls-10" d="M173.42,116.147l17.048,3.8V99.1A17.047,17.047,0,0,0,173.42,116.147Z" transform="translate(-43.958 -47.955)"/>
    <path id="Path_901" data-name="Path 901" class="cls-9" d="M190.469,161.964h-4.262a12.786,12.786,0,0,1-12.786-12.786V132.131h17.048Z" transform="translate(-43.958 -63.939)"/>
    <path id="Path_902" data-name="Path 902" class="cls-8" d="M305.386,320.952a20.1,20.1,0,0,1-3.492-1.876A80.354,80.354,0,0,1,256,333.4v8.524a88.947,88.947,0,0,0,54.651-18.783Z" transform="translate(-83.919 -154.403)"/>
    <g id="Group_177" data-name="Group 177" transform="translate(117.431 157.692)">
      <path id="Path_903" data-name="Path 903" class="cls-9" d="M155.373,321.006a20.681,20.681,0,0,0,3.582-1.819,80.025,80.025,0,0,0,45.8,14.271v8.524A88.946,88.946,0,0,1,150.107,323.2Z" transform="translate(-150.107 -312.149)"/>
      <path id="Path_904" data-name="Path 904" class="cls-9" d="M248.009,305.55a8.524,8.524,0,0,0-8.524,8.524V412.1h17.048V314.074a8.524,8.524,0,0,0-8.524-8.524Z" transform="translate(-193.358 -305.55)"/>
    </g>
  </g>
</svg>
