<svg xmlns="http://www.w3.org/2000/svg" width="149.5" height="174.887" viewBox="0 0 149.5 174.887">
  <defs>
    <style>
      .cls-1 {
        fill: #ffcbbe;
      }

      .cls-2 {
        fill: #ffb39d;
      }

      .cls-3 {
        fill: #a4e7ff;
      }

      .cls-4 {
        fill: #ffddcf;
      }
    </style>
  </defs>
  <g id="_001-washing-hands" data-name="001-washing-hands" transform="translate(0 -0.001)">
    <path id="Path_242" data-name="Path 242" class="cls-1" d="M140.249,57.435a10.573,10.573,0,0,0-14.951,0l9.487-9.487A10.571,10.571,0,0,0,119.835,33l7.462-7.462a10.736,10.736,0,0,0,.446-14.852,10.571,10.571,0,0,0-15.218-.278l-7.641,7.643A10.572,10.572,0,0,0,89.934,3.1L59.839,33.191,46.9,46.137c-.431-3.308-1.311-10.254-1.332-10.406-1.3-9.28-13.937-11.014-17.668-2.42-7.608,17.524-11.308,37.247-6.559,55.313a14.7,14.7,0,0,1-3.9,14.091l-12.8,12.8a15.856,15.856,0,0,0,0,22.424L14.9,148.188a15.856,15.856,0,0,0,22.424,0l15.874-15.874a14.568,14.568,0,0,1,11.187-4.239,42.18,42.18,0,0,0,31.951-11.784l.006.006.526-.525L119.64,92.993l20.608-20.608A10.572,10.572,0,0,0,140.249,57.435Zm0,0"/>
    <path id="Path_243" data-name="Path 243" class="cls-2" d="M59.506,249.816,75.38,233.942A14.567,14.567,0,0,1,86.567,229.7a42.181,42.181,0,0,0,31.951-11.786l.006.007.526-.526,22.778-22.777,16.967-16.969c-22.39-17.874-50.449-31.041-71.085-9.5C54.168,203.173,59.446,225.249,34.27,247l2.811,2.813A15.858,15.858,0,0,0,59.506,249.816Zm0,0" transform="translate(-22.186 -105.388)"/>
    <path id="Path_244" data-name="Path 244" class="cls-3" d="M232.106,83.184a10.227,10.227,0,0,1-2.089-8.567,26.461,26.461,0,0,0-38.711-28.45,12.537,12.537,0,0,1-11.914-.015,27.182,27.182,0,0,0-33.977,7.186A12.271,12.271,0,0,1,134.608,57.9,30.016,30.016,0,0,0,101.73,90.072a13.958,13.958,0,0,1-4.659,11.271,23.266,23.266,0,0,0,15.739,40.4l97.169-27.406a19.783,19.783,0,0,0,22.128-31.156Zm0,0" transform="translate(-87.15 -27.755)"/>
    <path id="Path_245" data-name="Path 245" class="cls-4" d="M226.758,135.986a10.573,10.573,0,0,0-14.951,0l9.487-9.487a10.571,10.571,0,0,0-14.951-14.949l7.462-7.464a10.737,10.737,0,0,0,.448-14.852,10.574,10.574,0,0,0-15.218-.278L191.392,96.6a10.572,10.572,0,1,0-14.951-14.951l-30.093,30.095L133.4,124.688c-.43-3.308-1.31-10.254-1.332-10.406-1.3-9.28-13.937-11.014-17.668-2.419-7.607,17.522-11.306,37.246-6.559,55.313a14.7,14.7,0,0,1-3.894,14.09l-12.8,12.8a15.858,15.858,0,0,0,0,22.426l10.251,10.25a15.856,15.856,0,0,0,22.424,0L139.7,210.865a14.567,14.567,0,0,1,11.187-4.239,42.18,42.18,0,0,0,31.951-11.784l.006.006.526-.525,43.386-43.386A10.572,10.572,0,0,0,226.758,135.986Zm0,0" transform="translate(-85.188 -56.496)"/>
    <g id="Group_21" data-name="Group 21" transform="translate(72.038 40.886)">
      <path id="Path_246" data-name="Path 246" class="cls-1" d="M287.87,158.1a2.722,2.722,0,0,1,0-3.852l31.443-31.443a2.724,2.724,0,0,1,3.852,3.852L291.722,158.1A2.869,2.869,0,0,1,287.87,158.1Zm0,0" transform="translate(-287.071 -122.012)"/>
      <path id="Path_247" data-name="Path 247" class="cls-1" d="M330.27,202.641a2.727,2.727,0,0,1,0-3.854l30.281-30.279a2.725,2.725,0,0,1,3.854,3.852l-30.28,30.28A2.871,2.871,0,0,1,330.27,202.641Zm0,0" transform="translate(-314.522 -151.598)"/>
      <path id="Path_248" data-name="Path 248" class="cls-1" d="M372.671,260.323a2.722,2.722,0,0,1,0-3.852l21.956-21.956a2.724,2.724,0,1,1,3.852,3.852l-21.956,21.956A2.554,2.554,0,0,1,372.671,260.323Zm0,0" transform="translate(-341.972 -194.329)"/>
    </g>
  </g>
</svg>
