<svg id="cough的副本" xmlns="http://www.w3.org/2000/svg" width="132.201" height="151.791" viewBox="0 0 132.201 151.791">
  <defs>
    <style>
      .cls-1 {
        fill: #faa68e;
      }

      .cls-2 {
        fill: #e09380;
      }

      .cls-3 {
        fill: #ffbeaa;
      }

      .cls-4 {
        fill: #ffcdbe;
      }

      .cls-5 {
        fill: #555a66;
      }

      .cls-6 {
        fill: #333940;
      }

      .cls-7 {
        fill: #7584f2;
      }

      .cls-8 {
        fill: #606aea;
      }

      .cls-9 {
        fill: #fff;
      }

      .cls-10 {
        fill: #e9edf5;
      }
    </style>
  </defs>
  <g id="Group_124" data-name="Group 124" transform="translate(36.529 73.967)">
    <path id="Path_790" data-name="Path 790" class="cls-1" d="M195.805,319.638a34.541,34.541,0,0,0,30.471-17.826l-11.195-2.379a6.258,6.258,0,0,1-5.043-6.062V272.425H181.571v20.946a6.258,6.258,0,0,1-5.043,6.062l-11.195,2.379a34.541,34.541,0,0,0,30.471,17.826Z" transform="translate(-165.334 -272.425)"/>
  </g>
  <g id="Group_125" data-name="Group 125" transform="translate(67.041 73.968)">
    <path id="Path_791" data-name="Path 791" class="cls-2" d="M286.551,301.813l-11.194-2.379a6.258,6.258,0,0,1-5.043-6.062V272.426H256.12v47.213A34.541,34.541,0,0,0,286.551,301.813Z" transform="translate(-256.12 -272.426)"/>
  </g>
  <g id="Group_128" data-name="Group 128" transform="translate(24.673 43.343)">
    <g id="Group_126" data-name="Group 126">
      <ellipse id="Ellipse_146" data-name="Ellipse 146" class="cls-3" cx="11.77" cy="11.377" rx="11.77" ry="11.377"/>
    </g>
    <g id="Group_127" data-name="Group 127" transform="translate(61.114)">
      <ellipse id="Ellipse_147" data-name="Ellipse 147" class="cls-1" cx="11.77" cy="11.377" rx="11.77" ry="11.377"/>
    </g>
  </g>
  <g id="Group_129" data-name="Group 129" transform="translate(33.433 11.118)">
    <path id="Path_792" data-name="Path 792" class="cls-4" d="M191.031,158.921h-2.687c-17.8,0-32.225-13.945-32.225-31.147V110.1c0-17.2,14.427-31.147,32.225-31.147h2.687c17.8,0,32.225,13.945,32.225,31.147v17.679C223.256,144.977,208.828,158.921,191.031,158.921Z" transform="translate(-156.12 -78.949)"/>
  </g>
  <g id="Group_130" data-name="Group 130" transform="translate(67.041 11.118)">
    <path id="Path_793" data-name="Path 793" class="cls-3" d="M257.424,78.949h-1.3v79.972h1.3c17.8,0,32.225-13.945,32.225-31.147V110.1C289.648,92.894,275.221,78.949,257.424,78.949Z" transform="translate(-256.121 -78.949)"/>
  </g>
  <g id="Group_131" data-name="Group 131" transform="translate(29.116 0)">
    <path id="Path_794" data-name="Path 794" class="cls-5" d="M169.554,78.558s21.9,19.809,49.491,20.883v-20.8c0-18.731-16.961-33.915-37.885-33.915s-37.884,15.184-37.884,33.915v20.8a155.536,155.536,0,0,0,26.278-20.883Z" transform="translate(-143.276 -44.722)"/>
  </g>
  <g id="Group_132" data-name="Group 132" transform="translate(67.041 0.001)">
    <path id="Path_795" data-name="Path 795" class="cls-6" d="M293.965,78.638c0-18.719-16.94-33.895-37.844-33.914V86.97c9.036,5.54,22.566,11.878,37.844,12.473Z" transform="translate(-256.121 -44.724)"/>
  </g>
  <g id="Group_133" data-name="Group 133" transform="translate(14.442 101.863)">
    <path id="Path_796" data-name="Path 796" class="cls-7" d="M152.172,408.228a87.582,87.582,0,0,0,52.559-17.316l-1.586-17.336a13.312,13.312,0,0,0-10.634-11.688L175.623,358.3a25.521,25.521,0,0,1-46.9,0l-16.888,3.589A13.311,13.311,0,0,0,101.2,373.576l-1.586,17.336A87.58,87.58,0,0,0,152.172,408.228Z" transform="translate(-99.614 -358.299)"/>
  </g>
  <g id="Group_134" data-name="Group 134" transform="translate(67.041 101.863)">
    <path id="Path_797" data-name="Path 797" class="cls-8" d="M307.053,373.576a13.312,13.312,0,0,0-10.634-11.688L279.53,358.3a25.188,25.188,0,0,1-23.41,15.451v34.478a87.583,87.583,0,0,0,52.519-17.315Z" transform="translate(-256.12 -358.299)"/>
  </g>
  <g id="Group_135" data-name="Group 135" transform="translate(40.449 97.628)">
    <path id="Path_798" data-name="Path 798" class="cls-9" d="M203.548,369.181a28.656,28.656,0,0,1-16.034-4.845,27.33,27.33,0,0,1-10.168-12.42A4.822,4.822,0,0,1,180.2,345.6a5.1,5.1,0,0,1,6.534,2.755,18.3,18.3,0,0,0,33.633,0A5.1,5.1,0,0,1,226.9,345.6a4.821,4.821,0,0,1,2.851,6.316,27.33,27.33,0,0,1-10.168,12.42,28.652,28.652,0,0,1-16.033,4.845Z" transform="translate(-176.996 -345.262)"/>
  </g>
  <g id="Group_136" data-name="Group 136" transform="translate(67.041 97.628)">
    <path id="Path_799" data-name="Path 799" class="cls-10" d="M279.431,345.6a5.1,5.1,0,0,0-6.534,2.755,17.959,17.959,0,0,1-16.776,11.079v9.745a28.656,28.656,0,0,0,15.993-4.844,27.331,27.331,0,0,0,10.168-12.42A4.822,4.822,0,0,0,279.431,345.6Z" transform="translate(-256.12 -345.263)"/>
  </g>
  <g id="Group_137" data-name="Group 137" transform="translate(4.682 66.593)">
    <path id="Path_800" data-name="Path 800" class="cls-4" d="M101.605,275.166l-20.93-2.854a11.42,11.42,0,0,1-9.987-12.824,11.682,11.682,0,0,1,13.267-9.653l20.93,2.854Z" transform="translate(-70.572 -249.723)"/>
  </g>
  <g id="Group_138" data-name="Group 138" transform="translate(23.755 65.902)">
    <path id="Path_801" data-name="Path 801" class="cls-7" d="M206.452,325.931a86.455,86.455,0,0,0,22.041-14.112l6.28-28.437a19.232,19.232,0,0,0-1.836-13.428,22.2,22.2,0,0,0-16.923-11.247l-85.7-11.11-2.985,26.819,81.129,14.094Z" transform="translate(-127.326 -247.597)"/>
  </g>
  <g id="Group_139" data-name="Group 139" transform="translate(67.041 71.127)">
    <path id="Path_802" data-name="Path 802" class="cls-8" d="M318.445,280.813a22.2,22.2,0,0,0-16.923-11.247l-45.4-5.885V292.8l37.844,6.574-2,37.421A86.455,86.455,0,0,0,314,322.678l6.28-28.437A19.228,19.228,0,0,0,318.445,280.813Z" transform="translate(-256.12 -263.681)"/>
  </g>
  <g id="Group_140" data-name="Group 140" transform="translate(106.756 61.81)">
    <path id="Path_803" data-name="Path 803" class="cls-10" d="M394.694,244.745H379.332a4.875,4.875,0,1,1,0-9.745h15.362a4.875,4.875,0,1,1,0,9.745Z" transform="translate(-374.291 -235)"/>
  </g>
  <g id="Group_141" data-name="Group 141" transform="translate(112.011 43.696)">
    <path id="Path_804" data-name="Path 804" class="cls-10" d="M394.962,190.509a4.993,4.993,0,0,1-4.975-4.121,4.9,4.9,0,0,1,4.2-5.566L404.3,179.3a5.021,5.021,0,0,1,5.759,4.062,4.9,4.9,0,0,1-4.2,5.566l-10.106,1.526A5.23,5.23,0,0,1,394.962,190.509Z" transform="translate(-389.926 -179.236)"/>
  </g>
  <g id="Group_142" data-name="Group 142" transform="translate(0 47.757)">
    <path id="Path_805" data-name="Path 805" class="cls-9" d="M74.172,203.675a5.221,5.221,0,0,1-.906-.079l-12.482-2.19a4.888,4.888,0,0,1-4.06-5.665,5.031,5.031,0,0,1,5.861-3.924l12.482,2.19a4.888,4.888,0,0,1,4.06,5.665A5,5,0,0,1,74.172,203.675Z" transform="translate(-56.642 -191.738)"/>
  </g>
  <g id="Group_143" data-name="Group 143" transform="translate(7.884 29.026)">
    <path id="Path_806" data-name="Path 806" class="cls-9" d="M93.292,150.489a5.128,5.128,0,0,1-3.254-1.153l-8.151-6.667a4.761,4.761,0,0,1-.591-6.867,5.162,5.162,0,0,1,7.1-.572l8.151,6.667a4.761,4.761,0,0,1,.591,6.867A5.105,5.105,0,0,1,93.292,150.489Z" transform="translate(-80.101 -134.076)"/>
  </g>
</svg>
