<svg xmlns="http://www.w3.org/2000/svg" width="152" height="151" viewBox="0 0 152 151">
  <defs>
    <style>
      .cls-1 {
        fill: #dd636e;
      }

      .cls-2 {
        fill: #6ec17d;
      }

      .cls-3 {
        fill: #5ea55c;
      }

      .cls-4 {
        fill: #efb29a;
      }

      .cls-5 {
        fill: #f9c5ac;
      }

      .cls-6 {
        fill: #544f57;
      }

      .cls-7 {
        fill: #454545;
      }

      .cls-8 {
        fill: #dd9f8a;
      }

      .cls-9 {
        fill: #fff;
      }

      .cls-10 {
        fill: #f1f4f6;
      }
    </style>
  </defs>
  <g id="cough" transform="translate(-0.153 -0.651)">
    <ellipse id="Ellipse_95" data-name="Ellipse 95" class="cls-1" cx="76" cy="75.5" rx="76" ry="75.5" transform="translate(0.153 0.651)"/>
    <path id="Path_470" data-name="Path 470" class="cls-2" d="M197.909,432.191a75.992,75.992,0,0,1-62.947,9.918q-3.215-.915-6.315-2.108c-.127-.047-.255-.095-.382-.145-1.039-.4-2.067-.832-3.082-1.279a75.426,75.426,0,0,1-11.6-6.389,37.31,37.31,0,0,1,11.6-10.457,36.776,36.776,0,0,1,9.779-3.893q.8-.2,1.622-.352,1.541-.3,3.129-.465c.3-.033.607-.062.915-.086q1.5-.124,3.038-.124h24.156a37.83,37.83,0,0,1,3.953.207c1.057.11,2.1.267,3.129.462q.617.12,1.226.258c.133.036.269.062.4.1a36.843,36.843,0,0,1,9.779,3.9A37.344,37.344,0,0,1,197.909,432.191Z" transform="translate(-79.953 -293.342)"/>
    <path id="Path_471" data-name="Path 471" class="cls-3" d="M143.667,416.81c-8.693,0-14.584,12.562-15.02,23.191-.127-.047-.255-.095-.382-.145-1.039-.4-2.067-.832-3.082-1.279a75.426,75.426,0,0,1-11.6-6.389,37.31,37.31,0,0,1,11.6-10.457,36.776,36.776,0,0,1,9.779-3.893q.8-.2,1.622-.352,1.541-.3,3.129-.465c.3-.033.607-.062.915-.086Q142.13,416.81,143.667,416.81Z" transform="translate(-79.953 -293.342)"/>
    <path id="Path_472" data-name="Path 472" class="cls-4" d="M237.759,368.538v16.245a13.238,13.238,0,0,1-26.475,0V368.538h26.475Z" transform="translate(-148.729 -259.361)"/>
    <path id="Path_473" data-name="Path 473" class="cls-5" d="M256.631,419.932v1.029a13.236,13.236,0,0,1-9.323,12.644,13.232,13.232,0,0,1-9.215-10.92q1.327.081,2.667.081a45.745,45.745,0,0,0,15.87-2.834Z" transform="translate(-167.602 -295.539)"/>
    <path id="Path_474" data-name="Path 474" class="cls-5" d="M74.571,249.168a12.183,12.183,0,1,1-10.238-12.035A12.191,12.191,0,0,1,74.571,249.168Z" transform="translate(-35.33 -166.752)"/>
    <path id="Path_475" data-name="Path 475" class="cls-4" d="M104.352,249.541a12.191,12.191,0,0,1-10.238,12.034,45.569,45.569,0,0,1,0-24.068A12.192,12.192,0,0,1,104.352,249.541Z" transform="translate(-65.112 -167.125)"/>
    <circle id="Ellipse_96" data-name="Ellipse 96" class="cls-4" cx="4.357" cy="4.357" r="4.357" transform="translate(22.693 78.059)"/>
    <path id="Path_476" data-name="Path 476" class="cls-5" d="M379.449,249.168a12.183,12.183,0,1,0,10.238-12.035A12.191,12.191,0,0,0,379.449,249.168Z" transform="translate(-267.106 -166.752)"/>
    <path id="Path_477" data-name="Path 477" class="cls-4" d="M379.449,249.541a12.191,12.191,0,0,0,10.238,12.034,45.568,45.568,0,0,0,0-24.068A12.192,12.192,0,0,0,379.449,249.541Z" transform="translate(-267.106 -167.125)"/>
    <circle id="Ellipse_97" data-name="Ellipse 97" class="cls-4" cx="4.357" cy="4.357" r="4.357" transform="translate(120.177 78.059)"/>
    <path id="Path_478" data-name="Path 478" class="cls-5" d="M192.9,145.643a45.8,45.8,0,1,1-91.6,0V99.012h91.6v46.631Z" transform="translate(-71.304 -69.634)"/>
    <path id="Path_479" data-name="Path 479" class="cls-4" d="M155.163,190.732c-.237.041-.477.083-.716.121a45.828,45.828,0,0,1-53.153-45.213V99.01h16.151v46.631A45.81,45.81,0,0,0,155.163,190.732Z" transform="translate(-71.303 -69.632)"/>
    <path id="Path_480" data-name="Path 480" class="cls-4" d="M243.509,281.036H233.117a2.241,2.241,0,1,1,0-4.482h10.391a2.241,2.241,0,1,1,0,4.482Z" transform="translate(-162.521 -194.611)"/>
    <path id="Path_481" data-name="Path 481" class="cls-6" d="M178.305,52.659c-16.168,9.237-42.373,3.257-58.666-2.034-8.707-2.824-14.584-5.451-14.584-5.451-3.544,11.858-14.966,21.267-21.432,21.267,0,0-13.815-34.853-3.772-44.9s18.51,0,18.51,0c.7-10.031,5.96-14.38,13.249-15.529a.018.018,0,0,1,.012,0c.317-.05.637-.095.962-.133,14.629-1.714,36.63,8.441,46.9,11.718,0,0,0,0,.006,0a17.074,17.074,0,0,0,4.438.992c8.861,0,9.649-9.649,9.649-9.649s29.536,29.536,4.725,43.715Z" transform="translate(-53.634 -3.939)"/>
    <path id="Path_482" data-name="Path 482" class="cls-7" d="M119.639,51.409c-8.707-2.824-14.584-5.451-14.584-5.451-3.544,11.858-14.966,21.267-21.432,21.267,0,0-13.815-34.853-3.772-44.9s18.51,0,18.51,0c.7-10.031,5.96-14.38,13.249-15.529C103.358,9.192,107.133,42.615,119.639,51.409Z" transform="translate(-53.634 -4.723)"/>
    <path id="Path_483" data-name="Path 483" class="cls-4" d="M287.807,255.229a1.918,1.918,0,0,1-.933-.242c-8.627-4.792-9.256-12.476-9.279-12.8a1.924,1.924,0,0,1,3.839-.279c.022.264.59,5.982,7.309,9.715a1.925,1.925,0,0,1-.936,3.607Z" transform="translate(-195.405 -168.969)"/>
    <path id="Path_484" data-name="Path 484" class="cls-4" d="M195.312,255.247a1.925,1.925,0,0,1-.936-3.607c6.733-3.74,7.289-9.474,7.309-9.717a1.925,1.925,0,0,1,3.839.28c-.023.325-.652,8.008-9.278,12.8A1.92,1.92,0,0,1,195.312,255.247Z" transform="translate(-136.13 -168.987)"/>
    <path id="Path_485" data-name="Path 485" class="cls-7" d="M357.55,25.347a17.074,17.074,0,0,0,4.438.992c8.861,0,9.649-9.649,9.649-9.649C373.869,24.172,372.869,34.395,357.55,25.347Z" transform="translate(-251.691 -11.685)"/>
    <path id="Path_486" data-name="Path 486" class="cls-8" d="M166.486,237.959a1.925,1.925,0,0,1-.789-3.68l9.4-4.222-12.914-3.749a1.924,1.924,0,1,1,1.073-3.7L181.2,227.82a1.924,1.924,0,0,1,.252,3.6l-14.179,6.366A1.922,1.922,0,0,1,166.486,237.959Z" transform="translate(-113.191 -156.585)"/>
    <path id="Path_487" data-name="Path 487" class="cls-8" d="M293.694,237.958a1.916,1.916,0,0,1-.787-.169l-14.179-6.366a1.924,1.924,0,0,1,.252-3.6l17.941-5.209a1.924,1.924,0,1,1,1.073,3.7l-12.913,3.749,9.4,4.222a1.925,1.925,0,0,1-.79,3.681Z" transform="translate(-195.405 -156.584)"/>
    <path id="Path_488" data-name="Path 488" class="cls-8" d="M237.26,314.563c0,5.2-6.09,4.485-13.6,4.485s-13.6.711-13.6-4.485A7.442,7.442,0,0,1,212.2,309.5c2.419-2.608,6.647-4.337,11.461-4.337s9.045,1.729,11.461,4.337A7.432,7.432,0,0,1,237.26,314.563Z" transform="translate(-147.868 -214.748)"/>
    <g id="Group_55" data-name="Group 55" transform="translate(61.366 90.412)">
      <path id="Path_489" data-name="Path 489" class="cls-9" d="M240.2,309.5c-2.416,1.161-6.647.87-11.461.87s-9.045.29-11.461-.87c2.419-2.608,6.647-4.337,11.461-4.337S237.786,306.889,240.2,309.5Z" transform="translate(-214.316 -305.16)"/>
      <path id="Path_490" data-name="Path 490" class="cls-9" d="M208.9,354.883a1.629,1.629,0,0,1-1.57-2.062l4.63-16.784a1.628,1.628,0,1,1,3.139.866l-4.63,16.784A1.629,1.629,0,0,1,208.9,354.883Z" transform="translate(-207.269 -326.054)"/>
      <path id="Path_491" data-name="Path 491" class="cls-9" d="M284.281,354.882a1.629,1.629,0,0,1-1.569-1.2l-4.63-16.784a1.628,1.628,0,1,1,3.139-.866l4.63,16.784a1.63,1.63,0,0,1-1.571,2.062Z" transform="translate(-257.075 -326.053)"/>
      <path id="Path_492" data-name="Path 492" class="cls-9" d="M252.118,364.406a1.628,1.628,0,0,1-1.628-1.628V348.2a1.628,1.628,0,0,1,3.257,0v14.579A1.628,1.628,0,0,1,252.118,364.406Z" transform="translate(-237.694 -334.31)"/>
    </g>
    <path id="Path_493" data-name="Path 493" class="cls-10" d="M181.108,404.476a9.869,9.869,0,0,0,4.482-1.072,12.436,12.436,0,0,0,21.419,0,9.916,9.916,0,1,0-2.618-15.762,12.424,12.424,0,0,0-16.184,0,9.914,9.914,0,1,0-7.1,16.834Z" transform="translate(-120.508 -270.7)"/>
  </g>
</svg>
