<svg xmlns="http://www.w3.org/2000/svg" width="171.351" height="158.5" viewBox="0 0 171.351 158.5">
  <defs>
    <style>
      .cls-1 {
        fill: #a5c3dc;
      }

      .cls-2 {
        fill: #d7e6e6;
      }

      .cls-3 {
        fill: #d26e28;
      }

      .cls-4 {
        fill: #a55023;
      }

      .cls-5 {
        fill: #f04b37;
      }

      .cls-6 {
        fill: #ff6955;
      }

      .cls-7 {
        fill: #f0be8c;
      }

      .cls-8 {
        fill: #d7e6f0;
      }

      .cls-9 {
        fill: #aac3d7;
      }

      .cls-10 {
        fill: #91b945;
      }
    </style>
  </defs>
  <g id="dinner" transform="translate(-16 -34)">
    <g id="Group_31" data-name="Group 31" transform="translate(113.099 58.274)">
      <g id="Group_30" data-name="Group 30">
        <path id="Path_368" data-name="Path 368" class="cls-1" d="M316.559,113.423a8.532,8.532,0,0,0-3.689.834,8.568,8.568,0,1,0-13.792,2.369L288,127.7l11.423,11.423L310.5,128.049a8.568,8.568,0,1,0,6.058-14.626Z" transform="translate(-288 -102)"/>
      </g>
    </g>
    <g id="Group_32" data-name="Group 32" transform="translate(113.099 58.274)">
      <path id="Path_369" data-name="Path 369" class="cls-2" d="M313.7,110.568a8.568,8.568,0,1,0-14.626,6.058L288,127.7l5.712,5.712L308.824,118.3A8.569,8.569,0,0,0,313.7,110.568Z" transform="translate(-288 -102)"/>
    </g>
    <g id="Group_33" data-name="Group 33" transform="translate(33.135 83.977)">
      <path id="Path_370" data-name="Path 370" class="cls-3" d="M170.618,219.694v-2.856A42.838,42.838,0,0,0,127.781,174H106.838A42.838,42.838,0,0,0,64,216.838v14.279a28.558,28.558,0,0,0,28.558,28.559h85.675a22.847,22.847,0,0,0,22.847-22.847,5.711,5.711,0,0,0-5.712-5.712H182.042A11.423,11.423,0,0,1,170.618,219.694Z" transform="translate(-64 -174)"/>
    </g>
    <g id="Group_34" data-name="Group 34" transform="translate(33.135 125.231)">
      <path id="Path_371" data-name="Path 371" class="cls-4" d="M197.721,305.932a22.839,22.839,0,0,1-19.487,10.918H92.558a28.556,28.556,0,0,1-28.526-27.287c-.019.526-.032,1.053-.032,1.584v14.279a28.558,28.558,0,0,0,28.558,28.558h85.675a22.847,22.847,0,0,0,22.847-22.847A5.711,5.711,0,0,0,197.721,305.932Z" transform="translate(-64 -289.563)"/>
    </g>
    <g id="Group_37" data-name="Group 37" transform="translate(128.33 149.661)">
      <g id="Group_35" data-name="Group 35">
        <circle id="Ellipse_91" data-name="Ellipse 91" class="cls-5" cx="15.231" cy="15.231" r="15.231"/>
      </g>
      <g id="Group_36" data-name="Group 36" transform="translate(2.38 2.38)">
        <path id="Path_372" data-name="Path 372" class="cls-6" d="M338.761,378.946a1.428,1.428,0,0,1-1.428-1.428,12.866,12.866,0,0,1,12.851-12.851,1.428,1.428,0,1,1,0,2.856,10.007,10.007,0,0,0-10,10A1.428,1.428,0,0,1,338.761,378.946Z" transform="translate(-337.333 -364.667)"/>
      </g>
    </g>
    <g id="Group_40" data-name="Group 40" transform="translate(44.558 149.661)">
      <g id="Group_38" data-name="Group 38">
        <circle id="Ellipse_92" data-name="Ellipse 92" class="cls-5" cx="15.231" cy="15.231" r="15.231"/>
      </g>
      <g id="Group_39" data-name="Group 39" transform="translate(2.38 2.38)">
        <path id="Path_373" data-name="Path 373" class="cls-6" d="M104.095,378.946a1.428,1.428,0,0,1-1.428-1.428,12.866,12.866,0,0,1,12.851-12.851,1.428,1.428,0,0,1,0,2.856,10.007,10.007,0,0,0-10,10A1.428,1.428,0,0,1,104.095,378.946Z" transform="translate(-102.667 -364.667)"/>
      </g>
    </g>
    <g id="Group_41" data-name="Group 41" transform="translate(39.561 90.403)">
      <path id="Path_374" data-name="Path 374" class="cls-7" d="M84.856,231.268A2.856,2.856,0,0,1,82,228.412,36.453,36.453,0,0,1,118.412,192a2.856,2.856,0,1,1,0,5.712,30.735,30.735,0,0,0-30.7,30.7A2.856,2.856,0,0,1,84.856,231.268Z" transform="translate(-82 -192)"/>
    </g>
    <g id="Group_42" data-name="Group 42" transform="translate(16 169.652)">
      <path id="Path_375" data-name="Path 375" class="cls-8" d="M21.712,414H181.639a5.712,5.712,0,1,1,0,11.423H21.712a5.712,5.712,0,1,1,0-11.423Z" transform="translate(-16 -414)"/>
    </g>
    <g id="Group_43" data-name="Group 43" transform="translate(37.895 181.076)">
      <path id="Path_376" data-name="Path 376" class="cls-1" d="M77.333,446H204.894l-12.375,11.423H89.708Z" transform="translate(-77.333 -446)"/>
    </g>
    <g id="Group_44" data-name="Group 44" transform="translate(67.405 78.265)">
      <path id="Path_377" data-name="Path 377" class="cls-4" d="M222.815,175.662c.008-.2.013-.377.013-.528A17.135,17.135,0,0,0,205.694,158c-.151,0-.33,0-.527.013q-.805.025-1.591.122C193.559,159.158,160,166.582,160,197.981a22.847,22.847,0,0,0,22.847,22.847c31.4,0,38.823-33.559,39.847-43.575Q222.791,176.467,222.815,175.662Z" transform="translate(-160 -157.999)"/>
    </g>
    <g id="Group_45" data-name="Group 45" transform="translate(73.831 84.691)">
      <path id="Path_378" data-name="Path 378" class="cls-3" d="M180.856,212.412A2.856,2.856,0,0,1,178,209.556c0-11.059,5.035-19.75,14.964-25.835A58.861,58.861,0,0,1,215.8,176.1l.16-.018c.305-.037.642-.063.974-.073.012,0,.267-.01.323-.01h.022a2.856,2.856,0,0,1,.022,5.712l-.166.007c-.19.006-.35.018-.508.037l-.217.025a52.689,52.689,0,0,0-20.466,6.81c-8.347,5.116-12.236,11.778-12.236,20.965a2.856,2.856,0,0,1-2.856,2.856Z" transform="translate(-178 -176)"/>
    </g>
    <g id="Group_46" data-name="Group 46" transform="translate(77.897 34)">
      <path id="Path_379" data-name="Path 379" class="cls-9" d="M196.033,65.414A4.284,4.284,0,0,1,193,58.1a3.8,3.8,0,0,0,0-5.365,12.376,12.376,0,0,1,0-17.482,4.284,4.284,0,0,1,6.058,6.058,3.8,3.8,0,0,0,0,5.365,12.376,12.376,0,0,1,0,17.482A4.271,4.271,0,0,1,196.033,65.414Z" transform="translate(-189.389 -34)"/>
    </g>
    <g id="Group_47" data-name="Group 47" transform="translate(106.455 34)">
      <path id="Path_380" data-name="Path 380" class="cls-9" d="M276.033,65.414A4.284,4.284,0,0,1,273,58.1a3.8,3.8,0,0,0,0-5.365,12.376,12.376,0,0,1,0-17.482,4.284,4.284,0,0,1,6.058,6.058,3.8,3.8,0,0,0,0,5.365,12.376,12.376,0,0,1,0,17.482A4.271,4.271,0,0,1,276.033,65.414Z" transform="translate(-269.389 -34)"/>
    </g>
    <g id="Group_48" data-name="Group 48" transform="translate(49.338 34)">
      <path id="Path_381" data-name="Path 381" class="cls-9" d="M116.033,65.414A4.284,4.284,0,0,1,113,58.1a3.8,3.8,0,0,0,0-5.365,12.376,12.376,0,0,1,0-17.482,4.284,4.284,0,0,1,6.058,6.058,3.8,3.8,0,0,0,0,5.365,12.376,12.376,0,0,1,0,17.482A4.271,4.271,0,0,1,116.033,65.414Z" transform="translate(-109.389 -34)"/>
    </g>
    <g id="Group_49" data-name="Group 49" transform="translate(21.712 158.229)">
      <path id="Path_382" data-name="Path 382" class="cls-10" d="M186.216,382c-5.3,0-5.3,5.712-10.609,5.712S170.3,382,165,382s-5.3,5.712-10.608,5.712S149.084,382,143.78,382s-5.3,5.712-10.608,5.712S127.868,382,122.565,382s-5.3,5.712-10.607,5.712S106.655,382,101.352,382s-5.3,5.712-10.605,5.712S85.443,382,80.139,382s-5.3,5.712-10.607,5.712S64.229,382,58.926,382s-5.3,5.712-10.607,5.712S43.015,382,37.712,382A5.712,5.712,0,0,0,32,387.712v5.712H191.927v-5.712A5.712,5.712,0,0,0,186.216,382Z" transform="translate(-32 -382)"/>
    </g>
  </g>
</svg>
