<svg xmlns="http://www.w3.org/2000/svg" width="78.644" height="80" viewBox="0 0 78.644 80">
  <defs>
    <style>
      .cls-1 {
        fill: #655a56;
      }

      .cls-2 {
        fill: #f4edea;
      }

      .cls-3 {
        fill: #b8c2c2;
      }

      .cls-4 {
        fill: #d7baad;
      }

      .cls-5 {
        fill: #e8cbbf;
      }

      .cls-6 {
        fill: #ccc3ba;
      }

      .cls-7 {
        fill: #c9ab9f;
      }

      .cls-8 {
        fill: #aa7f5f;
      }

      .cls-9 {
        fill: #a7b2b1;
      }

      .cls-10 {
        fill: #776e6b;
      }
    </style>
  </defs>
  <g id="FLAT" transform="translate(-24 -24)">
    <rect id="Rectangle_38" data-name="Rectangle 38" class="cls-1" width="67.857" height="75.714" rx="32" transform="translate(29.714 24)"/>
    <path id="Path_706" data-name="Path 706" class="cls-2" d="M88,56h56.949v65.085H88Z" transform="translate(-53.153 -26.576)"/>
    <path id="Path_707" data-name="Path 707" class="cls-3" d="M155.414,252.851,141.83,248H130.983L117.4,252.851a8.136,8.136,0,0,0-5.4,7.662v7.826h12.2v12.2H148.61v-12.2h12.2v-7.826a8.136,8.136,0,0,0-5.4-7.662Z" transform="translate(-73.085 -186.034)"/>
    <path id="Path_708" data-name="Path 708" class="cls-4" d="M224,208v6.78l2.2,1.652a5.368,5.368,0,0,0,6.442,0l2.2-1.652V208Z" transform="translate(-166.102 -152.814)"/>
    <path id="Path_709" data-name="Path 709" class="cls-4" d="M307.734,144a3.046,3.046,0,0,1,.739,6l-3.117.779H304V144Z" transform="translate(-232.542 -99.661)"/>
    <path id="Path_710" data-name="Path 710" class="cls-5" d="M136,368h8.136v12.2H136Z" transform="translate(-93.017 -285.695)"/>
    <path id="Path_711" data-name="Path 711" class="cls-6" d="M384,80h2.712v2.712H384Z" transform="translate(-298.983 -46.508)"/>
    <path id="Path_712" data-name="Path 712" class="cls-6" d="M352,80h2.712v2.712H352Z" transform="translate(-272.407 -46.508)"/>
    <path id="Path_713" data-name="Path 713" class="cls-6" d="M122.712,104A2.712,2.712,0,0,0,120,106.712v5.424a2.712,2.712,0,0,0,2.712,2.712h1.356l4.068,4.068v-4.068h5.424a2.712,2.712,0,0,0,2.712-2.712v-5.424A2.712,2.712,0,0,0,133.559,104Z" transform="translate(-79.729 -66.441)"/>
    <path id="Path_714" data-name="Path 714" class="cls-2" d="M144,128h5.424v2.712H144Z" transform="translate(-99.661 -86.373)"/>
    <path id="Path_715" data-name="Path 715" class="cls-4" d="M171.046,144a3.046,3.046,0,0,0-.739,6l3.117.779h1.356V144Z" transform="translate(-119.593 -99.661)"/>
    <path id="Path_716" data-name="Path 716" class="cls-5" d="M218.983,88v13.559a9.492,9.492,0,0,1-9.492,9.492h0A9.492,9.492,0,0,1,200,101.559V94.78A6.78,6.78,0,0,1,206.78,88Z" transform="translate(-146.169 -53.153)"/>
    <path id="Path_717" data-name="Path 717" class="cls-1" d="M232,152h2.712v2.712H232Z" transform="translate(-172.746 -106.305)"/>
    <path id="Path_718" data-name="Path 718" class="cls-1" d="M264,152h2.712v2.712H264Z" transform="translate(-199.322 -106.305)"/>
    <path id="Path_719" data-name="Path 719" class="cls-7" d="M240,184h5.424v2.712H240Z" transform="translate(-179.39 -132.881)"/>
    <path id="Path_720" data-name="Path 720" class="cls-8" d="M200,94.78h18.983V88h-12.2A6.78,6.78,0,0,0,200,94.78Z" transform="translate(-146.169 -53.153)"/>
    <g id="Group_97" data-name="Group 97" transform="translate(24 44.339)">
      <path id="Path_721" data-name="Path 721" class="cls-5" d="M328,368h8.136v12.2H328Z" transform="translate(-276.475 -330.034)"/>
      <path id="Path_722" data-name="Path 722" class="cls-5" d="M363.835,157.559a3.835,3.835,0,0,1,2.712,1.123l5.095,5.095a2.712,2.712,0,0,0,4.629-1.918V144l3.254,2.441a5.424,5.424,0,0,1,2.169,4.339v52.881H370.847V191.225a9.259,9.259,0,0,0-2.712-6.547h0a9.259,9.259,0,0,1-2.712-6.547v-8.6a2.712,2.712,0,0,0-.794-1.918l-3.506-3.506a3.835,3.835,0,0,1,2.712-6.547Z" transform="translate(-303.05 -144)"/>
      <path id="Path_723" data-name="Path 723" class="cls-5" d="M41.86,157.559a3.835,3.835,0,0,0-2.712,1.123l-5.095,5.095a2.712,2.712,0,0,1-4.629-1.918V144l-3.254,2.441A5.424,5.424,0,0,0,24,150.78v52.881H34.847V191.225a9.259,9.259,0,0,1,2.712-6.547h0a9.259,9.259,0,0,0,2.712-6.547v-8.6a2.712,2.712,0,0,1,.794-1.918l3.506-3.506a3.835,3.835,0,0,0-2.712-6.547Z" transform="translate(-24 -144)"/>
    </g>
    <path id="Path_724" data-name="Path 724" class="cls-9" d="M176,328h2.712v6.78H176Z" transform="translate(-126.237 -252.475)"/>
    <path id="Path_725" data-name="Path 725" class="cls-9" d="M320,328h2.712v6.78H320Z" transform="translate(-245.831 -252.475)"/>
    <path id="Path_726" data-name="Path 726" class="cls-2" d="M248,304h18.983v23.051H248Z" transform="translate(-186.034 -232.542)"/>
    <path id="Path_727" data-name="Path 727" class="cls-10" d="M269.915,379.778a2.712,2.712,0,0,0-1.36-1.568L264.136,376l-4.419,2.21a2.712,2.712,0,0,0-1.36,1.568L256,386.847h16.271Z" transform="translate(-192.678 -292.339)"/>
    <path id="Path_728" data-name="Path 728" class="cls-10" d="M293.424,339.748v-1.036a2.712,2.712,0,1,0-5.424,0v1.036a2.712,2.712,0,0,0,1.5,2.426l1.213.606,1.213-.606a2.712,2.712,0,0,0,1.5-2.426Z" transform="translate(-219.254 -259.119)"/>
  </g>
</svg>
