<svg xmlns="http://www.w3.org/2000/svg" width="116.5" height="116.5" viewBox="0 0 116.5 116.5">
  <defs>
    <style>
      .cls-1 {
        fill: #fec093;
      }

      .cls-2 {
        fill: #b03b8d;
      }

      .cls-3 {
        fill: #a33484;
      }

      .cls-4 {
        fill: #feb784;
      }

      .cls-5 {
        fill: #bc4598;
      }

      .cls-6 {
        fill: #f7b488;
      }

      .cls-7 {
        fill: #c378cb;
      }

      .cls-8 {
        fill: #61311c;
      }

      .cls-9 {
        fill: #6e3c26;
      }

      .cls-10 {
        fill: #f5a76e;
      }
    </style>
  </defs>
  <g id="Flat" transform="translate(-24 -24)">
    <path id="Path_688" data-name="Path 688" class="cls-1" d="M140.5,280a7.34,7.34,0,0,1-7.331,7.331c-.276,0-.552-.025-.8-.05l-46.1-5.1H78.233L32.16,287.3c-.276.025-.552.05-.829.05a7.347,7.347,0,0,1-1.607-14.512L68.19,264.1l1.331-4.017,2.687-8.034L70.2,240H94.3l-2.009,12.052,2.687,8.034L96.31,264.1l38.465,8.737A7.35,7.35,0,0,1,140.5,280Z" transform="translate(0 -161.767)"/>
    <path id="Path_689" data-name="Path 689" class="cls-2" d="M140.5,339.91a7.34,7.34,0,0,1-7.331,7.331c-.276,0-.552-.025-.8-.05l-43.487-4.821-2.611-.276H78.233l-2.636.3L32.16,347.217c-.276.025-.552.05-.829.05a7.347,7.347,0,0,1-1.607-14.512l38.465-8.737L69.52,320H94.955l1.331,4.017,38.465,8.737a7.347,7.347,0,0,1,5.75,7.156Z" transform="translate(0 -221.681)"/>
    <path id="Path_690" data-name="Path 690" class="cls-3" d="M222.933,388.322h-2.687l-2.636.3-3.415-3.49a2.006,2.006,0,0,1,2.862-2.812Z" transform="translate(-142.014 -267.908)"/>
    <path id="Path_691" data-name="Path 691" class="cls-3" d="M269.813,385.133l-3.44,3.465-2.611-.276H261l5.951-6a2.006,2.006,0,1,1,2.862,2.812Z" transform="translate(-177.495 -267.908)"/>
    <path id="Path_692" data-name="Path 692" class="cls-4" d="M314.25,377.344a8.206,8.206,0,0,1-7.532,8.185l-21.768,1.808-18.906,1.582L262.93,396.7a3.593,3.593,0,0,1-6.93-1.331v-16.5h10.043l16.973-4.243,21.04-5.273a8.228,8.228,0,0,1,9.968,5.976A9.125,9.125,0,0,1,314.25,377.344Z" transform="translate(-173.75 -258.461)"/>
    <path id="Path_693" data-name="Path 693" class="cls-5" d="M394.759,377.344a8.206,8.206,0,0,1-7.532,8.185l-21.768,1.808-1.958-12.7,21.04-5.273a8.228,8.228,0,0,1,9.968,5.976A7.864,7.864,0,0,1,394.759,377.344Z" transform="translate(-254.259 -258.461)"/>
    <path id="Path_694" data-name="Path 694" class="cls-4" d="M24,377.419a8.206,8.206,0,0,0,7.532,8.185L53.3,387.411l18.906,1.582,3.113,7.783a3.593,3.593,0,0,0,6.93-1.331v-16.5H72.207l-16.973-4.243-21.04-5.248a8.228,8.228,0,0,0-9.968,5.976A8.739,8.739,0,0,0,24,377.419Z" transform="translate(0 -258.536)"/>
    <path id="Path_695" data-name="Path 695" class="cls-5" d="M24,377.419a8.206,8.206,0,0,0,7.532,8.185L53.3,387.411l1.958-12.7-21.04-5.248a8.228,8.228,0,0,0-9.968,5.976A7.539,7.539,0,0,0,24,377.419Z" transform="translate(0 -258.536)"/>
    <path id="Path_696" data-name="Path 696" class="cls-1" d="M208.207,130.078V156.19L206.2,186.319l-2.009,16.069H194.147l4.017-16.069V134.095l-4.017,14.06H174.06l-4.017-14.06v52.224l4.017,16.069H164.017l-2.009-16.069L160,156.19V130.078a6.011,6.011,0,0,1,6.026-6.026h11.047a2.015,2.015,0,0,0,2.009-2.009V112h10.043v10.043a2.015,2.015,0,0,0,2.009,2.009h11.047A6.011,6.011,0,0,1,208.207,130.078Z" transform="translate(-101.853 -65.905)"/>
    <path id="Path_697" data-name="Path 697" class="cls-6" d="M246.043,112v6.177a7.7,7.7,0,0,1-10.043,0V112Z" transform="translate(-158.772 -65.905)"/>
    <path id="Path_698" data-name="Path 698" class="cls-7" d="M224.853,170.9,222.643,160h-2.009l-2.159,4.319a6.627,6.627,0,0,1-4.8,3.616,6.519,6.519,0,0,1-6.9-3.515L204.566,160h-2.009l-2.209,10.9-1.029,1.607a8.1,8.1,0,0,0,2.511,11.2c.226.151.477.276.7.4h20.086a8.139,8.139,0,0,0,3.641-10.9,6.384,6.384,0,0,0-.4-.7Z" transform="translate(-130.35 -101.853)"/>
    <path id="Path_699" data-name="Path 699" class="cls-8" d="M272,32v8.034h6.026v8.034A8.026,8.026,0,0,0,286.06,56.1V40.034A8.026,8.026,0,0,0,278.026,32Z" transform="translate(-185.733 -5.991)"/>
    <path id="Path_700" data-name="Path 700" class="cls-4" d="M211.013,78.026h3.013V72h-3.013a3.013,3.013,0,0,0,0,6.026Z" transform="translate(-137.802 -35.948)"/>
    <path id="Path_701" data-name="Path 701" class="cls-4" d="M283.013,72H280v6.026h3.013a3.013,3.013,0,1,0,0-6.026Z" transform="translate(-191.724 -35.948)"/>
    <path id="Path_702" data-name="Path 702" class="cls-1" d="M232.034,62.095a7.708,7.708,0,0,1-7.482-5.85l-.251-.954A10.517,10.517,0,0,1,224,52.8v-4.77a8.034,8.034,0,1,1,16.069,0V52.8a10.21,10.21,0,0,1-.3,2.486l-.251.954a7.708,7.708,0,0,1-7.482,5.85Z" transform="translate(-149.785 -11.983)"/>
    <path id="Path_703" data-name="Path 703" class="cls-9" d="M228.052,30.026s2.009,4.017,7.482,9.34a25.206,25.206,0,0,0,.552-5.323,10.043,10.043,0,0,0-20.086,0,25.509,25.509,0,0,0,.2,3.088C219.289,36,223.683,35.524,228.052,30.026Z" transform="translate(-143.793)"/>
    <path id="Path_704" data-name="Path 704" class="cls-6" d="M248,288h4.017v8.034H248Z" transform="translate(-167.759 -197.716)"/>
    <path id="Path_705" data-name="Path 705" class="cls-10" d="M248,408h4.017v14.06a2.009,2.009,0,0,1-4.017,0Z" transform="translate(-167.759 -287.586)"/>
  </g>
</svg>
