<svg xmlns="http://www.w3.org/2000/svg" xmlns:xlink="http://www.w3.org/1999/xlink" width="134" height="134" viewBox="0 0 134 134">
  <defs>
    <style>
      .cls-1 {
        fill: #fff;
        stroke: rgba(112,112,112,0);
      }

      .cls-2 {
        clip-path: url(#clip-path);
      }

      .cls-3 {
        fill: #b8f9ff;
      }

      .cls-4 {
        fill: #84eaf5;
      }

      .cls-5 {
        fill: #faded2;
      }

      .cls-6 {
        fill: #fad7c8;
      }

      .cls-7 {
        fill: #86919e;
      }

      .cls-8 {
        fill: #fce49d;
      }

      .cls-9 {
        fill: #e6e9ed;
      }

      .cls-10 {
        fill: #cdcdcd;
      }

      .cls-11 {
        fill: #f0a8d0;
      }

      .cls-12 {
        fill: #ea89bf;
      }

      .cls-13 {
        fill: #edeff2;
      }

      .cls-14 {
        fill: #feda5f;
      }

      .cls-15 {
        fill: #f4c84e;
      }

      .cls-16 {
        fill: #fac2aa;
      }
    </style>
    <clipPath id="clip-path">
      <circle id="Ellipse_139" data-name="Ellipse 139" class="cls-1" cx="67" cy="67" r="67" transform="translate(436 867)"/>
    </clipPath>
  </defs>
  <g id="Group_94" data-name="Group 94" transform="translate(-436 -867)">
    <g id="Mask_Group_23" data-name="Mask Group 23" class="cls-2">
      <g id="_008-creativity" data-name="008-creativity" transform="translate(458.667 867)">
        <path id="Path_639" data-name="Path 639" class="cls-3" d="M76.68,67.175l11.027-22.3a4.628,4.628,0,0,0-2.129-6.2l-8.852-4.318a4.643,4.643,0,0,0-6.2,2.131L55.215,67.705Zm0,0"/>
        <path id="Path_640" data-name="Path 640" class="cls-4" d="M71.251,55.111a1.987,1.987,0,0,0,.909,2.659l7.379,3.62L81.3,57.828,73.91,54.2A1.986,1.986,0,0,0,71.251,55.111Zm0,0"/>
        <path id="Path_641" data-name="Path 641" class="cls-4" d="M80.876,45.482a1.987,1.987,0,0,0-1.753,3.567l5.245,2.577,1.761-3.564Zm0,0"/>
        <path id="Path_642" data-name="Path 642" class="cls-5" d="M16.484,115.271V134H47.755V123.2h7.086A28.009,28.009,0,0,0,82.85,95.192v-.338H84.6a4.154,4.154,0,0,0,3.446-6.329,44.3,44.3,0,0,1-6.776-23.143H16.484Zm0,0"/>
        <path id="Path_643" data-name="Path 643" class="cls-6" d="M88.052,88.525a44.293,44.293,0,0,1-6.776-23.143H69.616c0,11.031,1.574,29.471,1.574,29.471v.338A28.009,28.009,0,0,1,43.182,123.2H36.1V134H47.755V123.2h7.086A28.009,28.009,0,0,0,82.85,95.192v-.338H84.6A4.155,4.155,0,0,0,88.052,88.525Zm0,0"/>
        <path id="Path_644" data-name="Path 644" class="cls-7" d="M70.714,82.787A1.987,1.987,0,0,1,68.727,80.8a3.312,3.312,0,1,0-6.624,0,1.987,1.987,0,0,1-3.975,0,7.287,7.287,0,1,1,14.573,0A1.987,1.987,0,0,1,70.714,82.787Zm0,0"/>
        <g id="Group_92" data-name="Group 92">
          <path id="Path_645" data-name="Path 645" class="cls-8" d="M18.015,13.853H15.954V11.792a1.987,1.987,0,0,0-3.975,0v2.061H9.918a1.987,1.987,0,0,0,0,3.975h2.061v2.061a1.987,1.987,0,0,0,3.975,0V17.828h2.061a1.987,1.987,0,1,0,0-3.975Zm0,0"/>
          <path id="Path_646" data-name="Path 646" class="cls-8" d="M69.79,4.048H67.729V1.987a1.987,1.987,0,0,0-3.975,0V4.048H61.693a1.987,1.987,0,0,0,0,3.975h2.061v2.06a1.987,1.987,0,1,0,3.975,0V8.023H69.79a1.987,1.987,0,0,0,0-3.975Zm0,0"/>
          <path id="Path_647" data-name="Path 647" class="cls-8" d="M83.569,18.888H81.508V16.827a1.987,1.987,0,0,0-3.975,0v2.061h-2.06a1.987,1.987,0,0,0,0,3.975h2.06v2.061a1.987,1.987,0,1,0,3.975,0V22.863h2.061a1.987,1.987,0,0,0,0-3.975Zm0,0"/>
        </g>
        <path id="Path_648" data-name="Path 648" class="cls-9" d="M53.545,36.3,53.6,21.128c.038-7.006-3.486-13.78-9.958-19.14C37.109,7.379,33.51,14.171,33.471,21.177L33.42,36.3l2.053,4.8a9.972,9.972,0,0,0,7.93,3.859,10.147,10.147,0,0,0,7.963-3.886Zm0,0"/>
        <path id="Path_649" data-name="Path 649" class="cls-10" d="M43.639,1.987a33,33,0,0,0-4.387,4.348,23.046,23.046,0,0,1,5.6,14.792L44.8,36.3l-2.179,4.77a10.2,10.2,0,0,1-3.608,2.89,10,10,0,0,0,4.39,1,10.151,10.151,0,0,0,7.963-3.886l2.179-4.77L53.6,21.127C53.634,14.122,50.11,7.348,43.639,1.987Zm0,0"/>
        <path id="Path_650" data-name="Path 650" class="cls-11" d="M43.639,1.987c-5.808,4.795-9.294,10.7-10.022,16.874l19.861-.031C52.822,12.652,49.4,6.759,43.639,1.987Zm0,0"/>
        <path id="Path_651" data-name="Path 651" class="cls-12" d="M43.639,1.987a32.946,32.946,0,0,0-4.387,4.349A23.636,23.636,0,0,1,44.733,18.83l-11.115.017a.07.07,0,0,1,0,.013l19.861-.031C52.822,12.652,49.4,6.759,43.639,1.987Zm0,0"/>
        <path id="Path_652" data-name="Path 652" class="cls-11" d="M38.053,35.176c-.011,2.09-8.393,12.417-8.393,12.417s.055-10.146.067-12.4a4.16,4.16,0,0,1,4.185-4.087A4.082,4.082,0,0,1,38.053,35.176Zm0,0"/>
        <path id="Path_653" data-name="Path 653" class="cls-11" d="M48.86,35.149c-.011,2.09,8.258,12.376,8.258,12.376s.056-10.145.068-12.4a4.083,4.083,0,0,0-4.141-4.067A4.162,4.162,0,0,0,48.86,35.149Zm0,0"/>
        <path id="Path_654" data-name="Path 654" class="cls-13" d="M39.84,69.427a1.987,1.987,0,0,1-1.987-1.987V51.275a1.987,1.987,0,0,1,3.975,0V67.44A1.988,1.988,0,0,1,39.84,69.427Zm0,0"/>
        <path id="Path_655" data-name="Path 655" class="cls-13" d="M47.26,69.427a1.987,1.987,0,0,1-1.987-1.987V51.275a1.987,1.987,0,0,1,3.975,0V67.44A1.988,1.988,0,0,1,47.26,69.427Zm0,0"/>
        <path id="Path_656" data-name="Path 656" class="cls-8" d="M21.906,47.192,6.69,34.407,2.557,54.187l11.319.8Zm0,0"/>
        <path id="Path_657" data-name="Path 657" class="cls-14" d="M28.451,66.645,21.906,47.192l-8.246,7.723-11.1-.728,4.43,12.988Zm0,0"/>
        <path id="Path_658" data-name="Path 658" class="cls-7" d="M6.69,34.407,5.421,40.48l6.037-2.065Zm0,0"/>
        <path id="Path_659" data-name="Path 659" class="cls-15" d="M21.906,47.192l-8.246,7.723-.073-.005,4,12,10.863-.268Zm0,0"/>
        <path id="Path_660" data-name="Path 660" class="cls-7" d="M33.674,97.313a9.142,9.142,0,0,1,0-18.284,10.39,10.39,0,0,1,7.817,4.309s8.48-5.369,8.48-17.956H1.742s-9.275,35.181,14.972,49.95a34.1,34.1,0,0,0,17.092-18.02"/>
        <path id="Path_661" data-name="Path 661" class="cls-16" d="M33.144,90.053c2.557,0,2.561-3.975,0-3.975S30.582,90.053,33.144,90.053Zm0,0"/>
      </g>
    </g>
  </g>
</svg>
