<svg xmlns="http://www.w3.org/2000/svg" xmlns:xlink="http://www.w3.org/1999/xlink" width="198" height="198" viewBox="0 0 198 198">
  <defs>
    <style>
      .cls-1, .cls-4 {
        fill: #a4ccff;
      }

      .cls-1 {
        stroke: rgba(112,112,112,0);
      }

      .cls-2 {
        fill: #fff7d8;
      }

      .cls-3 {
        clip-path: url(#clip-path);
      }

      .cls-5, .cls-6 {
        stroke: none;
      }

      .cls-6 {
        fill: rgba(112,112,112,0);
      }

      .cls-7 {
        filter: url(#Path_1107);
      }
    </style>
    <filter id="Path_1107" x="0" y="0" width="198" height="198" filterUnits="userSpaceOnUse">
      <feOffset dy="3" input="SourceAlpha"/>
      <feGaussianBlur stdDeviation="3" result="blur"/>
      <feFlood flood-opacity="0.161"/>
      <feComposite operator="in" in2="blur"/>
      <feComposite in="SourceGraphic"/>
    </filter>
    <clipPath id="clip-path">
      <ellipse id="Ellipse_41" data-name="Ellipse 41" class="cls-1" cx="74" cy="54.5" rx="74" ry="54.5" transform="translate(0 0.5)"/>
    </clipPath>
  </defs>
  <g id="Group_219" data-name="Group 219" transform="translate(-191 -954)">
    <g class="cls-7" transform="matrix(1, 0, 0, 1, 191, 954)">
      <g id="Path_1107-2" data-name="Path 1107" class="cls-2" transform="translate(9 6)">
        <path class="cls-5" d="M90,0A90,90,0,1,1,0,90,90,90,0,0,1,90,0Z"/>
        <path class="cls-6" d="M 90 1 C 83.9608154296875 1 77.92570495605469 1.608367919921875 72.06233978271484 2.808181762695313 C 66.34848022460938 3.977401733398438 60.72815704345703 5.7220458984375 55.35747528076172 7.99365234375 C 50.08409118652344 10.22412109375 44.99781799316406 12.98486328125 40.23995971679688 16.19920349121094 C 35.52702331542969 19.3831787109375 31.09518432617188 23.03982543945313 27.0675048828125 27.0675048828125 C 23.03982543945313 31.09518432617188 19.3831787109375 35.52702331542969 16.19920349121094 40.23995971679688 C 12.98486328125 44.99781799316406 10.22412109375 50.08409118652344 7.99365234375 55.35747528076172 C 5.7220458984375 60.72815704345703 3.977401733398438 66.34848022460938 2.808181762695313 72.06233978271484 C 1.608367919921875 77.92570495605469 1 83.9608154296875 1 90 C 1 96.0391845703125 1.608367919921875 102.0742950439453 2.808181762695313 107.9376602172852 C 3.977401733398438 113.651496887207 5.7220458984375 119.2718200683594 7.99365234375 124.6425018310547 C 10.22412109375 129.9159088134766 12.98486328125 135.0021820068359 16.19920349121094 139.7600402832031 C 19.3831787109375 144.4729614257813 23.03982543945313 148.9048156738281 27.0675048828125 152.9324951171875 C 31.09518432617188 156.9601745605469 35.52702331542969 160.6167907714844 40.23995971679688 163.8007965087891 C 44.99781799316406 167.01513671875 50.08409118652344 169.77587890625 55.35747528076172 172.00634765625 C 60.72815704345703 174.2779541015625 66.34848022460938 176.0225982666016 72.06233978271484 177.1918182373047 C 77.92570495605469 178.3916320800781 83.9608154296875 179 90 179 C 96.0391845703125 179 102.0742950439453 178.3916320800781 107.9376602172852 177.1918182373047 C 113.651496887207 176.0225982666016 119.2718200683594 174.2779541015625 124.6425018310547 172.00634765625 C 129.9159088134766 169.77587890625 135.0021820068359 167.01513671875 139.7600402832031 163.8007965087891 C 144.4729614257813 160.6167907714844 148.9048156738281 156.9601745605469 152.9324951171875 152.9324951171875 C 156.9601745605469 148.9048156738281 160.6167907714844 144.4729614257813 163.8007965087891 139.7600402832031 C 167.01513671875 135.0021820068359 169.77587890625 129.9159088134766 172.00634765625 124.6425018310547 C 174.2779541015625 119.2718200683594 176.0225982666016 113.651496887207 177.1918182373047 107.9376602172852 C 178.3916320800781 102.0742950439453 179 96.0391845703125 179 90 C 179 83.9608154296875 178.3916320800781 77.92570495605469 177.1918182373047 72.06233978271484 C 176.0225982666016 66.34848022460938 174.2779541015625 60.72815704345703 172.00634765625 55.35747528076172 C 169.77587890625 50.08409118652344 167.01513671875 44.99781799316406 163.8007965087891 40.23995971679688 C 160.6167907714844 35.52702331542969 156.9601745605469 31.09518432617188 152.9324951171875 27.0675048828125 C 148.9048156738281 23.03982543945313 144.4729614257813 19.3831787109375 139.7600402832031 16.19920349121094 C 135.0021820068359 12.98486328125 129.9159088134766 10.22412109375 124.6425018310547 7.99365234375 C 119.2718200683594 5.7220458984375 113.651496887207 3.977401733398438 107.9376602172852 2.808181762695313 C 102.0742950439453 1.608367919921875 96.0391845703125 1 90 1 M 90 0 C 139.7056121826172 0 180 40.29435729980469 180 90 C 180 139.7056121826172 139.7056121826172 180 90 180 C 40.29435729980469 180 0 139.7056121826172 0 90 C 0 40.29435729980469 40.29435729980469 0 90 0 Z"/>
      </g>
    </g>
    <g id="Mask_Group_11" data-name="Mask Group 11" class="cls-3" transform="translate(216 995.5)">
      <g id="question" transform="translate(28.739 0.333)">
        <ellipse id="Ellipse_43" data-name="Ellipse 43" class="cls-4" cx="17.244" cy="12.712" rx="17.244" ry="12.712" transform="translate(27.59 83.05)"/>
        <path id="Path_103" data-name="Path 103" class="cls-4" d="M80.771,0C56.05,0,35.938,14.826,35.938,33.051v3.178H70.425V33.051c0-4.206,4.641-7.627,10.346-7.627s10.346,3.421,10.346,7.627a7.028,7.028,0,0,1-3.661,5.82l-23.928,15V76.694H98.014V65.623l11.776-7.381c10.05-6.3,15.813-15.477,15.813-25.191C125.6,14.826,105.492,0,80.771,0Z" transform="translate(-35.938)"/>
      </g>
    </g>
  </g>
</svg>
