<svg xmlns="http://www.w3.org/2000/svg" width="38.864" height="80" viewBox="0 0 38.864 80">
  <defs>
    <style>
      .cls-1 {
        fill: #ffdc8d;
      }

      .cls-2 {
        fill: #e8c57e;
      }

      .cls-3 {
        fill: #5c5e70;
      }

      .cls-4 {
        fill: #3b3d4c;
      }

      .cls-5 {
        fill: #e6e6e6;
      }

      .cls-6 {
        fill: #ccc;
      }

      .cls-7 {
        fill: #f25174;
      }

      .cls-8 {
        fill: #d83f67;
      }
    </style>
  </defs>
  <g id="healthcare-and-medical_1_" data-name="healthcare-and-medical (1)" transform="translate(-0.5 0)">
    <path id="Path_1063" data-name="Path 1063" class="cls-1" d="M176.122,254.8c-.956,0-1.714-.039-2.069-.061a1.206,1.206,0,1,1,.151-2.407c2.737.171,7.072-.039,8.135-1.038.1-.09.1-.127.1-.147a1.205,1.205,0,0,1,2.411,0,2.573,2.573,0,0,1-.856,1.9C182.406,254.539,178.6,254.8,176.122,254.8Zm0,0" transform="translate(-145.482 -210.888)"/>
    <path id="Path_1064" data-name="Path 1064" class="cls-1" d="M39.991,201.518,35.59,218.8H32l1.238-16.81-4.556-7.856-3.754,8.781L10.33,210.959l-.753-2.783-.238-.883,10.4-8.742-.8-7.236-.317-2.853A68.48,68.48,0,0,1,21.273,171,6.915,6.915,0,0,1,34.6,171a76.917,76.917,0,0,1,2.309,11.653c.095.847.715,4.673,1.374,8.661C39.106,196.291,39.991,201.518,39.991,201.518Zm0,0" transform="translate(-7.459 -140.006)"/>
    <path id="Path_1065" data-name="Path 1065" class="cls-2" d="M22.461,196.183a5.287,5.287,0,0,1-2.818,5.449c-1.028.606-7.134,4.617-10.062,6.544l-.238-.883,10.4-8.742-1.118-10.089A68.48,68.48,0,0,1,21.277,171a6.912,6.912,0,0,1,6.664-5.067C24.026,165.934,21.214,187.385,22.461,196.183Zm0,0" transform="translate(-7.462 -140.006)"/>
    <path id="Path_1066" data-name="Path 1066" class="cls-1" d="M105.3,16.944l.6-6.7A9.407,9.407,0,0,0,87.16,8.572l-.6,6.7A9.407,9.407,0,0,0,105.3,16.944Zm0,0" transform="translate(-72.583 0)"/>
    <path id="Path_1067" data-name="Path 1067" class="cls-2" d="M72.48,15.9l.625-7.006A9.411,9.411,0,0,1,81.522.365,9.409,9.409,0,0,0,69.556,8.574l-.093,1.044a2.858,2.858,0,1,0-.492,5.518l-.013.138a9.412,9.412,0,0,0,10.324,10.2A9.084,9.084,0,0,1,72.48,15.9Zm0,0" transform="translate(-54.979 0)"/>
    <path id="Path_1068" data-name="Path 1068" class="cls-3" d="M108.825,10.244c-6.754.684-12.056-3.782-12.056-3.782a7.692,7.692,0,0,1-2.83,3.56A3.162,3.162,0,0,1,90.6,9.908a2.78,2.78,0,0,0-.6-.293l.093-1.042a9.407,9.407,0,1,1,18.739,1.671Zm0,0" transform="translate(-75.509 0)"/>
    <g id="Group_200" data-name="Group 200" transform="translate(14.484 0.001)">
      <path id="Path_1069" data-name="Path 1069" class="cls-4" d="M93.642,8.89A9.412,9.412,0,0,1,102.054.366,9.509,9.509,0,0,0,100.3.038,9.407,9.407,0,0,0,90.093,8.574L90,9.616a2.834,2.834,0,0,1,.6.292,3.209,3.209,0,0,0,2.919.324Zm0,0" transform="translate(-90 -0.001)"/>
      <path id="Path_1070" data-name="Path 1070" class="cls-4" d="M175.946,88.384c-.036,0-.072,0-.109,0a1.205,1.205,0,0,1-1.094-1.308l.14-1.578a1.206,1.206,0,0,1,2.4.214l-.141,1.578A1.206,1.206,0,0,1,175.946,88.384Zm0,0" transform="translate(-161.498 -71.208)"/>
      <path id="Path_1071" data-name="Path 1071" class="cls-4" d="M144.176,85.551a1.066,1.066,0,0,1-.108,0,1.206,1.206,0,0,1-1.094-1.308l.141-1.578a1.206,1.206,0,0,1,2.4.214l-.14,1.578A1.206,1.206,0,0,1,144.176,85.551Zm0,0" transform="translate(-134.693 -68.817)"/>
    </g>
    <path id="Path_1072" data-name="Path 1072" class="cls-2" d="M139.844,336.026l-1.85,17.23h-1.571l1.238-16.81-4.556-7.856,1.411-3.3Zm0,0" transform="translate(-111.886 -274.462)"/>
    <path id="Path_1073" data-name="Path 1073" class="cls-5" d="M88.411,191.316H69.066l-.316-2.853A68.453,68.453,0,0,1,71.4,171a6.915,6.915,0,0,1,13.327,0,77,77,0,0,1,2.308,11.653C87.131,183.5,87.751,187.327,88.411,191.316Zm0,0" transform="translate(-57.586 -140.006)"/>
    <path id="Path_1074" data-name="Path 1074" class="cls-6" d="M78.065,165.934A6.912,6.912,0,0,0,71.4,171a68.479,68.479,0,0,0-2.651,17.462l.317,2.853h3.221C72.236,181.26,74.756,165.934,78.065,165.934Zm0,0" transform="translate(-57.586 -140.006)"/>
    <path id="Path_1075" data-name="Path 1075" class="cls-7" d="M89.031,312.46l-7.833,3.2-2.4-4.13-1.591,3.723-7.733-2.8-.732-6.6,19.063-.788C88.18,307.352,88.629,310.053,89.031,312.46Zm0,0" transform="translate(-57.583 -257.403)"/>
    <path id="Path_1076" data-name="Path 1076" class="cls-8" d="M72.585,317.037l-3.1-1.122-.731-6.6,3.591-.148A46.512,46.512,0,0,0,72.585,317.037Zm0,0" transform="translate(-57.586 -260.86)"/>
    <path id="Path_1077" data-name="Path 1077" class="cls-8" d="M137.748,331.8l-2.248.918-2.4-4.13,1.411-3.3Zm0,0" transform="translate(-111.886 -274.456)"/>
    <path id="Path_1078" data-name="Path 1078" class="cls-7" d="M157.963,498.978h-4.991a1.206,1.206,0,0,1,0-2.411h4.991a1.206,1.206,0,0,1,0,2.411Zm0,0" transform="translate(-127.63 -418.977)"/>
    <path id="Path_1079" data-name="Path 1079" class="cls-7" d="M4.843,433.772a1.207,1.207,0,0,1-1.161-.882L2.111,427.26a1.206,1.206,0,0,1,2.322-.648L6,432.242a1.206,1.206,0,0,1-.837,1.486A1.224,1.224,0,0,1,4.843,433.772Zm0,0" transform="translate(-1.321 -359.209)"/>
    <path id="Path_1080" data-name="Path 1080" class="cls-1" d="M17.261,211.192c-.869.723-2.543,1.042-4.481,1.042a21.476,21.476,0,0,1-8.348-1.706C1.182,209.006.5,207.041.5,205.661c0-3.908,3.845-6.157,7.31-7.392a5.118,5.118,0,0,1,.8,2.275c-4.694,1.664-5.7,3.688-5.7,5.117,0,1.379,1.771,2.354,2.828,2.811a18.731,18.731,0,0,0,6.194,1.336,8.561,8.561,0,0,0,3.651-.384,1.205,1.205,0,0,1,2.371-.3A1.968,1.968,0,0,1,17.261,211.192Zm0,0" transform="translate(0 -167.287)"/>
    <path id="Path_1081" data-name="Path 1081" class="cls-6" d="M55.429,189.425c-.018,0-.886.087-2.172.312a34.031,34.031,0,0,0-4.668,1.143c-.174.057-.342.115-.507.173l-.8-2.275c.2-.071.394-.137.588-.2a37.786,37.786,0,0,1,7.329-1.553,1.205,1.205,0,1,1,.23,2.4Zm0,0" transform="translate(-39.472 -157.797)"/>
  </g>
</svg>
