<svg xmlns="http://www.w3.org/2000/svg" width="88.601" height="69.789" viewBox="0 0 88.601 69.789">
  <defs>
    <style>
      .cls-1 {
        fill: #ffca4f;
      }

      .cls-2 {
        fill: #5dddd3;
      }

      .cls-3 {
        fill: #fff;
      }

      .cls-4 {
        fill: #ff757c;
      }

      .cls-5 {
        fill: #ecf0f1;
      }
    </style>
  </defs>
  <g id="library" transform="translate(0 -13.838)">
    <path id="Path_1091" data-name="Path 1091" class="cls-1" d="M0,50Z"/>
    <path id="Path_1092" data-name="Path 1092" class="cls-2" d="M104.821,91.515v55.2l12.147-10.67v-55.2h-1.58l-.841.642h-7.985l0-.653-1.313.011L93.1,91.515h11.723Z" transform="translate(-74.915 -65.047)"/>
    <path id="Path_1093" data-name="Path 1093" class="cls-3" d="M101.667,94.2h8.67l11.1-10.028h-8.67Z" transform="translate(-81.81 -67.736)"/>
    <path id="Path_1094" data-name="Path 1094" class="cls-4" d="M107.892,121l-1.438-.022-3.009,2.718h-8.67l3.151-2.846-1.558-.023L93.1,123.7v55.2h11.722l3.069-2.7V121Z" transform="translate(-74.916 -97.23)"/>
    <path id="Path_1095" data-name="Path 1095" class="cls-5" d="M201.387,91.517v55.2l12.146-10.67v-55.2h-1.58l-.841.643h-7.984l0-.653-1.314.01-12.147,10.67h11.723Z" transform="translate(-152.62 -65.049)"/>
    <path id="Path_1096" data-name="Path 1096" class="cls-3" d="M198.233,94.2h8.67l11.1-10.028h-8.67Z" transform="translate(-159.516 -67.736)"/>
    <path id="Path_1097" data-name="Path 1097" class="cls-4" d="M204.456,121l-1.438-.022-3.009,2.718h-8.67l3.151-2.846-1.558-.023-3.266,2.869v55.2h11.722l3.069-2.7V121Z" transform="translate(-152.62 -97.23)"/>
    <path id="Path_1098" data-name="Path 1098" class="cls-2" d="M297.217,70.85l-8.994,13.435,14.2,53.338,8.994-13.435-14.2-53.338-1.527.407-.647.837-7.716,2.054-.17-.63-1.267.348L276.9,87.3l11.328-3.015Z" transform="translate(-222.815 -57.012)"/>
    <path id="Path_1099" data-name="Path 1099" class="cls-3" d="M285.174,91.992l8.379-2.23L301.7,77.216l-8.378,2.23-8.151,12.547h0Z" transform="translate(-229.476 -62.135)"/>
    <path id="Path_1100" data-name="Path 1100" class="cls-4" d="M290.5,122.255l-1.4.349-2.209,3.4-8.378,2.23,2.313-3.56-1.512.378-2.418,3.613L291.1,182l11.328-3.015,2.272-3.394-14.2-53.339Z" transform="translate(-222.817 -98.377)"/>
    <g id="Group_206" data-name="Group 206" transform="translate(70.548 25.36)">
      <path id="Path_1101" data-name="Path 1101" class="cls-3" d="M370.767,135.579l-.713-2.714-5.026,8.217.713,2.714,5.026-8.218Z" transform="translate(-364.282 -132.274)"/>
      <path id="Path_1102" data-name="Path 1102" class="cls-3" d="M364.978,131.6l-.379-1.763-3.392,5.547.379,1.763,3.392-5.546h0Z" transform="translate(-361.207 -129.841)"/>
    </g>
  </g>
</svg>
