<svg id="line-chart" xmlns="http://www.w3.org/2000/svg" width="200" height="200" viewBox="0 0 200 200">
  <defs>
    <style>
      .cls-1 {
        fill: #ffd05b;
      }

      .cls-2 {
        fill: #fff;
      }

      .cls-3 {
        fill: #4cdbc4;
      }

      .cls-4 {
        fill: #324a5e;
      }
    </style>
  </defs>
  <circle id="Ellipse_334" data-name="Ellipse 334" class="cls-1" cx="100" cy="100" r="100"/>
  <path id="Path_1444" data-name="Path 1444" class="cls-2" d="M228.809,89.4v-3.78H201.88V56.8H198.1V85.619H172.9V56.8h-3.78V85.619H144.085V56.8h-3.78V85.619h-25.2V56.8h-3.78V85.619H84.4V89.4h27.087v25.039H84.4v3.78h27.087v25.039H84.4v3.78h27.087v25.2H84.4v3.78h27.087v25.2h3.78v-25.2h25.039v25.2h3.78v-25.2h25.039v25.2h3.78v-25.2h25.039v25.2h3.78v-25.2h27.087v-3.78H201.88V147.194h27.087v-3.78H201.88V118.375h27.087V114.6H201.88V89.4h26.929Zm-59.685,0v25.039H144.085V89.4Zm0,28.976v25.039H144.085V118.375ZM115.109,89.4h25.039v25.039H115.109Zm0,28.976h25.039v25.039H115.109Zm0,53.858V147.194h25.039v25.039Zm28.976,0V147.194h25.039v25.039Zm53.858,0H172.9V147.194h25.039v25.039Zm0-28.819H172.9V118.375h25.039v25.039Zm0-28.819H172.9V89.4h25.039v25.2Z" transform="translate(-51.172 -34.438)"/>
  <path id="Path_1446" data-name="Path 1446" class="cls-3" d="M228.567,203.14l-7.874-29.134-8.031,8.031L134.551,104.4,84,154.951V165.66l50.551-50.551,72.756,72.283-7.874,7.874Z" transform="translate(-50.929 -63.298)"/>
  <path id="Path_1447" data-name="Path 1447" class="cls-4" d="M67.666,201.209V56.8H56.8V212.076H212.076V201.209Z" transform="translate(-34.438 -34.438)"/>
</svg>
