<svg xmlns="http://www.w3.org/2000/svg" xmlns:xlink="http://www.w3.org/1999/xlink" width="134" height="134" viewBox="0 0 134 134">
  <defs>
    <style>
      .cls-1 {
        fill: #fff;
        stroke: rgba(112,112,112,0);
      }

      .cls-2 {
        clip-path: url(#clip-path);
      }

      .cls-3 {
        fill: #ffdc8d;
      }

      .cls-4 {
        fill: #e8c57e;
      }

      .cls-5 {
        fill: #5c5e70;
      }

      .cls-6 {
        fill: #3b3d4c;
      }

      .cls-7 {
        fill: #e6e6e6;
      }

      .cls-8 {
        fill: #ccc;
      }

      .cls-9 {
        fill: #f25174;
      }

      .cls-10 {
        fill: #d83f67;
      }
    </style>
    <clipPath id="clip-path">
      <circle id="Ellipse_140" data-name="Ellipse 140" class="cls-1" cx="67" cy="67" r="67" transform="translate(436 660)"/>
    </clipPath>
  </defs>
  <g id="Mask_Group_24" data-name="Mask Group 24" class="cls-2" transform="translate(-436 -660)">
    <g id="healthcare-and-medical_1_" data-name="healthcare-and-medical (1)" transform="translate(470.321 660)">
      <path id="Path_662" data-name="Path 662" class="cls-3" d="M50.616,73.552c-1.6,0-2.872-.065-3.466-.1a2.019,2.019,0,0,1,.253-4.031c4.585.286,11.845-.065,13.626-1.739.161-.15.161-.213.161-.246a2.019,2.019,0,0,1,4.038,0,4.31,4.31,0,0,1-1.433,3.191C61.141,73.115,54.764,73.552,50.616,73.552Zm0,0"/>
      <path id="Path_663" data-name="Path 663" class="cls-3" d="M53.784,103.031l-7.37,28.949H40.393l2.074-28.157-7.632-13.16-6.287,14.707L4.1,118.845l-1.261-4.661-.4-1.478,17.42-14.643-1.341-12.12-.531-4.779c0-10.913,2.424-21.954,4.44-29.248a11.582,11.582,0,0,1,22.323,0,128.837,128.837,0,0,1,3.868,19.52c.158,1.419,1.2,7.827,2.3,14.508C52.3,94.277,53.784,103.031,53.784,103.031Zm0,0"/>
      <path id="Path_664" data-name="Path 664" class="cls-4" d="M24.418,94.1c.835,4.74-2.439,7.78-4.72,9.126-1.723,1.015-11.95,7.733-16.853,10.962l-.4-1.478,17.42-14.643-1.872-16.9c0-10.913,2.424-21.954,4.44-29.248A11.578,11.578,0,0,1,33.6,43.428C27.038,43.428,22.329,79.359,24.418,94.1Zm0,0"/>
      <path id="Path_665" data-name="Path 665" class="cls-3" d="M54.1,28.381l1-11.225a15.756,15.756,0,0,0-31.388-2.8l-1,11.225a15.756,15.756,0,0,0,31.388,2.8Zm0,0"/>
      <path id="Path_666" data-name="Path 666" class="cls-4" d="M28.607,26.624l1.047-11.734A15.764,15.764,0,0,1,43.752.61,15.76,15.76,0,0,0,23.71,14.36l-.155,1.748a4.787,4.787,0,1,0-.824,9.243l-.022.231A15.765,15.765,0,0,0,40,42.66C32.878,40.628,27.925,34.276,28.607,26.624Zm0,0"/>
      <path id="Path_667" data-name="Path 667" class="cls-5" d="M55.1,17.158C43.784,18.3,34.9,10.824,34.9,10.824c-1.511,3.286-3.212,5.044-4.741,5.963a5.3,5.3,0,0,1-5.6-.191,4.657,4.657,0,0,0-1.01-.491l.156-1.745a15.756,15.756,0,1,1,31.388,2.8Zm0,0"/>
      <g id="Group_95" data-name="Group 95">
        <path id="Path_668" data-name="Path 668" class="cls-6" d="M29.655,14.89A15.765,15.765,0,0,1,43.745.611,15.927,15.927,0,0,0,40.8.063,15.757,15.757,0,0,0,23.71,14.36l-.155,1.746a4.747,4.747,0,0,1,1.01.49,5.375,5.375,0,0,0,4.89.543Zm0,0"/>
        <path id="Path_669" data-name="Path 669" class="cls-6" d="M47.755,28.771c-.06,0-.121,0-.182-.008a2.019,2.019,0,0,1-1.832-2.191l.235-2.644A2.02,2.02,0,0,1,50,24.287l-.236,2.644A2.02,2.02,0,0,1,47.755,28.771Zm0,0"/>
        <path id="Path_670" data-name="Path 670" class="cls-6" d="M39.44,28.029a1.786,1.786,0,0,1-.181-.008,2.02,2.02,0,0,1-1.833-2.191l.236-2.644a2.019,2.019,0,1,1,4.023.359l-.235,2.644A2.02,2.02,0,0,1,39.44,28.029Zm0,0"/>
      </g>
      <path id="Path_671" data-name="Path 671" class="cls-4" d="M46.124,103.119l-3.1,28.861H40.394l2.073-28.157-7.631-13.16L37.2,85.134Zm0,0"/>
      <path id="Path_672" data-name="Path 672" class="cls-7" d="M50.925,85.943h-32.4l-.53-4.779c0-10.913,2.423-21.954,4.44-29.248a11.582,11.582,0,0,1,22.323,0,128.975,128.975,0,0,1,3.866,19.52C48.781,72.854,49.821,79.262,50.925,85.943Zm0,0"/>
      <path id="Path_673" data-name="Path 673" class="cls-8" d="M33.6,43.428a11.578,11.578,0,0,0-11.162,8.487c-2.016,7.294-4.44,18.335-4.44,29.248l.531,4.779h5.395C23.832,69.1,28.053,43.429,33.6,43.428Zm0,0"/>
      <path id="Path_674" data-name="Path 674" class="cls-9" d="M51.969,92.221,38.848,97.58l-4.013-6.918L32.17,96.9,19.218,92.216,17.992,81.163l31.931-1.32C50.544,83.664,51.3,88.188,51.969,92.221Zm0,0"/>
      <path id="Path_675" data-name="Path 675" class="cls-10" d="M24.418,94.1l-5.2-1.88L17.993,81.163l6.015-.247A77.91,77.91,0,0,0,24.418,94.1Zm0,0"/>
      <path id="Path_676" data-name="Path 676" class="cls-10" d="M42.613,96.044l-3.765,1.538-4.012-6.918L37.2,85.132Zm0,0"/>
      <path id="Path_677" data-name="Path 677" class="cls-9" d="M50.1,134H41.739a2.02,2.02,0,0,1,0-4.039H50.1a2.02,2.02,0,0,1,0,4.039Zm0,0"/>
      <path id="Path_678" data-name="Path 678" class="cls-9" d="M5.192,124.892a2.021,2.021,0,0,1-1.944-1.477L.615,113.984a2.019,2.019,0,0,1,3.89-1.086l2.633,9.431a2.02,2.02,0,0,1-1.4,2.488A2.05,2.05,0,0,1,5.192,124.892Zm0,0"/>
      <path id="Path_679" data-name="Path 679" class="cls-3" d="M28.205,73.54c-1.455,1.211-4.26,1.745-7.5,1.745A35.972,35.972,0,0,1,6.717,72.428C1.273,69.878.131,66.587.131,64.275c0-6.546,6.441-10.313,12.244-12.382.331-.119,1.616,3.713,1.341,3.81C5.853,58.49,4.17,61.88,4.17,64.275c0,2.31,2.967,3.942,4.737,4.709a31.374,31.374,0,0,0,10.375,2.238c3.441.165,5.42-.3,6.116-.643a2.019,2.019,0,0,1,3.972-.5A3.3,3.3,0,0,1,28.205,73.54Zm0,0"/>
      <path id="Path_680" data-name="Path 680" class="cls-8" d="M26.022,52.976c-.03,0-1.484.145-3.639.522a57,57,0,0,0-7.819,1.915c-.291.1-.574.193-.849.29l-1.341-3.81c.331-.119.659-.229.986-.336a63.292,63.292,0,0,1,12.276-2.6,2.019,2.019,0,1,1,.385,4.02Zm0,0"/>
    </g>
  </g>
</svg>
