<svg xmlns="http://www.w3.org/2000/svg" xmlns:xlink="http://www.w3.org/1999/xlink" width="184" height="173" viewBox="0 0 184 173">
  <defs>
    <style>
      .cls-1 {
        fill: #ff9393;
        stroke: rgba(112,112,112,0);
      }

      .cls-2 {
        clip-path: url(#clip-path);
      }

      .cls-3 {
        fill: #ffd1a2;
      }

      .cls-4 {
        fill: #ffe5c1;
      }

      .cls-5 {
        fill: #ffbc85;
      }

      .cls-6 {
        fill: #a4ccff;
      }

      .cls-7 {
        fill: #ffd400;
      }

      .cls-8 {
        fill: #fdbf00;
      }

      .cls-9 {
        fill: #ff9200;
      }

      .cls-10 {
        fill: #ff6319;
      }
    </style>
    <clipPath id="clip-path">
      <ellipse id="Ellipse_25" data-name="Ellipse 25" class="cls-1" cx="92" cy="86.5" rx="92" ry="86.5"/>
    </clipPath>
  </defs>
  <g id="Mask_Group_7" data-name="Mask Group 7" class="cls-2">
    <g id="payment" transform="translate(14.025 -1.34)">
      <path id="Path_59" data-name="Path 59" class="cls-3" d="M161.829,107.173a16.156,16.156,0,0,0-21.825,0L115.59,130.127H37.542a2.552,2.552,0,0,0-2.627,2.47v37.254a2.552,2.552,0,0,0,2.627,2.47h63.574a32.823,32.823,0,0,0,22.613-8.806l38.1-35.824a13.92,13.92,0,0,0,0-20.52Z" transform="translate(-10.392 2.018)"/>
      <path id="Path_60" data-name="Path 60" class="cls-4" d="M103.874,118.429H80.487c-2.227-2.647-8.68-8.531-22.029-8.531-14.094,0-20.663,6.567-22.571,8.931a2.413,2.413,0,0,0-.973,1.919v.118c0,.029,0,.058,0,.088v24.024a2.552,2.552,0,0,0,2.627,2.47h66.332c8.51,0,15.432-6.509,15.432-14.51S112.383,118.429,103.874,118.429Z" transform="translate(-10.392 1.601)"/>
      <path id="Path_61" data-name="Path 61" class="cls-5" d="M161.829,107.173a16.156,16.156,0,0,0-21.825,0L115.59,130.127H88.371v42.2h12.745a32.823,32.823,0,0,0,22.613-8.806l38.1-35.824a13.92,13.92,0,0,0,0-20.52Z" transform="translate(-10.392 2.018)"/>
      <path id="Path_62" data-name="Path 62" class="cls-3" d="M103.874,147.991c8.51,0,15.432-6.509,15.432-14.51s-6.923-14.51-15.432-14.51h-15.5v29.019h15.5Z" transform="translate(-10.392 1.059)"/>
      <path id="Path_63" data-name="Path 63" class="cls-6" d="M37.542,113.556H13.02a2.552,2.552,0,0,0-2.627,2.47v54.461a2.552,2.552,0,0,0,2.627,2.47H37.542a2.552,2.552,0,0,0,2.627-2.47V116.026a2.553,2.553,0,0,0-2.627-2.47Z" transform="translate(-10.392 1.382)"/>
      <path id="Path_1004" data-name="Path 1004" class="cls-7" d="M45.41-.57c25.7.258,46.741,22.555,47,49.8S72.042,98.358,46.343,98.1-.4,75.545-.656,48.3,19.711-.828,45.41-.57Z" transform="translate(22.48 92.114) rotate(-80.792)"/>
      <path id="Path_64" data-name="Path 64" class="cls-8" d="M137.787,46.462C137.787,20.843,115.619,0,88.371,0V92.924C115.619,92.924,137.787,72.081,137.787,46.462Z" transform="translate(-10.392 8.171)"/>
      <path id="Path_65" data-name="Path 65" class="cls-9" d="M102.5,51.417c-2.548-5.238-8.455-7.222-12.363-8.535l-.011,0c-2.11-.708-5.629-1.892-6.331-3.336a2.729,2.729,0,0,1,1-3.344c1.537-1.021,4.5-1.1,6.6-.18a3.091,3.091,0,0,1,1.81,1.793,5.358,5.358,0,0,0,6.761,2.9,4.86,4.86,0,0,0,3.085-6.357,13.245,13.245,0,0,0-7.219-7.295,18.272,18.272,0,0,0-2.209-.8V24.589a5.265,5.265,0,0,0-10.509,0v1.575a15.4,15.4,0,0,0-4.385,1.963A12.318,12.318,0,0,0,74.24,43.652c2.549,5.239,8.455,7.222,12.364,8.535l.006,0c2.11.708,5.633,1.894,6.335,3.338a2.729,2.729,0,0,1-1,3.344c-1.537,1.021-4.5,1.1-6.6.18a3.09,3.09,0,0,1-1.81-1.793,5.359,5.359,0,0,0-6.761-2.9,4.86,4.86,0,0,0-3.085,6.357,13.243,13.243,0,0,0,7.22,7.295,18.307,18.307,0,0,0,2.209.794v1.882a5.265,5.265,0,0,0,10.509,0V68.912a15.4,15.4,0,0,0,4.385-1.971A12.32,12.32,0,0,0,102.5,51.417Z" transform="translate(-10.392 6.996)"/>
      <g id="Group_5" data-name="Group 5" transform="translate(77.978 26.645)">
        <path id="Path_66" data-name="Path 66" class="cls-10" d="M91.4,36.017a3.091,3.091,0,0,1,1.81,1.793,5.358,5.358,0,0,0,6.761,2.9,4.86,4.86,0,0,0,3.085-6.357,13.245,13.245,0,0,0-7.219-7.295,18.271,18.271,0,0,0-2.209-.8V24.589a5.105,5.105,0,0,0-5.255-4.941V35.38a8.247,8.247,0,0,1,3.028.637Z" transform="translate(-88.371 -19.649)"/>
        <path id="Path_67" data-name="Path 67" class="cls-10" d="M102.5,52.855c-2.548-5.238-8.455-7.222-12.363-8.535l-.011,0c-.521-.175-1.128-.379-1.757-.609v10.53c1.919.7,4.045,1.641,4.574,2.727a2.729,2.729,0,0,1-1,3.344,6.4,6.4,0,0,1-3.576.818V77.063a5.105,5.105,0,0,0,5.255-4.941V70.35a15.4,15.4,0,0,0,4.385-1.971A12.318,12.318,0,0,0,102.5,52.855Z" transform="translate(-88.371 -21.087)"/>
      </g>
    </g>
  </g>
</svg>
