<svg xmlns="http://www.w3.org/2000/svg" xmlns:xlink="http://www.w3.org/1999/xlink" width="102" height="102" viewBox="0 0 102 102">
  <defs>
    <style>
      .cls-1 {
        fill: #fff;
        stroke: rgba(112,112,112,0);
      }

      .cls-2 {
        clip-path: url(#clip-path);
      }

      .cls-3 {
        fill: #a4ccff;
      }

      .cls-4 {
        fill: #65a9ff;
      }

      .cls-5 {
        fill: #89bcf2;
      }

      .cls-6 {
        fill: #add4f6;
      }

      .cls-7 {
        fill: #f9b54c;
      }

      .cls-8 {
        fill: #f4a200;
      }

      .cls-9 {
        fill: #59595b;
      }

      .cls-10 {
        fill: #272525;
      }

      .cls-11 {
        fill: #324a5e;
      }

      .cls-12 {
        fill: #2b3b4e;
      }

      .cls-13 {
        fill: #fd8469;
      }

      .cls-14 {
        fill: #fc6f58;
      }

      .cls-15 {
        fill: #935635;
      }

      .cls-16 {
        fill: #804000;
      }

      .cls-17 {
        fill: #b97850;
      }

      .cls-18 {
        fill: #ffd15d;
      }

      .cls-19 {
        fill: #ff6472;
      }

      .cls-20 {
        fill: #c75163;
      }

      .cls-21 {
        fill: #f1543f;
      }

      .cls-22 {
        fill: #c1321f;
      }
    </style>
    <clipPath id="clip-path">
      <circle id="Ellipse_58" data-name="Ellipse 58" class="cls-1" cx="51" cy="51" r="51"/>
    </clipPath>
  </defs>
  <g id="Mask_Group_13" data-name="Mask Group 13" class="cls-2">
    <g id="_031-family" data-name="031-family">
      <circle id="Ellipse_45" data-name="Ellipse 45" class="cls-3" cx="51" cy="51" r="51"/>
      <path id="Path_112" data-name="Path 112" class="cls-4" d="M112.028,73.981,90.592,52.546,75.267,80.6,49.942,55.274,38.173,65.836l-13,10.055,46.1,46.1A51.018,51.018,0,0,0,112.028,73.981Z" transform="translate(-10.069 -21.018)"/>
      <path id="Path_113" data-name="Path 113" class="cls-5" d="M117.352,104.3V99.994h-7.768V104.3a.622.622,0,0,1-.622.622H103.61v14.863h19.717V104.924h-5.352A.622.622,0,0,1,117.352,104.3Z" transform="translate(-41.444 -39.998)"/>
      <path id="Path_114" data-name="Path 114" class="cls-4" d="M129.781,104.924h-5.352a.622.622,0,0,1-.622-.622V99.994h-4.061v19.792h10.036V104.924Z" transform="translate(-47.898 -39.998)"/>
      <circle id="Ellipse_46" data-name="Ellipse 46" class="cls-5" cx="3.105" cy="3.105" r="3.105" transform="translate(56.011 47.868)"/>
      <circle id="Ellipse_47" data-name="Ellipse 47" class="cls-5" cx="3.105" cy="3.105" r="3.105" transform="translate(81.167 47.868)"/>
      <path id="Path_115" data-name="Path 115" class="cls-6" d="M111.8,83.748h-.7A11.715,11.715,0,0,1,99.382,72.033v-10.7A11.715,11.715,0,0,1,111.1,49.622h.7a11.715,11.715,0,0,1,11.715,11.715v10.7A11.715,11.715,0,0,1,111.8,83.748Z" transform="translate(-39.753 -19.849)"/>
      <path id="Path_116" data-name="Path 116" class="cls-5" d="M119.942,49.623h-.2V83.749h.2a11.715,11.715,0,0,0,11.715-11.715v-10.7A11.715,11.715,0,0,0,119.942,49.623Z" transform="translate(-47.898 -19.849)"/>
      <path id="Path_117" data-name="Path 117" class="cls-7" d="M121.551,52.606a12.7,12.7,0,0,0-10.414-5.422h-.76A12.719,12.719,0,0,0,97.658,59.9v9.943h1.867V64.593h0c5.666-.576,11.238-1.687,16.122-4.129a29.208,29.208,0,0,0,6.027,5.282v4.1h2.183V59.9A12.659,12.659,0,0,0,121.551,52.606Z" transform="translate(-39.063 -18.874)"/>
      <path id="Path_118" data-name="Path 118" class="cls-8" d="M130.386,52.606a12.7,12.7,0,0,0-10.414-5.422h-.227V62.379a33.629,33.629,0,0,0,4.736-1.915,29.208,29.208,0,0,0,6.027,5.282v4.1h2.183V59.9A12.658,12.658,0,0,0,130.386,52.606Z" transform="translate(-47.898 -18.874)"/>
      <circle id="Ellipse_48" data-name="Ellipse 48" class="cls-9" cx="1.206" cy="1.206" r="1.206" transform="translate(64.798 48.389)"/>
      <circle id="Ellipse_49" data-name="Ellipse 49" class="cls-10" cx="1.206" cy="1.206" r="1.206" transform="translate(76.176 48.389)"/>
      <path id="Path_119" data-name="Path 119" class="cls-11" d="M126.614,124.963v-7.741a9.012,9.012,0,0,0-9.012-9.012H113.47c0,3.63-6.572,7.155-6.572,7.155s-6.572-3.525-6.572-7.155H96.193a9.012,9.012,0,0,0-9.012,9.012v28.046A50.923,50.923,0,0,0,126.614,124.963Z" transform="translate(-34.872 -43.284)"/>
      <path id="Path_120" data-name="Path 120" class="cls-12" d="M130.678,108.21h-4.133c0,3.63-6.572,7.155-6.572,7.155l-.1-.057v25.5a51.2,51.2,0,0,0,19.821-15.843v-7.741A9.012,9.012,0,0,0,130.678,108.21Z" transform="translate(-47.948 -43.284)"/>
      <path id="Path_121" data-name="Path 121" class="cls-13" d="M116.861,96.063a3.946,3.946,0,0,1-3.942-3.942.667.667,0,0,1,1.335,0,2.608,2.608,0,1,0,5.216,0,.667.667,0,1,1,1.335,0A3.948,3.948,0,0,1,116.861,96.063Z" transform="translate(-45.168 -36.582)"/>
      <path id="Path_122" data-name="Path 122" class="cls-14" d="M123.533,92.122a.667.667,0,0,0-1.335,0,2.609,2.609,0,0,1-2.455,2.6v1.334A3.943,3.943,0,0,0,123.533,92.122Z" transform="translate(-47.898 -36.582)"/>
      <path id="Path_123" data-name="Path 123" class="cls-15" d="M28.085,85.9v17.67l13.163-.862V85.039Z" transform="translate(-11.234 -34.015)"/>
      <path id="Path_124" data-name="Path 124" class="cls-16" d="M63.19,83.6l-13.166.862v17.67l13.166-.862Z" transform="translate(-20.009 -33.441)"/>
      <path id="Path_125" data-name="Path 125" class="cls-5" d="M47.368,107.4v-4.321H39.576V107.4a.624.624,0,0,1-.624.624h-5.37v14.911H53.363V108.026h-5.37A.624.624,0,0,1,47.368,107.4Z" transform="translate(-13.433 -41.233)"/>
      <path id="Path_126" data-name="Path 126" class="cls-4" d="M59.939,108.026h-5.37a.624.624,0,0,1-.624-.624v-4.321H50.023v19.856h9.916V108.026Z" transform="translate(-20.009 -41.233)"/>
      <circle id="Ellipse_50" data-name="Ellipse 50" class="cls-5" cx="3.115" cy="3.115" r="3.115" transform="translate(14.304 49.681)"/>
      <circle id="Ellipse_51" data-name="Ellipse 51" class="cls-5" cx="3.115" cy="3.115" r="3.115" transform="translate(39.547 49.681)"/>
      <path id="Path_127" data-name="Path 127" class="cls-6" d="M42.347,86.783h-.7A11.753,11.753,0,0,1,29.892,75.03V64.3A11.753,11.753,0,0,1,41.645,52.547h.7A11.753,11.753,0,0,1,54.1,64.3V75.03A11.753,11.753,0,0,1,42.347,86.783Z" transform="translate(-11.957 -21.019)"/>
      <path id="Path_128" data-name="Path 128" class="cls-5" d="M50.4,52.546h-.376V86.782H50.4A11.753,11.753,0,0,0,62.152,75.03V64.3A11.753,11.753,0,0,0,50.4,52.546Z" transform="translate(-20.009 -21.018)"/>
      <path id="Path_129" data-name="Path 129" class="cls-17" d="M52.1,55.54A12.741,12.741,0,0,0,41.655,50.1h-.762a12.8,12.8,0,0,0-12.807,12.76V80.823h1.92V67.565h0c5.685-.578,11.275-1.693,16.174-4.142a29.319,29.319,0,0,0,6.046,5.3v12.1h2.19V62.861A12.7,12.7,0,0,0,52.1,55.54Z" transform="translate(-11.234 -20.04)"/>
      <path id="Path_130" data-name="Path 130" class="cls-15" d="M60.878,55.54A12.741,12.741,0,0,0,50.43,50.1h-.406V65.4a33.88,33.88,0,0,0,4.93-1.976A29.318,29.318,0,0,0,61,68.722v12.1h2.19V62.862A12.7,12.7,0,0,0,60.878,55.54Z" transform="translate(-20.01 -20.04)"/>
      <circle id="Ellipse_52" data-name="Ellipse 52" class="cls-9" cx="1.21" cy="1.21" r="1.21" transform="translate(23.123 50.202)"/>
      <circle id="Ellipse_53" data-name="Ellipse 53" class="cls-10" cx="1.21" cy="1.21" r="1.21" transform="translate(34.534 50.202)"/>
      <path id="Path_131" data-name="Path 131" class="cls-13" d="M47.429,99.138a3.959,3.959,0,0,1-3.955-3.955.669.669,0,1,1,1.339,0,2.616,2.616,0,0,0,5.232,0,.669.669,0,1,1,1.339,0A3.959,3.959,0,0,1,47.429,99.138Z" transform="translate(-17.39 -37.805)"/>
      <path id="Path_132" data-name="Path 132" class="cls-14" d="M53.334,94.514a.669.669,0,0,0-.669.669A2.619,2.619,0,0,1,50.049,97.8h-.025v1.339h.025A3.959,3.959,0,0,0,54,95.183.669.669,0,0,0,53.334,94.514Z" transform="translate(-20.009 -37.805)"/>
      <path id="Path_133" data-name="Path 133" class="cls-18" d="M47.617,111.323H43.471c0,3.642-2.952,11.6-6.594,11.6s-6.594-7.954-6.594-11.6H26.138a9.042,9.042,0,0,0-9.041,9.041v5.844a50.97,50.97,0,0,0,32.97,19.733,39.615,39.615,0,0,0,6.592-2.947V120.364A9.041,9.041,0,0,0,47.617,111.323Z" transform="translate(-6.839 -44.529)"/>
      <path id="Path_134" data-name="Path 134" class="cls-7" d="M60.788,111.323H56.642c0,3.642-2.952,11.6-6.594,11.6l-.025,0v19.108a50.777,50.777,0,0,0,19.806,4.489v-26.15A9.041,9.041,0,0,0,60.788,111.323Z" transform="translate(-20.009 -44.529)"/>
      <path id="Path_135" data-name="Path 135" class="cls-5" d="M83.29,137.817v-2.74H78.347v2.74a.4.4,0,0,1-.4.4H74.546v9.457H87.091v-9.457H83.686A.4.4,0,0,1,83.29,137.817Z" transform="translate(-29.818 -54.031)"/>
      <path id="Path_136" data-name="Path 136" class="cls-4" d="M91.2,138.213H87.792a.4.4,0,0,1-.4-.4v-2.74H84.812v12.593H91.2Z" transform="translate(-33.925 -54.031)"/>
      <circle id="Ellipse_54" data-name="Ellipse 54" class="cls-5" cx="1.975" cy="1.975" r="1.975" transform="translate(40.81 73.33)"/>
      <circle id="Ellipse_55" data-name="Ellipse 55" class="cls-5" cx="1.975" cy="1.975" r="1.975" transform="translate(56.817 73.33)"/>
      <path id="Path_137" data-name="Path 137" class="cls-6" d="M79.754,124.739h-.445a7.454,7.454,0,0,1-7.454-7.454V110.48a7.454,7.454,0,0,1,7.454-7.454h.445a7.454,7.454,0,0,1,7.454,7.454v6.806A7.453,7.453,0,0,1,79.754,124.739Z" transform="translate(-28.742 -41.211)"/>
      <path id="Path_138" data-name="Path 138" class="cls-5" d="M84.937,103.027h-.125V124.74h.125a7.454,7.454,0,0,0,7.454-7.454v-6.806A7.454,7.454,0,0,0,84.937,103.027Z" transform="translate(-33.925 -41.211)"/>
      <circle id="Ellipse_56" data-name="Ellipse 56" class="cls-9" cx="0.768" cy="0.768" r="0.768" transform="translate(46.403 73.658)"/>
      <circle id="Ellipse_57" data-name="Ellipse 57" class="cls-10" cx="0.768" cy="0.768" r="0.768" transform="translate(53.639 73.658)"/>
      <path id="Path_139" data-name="Path 139" class="cls-19" d="M83.448,140.3H80.819c0,2.31-4.182,4.552-4.182,4.552s-4.182-2.243-4.182-4.552H69.827a5.734,5.734,0,0,0-5.734,5.734v10.527a51.323,51.323,0,0,0,25.09,0V146.038A5.734,5.734,0,0,0,83.448,140.3Z" transform="translate(-25.637 -56.122)"/>
      <path id="Path_140" data-name="Path 140" class="cls-20" d="M91.735,140.3H89.106c0,2.31-4.182,4.552-4.182,4.552l-.114-.064V158.12l.114,0a51.109,51.109,0,0,0,12.545-1.557V146.038A5.735,5.735,0,0,0,91.735,140.3Z" transform="translate(-33.924 -56.122)"/>
      <path id="Path_141" data-name="Path 141" class="cls-13" d="M82.977,132.576a2.511,2.511,0,0,1-2.508-2.508.425.425,0,0,1,.849,0,1.659,1.659,0,1,0,3.318,0,.425.425,0,0,1,.849,0A2.511,2.511,0,0,1,82.977,132.576Z" transform="translate(-32.188 -51.857)"/>
      <g id="Group_10" data-name="Group 10" transform="translate(34.788 60.032)">
        <path id="Path_142" data-name="Path 142" class="cls-14" d="M87.222,130.067a.425.425,0,0,0-.849,0,1.66,1.66,0,0,1-1.562,1.654v.849A2.509,2.509,0,0,0,87.222,130.067Z" transform="translate(-68.713 -111.889)"/>
        <path id="Path_143" data-name="Path 143" class="cls-14" d="M68.15,106.791s-.374-4.751-7.675-6.738l-2.495,7.677Z" transform="translate(-57.98 -100.053)"/>
      </g>
      <g id="Group_11" data-name="Group 11" transform="translate(42.455 60.032)">
        <path id="Path_144" data-name="Path 144" class="cls-21" d="M95.07,106.791s.374-4.751,7.675-6.738l2.495,7.677Z" transform="translate(-80.483 -100.053)"/>
        <path id="Path_145" data-name="Path 145" class="cls-21" d="M86.038,113.285v2.609h1.389v-6.326a8.1,8.1,0,0,0-8.093-8.093h-.483a8.093,8.093,0,0,0-8.093,8.093v6.326h1.188v-2.609H86.038Z" transform="translate(-70.758 -100.622)"/>
      </g>
      <path id="Path_146" data-name="Path 146" class="cls-22" d="M91.581,104.925a8.08,8.08,0,0,0-6.626-3.449h-.146v11.81h6.849v2.609h1.389v-6.326A8.05,8.05,0,0,0,91.581,104.925Z" transform="translate(-33.924 -40.59)"/>
    </g>
  </g>
</svg>
