<svg xmlns="http://www.w3.org/2000/svg" xmlns:xlink="http://www.w3.org/1999/xlink" width="148" height="109" viewBox="0 0 148 109">
  <defs>
    <style>
      .cls-1, .cls-3 {
        fill: #a4ccff;
      }

      .cls-1 {
        stroke: rgba(112,112,112,0);
      }

      .cls-2 {
        clip-path: url(#clip-path);
      }
    </style>
    <clipPath id="clip-path">
      <ellipse id="Ellipse_41" data-name="Ellipse 41" class="cls-1" cx="74" cy="54.5" rx="74" ry="54.5" transform="translate(0 0.5)"/>
    </clipPath>
  </defs>
  <g id="Mask_Group_11" data-name="Mask Group 11" class="cls-2" transform="translate(0 -0.5)">
    <g id="question" transform="translate(28.739 0.333)">
      <ellipse id="Ellipse_43" data-name="Ellipse 43" class="cls-3" cx="17.244" cy="12.712" rx="17.244" ry="12.712" transform="translate(27.59 83.05)"/>
      <path id="Path_103" data-name="Path 103" class="cls-3" d="M80.771,0C56.05,0,35.938,14.826,35.938,33.051v3.178H70.425V33.051c0-4.206,4.641-7.627,10.346-7.627s10.346,3.421,10.346,7.627a7.028,7.028,0,0,1-3.661,5.82l-23.928,15V76.694H98.014V65.623l11.776-7.381c10.05-6.3,15.813-15.477,15.813-25.191C125.6,14.826,105.492,0,80.771,0Z" transform="translate(-35.938)"/>
    </g>
  </g>
</svg>
