<svg xmlns="http://www.w3.org/2000/svg" xmlns:xlink="http://www.w3.org/1999/xlink" width="170" height="170" viewBox="0 0 170 170">
  <defs>
    <style>
      .cls-1 {
        fill: #e88191;
        stroke: #707070;
      }

      .cls-2 {
        clip-path: url(#clip-path);
      }

      .cls-3 {
        fill: #0f59a3;
      }

      .cls-3, .cls-4, .cls-5, .cls-6, .cls-7, .cls-9 {
        fill-rule: evenodd;
      }

      .cls-4 {
        fill: #89bcf2;
      }

      .cls-5 {
        fill: #6cadef;
      }

      .cls-6 {
        fill: #389fff;
      }

      .cls-7 {
        fill: #add4f6;
      }

      .cls-8, .cls-9 {
        fill: #013569;
      }
    </style>
    <clipPath id="clip-path">
      <circle id="Ellipse_60" data-name="Ellipse 60" class="cls-1" cx="85" cy="85" r="85"/>
    </clipPath>
  </defs>
  <g id="Mask_Group_14" data-name="Mask Group 14" class="cls-2">
    <g id="_013-woman" data-name="013-woman" transform="translate(13.279 0)">
      <g id="Group_12" data-name="Group 12" transform="translate(0)">
        <path id="Path_147" data-name="Path 147" class="cls-3" d="M51.284,161.614C28.538,138.742,43.35,93.771,43.35,72.395,43.35,43.037,66.579,19.2,95.191,19.2s51.841,23.835,51.841,53.192c0,21.29,14.692,65.986-7.661,88.941a53.043,53.043,0,0,0-11.1-3.646,15.916,15.916,0,0,1-8.374-4.76q-24.274,18.743-48.548,0a15.907,15.907,0,0,1-8.37,4.757A53.094,53.094,0,0,0,51.284,161.614Z" transform="translate(-23.907 -19.203)"/>
        <path id="Path_148" data-name="Path 148" class="cls-4" d="M77.079,123.585a33.175,33.175,0,0,0,18.549,5.671h0a33.169,33.169,0,0,0,18.548-5.67l1.607,20.5a15.932,15.932,0,0,0,12.49,13.6,53.084,53.084,0,0,1,33.673,23.148l5.4,8.364H23.907l5.4-8.365a53.1,53.1,0,0,1,33.672-23.151,15.929,15.929,0,0,0,12.487-13.6C75.988,139.961,76.564,127.69,77.079,123.585Z" transform="translate(-23.907 -19.203)"/>
        <path id="Path_149" data-name="Path 149" class="cls-5" d="M75.979,138.185c.37-5.219.749-11.8,1.1-14.6a33.175,33.175,0,0,0,18.549,5.671h0a33.169,33.169,0,0,0,18.548-5.67l1.141,14.563a29.242,29.242,0,0,1-19.689,7.584h0a29.241,29.241,0,0,1-19.649-7.548Z" transform="translate(-23.907 -19.203)"/>
        <path id="Path_150" data-name="Path 150" class="cls-6" d="M119.9,152.93a15.916,15.916,0,0,0,8.374,4.76,53.084,53.084,0,0,1,33.673,23.148l5.4,8.365H23.907l5.4-8.365a53.1,53.1,0,0,1,33.672-23.151,15.91,15.91,0,0,0,8.37-4.757Q95.626,171.637,119.9,152.93Z" transform="translate(-23.907 -19.203)"/>
        <path id="Path_151" data-name="Path 151" class="cls-7" d="M109.133,64.011c4.946-8.4,15.845,22.149,15.845,22.149v21.43a29.35,29.35,0,0,1-29.35,29.349h0a29.35,29.35,0,0,1-29.35-29.349V86.16C72.6,72.821,95.791,86.675,109.133,64.011Z" transform="translate(-23.907 -19.203)"/>
      </g>
      <path id="Path_152" data-name="Path 152" class="cls-8" d="M95.783,124.042a17.13,17.13,0,0,1-9.608-3.268,1.494,1.494,0,0,1,1.672-2.477c5.4,3.646,10.5,3.653,15.6.022a1.494,1.494,0,1,1,1.734,2.433A16.063,16.063,0,0,1,95.783,124.042Z" transform="translate(-23.907 -19.203)"/>
      <path id="Path_153" data-name="Path 153" class="cls-9" d="M112.192,89.229a3.059,3.059,0,1,1-3.059,3.059A3.06,3.06,0,0,1,112.192,89.229Z" transform="translate(-23.907 -19.203)"/>
      <path id="Path_154" data-name="Path 154" class="cls-9" d="M79.064,89.229a3.059,3.059,0,1,1-3.059,3.059A3.06,3.06,0,0,1,79.064,89.229Z" transform="translate(-23.907 -19.203)"/>
    </g>
  </g>
</svg>
