<svg xmlns="http://www.w3.org/2000/svg" xmlns:xlink="http://www.w3.org/1999/xlink" width="170" height="170" viewBox="0 0 170 170">
  <defs>
    <style>
      .cls-1 {
        fill: #fff;
        stroke: rgba(112,112,112,0);
      }

      .cls-2 {
        clip-path: url(#clip-path);
      }

      .cls-3 {
        fill: #a4ccff;
      }

      .cls-4 {
        fill: #65a9ff;
      }

      .cls-5 {
        fill: #89bcf2;
      }

      .cls-6 {
        fill: #add4f6;
      }

      .cls-7 {
        fill: #f9b54c;
      }

      .cls-8 {
        fill: #f4a200;
      }

      .cls-9 {
        fill: #59595b;
      }

      .cls-10 {
        fill: #272525;
      }

      .cls-11 {
        fill: #324a5e;
      }

      .cls-12 {
        fill: #2b3b4e;
      }

      .cls-13 {
        fill: #fd8469;
      }

      .cls-14 {
        fill: #fc6f58;
      }

      .cls-15 {
        fill: #935635;
      }

      .cls-16 {
        fill: #804000;
      }

      .cls-17 {
        fill: #b97850;
      }

      .cls-18 {
        fill: #ffd15d;
      }

      .cls-19 {
        fill: #ff6472;
      }

      .cls-20 {
        fill: #c75163;
      }

      .cls-21 {
        fill: #f1543f;
      }

      .cls-22 {
        fill: #c1321f;
      }
    </style>
    <clipPath id="clip-path">
      <circle id="Ellipse_113" data-name="Ellipse 113" class="cls-1" cx="85" cy="85" r="85" transform="translate(530 1120)"/>
    </clipPath>
  </defs>
  <g id="Mask_Group_18" data-name="Mask Group 18" class="cls-2" transform="translate(-530 -1120)">
    <g id="_031-family" data-name="031-family" transform="translate(530 1120)">
      <circle id="Ellipse_100" data-name="Ellipse 100" class="cls-3" cx="85" cy="85" r="85"/>
      <path id="Path_502" data-name="Path 502" class="cls-4" d="M169.931,88.272,134.206,52.546,108.663,99.3,66.455,57.092,46.841,74.7,25.172,91.455,102.013,168.3A85.031,85.031,0,0,0,169.931,88.272Z" transform="translate(0 0)"/>
      <path id="Path_503" data-name="Path 503" class="cls-5" d="M126.514,107.173V99.994H113.568v7.179a1.037,1.037,0,0,1-1.037,1.037H103.61v24.771h32.861V108.21h-8.92A1.037,1.037,0,0,1,126.514,107.173Z" transform="translate(0 0)"/>
      <path id="Path_504" data-name="Path 504" class="cls-4" d="M136.472,108.21h-8.921a1.037,1.037,0,0,1-1.037-1.037V99.994h-6.769v32.986h16.727V108.21Z" transform="translate(0 0)"/>
      <circle id="Ellipse_101" data-name="Ellipse 101" class="cls-5" cx="5.174" cy="5.174" r="5.174" transform="translate(93.351 79.78)"/>
      <circle id="Ellipse_102" data-name="Ellipse 102" class="cls-5" cx="5.174" cy="5.174" r="5.174" transform="translate(135.279 79.78)"/>
      <path id="Path_505" data-name="Path 505" class="cls-6" d="M120.073,106.5h-1.166A19.525,19.525,0,0,1,99.382,86.974V69.147a19.525,19.525,0,0,1,19.525-19.525h1.166A19.525,19.525,0,0,1,139.6,69.147V86.974A19.525,19.525,0,0,1,120.073,106.5Z" transform="translate(0 0)"/>
      <path id="Path_506" data-name="Path 506" class="cls-5" d="M120.073,49.623h-.328V106.5h.328A19.525,19.525,0,0,0,139.6,86.974V69.148A19.525,19.525,0,0,0,120.073,49.623Z" transform="translate(0 0)"/>
      <path id="Path_507" data-name="Path 507" class="cls-7" d="M137.48,56.221a21.167,21.167,0,0,0-17.357-9.036h-1.266a21.2,21.2,0,0,0-21.2,21.2V84.955h3.112V76.2h0c9.444-.959,18.73-2.812,26.869-6.881a48.68,48.68,0,0,0,10.045,8.8v6.835h3.638V68.383A21.1,21.1,0,0,0,137.48,56.221Z" transform="translate(0 0)"/>
      <path id="Path_508" data-name="Path 508" class="cls-8" d="M137.48,56.221a21.167,21.167,0,0,0-17.357-9.036h-.378V72.508a56.048,56.048,0,0,0,7.893-3.191,48.68,48.68,0,0,0,10.045,8.8v6.835h3.638V68.383A21.1,21.1,0,0,0,137.48,56.221Z" transform="translate(0 0)"/>
      <circle id="Ellipse_103" data-name="Ellipse 103" class="cls-9" cx="2.011" cy="2.011" r="2.011" transform="translate(107.997 80.648)"/>
      <circle id="Ellipse_104" data-name="Ellipse 104" class="cls-10" cx="2.011" cy="2.011" r="2.011" transform="translate(126.96 80.648)"/>
      <path id="Path_509" data-name="Path 509" class="cls-11" d="M152.9,136.132v-12.9a15.02,15.02,0,0,0-15.02-15.02H131c0,6.05-10.954,11.925-10.954,11.925s-10.954-5.875-10.954-11.925H102.2a15.02,15.02,0,0,0-15.02,15.02v46.743A84.872,84.872,0,0,0,152.9,136.132Z" transform="translate(0 0)"/>
      <path id="Path_510" data-name="Path 510" class="cls-12" d="M137.883,108.21H131c0,6.05-10.954,11.925-10.954,11.925l-.173-.1v42.5a85.325,85.325,0,0,0,33.035-26.4v-12.9A15.021,15.021,0,0,0,137.883,108.21Z" transform="translate(0 0)"/>
      <path id="Path_511" data-name="Path 511" class="cls-13" d="M119.489,99.136a6.577,6.577,0,0,1-6.57-6.57,1.112,1.112,0,0,1,2.225,0,4.346,4.346,0,1,0,8.693,0,1.112,1.112,0,1,1,2.225,0A6.58,6.58,0,0,1,119.489,99.136Z" transform="translate(0 0)"/>
      <path id="Path_512" data-name="Path 512" class="cls-14" d="M126.059,92.567a1.112,1.112,0,0,0-2.225,0,4.348,4.348,0,0,1-4.091,4.333v2.224A6.572,6.572,0,0,0,126.059,92.567Z" transform="translate(0 0)"/>
      <path id="Path_513" data-name="Path 513" class="cls-15" d="M28.085,86.475v29.449l21.939-1.436V85.039Z" transform="translate(0 0)"/>
      <path id="Path_514" data-name="Path 514" class="cls-16" d="M71.967,83.6,50.023,85.038v29.449l21.944-1.436Z" transform="translate(0 0)"/>
      <path id="Path_515" data-name="Path 515" class="cls-5" d="M56.559,110.283v-7.2H43.572v7.2a1.041,1.041,0,0,1-1.041,1.041h-8.95v24.851H66.55V111.323H57.6A1.041,1.041,0,0,1,56.559,110.283Z" transform="translate(0 0)"/>
      <path id="Path_516" data-name="Path 516" class="cls-4" d="M66.55,111.323H57.6a1.041,1.041,0,0,1-1.041-1.041v-7.2H50.023v33.093H66.55V111.323Z" transform="translate(0 0)"/>
      <circle id="Ellipse_105" data-name="Ellipse 105" class="cls-5" cx="5.192" cy="5.192" r="5.192" transform="translate(23.84 82.802)"/>
      <circle id="Ellipse_106" data-name="Ellipse 106" class="cls-5" cx="5.192" cy="5.192" r="5.192" transform="translate(65.911 82.802)"/>
      <path id="Path_517" data-name="Path 517" class="cls-6" d="M50.65,109.607H49.48A19.588,19.588,0,0,1,29.892,90.019V72.134A19.588,19.588,0,0,1,49.48,52.547h1.17A19.588,19.588,0,0,1,70.238,72.134V90.019A19.588,19.588,0,0,1,50.65,109.607Z" transform="translate(0 0)"/>
      <path id="Path_518" data-name="Path 518" class="cls-5" d="M50.65,52.546h-.627v57.061h.627A19.588,19.588,0,0,0,70.238,90.019V72.134A19.588,19.588,0,0,0,50.65,52.546Z" transform="translate(0 0)"/>
      <path id="Path_519" data-name="Path 519" class="cls-17" d="M68.114,59.166A21.235,21.235,0,0,0,50.7,50.1H49.43A21.334,21.334,0,0,0,28.086,71.368V101.3h3.2v-22.1h0c9.475-.963,18.791-2.821,26.956-6.9a48.864,48.864,0,0,0,10.077,8.832v20.169h3.65V71.368A21.168,21.168,0,0,0,68.114,59.166Z"/>
      <path id="Path_520" data-name="Path 520" class="cls-15" d="M68.114,59.166A21.235,21.235,0,0,0,50.7,50.1h-.677V75.6A56.467,56.467,0,0,0,58.24,72.3a48.864,48.864,0,0,0,10.077,8.832v20.169h3.65V71.369A21.166,21.166,0,0,0,68.114,59.166Z" transform="translate(0)"/>
      <circle id="Ellipse_107" data-name="Ellipse 107" class="cls-9" cx="2.017" cy="2.017" r="2.017" transform="translate(38.538 83.67)"/>
      <circle id="Ellipse_108" data-name="Ellipse 108" class="cls-10" cx="2.017" cy="2.017" r="2.017" transform="translate(57.557 83.67)"/>
      <path id="Path_521" data-name="Path 521" class="cls-13" d="M50.065,102.22a6.6,6.6,0,0,1-6.591-6.591,1.116,1.116,0,1,1,2.231,0,4.36,4.36,0,0,0,8.72,0,1.116,1.116,0,1,1,2.231,0A6.6,6.6,0,0,1,50.065,102.22Z" transform="translate(0 0)"/>
      <path id="Path_522" data-name="Path 522" class="cls-14" d="M55.541,94.514a1.115,1.115,0,0,0-1.116,1.116,4.365,4.365,0,0,1-4.36,4.36l-.042,0v2.231l.042,0a6.6,6.6,0,0,0,6.59-6.591A1.115,1.115,0,0,0,55.541,94.514Z" transform="translate(0 0)"/>
      <path id="Path_523" data-name="Path 523" class="cls-18" d="M67.964,111.323h-6.91c0,6.07-4.92,19.326-10.989,19.326s-10.989-13.256-10.989-19.326H32.166A15.069,15.069,0,0,0,17.1,126.392v9.74a84.95,84.95,0,0,0,54.95,32.888,66.024,66.024,0,0,0,10.987-4.912V126.392A15.068,15.068,0,0,0,67.964,111.323Z" transform="translate(0 0)"/>
      <path id="Path_524" data-name="Path 524" class="cls-7" d="M67.964,111.323h-6.91c0,6.07-4.92,19.326-10.989,19.326l-.042,0v31.847a84.628,84.628,0,0,0,33.01,7.482V126.391A15.068,15.068,0,0,0,67.964,111.323Z" transform="translate(0 0)"/>
      <path id="Path_525" data-name="Path 525" class="cls-5" d="M89.119,139.644v-4.567H80.882v4.567a.66.66,0,0,1-.66.66H74.546v15.761H95.455V140.3H89.779A.661.661,0,0,1,89.119,139.644Z" transform="translate(0 0)"/>
      <path id="Path_526" data-name="Path 526" class="cls-4" d="M95.455,140.3H89.779a.66.66,0,0,1-.66-.66v-4.567H84.812v20.988H95.455Z" transform="translate(0 0)"/>
      <circle id="Ellipse_109" data-name="Ellipse 109" class="cls-5" cx="3.292" cy="3.292" r="3.292" transform="translate(68.017 122.216)"/>
      <circle id="Ellipse_110" data-name="Ellipse 110" class="cls-5" cx="3.292" cy="3.292" r="3.292" transform="translate(94.696 122.216)"/>
      <path id="Path_527" data-name="Path 527" class="cls-6" d="M85.02,139.214h-.742a12.423,12.423,0,0,1-12.423-12.423V115.449a12.423,12.423,0,0,1,12.423-12.423h.742a12.423,12.423,0,0,1,12.423,12.423v11.343A12.422,12.422,0,0,1,85.02,139.214Z" transform="translate(0 0)"/>
      <path id="Path_528" data-name="Path 528" class="cls-5" d="M85.02,103.027h-.209v36.188h.209a12.423,12.423,0,0,0,12.423-12.423V115.45A12.423,12.423,0,0,0,85.02,103.027Z" transform="translate(0 0)"/>
      <circle id="Ellipse_111" data-name="Ellipse 111" class="cls-9" cx="1.279" cy="1.279" r="1.279" transform="translate(77.338 122.764)"/>
      <circle id="Ellipse_112" data-name="Ellipse 112" class="cls-10" cx="1.279" cy="1.279" r="1.279" transform="translate(89.399 122.764)"/>
      <path id="Path_529" data-name="Path 529" class="cls-19" d="M96.352,140.3H91.97c0,3.849-6.969,7.587-6.969,7.587s-6.969-3.738-6.969-7.587H73.649a9.556,9.556,0,0,0-9.557,9.557v17.545a85.538,85.538,0,0,0,41.816,0V149.861A9.557,9.557,0,0,0,96.352,140.3Z" transform="translate(0 0)"/>
      <path id="Path_530" data-name="Path 530" class="cls-20" d="M96.352,140.3H91.97c0,3.849-6.969,7.587-6.969,7.587s-.069-.037-.191-.107V170L85,170a85.181,85.181,0,0,0,20.909-2.595V149.861A9.558,9.558,0,0,0,96.352,140.3Z" transform="translate(0 0)"/>
      <path id="Path_531" data-name="Path 531" class="cls-13" d="M84.649,134.531a4.185,4.185,0,0,1-4.18-4.18.708.708,0,0,1,1.415,0,2.765,2.765,0,1,0,5.53,0,.708.708,0,0,1,1.415,0A4.185,4.185,0,0,1,84.649,134.531Z" transform="translate(0 0)"/>
      <g id="Group_61" data-name="Group 61" transform="translate(57.98 100.053)">
        <path id="Path_532" data-name="Path 532" class="cls-14" d="M88.829,130.35a.708.708,0,0,0-1.415,0,2.767,2.767,0,0,1-2.6,2.757v1.415A4.182,4.182,0,0,0,88.829,130.35Z" transform="translate(-57.98 -100.053)"/>
        <path id="Path_533" data-name="Path 533" class="cls-14" d="M74.93,111.283s-.624-7.919-12.792-11.23l-4.158,12.8Z" transform="translate(-57.98 -100.053)"/>
      </g>
      <g id="Group_62" data-name="Group 62" transform="translate(70.758 100.053)">
        <path id="Path_534" data-name="Path 534" class="cls-21" d="M95.07,111.283s.624-7.919,12.792-11.23l4.158,12.8Z" transform="translate(-70.758 -100.053)"/>
        <path id="Path_535" data-name="Path 535" class="cls-21" d="M96.225,121.159v4.349h2.315V114.963a13.494,13.494,0,0,0-13.488-13.488h-.806a13.488,13.488,0,0,0-13.488,13.488v10.543h1.98v-4.349H96.224Z" transform="translate(-70.758 -100.053)"/>
      </g>
      <path id="Path_536" data-name="Path 536" class="cls-22" d="M96.1,107.225a13.467,13.467,0,0,0-11.044-5.749h-.243v19.683H96.225v4.349h2.315V114.964A13.417,13.417,0,0,0,96.1,107.225Z" transform="translate(0 0)"/>
    </g>
  </g>
</svg>
