<svg xmlns="http://www.w3.org/2000/svg" xmlns:xlink="http://www.w3.org/1999/xlink" width="260" height="260" viewBox="0 0 260 260">
  <defs>
    <style>
      .cls-1 {
        fill: #fff;
        stroke: #707070;
      }

      .cls-2 {
        clip-path: url(#clip-path);
      }

      .cls-3 {
        fill: #f5f5f5;
      }

      .cls-4 {
        fill: #ff4b55;
      }

      .cls-5 {
        fill: #41479b;
      }
    </style>
    <clipPath id="clip-path">
      <circle id="Ellipse_328" data-name="Ellipse 328" class="cls-1" cx="130" cy="130" r="130" transform="translate(220 4169)"/>
    </clipPath>
  </defs>
  <g id="Mask_Group_31" data-name="Mask Group 31" class="cls-2" transform="translate(-220 -4169)">
    <g id="united-states" transform="translate(220 4169)">
      <path id="Path_1361" data-name="Path 1361" class="cls-3" d="M319.4,287.587H5.6c-3.094,0-5.6-3.064-5.6-6.842V34.429c0-3.779,2.509-6.842,5.6-6.842H319.4c3.094,0,5.6,3.064,5.6,6.842V280.744C325,284.523,322.49,287.587,319.4,287.587Z" transform="translate(0 -27.586)"/>
      <g id="Group_275" data-name="Group 275" transform="translate(0)">
        <path id="Path_1362" data-name="Path 1362" class="cls-4" d="M325,43.022H0V32.867a5.45,5.45,0,0,1,5.6-5.281H319.4a5.45,5.45,0,0,1,5.6,5.281V43.022Z" transform="translate(0 -27.586)"/>
        <rect id="Rectangle_93" data-name="Rectangle 93" class="cls-4" width="325" height="15.436" transform="translate(0 81.522)"/>
        <rect id="Rectangle_94" data-name="Rectangle 94" class="cls-4" width="325" height="15.436" transform="translate(0 40.759)"/>
        <path id="Path_1363" data-name="Path 1363" class="cls-4" d="M325,91.4H5.6A5.45,5.45,0,0,1,0,86.123V75.968H325Z" transform="translate(0 46.314)"/>
        <rect id="Rectangle_95" data-name="Rectangle 95" class="cls-4" width="325" height="15.436" transform="translate(0 203.81)"/>
        <path id="Path_1364" data-name="Path 1364" class="cls-4" d="M319.4,139.786H5.6A5.45,5.45,0,0,1,0,134.5V124.35H325v10.155A5.449,5.449,0,0,1,319.4,139.786Z" transform="translate(0 120.215)"/>
        <rect id="Rectangle_96" data-name="Rectangle 96" class="cls-4" width="325" height="15.436" transform="translate(0 163.047)"/>
      </g>
      <path id="Path_1365" data-name="Path 1365" class="cls-5" d="M147.848,27.587H5.687C2.546,27.587,0,30.822,0,34.813V168.234c0,3.991,2.546,7.227,5.687,7.227H147.848c3.14,0,5.687-3.236,5.687-7.227V34.813C153.534,30.822,150.988,27.587,147.848,27.587Z" transform="translate(0 -27.586)"/>
      <g id="Group_276" data-name="Group 276" transform="translate(0 17.875)">
        <path id="Path_1366" data-name="Path 1366" class="cls-3" d="M11.477,34.187l1.3,4.6,4.118.037c.533.006.754.806.325,1.179l-3.312,2.882,1.243,4.624c.161.6-.418,1.095-.852.729l-3.35-2.82L7.6,48.24c-.434.365-1.012-.13-.852-.729l1.243-4.624L4.68,40.006c-.429-.374-.208-1.174.325-1.179l4.118-.037,1.3-4.6A.533.533,0,0,1,11.477,34.187Z" transform="translate(-4.454 -33.74)"/>
        <path id="Path_1367" data-name="Path 1367" class="cls-3" d="M11.477,43.766l1.3,4.6L16.9,48.4c.533.006.754.806.325,1.179l-3.312,2.882,1.243,4.624c.161.6-.418,1.095-.852.729L10.951,55,7.6,57.819c-.434.365-1.012-.13-.852-.729l1.243-4.624L4.68,49.585c-.429-.374-.208-1.174.325-1.179l4.118-.037,1.3-4.6A.533.533,0,0,1,11.477,43.766Z" transform="translate(-4.454 -19.249)"/>
        <path id="Path_1368" data-name="Path 1368" class="cls-3" d="M11.477,53.345l1.3,4.6,4.118.037c.533.006.754.806.325,1.179l-3.312,2.882,1.243,4.624c.161.6-.418,1.095-.852.729l-3.35-2.82L7.6,67.4c-.434.365-1.012-.13-.852-.729l1.243-4.624L4.68,59.164c-.429-.374-.208-1.174.325-1.179l4.118-.037,1.3-4.6A.533.533,0,0,1,11.477,53.345Z" transform="translate(-4.454 -4.758)"/>
        <path id="Path_1369" data-name="Path 1369" class="cls-3" d="M11.477,62.925l1.3,4.6,4.118.037c.533.005.754.806.325,1.179l-3.312,2.882,1.243,4.624c.161.6-.418,1.095-.852.729l-3.35-2.82L7.6,76.979c-.434.365-1.012-.13-.852-.729l1.243-4.624L4.68,68.744c-.429-.374-.208-1.174.325-1.179l4.118-.037,1.3-4.6A.533.533,0,0,1,11.477,62.925Z" transform="translate(-4.454 9.733)"/>
        <path id="Path_1370" data-name="Path 1370" class="cls-3" d="M11.477,72.505l1.3,4.6,4.118.037c.533.005.754.806.325,1.179L13.911,81.2l1.243,4.624c.161.6-.418,1.095-.852.729l-3.35-2.82L7.6,86.558c-.434.365-1.012-.13-.852-.729l1.243-4.624L4.68,78.324c-.429-.374-.208-1.174.325-1.179l4.118-.037,1.3-4.6A.533.533,0,0,1,11.477,72.505Z" transform="translate(-4.454 24.224)"/>
        <path id="Path_1371" data-name="Path 1371" class="cls-3" d="M18.913,38.883l1.3,4.6,4.118.037c.533.005.754.806.325,1.179l-3.312,2.882,1.243,4.624c.161.6-.418,1.095-.852.729l-3.35-2.821-3.35,2.821c-.434.365-1.012-.13-.852-.729l1.243-4.624L12.115,44.7c-.429-.374-.208-1.174.325-1.179l4.118-.037,1.3-4.6A.533.533,0,0,1,18.913,38.883Z" transform="translate(3.971 -26.635)"/>
        <path id="Path_1372" data-name="Path 1372" class="cls-3" d="M18.913,48.463l1.3,4.6,4.118.037c.533.006.754.806.325,1.179l-3.312,2.882,1.243,4.624c.161.6-.418,1.095-.852.729L18.387,59.7l-3.35,2.821c-.434.365-1.012-.13-.852-.729l1.243-4.624-3.312-2.882c-.429-.374-.208-1.174.325-1.179l4.118-.037,1.3-4.6A.533.533,0,0,1,18.913,48.463Z" transform="translate(3.971 -12.144)"/>
        <path id="Path_1373" data-name="Path 1373" class="cls-3" d="M18.913,58.043l1.3,4.6,4.118.037c.533.006.754.806.325,1.179l-3.312,2.882,1.243,4.624c.161.6-.418,1.095-.852.729l-3.35-2.821L15.037,72.1c-.434.365-1.012-.13-.852-.729l1.243-4.624L12.115,63.86c-.429-.374-.208-1.174.325-1.179l4.118-.037,1.3-4.6A.533.533,0,0,1,18.913,58.043Z" transform="translate(3.971 2.347)"/>
        <path id="Path_1374" data-name="Path 1374" class="cls-3" d="M18.913,67.622l1.3,4.6,4.118.037c.533.005.754.806.325,1.179l-3.312,2.882,1.243,4.624c.161.6-.418,1.095-.852.729l-3.35-2.821-3.35,2.821c-.434.365-1.012-.13-.852-.729l1.243-4.624-3.312-2.882c-.429-.374-.208-1.174.325-1.179l4.118-.037,1.3-4.6A.533.533,0,0,1,18.913,67.622Z" transform="translate(3.971 16.838)"/>
        <path id="Path_1375" data-name="Path 1375" class="cls-3" d="M26.348,34.187l1.3,4.6,4.118.037c.533.006.754.806.325,1.179l-3.312,2.882,1.243,4.624c.161.6-.418,1.095-.852.729l-3.35-2.821-3.35,2.821c-.434.365-1.012-.13-.852-.729l1.243-4.624L19.551,40c-.429-.374-.208-1.174.325-1.179l4.118-.037,1.3-4.6A.533.533,0,0,1,26.348,34.187Z" transform="translate(12.396 -33.74)"/>
        <path id="Path_1376" data-name="Path 1376" class="cls-3" d="M26.348,43.766l1.3,4.6,4.118.037c.533.006.754.806.325,1.179l-3.312,2.882,1.243,4.624c.161.6-.418,1.095-.852.729L25.822,55l-3.35,2.821c-.434.365-1.012-.13-.852-.729l1.243-4.624-3.312-2.882c-.429-.374-.208-1.174.325-1.179l4.118-.037,1.3-4.6A.533.533,0,0,1,26.348,43.766Z" transform="translate(12.396 -19.249)"/>
        <path id="Path_1377" data-name="Path 1377" class="cls-3" d="M26.348,53.346l1.3,4.6,4.118.037c.533.005.754.806.325,1.179l-3.312,2.882,1.243,4.624c.161.6-.418,1.095-.852.729l-3.35-2.821L22.472,67.4c-.434.365-1.012-.13-.852-.729l1.243-4.624-3.312-2.882c-.429-.374-.208-1.174.325-1.179l4.118-.037,1.3-4.6A.533.533,0,0,1,26.348,53.346Z" transform="translate(12.396 -4.758)"/>
        <path id="Path_1378" data-name="Path 1378" class="cls-3" d="M26.348,62.926l1.3,4.6,4.118.037c.533.006.754.806.325,1.179l-3.312,2.882,1.243,4.624c.161.6-.418,1.095-.852.729l-3.35-2.821-3.35,2.821c-.434.365-1.012-.13-.852-.729l1.243-4.624-3.312-2.882c-.429-.374-.208-1.174.325-1.179l4.118-.037,1.3-4.6A.533.533,0,0,1,26.348,62.926Z" transform="translate(12.396 9.733)"/>
        <path id="Path_1379" data-name="Path 1379" class="cls-3" d="M26.348,72.505l1.3,4.6,4.118.037c.533.005.754.806.325,1.179L28.781,81.2l1.243,4.624c.161.6-.418,1.095-.852.729l-3.35-2.821-3.35,2.821c-.434.365-1.012-.13-.852-.729L22.863,81.2l-3.312-2.882c-.429-.374-.208-1.174.325-1.179l4.118-.037,1.3-4.6A.533.533,0,0,1,26.348,72.505Z" transform="translate(12.396 24.224)"/>
        <path id="Path_1380" data-name="Path 1380" class="cls-3" d="M33.784,38.883l1.3,4.6,4.118.037c.533.005.754.806.325,1.179l-3.312,2.882,1.243,4.624c.161.6-.418,1.095-.852.729l-3.35-2.821-3.35,2.821c-.434.365-1.012-.13-.852-.729L30.3,47.583,26.986,44.7c-.429-.374-.208-1.174.325-1.179l4.118-.037,1.3-4.6A.533.533,0,0,1,33.784,38.883Z" transform="translate(20.821 -26.635)"/>
        <path id="Path_1381" data-name="Path 1381" class="cls-3" d="M33.784,48.463l1.3,4.6L39.2,53.1c.533.006.754.806.325,1.179l-3.312,2.882,1.243,4.624c.161.6-.418,1.095-.852.729L33.258,59.7l-3.35,2.821c-.434.365-1.012-.13-.852-.729L30.3,57.163l-3.312-2.882c-.429-.374-.208-1.174.325-1.179l4.118-.037,1.3-4.6A.533.533,0,0,1,33.784,48.463Z" transform="translate(20.821 -12.144)"/>
        <path id="Path_1382" data-name="Path 1382" class="cls-3" d="M33.784,58.043l1.3,4.6,4.118.037c.533.006.754.806.325,1.179l-3.312,2.882,1.243,4.624c.161.6-.418,1.095-.852.729l-3.35-2.821L29.908,72.1c-.434.365-1.012-.13-.852-.729L30.3,66.742,26.986,63.86c-.429-.374-.208-1.174.325-1.179l4.118-.037,1.3-4.6A.533.533,0,0,1,33.784,58.043Z" transform="translate(20.821 2.347)"/>
        <path id="Path_1383" data-name="Path 1383" class="cls-3" d="M33.784,67.622l1.3,4.6,4.118.037c.533.005.754.806.325,1.179l-3.312,2.882,1.243,4.624c.161.6-.418,1.095-.852.729l-3.35-2.821-3.35,2.821c-.434.365-1.012-.13-.852-.729L30.3,76.321l-3.312-2.882c-.429-.374-.208-1.174.325-1.179l4.118-.037,1.3-4.6A.533.533,0,0,1,33.784,67.622Z" transform="translate(20.821 16.838)"/>
        <path id="Path_1384" data-name="Path 1384" class="cls-3" d="M41.219,34.187l1.3,4.6,4.118.037c.533.006.754.806.325,1.179l-3.312,2.882,1.243,4.624c.161.6-.418,1.095-.852.729l-3.35-2.821-3.35,2.821c-.434.365-1.012-.13-.852-.729l1.243-4.624L34.421,40c-.429-.374-.208-1.174.325-1.179l4.118-.037,1.3-4.6A.533.533,0,0,1,41.219,34.187Z" transform="translate(29.246 -33.74)"/>
        <path id="Path_1385" data-name="Path 1385" class="cls-3" d="M41.219,43.766l1.3,4.6,4.118.037c.533.006.754.806.325,1.179l-3.312,2.882,1.243,4.624c.161.6-.418,1.095-.852.729L40.693,55l-3.35,2.821c-.434.365-1.012-.13-.852-.729l1.243-4.624-3.312-2.882c-.429-.374-.208-1.174.325-1.179l4.118-.037,1.3-4.6A.533.533,0,0,1,41.219,43.766Z" transform="translate(29.246 -19.249)"/>
        <path id="Path_1386" data-name="Path 1386" class="cls-3" d="M41.219,53.346l1.3,4.6,4.118.037c.533.005.754.806.325,1.179l-3.312,2.882,1.243,4.624c.161.6-.418,1.095-.852.729l-3.35-2.821L37.343,67.4c-.434.365-1.012-.13-.852-.729l1.243-4.624-3.312-2.882c-.429-.374-.208-1.174.325-1.179l4.118-.037,1.3-4.6A.533.533,0,0,1,41.219,53.346Z" transform="translate(29.246 -4.758)"/>
        <path id="Path_1387" data-name="Path 1387" class="cls-3" d="M41.219,62.926l1.3,4.6,4.118.037c.533.006.754.806.325,1.179l-3.312,2.882,1.243,4.624c.161.6-.418,1.095-.852.729l-3.35-2.821-3.35,2.821c-.434.365-1.012-.13-.852-.729l1.243-4.624-3.312-2.882c-.429-.374-.208-1.174.325-1.179l4.118-.037,1.3-4.6A.533.533,0,0,1,41.219,62.926Z" transform="translate(29.246 9.733)"/>
        <path id="Path_1388" data-name="Path 1388" class="cls-3" d="M41.219,72.505l1.3,4.6,4.118.037c.533.005.754.806.325,1.179L43.652,81.2l1.243,4.624c.161.6-.418,1.095-.852.729l-3.35-2.821-3.35,2.821c-.434.365-1.012-.13-.852-.729L37.734,81.2l-3.312-2.882c-.429-.374-.208-1.174.325-1.179l4.118-.037,1.3-4.6A.533.533,0,0,1,41.219,72.505Z" transform="translate(29.246 24.224)"/>
        <path id="Path_1389" data-name="Path 1389" class="cls-3" d="M48.654,38.883l1.3,4.6,4.118.037c.533.005.754.806.325,1.179l-3.312,2.882,1.243,4.624c.161.6-.418,1.095-.852.729l-3.35-2.821-3.35,2.821c-.434.365-1.012-.13-.852-.729l1.243-4.624L41.857,44.7c-.429-.374-.208-1.174.325-1.179l4.118-.037,1.3-4.6A.533.533,0,0,1,48.654,38.883Z" transform="translate(37.671 -26.635)"/>
        <path id="Path_1390" data-name="Path 1390" class="cls-3" d="M48.654,48.463l1.3,4.6,4.118.037c.533.006.754.806.325,1.179l-3.312,2.882,1.243,4.624c.161.6-.418,1.095-.852.729L48.128,59.7l-3.35,2.821c-.434.365-1.012-.13-.852-.729l1.243-4.624-3.312-2.882c-.429-.374-.208-1.174.325-1.179l4.118-.037,1.3-4.6A.533.533,0,0,1,48.654,48.463Z" transform="translate(37.671 -12.144)"/>
        <path id="Path_1391" data-name="Path 1391" class="cls-3" d="M48.654,58.043l1.3,4.6,4.118.037c.533.006.754.806.325,1.179l-3.312,2.882,1.243,4.624c.161.6-.418,1.095-.852.729l-3.35-2.821L44.779,72.1c-.434.365-1.012-.13-.852-.729l1.243-4.624L41.857,63.86c-.429-.374-.208-1.174.325-1.179l4.118-.037,1.3-4.6A.533.533,0,0,1,48.654,58.043Z" transform="translate(37.671 2.347)"/>
        <path id="Path_1392" data-name="Path 1392" class="cls-3" d="M48.654,67.622l1.3,4.6,4.118.037c.533.005.754.806.325,1.179l-3.312,2.882,1.243,4.624c.161.6-.418,1.095-.852.729l-3.35-2.821-3.35,2.821c-.434.365-1.012-.13-.852-.729l1.243-4.624-3.312-2.882c-.429-.374-.208-1.174.325-1.179l4.118-.037,1.3-4.6A.533.533,0,0,1,48.654,67.622Z" transform="translate(37.671 16.838)"/>
        <path id="Path_1393" data-name="Path 1393" class="cls-3" d="M56.09,34.187l1.3,4.6,4.118.037c.533.006.754.806.325,1.179l-3.312,2.882,1.243,4.624c.161.6-.418,1.095-.852.729l-3.35-2.821-3.35,2.821c-.434.365-1.012-.13-.852-.729L52.6,42.887,49.293,40c-.429-.374-.208-1.174.325-1.179l4.118-.037,1.3-4.6A.533.533,0,0,1,56.09,34.187Z" transform="translate(46.097 -33.74)"/>
        <path id="Path_1394" data-name="Path 1394" class="cls-3" d="M56.09,43.766l1.3,4.6,4.118.037c.533.006.754.806.325,1.179l-3.312,2.882,1.243,4.624c.161.6-.418,1.095-.852.729L55.564,55l-3.35,2.821c-.434.365-1.012-.13-.852-.729L52.6,52.466l-3.312-2.882c-.429-.374-.208-1.174.325-1.179l4.118-.037,1.3-4.6A.533.533,0,0,1,56.09,43.766Z" transform="translate(46.097 -19.249)"/>
        <path id="Path_1395" data-name="Path 1395" class="cls-3" d="M56.09,53.346l1.3,4.6,4.118.037c.533.005.754.806.325,1.179l-3.312,2.882,1.243,4.624c.161.6-.418,1.095-.852.729l-3.35-2.821L52.214,67.4c-.434.365-1.012-.13-.852-.729L52.6,62.045l-3.312-2.882c-.429-.374-.208-1.174.325-1.179l4.118-.037,1.3-4.6A.533.533,0,0,1,56.09,53.346Z" transform="translate(46.097 -4.758)"/>
        <path id="Path_1396" data-name="Path 1396" class="cls-3" d="M56.09,62.926l1.3,4.6,4.118.037c.533.006.754.806.325,1.179l-3.312,2.882,1.243,4.624c.161.6-.418,1.095-.852.729l-3.35-2.821-3.35,2.821c-.434.365-1.012-.13-.852-.729L52.6,71.625l-3.312-2.882c-.429-.374-.208-1.174.325-1.179l4.118-.037,1.3-4.6A.533.533,0,0,1,56.09,62.926Z" transform="translate(46.097 9.733)"/>
        <path id="Path_1397" data-name="Path 1397" class="cls-3" d="M56.09,72.505l1.3,4.6,4.118.037c.533.005.754.806.325,1.179L58.523,81.2l1.243,4.624c.161.6-.418,1.095-.852.729l-3.35-2.821-3.35,2.821c-.434.365-1.012-.13-.852-.729L52.6,81.2l-3.312-2.882c-.429-.374-.208-1.174.325-1.179l4.118-.037,1.3-4.6A.533.533,0,0,1,56.09,72.505Z" transform="translate(46.097 24.224)"/>
        <path id="Path_1398" data-name="Path 1398" class="cls-3" d="M63.525,38.883l1.3,4.6,4.118.037c.533.005.754.806.325,1.179l-3.312,2.882L67.2,52.207c.161.6-.418,1.095-.852.729L63,50.115l-3.35,2.821c-.434.365-1.012-.13-.852-.729l1.243-4.624L56.728,44.7c-.429-.374-.208-1.174.325-1.179l4.118-.037,1.3-4.6A.533.533,0,0,1,63.525,38.883Z" transform="translate(54.522 -26.635)"/>
        <path id="Path_1399" data-name="Path 1399" class="cls-3" d="M63.525,48.463l1.3,4.6,4.118.037c.533.006.754.806.325,1.179l-3.312,2.882L67.2,61.787c.161.6-.418,1.095-.852.729L63,59.7l-3.35,2.821c-.434.365-1.012-.13-.852-.729l1.243-4.624-3.312-2.882c-.429-.374-.208-1.174.325-1.179l4.118-.037,1.3-4.6A.533.533,0,0,1,63.525,48.463Z" transform="translate(54.522 -12.144)"/>
        <path id="Path_1400" data-name="Path 1400" class="cls-3" d="M63.525,58.043l1.3,4.6,4.118.037c.533.006.754.806.325,1.179l-3.312,2.882L67.2,71.367c.161.6-.418,1.095-.852.729L63,69.275,59.65,72.1c-.434.365-1.012-.13-.852-.729l1.243-4.624L56.728,63.86c-.429-.374-.208-1.174.325-1.179l4.118-.037,1.3-4.6A.533.533,0,0,1,63.525,58.043Z" transform="translate(54.522 2.347)"/>
        <path id="Path_1401" data-name="Path 1401" class="cls-3" d="M63.525,67.622l1.3,4.6,4.118.037c.533.005.754.806.325,1.179l-3.312,2.882L67.2,80.945c.161.6-.418,1.095-.852.729L63,78.854l-3.35,2.821c-.434.365-1.012-.13-.852-.729l1.243-4.624-3.312-2.882c-.429-.374-.208-1.174.325-1.179l4.118-.037,1.3-4.6A.533.533,0,0,1,63.525,67.622Z" transform="translate(54.522 16.838)"/>
        <path id="Path_1402" data-name="Path 1402" class="cls-3" d="M70.961,34.187l1.3,4.6,4.118.037c.533.006.754.806.325,1.179l-3.312,2.882,1.243,4.624c.161.6-.418,1.095-.852.729l-3.35-2.821-3.35,2.821c-.434.365-1.012-.13-.852-.729l1.243-4.624L64.163,40c-.429-.374-.208-1.174.325-1.179l4.118-.037,1.3-4.6A.533.533,0,0,1,70.961,34.187Z" transform="translate(62.947 -33.74)"/>
        <path id="Path_1403" data-name="Path 1403" class="cls-3" d="M70.961,43.766l1.3,4.6,4.118.037c.533.006.754.806.325,1.179l-3.312,2.882,1.243,4.624c.161.6-.418,1.095-.852.729L70.435,55l-3.35,2.821c-.434.365-1.012-.13-.852-.729l1.243-4.624-3.312-2.882c-.429-.374-.208-1.174.325-1.179l4.118-.037,1.3-4.6A.533.533,0,0,1,70.961,43.766Z" transform="translate(62.947 -19.249)"/>
        <path id="Path_1404" data-name="Path 1404" class="cls-3" d="M70.961,53.346l1.3,4.6,4.118.037c.533.005.754.806.325,1.179l-3.312,2.882,1.243,4.624c.161.6-.418,1.095-.852.729l-3.35-2.821L67.085,67.4c-.434.365-1.012-.13-.852-.729l1.243-4.624-3.312-2.882c-.429-.374-.208-1.174.325-1.179l4.118-.037,1.3-4.6A.533.533,0,0,1,70.961,53.346Z" transform="translate(62.947 -4.758)"/>
        <path id="Path_1405" data-name="Path 1405" class="cls-3" d="M70.961,62.926l1.3,4.6,4.118.037c.533.006.754.806.325,1.179l-3.312,2.882,1.243,4.624c.161.6-.418,1.095-.852.729l-3.35-2.821-3.35,2.821c-.434.365-1.012-.13-.852-.729l1.243-4.624-3.312-2.882c-.429-.374-.208-1.174.325-1.179l4.118-.037,1.3-4.6A.533.533,0,0,1,70.961,62.926Z" transform="translate(62.947 9.733)"/>
        <path id="Path_1406" data-name="Path 1406" class="cls-3" d="M70.961,72.505l1.3,4.6,4.118.037c.533.005.754.806.325,1.179L73.394,81.2l1.243,4.624c.161.6-.418,1.095-.852.729l-3.35-2.821-3.35,2.821c-.434.365-1.012-.13-.852-.729L67.476,81.2l-3.312-2.882c-.429-.374-.208-1.174.325-1.179l4.118-.037,1.3-4.6A.533.533,0,0,1,70.961,72.505Z" transform="translate(62.947 24.224)"/>
      </g>
    </g>
  </g>
</svg>
