<svg xmlns="http://www.w3.org/2000/svg" width="152.868" height="152.781" viewBox="0 0 152.868 152.781">
  <defs>
    <style>
      .cls-1 {
        fill: #fdbbab;
      }

      .cls-2 {
        fill: #ffa58d;
      }

      .cls-3 {
        fill: #f59280;
      }

      .cls-4 {
        fill: #e6faff;
      }

      .cls-5 {
        fill: #ccf8ff;
      }

      .cls-6 {
        fill: #b0f2ff;
      }
    </style>
  </defs>
  <g id="wound" transform="translate(0 -0.147)">
    <g id="Group_53" data-name="Group 53" transform="translate(26.22 0.147)">
      <path id="Path_451" data-name="Path 451" class="cls-1" d="M87.87,130.347l0,0h0Z" transform="translate(-87.87 -91.495)"/>
      <path id="Path_452" data-name="Path 452" class="cls-1" d="M209.954,9.3H170.3S132.039.147,123.185.147a31.645,31.645,0,0,0-30.15,21.846L87.87,39l0,0,0,0h0l.036.028-.016-.013.024.019.007.005,0,0,.013.01h0l0,0L104.082,51.8l9.946-24.513a5.606,5.606,0,0,1,6.821-3.256L143.523,30.9a4.137,4.137,0,0,1-1.2,8.1H128.461l9.328,23.944,71.914.194c.045,0,.09,0,.134,0a4.48,4.48,0,0,0,4.309-4.446c.009-1.388.063-10.211.122-19.688.075-11.315.152-23.562.161-25.2a4.478,4.478,0,0,0-4.476-4.5Z" transform="translate(-87.87 -0.147)"/>
      <path id="Path_453" data-name="Path 453" class="cls-1" d="M88.086,130.518l0,0,0,0Z" transform="translate(-88.021 -91.615)"/>
      <path id="Path_454" data-name="Path 454" class="cls-1" d="M88.006,130.455l.011.009,0,0Z" transform="translate(-87.965 -91.571)"/>
    </g>
    <g id="Group_54" data-name="Group 54" transform="translate(0 39)">
      <path id="Path_455" data-name="Path 455" class="cls-2" d="M259.966,252.142l11.821,5.962,1.607,71.622H216.445V276.909l5.371-5.371h11.667" transform="translate(-151.858 -215.8)"/>
      <path id="Path_456" data-name="Path 456" class="cls-1" d="M292.79,254.958a16.58,16.58,0,0,1-16.58,16.58h-7.292v29.094H216.445V276.909l5.371-5.371h11.667a19.63,19.63,0,0,1,19.629-19.4h36.862A2.816,2.816,0,0,1,292.79,254.958Z" transform="translate(-151.858 -215.8)"/>
      <path id="Path_457" data-name="Path 457" class="cls-2" d="M407.055,326.841a9.7,9.7,0,0,0-9.7-9.7H371.993a9.7,9.7,0,1,0,0,19.4h25.364A9.7,9.7,0,0,0,407.055,326.841Z" transform="translate(-254.187 -261.404)"/>
      <path id="Path_458" data-name="Path 458" class="cls-3" d="M407.055,391.841a9.7,9.7,0,0,0-9.7-9.7H371.993a9.7,9.7,0,1,0,0,19.4h25.364A9.7,9.7,0,0,0,407.055,391.841Z" transform="translate(-254.187 -307.009)"/>
      <path id="Path_459" data-name="Path 459" class="cls-2" d="M371.993,382.142h25.364a9.7,9.7,0,0,1,9.7,9.7H362.3a9.7,9.7,0,0,1,9.7-9.7Z" transform="translate(-254.187 -307.008)"/>
      <path id="Path_460" data-name="Path 460" class="cls-3" d="M407.055,456.841a9.7,9.7,0,0,0-9.7-9.7H371.993a9.7,9.7,0,1,0,0,19.4h25.364A9.7,9.7,0,0,0,407.055,456.841Z" transform="translate(-254.187 -352.613)"/>
      <path id="Path_461" data-name="Path 461" class="cls-1" d="M20.667,317.148c-.5,2.58-10.818,55.719-11.3,58.188H0V317.148Z" transform="translate(0 -261.408)"/>
      <path id="Path_462" data-name="Path 462" class="cls-2" d="M15.018,414.648c-2.348,12.1-4.361,22.466-5.368,27.647l-1.757,1.447H0V414.648Z" transform="translate(0 -329.814)"/>
      <path id="Path_463" data-name="Path 463" class="cls-4" d="M217.17,381.517H188.64l11.6-55.559C201.1,327.107,199.889,324.185,217.17,381.517Z" transform="translate(-132.35 -267.589)"/>
      <path id="Path_464" data-name="Path 464" class="cls-5" d="M217.17,443.742H188.64l6.078-29.094h13.717C210.638,422.018,213.485,431.511,217.17,443.742Z" transform="translate(-132.35 -329.814)"/>
      <path id="Path_465" data-name="Path 465" class="cls-5" d="M152.231,317.148l-12.154,58.188H117.25l10.382-58.188Z" transform="translate(-82.263 -261.408)"/>
      <path id="Path_466" data-name="Path 466" class="cls-6" d="M146.156,414.648l-6.078,29.094H117.25l5.191-29.094Z" transform="translate(-82.263 -329.814)"/>
      <path id="Path_467" data-name="Path 467" class="cls-4" d="M72.572,143.667s-18,100.5-18.023,100.611H26.04L44.489,130.351H69.137Z" transform="translate(-18.27 -130.351)"/>
      <path id="Path_468" data-name="Path 468" class="cls-5" d="M59.763,414.648l-5.214,29.094H26.04l4.711-29.094Z" transform="translate(-18.27 -329.814)"/>
    </g>
    <path id="Path_469" data-name="Path 469" class="cls-2" d="M239.583,130.347c-.06,9.477-.113,18.3-.122,19.688a4.48,4.48,0,0,1-4.309,4.446c-38.173-.1-85.726-.228-99.274-.263a11.936,11.936,0,0,1,.009-23.872Z" transform="translate(-86.963 -91.348)"/>
  </g>
</svg>
