<svg height="512pt" viewBox="-3 0 512 512.00052" width="512pt" xmlns="http://www.w3.org/2000/svg"><path d="m397.761719 162.890625c-11.710938-11.707031-30.691407-11.707031-42.402344 0l26.90625-26.90625c11.710937-11.710937 11.710937-30.691406 0-42.402344-11.707031-11.707031-30.691406-11.707031-42.398437 0l21.164062-21.164062c11.496094-11.496094 12.347656-30.226563 1.265625-42.121094-11.632813-12.492187-31.191406-12.753906-43.160156-.789063l-21.671875 21.675782c11.707031-11.710938 11.707031-30.691406 0-42.402344-11.710938-11.707031-30.691406-11.707031-42.402344 0l-85.351562 85.351562-36.710938 36.714844c-1.222656-9.382812-3.71875-29.082031-3.777344-29.511718-3.675781-26.320313-39.527344-31.238282-50.109375-6.863282-21.578125 49.699219-32.070312 105.636719-18.601562 156.875 3.753906 14.296875-.59375 29.511719-11.046875 39.964844l-36.292969 36.292969c-17.5625 17.5625-17.5625 46.035156 0 63.597656l29.074219 29.074219c17.5625 17.5625 46.035156 17.5625 63.597656 0l45.019531-45.019532c8.367188-8.367187 19.917969-12.742187 31.726563-12.023437 32.433594 1.972656 65.507812-9.167969 90.617187-33.421875l.015625.015625 1.492188-1.488281 64.597656-64.601563 58.445312-58.445312c11.710938-11.710938 11.710938-30.695313.003907-42.402344zm0 0" fill="#ffcbbe"/><path d="m105.84375 420.277344 45.019531-45.019532c8.367188-8.367187 19.917969-12.742187 31.726563-12.023437 32.433594 1.96875 65.507812-9.167969 90.617187-33.425781l.015625.019531 1.492188-1.492187 64.601562-64.597657 48.121094-48.125c-63.5-50.691406-143.078125-88.035156-201.605469-26.933593-95.128906 99.3125-80.160156 161.921874-151.5625 223.621093l7.972657 7.976563c17.566406 17.5625 46.039062 17.5625 63.601562 0zm0 0" fill="#ffb39d"/><path d="m493.875 157.199219c-5.582031-6.753907-7.675781-15.710938-5.925781-24.296875 6.195312-30.363282-6.957031-62.644532-35.078125-79.421875-23.738282-14.160157-52.128906-13.699219-74.710938-1.265625-10.511718 5.789062-23.171875 5.554687-33.789062-.042969-15.710938-8.277344-34.339844-11.203125-53.015625-6.953125-17.847657 4.058594-32.820313 14.011719-43.347657 27.332031-7.296874 9.234375-18.933593 14.078125-30.648437 12.929688-23.789063-2.339844-48.414063 5.292969-67.082031 23.074219-19.265625 18.351562-28.042969 43.570312-26.164063 68.179687.925781 12.105469-4.273437 23.753906-13.214843 31.964844-13.128907 12.058593-21.359376 29.359375-21.359376 48.59375 0 36.449219 29.546876 65.996093 65.996094 65.996093l275.582032-77.726562c29.050781 10.78125 61.34375-4.027344 72.125-33.078125 7.222656-19.457031 2.960937-40.359375-9.367188-55.285156zm0 0" fill="#a4e7ff"/><path d="m484.273438 241.441406c-11.710938-11.707031-30.695313-11.707031-42.402344 0l26.90625-26.90625c11.707031-11.707031 11.707031-30.691406 0-42.398437-11.710938-11.710938-30.695313-11.710938-42.402344 0l21.164062-21.167969c11.496094-11.496094 12.347657-30.226562 1.269532-42.121094-11.632813-12.488281-31.195313-12.75-43.160156-.789062l-21.675782 21.675781c11.710938-11.710937 11.710938-30.691406 0-42.402344-11.707031-11.707031-30.691406-11.707031-42.402344 0l-85.347656 85.351563-36.714844 36.714844c-1.21875-9.382813-3.714843-29.082032-3.777343-29.511719-3.675781-26.320313-39.527344-31.238281-50.109375-6.859375-21.574219 49.695312-32.066406 105.632812-18.601563 156.875 3.757813 14.292968-.59375 29.507812-11.042969 39.960937l-36.296874 36.292969c-17.5625 17.5625-17.5625 46.035156 0 63.601562l29.074218 29.070313c17.5625 17.5625 46.035156 17.5625 63.597656 0l45.019532-45.019531c8.367187-8.367188 19.917968-12.742188 31.726562-12.023438 32.433594 1.972656 65.507813-9.167968 90.617188-33.421875l.015625.015625 1.492187-1.488281 123.046875-123.046875c11.710938-11.710938 11.710938-30.691406.003907-42.402344zm0 0" fill="#ffddcf"/><g fill="#ffcbbe"><path d="m289.335938 224.375c-3.019532-3.015625-3.019532-7.910156 0-10.925781l89.175781-89.175781c3.019531-3.015626 7.910156-3.015626 10.925781 0 3.019531 3.015624 3.019531 7.910156 0 10.925781l-89.175781 89.175781c-3.96875 3.96875-9.417969 1.507812-10.925781 0zm0 0"/><path d="m331.734375 266.777344c-3.015625-3.019532-3.015625-7.910156 0-10.929688l85.878906-85.875c3.019531-3.015625 7.910157-3.015625 10.929688 0 3.015625 3.019532 3.015625 7.910156 0 10.925782l-85.878907 85.878906c-3.972656 3.96875-9.417968 1.507812-10.929687 0zm0 0"/><path d="m374.136719 309.175781c-3.019531-3.015625-3.019531-7.90625 0-10.925781l62.269531-62.269531c3.019531-3.019531 7.910156-3.019531 10.925781 0 3.019531 3.015625 3.019531 7.910156 0 10.925781l-62.269531 62.269531c-4.828125 4.832031-9.417969 1.511719-10.925781 0zm0 0"/></g></svg>