<svg height="512pt" viewBox="-87 0 512 512" width="512pt" xmlns="http://www.w3.org/2000/svg"><path d="m292.984375 256.667969 42.132813-85.214844c4.300781-8.785156.660156-19.386719-8.132813-23.675781l-33.824219-16.5c-8.792968-4.289063-19.40625-.644532-23.707031 8.140625l-58.480469 119.277343zm0 0" fill="#b8f9ff"/><path d="m272.242188 210.574219c-1.847657 3.765625-.292969 8.3125 3.472656 10.160156l28.195312 13.832031 6.730469-13.613281-28.238281-13.851563c-3.765625-1.851562-8.3125-.292968-10.160156 3.472657zm0 0" fill="#84eaf5"/><path d="m309.019531 173.78125c-3.769531-1.851562-8.316406-.296875-10.164062 3.464844-1.851563 3.765625-.300781 8.316406 3.464843 10.164062l20.039063 9.847656 6.730469-13.617187zm0 0" fill="#84eaf5"/><path d="m62.984375 440.4375v71.5625h119.484375v-41.261719h27.074219c59.105469 0 107.019531-47.914062 107.019531-107.019531v-1.292969h6.445312.257813c12.238281-.148437 19.527344-13.726562 13.167969-24.183593-9.238282-15.195313-25.890625-46.273438-25.890625-88.425782h-247.558594zm0 0" fill="#faded2"/><path d="m336.4375 338.246094c-9.242188-15.199219-25.890625-46.277344-25.890625-88.425782h-44.550781c0 42.148438 6.015625 112.605469 6.015625 112.605469v1.292969c0 59.105469-47.914063 107.019531-107.019531 107.019531h-27.070313v41.261719h44.546875v-41.261719h27.074219c59.105469 0 107.019531-47.914062 107.019531-107.019531v-1.292969h6.445312.257813c12.238281-.148437 19.527344-13.726562 13.171875-24.179687zm0 0" fill="#fad7c8"/><path d="m270.191406 316.320312c-4.195312 0-7.59375-3.398437-7.59375-7.59375 0-6.976562-5.675781-12.65625-12.65625-12.65625-6.976562 0-12.652344 5.679688-12.652344 12.65625 0 4.195313-3.398437 7.59375-7.59375 7.59375-4.195312 0-7.59375-3.398437-7.59375-7.59375 0-15.351562 12.488282-27.84375 27.839844-27.84375 15.351563 0 27.84375 12.492188 27.84375 27.84375 0 4.195313-3.398437 7.59375-7.59375 7.59375zm0 0" fill="#86919e"/><g fill="#fce49d"><path d="m68.832031 52.929688h-7.875v-7.875c0-4.191407-3.398437-7.59375-7.59375-7.59375-4.191406 0-7.59375 3.402343-7.59375 7.59375v7.875h-7.875c-4.191406 0-7.59375 3.398437-7.59375 7.59375 0 4.195312 3.402344 7.59375 7.59375 7.59375h7.875v7.875c0 4.195312 3.402344 7.59375 7.59375 7.59375 4.195313 0 7.59375-3.398438 7.59375-7.59375v-7.875h7.875c4.195313 0 7.59375-3.398438 7.59375-7.59375 0-4.195313-3.398437-7.59375-7.59375-7.59375zm0 0"/><path d="m266.660156 15.46875h-7.875v-7.875c0-4.195312-3.398437-7.59375-7.59375-7.59375-4.195312 0-7.59375 3.398438-7.59375 7.59375v7.875h-7.875c-4.195312 0-7.59375 3.398438-7.59375 7.59375s3.398438 7.59375 7.59375 7.59375h7.875v7.871094c0 4.195312 3.398438 7.59375 7.59375 7.59375 4.195313 0 7.59375-3.398438 7.59375-7.59375v-7.871094h7.875c4.191406 0 7.59375-3.398438 7.59375-7.59375s-3.402344-7.59375-7.59375-7.59375zm0 0"/><path d="m319.308594 72.167969h-7.875v-7.875c0-4.195313-3.398438-7.59375-7.59375-7.59375-4.195313 0-7.59375 3.398437-7.59375 7.59375v7.875h-7.871094c-4.195312 0-7.59375 3.398437-7.59375 7.59375 0 4.195312 3.398438 7.59375 7.59375 7.59375h7.871094v7.875c0 4.191406 3.398437 7.59375 7.59375 7.59375 4.195312 0 7.59375-3.402344 7.59375-7.59375v-7.875h7.875c4.195312 0 7.59375-3.398438 7.59375-7.59375 0-4.195313-3.398438-7.59375-7.59375-7.59375zm0 0"/></g><path d="m204.589844 138.710938.195312-57.984376c.144532-26.769531-13.320312-52.652343-38.046875-73.132812-24.949219 20.601562-38.699219 46.550781-38.847656 73.320312l-.195313 57.796876 7.84375 18.328124c6.984376 9 17.945313 14.777344 30.300782 14.746094 12.332031-.027344 23.339844-5.839844 30.425781-14.847656zm0 0" fill="#e6e9ed"/><path d="m166.738281 7.59375c-6.320312 5.21875-11.917969 10.78125-16.761719 16.613281 14.042969 17.101563 21.503907 36.5625 21.394532 56.519531l-.195313 57.984376-8.324219 18.226562c-3.664062 4.660156-8.382812 8.453125-13.785156 11.042969 5.0625 2.445312 10.75 3.820312 16.773438 3.804687 12.332031-.03125 23.339844-5.839844 30.425781-14.847656l8.324219-18.226562.195312-57.988282c.144532-26.765625-13.320312-52.648437-38.046875-73.128906zm0 0" fill="#cdcdcd"/><path d="m166.738281 7.59375c-22.191406 18.320312-35.511719 40.875-38.292969 64.472656l75.886719-.117187c-2.503906-23.605469-15.582031-46.125-37.59375-64.355469zm0 0" fill="#f0a8d0"/><path d="m166.738281 7.59375c-6.320312 5.21875-11.921875 10.785156-16.761719 16.617188 11.972657 14.582031 19.15625 30.878906 20.945313 47.738281l-42.46875.066406c0 .015625-.003906.03125-.007813.050781l75.886719-.117187c-2.503906-23.605469-15.582031-46.125-37.59375-64.355469zm0 0" fill="#ea89bf"/><path d="m145.398438 134.402344c-.042969 7.984375-32.070313 47.445312-32.070313 47.445312s.210937-38.765625.257813-47.367187c.046874-8.601563 7.207031-15.597657 15.992187-15.617188s15.867187 6.9375 15.820313 15.539063zm0 0" fill="#f0a8d0"/><path d="m186.6875 134.300781c-.042969 7.984375 31.554688 47.289063 31.554688 47.289063s.214843-38.761719.261718-47.367188c.046875-8.601562-7.039062-15.558594-15.824218-15.539062-8.785157.023437-15.941407 7.015625-15.992188 15.617187zm0 0" fill="#f0a8d0"/><path d="m152.222656 265.273438c-4.195312 0-7.59375-3.398438-7.59375-7.59375v-61.761719c0-4.195313 3.398438-7.59375 7.59375-7.59375 4.191406 0 7.59375 3.398437 7.59375 7.59375v61.761719c0 4.195312-3.402344 7.59375-7.59375 7.59375zm0 0" fill="#edeff2"/><path d="m180.574219 265.273438c-4.195313 0-7.59375-3.398438-7.59375-7.59375v-61.761719c0-4.195313 3.398437-7.59375 7.59375-7.59375 4.191406 0 7.59375 3.398437 7.59375 7.59375v61.761719c0 4.195312-3.402344 7.59375-7.59375 7.59375zm0 0" fill="#edeff2"/><path d="m83.699219 180.316406-58.136719-48.851562-15.792969 75.578125 43.25 3.050781zm0 0" fill="#fce49d"/><path d="m108.707031 254.644531-25.007812-74.328125-31.507813 29.507813-42.421875-2.78125 16.925781 49.625zm0 0" fill="#feda5f"/><path d="m25.5625 131.464844-4.847656 23.203125 23.066406-7.890625zm0 0" fill="#86919e"/><path d="m83.699219 180.316406-31.507813 29.507813-.277344-.019531 15.285157 45.863281 41.507812-1.023438zm0 0" fill="#f4c84e"/><path d="m128.664062 371.824219c-19.292968 0-34.929687-15.636719-34.929687-34.929688s15.636719-34.929687 34.929687-34.929687c8.945313 0 21.769532 5.328125 29.867188 16.464844 0 0 32.402344-20.515626 32.402344-68.609376h-184.277344s-35.4375 134.421876 57.207031 190.855469c0 0 45.058594-18.226562 65.308594-68.851562" fill="#86919e"/><path d="m126.640625 344.082031c9.769531 0 9.785156-15.1875 0-15.1875-9.773437 0-9.789063 15.1875 0 15.1875zm0 0" fill="#fac2aa"/></svg>