<svg xmlns="http://www.w3.org/2000/svg" width="80" height="80" viewBox="0 0 80 80"><g transform="translate(8.337 8.337)"><g transform="translate(24.331)"><path d="M211.368,61a1.29,1.29,0,0,1-1.264-1.038L209.1,54.9a1.29,1.29,0,1,1,2.53-.5l1.008,5.062a1.29,1.29,0,0,1-1.013,1.518A1.344,1.344,0,0,1,211.368,61Z" transform="translate(-209.071 -53.358)" fill="#c3ddff"/></g><g transform="translate(35.407 55.684)"><path d="M282.255,417.376a1.29,1.29,0,0,1-1.264-1.038l-1.008-5.062a1.29,1.29,0,1,1,2.53-.5l1.008,5.062a1.29,1.29,0,0,1-1.013,1.518A1.344,1.344,0,0,1,282.255,417.376Z" transform="translate(-279.958 -409.733)" fill="#c3ddff"/></g><g transform="translate(0 24.332)"><g transform="translate(55.683)"><path d="M411.014,212.668a1.291,1.291,0,0,1-.251-2.556l5.063-1.007a1.291,1.291,0,0,1,.5,2.532l-5.063,1.007A1.348,1.348,0,0,1,411.014,212.668Z" transform="translate(-409.725 -209.081)" fill="#c3ddff"/></g><g transform="translate(0 11.076)"><path d="M54.643,283.555A1.291,1.291,0,0,1,54.393,281l5.063-1.007a1.291,1.291,0,0,1,.5,2.532L54.9,283.531a1.345,1.345,0,0,1-.253.025Z" transform="translate(-53.354 -279.968)" fill="#c3ddff"/></g></g><g transform="translate(4.624 4.624)"><g transform="translate(40.086)"><path d="M340.788,89.826a1.29,1.29,0,0,1-1.071-2.007l2.868-4.291a1.29,1.29,0,1,1,2.145,1.434l-2.868,4.291A1.287,1.287,0,0,1,340.788,89.826Z" transform="translate(-339.498 -82.955)" fill="#c3ddff"/></g><g transform="translate(8.543 47.206)"><path d="M138.917,391.946a1.29,1.29,0,0,1-1.071-2.007l2.868-4.291a1.29,1.29,0,1,1,2.145,1.434l-2.868,4.291A1.287,1.287,0,0,1,138.917,391.946Z" transform="translate(-137.627 -385.075)" fill="#c3ddff"/></g><g transform="translate(0 8.543)"><g transform="translate(47.205 31.542)"><path d="M390.644,344.944a1.29,1.29,0,0,1-.716-.217l-4.292-2.867a1.291,1.291,0,0,1,1.434-2.146l4.292,2.867a1.291,1.291,0,0,1-.718,2.363Z" transform="translate(-385.062 -339.495)" fill="#c3ddff"/></g><path d="M88.531,143.077a1.29,1.29,0,0,1-.716-.217l-4.292-2.867a1.29,1.29,0,0,1,1.434-2.146l4.292,2.867a1.291,1.291,0,0,1-.718,2.363Z" transform="translate(-82.949 -137.629)" fill="#c3ddff"/></g></g><g transform="translate(0 0)"><g transform="translate(13.168 4.623)"><path d="M141.788,89.82a1.287,1.287,0,0,1-1.074-.573l-2.868-4.291a1.29,1.29,0,1,1,2.145-1.434l2.868,4.291a1.29,1.29,0,0,1-1.071,2.007Z" transform="translate(-137.628 -82.948)" fill="#c3ddff"/></g><g transform="translate(44.71 51.829)"><path d="M343.659,391.937a1.287,1.287,0,0,1-1.074-.573l-2.868-4.291a1.29,1.29,0,1,1,2.145-1.434l2.868,4.291a1.29,1.29,0,0,1-1.071,2.007Z" transform="translate(-339.499 -385.064)" fill="#c3ddff"/></g><g transform="translate(4.624 13.167)"><g transform="translate(47.205)"><path d="M386.356,143.078a1.291,1.291,0,0,1-.718-2.363l4.292-2.867a1.29,1.29,0,0,1,1.434,2.146l-4.292,2.867A1.291,1.291,0,0,1,386.356,143.078Z" transform="translate(-385.064 -137.629)" fill="#c3ddff"/></g><g transform="translate(0 31.542)"><path d="M84.243,344.944a1.291,1.291,0,0,1-.718-2.363l4.292-2.867a1.291,1.291,0,0,1,1.434,2.146l-4.292,2.867A1.291,1.291,0,0,1,84.243,344.944Z" transform="translate(-82.951 -339.495)" fill="#c3ddff"/></g></g><g transform="translate(35.407)"><path d="M281.251,61a1.344,1.344,0,0,1-.253-.025,1.29,1.29,0,0,1-1.013-1.518l1.008-5.062a1.29,1.29,0,1,1,2.53.5l-1.008,5.062A1.29,1.29,0,0,1,281.251,61Z" transform="translate(-279.959 -53.36)" fill="#c3ddff"/></g><g transform="translate(24.331 55.684)"><path d="M210.364,417.378a1.343,1.343,0,0,1-.253-.025,1.29,1.29,0,0,1-1.013-1.518l1.008-5.062a1.29,1.29,0,1,1,2.53.5l-1.008,5.062A1.29,1.29,0,0,1,210.364,417.378Z" transform="translate(-209.072 -409.735)" fill="#c3ddff"/></g><g transform="translate(0 24.332)"><g transform="translate(55.683 11.076)"><path d="M416.08,283.557a1.343,1.343,0,0,1-.253-.025l-5.063-1.007a1.291,1.291,0,0,1,.5-2.532L416.331,281a1.29,1.29,0,0,1-.251,2.556Z" transform="translate(-409.725 -279.971)" fill="#c3ddff"/></g><path d="M59.709,212.67a1.346,1.346,0,0,1-.253-.025l-5.063-1.007a1.291,1.291,0,0,1,.5-2.532l5.063,1.007a1.291,1.291,0,0,1-.251,2.556Z" transform="translate(-53.354 -209.084)" fill="#c3ddff"/></g></g></g><path d="M0,0H2.581V10.323H0Z" transform="translate(6.133 27.372) rotate(-67.486)" fill="#ffd064"/><circle cx="2.581" cy="2.581" r="2.581" transform="translate(2.848 23.1)" fill="#ffe07d"/><path d="M0,0H2.581V10.323H0Z" transform="translate(73.846 52.627) rotate(112.514)" fill="#ffd064"/><circle cx="2.581" cy="2.581" r="2.581" transform="translate(71.99 51.739)" fill="#ffe07d"/><path d="M0,0H2.581V10.323H0Z" transform="translate(27.383 73.856) rotate(-157.486)" fill="#ffd064"/><circle cx="2.581" cy="2.581" r="2.581" transform="translate(23.1 71.99)" fill="#ffe07d"/><path d="M0,0H2.581V10.323H0Z" transform="translate(52.638 6.144) rotate(22.514)" fill="#ffd064"/><circle cx="2.581" cy="2.581" r="2.581" transform="translate(51.739 2.848)" fill="#ffe07d"/><path d="M0,0H2.581V10.323H0Z" transform="translate(7.117 55.002) rotate(-112.514)" fill="#ffd064"/><circle cx="2.581" cy="2.581" r="2.581" transform="translate(2.848 51.739)" fill="#ffe07d"/><path d="M0,0H2.581V10.323H0Z" transform="translate(72.904 24.997) rotate(67.486)" fill="#ffd064"/><circle cx="2.581" cy="2.581" r="2.581" transform="translate(71.99 23.1)" fill="#ffe07d"/><path d="M0,0H2.581V10.323H0Z" transform="translate(54.992 72.893) rotate(157.486)" fill="#ffd064"/><circle cx="2.581" cy="2.581" r="2.581" transform="translate(51.739 71.99)" fill="#ffe07d"/><path d="M0,0H2.581V10.323H0Z" transform="translate(24.987 7.107) rotate(-22.514)" fill="#ffd064"/><circle cx="2.581" cy="2.581" r="2.581" transform="translate(23.1 2.848)" fill="#ffe07d"/><path d="M0,0H2.581V10.323H0Z" transform="translate(13.537 15.366) rotate(-45)" fill="#ffd064"/><circle cx="2.581" cy="2.581" r="2.581" transform="translate(10.96 10.96)" fill="#ffe07d"/><path d="M0,0H2.581V10.323H0Z" transform="translate(66.472 64.634) rotate(135)" fill="#ffd064"/><circle cx="2.581" cy="2.581" r="2.581" transform="translate(63.879 63.879)" fill="#ffe07d"/><path d="M0,0H2.581V10.323H0Z" transform="translate(15.361 66.467) rotate(-135)" fill="#ffd064"/><circle cx="2.581" cy="2.581" r="2.581" transform="translate(10.96 63.879)" fill="#ffe07d"/><path d="M0,0H2.581V10.323H0Z" transform="translate(64.63 13.533) rotate(45)" fill="#ffd064"/><circle cx="2.581" cy="2.581" r="2.581" transform="translate(63.879 10.96)" fill="#ffe07d"/><path d="M0,0H2.581V10.323H0Z" transform="translate(3.871 41.29) rotate(-90)" fill="#ffd064"/><circle cx="2.581" cy="2.581" r="2.581" transform="translate(0 37.419)" fill="#ffe07d"/><path d="M0,0H2.581V10.323H0Z" transform="translate(76.129 38.71) rotate(90)" fill="#ffd064"/><circle cx="2.581" cy="2.581" r="2.581" transform="translate(74.839 37.419)" fill="#ffe07d"/><path d="M0,0H2.581V10.323H0Z" transform="translate(41.29 76.129) rotate(180)" fill="#ffd064"/><circle cx="2.581" cy="2.581" r="2.581" transform="translate(37.419 74.839)" fill="#ffe07d"/><path d="M247.742,24.774h2.581V35.1h-2.581Z" transform="translate(-209.032 -20.903)" fill="#ffd064"/><circle cx="2.581" cy="2.581" r="2.581" transform="translate(37.419 0)" fill="#ffe07d"/><path d="M141.769,109.678A27.1,27.1,0,0,0,97.9,88.393c-6.289,4.962-9.4,12.652-9.4,21.285,0,14.965,11.207,26.354,26.172,26.354,8.635,0,16.327-3.3,21.289-9.589A26.981,26.981,0,0,0,141.769,109.678Z" transform="translate(-74.672 -69.678)" fill="#ff8086"/><path d="M114.194,163.643a27.1,27.1,0,0,1-21.287-43.865,27.1,27.1,0,1,0,38.06,38.05A27,27,0,0,1,114.194,163.643Z" transform="translate(-69.678 -101.063)" fill="#e5646e"/><circle cx="2.581" cy="2.581" r="2.581" transform="translate(37.419 29.678)" fill="#ffe07d"/><circle cx="2.581" cy="2.581" r="2.581" transform="translate(37.419 45.161)" fill="#ffe07d"/><circle cx="2.581" cy="2.581" r="2.581" transform="translate(45.161 37.419)" fill="#ffe07d"/><circle cx="2.581" cy="2.581" r="2.581" transform="translate(29.678 37.419)" fill="#ffe07d"/><g transform="translate(31.303 20.83)"><path d="M201.627,135.893a1.3,1.3,0,1,1,.439-.077l-.013,0A1.3,1.3,0,0,1,201.627,135.893Z" transform="translate(-200.336 -133.311)" fill="#c3ddff"/></g><g transform="translate(56.591 31.305)"><path d="M363.474,202.934a1.3,1.3,0,1,1,.491-.1l-.013,0A1.291,1.291,0,0,1,363.474,202.934Z" transform="translate(-362.183 -200.353)" fill="#c3ddff"/></g><g transform="translate(20.829 46.118)"><path d="M134.6,297.739a1.3,1.3,0,1,1,.534-.117l-.011.005A1.272,1.272,0,0,1,134.6,297.739Z" transform="translate(-133.305 -295.157)" fill="#c3ddff"/></g><g transform="translate(46.116 56.592)"><path d="M296.433,364.772a1.3,1.3,0,1,1,.439-.077l-.013,0A1.294,1.294,0,0,1,296.433,364.772Z" transform="translate(-295.142 -362.189)" fill="#c3ddff"/></g><g transform="translate(20.831 31.303)"><path d="M134.61,202.928a1.275,1.275,0,0,1-.523-.112,1.293,1.293,0,1,1,1.709-.666l-.005.011A1.292,1.292,0,0,1,134.61,202.928Z" transform="translate(-133.321 -200.342)" fill="#c3ddff"/></g><g transform="translate(46.12 20.829)"><path d="M296.457,135.891a1.295,1.295,0,1,1,1.195-.8l-.005.012A1.291,1.291,0,0,1,296.457,135.891Z" transform="translate(-295.166 -133.304)" fill="#c3ddff"/></g><g transform="translate(31.306 56.591)"><path d="M201.651,364.773a1.295,1.295,0,1,1,1.195-.8l-.005.012A1.291,1.291,0,0,1,201.651,364.773Z" transform="translate(-200.36 -362.186)" fill="#c3ddff"/></g><g transform="translate(56.595 46.117)"><path d="M363.5,297.733a1.275,1.275,0,0,1-.523-.112,1.293,1.293,0,1,1,1.709-.666l-.005.011A1.292,1.292,0,0,1,363.5,297.733Z" transform="translate(-362.208 -295.146)" fill="#c3ddff"/></g><g transform="translate(18.065 18.065)"><circle cx="2.581" cy="2.581" r="2.581" transform="translate(19.355)" fill="#ffe07d"/><circle cx="2.581" cy="2.581" r="2.581" transform="translate(19.355 38.71)" fill="#ffe07d"/><circle cx="2.581" cy="2.581" r="2.581" transform="translate(38.71 19.355)" fill="#ffe07d"/><circle cx="2.581" cy="2.581" r="2.581" transform="translate(0 19.355)" fill="#ffe07d"/><circle cx="2.581" cy="2.581" r="2.581" transform="translate(33.041 33.041)" fill="#ffe07d"/><circle cx="2.581" cy="2.581" r="2.581" transform="translate(5.669 5.669)" fill="#ffe07d"/><circle cx="2.581" cy="2.581" r="2.581" transform="translate(5.669 33.041)" fill="#ffe07d"/><circle cx="2.581" cy="2.581" r="2.581" transform="translate(33.041 5.669)" fill="#ffe07d"/></g><circle cx="1.29" cy="1.29" r="1.29" transform="translate(30.981 30.968)" fill="#c3ddff"/><circle cx="1.29" cy="1.29" r="1.29" transform="translate(30.981 46.452)" fill="#c3ddff"/><circle cx="1.29" cy="1.29" r="1.29" transform="translate(46.452 30.968)" fill="#c3ddff"/><circle cx="1.29" cy="1.29" r="1.29" transform="translate(46.452 46.452)" fill="#c3ddff"/></svg>