<svg height="512pt" viewBox="0 0 512 512" width="512pt" xmlns="http://www.w3.org/2000/svg"><path d="m375.90625 19.214844c.882812 1 2.425781 1 3.308594 0 4.683594-5.296875 19.308594-19.214844 43.675781-19.214844 26.832031 0 45.328125 21.796875 45.328125 47.179688 0 29.128906-24.78125 63.550781-88.976562 93.582031-1.058594.496093-2.304688.496093-3.359376 0-64.199218-30.03125-88.976562-64.453125-88.976562-93.582031 0-25.382813 18.492188-47.179688 45.328125-47.179688 24.367187 0 38.988281 13.917969 43.671875 19.214844zm0 0" fill="#ec407a"/><path d="m422.890625 0c-6.113281 0-11.613281.875-16.496094 2.273438 18.820313 6.203124 30.917969 24.378906 30.917969 44.90625 0 26.941406-21.226562 58.410156-75.203125 86.746093 4.378906 2.300781 8.953125 4.582031 13.773437 6.835938 1.054688.496093 2.300782.496093 3.359376 0 64.195312-30.03125 88.976562-64.449219 88.976562-93.582031 0-25.382813-18.496094-47.179688-45.328125-47.179688zm0 0" fill="#e91e63"/><path d="m227.542969 408.738281c0-52.246093-40.234375-94.601562-89.863281-94.601562-49.628907 0-89.863282 42.355469-89.863282 94.601562 0 52.25 40.234375 94.605469 89.863282 94.605469 49.628906 0 89.863281-42.355469 89.863281-94.605469zm0 0" fill="#a34a18"/><path d="m137.679688 314.136719c-5.269532 0-10.433594.480469-15.453126 1.398437 42.265626 7.710938 74.410157 46.503906 74.410157 93.203125s-32.144531 85.492188-74.410157 93.207031c5.019532.914063 10.183594 1.398438 15.453126 1.398438 49.628906 0 89.863281-42.359375 89.863281-94.605469 0-52.25-40.234375-94.601562-89.863281-94.601562zm0 0" fill="#8a3e14"/><path d="m61.007812 266.570312h-31.328124c-16.390626 0-29.679688-13.289062-29.679688-29.679687v-85.847656c0-27.378907 22.191406-49.570313 49.570312-49.570313 22.707032 0 41.117188 18.410156 41.117188 41.121094v94.296875c0 16.390625-13.289062 29.679687-29.679688 29.679687zm0 0" fill="#633e31"/><path d="m49.570312 101.472656c-4.484374 0-8.824218.605469-12.957031 1.722656 16.96875 5.074219 29.339844 20.8125 29.339844 39.449219v94.207031c0 16.414063-13.285156 29.71875-29.679687 29.71875h24.734374c16.390626 0 29.679688-13.304687 29.679688-29.71875v-94.207031c0-22.738281-18.410156-41.171875-41.117188-41.171875zm0 0" fill="#59382c"/><path d="m214.351562 266.570312h31.328126c16.390624 0 29.679687-13.289062 29.679687-29.679687v-85.851563c0-27.375-22.191406-49.566406-49.570313-49.566406-22.707031 0-41.117187 18.410156-41.117187 41.117188v94.300781c0 16.390625 13.289063 29.679687 29.679687 29.679687zm0 0" fill="#633e31"/><path d="m225.789062 101.472656c-4.09375 0-8.042968.609375-11.777343 1.722656 21.09375 5.703126 36.617187 24.988282 36.617187 47.910157v85.746093c0 16.414063-13.289062 29.71875-29.683594 29.71875h24.734376c16.390624 0 29.679687-13.304687 29.679687-29.71875v-85.746093c0-27.410157-22.191406-49.632813-49.570313-49.632813zm0 0" fill="#59382c"/><path d="m245.261719 284.703125c.464843 38.605469-31.5625 70.195313-70.117188 70.195313h-74.816406c-38.164063 0-69.894531-30.5-70.234375-68.714844-.148438-16.703125 5.632812-32.609375 16.179688-45.179688 5.878906-7.007812 8.964843-15.949218 8.964843-25.101562v-37.453125c0-31.113281 25.191407-56.339844 56.265625-56.339844h52.351563c31.078125 0 56.269531 25.226563 56.269531 56.339844v37.449219c0 9.371093 3.417969 18.359374 9.367188 25.589843 9.6875 11.777344 15.574218 26.808594 15.769531 43.214844zm0 0" fill="#e6cabd"/><path d="m229.492188 241.488281c-5.953126-7.230469-9.371094-16.21875-9.371094-25.589843v-37.449219c0-31.113281-25.191406-56.339844-56.265625-56.339844h-24.734375c31.078125 0 56.269531 25.226563 56.269531 56.339844v37.449219c0 9.371093 3.417969 18.359374 9.367187 25.589843 9.691407 11.777344 15.574219 26.808594 15.773438 43.214844.460938 38.605469-31.5625 70.195313-70.121094 70.195313h24.734375c38.554688 0 70.582031-31.589844 70.117188-70.195313-.195313-16.40625-6.078125-31.4375-15.769531-43.214844zm0 0" fill="#d9a990"/><path d="m220.121094 211.167969v-32.71875c0-31.113281-25.191406-56.339844-56.265625-56.339844h-26.175781s-27.207032 89.058594 82.441406 89.058594zm0 0" fill="#bf6024"/><path d="m163.855469 122.109375h-24.929688c31.078125 0 56.269531 25.226563 56.269531 56.339844v30.90625c7.40625 1.164062 15.667969 1.8125 24.929688 1.8125v-32.71875c-.003906-31.113281-25.195312-56.339844-56.269531-56.339844zm0 0" fill="#a34a18"/><path d="m124.488281 495.519531c0 9.054688-7.34375 16.480469-16.476562 16.480469h-72.570313c-9.101562 0-16.480468-7.378906-16.480468-16.480469 0-18.191406 14.75-32.96875 32.96875-32.96875h39.589843c18.210938 0 32.96875 14.757813 32.96875 32.96875zm0 0" fill="#e6cabd"/><path d="m91.511719 462.550781h-24.734375c18.214844 0 32.980468 14.757813 32.980468 32.964844 0 9.105469-7.382812 16.484375-16.492187 16.484375h24.734375c9.105469 0 16.488281-7.378906 16.488281-16.484375 0-18.203125-14.761719-32.964844-32.976562-32.964844zm0 0" fill="#d9a990"/><path d="m256.398438 495.519531c0 9.101563-7.378907 16.480469-16.476563 16.480469h-72.570313c-9.101562 0-16.480468-7.378906-16.480468-16.480469 0-18.210937 14.769531-32.96875 32.96875-32.96875h39.589844c18.210937 0 32.96875 14.757813 32.96875 32.96875zm0 0" fill="#e6cabd"/><path d="m223.421875 462.550781h-24.734375c18.214844 0 32.976562 14.757813 32.976562 32.964844 0 9.105469-7.382812 16.484375-16.488281 16.484375h24.734375c9.105469 0 16.488282-7.378906 16.488282-16.484375 0-18.203125-14.765626-32.964844-32.976563-32.964844zm0 0" fill="#d9a990"/><path d="m219.300781 269.535156c-4.144531 0-7.5 3.359375-7.5 7.5 0 9.503906-7.734375 17.234375-17.238281 17.234375h-49.382812v-19.707031c0-4.140625-3.359376-7.5-7.5-7.5-4.140626 0-7.5 3.359375-7.5 7.5v19.707031h-49.382813c-9.503906 0-17.234375-7.730469-17.234375-17.234375 0-4.140625-3.359375-7.5-7.5-7.5-4.144531 0-7.5 3.359375-7.5 7.5 0 17.773438 14.460938 32.234375 32.234375 32.234375h113.765625c17.777344 0 32.238281-14.460937 32.238281-32.234375 0-4.140625-3.359375-7.5-7.5-7.5zm0 0" fill="#633e31"/><path d="m137.679688 274.5625c-15.871094 0-28.855469-12.984375-28.855469-28.851562 0-15.871094 12.984375-28.855469 28.855469-28.855469 15.871093 0 28.855468 12.984375 28.855468 28.855469 0 15.867187-12.984375 28.851562-28.855468 28.851562zm0 0" fill="#633e31"/><path d="m137.679688 216.851562c-4.417969 0-8.613282 1.011719-12.367188 2.804688 9.726562 4.65625 16.488281 14.601562 16.488281 26.050781 0 11.453125-6.761719 21.398438-16.488281 26.050781 3.753906 1.796876 7.949219 2.804688 12.367188 2.804688 15.871093 0 28.855468-12.984375 28.855468-28.855469 0-15.867187-12.984375-28.855469-28.855468-28.855469zm0 0" fill="#59382c"/><path d="m396.828125 501.800781h-23.796875c-38.78125 0-70.515625-31.734375-70.515625-70.519531v-66.671875c0-5.003906 4.09375-9.09375 9.097656-9.09375h146.632813c5.003906 0 9.097656 4.09375 9.097656 9.09375v66.671875c0 38.785156-31.734375 70.519531-70.515625 70.519531zm0 0" fill="#ffc400"/><path d="m458.230469 355.515625h-22.78125c5.011719 0 9.113281 4.085937 9.113281 9.082031v66.804688c0 38.71875-31.785156 70.398437-70.636719 70.398437h22.78125c38.851563 0 70.636719-31.679687 70.636719-70.398437v-66.804688c0-4.996094-4.101562-9.082031-9.113281-9.082031zm0 0" fill="#ff9800"/><path d="m314.164062 383.902344h-28.910156c-15.128906 0-27.394531-12.265625-27.394531-27.390625v-79.039063c0-25.269531 20.484375-45.75 45.75-45.75 20.957031 0 37.949219 16.992188 37.949219 37.949219v86.839844c0 15.125-12.265625 27.390625-27.394532 27.390625zm0 0" fill="#ffab00"/><path d="m455.691406 383.902344h28.914063c15.128906 0 27.394531-12.265625 27.394531-27.390625v-79.039063c0-25.269531-20.484375-45.75-45.75-45.75-20.960938 0-37.949219 16.992188-37.949219 37.949219v86.839844c0 15.125 12.265625 27.390625 27.390625 27.390625zm0 0" fill="#ffab00"/><path d="m466.25 231.722656c-3.777344 0-7.425781.558594-10.871094 1.589844 19.46875 5.257812 33.792969 23.03125 33.792969 44.160156v79.039063c0 15.125-12.261719 27.390625-27.390625 27.390625h22.828125c15.125 0 27.390625-12.265625 27.390625-27.390625v-79.039063c0-25.269531-20.484375-45.75-45.75-45.75zm0 0" fill="#ff9800"/><path d="m484.222656 340.269531c.429688 35.582031-29.128906 64.703125-64.714844 64.703125h-69.050781c-35.226562 0-64.507812-28.113281-64.820312-63.335937-.140625-15.398438 5.199219-30.0625 14.929687-41.648438 5.425782-6.460937 8.273438-14.699219 8.273438-23.136719v-34.523437c0-28.679687 23.25-51.929687 51.933594-51.929687h48.316406c28.679687 0 51.929687 23.25 51.929687 51.929687v34.519531c0 8.640625 3.15625 16.921875 8.648438 23.589844 8.941406 10.855469 14.371093 24.710938 14.554687 39.832031zm0 0" fill="#e6cabd"/><path d="m469.667969 300.4375c-5.492188-6.667969-8.648438-14.949219-8.648438-23.589844v-34.519531c0-28.679687-23.25-51.929687-51.929687-51.929687h-22.828125c28.679687 0 51.929687 23.25 51.929687 51.929687v34.519531c0 8.640625 3.15625 16.921875 8.648438 23.589844 8.941406 10.855469 14.375 24.710938 14.554687 39.832031.429688 35.585938-29.128906 64.703125-64.714843 64.703125h22.828124c35.585938 0 65.144532-29.117187 64.714844-64.703125-.183594-15.121093-5.613281-28.976562-14.554687-39.832031zm0 0" fill="#d9a990"/><path d="m461.019531 272.488281v-30.160156c0-28.679687-23.25-51.929687-51.929687-51.929687h-24.160156s-25.109376 82.089843 76.089843 82.089843zm0 0" fill="#ffc400"/><path d="m409.089844 190.398438h-22.941406c28.679687 0 51.933593 23.25 51.933593 51.929687v28.5c6.816407 1.066406 14.421875 1.660156 22.9375 1.660156v-30.160156c0-28.679687-23.25-51.929687-51.929687-51.929687zm0 0" fill="#ffab00"/><path d="m460.257812 325.1875c-4.140624 0-7.5 3.355469-7.5 7.5 0 8.449219-6.875 15.328125-15.328124 15.328125h-45v-17.609375c0-4.144531-3.359376-7.5-7.5-7.5-4.144532 0-7.5 3.355469-7.5 7.5v17.609375h-45c-8.453126 0-15.332032-6.878906-15.332032-15.328125 0-4.144531-3.355468-7.5-7.5-7.5-4.140625 0-7.5 3.355469-7.5 7.5 0 16.722656 13.605469 30.328125 30.332032 30.328125h105c16.722656 0 30.328124-13.605469 30.328124-30.328125 0-4.144531-3.355468-7.5-7.5-7.5zm0 0" fill="#633e31"/><path d="m384.929688 330.402344c-14.648438 0-26.632813-11.980469-26.632813-26.628906 0-14.648438 11.984375-26.632813 26.632813-26.632813 14.644531 0 26.628906 11.984375 26.628906 26.632813.003906 14.648437-11.980469 26.628906-26.628906 26.628906zm0 0" fill="#633e31"/><path d="m384.929688 277.140625c-4.078126 0-7.949219.929687-11.414063 2.589844 8.976563 4.292969 15.21875 13.472656 15.21875 24.042969 0 10.566406-6.242187 19.746093-15.21875 24.042968 3.464844 1.65625 7.335937 2.585938 11.414063 2.585938 14.644531 0 26.628906-11.984375 26.628906-26.628906.003906-14.648438-11.980469-26.632813-26.628906-26.632813zm0 0" fill="#59382c"/><path d="m372.761719 496.890625c0 8.320313-6.738281 15.109375-15.113281 15.109375h-67.179688c-8.347656 0-15.109375-6.761719-15.109375-15.109375 0-16.6875 13.519531-30.21875 30.21875-30.21875h36.960937c16.691407 0 30.222657 13.527344 30.222657 30.21875zm0 0" fill="#e6cabd"/><path d="m342.320312 466.671875h-22.828124c16.808593 0 30.4375 13.527344 30.4375 30.21875 0 8.34375-6.816407 15.109375-15.21875 15.109375h22.824218c8.40625 0 15.21875-6.765625 15.21875-15.109375 0-16.691406-13.625-30.21875-30.433594-30.21875zm0 0" fill="#d9a990"/><path d="m494.5 496.960938c0 8.265624-6.71875 15-15 15h-67.390625c-8.289063 0-15.007813-6.722657-15.007813-15 0-16.554688 13.429688-30 30.007813-30h37.390625c16.570312 0 30 13.429687 30 30zm0 0" fill="#e6cabd"/><path d="m464.0625 466.957031h-22.828125c16.8125 0 30.4375 13.433594 30.4375 30.003907 0 8.28125-6.8125 15-15.21875 15h22.828125c8.40625 0 15.21875-6.71875 15.21875-15 0-16.570313-13.628906-30.003907-30.4375-30.003907zm0 0" fill="#d9a990"/><g fill="#633e31"><path d="m60.261719 493.871094v18.128906h-15v-18.128906c0-4.140625 3.359375-7.5 7.5-7.5 4.148437 0 7.5 3.359375 7.5 7.5zm0 0"/><path d="m98.191406 493.871094v18.128906h-15v-18.128906c0-4.140625 3.359375-7.5 7.5-7.5 4.136719 0 7.5 3.359375 7.5 7.5zm0 0"/><path d="m192.171875 493.871094v18.128906h-15v-18.128906c0-4.140625 3.359375-7.5 7.5-7.5 4.136719 0 7.5 3.359375 7.5 7.5zm0 0"/><path d="m230.101562 493.871094v18.128906h-15v-18.128906c0-4.140625 3.347657-7.5 7.5-7.5 4.136719 0 7.5 3.359375 7.5 7.5zm0 0"/><path d="m314.058594 495.460938v16.539062h-15v-16.539062c0-4.140626 3.363281-7.5 7.5-7.5 4.140625 0 7.5 3.359374 7.5 7.5zm0 0"/><path d="m349.058594 495.460938v16.539062h-15v-16.539062c0-4.140626 3.363281-7.5 7.5-7.5 4.140625 0 7.5 3.359374 7.5 7.5zm0 0"/><path d="m435.800781 495.460938v16.5h-15v-16.5c0-4.140626 3.359375-7.5 7.5-7.5s7.5 3.359374 7.5 7.5zm0 0"/><path d="m470.800781 495.460938v16.5h-15v-16.5c0-4.140626 3.359375-7.5 7.5-7.5s7.5 3.359374 7.5 7.5zm0 0"/></g></svg>