<svg xmlns="http://www.w3.org/2000/svg" width="70.968" height="100" viewBox="0 0 70.968 100"><g transform="translate(-74.324)"><path d="M205.159,340.137l-4.9-2.1a4.839,4.839,0,0,1-2.934-4.448v-3.266H181.2v3.266a4.839,4.839,0,0,1-2.934,4.448l-4.9,2.1-.3,17.078h32.4Z" transform="translate(-79.457 -265.809)" fill="#f6d190"/><path d="M214.71,303.742a20.975,20.975,0,0,0,16.129,0V297.29H214.71Z" transform="translate(-112.967 -239.226)" fill="#ecbd83"/><path d="M185.547,108.382l-40.51-13.5a22.482,22.482,0,0,0-4.65,13.727v8.065h45.161v-8.065Q185.548,108.494,185.547,108.382Z" transform="translate(-53.16 -76.35)" fill="#785353"/><path d="M215.81,143.42H213.39a3.226,3.226,0,0,1-3.226-3.226v-1.613a6.452,6.452,0,0,0-6.452-6.452H187.584a6.422,6.422,0,0,0-3.226.863L181,148.706c0,9.8,5,20.27,14.8,20.27a16.355,16.355,0,0,0,3.094-.046,17.747,17.747,0,0,0,14.5-17.446h2.189a4.19,4.19,0,0,0,4.241-3.616,4.033,4.033,0,0,0-4.011-4.448Z" transform="translate(-85.841 -106.323)" fill="#ffe09f"/><path d="M145.033,155.044V136.553a6.474,6.474,0,0,0-3.226,5.587v1.613a3.226,3.226,0,0,1-3.226,3.226h-2.189a4.191,4.191,0,0,0-4.242,3.616,4.033,4.033,0,0,0,4.011,4.448h2.419a17.742,17.742,0,0,0,17.742,17.742,18.034,18.034,0,0,0,3.247-.3,17.766,17.766,0,0,1-14.537-17.446Z" transform="translate(-46.516 -109.882)" fill="#f6d190"/><path d="M199.806,191.353a1.613,1.613,0,0,1-.784-3.023l3.268-1.816-3.268-1.816a1.613,1.613,0,1,1,1.566-2.82l5.806,3.226a1.612,1.612,0,0,1,0,2.82l-5.806,3.226A1.6,1.6,0,0,1,199.806,191.353Z" transform="translate(-99.675 -146.192)" fill="#e2a975"/><path d="M274.981,191.353a1.6,1.6,0,0,1-.781-.2l-5.806-3.226a1.612,1.612,0,0,1,0-2.82l5.806-3.226a1.613,1.613,0,1,1,1.566,2.82l-3.268,1.816,3.268,1.816a1.613,1.613,0,0,1-.784,3.023Z" transform="translate(-155.498 -146.192)" fill="#e2a975"/><path d="M75.935,293.864a1.613,1.613,0,0,1-.2-3.213l12.9-1.613a1.613,1.613,0,1,1,.4,3.2l-12.9,1.613A1.577,1.577,0,0,1,75.935,293.864Z" transform="translate(0 -232.574)" fill="#dbeaff"/><path d="M133.741,320.255a1.613,1.613,0,0,1-.9-2.955l4.839-3.226a1.613,1.613,0,1,1,1.789,2.684l-4.839,3.226A1.607,1.607,0,0,1,133.741,320.255Z" transform="translate(-46.513 -252.513)" fill="#edf4ff"/><path d="M112.194,259.226h-3.226a1.613,1.613,0,1,1,0-3.226h3.226a1.613,1.613,0,1,1,0,3.226Z" transform="translate(-26.58 -206)" fill="#edf4ff"/><path d="M239.29,254.194h-6.452a1.613,1.613,0,0,1-1.613-1.613,4.839,4.839,0,1,1,9.677,0A1.613,1.613,0,0,1,239.29,254.194Z" transform="translate(-126.257 -199.355)" fill="#b57f5f"/><path d="M242.707,362.965a1.613,1.613,0,0,1-1.441-2.334l2.059-4.117H241.1a1.613,1.613,0,0,1-1.443-2.334l3.226-6.452a1.613,1.613,0,1,1,2.886,1.443l-2.059,4.117h2.229a1.613,1.613,0,0,1,1.443,2.334l-3.226,6.452A1.613,1.613,0,0,1,242.707,362.965Z" transform="translate(-132.901 -279.094)" fill="#ff8086"/><path d="M369.614,293.864a1.569,1.569,0,0,1-.2-.013l-12.9-1.613a1.613,1.613,0,1,1,.4-3.2l12.9,1.613a1.613,1.613,0,0,1-.2,3.213Z" transform="translate(-225.934 -232.574)" fill="#dbeaff"/><path d="M345.028,320.255a1.607,1.607,0,0,1-.893-.271l-4.839-3.226a1.613,1.613,0,0,1,1.789-2.684l4.839,3.226a1.613,1.613,0,0,1-.9,2.955Z" transform="translate(-212.642 -252.513)" fill="#edf4ff"/><path d="M376.452,259.226h-3.226a1.613,1.613,0,1,1,0-3.226h3.226a1.613,1.613,0,0,1,0,3.226Z" transform="translate(-239.225 -206)" fill="#edf4ff"/><circle cx="12.903" cy="12.903" r="12.903" transform="translate(96.904 0)" fill="#785353"/><path d="M182.125,49.548A22.543,22.543,0,0,0,164.194,58.4a53.088,53.088,0,0,0,35.673,13.727c1.628,0,3.246-.083,4.838-.226a22.585,22.585,0,0,0-22.58-22.355Z" transform="translate(-72.318 -39.871)" fill="#966a5b"/><path d="M160.386,408.347v-10.81a8.065,8.065,0,0,0-4.89-7.413l-6.889-2.927s-7.275,9-15.554,14.436a6.017,6.017,0,0,1-6.625,0C118.15,396.2,110.875,387.2,110.875,387.2l-6.889,2.927a8.064,8.064,0,0,0-4.89,7.413v10.81a3.226,3.226,0,0,0,3.226,3.226H157.16a3.226,3.226,0,0,0,3.226-3.226Z" transform="translate(-19.934 -311.573)" fill="#dad8db"/><path d="M162.348,380.559l-2.978,1.276c0,.007,0,.014.007.021a46.782,46.782,0,0,0,14.648,15.779,7.682,7.682,0,0,0,8.436,0,46.786,46.786,0,0,0,14.648-15.779c0-.007,0-.014.007-.021l-2.979-1.276a43.407,43.407,0,0,1-13.447,14.378,4.456,4.456,0,0,1-4.9,0A43.407,43.407,0,0,1,162.348,380.559Z" transform="translate(-68.436 -306.231)" fill="#eceaec"/></g></svg>