<svg enable-background="new 0 0 512 512" height="512" viewBox="0 0 512 512" width="512" xmlns="http://www.w3.org/2000/svg"><g id="_x31_05_x2C__Cucumber_x2C__Lettuce_x2C__Salad"><g><g><path d="m405.84 67.455c-2.56 0-5.118-.976-7.071-2.929-3.905-3.905-3.905-10.237 0-14.143l25.16-25.16c3.906-3.905 10.236-3.905 14.143 0 3.905 3.905 3.905 10.237 0 14.143l-25.16 25.16c-1.954 1.953-4.513 2.929-7.072 2.929z" fill="#73665c"/><path d="m111 174.705c-5.523 0-10-4.477-10-10v-35c0-5.523 4.477-10 10-10s10 4.477 10 10v35c0 5.523-4.477 10-10 10z" fill="#73665c"/><path d="m441 357.705c0 50.81-41.19 92-92 92h-8.17-61.83-56-61.83-8.17c-50.81 0-92-41.19-92-92v-48h380z" fill="#73665c"/><path d="m421 179.705c-27.61 0-50 22.39-50 50s22.39 50 50 50 50-22.39 50-50-22.39-50-50-50z" fill="#ffc36e"/><path d="m421 209.705c11.05 0 20 8.95 20 20s-8.95 20-20 20-20-8.95-20-20 8.95-20 20-20z" fill="#dab54d"/><path d="m405.84 57.455c10.33 10.34 10.33 27.09 0 37.43-10.34 10.33-27.09 10.33-37.43 0-10.33-10.34-10.33-27.09 0-37.43 10.34-10.33 27.09-10.33 37.43 0z" fill="#a0d887"/><path d="m368.41 94.885c4.79 4.78 7.75 11.4 7.75 18.71 0 14.62-11.851 26.47-26.46 26.47-14.62 0-26.47-11.85-26.47-26.47s11.85-26.46 26.47-26.46c7.3 0 13.92 2.96 18.71 7.75z" fill="#b1ef97"/><path d="m136 229.705c13.81 0 25 11.19 25 25s-11.19 25-25 25-25-11.19-25-25 11.19-25 25-25z" fill="#e5636d"/><path d="m111 254.705c0 13.81-11.19 25-25 25s-25-11.19-25-25 11.19-25 25-25 25 11.19 25 25z" fill="#ff6464"/><path d="m111 164.705c11.05 0 20 8.95 20 20s-8.95 20-20 20-20-8.95-20-20 8.95-20 20-20z" fill="#e46047"/><path d="m307.59 177.595c-3.53 0-6.83 1-9.63 2.73-2.8 1.74-5.09 4.2-6.62 7.13v-26.11c0-10.13-8.21-18.34-18.33-18.34-7.069 0-13.189 4.01-16.25 9.87v-26.12c0-10.12-8.21-18.33-18.34-18.33-5.06 0-9.64 2.05-12.96 5.37s-5.37 7.9-5.37 12.96v6.11l-29.94-29.94c-7.16-7.16-18.77-7.16-25.93 0s-7.16 18.77 0 25.93l29.94 29.94h-6.11c-10.12 0-18.33 8.21-18.33 18.33 0 5.06 2.05 9.65 5.37 12.97s7.9 5.37 12.96 5.37h26.12c-5.86 3.06-9.87 9.18-9.87 16.25 0 5.06 2.05 9.64 5.37 12.96s7.91 5.37 12.97 5.37h26.11c-5.86 3.06-9.86 9.18-9.86 16.25 0 5.07 2.05 9.65 5.37 12.96 3.31 3.32 7.9 5.37 12.96 5.37h48.891c5.439 0 10.31-2.38 13.67-6.14 3.76-3.36 6.14-8.23 6.14-13.67v-48.89c-.001-10.13-8.201-18.33-18.331-18.33z" fill="#5ca659"/><path d="m411 469.705c5.52 0 10 4.48 10 10s-4.48 10-10 10-10-4.48-10-10 4.48-10 10-10z" fill="#afb9d2"/><path d="m361 159.705c5.52 0 10 4.48 10 10s-4.48 10-10 10-10-4.48-10-10 4.48-10 10-10z" fill="#afb9d2"/><path d="m291 49.705c5.52 0 10 4.48 10 10s-4.48 10-10 10-10-4.48-10-10 4.48-10 10-10z" fill="#afb9d2"/><path d="m231 159.705c5.52 0 10 4.48 10 10s-4.48 10-10 10-10-4.48-10-10 4.48-10 10-10z" fill="#4c8e49"/><g fill="#afb9d2"><path d="m201 259.705c5.52 0 10 4.48 10 10s-4.48 10-10 10-10-4.48-10-10 4.48-10 10-10z"/><path d="m191 29.705c5.52 0 10 4.48 10 10s-4.48 10-10 10-10-4.48-10-10 4.48-10 10-10z"/><path d="m101 59.705c5.52 0 10 4.48 10 10s-4.48 10-10 10-10-4.48-10-10 4.48-10 10-10z"/><path d="m61 459.705c5.52 0 10 4.48 10 10s-4.48 10-10 10-10-4.48-10-10 4.48-10 10-10z"/><path d="m51 179.705c5.52 0 10 4.48 10 10s-4.48 10-10 10-10-4.48-10-10 4.48-10 10-10z"/></g><path d="m223 469.705c-56.243 0-102-45.757-102-102 0-5.522 4.477-10 10-10s10 4.478 10 10c0 45.215 36.785 82 82 82 5.523 0 10 4.478 10 10s-4.477 10-10 10z" fill="#60534a"/><path d="m279 469.705c-5.522 0-10-4.478-10-10s4.478-10 10-10c45.215 0 82-36.785 82-82 0-5.522 4.478-10 10-10s10 4.478 10 10c0 56.243-45.757 102-102 102z" fill="#60534a"/><path d="m341 289.705c-2.56 0-5.118-.977-7.071-2.929l-90-90c-3.905-3.905-3.905-10.237 0-14.143s10.236-3.905 14.143 0l90 90c3.905 3.905 3.905 10.237 0 14.143-1.954 1.953-4.512 2.929-7.072 2.929z" fill="#4c8e49"/><path d="m340.83 449.705v10.33c0 16.39-13.28 29.67-29.66 29.67h-120.34c-16.38 0-29.66-13.28-29.66-29.67v-10.33h61.83 56z" fill="#564941"/></g></g></g></svg>