<svg id="Layer_1" height="512" viewBox="0 0 64 64" width="512" xmlns="http://www.w3.org/2000/svg" data-name="Layer 1"><path d="m55 32a22.955 22.955 0 0 1 -12.05 20.22 22.089 22.089 0 0 1 -4.34 1.81c-.34.1-.69.2-1.04.28-.32.08-.64.16-.97.22a23.616 23.616 0 0 1 -3.6.45c-.33.01-.67.02-1 .02s-.67-.01-1-.02a23.616 23.616 0 0 1 -3.6-.45c-.33-.06-.65-.14-.97-.22-.35-.08-.7-.18-1.04-.28a22.089 22.089 0 0 1 -4.34-1.81 23 23 0 1 1 33.95-20.22z" fill="#206496"/><path d="m38.519 23.691-8.187-5.745 1.725-2.455a3 3 0 0 1 4.177-.732l3.275 2.3a3 3 0 0 1 .732 4.177zm-5.4-6.233 4.911 3.442.574-.818a1 1 0 0 0 -.244-1.392l-3.274-2.3a1 1 0 0 0 -1.392.244z" fill="#e6f6fd"/><path d="m43.673 30.53a2 2 0 0 1 -1.148-.363l-19.645-13.785a2 2 0 0 1 -.488-2.785 2 2 0 0 1 2.786-.49l19.645 13.786a2 2 0 0 1 -1.15 3.637z" fill="#fbda53"/><path d="m44 36-1.05 16.22a21.934 21.934 0 0 1 -5.38 2.09 22.827 22.827 0 0 1 -11.14 0 21.934 21.934 0 0 1 -5.38-2.09l-1.05-16.22z" fill="#f27935"/><rect fill="#fbda53" height="3" rx="1.5" width="28" x="18" y="33"/><g fill="#e6f6fd"><path d="m33 40v14.98c-.33.01-.67.02-1 .02s-.67-.01-1-.02v-14.98a1 1 0 0 1 2 0z"/><path d="m40 40.1-1.39 13.93c-.34.1-.69.2-1.04.28-.32.08-.64.16-.97.22a.852.852 0 0 1 -.02-.32l1.42-14.31a1 1 0 0 1 2 .2z"/><path d="m27.42 54.21a.852.852 0 0 1 -.02.32c-.33-.06-.65-.14-.97-.22-.35-.08-.7-.18-1.04-.28l-1.39-13.93a1 1 0 1 1 2-.2z"/></g></svg>