<svg xmlns="http://www.w3.org/2000/svg" width="200" height="200" viewBox="0 0 200 200"><circle cx="100" cy="100" r="100" fill="#949bf0"/><path d="M221.48,175.954l-9.83,17.18-31-32.148L132.8,150.554l-24.289,10.432L133.49,185.97,118.6,193.848l48.312,48.312-12.178,4.517L123.1,215.115l-14.82-4.8L73.156,175.189l3.971,19.361L85.5,223.986,152.906,291.4h0A100.011,100.011,0,0,0,244.328,198.8Z" transform="translate(-44.579 -91.744)" fill="#606aea"/><path d="M235.8,120.986,199.727,84.913l-36.073,36.073H173.96v32.944h51.533V120.986Z" transform="translate(-99.727 -51.744)" fill="#ffd15d"/><path d="M256,84.914v69.017h25.766V120.987h10.306Z" transform="translate(-156 -51.744)" fill="#f9b54c"/><path d="M336.092,211.94a4.025,4.025,0,0,0-4.667,1.439c-.015.021-.03.042-.046.062L312.9,237.388q.2.282.377.585a7.488,7.488,0,0,1-1.676,9.539L298.26,258.657a1.991,1.991,0,0,1-2.552-3.056l13.345-11.145a3.525,3.525,0,0,0-4.033-5.752l-19.886,11.577a13.506,13.506,0,0,0-5.221,5.5L264.1,286.525l16.036,9.142,2.607-9.753a14.246,14.246,0,0,1,7.883-9.316l23.455-10.689a18.4,18.4,0,0,0,9.088-10.059l15.412-39.109A4.032,4.032,0,0,0,336.092,211.94Z" transform="translate(-160.935 -128.999)" fill="#fed8b2"/><path d="M59.51,211.94a4.025,4.025,0,0,1,4.667,1.439c.015.021.03.042.046.062L82.7,237.388q-.2.282-.377.585A7.488,7.488,0,0,0,84,247.512l13.345,11.145a1.991,1.991,0,1,0,2.552-3.056L86.548,244.456a3.525,3.525,0,0,1,4.033-5.752l19.886,11.577a13.506,13.506,0,0,1,5.221,5.5L131.5,286.525l-16.036,9.141-2.607-9.753a14.246,14.246,0,0,0-7.883-9.316L81.523,265.907a18.4,18.4,0,0,1-9.088-10.059L57.023,216.739A4.032,4.032,0,0,1,59.51,211.94Z" transform="translate(-34.667 -128.999)" fill="#f4e3c3"/></svg>