<svg id="Capa_1" enable-background="new 0 0 512.001 512.001" height="512" viewBox="0 0 512.001 512.001" width="512" xmlns="http://www.w3.org/2000/svg"><g><path d="m472 468h-432v-312l216-112 216 112z" fill="#dad8db"/><path d="m252.331 81.905-176 90.839c-2.66 1.373-4.331 4.116-4.331 7.109v248.147c0 4.418 3.582 8 8 8h72l28.499-26.5h156.5l23 26.5h72c4.418 0 8-3.582 8-8v-248.147c0-2.993-1.671-5.736-4.331-7.109l-176-90.839c-2.3-1.188-5.035-1.188-7.337 0z" fill="#fff"/><path d="m338.12 372.707-39.179-13.06c-6.534-2.178-10.94-8.292-10.94-15.179v-11.169h-64v11.169c0 6.887-4.407 13.001-10.94 15.179l-39.179 13.06c-13.068 4.355-21.882 16.584-21.882 30.357v32.936h208v-32.936c0-13.773-8.814-26.002-21.88-30.357z" fill="#f6d190"/><path d="m256 340c11.385 0 22.195-2.414 32-6.701v-25.299h-32-32v25.299c9.805 4.287 20.615 6.701 32 6.701z" fill="#ecbd83"/><path d="m201 196v64c0 35.346 19.654 62.563 55 62.563 4.124 0 8.156 1.047 12.063.302 29.58-5.642 51.937-31.642 51.937-62.865v-64z" fill="#ffe09f"/><path d="m216 260v-64h-24v64c0 35.346 28.654 64 64 64 4.106 0 8.172-.396 12.063-1.135-29.603-5.622-52.063-31.624-52.063-62.865z" fill="#f6d190"/><path d="m288 156h-56c-13.255 0-24 10.745-24 24l8 40c0-8.837 7.164-16 16-16h48c8.836 0 16 7.163 16 16 0 13.255 10.745 24 24 24 4.418 0 8-3.582 8-8v-40c0-22.091-17.908-40-40-40z" fill="#966a5b"/><path d="m208 180c-13.255 0-24 10.745-24 24v32c0 4.48 3.712 8.034 8.192 7.999 13.167-.102 23.808-10.808 23.808-23.999v-32c0-4.418-3.581-8-8-8z" fill="#785353"/><path d="m232 268c-4.418 0-8-3.582-8-8v-8c0-4.418 3.582-8 8-8 4.418 0 8 3.582 8 8v8c0 4.419-3.581 8-8 8z" fill="#6e4848"/><path d="m280 268c-4.418 0-8-3.582-8-8v-8c0-4.418 3.582-8 8-8 4.418 0 8 3.582 8 8v8c0 4.419-3.581 8-8 8z" fill="#6e4848"/><g><path d="m256 300c-7.32 0-14.141-2.688-19.211-7.57-3.188-3.07-3.281-8.133-.219-11.312 3.07-3.188 8.148-3.266 11.312-.219 4.094 3.938 12.141 3.938 16.234 0 3.172-3.047 8.242-2.969 11.312.219 3.062 3.18 2.969 8.242-.219 11.312-5.068 4.883-11.888 7.57-19.209 7.57z" fill="#e2a975"/></g><g><path d="m503.993 180c-1.234 0-2.484-.289-3.664-.891l-244.329-126.109-244.328 126.11c-3.961 2.008-8.758.477-10.781-3.438-2.023-3.93-.484-8.758 3.437-10.781l248-128c2.312-1.188 5.031-1.188 7.344 0l248 128c3.922 2.023 5.461 6.852 3.438 10.781-1.422 2.75-4.219 4.328-7.117 4.328z" fill="#9b959d"/></g><g><path d="m488 476h-464c-4.422 0-8-3.578-8-8s3.578-8 8-8h464c4.422 0 8 3.578 8 8s-3.578 8-8 8z" fill="#9b959d"/></g><path d="m338.12 372.707-34.421-11.474c-9.85 16.036-27.499 26.767-47.699 26.767s-37.848-10.731-47.698-26.768l-34.421 11.474c-13.067 4.356-21.881 16.585-21.881 30.358v32.936h208v-32.936c0-13.773-8.814-26.002-21.88-30.357z" fill="#c8c5c9"/></g></svg>