<svg id="Capa_1" enable-background="new 0 0 497 497" height="512" viewBox="0 0 497 497" width="512" xmlns="http://www.w3.org/2000/svg"><g><g><g><path d="m390.786 191.13c-17.422-62.086-49.724-191.13-142.286-191.13-95.884 0-124.864 129.044-142.286 191.13-18.977 67.631-101.935 305.87 142.286 305.87s161.263-238.239 142.286-305.87z" fill="#a5cb81"/></g></g><g><g><path d="m248.497 458.866c-.11.003-.221.005-.331.007-37.53.818-81.403-5.002-108.052-34.407-25.748-28.411-26.519-71.147-22.137-109.238 7.907-68.738 27.773-135.674 53.198-200.025 7.769-19.665 16.348-39.569 30.797-55.006s36.04-25.783 56.75-21.518c17.449 3.593 31.423 16.703 42.084 30.976 24.238 32.448 35.822 72.337 47.334 111.168 14.556 49.1 29.835 98.563 33.118 149.671 2.047 31.87-1.531 66.331-22.02 90.828-26.776 32.009-71.749 36.674-110.741 37.544z" fill="#e3f18c"/></g></g><g><g><path d="m381.257 330.492c-3.283-51.107-18.561-100.57-33.118-149.671-11.512-38.831-23.095-78.72-47.334-111.168-10.661-14.273-24.635-27.382-42.084-30.976-8.356-1.721-16.854-1.06-24.97 1.351 15.122 4.853 27.44 16.754 37.055 29.625 24.238 32.448 35.822 72.337 47.334 111.168 14.556 49.101 29.835 98.563 33.118 149.671 2.047 31.87-1.531 66.331-22.02 90.828-24.694 29.524-64.865 35.782-101.549 37.26 6.938.369 13.809.439 20.479.294.11-.002.221-.005.331-.007 38.991-.87 83.964-5.536 110.739-37.547 20.489-24.497 24.067-58.958 22.019-90.828z" fill="#d5e37d"/></g></g><g><g><ellipse cx="252.194" cy="312.85" fill="#dfa267" rx="72.96" ry="88.258"/></g></g><g><g><path d="m254.215 224.507c-5.142 0-10.159.647-15 1.871 33.098 8.368 57.96 43.864 57.96 86.387s-24.862 78.02-57.96 86.387c4.841 1.224 9.858 1.871 15 1.871 40.295 0 72.96-39.515 72.96-88.258s-32.665-88.258-72.96-88.258z" fill="#d49559"/></g></g></g></svg>