<svg height="512" viewBox="0 0 128 128" width="512" xmlns="http://www.w3.org/2000/svg"><g><path d="m118.869 10.833c10.325 10.324-11.066 37.3-40.9 67.132s-56.808 51.228-67.133 40.9c-6.336-6.328-5.865-24.027 2.308-43.665.226-.526.451-1.071.7-1.6 1.211-2.79 2.583-5.608 4.095-8.436.123-.216.235-.441.367-.667a116.891 116.891 0 0 1 13.885-20.01c.347-.4.7-.817 1.071-1.221 1.538-1.742 3.152-3.466 4.838-5.166.949-.949 1.917-1.879 2.884-2.79l.094-.094a119.345 119.345 0 0 1 19.452-14.632c.413-.244.817-.479 1.221-.714 2.931-1.71 5.862-3.25 8.746-4.631.038-.019.066-.029.1-.047 21.423-10.109 41.452-11.18 48.272-4.359z" fill="#e2a76f"/><g fill="#c08e5e"><path d="m95.092 52.759a1.749 1.749 0 0 1 -1.321-2.9c1.886-2.177 3.665-4.3 5.287-6.31a1.75 1.75 0 0 1 2.723 2.2c-1.647 2.041-3.452 4.2-5.365 6.4a1.747 1.747 0 0 1 -1.324.61z"/><path d="m61.451 57.222c-6.1-4.5-17.747-9.892-28.193-13.95 1.542-1.748 3.156-3.472 4.842-5.172.949-.949 1.917-1.879 2.884-2.79l.094-.094a208.478 208.478 0 0 1 20.373 22.006z"/><path d="m39.383 79.29c-5.909-2.6-16.328-4.6-25.543-5.684 1.211-2.79 2.583-5.608 4.095-8.436.123-.216.235-.441.367-.667a174.992 174.992 0 0 1 21.081 14.787z"/><path d="m70.5 15.239a176.912 176.912 0 0 1 14.8 18.131c-5.042-4.162-14.643-9.37-23.549-13.5 2.931-1.71 5.862-3.25 8.749-4.631z"/></g></g></svg>