<svg xmlns="http://www.w3.org/2000/svg" xmlns:xlink="http://www.w3.org/1999/xlink" width="1008" height="505" viewBox="0 0 1008 505"><defs><filter id="a" x="0" y="0" width="1008" height="505" filterUnits="userSpaceOnUse"><feOffset dy="3" input="SourceAlpha"/><feGaussianBlur stdDeviation="3" result="b"/><feFlood flood-opacity="0.502"/><feComposite operator="in" in2="b"/><feComposite in="SourceGraphic"/></filter></defs><g transform="translate(-161 -313)"><g transform="matrix(1, 0, 0, 1, 161, 313)" filter="url(#a)"><g transform="translate(9 6)" fill="#fff" stroke="rgba(112,112,112,0)" stroke-linejoin="bevel" stroke-width="1"><rect width="990" height="487" rx="155" stroke="none"/><rect x="0.5" y="0.5" width="989" height="486" rx="154.5" fill="none"/></g></g><g transform="translate(180 360)"><path d="M1016.349-496.4s-227.2,4.931-401.037,12.148S369.5-400.819,369.5-400.819s336.817-30.513,382.011-77.06c35.025-36.074,126.654-133.84,203.57-189.87,22.176-16.154,38.263-32.919,61.269-58.825" transform="translate(-186.449 742.642)" fill="none" stroke="#ff8997" stroke-width="20"/><line x2="659.165" transform="translate(164.564 351.186)" fill="none" stroke="#707070" stroke-width="5"/><g transform="translate(482.163 350.633)"><path d="M-.577-2a1.018,1.018,0,0,1,.968.7A1.018,1.018,0,0,1,.021-.158a1.018,1.018,0,0,1-1.2,0,1.018,1.018,0,0,0,1.2,0A1.018,1.018,0,0,0,.391-1.3,1.018,1.018,0,0,0-.577-2Z" transform="translate(1.595 2)" fill="#1f78b4"/><path d="M-1.58.029A1.018,1.018,0,0,1-2-.794a1.018,1.018,0,0,1,.42-.824A1.018,1.018,0,0,0-2-.794a1.018,1.018,0,0,0,.42.824Z" transform="translate(2 1.812)" fill="#a6cee3"/><path d="M-1.176-1.806A1.018,1.018,0,0,1-.577-2,1.018,1.018,0,0,0-1.176-1.806Z" transform="translate(1.595 2)" fill="#b2df8a"/><text transform="translate(1.509 1.687)" fill="#1f78b4" font-size="1" font-family="ArialMT, Arial"><tspan x="-1.001" y="0">60%</tspan></text></g><path d="M-.577-2a1.018,1.018,0,0,1,.968.7A1.018,1.018,0,0,1,.021-.158a1.018,1.018,0,0,1-1.2,0,1.018,1.018,0,0,0,1.2,0A1.018,1.018,0,0,0,.391-1.3,1.018,1.018,0,0,0-.577-2Z" transform="translate(483.758 351.946)" fill="#1f78b4"/><path d="M-1.58.029A1.018,1.018,0,0,1-2-.794a1.018,1.018,0,0,1,.42-.824A1.018,1.018,0,0,0-2-.794a1.018,1.018,0,0,0,.42.824Z" transform="translate(484.163 351.759)" fill="#a6cee3"/><path d="M-1.176-1.806A1.018,1.018,0,0,1-.577-2,1.018,1.018,0,0,0-1.176-1.806Z" transform="translate(483.758 351.946)" fill="#b2df8a"/><text transform="translate(1 1)" fill="#1f78b4" font-size="1" font-family="ArialMT, Arial"><tspan x="-1.001" y="0">60%</tspan></text><text transform="translate(421 392)" fill="#707070" font-size="23" font-family="AppleGothic"><tspan x="0" y="0">Timeline of Events</tspan></text><path d="M0,313.779V0" transform="translate(165.814 38.891)" fill="none" stroke="#707070" stroke-width="5"/><text transform="translate(18 160)" fill="#707070" font-size="33" font-family="AppleGothic"><tspan x="13.979" y="29">Number </tspan><tspan x="0.878" y="69">of Cases</tspan></text><text transform="translate(837 61)" fill="#707070" font-size="23" font-family="AppleGothic"><tspan x="0" y="0">World</tspan></text><text transform="translate(834 358)" fill="#707070" font-size="22" font-family="AppleGothic"><tspan x="0" y="0">Today</tspan></text><text transform="translate(839 267)" fill="#707070" font-size="23" font-family="AppleGothic"><tspan x="0" y="0">China</tspan></text></g></g></svg>