<?xml version="1.0" encoding="iso-8859-1"?>
<!-- Generator: Adobe Illustrator 19.0.0, SVG Export Plug-In . SVG Version: 6.00 Build 0)  -->
<svg version="1.1" id="Capa_1" xmlns="http://www.w3.org/2000/svg" xmlns:xlink="http://www.w3.org/1999/xlink" x="0px" y="0px"
	 viewBox="0 0 512 512" style="enable-background:new 0 0 512 512;" xml:space="preserve">
<g>
	<circle style="fill:#55C0EB;" cx="101.333" cy="230.4" r="40.533"/>
	<path style="fill:#55C0EB;" d="M202.667,485.333c-1.067-14.933-12.8-26.667-28.8-26.667H28.8c-14.933,0-27.733,11.733-28.8,26.667
		H202.667z"/>
</g>
<path style="fill:#8AD7F8;" d="M170.667,427.733H32c-8.533,0-14.933,6.4-14.933,14.933l0,0c0,9.6,6.4,16,14.933,16h138.667
	c8.533,0,14.933-6.4,14.933-14.933l0,0C185.6,435.2,179.2,427.733,170.667,427.733z"/>
<path style="fill:#55C0EB;" d="M32,427.733L32,427.733c20.267-24.533,34.133-150.4,34.133-150.4h70.4
	c0,0,13.867,125.867,34.133,150.4l0,0H32z"/>
<path style="fill:#8AD7F8;" d="M138.667,247.467H62.933c-8.533,0-16,7.467-16,16l0,0c0,8.533,7.467,16,16,16h75.733
	c8.533,0,16-7.467,16-16l0,0C154.667,254.933,148.267,247.467,138.667,247.467z"/>
<g>
	<circle style="fill:#344A5E;" cx="410.667" cy="230.4" r="40.533"/>
	<path style="fill:#344A5E;" d="M512,485.333c-1.067-14.933-12.8-26.667-28.8-26.667H338.133c-14.933,0-27.733,11.733-28.8,26.667
		H512z"/>
</g>
<path style="fill:#415A6B;" d="M480,427.733H341.333c-8.533,0-14.933,6.4-14.933,14.933l0,0c0,8.533,6.4,14.933,14.933,14.933H480
	c8.533,0,14.933-6.4,14.933-14.933l0,0C494.933,435.2,488.533,427.733,480,427.733z"/>
<path style="fill:#344A5E;" d="M342.4,427.733L342.4,427.733c20.267-24.533,33.067-150.4,33.067-150.4h70.4
	c0,0,13.867,125.867,34.133,150.4l0,0H342.4z"/>
<path style="fill:#415A6B;" d="M449.067,247.467h-75.733c-8.533,0-16,7.467-16,16l0,0c0,8.533,7.467,16,16,16h75.733
	c8.533,0,16-7.467,16-16l0,0C465.067,254.933,457.6,247.467,449.067,247.467z"/>
<path style="fill:#F3705A;" d="M221.867,85.333c-4.267,3.2-6.4,7.467-6.4,11.733c0,6.4,5.333,12.8,14.933,17.067h50.133
	c8.533-4.267,14.933-9.6,14.933-17.067c0-4.267-2.133-8.533-6.4-11.733c11.733-1.067,20.267-8.533,20.267-17.067
	c0-4.267-2.133-8.533-6.4-11.733c-3.2-3.2-9.6-5.333-14.933-5.333l0,0c0-3.2,0-6.4,0-7.467c0-9.6-13.867-17.067-32-17.067
	c-18.133,0-32,7.467-32,17.067c0,1.067,0,4.267,1.067,7.467l0,0c-11.733,0-22.4,7.467-22.4,17.067
	C202.667,76.8,211.2,84.267,221.867,85.333z"/>
<g>
	<rect x="169.6" y="437.333" style="fill:#F05540;" width="168.533" height="23.467"/>
	<path style="fill:#F05540;" d="M382.933,485.333C381.867,464,364.8,448,343.467,448H169.6c-21.333,0-38.4,17.067-39.467,37.333
		H382.933z"/>
	<polygon style="fill:#F05540;" points="173.867,405.333 214.4,203.733 178.133,108.8 333.867,108.8 297.6,203.733 338.133,405.333 
			"/>
</g>
<g>
	<path style="fill:#F3705A;" d="M338.133,405.333H173.867c-11.733,0-21.333,9.6-21.333,21.333l0,0
		c0,11.733,9.6,21.333,21.333,21.333h164.267c11.733,0,21.333-9.6,21.333-21.333l0,0
		C359.467,414.933,349.867,405.333,338.133,405.333z"/>
	<path style="fill:#F3705A;" d="M313.6,226.133H198.4c-6.4,0-12.8,5.333-12.8,12.8l0,0c0,6.4,5.333,12.8,12.8,12.8h115.2
		c6.4,0,12.8-5.333,12.8-12.8l0,0C325.333,231.467,320,226.133,313.6,226.133z"/>
	<path style="fill:#F3705A;" d="M301.867,188.8H211.2c-6.4,0-12.8,5.333-12.8,12.8l0,0c0,6.4,5.333,12.8,12.8,12.8h90.667
		c6.4,0,12.8-5.333,12.8-12.8l0,0C313.6,194.133,308.267,188.8,301.867,188.8z"/>
</g>
<g>
</g>
<g>
</g>
<g>
</g>
<g>
</g>
<g>
</g>
<g>
</g>
<g>
</g>
<g>
</g>
<g>
</g>
<g>
</g>
<g>
</g>
<g>
</g>
<g>
</g>
<g>
</g>
<g>
</g>
</svg>
