<svg xmlns="http://www.w3.org/2000/svg" xmlns:xlink="http://www.w3.org/1999/xlink" width="260" height="260" viewBox="0 0 260 260"><defs><clipPath id="a"><circle cx="130" cy="130" r="130" transform="translate(560 4120)" fill="#fff" stroke="#707070" stroke-width="1"/></clipPath></defs><g transform="translate(-560 -4120)" clip-path="url(#a)"><g transform="translate(531.111 4094.1)"><path d="M312.3,345.824H5.479c-3.026,0-5.479-3.71-5.479-8.284V39.319c0-4.575,2.453-8.284,5.479-8.284H312.3c3.026,0,5.479,3.71,5.479,8.284v298.22C317.777,342.115,315.324,345.824,312.3,345.824Z" transform="translate(0 -31.034)" fill="#ff4b55"/><g transform="translate(63.43 54.789)"><path d="M53.41,50.747,60.732,72.7l23.141.179A3.118,3.118,0,0,1,85.7,78.505L67.085,92.252l6.98,22.064a3.118,3.118,0,0,1-4.787,3.477L50.452,104.336,31.626,117.792a3.118,3.118,0,0,1-4.787-3.477l6.98-22.064L15.2,78.505a3.118,3.118,0,0,1,1.828-5.626L40.173,72.7l7.322-21.953A3.118,3.118,0,0,1,53.41,50.747Z" transform="translate(-13.932 -27.046)" fill="#ffe15a"/><path d="M70.7,51.955l5.25,7.16,8.473-2.65a1.2,1.2,0,0,1,1.328,1.84l-5.187,7.2L85.7,72.748a1.2,1.2,0,0,1-1.34,1.831L75.91,71.873,70.613,79a1.2,1.2,0,0,1-2.156-.708l-.039-8.878L60,66.574a1.2,1.2,0,0,1,.008-2.27l8.43-2.78.1-8.877A1.2,1.2,0,0,1,70.7,51.955Z" transform="translate(52.808 -22.845)" fill="#ffe15a"/><path d="M51.718,47.668l8.826.959,3.765-8.039a1.2,1.2,0,0,1,2.254.263l1.815,8.689,8.809,1.1a1.2,1.2,0,0,1,.446,2.225l-7.7,4.411,1.68,8.717A1.2,1.2,0,0,1,69.632,67.1l-6.576-5.964-7.771,4.291a1.2,1.2,0,0,1-1.669-1.538l3.639-8.1-6.483-6.065A1.2,1.2,0,0,1,51.718,47.668Z" transform="translate(39.828 -39.899)" fill="#ffe15a"/><path d="M65.671,78.1l-5.25,7.16-8.473-2.65a1.2,1.2,0,0,0-1.328,1.84l5.187,7.2-5.138,7.239a1.2,1.2,0,0,0,1.34,1.831l8.455-2.707,5.3,7.124a1.2,1.2,0,0,0,2.156-.708l.039-8.878,8.413-2.837a1.2,1.2,0,0,0-.008-2.27l-8.43-2.78-.1-8.877A1.2,1.2,0,0,0,65.671,78.1Z" transform="translate(39.829 15.706)" fill="#ffe15a"/><path d="M85.284,74.332l-8.826.959-3.765-8.039a1.2,1.2,0,0,0-2.254.263L68.623,76.2l-8.809,1.1a1.2,1.2,0,0,0-.446,2.225l7.7,4.411-1.68,8.717a1.2,1.2,0,0,0,1.978,1.113L73.945,87.8l7.771,4.291a1.2,1.2,0,0,0,1.669-1.538l-3.639-8.1,6.483-6.065A1.194,1.194,0,0,0,85.284,74.332Z" transform="translate(52.178 -0.581)" fill="#ffe15a"/></g></g></g></svg>