<svg id="icons" height="512" viewBox="0 0 340 340" width="512" xmlns="http://www.w3.org/2000/svg"><path d="m170.339 166.445c-16.856 33.855-33.283 64.232-48.738 86.71 0 0-19.264-7.561-32.981-17.789a16.6 16.6 0 0 1 -6.14-9.147 16.615 16.615 0 0 0 -7.361-9.971l-13.829-8.528a8.445 8.445 0 0 0 -11.563 2.68 82.568 82.568 0 0 0 -9.308 21.03 15.906 15.906 0 0 0 5.724 17.245c14.768 11.02 47.625 34.127 85.025 51.363a6.954 6.954 0 0 0 8.168-1.764c18.544-21.377 34.816-46.165 49.227-73.748z" fill="#ba5250"/><path d="m303.921 329.593s-4.339-78.536-11.157-118.208c0 0-113.062-166.91-132.581-194a16.89 16.89 0 0 0 -19.266-6.033c-19.723 6.863-61.339 19.613-94.884 18.24 0 0 5.875 17.356 30.708 18.424 0 0-7.21 7.477-17.891 8.812 0 0 3.066 8.321 18.714 8.306a10.81 10.81 0 0 1 8.913 4.591 122.143 122.143 0 0 1 6.771 10.867 20.716 20.716 0 0 1 1.107 17.408l-2.661 6.892 13.351 10.948a33.583 33.583 0 0 1 17.355-12.156 15.282 15.282 0 0 1 19.476 15.934 27.947 27.947 0 0 1 -5.856 15.182l13.823 11.557s9.659-13.444 21.163-29.388c4.022 4.2 7.587 10.442 11.025 17.253l2.669 4.178-14.361 28.046s23.894 83.133 21.465 155.081a7.834 7.834 0 0 0 7.848 8.067z" fill="#f4a89f"/><path d="m209.939 131.078c1 8.827 5 21.3 17.35 34.8 6.512 7.119 12.876 14.365 18.838 21.95 7.453 9.482 16.616 21.551 23.061 31.424l12.278-19.832-62.822-72.2a4.982 4.982 0 0 0 -8.705 3.858z" fill="#ba5250"/><g fill="#f74f73"><path d="m94.261 138.386c-11.049 13.767-30.875 27.686-42.241 35.072a1.89 1.89 0 0 1 -2.489-2.784c7.551-9.181 21.92-24.219 42.344-35.133a1.894 1.894 0 0 1 2.386 2.845z"/><path d="m116.018 140.508c-3.06 21.7-15.388 49.12-22.832 64.209a2.345 2.345 0 0 1 -4.421-1.392c2.235-14.586 8.031-39.743 22.9-64.34a2.352 2.352 0 0 1 4.353 1.523z"/><circle cx="24.742" cy="126.552" r="4.306"/><circle cx="19.594" cy="193.917" r="6.431"/></g><path d="m171.006 116.97 10.785-14.921a2.767 2.767 0 0 1 4.977 2.05l-2.068 34.301z" fill="#ba5250"/><path d="m132.295 151.194a81.753 81.753 0 0 1 .838 27.976 2.345 2.345 0 0 1 -4.624.137 83.635 83.635 0 0 1 -.822-27.947 2.348 2.348 0 0 1 4.608-.166z" fill="#f74f73"/><path d="m80.126 177.875a11.055 11.055 0 0 1 -1.742 2.3c-3.858 3.94-8.528.338-5.732-4.415a9.8 9.8 0 0 1 2.227-2.659c3.821-3.101 7.665.48 5.247 4.774z" fill="#f74f73"/><path d="m134.2 199.178a11.652 11.652 0 0 1 .041 3.048c-.664 5.781-6.887 5.8-7.635.032a10.289 10.289 0 0 1 .134-3.658c1.173-5.066 6.695-4.566 7.46.578z" fill="#f74f73"/><path d="m296.442 238.045-53.533 40.155a25.566 25.566 0 0 0 -3.7 37.622c.406.446 11.818 13.767 11.818 13.767h52.894s-1.682-50.313-7.479-91.544z" fill="#ba5250"/><path d="m217.879 103.208c-5.051 5.963-9.475 14.736-6.979 25.984a24.367 24.367 0 0 0 7.444 12.6c11.6 10.625 43.742 40.662 56.246 58.559 0 0-18.37 33.415-34.9 54.6a12.228 12.228 0 0 0 -1.751 11.913l.029.073a12.484 12.484 0 0 1 -.175 9.43c-1.041 2.412-2.472 5.485-4.307 8.9a17.465 17.465 0 0 0 3.022 20.6 54.72 54.72 0 0 0 11.584 8.24 7.869 7.869 0 0 0 10.6-2.688l67.15-108.819a6.657 6.657 0 0 0 -.313-7.467c-9.472-12.769-43.328-56.634-87.664-93.574a14.263 14.263 0 0 0 -19.986 1.649z" fill="#f4a89f"/><path d="m78.914 127.227a12.847 12.847 0 0 1 -3.307.681c-6.429.487-7.754-6.28-1.631-8.3a11.429 11.429 0 0 1 4.007-.619c5.758.217 6.368 6.329.931 8.238z" fill="#f74f73"/></svg>