<svg xmlns="http://www.w3.org/2000/svg" width="196.036" height="300" viewBox="0 0 196.036 300"><g transform="translate(-80.399)"><path d="M276.3,298.77l-.987-3.38a3.41,3.41,0,0,0-3.7-2.425l-1.041-7.808-2.156-16.173v0l-.25-1.879c-1.133-8.5-6.4-15.878-15.067-20.212l-10.16-5.08c-1.646-.822-2.9.236-4.11,1.58l-22.3-8.2a10.345,10.345,0,0,1-7.073-9.814V208.691l22.281-9.284a31.037,31.037,0,0,0,19.1-28.648V124.207C250.832,109.923,239.253,88,224.97,88h-93.1C117.583,88,106,109.923,106,124.207v46.552a31.036,31.036,0,0,0,19.1,28.647l22.281,9.284v16.682a10.345,10.345,0,0,1-7.073,9.814l-22.3,8.2c-1.208-1.344-2.465-2.4-4.11-1.58l-10.16,5.08c-8.67,4.335-13.934,11.716-15.067,20.212l-.25,1.879v0L86.27,285.156l-1.041,7.808a3.411,3.411,0,0,0-3.7,2.425l-.987,3.38A3.413,3.413,0,0,0,82.86,303l.992.29-1.366,10.244A15.514,15.514,0,0,0,97.865,331.1H258.971a15.517,15.517,0,0,0,15.381-17.568l-1.366-10.244.992-.29A3.412,3.412,0,0,0,276.3,298.77Z" transform="translate(-0.001 -31.103)" fill="#e0ffbc"/><path d="M181.26,273v17.76a10.342,10.342,0,0,1-5.012,8.858c41.22,7.122,64.78-23.794,66.921-26.619Z" transform="translate(-33.878 -96.491)" fill="#bdde97"/><path d="M245.73,199.406l-33.423,13.926a51.728,51.728,0,0,1-19.894,3.979h0a51.732,51.732,0,0,1-19.894-3.979L139.1,199.407A31.036,31.036,0,0,1,120,170.759V124.207C120,109.924,131.579,88,145.862,88h93.1c14.283,0,25.862,21.924,25.862,36.207v46.552A31.034,31.034,0,0,1,245.73,199.406Z" transform="translate(-13.997 -31.103)" fill="#e0ffbc"/><path d="M173.172,183.517h0A5.188,5.188,0,0,1,168,178.345v-5.172A5.188,5.188,0,0,1,173.172,168h0a5.188,5.188,0,0,1,5.172,5.172v5.172A5.188,5.188,0,0,1,173.172,183.517Z" transform="translate(-30.962 -59.379)" fill="#623f33"/><path d="M285.172,183.517h0A5.188,5.188,0,0,1,280,178.345v-5.172A5.188,5.188,0,0,1,285.172,168h0a5.188,5.188,0,0,1,5.172,5.172v5.172A5.188,5.188,0,0,1,285.172,183.517Z" transform="translate(-70.549 -59.379)" fill="#623f33"/><g transform="translate(152.554 144.827)"><path d="M217.862,239.658c-9.2,0-17.8-2.263-23.6-6.21a5.172,5.172,0,1,1,5.819-8.551c4.066,2.765,10.713,4.417,17.78,4.417s13.714-1.652,17.78-4.417a5.172,5.172,0,0,1,5.819,8.551C235.66,237.4,227.058,239.658,217.862,239.658Z" transform="translate(-191.999 -223.998)" fill="#e47b7b"/></g><path d="M120,129.073v40.642a31.035,31.035,0,0,0,19.1,28.647l33.42,13.925a51.8,51.8,0,0,0,5,1.777,215.876,215.876,0,0,1-30.362-26.426,24.248,24.248,0,0,1-6.462-16.568V142.164C155.5,137,193.8,120.021,194.332,92.13c.05-2.636.01-4.986-.106-7.082A109.586,109.586,0,0,1,120,129.073Z" transform="translate(-13.997 -30.06)" fill="#bdde97"/><path d="M271.116,172.042c0-10.96-9.036-15.591-9.036-24.924s11.74-11.844,11.74-25.835c0-9.353-4.168-16.614-6.932-23.306C282.651,29.659,223.522,0,207.431,0c-16.81,0-25.862,5.172-25.862,5.172S172.517,0,155.707,0c-16.091,0-75.22,29.659-59.458,97.977-2.765,6.692-6.932,13.953-6.932,23.306,0,13.992,11.74,16.5,11.74,25.835s-9.036,13.965-9.036,24.924,8.7,16.267,11.53,24.512c1.293,3.771-.215,15.084-.215,15.084s9.213-15.2,4.364-29.167.776-15.467,5.172-21.566c6.627-9.192,5.728-19.505.316-29.528-3.5-6.473-2.575-12.726,2.324-17.079,5.156-4.581,6.365-12.488,6.372-12.539,24.488-7.169,59.684-21.531,59.684-44.863,0,23.332,35.2,37.694,59.683,44.863.008.05,1.217,7.957,6.372,12.539,4.9,4.353,5.819,10.606,2.324,17.079-5.412,10.023-6.311,20.337.316,29.528,4.4,6.1,10.022,7.6,5.172,21.566s4.364,29.167,4.364,29.167-1.508-11.313-.215-15.084C262.414,188.308,271.116,183,271.116,172.042Z" transform="translate(-3.152)" fill="#79443c"/><path d="M270.383,351.026c-1.133-8.5-6.4-15.878-15.067-20.212l-10.16-5.08c-1.878-.939-3.249.573-4.62,2.163-27.566,31.96-59.893,45.755-59.893,45.755h0s-32.327-13.795-59.893-45.755c-1.371-1.59-2.743-3.1-4.62-2.163l-10.16,5.08C97.3,335.149,92.033,342.53,90.9,351.026L86.69,382.6c13.663,4.7,37.054,11.737,37.054,11.737v20.69H237.537v-20.69s23.391-7.032,37.056-11.737Z" transform="translate(-2.223 -115.028)" fill="#57b9dd"/><path d="M123.675,402.542A30.977,30.977,0,0,0,117.6,385.5L93.313,353.125a25.205,25.205,0,0,0-2.357,7.686l-4.1,30.751Z" transform="translate(-2.283 -124.811)" fill="#43a0c5"/><path d="M80.537,410.8a3.413,3.413,0,0,0,2.32,4.232l38.664,11.278v-3.867a30.918,30.918,0,0,0-.945-7.185L85.755,405.1a3.412,3.412,0,0,0-4.231,2.32Z" transform="translate(0 -143.134)" fill="#258cac"/><path d="M320.2,402.542a30.977,30.977,0,0,1,6.079-17.04l24.283-32.377a25.2,25.2,0,0,1,2.357,7.686l4.1,30.751Z" transform="translate(-84.756 -124.811)" fill="#43a0c5"/><path d="M360.984,410.8a3.413,3.413,0,0,1-2.32,4.232L320,426.311v-3.867a30.917,30.917,0,0,1,.945-7.185L355.765,405.1a3.412,3.412,0,0,1,4.231,2.32Z" transform="translate(-84.687 -143.134)" fill="#258cac"/><path d="M155.707,0C139.615,0,80.488,29.659,96.249,97.977h0c-2.765,6.692-6.932,13.953-6.932,23.306,0,13.992,11.74,16.5,11.74,25.835s-9.036,13.965-9.036,24.924,8.7,16.267,11.53,24.512c1.293,3.771-.215,15.084-.215,15.084s9.213-15.2,4.364-29.167.776-15.467,5.172-21.566c6.627-9.192,5.728-19.505.316-29.528-3.5-6.473-2.575-12.726,2.324-17.079,5.156-4.581,6.365-12.488,6.372-12.539h0C107.273,34.505,165.529,5.226,181.569,5.175v0S172.517,0,155.707,0Z" transform="translate(-3.152)" fill="#5e342e"/></g></svg>