<svg xmlns="http://www.w3.org/2000/svg" xmlns:xlink="http://www.w3.org/1999/xlink" width="238" height="240" viewBox="0 0 238 240"><defs><style>.a{fill:#a4ccff;}.b{fill:#65a9ff;}.c{fill:#edbb8e;}.d{fill:#dba375;}.e{fill:#935635;}.f{fill:#804000;}.g{fill:#f4e3c3;}.h{fill:#fed8b2;}.i{fill:#b97850;}.j{fill:#324a5e;}.k{filter:url(#a);}</style><filter id="a" x="0" y="0" width="238" height="240" filterUnits="userSpaceOnUse"><feOffset dx="3" dy="3" input="SourceAlpha"/><feGaussianBlur stdDeviation="3" result="b"/><feFlood flood-opacity="0.502"/><feComposite operator="in" in2="b"/><feComposite in="SourceGraphic"/></filter></defs><g transform="translate(6 5.749)"><g class="k" transform="matrix(1, 0, 0, 1, -6, -5.75)"><path class="a" d="M110,0c60.751,0,110,49.7,110,111S170.751,222,110,222,0,172.3,0,111,49.249,0,110,0Z" transform="translate(6 6)"/></g><path class="b" d="M295.447,215.01l-67.861-68.479-47.786,33.7-43.88,15.706,34.369,34.681,51.848,68.661A110.784,110.784,0,0,0,295.447,215.01Z" transform="translate(-77.548 -82.932)"/><g transform="translate(60.324 100.106)"><path class="c" d="M190.084,352.647A108.671,108.671,0,0,0,239.7,340.728l-28.058-99.1a14.856,14.856,0,0,0-14.264-10.857H182.79a14.854,14.854,0,0,0-14.264,10.857l-28.059,99.1A108.674,108.674,0,0,0,190.084,352.647Z" transform="translate(-140.467 -230.773)"/><path class="c" d="M182.789,230.772a14.854,14.854,0,0,0-14.264,10.857l-28.059,99.1a108.677,108.677,0,0,0,49.617,11.919h0V230.772Z" transform="translate(-140.466 -230.772)"/></g><path class="d" d="M277.558,241.631a14.856,14.856,0,0,0-14.264-10.857H256V352.647a108.665,108.665,0,0,0,49.616-11.919Z" transform="translate(-146.059 -130.667)"/><path class="e" d="M149.363,142.222h5.927a6.036,6.036,0,0,1,5.8,4.412l11.576,40.884a6.071,6.071,0,0,1-5.8,7.753H137.787a6.072,6.072,0,0,1-5.8-7.753l11.576-40.884A6.037,6.037,0,0,1,149.363,142.222Z" transform="translate(-75.172 -80.49)"/><path class="f" d="M302.053,142.222h5.927a6.036,6.036,0,0,1,5.8,4.412l11.576,40.884a6.072,6.072,0,0,1-5.8,7.753H290.477a6.072,6.072,0,0,1-5.8-7.753l11.576-40.884A6.036,6.036,0,0,1,302.053,142.222Z" transform="translate(-162.288 -80.49)"/><g transform="translate(76.481 61.732)"><path class="g" d="M216.368,228.509h-9.641a9.817,9.817,0,0,1-9.427-7.176l-18.829-66.5a9.876,9.876,0,0,1,9.427-12.611h47.3a9.876,9.876,0,0,1,9.427,12.611l-18.829,66.5A9.814,9.814,0,0,1,216.368,228.509Z" transform="translate(-178.089 -142.222)"/><path class="g" d="M187.9,142.222a9.876,9.876,0,0,0-9.427,12.611l18.829,66.5a9.818,9.818,0,0,0,9.427,7.176h4.82V142.222Z" transform="translate(-178.089 -142.222)"/></g><path class="h" d="M279.649,142.222H256v86.287h4.82a9.817,9.817,0,0,0,9.427-7.176l18.829-66.5A9.876,9.876,0,0,0,279.649,142.222Z" transform="translate(-146.059 -80.49)"/><ellipse class="i" cx="12.215" cy="12.327" rx="12.215" ry="12.327" transform="translate(85.51 74.059)"/><g transform="translate(94.024 82.65)"><ellipse class="j" cx="3.702" cy="3.736" rx="3.702" ry="3.736"/><ellipse class="j" cx="3.702" cy="3.736" rx="3.702" ry="3.736" transform="translate(24.431)"/></g><g transform="translate(103.833 135.693)"><ellipse class="e" cx="6.108" cy="6.163" rx="6.108" ry="6.163"/><path class="e" d="M247.886,312.889a6.164,6.164,0,0,0,0,12.327h0V312.889Z" transform="translate(-241.778 -312.889)"/></g><path class="f" d="M262.108,319.052A6.135,6.135,0,0,0,256,312.889v12.327A6.136,6.136,0,0,0,262.108,319.052Z" transform="translate(-146.059 -177.196)"/></g></svg>