<svg xmlns="http://www.w3.org/2000/svg" xmlns:xlink="http://www.w3.org/1999/xlink" width="198" height="198" viewBox="0 0 198 198"><defs><filter id="a" x="0" y="0" width="198" height="198" filterUnits="userSpaceOnUse"><feOffset dy="3" input="SourceAlpha"/><feGaussianBlur stdDeviation="3" result="b"/><feFlood flood-opacity="0.161"/><feComposite operator="in" in2="b"/><feComposite in="SourceGraphic"/></filter><clipPath id="c"><circle cx="90" cy="90" r="90" fill="#ff9393" stroke="rgba(112,112,112,0)" stroke-width="1"/></clipPath></defs><g transform="translate(9 6)"><g transform="matrix(1, 0, 0, 1, -9, -6)" filter="url(#a)"><g transform="translate(9 6)" fill="#fff7d8" stroke="rgba(112,112,112,0)" stroke-width="1"><circle cx="90" cy="90" r="90" stroke="none"/><circle cx="90" cy="90" r="89.5" fill="none"/></g></g><g clip-path="url(#c)"><g transform="translate(13.72 -0.788)"><path d="M159.07,107.344a15.116,15.116,0,0,0-21.351,0l-23.883,23.883H37.485a2.57,2.57,0,0,0-2.57,2.57V172.56a2.57,2.57,0,0,0,2.57,2.57H99.676a31.08,31.08,0,0,0,22.121-9.162l37.273-37.273a15.114,15.114,0,0,0,0-21.35Z" transform="translate(-10.926 4.87)" fill="#ffd1a2"/><path d="M102.375,118.775H79.5C77.317,116.021,71,109.9,57.946,109.9c-13.788,0-20.214,6.832-22.08,9.292a2.565,2.565,0,0,0-.952,2v.123c0,.03,0,.061,0,.091v25a2.57,2.57,0,0,0,2.57,2.57h64.89a15.1,15.1,0,1,0,0-30.193Z" transform="translate(-10.926 4.718)" fill="#ffe5c1"/><path d="M160.232,107.344a15.116,15.116,0,0,0-21.351,0L115,131.228H88.371v43.9h12.468a31.08,31.08,0,0,0,22.121-9.162l37.273-37.273a15.114,15.114,0,0,0,0-21.35Z" transform="translate(-12.088 4.87)" fill="#ffbc85"/><path d="M103.537,149.166a15.1,15.1,0,1,0,0-30.194H88.371v30.193h15.166Z" transform="translate(-12.088 4.521)" fill="#ffd1a2"/><path d="M36.952,113.556H12.963a2.57,2.57,0,0,0-2.57,2.57v56.665a2.57,2.57,0,0,0,2.57,2.57H36.952a2.57,2.57,0,0,0,2.57-2.57V116.126a2.57,2.57,0,0,0-2.57-2.57Z" transform="translate(-10.392 4.639)" fill="#a4ccff"/><path d="M48.336,0A48.336,48.336,0,1,1,0,48.336,48.336,48.336,0,0,1,48.336,0Z" transform="translate(20.815 95.427) rotate(-80.792)" fill="#ffd400"/><path d="M136.713,48.342A48.4,48.4,0,0,0,88.371,0V96.684A48.4,48.4,0,0,0,136.713,48.342Z" transform="translate(-12.088 7.108)" fill="#fdbf00"/><path d="M101.862,52.7c-2.492-5.45-8.271-7.515-12.095-8.881l-.01,0c-2.064-.737-5.507-1.968-6.194-3.471a2.944,2.944,0,0,1,.976-3.479c1.5-1.062,4.4-1.146,6.461-.187a3.126,3.126,0,0,1,1.77,1.866,5.141,5.141,0,0,0,9.632-3.6,13.414,13.414,0,0,0-7.062-7.59,17.192,17.192,0,0,0-2.161-.831V24.789a5.141,5.141,0,0,0-10.281,0v1.638a14.642,14.642,0,0,0-4.29,2.042,13.285,13.285,0,0,0-4.394,16.153c2.493,5.451,8.271,7.515,12.095,8.88l.005,0c2.064.737,5.511,1.97,6.2,3.473a2.944,2.944,0,0,1-.976,3.479c-1.5,1.062-4.4,1.147-6.461.187a3.125,3.125,0,0,1-1.771-1.866,5.141,5.141,0,1,0-9.632,3.6,13.412,13.412,0,0,0,7.063,7.59,17.22,17.22,0,0,0,2.161.827V72.75a5.141,5.141,0,0,0,10.281,0V70.906a14.642,14.642,0,0,0,4.29-2.051A13.287,13.287,0,0,0,101.862,52.7Z" transform="translate(-11.755 6.68)" fill="#ff9200"/><g transform="translate(76.283 26.329)"><path d="M91.333,36.68a3.126,3.126,0,0,1,1.77,1.866,5.141,5.141,0,1,0,9.632-3.6,13.414,13.414,0,0,0-7.062-7.59,17.191,17.191,0,0,0-2.161-.831V24.789a5.141,5.141,0,0,0-5.141-5.141V36.017a7.657,7.657,0,0,1,2.962.663Z" transform="translate(-88.371 -19.649)" fill="#ff6319"/><path d="M102.195,53.225C99.7,47.775,93.924,45.71,90.1,44.344l-.01,0c-.51-.182-1.1-.394-1.719-.633V54.663c1.877.729,3.957,1.707,4.474,2.838a2.944,2.944,0,0,1-.976,3.479,5.961,5.961,0,0,1-3.5.851V78.412a5.141,5.141,0,0,0,5.141-5.141V71.428a14.643,14.643,0,0,0,4.29-2.051,13.286,13.286,0,0,0,4.393-16.152Z" transform="translate(-88.371 -20.172)" fill="#ff6319"/></g></g></g></g></svg>