<svg height="512" viewBox="0 0 128 128" width="512" xmlns="http://www.w3.org/2000/svg"><g><path d="m103.43 32.107-3.856-4.6c3.684-3.094 12.976-11.951 16.177-19.189a3.014 3.014 0 0 1 3.472-1.745 3.005 3.005 0 0 1 2.011 4.157c-4.516 10.152-17.207 20.876-17.804 21.377z" fill="#aac448"/><path d="m8.223 109.471c5.028 12.429 22.887 16.329 36.817 6.382a234.068 234.068 0 0 0 67.869-75.259l-24.302-16.394a196.06 196.06 0 0 1 -66.956 52.9c-11.934 5.785-18.485 19.924-13.428 32.371z" fill="#8b52c4"/><path d="m41.557 112.719a1.75 1.75 0 0 1 -1.018-3.175c2.7-1.93 5.4-3.942 8-5.982a1.75 1.75 0 1 1 2.158 2.755c-2.645 2.072-5.379 4.116-8.126 6.077a1.747 1.747 0 0 1 -1.014.325z" fill="#8b52c4"/><path d="m107 22.8c8.558 5.892 12.061 13.469 7.129 31.294-6.591-4.471-8.835-13.543-8.835-13.543-5.3 4.417-14.734 3.291-14.734 3.291.049-3.47 4.047-9.74 4.047-9.74a32.5 32.5 0 0 1 -18.762-1.845c4.309-8.157 17.1-18.483 31.155-9.457z" fill="#c7e554"/></g></svg>