<svg xmlns="http://www.w3.org/2000/svg" xmlns:xlink="http://www.w3.org/1999/xlink" width="238" height="238" viewBox="0 0 238 238"><defs><style>.a{fill:#a4ccff;}.b{fill:#65a9ff;}.c{fill:#fed8b2;}.d{fill:#eabe96;}.e{fill:#f4e3c3;}.f{fill:#b97850;}.g{fill:#935635;}.h{fill:#59595b;}.i{fill:#fd8469;}.j{fill:#fc6f58;}.k{fill:#b8c9d9;}.l{fill:#cfdbe6;}.m{fill:#b5f1f4;}.n{fill:#84dbff;}.o{fill:#e6f3ff;}.p{fill:#ffd15d;}.q{fill:#f9b54c;}.r{filter:url(#a);}</style><filter id="a" x="0" y="0" width="238" height="238" filterUnits="userSpaceOnUse"><feOffset dx="3" dy="3" input="SourceAlpha"/><feGaussianBlur stdDeviation="3" result="b"/><feFlood flood-opacity="0.502"/><feComposite operator="in" in2="b"/><feComposite in="SourceGraphic"/></filter></defs><g transform="translate(6 6)"><g class="r" transform="matrix(1, 0, 0, 1, -6, -6)"><path class="a" d="M110,0A110,110,0,1,1,0,110,110,110,0,0,1,110,0Z" transform="translate(6 6)"/></g><path class="b" d="M243.812,211.7,207.8,175.694l-35.143,50.863-56.042-56.042L47.218,201.3l-4.887-.227,11.679,11.68L47.938,215.1,85.7,252.862,129.949,317c1.357.049,2.719.084,4.087.084A109.87,109.87,0,0,0,243.812,211.7Z" transform="translate(-24.163 -97.331)"/><path class="c" d="M118.654,303.7V293.33H99.961V303.7a1.5,1.5,0,0,1-1.5,1.5H85.582v35.769h47.451V305.193H120.152A1.5,1.5,0,0,1,118.654,303.7Z" transform="translate(-48.851 -167.434)"/><path class="d" d="M163.448,305.192H150.567a1.5,1.5,0,0,1-1.5-1.5V293.33h-10.2v47.631h24.582Z" transform="translate(-79.265 -167.434)"/><path class="e" d="M97.534,320.969H94.062l13.663,49.009h5.566V332.4C104.9,332.223,97.534,329.418,97.534,320.969Z" transform="translate(-53.691 -183.211)"/><path class="c" d="M159.805,320.969h-5.064c0,8.736-6.286,11.439-15.021,11.439-.286,0-.572,0-.856-.009v37.58h7.278Z" transform="translate(-79.264 -183.211)"/><path class="f" d="M60.08,320.969H50.135a21.689,21.689,0,0,0-21.689,21.689v.8A110.346,110.346,0,0,0,75.838,390.8V332.4C67.45,332.223,60.08,329.418,60.08,320.969Z" transform="translate(-16.237 -183.211)"/><path class="g" d="M164.688,320.969h-9.946c0,8.736-6.286,11.439-15.021,11.439q-.429,0-.856-.009v58.406a109.3,109.3,0,0,0,47.512,12.119V342.658A21.688,21.688,0,0,0,164.688,320.969Z" transform="translate(-79.265 -183.211)"/><circle class="c" cx="7.473" cy="7.473" r="7.473" transform="translate(21.912 105.376)"/><circle class="d" cx="7.473" cy="7.473" r="7.473" transform="translate(82.461 105.376)"/><path class="e" d="M101.231,226.187H99.547a28.193,28.193,0,0,1-28.193-28.193V172.252a28.193,28.193,0,0,1,28.193-28.193h1.683a28.193,28.193,0,0,1,28.193,28.193v25.741A28.193,28.193,0,0,1,101.231,226.187Z" transform="translate(-40.729 -82.23)"/><path class="c" d="M139.766,144.058h-.9v82.128h.9a28.193,28.193,0,0,0,28.193-28.193V172.252A28.193,28.193,0,0,0,139.766,144.058Z" transform="translate(-79.264 -82.229)"/><g transform="translate(43.066 106.623)"><circle class="h" cx="2.904" cy="2.904" r="2.904"/><circle class="h" cx="2.904" cy="2.904" r="2.904" transform="translate(27.376)"/></g><path class="i" d="M131.318,296.5a5.786,5.786,0,0,1-5.78-5.78,1.606,1.606,0,0,1,3.211,0,2.569,2.569,0,0,0,5.137,0,1.606,1.606,0,0,1,3.211,0A5.786,5.786,0,0,1,131.318,296.5Z" transform="translate(-71.658 -165.03)"/><path class="j" d="M143.1,289.116a1.605,1.605,0,0,0-1.606,1.606,2.571,2.571,0,0,1-2.569,2.569c-.021,0-.04-.006-.06-.006V296.5l.06,0a5.786,5.786,0,0,0,5.78-5.78A1.606,1.606,0,0,0,143.1,289.116Z" transform="translate(-79.265 -165.029)"/><g transform="translate(42.474 75.013)"><path class="c" d="M134.274,200.407a1.6,1.6,0,0,1-1.009-.358,19.845,19.845,0,0,0-24.953,0,1.606,1.606,0,0,1-2.02-2.5,23.054,23.054,0,0,1,28.993,0,1.606,1.606,0,0,1-1.011,2.854Z" transform="translate(-102.806 -184.85)"/><path class="c" d="M133.32,183.779a1.6,1.6,0,0,1-1.009-.358,24.441,24.441,0,0,0-30.734,0,1.605,1.605,0,0,1-2.02-2.5,27.652,27.652,0,0,1,34.773,0,1.606,1.606,0,0,1-1.011,2.854Z" transform="translate(-98.962 -174.775)"/></g><g transform="translate(59.6 75.013)"><path class="d" d="M154.219,197.554a23.124,23.124,0,0,0-14.5-5.128c-.285,0-.571.007-.856.018v3.228c.285-.012.568-.036.856-.036a19.634,19.634,0,0,1,12.477,4.413,1.605,1.605,0,1,0,2.02-2.5Z" transform="translate(-138.866 -184.85)"/><path class="d" d="M157.108,180.925a27.727,27.727,0,0,0-17.387-6.15c-.285,0-.571.009-.856.018V178c.285-.009.57-.018.856-.018a24.184,24.184,0,0,1,15.368,5.435,1.605,1.605,0,1,0,2.019-2.5Z" transform="translate(-138.865 -174.775)"/></g><path class="k" d="M198.994,201.778a9.16,9.16,0,0,0,9.212-8.268,8.946,8.946,0,0,0-1.184-5.219,8.98,8.98,0,0,0-7.778-13.487,8.991,8.991,0,0,0-8.82-8.99,9.183,9.183,0,0,0-9.163,9.225v9.755a16.984,16.984,0,0,0,16.984,16.984h.749Z" transform="translate(-103.465 -94.647)"/><path class="l" d="M46.852,201.778a9.16,9.16,0,0,1-9.212-8.268,8.946,8.946,0,0,1,1.184-5.219A8.98,8.98,0,0,1,46.6,174.8a8.991,8.991,0,0,1,8.82-8.99,9.183,9.183,0,0,1,9.163,9.225v9.755A16.984,16.984,0,0,1,47.6,201.778h-.749Z" transform="translate(-21.469 -94.647)"/><path class="e" d="M51.112,377.547a14.126,14.126,0,0,0-11.79,6.36q2.256,3.578,4.773,6.968a7.063,7.063,0,0,1,14.08.8v14.786q3.4,3.114,7.065,5.936V391.677A14.144,14.144,0,0,0,51.112,377.547Z" transform="translate(-22.445 -215.506)"/><path class="l" d="M298.778,226.085l-6.916,37.294a11.767,11.767,0,0,0,11.45,14h26.213v-51.02Z" transform="translate(-166.479 -129.05)"/><path class="k" d="M416.843,263.539,408.8,226.972l-28.922-.255v51.02h25.548A11.77,11.77,0,0,0,416.843,263.539Z" transform="translate(-216.839 -129.411)"/><path class="c" d="M358.129,324.039v-9.931h-17.91v9.931a1.435,1.435,0,0,1-1.435,1.435H326.442v34.27h45.463v-34.27H359.563A1.435,1.435,0,0,1,358.129,324.039Z" transform="translate(-186.335 -179.294)"/><path class="d" d="M401.048,325.474H388.706a1.435,1.435,0,0,1-1.435-1.435v-9.931H377.5v45.636h23.552Z" transform="translate(-215.476 -179.294)"/><path class="m" d="M302.01,340.589h-9.529a20.78,20.78,0,0,0-20.78,20.78v52.577a109.225,109.225,0,0,0,45.406-12.93V351.539C309.071,351.372,302.01,348.684,302.01,340.589Z" transform="translate(-155.088 -194.41)"/><path class="n" d="M422.31,356a20.786,20.786,0,0,0-20.075-15.408h-9.529c0,8.37-6.022,10.959-14.392,10.959-.275,0-.548,0-.821-.009v49.477A110.361,110.361,0,0,0,422.31,356Z" transform="translate(-215.475 -194.409)"/><circle class="c" cx="7.158" cy="7.158" r="7.158" transform="translate(125.912 115.154)"/><circle class="d" cx="7.158" cy="7.158" r="7.158" transform="translate(183.927 115.154)"/><path class="e" d="M341.438,249.78h-1.613a27.012,27.012,0,0,1-27.012-27.012V198.1a27.012,27.012,0,0,1,27.012-27.012h1.613A27.012,27.012,0,0,1,368.45,198.1v24.663A27.012,27.012,0,0,1,341.438,249.78Z" transform="translate(-178.555 -97.661)"/><path class="c" d="M378.357,171.091h-.864v78.687h.864a27.012,27.012,0,0,0,27.012-27.012V198.1A27.011,27.011,0,0,0,378.357,171.091Z" transform="translate(-215.475 -97.66)"/><g transform="translate(146.181 122.067)"><circle class="h" cx="2.782" cy="2.782" r="2.782"/><circle class="h" cx="2.782" cy="2.782" r="2.782" transform="translate(26.229)"/></g><path class="i" d="M370.263,322.305a5.544,5.544,0,0,1-5.538-5.538,1.538,1.538,0,1,1,3.076,0,2.461,2.461,0,0,0,4.923,0,1.538,1.538,0,1,1,3.076,0A5.543,5.543,0,0,1,370.263,322.305Z" transform="translate(-208.187 -179.934)"/><path class="j" d="M381.552,315.228a1.538,1.538,0,0,0-1.538,1.538,2.464,2.464,0,0,1-2.461,2.461c-.02,0-.038-.005-.057-.006V322.3c.019,0,.039,0,.057,0a5.544,5.544,0,0,0,5.538-5.538A1.539,1.539,0,0,0,381.552,315.228Z" transform="translate(-215.476 -179.934)"/><g transform="translate(145.61 86.062)"><path class="c" d="M373.095,225.078a1.528,1.528,0,0,1-.966-.342,19.015,19.015,0,0,0-23.909,0,1.538,1.538,0,0,1-1.935-2.392,22.089,22.089,0,0,1,27.778,0,1.539,1.539,0,0,1-.969,2.735Z" transform="translate(-342.945 -210.172)"/><path class="c" d="M372.181,209.146a1.528,1.528,0,0,1-.966-.342,23.417,23.417,0,0,0-29.446,0,1.538,1.538,0,1,1-1.935-2.392,26.495,26.495,0,0,1,33.318,0,1.539,1.539,0,0,1-.97,2.735Z" transform="translate(-339.263 -200.519)"/></g><g transform="translate(162.018 86.062)"><path class="d" d="M392.2,222.346a22.153,22.153,0,0,0-13.889-4.913c-.274,0-.548.007-.821.018v3.094c.274-.011.545-.034.821-.034a18.813,18.813,0,0,1,11.954,4.228,1.538,1.538,0,0,0,1.935-2.392Z" transform="translate(-377.493 -210.174)"/><path class="d" d="M394.971,206.412a26.568,26.568,0,0,0-16.659-5.892c-.274,0-.547.009-.821.018v3.076c.273-.009.546-.017.821-.017a23.168,23.168,0,0,1,14.723,5.207,1.538,1.538,0,0,0,1.936-2.391Z" transform="translate(-377.492 -200.52)"/></g><path class="o" d="M362.63,205.453v9.456h5.034V191.983a29.341,29.341,0,0,0-29.327-29.328h-1.752a29.328,29.328,0,0,0-29.328,29.328v22.926h4.305V202.794s0,2.659,0,2.659Z" transform="translate(-175.384 -92.844)"/><g transform="translate(136.176 69.811)"><path class="l" d="M317.281,258.836h0v-2.66Z" transform="translate(-317.281 -216.038)"/><path class="l" d="M402.137,175.157a29.285,29.285,0,0,0-24.014-12.5h-1.162v42.8h25.455v9.456h5.034V191.984A29.177,29.177,0,0,0,402.137,175.157Z" transform="translate(-351.347 -162.656)"/></g><path class="p" d="M360.618,268.664a9.549,9.549,0,0,0-9.49,8.6h-7.249a9.574,9.574,0,1,0-.086,2.462h7.421a9.533,9.533,0,1,0,9.4-11.063Zm-26.229,16.613a7.076,7.076,0,1,1,7.076-7.076A7.084,7.084,0,0,1,334.388,285.277Zm26.229,0a7.076,7.076,0,1,1,7.076-7.076A7.084,7.084,0,0,1,360.618,285.277Z" transform="translate(-185.426 -153.355)"/><path class="q" d="M390.609,268.664a9.549,9.549,0,0,0-9.49,8.6h-3.725v2.461h3.812a9.533,9.533,0,1,0,9.4-11.062Zm0,16.613a7.076,7.076,0,1,1,7.076-7.076A7.084,7.084,0,0,1,390.609,285.277Z" transform="translate(-215.418 -153.355)"/><path class="g" d="M290.435,394.8A13.553,13.553,0,0,0,276.9,408.334h6.768a6.768,6.768,0,0,1,13.537,0v32.815q3.431-.946,6.768-2.106V408.335A13.552,13.552,0,0,0,290.435,394.8Z" transform="translate(-158.055 -225.352)"/><path class="l" d="M107.878,279.043s23.091-2.394,20.5-42.127c0,0-5.449,19.049-18.17,20.912a8.144,8.144,0,0,0-7.665-5.593H92.709a8.143,8.143,0,0,0-7.665,5.593c-12.72-1.862-18.169-20.912-18.169-20.912-2.589,39.734,20.5,42.127,20.5,42.127ZM104.771,266.6H90.482c-1.714,0-3.1-3.495-3.106-5.259v-.009a3.149,3.149,0,0,1,3.106-3.188h14.289a3.149,3.149,0,0,1,3.106,3.191C107.877,263.094,106.487,266.6,104.771,266.6Z" transform="translate(-38.057 -135.233)"/><path class="k" d="M169.331,236.918s-5.449,19.049-18.17,20.912a8.144,8.144,0,0,0-7.665-5.593h-5.079v5.9h7.306a3.149,3.149,0,0,1,3.106,3.191c0,1.762-1.391,5.266-3.106,5.266h-7.306v12.447H148.83S171.92,276.651,169.331,236.918Z" transform="translate(-79.009 -135.234)"/></g></svg>