<svg height="511pt" viewBox="-131 0 511 511.99984" width="511pt" xmlns="http://www.w3.org/2000/svg"><path d="m193.398438 281.035156c-6.121094 0-10.972657-.25-13.242188-.390625-4.253906-.265625-7.480469-3.929687-7.21875-8.183593.265625-4.25 3.90625-7.476563 8.183594-7.21875 17.519531 1.09375 45.257812-.25 52.0625-6.644532.613281-.574218.613281-.8125.613281-.941406 0-4.261719 3.453125-7.714844 7.714844-7.714844s7.714843 3.453125 7.714843 7.714844c0 4.609375-1.894531 8.824219-5.476562 12.191406-10.136719 9.515625-34.503906 11.1875-50.351562 11.1875zm0 0" fill="#ffdc8d"/><path d="m205.503906 393.671875-28.160156 110.609375h-23.007812l7.925781-107.585938-29.160157-50.28125-24.023437 56.195313-93.398437 51.484375-4.816407-17.808594-1.523437-5.648437 66.558594-55.949219-5.125-46.308594-2.027344-18.261718c0-41.699219 9.261718-83.882813 16.964844-111.753907 5.300781-19.167969 22.761718-32.429687 42.648437-32.429687 9.949219 0 19.28125 3.3125 26.789063 9.023437 7.523437 5.71875 13.203124 13.828125 15.855468 23.40625 5.402344 19.527344 11.566406 46.082031 14.777344 74.582031.605469 5.421876 4.578125 29.90625 8.792969 55.433594 5.269531 31.84375 10.929687 65.292969 10.929687 65.292969zm0 0" fill="#ffdc8d"/><path d="m93.296875 359.53125c3.191406 18.109375-9.320313 29.726562-18.035156 34.871094-6.582031 3.878906-45.660157 29.546875-64.394531 41.882812l-1.523438-5.648437 66.558594-55.949219-7.152344-64.570312c0-41.699219 9.261719-83.882813 16.964844-111.753907 5.300781-19.167969 22.757812-32.429687 42.648437-32.429687-25.054687 0-43.046875 137.289062-35.066406 193.597656zm0 0" fill="#e8c57e"/><path d="m206.695312 108.441406 3.828126-42.890625c2.953124-33.117187-21.5-62.355469-54.617188-65.308593-33.117188-2.953126-62.359375 21.5-65.3125 54.617187l-3.828125 42.890625c-2.949219 33.117188 21.503906 62.355469 54.621094 65.308594 33.117187 2.953125 62.359375-21.5 65.308593-54.617188zm0 0" fill="#ffdc8d"/><path d="m109.304688 101.726562 4-44.835937c1.476562-16.558594 9.523437-30.953125 21.34375-40.835937 9.054687-7.570313 20.308593-12.496094 32.523437-13.722657-3.617187-1.035156-7.375-1.742187-11.261719-2.089843-16.558594-1.476563-32.148437 3.902343-43.972656 13.785156-11.820312 9.886718-19.867188 24.28125-21.34375 40.839844l-.59375 6.679687c-5.882812-2.046875-12.652344-1.066406-17.777344 3.21875-7.753906 6.488281-8.785156 18.03125-2.296875 25.78125 4.285157 5.125 10.773438 7.292969 16.925781 6.316406l-.085937.882813c-2.949219 33.121094 21.503906 62.367187 54.625 65.320312 3.886719.34375 7.710937.316406 11.449219-.066406-27.214844-7.765625-46.140625-32.035156-43.535156-61.273438zm0 0" fill="#e8c57e"/><path d="m210.519531 65.558594c-43.226562 4.378906-77.160156-24.203125-77.160156-24.203125-5.773437 12.554687-12.273437 19.273437-18.113281 22.785156-6.632813 3.988281-14.878906 3.449219-21.394532-.730469-1.214843-.785156-2.511718-1.410156-3.859374-1.875l.597656-6.667968c1.476562-16.5625 9.523437-30.957032 21.34375-40.839844 11.820312-9.886719 27.410156-15.261719 43.972656-13.785156 33.109375 2.953124 57.566406 32.195312 54.613281 65.316406zm0 0" fill="#5c5e70"/><g fill="#3b3d4c"><path d="m113.308594 56.894531c1.476562-16.5625 9.527344-30.957031 21.347656-40.839843 9.042969-7.5625 20.285156-12.488282 32.488281-13.71875-3.609375-1.027344-7.359375-1.746094-11.234375-2.09375-16.558594-1.476563-32.148437 3.902343-43.972656 13.785156-11.820312 9.886718-19.867188 24.28125-21.34375 40.839844l-.59375 6.671874c1.34375.464844 2.640625 1.089844 3.859375 1.871094 5.652344 3.628906 12.609375 4.507813 18.683594 2.074219zm0 0"/><path d="m182.464844 109.929688c-.230469 0-.460938-.011719-.695313-.03125-4.246093-.378907-7.378906-4.125-7-8.371094l.898438-10.101563c.378906-4.246093 4.113281-7.382812 8.375-7 4.242187.378907 7.378906 4.125 7 8.371094l-.902344 10.101563c-.359375 4.011718-3.726563 7.03125-7.675781 7.03125zm0 0"/><path d="m150.695312 107.097656c-.230468 0-.460937-.007812-.691406-.03125-4.246094-.378906-7.382812-4.125-7.003906-8.371094l.902344-10.101562c.378906-4.246094 4.125-7.390625 8.371094-7 4.246093.378906 7.378906 4.128906 7 8.371094l-.898438 10.101562c-.359375 4.011719-3.726562 7.03125-7.679688 7.03125zm0 0"/></g><path d="m176.234375 394.007812-11.839844 110.273438h-10.054687l7.921875-107.585938-29.15625-50.28125 9.027343-21.125zm0 0" fill="#e8c57e"/><path d="m194.578125 328.378906h-123.804687l-2.023438-18.261718c0-41.699219 9.257812-83.882813 16.964844-111.753907 5.296875-19.167969 22.757812-32.429687 42.644531-32.429687 9.949219 0 19.28125 3.3125 26.792969 9.023437 7.519531 5.71875 13.199218 13.828125 15.855468 23.40625 5.398438 19.527344 11.5625 46.082031 14.773438 74.582031.605469 5.421876 4.578125 29.90625 8.796875 55.433594zm0 0" fill="#e6e6e6"/><path d="m128.363281 165.933594c-19.890625 0-37.347656 13.261718-42.648437 32.429687-7.703125 27.871094-16.964844 70.054688-16.964844 111.753907l2.027344 18.261718h20.613281c-.332031-64.359375 15.796875-162.441406 36.972656-162.445312zm0 0" fill="#ccc"/><path d="m198.566406 352.367188-50.132812 20.476562-15.332032-26.433594-10.183593 23.828125-49.488281-17.890625-4.683594-42.234375 122.003906-5.042969c2.375 14.601563 5.246094 31.886719 7.816406 47.296876zm0 0" fill="#f25174"/><path d="m93.296875 359.53125-19.867187-7.183594-4.679688-42.234375 22.984375-.945312c-.753906 19.371093-.320313 37.109375 1.5625 50.363281zm0 0" fill="#d83f67"/><path d="m162.820312 366.972656-14.386718 5.875-15.328125-26.433594 9.03125-21.132812zm0 0" fill="#d83f67"/><path d="m191.425781 512h-31.945312c-4.261719 0-7.714844-3.453125-7.714844-7.714844 0-4.261718 3.453125-7.71875 7.714844-7.71875h31.945312c4.261719 0 7.714844 3.457032 7.714844 7.71875 0 4.261719-3.453125 7.714844-7.714844 7.714844zm0 0" fill="#f25174"/><path d="m19.839844 477.199219c-3.378906 0-6.476563-2.234375-7.429688-5.644531l-10.058594-36.035157c-1.144531-4.101562 1.253907-8.359375 5.359376-9.503906 4.109374-1.144531 8.363281 1.253906 9.503906 5.355469l10.058594 36.035156c1.148437 4.105469-1.253907 8.359375-5.355469 9.507812-.695313.191407-1.394531.285157-2.078125.285157zm0 0" fill="#f25174"/><path d="m107.769531 280.988281c-5.558593 4.628907-16.277343 6.667969-28.675781 6.667969-17.796875 0-39.054688-4.1875-53.429688-10.917969-20.800781-9.742187-25.164062-22.316406-25.164062-31.152343 0-25.011719 24.609375-39.40625 46.78125-47.308594 1.265625-.453125 6.175781 14.1875 5.125 14.558594-30.042969 10.648437-36.472656 23.601562-36.472656 32.75 0 8.828124 11.335937 15.0625 18.097656 17.992187 10.792969 4.683594 25.605469 7.871094 39.640625 8.550781 13.148437.628906 20.710937-1.132812 23.367187-2.457031.019532-3.398437 2.304688-6.503906 5.75-7.410156 4.113282-1.089844 8.34375 1.378906 9.425782 5.496093 1.304687 4.957032-.320313 9.78125-4.445313 13.230469zm0 0" fill="#ffdc8d"/><path d="m99.425781 202.414062c-.113281.011719-5.671875.554688-13.902343 1.996094-8.21875 1.441406-19.105469 3.765625-29.875 7.316406-1.113282.367188-2.191407.738282-3.242188 1.109376l-5.125-14.558594c1.265625-.453125 2.519531-.875 3.765625-1.285156 23.171875-7.613282 45.949219-9.847657 46.90625-9.9375 4.25-.402344 8.015625 2.703124 8.417969 6.953124.398437 4.238282-2.707032 8.003907-6.945313 8.40625zm0 0" fill="#ccc"/></svg>