<svg id="Capa_1" enable-background="new 0 0 512 512" height="512" viewBox="0 0 512 512" width="512" xmlns="http://www.w3.org/2000/svg"><g><path d="m512 325.624h-512v88.338c0 10.68 8.658 19.337 19.337 19.337h473.326c10.68 0 19.337-8.657 19.337-19.337z" fill="#e27d47"/><path d="m512 325.624c0 10.68-8.658 19.338-19.338 19.338h-473.324c-10.68 0-19.338-8.658-19.338-19.338v-279.014c0-10.68 8.658-19.338 19.338-19.338h473.325c10.68 0 19.338 8.658 19.338 19.338v279.014z" fill="#e4936b"/><path d="m26.185 332.692c-6.971 0-12.622-5.651-12.622-12.622v-267.907c0-6.971 5.651-12.622 12.622-12.622h459.63c6.971 0 12.622 5.651 12.622 12.622v267.908c0 6.971-5.651 12.621-12.621 12.621z" fill="#ce4529"/><path d="m485.815 39.541h-43.95v244.53c0 6.971-5.651 12.621-12.621 12.621h-415.681v23.378c0 6.971 5.651 12.622 12.622 12.622h459.631c6.971 0 12.621-5.651 12.621-12.621v-267.908c0-6.971-5.651-12.622-12.622-12.622z" fill="#b94029"/><path d="m483.008 315.028c0 1.235-1.001 2.236-2.236 2.236h-449.544c-1.235 0-2.236-1.001-2.236-2.236v-257.822c0-1.235 1.001-2.236 2.236-2.236h449.545c1.235 0 2.236 1.001 2.236 2.236v257.822z" fill="#dd6938"/><path d="m480.772 54.97h-38.907v181.216c0 33.417-27.09 60.506-60.506 60.506h-352.367v18.336c0 1.235 1.001 2.236 2.236 2.236h449.545c1.235 0 2.236-1.001 2.236-2.236v-257.822c-.001-1.235-1.002-2.236-2.237-2.236z" fill="#dd542e"/><path d="m335.455 375.819c-3.719 0-7.129 2.095-8.791 5.422-5.649 11.313-8.828 24.075-8.828 37.579 0 23.654 9.751 45.031 25.453 60.33 3.69 3.595 8.659 5.578 13.81 5.578h89.93c5.147 0 10.11-1.981 13.796-5.572 15.705-15.299 25.459-36.678 25.459-60.336 0-13.504-3.179-26.267-8.828-37.579-1.662-3.327-5.072-5.422-8.791-5.422z" fill="#dd6938"/><path d="m176.545 375.819c3.719 0 7.129 2.095 8.791 5.422 5.649 11.313 8.828 24.075 8.828 37.579 0 23.654-9.751 45.031-25.453 60.33-3.69 3.595-8.659 5.578-13.81 5.578h-89.931c-5.147 0-10.11-1.981-13.796-5.572-15.705-15.299-25.459-36.678-25.459-60.336 0-13.504 3.179-26.267 8.828-37.579 1.662-3.327 5.072-5.422 8.791-5.422z" fill="#dd6938"/><path d="m477.458 381.241c-1.662-3.327-5.072-5.422-8.791-5.422h-26.544c1.968 7.141 3.02 14.663 3.02 22.43 0 2.508-.11 4.991-.324 7.443-2.912 33.252-31.35 58.465-64.729 58.465h-49.022c3.494 5.46 7.6 10.49 12.222 14.993 3.69 3.595 8.659 5.578 13.81 5.578h89.93c5.147 0 10.11-1.981 13.796-5.572 15.705-15.299 25.459-36.678 25.459-60.336.001-13.505-3.178-26.267-8.827-37.579z" fill="#dd542e"/><path d="m185.336 381.241c-1.662-3.327-5.072-5.422-8.791-5.422h-26.544c1.968 7.141 3.02 14.663 3.02 22.43 0 2.502-.109 4.978-.323 7.425-2.905 33.262-31.36 58.483-64.749 58.483h-49.004c3.495 5.462 7.604 10.494 12.228 14.999 3.686 3.591 8.65 5.572 13.796 5.572h89.93c5.152 0 10.12-1.983 13.81-5.578 15.702-15.299 25.453-36.676 25.453-60.33.002-13.505-3.177-26.267-8.826-37.579z" fill="#dd542e"/><g fill="#ce4529"><path d="m180.328 197.572c-4.26 0-7.714 3.454-7.714 7.714v27.236c0 4.26 3.454 7.714 7.714 7.714s7.714-3.454 7.714-7.714v-27.236c.001-4.26-3.453-7.714-7.714-7.714z"/><path d="m180.328 263.143c-4.26 0-7.714 3.454-7.714 7.714v46.409c0 4.26 3.454 7.714 7.714 7.714s7.714-3.454 7.714-7.714v-46.409c.001-4.26-3.453-7.714-7.714-7.714z"/><path d="m104.656 132.001c-4.26 0-7.714 3.454-7.714 7.714v27.236c0 4.26 3.454 7.714 7.714 7.714s7.714-3.454 7.714-7.714v-27.236c.001-4.26-3.453-7.714-7.714-7.714z"/><path d="m104.656 263.143c-4.26 0-7.714 3.454-7.714 7.714v46.409c0 4.26 3.454 7.714 7.714 7.714s7.714-3.454 7.714-7.714v-46.409c.001-4.26-3.453-7.714-7.714-7.714z"/><path d="m104.656 197.572c-4.26 0-7.714 3.454-7.714 7.714v27.236c0 4.26 3.454 7.714 7.714 7.714s7.714-3.454 7.714-7.714v-27.236c.001-4.26-3.453-7.714-7.714-7.714z"/><path d="m104.656 47.257c-4.26 0-7.714 3.454-7.714 7.714v46.409c0 4.26 3.454 7.714 7.714 7.714s7.714-3.454 7.714-7.714v-46.409c.001-4.26-3.453-7.714-7.714-7.714z"/><path d="m331.672 174.666c4.26 0 7.714-3.454 7.714-7.714v-27.236c0-4.26-3.454-7.714-7.714-7.714s-7.714 3.454-7.714 7.714v27.236c-.001 4.26 3.453 7.714 7.714 7.714z"/><path d="m331.672 109.094c4.26 0 7.714-3.454 7.714-7.714v-46.409c0-4.26-3.454-7.714-7.714-7.714s-7.714 3.454-7.714 7.714v46.409c-.001 4.261 3.453 7.714 7.714 7.714z"/><path d="m407.344 197.572c-4.26 0-7.714 3.454-7.714 7.714v27.236c0 4.26 3.454 7.714 7.714 7.714s7.714-3.454 7.714-7.714v-27.236c0-4.26-3.454-7.714-7.714-7.714z"/><path d="m407.344 263.143c-4.26 0-7.714 3.454-7.714 7.714v46.409c0 4.26 3.454 7.714 7.714 7.714s7.714-3.454 7.714-7.714v-46.409c0-4.26-3.454-7.714-7.714-7.714z"/><path d="m154.264 178.399h-23.534c-4.26 0-7.714 3.454-7.714 7.714s3.454 7.714 7.714 7.714h23.534c4.26 0 7.714-3.454 7.714-7.714s-3.453-7.714-7.714-7.714z"/><path d="m381.269 178.399h-23.534c-4.26 0-7.714 3.454-7.714 7.714s3.454 7.714 7.714 7.714h23.534c4.26 0 7.714-3.454 7.714-7.714s-3.453-7.714-7.714-7.714z"/><path d="m483.005 178.399h-49.598c-4.26 0-7.714 3.454-7.714 7.714s3.454 7.714 7.714 7.714h49.598c4.26 0 7.714-3.454 7.714-7.714s-3.453-7.714-7.714-7.714z"/><path d="m78.593 178.399h-49.598c-4.26 0-7.714 3.454-7.714 7.714s3.454 7.714 7.714 7.714h49.598c4.26 0 7.714-3.454 7.714-7.714s-3.454-7.714-7.714-7.714z"/><path d="m483.005 128.257c4.26 0 7.714-3.454 7.714-7.714s-3.454-7.714-7.714-7.714h-67.947v-57.858c0-4.26-3.454-7.714-7.714-7.714s-7.714 3.454-7.714 7.714v57.857h-41.894c-4.26 0-7.714 3.454-7.714 7.714s3.454 7.714 7.714 7.714h41.894v38.695c0 4.26 3.454 7.714 7.714 7.714s7.714-3.454 7.714-7.714v-38.695h67.947z"/><path d="m78.593 112.828h-49.598c-4.26 0-7.714 3.454-7.714 7.714s3.454 7.714 7.714 7.714h49.598c4.26 0 7.714-3.454 7.714-7.714s-3.454-7.714-7.714-7.714z"/><path d="m154.264 243.981h-23.534c-4.26 0-7.714 3.454-7.714 7.714s3.454 7.714 7.714 7.714h23.534c4.26 0 7.714-3.454 7.714-7.714s-3.453-7.714-7.714-7.714z"/><path d="m483.005 243.981h-49.598c-4.26 0-7.714 3.454-7.714 7.714s3.454 7.714 7.714 7.714h49.598c4.26 0 7.714-3.454 7.714-7.714s-3.453-7.714-7.714-7.714z"/><path d="m381.269 243.981h-41.884v-38.694c0-4.26-3.454-7.714-7.714-7.714s-7.714 3.454-7.714 7.714v38.694h-60.243v-50.153h41.884c4.26 0 7.714-3.454 7.714-7.714s-3.454-7.714-7.714-7.714h-41.884v-50.143h41.884c4.26 0 7.714-3.454 7.714-7.714s-3.454-7.714-7.714-7.714h-41.884v-57.859c0-4.26-3.454-7.714-7.714-7.714s-7.714 3.454-7.714 7.714v57.858h-60.243v-57.857c0-4.26-3.454-7.714-7.714-7.714s-7.714 3.454-7.714 7.714v57.857h-41.884c-4.26 0-7.714 3.454-7.714 7.714s3.454 7.714 7.714 7.714h41.884v38.695c0 4.26 3.454 7.714 7.714 7.714s7.714-3.454 7.714-7.714v-38.695h60.243v50.143h-41.884c-4.26 0-7.714 3.454-7.714 7.714s3.454 7.714 7.714 7.714h41.884v50.153h-41.884c-4.26 0-7.714 3.454-7.714 7.714s3.454 7.714 7.714 7.714h41.884v57.854c0 4.26 3.454 7.714 7.714 7.714s7.714-3.454 7.714-7.714v-57.854h60.243v57.857c0 4.26 3.454 7.714 7.714 7.714s7.714-3.454 7.714-7.714v-57.857h41.884c4.26 0 7.714-3.454 7.714-7.714s-3.453-7.713-7.714-7.713z"/><path d="m78.593 243.981h-49.598c-4.26 0-7.714 3.454-7.714 7.714s3.454 7.714 7.714 7.714h49.598c4.26 0 7.714-3.454 7.714-7.714s-3.454-7.714-7.714-7.714z"/></g><path d="m188.043 328.254h-15.429v-31.562h15.429zm151.343-31.562h-15.429v31.562h15.429zm-242.444 31.562h15.429v-31.562h-15.429zm166.772-31.562h-15.429v31.562h15.429zm151.344-10.245c-4.715 3.168-9.9 5.689-15.429 7.438v34.37h15.429zm77.495-92.619v-15.428c-9.545 0-9.546 0-9.547 0h-41.14v15.429h41.14c0-.001.001-.001 9.547-.001zm0 65.581v-15.428c-9.545 0-9.546 0-9.547 0h-41.638c-.694 5.398-2.1 10.573-4.119 15.429h45.757c0-.001.001-.001 9.547-.001zm-9.548-146.581h-41.14v15.429h41.14 9.547v-15.428c-9.545-.001-9.546-.001-9.547-.001z" fill="#b94029"/><g><path d="m359.541 466.728c-2.045 0-4.085-.808-5.602-2.409-11.674-12.323-18.103-28.482-18.103-45.499 0-6.705.984-13.288 2.926-19.566 1.259-4.07 5.58-6.352 9.649-5.091 4.07 1.259 6.35 5.578 5.091 9.649-1.484 4.8-2.237 9.85-2.237 15.008 0 13.053 4.927 25.444 13.875 34.889 2.93 3.093 2.798 7.975-.295 10.905-1.492 1.413-3.4 2.114-5.304 2.114z" fill="#e4936b"/></g><path d="m364.844 464.614c.156-.148.304-.301.445-.458h-11.503c.051.054.102.108.153.162 1.517 1.602 3.557 2.409 5.602 2.409 1.904.001 3.812-.7 5.303-2.113z" fill="#e27d47"/><g><path d="m67.419 466.728c-2.045 0-4.085-.808-5.602-2.409-11.674-12.323-18.103-28.482-18.103-45.5 0-6.705.984-13.288 2.926-19.566 1.258-4.07 5.578-6.352 9.649-5.091 4.07 1.259 6.35 5.578 5.091 9.649-1.484 4.8-2.237 9.85-2.237 15.008 0 13.053 4.927 25.444 13.875 34.888 2.93 3.093 2.798 7.976-.295 10.906-1.492 1.414-3.4 2.115-5.304 2.115z" fill="#e4936b"/></g><path d="m72.723 464.614c.156-.148.304-.301.445-.458h-11.504c.051.054.102.109.153.163 1.517 1.601 3.557 2.409 5.602 2.409 1.904 0 3.812-.701 5.304-2.114z" fill="#e27d47"/><ellipse cx="104.661" cy="120.543" fill="#756e78" rx="26.067" ry="19.167"/><ellipse cx="104.661" cy="186.117" fill="#fff" rx="26.067" ry="19.167"/><ellipse cx="180.331" cy="186.117" fill="#756e78" rx="26.067" ry="19.167"/><ellipse cx="180.331" cy="251.69" fill="#fff" rx="26.067" ry="19.167"/><ellipse cx="104.661" cy="251.69" fill="#756e78" rx="26.067" ry="19.167"/><ellipse cx="331.669" cy="120.543" fill="#756e78" rx="26.067" ry="19.167"/><ellipse cx="331.669" cy="186.117" fill="#fff" rx="26.067" ry="19.167"/><ellipse cx="407.339" cy="186.117" fill="#756e78" rx="26.067" ry="19.167"/><ellipse cx="407.339" cy="251.69" fill="#fff" rx="26.067" ry="19.167"/></g></svg>