<svg xmlns="http://www.w3.org/2000/svg" xmlns:xlink="http://www.w3.org/1999/xlink" width="238.285" height="238.285" viewBox="0 0 238.285 238.285"><defs><style>.a{fill:#ffe5e5;stroke:rgba(112,112,112,0);stroke-width:0.285px;}.b{fill:#fff;}.c{fill:none;stroke:rgba(112,112,112,0.87);stroke-miterlimit:10;stroke-width:0.143px;}.d{fill:#cb4242;}.e{fill:#efadad;}.f,.g,.h{stroke:none;}.g{fill:rgba(213,42,42,0);}.h{fill:rgba(112,112,112,0);}.i{filter:url(#a);}</style><filter id="a" x="0" y="0" width="238.285" height="238.285" filterUnits="userSpaceOnUse"><feOffset dx="3" dy="3" input="SourceAlpha"/><feGaussianBlur stdDeviation="3" result="b"/><feFlood flood-opacity="0.502"/><feComposite operator="in" in2="b"/><feComposite in="SourceGraphic"/></filter></defs><g transform="translate(-547.857 -2626.857)"><g transform="translate(554 2633)"><g class="i" transform="matrix(1, 0, 0, 1, -6.14, -6.14)"><circle class="a" cx="110" cy="110" r="110" transform="translate(6.14 6.14)"/></g><rect class="b" width="132.964" height="101.451" transform="translate(43.315 59.064)"/><g transform="translate(50.664 64.123)"><line class="c" y2="91.33" transform="translate(4.882)"/><line class="c" y2="91.33" transform="translate(17.477)"/><line class="c" y2="91.33" transform="translate(30.065)"/><line class="c" y2="91.33" transform="translate(42.673)"/><line class="c" y2="91.33" transform="translate(55.265)"/><line class="c" y2="91.33" transform="translate(67.856)"/><line class="c" y2="91.33" transform="translate(80.464)"/><line class="c" y2="91.33" transform="translate(93.056)"/><line class="c" y2="91.33" transform="translate(105.647)"/><line class="c" y2="91.33" transform="translate(118.238)"/><line class="c" x1="118.238" transform="translate(0 87.247)"/><line class="c" x1="118.238" transform="translate(0 76.337)"/><line class="c" x1="118.238" transform="translate(0 65.444)"/><line class="c" x1="118.238" transform="translate(0 54.534)"/><line class="c" x1="118.238" transform="translate(0 43.627)"/><line class="c" x1="118.238" transform="translate(0 32.713)"/><line class="c" x1="118.238" transform="translate(0 21.82)"/><line class="c" x1="118.238" transform="translate(0 10.908)"/><line class="c" x1="118.238"/></g></g><g class="d" transform="translate(618.699 2719.303)"><path class="f" d="M52.417,37.443C41.91,19.957,40.562-11.491,32.09-12.524c-8.083-.99-10.8,32.481-18.139,49.967S-3.659,57.421-3.659,57.421h82.2S62.924,54.929,52.417,37.443Z"/><path class="g" d="M 72.15499877929688 56.42138290405273 C 71.16347503662109 55.99542617797852 70.0855712890625 55.48346328735352 68.94617462158203 54.87017059326172 C 65.84375762939453 53.20027160644531 62.92013931274414 51.11740493774414 60.25652694702148 48.67943954467773 C 56.93196105957031 45.63650512695312 54.00594711303711 42.02935028076172 51.55977249145508 37.95816040039062 C 46.6661262512207 29.81365966796875 43.76211547851562 18.80928230285645 41.19997024536133 9.100315093994141 C 39.73278045654297 3.54060435295105 38.34696960449219 -1.710773468017578 36.7994384765625 -5.505506992340088 C 35.22940444946289 -9.355406761169434 33.64927291870117 -11.32642936706543 31.96812629699707 -11.53128433227539 C 31.89197158813477 -11.54060649871826 31.81557083129883 -11.5453405380249 31.74104881286621 -11.5453405380249 C 30.08629417419434 -11.5453405380249 28.37937164306641 -9.14588451385498 26.66768264770508 -4.413606643676758 C 24.9743824005127 0.2678376734256744 23.47687149047852 6.62140417098999 21.89143753051758 13.34802627563477 C 19.84050369262695 22.04960441589355 17.71974945068359 31.04742622375488 14.87294864654541 37.83013916015625 C 13.16788196563721 41.89254760742188 11.16051578521729 45.49488067626953 8.906593322753906 48.53707122802734 C 7.091015815734863 50.98763656616211 5.110915660858154 53.0840950012207 3.021315574645996 54.76822662353516 C 2.203456878662109 55.42738723754883 1.431912541389465 55.97232437133789 0.726111114025116 56.42138290405273 L 72.15499877929688 56.42138290405273 M 78.54329681396484 57.42138290405273 L -3.658806562423706 57.42138290405273 C -3.658806562423706 57.42138290405273 6.611582279205322 54.92944717407227 13.95087146759033 37.4431266784668 C 21.18398475646973 20.20976066589355 23.92588233947754 -12.5453405380249 31.74105072021484 -12.5453405380249 C 31.85576057434082 -12.5453405380249 31.97279167175293 -12.53818130493164 32.08971405029297 -12.5238618850708 C 40.56209182739258 -11.49148464202881 41.91023635864258 19.95681571960449 52.41693878173828 37.4431266784668 C 62.92363739013672 54.92944717407227 78.54329681396484 57.42138290405273 78.54329681396484 57.42138290405273 Z"/></g><g class="e" transform="translate(631.49 2745.305)"><path class="f" d="M53.119,10.751c6.7-.4,11.18,6.919,18.323,13.671a35.1,35.1,0,0,0,11.3,7h-86.4s18.7-2.661,34.131-9.523C39.556,17.854,48.494,11.024,53.119,10.751Z"/><path class="h" d="M 53.63932418823242 11.73542213439941 C 53.48715972900391 11.73542213439941 53.33208847045898 11.74003410339355 53.17844390869141 11.74911689758301 C 50.70124053955078 11.8956470489502 46.41220474243164 14.36458778381348 41.8713493347168 16.97849273681641 C 38.50177001953125 18.91816329956055 34.6826171875 21.11662292480469 30.87827682495117 22.8090934753418 C 22.83702850341797 26.38610458374023 13.91507720947266 28.80522155761719 7.846488952636719 30.2047290802002 C 7.528892517089844 30.27796936035156 7.215232849121094 30.34933853149414 6.906486511230469 30.41870498657227 L 78.14186859130859 30.41870498657227 C 75.96894836425781 29.24845886230469 73.26431274414062 27.51961135864258 70.75579833984375 25.14901161193848 C 68.93099212646484 23.42408180236816 67.30650329589844 21.6930103302002 65.73548889160156 20.01892852783203 C 63.59439468383789 17.73736381530762 61.57202911376953 15.58231735229492 59.57832336425781 14.07059860229492 C 57.47723007202148 12.47744560241699 55.59006500244141 11.73542213439941 53.63932418823242 11.73542213439941 M 53.63932418823242 10.73542213439941 C 60.05857086181641 10.73542213439941 64.48568725585938 17.84597778320312 71.44273376464844 24.42230606079102 C 76.61466217041016 29.30988121032715 82.74066162109375 31.41870498657227 82.74066162109375 31.41870498657227 L -3.6588134765625 31.41870498657227 C -3.6588134765625 31.41870498657227 15.04586791992188 28.75740051269531 30.47183990478516 21.89541053771973 C 39.55643081665039 17.8538818359375 48.49392318725586 11.02445793151855 53.11939239501953 10.75085830688477 C 53.29410934448242 10.74052238464355 53.46754837036133 10.73542213439941 53.63932418823242 10.73542213439941 Z"/></g></g></svg>