<svg height="512pt" viewBox="0 0 512 512" width="512pt" xmlns="http://www.w3.org/2000/svg"><path d="m256 512c-68.378906 0-132.667969-26.628906-181.019531-74.980469-48.351563-48.351562-74.980469-112.640625-74.980469-181.019531s26.628906-132.667969 74.980469-181.019531c48.351562-48.351563 112.640625-74.980469 181.019531-74.980469s132.667969 26.628906 181.019531 74.980469c48.351563 48.351562 74.980469 112.640625 74.980469 181.019531s-26.628906 132.667969-74.980469 181.019531c-48.351562 48.351563-112.640625 74.980469-181.019531 74.980469zm0 0" fill="#ff9200"/><path d="m437.019531 74.980469c-48.351562-48.351563-112.640625-74.980469-181.019531-74.980469v512c68.378906 0 132.667969-26.628906 181.019531-74.980469 48.351563-48.351562 74.980469-112.640625 74.980469-181.019531s-26.628906-132.667969-74.980469-181.019531zm0 0" fill="#f87d00"/><path d="m256 30c-124.617188 0-226 101.382812-226 226s101.382812 226 226 226 226-101.382812 226-226-101.382812-226-226-226zm0 0" fill="#ffdecf"/><path d="m256 30v452c124.617188 0 226-101.382812 226-226s-101.382812-226-226-226zm0 0" fill="#ffcebe"/><path d="m86.492188 339.839844c-5.179688 0-10.214844-2.683594-12.996094-7.488282-13.375-23.117187-20.441406-49.515624-20.441406-76.351562s7.066406-53.234375 20.441406-76.351562c4.144531-7.164063 13.3125-9.617188 20.484375-5.476563l119.230469 68.835937c4.640624 2.679688 7.5 7.632813 7.5 12.992188s-2.859376 10.308594-7.5 12.988281l-119.230469 68.839844c-2.363281 1.363281-4.941407 2.011719-7.488281 2.011719zm0 0" fill="#ed5469"/><path d="m230.730469 452.230469c-26.65625 0-53.003907-7.078125-76.203125-20.472657-23.242188-13.417968-42.570313-32.742187-55.898438-55.878906-4.132812-7.175781-1.675781-16.339844 5.496094-20.480468l119.230469-68.835938c4.640625-2.683594 10.359375-2.679688 15 0s7.5 7.628906 7.5 12.988281v137.675781c0 8.28125-6.707031 14.992188-14.984375 15-.046875.003907-.09375.003907-.140625.003907zm0 0" fill="#ed5469"/><g fill="#e63850"><path d="m281.269531 452.230469c-.046875 0-.089843 0-.136719 0-8.28125-.007813-14.988281-6.722657-14.988281-15v-137.679688c0-5.359375 2.859375-10.308593 7.5-12.988281s10.359375-2.679688 15 0l119.230469 68.835938c7.171875 4.140624 9.632812 13.304687 5.5 20.480468-13.332031 23.140625-32.660156 42.460938-55.902344 55.878906-23.199218 13.390626-49.546875 20.472657-76.203125 20.472657zm0 0"/><path d="m425.507812 339.839844c-2.546874 0-5.125-.648438-7.488281-2.011719l-119.230469-68.839844c-4.640624-2.679687-7.5-7.628906-7.5-12.988281s2.859376-10.3125 7.5-12.988281l119.230469-68.839844c7.171875-4.140625 16.335938-1.6875 20.484375 5.476563 13.375 23.117187 20.441406 49.515624 20.441406 76.351562s-7.066406 53.238281-20.441406 76.351562c-2.78125 4.804688-7.816406 7.488282-12.996094 7.488282zm0 0"/><path d="m281.144531 227.449219c-2.589843 0-5.179687-.671875-7.5-2.011719-4.640625-2.679688-7.5-7.628906-7.5-12.988281v-137.679688c0-8.277343 6.707031-14.992187 14.988281-15h.136719c26.65625 0 53.003907 7.078125 76.203125 20.472657 23.242188 13.417968 42.570313 32.742187 55.898438 55.878906 4.132812 7.175781 1.675781 16.339844-5.496094 20.480468l-119.230469 68.835938c-2.320312 1.339844-4.910156 2.011719-7.5 2.011719zm0 0"/></g><path d="m230.855469 227.449219c-2.589844 0-5.179688-.671875-7.5-2.011719l-119.230469-68.835938c-7.171875-4.140624-9.632812-13.304687-5.5-20.480468 13.332031-23.140625 32.660156-42.460938 55.902344-55.878906 23.195312-13.394532 49.546875-20.472657 76.203125-20.472657h.136719c8.28125.007813 14.988281 6.722657 14.988281 15v137.675781c0 5.359376-2.859375 10.3125-7.5 12.992188-2.320313 1.339844-4.910157 2.011719-7.5 2.011719zm0 0" fill="#ed5469"/></svg>