<svg id="Capa_1" enable-background="new 0 0 512 512" height="512" viewBox="0 0 512 512" width="512" xmlns="http://www.w3.org/2000/svg"><path d="m260.967 425.755 246.285-286.483c6.699-7.792 6.26-19.431-1.006-26.697l-101.038-101.037c-7.266-7.266-18.905-7.705-26.697-1.006l-286.482 246.286 5.98 24.591 132.583 132.583z" fill="#fb74c4"/><path d="m59.53 422.765 35.489 35.489-44.79 44.79c-2.968 2.968-7.385 3.953-11.333 2.527l-33.432-12.075c-5.698-2.058-7.322-9.342-3.038-13.626z" fill="#fd4eb4"/><path d="m33.729 433.647-1.444 1.444c-3.859 3.859-3.859 10.116 0 13.975l36.433 36.433c3.859 3.859 10.116 3.859 13.975 0l1.444-1.444c30.86-30.86 76.069-42.478 117.984-30.32 3.674 1.066 7.638.047 10.343-2.658l23.799-23.799-145.756-145.757-23.799 23.799c-2.705 2.705-3.724 6.669-2.658 10.343 12.158 41.915.539 87.124-30.321 117.984z" fill="#8db9c2"/><path d="m211.131 402.145-17.243 17.243c-2.705 2.705-6.669 3.724-10.343 2.658-41.915-12.158-93.681 6.017-124.54 36.877-4.656 4.656-12.206 4.656-16.862 0l26.576 26.576c3.859 3.859 10.116 3.859 13.975 0l1.444-1.444c30.86-30.86 76.069-42.478 117.984-30.321 3.674 1.066 7.638.047 10.343-2.658l23.799-23.799z" fill="#7ba0b0"/><path d="m400.676 116.485c14.442 14.442 14.442 37.858 0 52.3l-127.637 127.638c-14.442 14.442-37.858 14.442-52.3 0-14.442-14.442-14.442-37.858 0-52.3l127.637-127.637c14.443-14.443 37.858-14.443 52.3-.001z" fill="#f1faff"/><path d="m507.252 139.273c6.699-7.792 6.26-19.431-1.006-26.697l-26.225-26.225c7.266 7.266 7.705 18.905 1.006 26.697l-254.888 296.49 4.454 4.454 30.375 11.764z" fill="#fd4eb4"/><path d="m222.717 441.501-146.434-146.434c-7.172-7.172-6.729-18.929.962-25.54l14.784-12.709 168.938 168.938-12.709 14.784c-6.612 7.69-18.369 8.133-25.541.961z" fill="#c7eefb"/><path d="m248.257 440.539 12.709-14.784-26.225-26.225-12.709 14.784c-8.83 10.875-24.786 1.716-24.786 1.716l25.471 25.471c7.172 7.172 18.929 6.729 25.54-.962z" fill="#97e4f9"/></svg>