<svg xmlns="http://www.w3.org/2000/svg" xmlns:xlink="http://www.w3.org/1999/xlink" width="238" height="239.662" viewBox="0 0 238 239.662"><defs><style>.a{fill:#a4ccff;}.b{fill:#65a9ff;}.c{fill:#324a5e;}.d{fill:#2b3b4e;}.e{fill:#ff6472;}.f{fill:#c75163;}.g{filter:url(#a);}</style><filter id="a" x="0" y="0" width="238" height="239.662" filterUnits="userSpaceOnUse"><feOffset dx="3" dy="3" input="SourceAlpha"/><feGaussianBlur stdDeviation="3" result="b"/><feFlood flood-opacity="0.502"/><feComposite operator="in" in2="b"/><feComposite in="SourceGraphic"/></filter></defs><g transform="translate(6 6)"><g class="g" transform="matrix(1, 0, 0, 1, -6, -6)"><ellipse class="a" cx="110" cy="110.831" rx="110" ry="110.831" transform="translate(6 6)"/></g><path class="b" d="M267.441,264.553,233.48,230.592l-114.308-10.2-32.116,10.2,57.039,57.039-36.121,9.823,49.264,49.264q1.511.04,3.031.042A110.978,110.978,0,0,0,267.441,264.553Z" transform="translate(-50.992 -124.883)"/><path class="c" d="M231.819,148.2,159.438,74.99,87.057,148.2h20.681v66.862h103.4V148.2Z" transform="translate(-49.331 -42.493)"/><path class="d" d="M256,74.992V215.065h52.294V148.2h20.918Z" transform="translate(-146.304 -42.494)"/><path class="e" d="M183.574,259.485a15.693,15.693,0,0,1,31.385,0,15.693,15.693,0,0,1,31.385,0c0,15-31.386,32.953-31.386,32.953S183.574,275.335,183.574,259.485Z" transform="translate(-104.854 -138.145)"/><path class="f" d="M287.387,259.485A15.693,15.693,0,0,0,256,259.48v32.958C256.013,292.431,287.387,274.487,287.387,259.485Z" transform="translate(-146.032 -138.145)"/></g></svg>