<svg xmlns="http://www.w3.org/2000/svg" xmlns:xlink="http://www.w3.org/1999/xlink" width="1280" height="940" viewBox="0 0 1280 940">
  <defs>
    <filter id="Rectangle_214" x="657.5" y="77" width="595" height="235" filterUnits="userSpaceOnUse">
      <feOffset dx="5" dy="5" input="SourceAlpha"/>
      <feGaussianBlur stdDeviation="2.5" result="blur"/>
      <feFlood flood-opacity="0.404"/>
      <feComposite operator="in" in2="blur"/>
      <feComposite in="SourceGraphic"/>
    </filter>
    <filter id="Rectangle_213" x="37.5" y="677.5" width="595" height="235" filterUnits="userSpaceOnUse">
      <feOffset dx="5" dy="5" input="SourceAlpha"/>
      <feGaussianBlur stdDeviation="2.5" result="blur-2"/>
      <feFlood flood-opacity="0.404"/>
      <feComposite operator="in" in2="blur-2"/>
      <feComposite in="SourceGraphic"/>
    </filter>
    <filter id="Rectangle_215" x="37.5" y="77.5" width="595" height="232" filterUnits="userSpaceOnUse">
      <feOffset dx="5" dy="5" input="SourceAlpha"/>
      <feGaussianBlur stdDeviation="2.5" result="blur-3"/>
      <feFlood flood-opacity="0.404"/>
      <feComposite operator="in" in2="blur-3"/>
      <feComposite in="SourceGraphic"/>
    </filter>
    <filter id="Rectangle_216" x="657.5" y="677.5" width="575" height="235" filterUnits="userSpaceOnUse">
      <feOffset dx="5" dy="5" input="SourceAlpha"/>
      <feGaussianBlur stdDeviation="2.5" result="blur-4"/>
      <feFlood flood-opacity="0.404"/>
      <feComposite operator="in" in2="blur-4"/>
      <feComposite in="SourceGraphic"/>
    </filter>
  </defs>
  <g id="Group_546" data-name="Group 546" transform="translate(0 -1480)">
    <rect id="Rectangle_169" data-name="Rectangle 169" width="1280" height="940" transform="translate(0 1480)" fill="#e2fcbe"/>
    <g id="Group_518" data-name="Group 518" transform="translate(-173.717 86.008)">
      <g id="water" transform="translate(1081.15 1739.135)">
        <path id="Path_2117" data-name="Path 2117" d="M209.566,6l-17.11,258.48c-.856,11.284-8.84,20.453-17.966,20.453H92.076c-9.125,0-17.11-9.168-17.966-20.453L57,6Z" transform="translate(-57 -6)" fill="#f4f5f7" stroke="rgba(112,112,112,0.34)" stroke-width="1"/>
        <path id="Path_2118" data-name="Path 2118" d="M94.757,264.88,77.647,6.4H57.4L74.51,264.88c.856,11.284,8.84,20.453,17.966,20.453h20.247C103.313,285.332,95.328,276.164,94.757,264.88Z" transform="translate(-57.115 -6.047)" fill="#fff"/>
        <path id="Path_2119" data-name="Path 2119" d="M205.6,317.613,214.4,112.82c-21.337,11.612-43.013,10.556-61.641.528C126.685,98.041,91.8,119.154,91.8,119.154l9.483,198.458Z" transform="translate(-77.338 -71.965)" fill="#50c1e9"/>
        <path id="Path_2120" data-name="Path 2120" d="M134.005,108.3C113.758,104.774,91.8,115,91.8,115l7.985,132.59h18.536l-8.27-132.237A99.5,99.5,0,0,1,134.005,108.3Z" transform="translate(-66.99 -18.027)" fill="#87d3e8"/>
      </g>
      <g id="Group_462" data-name="Group 462" transform="translate(293.717 1713.992)">
        <g id="Group_524" data-name="Group 524" transform="translate(639.118 40)">
          <path id="Path_1706" data-name="Path 1706" d="M8.236,207.683c3.92,13.742,7.351,28.885,5.057,42.875.608.238,1.22.467,1.835.682.519.191,1.041.367,1.563.539.635.21,1.273.41,1.915.6a60.572,60.572,0,0,0,6.686,1.569c1.124.2,2.257.367,3.394.5a58.291,58.291,0,0,0,7.088.424A60.553,60.553,0,0,0,52.4,252.532c13.687-3.886,26.2-12.483,36.67-24.561,8.192-24.017-.339-29.334,3.228-53.37,1.669-12.8,8.331-20.9,15.01-31.007,5.226-7.887,10.466-17.022,12.593-29.381v0a69.264,69.264,0,0,0,.981-10.6c.01-17.146-3.8-22.415-8.547-24.174-5.13-1.9-11.353.305-15.01-3.977-3.6-3.857-3.2-17.428-4.757-30.216-.156-1.359-.332-2.713-.535-4.039C90.323,30.071,86.755,20.515,78.773,20.52a9.6,9.6,0,0,0-6.16,2.217C61.758,31.458,62.21,63.114,54.4,65.927,45.87,68.712,33.679,52.819,26.1,75.1c-3.943,10.824-1.686,21.061.422,31.374,2.118,10.185,4.086,20.441-.273,28.232-8.963,15.258-16.789,6.332-24.336,25.824-5.11,12.392,1.041,28.513,6.32,47.152Z" transform="translate(0 -20.52)" fill="#88c057"/>
          <g id="Group_360" data-name="Group 360" transform="translate(15.128 25.657)">
            <path id="Path_1707" data-name="Path 1707" d="M129.27,279.393c.519.191,1.041.367,1.563.539.635.21,1.273.41,1.915.6q6.558-9.913,12.454-20.613a356.35,356.35,0,0,0,24.841-56.569,411.468,411.468,0,0,0,15.975-62.691q2.8-16.235,4.365-32.871.763-8.3,1.2-16.674t.465-16.779q-.952,8.3-2.045,16.479t-2.38,16.264q-2.568,16.15-5.938,31.856A533.023,533.023,0,0,1,164.9,199.722a480.153,480.153,0,0,1-23.309,56.321Q135.738,267.966,129.27,279.393Z" transform="translate(-129.27 -74.33)" fill="#528442"/>
          </g>
          <g id="Group_361" data-name="Group 361" transform="translate(46.328 72.209)">
            <path id="Path_1708" data-name="Path 1708" d="M123.026,189.811c-1.416.622-2.811,1.353-4.2,2.1s-2.772,1.539-4.151,2.332c-2.756,1.6-5.493,3.285-8.221,4.975-5.456,3.388-10.867,6.9-16.264,10.36L93.4,211.15q-2.082-5.665-4.415-10.977c-1.555-3.54-3.186-6.968-4.912-10.252s-3.521-6.457-5.42-9.468c-.953-1.5-1.922-2.975-2.927-4.393s-2.029-2.806-3.115-4.1c.576,1.987,1.2,3.917,1.822,5.837s1.265,3.824,1.9,5.729c1.286,3.8,2.6,7.567,3.915,11.342s2.645,7.538,3.975,11.309,2.666,7.544,4.005,11.323q.526,1.485,1.044,2.982,1.072-.643,2.143-1.3A109.941,109.941,0,0,0,107.6,207.006c2.649-2.406,5.271-4.988,7.85-7.821,1.288-1.425,2.569-2.89,3.832-4.447S121.8,191.574,123.026,189.811Z" transform="translate(-72.613 -171.961)" fill="#528442"/>
          </g>
          <g id="Group_362" data-name="Group 362" transform="translate(31.621 131.674)">
            <path id="Path_1709" data-name="Path 1709" d="M174.14,328.373c-1.472.208-2.939.527-4.4.869s-2.927.721-4.386,1.107c-2.919.788-5.831,1.663-8.735,2.548-5.81,1.778-11.594,3.694-17.36,5.571l2.937,2.443q-1.266-6.142-2.829-12c-1.041-3.907-2.173-7.724-3.418-11.426s-2.573-7.313-4.025-10.795c-.731-1.737-1.479-3.452-2.272-5.122s-1.607-3.315-2.5-4.887c.3,2.106.641,4.166.993,6.221s.721,4.1,1.087,6.143c.743,4.082,1.519,8.141,2.293,12.21s1.564,8.132,2.352,12.2,1.582,8.151,2.376,12.236q.312,1.6.614,3.22,1.14-.33,2.281-.678a91.955,91.955,0,0,0,17.533-7.387,94.643,94.643,0,0,0,8.761-5.444c1.456-1.031,2.911-2.1,4.361-3.269s2.9-2.384,4.335-3.76Z" transform="translate(-127.152 -296.675)" fill="#528442"/>
          </g>
        </g>
        <g id="Group_461" data-name="Group 461" transform="translate(683.53 53.18)">
          <path id="Path_1706-2" data-name="Path 1706" d="M8.236,207.683c3.92,13.742,7.351,28.885,5.057,42.875.608.238,1.22.467,1.835.682.519.191,1.041.367,1.563.539.635.21,1.273.41,1.915.6a60.572,60.572,0,0,0,6.686,1.569c1.124.2,2.257.367,3.394.5a58.291,58.291,0,0,0,7.088.424A60.553,60.553,0,0,0,52.4,252.532c13.687-3.886,26.2-12.483,36.67-24.561,8.192-24.017-.339-29.334,3.228-53.37,1.669-12.8,8.331-20.9,15.01-31.007,5.226-7.887,10.466-17.022,12.593-29.381v0a69.264,69.264,0,0,0,.981-10.6c.01-17.146-3.8-22.415-8.547-24.174-5.13-1.9-11.353.305-15.01-3.977-3.6-3.857-3.2-17.428-4.757-30.216-.156-1.359-.332-2.713-.535-4.039C90.323,30.071,86.755,20.515,78.773,20.52a9.6,9.6,0,0,0-6.16,2.217C61.758,31.458,62.21,63.114,54.4,65.927,45.87,68.712,33.679,52.819,26.1,75.1c-3.943,10.824-1.686,21.061.422,31.374,2.118,10.185,4.086,20.441-.273,28.232-8.963,15.258-16.789,6.332-24.336,25.824-5.11,12.392,1.041,28.513,6.32,47.152Z" transform="translate(0 -20.52)" fill="#649b54"/>
          <g id="Group_360-2" data-name="Group 360" transform="translate(15.128 25.657)">
            <path id="Path_1707-2" data-name="Path 1707" d="M129.27,279.393c.519.191,1.041.367,1.563.539.635.21,1.273.41,1.915.6q6.558-9.913,12.454-20.613a356.35,356.35,0,0,0,24.841-56.569,411.468,411.468,0,0,0,15.975-62.691q2.8-16.235,4.365-32.871.763-8.3,1.2-16.674t.465-16.779q-.952,8.3-2.045,16.479t-2.38,16.264q-2.568,16.15-5.938,31.856A533.023,533.023,0,0,1,164.9,199.722a480.153,480.153,0,0,1-23.309,56.321Q135.738,267.966,129.27,279.393Z" transform="translate(-129.27 -74.33)" fill="#528442"/>
          </g>
          <g id="Group_361-2" data-name="Group 361" transform="translate(46.328 72.209)">
            <path id="Path_1708-2" data-name="Path 1708" d="M123.026,189.811c-1.416.622-2.811,1.353-4.2,2.1s-2.772,1.539-4.151,2.332c-2.756,1.6-5.493,3.285-8.221,4.975-5.456,3.388-10.867,6.9-16.264,10.36L93.4,211.15q-2.082-5.665-4.415-10.977c-1.555-3.54-3.186-6.968-4.912-10.252s-3.521-6.457-5.42-9.468c-.953-1.5-1.922-2.975-2.927-4.393s-2.029-2.806-3.115-4.1c.576,1.987,1.2,3.917,1.822,5.837s1.265,3.824,1.9,5.729c1.286,3.8,2.6,7.567,3.915,11.342s2.645,7.538,3.975,11.309,2.666,7.544,4.005,11.323q.526,1.485,1.044,2.982,1.072-.643,2.143-1.3A109.941,109.941,0,0,0,107.6,207.006c2.649-2.406,5.271-4.988,7.85-7.821,1.288-1.425,2.569-2.89,3.832-4.447S121.8,191.574,123.026,189.811Z" transform="translate(-72.613 -171.961)" fill="#528442"/>
          </g>
          <g id="Group_362-2" data-name="Group 362" transform="translate(31.621 131.674)">
            <path id="Path_1709-2" data-name="Path 1709" d="M174.14,328.373c-1.472.208-2.939.527-4.4.869s-2.927.721-4.386,1.107c-2.919.788-5.831,1.663-8.735,2.548-5.81,1.778-11.594,3.694-17.36,5.571l2.937,2.443q-1.266-6.142-2.829-12c-1.041-3.907-2.173-7.724-3.418-11.426s-2.573-7.313-4.025-10.795c-.731-1.737-1.479-3.452-2.272-5.122s-1.607-3.315-2.5-4.887c.3,2.106.641,4.166.993,6.221s.721,4.1,1.087,6.143c.743,4.082,1.519,8.141,2.293,12.21s1.564,8.132,2.352,12.2,1.582,8.151,2.376,12.236q.312,1.6.614,3.22,1.14-.33,2.281-.678a91.955,91.955,0,0,0,17.533-7.387,94.643,94.643,0,0,0,8.761-5.444c1.456-1.031,2.911-2.1,4.361-3.269s2.9-2.384,4.335-3.76Z" transform="translate(-127.152 -296.675)" fill="#528442"/>
          </g>
        </g>
        <g id="fish" transform="translate(338.783 0) rotate(43)">
          <path id="Path_1906" data-name="Path 1906" d="M226.642,68a6.33,6.33,0,0,0-2.017-10.007c-8.86-3.772-4.9-17.044-12.4-16.18-8.6.988-14.758-5.149-13.763-13.72S193.3,13.381,184.7,14.374,184.76,1.882,170.939.654c0,0-9.6-3.513-10.721,5.745l-.939,36.01-55.769,1.228C48.581,44.846,3.073,90.217,1.864,144.976L0,229.382l83.98-1.849c55.307-1.218,101.13-46.9,102.347-102.039l1.222-55.359,36.041-.461A5.386,5.386,0,0,0,226.642,68Z" transform="translate(0 0)" fill="#f47c7c"/>
          <path id="Path_1907" data-name="Path 1907" d="M78.087,77.642l-9.953.219C68.98,39.563,38.417,9.1,0,9.942L.219.02C44.12-.947,79.054,33.872,78.087,77.642Z" transform="translate(30.878 121.469)" fill="#ee6161" stroke="#ee6161" stroke-width="1"/>
          <path id="Path_1908" data-name="Path 1908" d="M78.087,77.642l-9.953.219C68.98,39.563,38.417,9.1,0,9.942L.219.02C44.12-.947,79.053,33.877,78.087,77.642Z" transform="translate(47.432 104.964)" fill="#ee6161" stroke="#ee6161" stroke-width="1"/>
          <path id="Path_1909" data-name="Path 1909" d="M78.087,77.642l-9.953.219C68.98,39.563,38.417,9.1,0,9.942L.219.02C44.12-.947,79.053,33.877,78.087,77.642Z" transform="translate(63.244 89.195)" fill="#ee6161" stroke="#ee6161" stroke-width="1"/>
          <path id="Path_1910" data-name="Path 1910" d="M78.087,77.642l-9.953.219C68.98,39.563,38.417,9.1,0,9.942L.219.02C44.12-.947,79.054,33.872,78.087,77.642Z" transform="translate(79.798 72.695)" fill="#ee6161" stroke="#ee6161" stroke-width="1"/>
          <path id="Path_1911" data-name="Path 1911" d="M42.088,30.876A75.081,75.081,0,0,0,28.992,0S-12.38,21.132,3.72,51.783A104.776,104.776,0,0,1,42.088,30.876Z" transform="translate(34.767 17.031)" fill="#9f1427"/>
          <path id="Path_1912" data-name="Path 1912" d="M20.464,0A104.146,104.146,0,0,1,0,43.331c14.211,1.3,35.148-.551,56.25-16.015C56.25,27.317,42.935-.391,20.464,0Z" transform="translate(163.667 144.058)" fill="#546a79"/>
          <path id="Path_2135" data-name="Path 2135" d="M10.174,0a9.424,9.424,0,0,1,9.733,9.7A10.483,10.483,0,0,1,9.736,19.846,9.424,9.424,0,0,1,0,10.144,10.483,10.483,0,0,1,10.174,0Z" transform="translate(20.103 158.619)" fill="#9f1427"/>
        </g>
        <g id="Group_365" data-name="Group 365" transform="translate(561.701 111.309)">
          <path id="Path_1706-3" data-name="Path 1706" d="M8.236,161.258c3.92,10.333,7.351,21.72,5.057,32.24q.913.269,1.835.513c.519.143,1.041.276,1.563.405q.953.237,1.915.448,3.3.731,6.686,1.18c1.124.151,2.257.276,3.394.373q3.506.323,7.088.319A79.349,79.349,0,0,0,52.4,194.982a82.184,82.184,0,0,0,36.67-18.468c8.192-18.06-.339-22.057,3.228-40.131,1.669-9.627,8.331-15.718,15.01-23.316,5.226-5.93,10.466-12.8,12.593-22.093v0a39.6,39.6,0,0,0,.981-7.97c.01-12.893-3.8-16.855-8.547-18.178-5.13-1.427-11.353.229-15.01-2.99-3.6-2.9-3.2-13.1-4.757-22.721-.156-1.022-.332-2.04-.535-3.037C90.323,27.7,86.755,20.516,78.773,20.52a11.674,11.674,0,0,0-6.16,1.667C61.758,28.745,62.21,52.548,54.4,54.664c-8.528,2.094-20.719-9.856-28.3,6.9-3.943,8.139-1.686,15.837.422,23.592,2.118,7.658,4.086,15.371-.273,21.229C17.289,117.856,9.463,111.145,1.916,125.8c-5.11,9.318,1.041,21.441,6.32,35.456Z" transform="translate(0 -20.52)" fill="#e3f18c"/>
          <g id="Group_360-3" data-name="Group 360" transform="translate(15.128 19.293)">
            <path id="Path_1707-3" data-name="Path 1707" d="M129.27,228.527c.519.143,1.041.276,1.563.405q.953.237,1.915.448,6.558-7.454,12.454-15.5a240.409,240.409,0,0,0,24.841-42.537A249.458,249.458,0,0,0,186.017,124.2a243.047,243.047,0,0,0,4.365-24.718c.509-4.163.918-8.343,1.2-12.538s.445-8.4.465-12.617Q191.1,80.569,190,86.721c-.735,4.105-1.519,8.182-2.38,12.23q-2.568,12.144-5.938,23.954A326.525,326.525,0,0,1,164.9,168.619a318.679,318.679,0,0,1-23.309,42.351Q135.738,219.935,129.27,228.527Z" transform="translate(-129.27 -74.33)" fill="#a5cb81"/>
          </g>
          <g id="Group_361-3" data-name="Group 361" transform="translate(46.328 54.298)">
            <path id="Path_1708-3" data-name="Path 1708" d="M123.026,185.384c-1.416.468-2.811,1.017-4.2,1.582s-2.772,1.157-4.151,1.753c-2.756,1.2-5.493,2.47-8.221,3.741-5.456,2.548-10.867,5.188-16.264,7.79l3.214,1.18q-2.081-4.259-4.415-8.254c-1.555-2.662-3.186-5.239-4.912-7.709s-3.521-4.855-5.42-7.119c-.953-1.128-1.922-2.237-2.927-3.3s-2.029-2.11-3.115-3.082c.576,1.494,1.2,2.945,1.822,4.389s1.265,2.875,1.9,4.308c1.286,2.858,2.6,5.69,3.915,8.529s2.645,5.669,3.975,8.5,2.666,5.673,4.005,8.514q.526,1.117,1.044,2.242,1.072-.483,2.143-.98a113.16,113.16,0,0,0,16.182-9.154c2.649-1.809,5.271-3.751,7.85-5.881,1.288-1.071,2.569-2.173,3.832-3.344S121.8,186.709,123.026,185.384Z" transform="translate(-72.613 -171.961)" fill="#a5cb81"/>
          </g>
          <g id="Group_362-3" data-name="Group 362" transform="translate(31.622 99.013)">
            <path id="Path_1709-3" data-name="Path 1709" d="M174.14,320.51c-1.472.156-2.939.4-4.4.653s-2.927.542-4.386.833c-2.919.592-5.831,1.25-8.735,1.916-5.81,1.337-11.594,2.778-17.36,4.189l2.937,1.837q-1.266-4.618-2.829-9.027c-1.041-2.938-2.173-5.808-3.418-8.592s-2.573-5.5-4.025-8.117c-.731-1.306-1.479-2.6-2.272-3.852s-1.607-2.493-2.5-3.675c.3,1.584.641,3.133.993,4.678s.721,3.081,1.087,4.619c.743,3.069,1.519,6.122,2.293,9.181s1.564,6.115,2.352,9.177,1.582,6.129,2.376,9.2q.312,1.207.614,2.422,1.14-.248,2.281-.51a110.407,110.407,0,0,0,17.533-5.555c2.925-1.211,5.848-2.556,8.761-4.094,1.456-.775,2.911-1.582,4.361-2.458S172.7,321.545,174.14,320.51Z" transform="translate(-127.152 -296.675)" fill="#528442"/>
          </g>
        </g>
        <g id="bread" transform="translate(486.264 56.616) rotate(45)">
          <path id="Path_1895" data-name="Path 1895" d="M276.628,9.716c24.405,24.4-28.741,90.751-102.448,164.453S34.13,301.029,9.725,276.617c-14.977-14.957-12.893-57.764,7.912-105.668.574-1.283,1.147-2.613,1.777-3.9,3.076-6.809,6.543-13.693,10.349-20.61.309-.529.592-1.079.923-1.632A300.565,300.565,0,0,1,65.316,95.693c.86-.985,1.736-2.012,2.654-3.008q5.716-6.439,11.97-12.745c2.345-2.345,4.734-4.644,7.12-6.9l.232-.232a307.35,307.35,0,0,1,47.8-36.407c1.011-.612,2-1.2,2.989-1.791,7.176-4.29,14.343-8.169,21.388-11.661.093-.048.161-.074.244-.119C212.037-2.749,260.507-6.407,276.628,9.716Z" transform="translate(0 0)" fill="#e2a76f"/>
          <g id="Group_459" data-name="Group 459" transform="translate(19.404 22.95)">
            <path id="Path_1896" data-name="Path 1896" d="M4.145,24.12a4.007,4.007,0,0,1-3.8-2.39,4.3,4.3,0,0,1,.764-4.549C5.782,11.818,10.2,6.591,14.224,1.646A4.282,4.282,0,0,1,20.187.882a4.187,4.187,0,0,1,.5,5.936C16.6,11.84,12.12,17.155,7.378,22.575A4.429,4.429,0,0,1,4.145,24.12Z" transform="translate(193.367 65.258)" fill="#c08e5e"/>
            <path id="Path_1897" data-name="Path 1897" d="M67.4,52.1C52.9,41.552,25.033,29.141,0,19.89Q5.731,13.429,11.98,7.13c2.345-2.345,4.734-4.644,7.12-6.9L19.332,0A471.634,471.634,0,0,1,67.4,52.1Z" transform="translate(48.557 49.859)" fill="#c08e5e"/>
            <path id="Path_1898" data-name="Path 1898" d="M61.438,34.616C47.294,28.647,22.216,24.37,0,22.242,3.076,15.433,6.543,8.548,10.349,1.632,10.658,1.1,10.94.553,11.272,0A397.441,397.441,0,0,1,61.438,34.616Z" transform="translate(0 121.867)" fill="#c08e5e"/>
            <path id="Path_1899" data-name="Path 1899" d="M21.4,0A400.679,400.679,0,0,1,56.2,43.035C44.235,33.244,21.306,21.168,0,11.661,7.176,7.371,14.343,3.492,21.4,0Z" transform="translate(118.679 0)" fill="#c08e5e"/>
          </g>
        </g>
        <g id="cucumber" transform="translate(20 150.361)">
          <g id="Group_437" data-name="Group 437" transform="translate(104.099 50.096)">
            <path id="Path_1854" data-name="Path 1854" d="M346.315,220.752c-18.2,0-33.009-14.167-33.009-31.582s14.808-31.582,33.009-31.582,33.009,14.167,33.009,31.582S364.516,220.752,346.315,220.752Zm0-58.324c-15.412,0-27.951,12-27.951,26.742s12.539,26.742,27.951,26.742,27.951-12,27.951-26.742-12.539-26.742-27.951-26.742Z" transform="translate(-313.306 -157.589)" fill="#619f38"/>
          </g>
          <g id="Group_434" data-name="Group 434" transform="translate(106.628 52.516)">
            <ellipse id="Ellipse_398" data-name="Ellipse 398" cx="30.48" cy="29.162" rx="30.48" ry="29.162" fill="#b9ea6a"/>
          </g>
          <g id="Group_435" data-name="Group 435" transform="translate(108.255 60.231)">
            <path id="Path_1852" data-name="Path 1852" d="M375.314,189.471a27.969,27.969,0,0,1,1.627,9.4c0,16.106-13.647,29.162-30.48,29.162a31.132,31.132,0,0,1-20.647-7.715c4.088,11.493,15.457,19.765,28.853,19.765,16.834,0,30.48-13.056,30.48-29.162A28.522,28.522,0,0,0,375.314,189.471Z" transform="translate(-325.813 -189.471)" fill="#a1e42c"/>
          </g>
          <g id="Group_436" data-name="Group 436" transform="translate(149.157 70.767)">
            <path id="Path_1853" data-name="Path 1853" d="M448.915,228.563c.054-3.314,1.617-5.978,3.49-5.95s3.349,2.737,3.3,6.051c-.041,2.511-2.037,5.4-3,6.655a.631.631,0,0,1-1-.015C450.775,234.023,448.874,231.075,448.915,228.563Z" transform="translate(-448.914 -222.613)" fill="#e5f5c4"/>
          </g>
          <g id="Group_438" data-name="Group 438">
            <path id="Path_1855" data-name="Path 1855" fill="none" stroke="#fb7601" stroke-linecap="round" stroke-linejoin="round" stroke-miterlimit="10" stroke-width="128"/>
          </g>
          <g id="Group_439" data-name="Group 439" transform="translate(82.159 52.516)">
            <ellipse id="Ellipse_399" data-name="Ellipse 399" cx="30.48" cy="29.162" rx="30.48" ry="29.162" fill="#e5f5c4"/>
          </g>
          <g id="Group_440" data-name="Group 440" transform="translate(83.786 60.231)">
            <path id="Path_1856" data-name="Path 1856" d="M301.67,189.471a27.969,27.969,0,0,1,1.627,9.4c0,16.106-13.646,29.162-30.48,29.162a31.132,31.132,0,0,1-20.647-7.715c4.088,11.493,15.457,19.765,28.853,19.765,16.834,0,30.48-13.056,30.48-29.162A28.527,28.527,0,0,0,301.67,189.471Z" transform="translate(-252.17 -189.471)" fill="#daf3b1"/>
          </g>
          <g id="Group_441" data-name="Group 441" transform="translate(79.63 50.096)">
            <path id="Path_1857" data-name="Path 1857" d="M272.671,220.752c-18.2,0-33.009-14.167-33.009-31.582s14.808-31.582,33.009-31.582,33.009,14.167,33.009,31.582S290.872,220.752,272.671,220.752Zm0-58.324c-15.412,0-27.951,12-27.951,26.742s12.539,26.742,27.951,26.742,27.951-12,27.951-26.742-12.539-26.742-27.951-26.742Z" transform="translate(-239.662 -157.589)" fill="#a5cb81"/>
          </g>
          <g id="Group_442" data-name="Group 442" transform="translate(54.927 88.896)">
            <ellipse id="Ellipse_400" data-name="Ellipse 400" cx="30.48" cy="29.162" rx="30.48" ry="29.162" fill="#def7cd"/>
          </g>
          <g id="Group_443" data-name="Group 443" transform="translate(56.554 96.611)">
            <path id="Path_1858" data-name="Path 1858" d="M219.709,303.911a27.969,27.969,0,0,1,1.627,9.4c0,16.106-13.646,29.162-30.48,29.162a31.132,31.132,0,0,1-20.647-7.715c4.088,11.493,15.457,19.765,28.853,19.765,16.834,0,30.48-13.056,30.48-29.162A28.526,28.526,0,0,0,219.709,303.911Z" transform="translate(-170.208 -303.911)" fill="#c2ea7c"/>
          </g>
          <g id="Group_444" data-name="Group 444" transform="translate(52.398 86.476)">
            <path id="Path_1859" data-name="Path 1859" d="M190.71,335.193c-18.2,0-33.009-14.168-33.009-31.582s14.808-31.582,33.009-31.582,33.009,14.167,33.009,31.582S208.911,335.193,190.71,335.193Zm0-58.324c-15.412,0-27.951,12-27.951,26.742s12.539,26.742,27.951,26.742,27.951-12,27.951-26.742S206.122,276.869,190.71,276.869Z" transform="translate(-157.701 -272.03)" fill="#619f38"/>
          </g>
          <g id="Group_445" data-name="Group 445" transform="translate(110.06 82.075)">
            <path id="Path_1860" data-name="Path 1860" d="M338.031,265.132c0,3.314-1.519,6-3.393,6s-3.393-2.687-3.393-6c0-2.512,1.948-5.432,2.892-6.7a.631.631,0,0,1,1,0C336.083,259.7,338.031,262.62,338.031,265.132Z" transform="translate(-331.245 -258.186)" fill="#a1e42c"/>
          </g>
          <g id="Group_446" data-name="Group 446" transform="translate(96.955 73.994)">
            <path id="Path_1861" data-name="Path 1861" d="M298.077,239.257c-3.464,0-6.272-1.453-6.272-3.246s2.808-3.246,6.272-3.246c2.625,0,5.677,1.864,7,2.767a.574.574,0,0,1,0,.958C303.754,237.392,300.7,239.257,298.077,239.257Z" transform="translate(-291.805 -232.764)" fill="#a1e42c"/>
          </g>
          <g id="Group_447" data-name="Group 447" transform="translate(113.453 63.206)">
            <path id="Path_1862" data-name="Path 1862" d="M341.457,204.83c0-3.314,1.519-6,3.393-6s3.393,2.687,3.393,6c0,2.512-1.948,5.432-2.892,6.7a.631.631,0,0,1-1,0C343.405,210.262,341.457,207.342,341.457,204.83Z" transform="translate(-341.457 -198.829)" fill="#a1e42c"/>
          </g>
          <g id="Group_448" data-name="Group 448" transform="translate(79.972 99.429)">
            <path id="Path_1863" data-name="Path 1863" d="M240.689,318.777c0-3.314,1.519-6,3.393-6s3.393,2.687,3.393,6c0,2.512-1.948,5.432-2.892,6.7a.631.631,0,0,1-1,0C242.637,324.209,240.689,321.288,240.689,318.777Z" transform="translate(-240.689 -312.776)" fill="#cde4a7"/>
          </g>
          <g id="Group_449" data-name="Group 449" transform="translate(69.247 110.661)">
            <path id="Path_1864" data-name="Path 1864" d="M211.054,355.23c-2.449-2.343-3.361-5.271-2.036-6.539s4.385-.4,6.835,1.948c1.856,1.776,2.637,5.159,2.906,6.694a.6.6,0,0,1-.708.677c-1.6-.257-5.14-1-7-2.78Z" transform="translate(-208.41 -348.109)" fill="#cde4a7"/>
          </g>
          <g id="Group_450" data-name="Group 450" transform="translate(85.407 123.314)">
            <path id="Path_1865" data-name="Path 1865" d="M264.76,390.7c2.449,2.344,3.361,5.271,2.036,6.539s-4.385.4-6.835-1.948c-1.856-1.776-2.636-5.159-2.906-6.694a.6.6,0,0,1,.708-.677C259.368,388.178,262.9,388.925,264.76,390.7Z" transform="translate(-257.047 -387.913)" fill="#cde4a7"/>
          </g>
          <g id="Group_451" data-name="Group 451" transform="translate(88.013 113.83)">
            <path id="Path_1866" data-name="Path 1866" d="M271.111,364.571c-3.464-.052-6.248-1.547-6.219-3.339s2.861-3.2,6.324-3.153c2.625.039,5.646,1.949,6.956,2.871a.574.574,0,0,1-.016.958C276.818,362.792,273.736,364.61,271.111,364.571Z" transform="translate(-264.892 -358.078)" fill="#cde4a7"/>
          </g>
        </g>
        <g id="grapefruit" transform="translate(205.305 169.438)">
          <path id="Path_1867" data-name="Path 1867" d="M66.832,127.883a67.947,67.947,0,0,1-47.257-18.728,62,62,0,0,1,0-90.427A67.947,67.947,0,0,1,66.832,0a67.947,67.947,0,0,1,47.257,18.728,62,62,0,0,1,0,90.427A67.947,67.947,0,0,1,66.832,127.883Zm0,0" fill="#ff9200"/>
          <path id="Path_1868" data-name="Path 1868" d="M303.257,18.728A67.947,67.947,0,0,0,256,0V127.883a67.947,67.947,0,0,0,47.257-18.728,62,62,0,0,0,0-90.427Zm0,0" transform="translate(-189.168)" fill="#f87d00"/>
          <path id="Path_1869" data-name="Path 1869" d="M89,30C56.467,30,30,55.323,30,86.448S56.467,142.9,89,142.9s59-25.323,59-56.448S121.533,30,89,30Zm0,0" transform="translate(-22.168 -22.507)" fill="#ffdecf"/>
          <path id="Path_1870" data-name="Path 1870" d="M256,30V142.9c32.533,0,59-25.323,59-56.448S288.533,30,256,30Zm0,0" transform="translate(-189.168 -22.507)" fill="#ffcebe"/>
          <path id="Path_1871" data-name="Path 1871" d="M61.784,214.041a3.951,3.951,0,0,1-3.393-1.87,36.743,36.743,0,0,1,0-38.141,4.014,4.014,0,0,1,5.348-1.368l31.127,17.193a3.667,3.667,0,0,1,0,6.489L63.739,213.539A4.038,4.038,0,0,1,61.784,214.041Zm0,0" transform="translate(-39.204 -129.159)" fill="#ed5469"/>
          <path id="Path_1872" data-name="Path 1872" d="M131.633,326.433a41.239,41.239,0,0,1-19.894-5.113,39.023,39.023,0,0,1-14.593-13.957,3.66,3.66,0,0,1,1.435-5.115l31.127-17.193a4.067,4.067,0,0,1,3.916,0,3.719,3.719,0,0,1,1.958,3.244v34.388a3.833,3.833,0,0,1-3.912,3.747Zm0,0" transform="translate(-71.398 -213.478)" fill="#ed5469"/>
          <g id="Group_452" data-name="Group 452" transform="translate(69.48 14.929)">
            <path id="Path_1873" data-name="Path 1873" d="M270.093,326.434h-.036a3.834,3.834,0,0,1-3.913-3.747V288.3a3.719,3.719,0,0,1,1.958-3.244,4.069,4.069,0,0,1,3.916,0l31.127,17.193a3.66,3.66,0,0,1,1.436,5.115,39.026,39.026,0,0,1-14.594,13.957A41.249,41.249,0,0,1,270.093,326.434Zm0,0" transform="translate(-266.145 -228.408)" fill="#e63850"/>
            <path id="Path_1874" data-name="Path 1874" d="M326.329,214.041a4.038,4.038,0,0,1-1.955-.5l-31.127-17.194a3.667,3.667,0,0,1,0-6.488l31.127-17.194a4.014,4.014,0,0,1,5.348,1.368,36.743,36.743,0,0,1,0,38.141A3.951,3.951,0,0,1,326.329,214.041Zm0,0" transform="translate(-284.725 -144.087)" fill="#e63850"/>
            <path id="Path_1875" data-name="Path 1875" d="M270.06,101.651a4.051,4.051,0,0,1-1.958-.5,3.719,3.719,0,0,1-1.958-3.244V63.516a3.834,3.834,0,0,1,3.913-3.747h.036a41.238,41.238,0,0,1,19.894,5.114A39.023,39.023,0,0,1,304.58,78.84a3.66,3.66,0,0,1-1.435,5.115l-31.127,17.193A4.051,4.051,0,0,1,270.06,101.651Zm0,0" transform="translate(-266.145 -59.77)" fill="#e63850"/>
          </g>
          <path id="Path_1876" data-name="Path 1876" d="M131.664,101.651a4.051,4.051,0,0,1-1.958-.5L98.579,83.955a3.66,3.66,0,0,1-1.436-5.115,39.025,39.025,0,0,1,14.594-13.957,41.235,41.235,0,0,1,19.894-5.114h.036a3.834,3.834,0,0,1,3.913,3.747V97.9a3.721,3.721,0,0,1-1.958,3.245A4.051,4.051,0,0,1,131.664,101.651Zm0,0" transform="translate(-71.396 -44.841)" fill="#ed5469"/>
        </g>
        <g id="carrot" transform="matrix(0.839, 0.545, -0.545, 0.839, 739.778, 140.038)">
          <path id="Path_1877" data-name="Path 1877" d="M0,8.7s40.909-24.347,65.9,8.4c0,0,6.5,7.428,1.238,14.769-5.18,7.218-16.388,5.93-21.829-1.5C40.4,23.667,28.413,15.272,0,8.7Z" transform="translate(115.756 64.002)" fill="#88c057"/>
          <path id="Path_1878" data-name="Path 1878" d="M32.481,68.288S57.866,28.7,26.72,6.33c0,0-10.246-9-19.737-5.535C-1.845,4.017-2.319,16.026,5.654,20.4,14.39,25.2,26.244,37.394,32.481,68.288Z" transform="translate(83.275 4.418)" fill="#88c057"/>
          <path id="Path_1879" data-name="Path 1879" d="M62.872,29.311s.214.272.494.649a20.281,20.281,0,0,0,2.448-2.519c7-8.727,1.667-15.265,1.667-15.265C47.827-17.359,0,16.122,0,16.122c2.267.109,4.386.266,6.435.437C20.02,11.457,45.35,6.351,62.872,29.311Z" transform="translate(117.894 53.859)" fill="#88c057"/>
          <path id="Path_1880" data-name="Path 1880" d="M9.166,10.748C33.193,28,23.582,55.491,17.932,67.163c0,.26.019.495.024.755,0,0,34.592-46.476,6.394-63.922,0,0-8.948-7.466-19.6-1.988A18.642,18.642,0,0,0,0,5.5,30.8,30.8,0,0,1,9.166,10.748Z" transform="translate(100.832 0)" fill="#a5cb81"/>
          <path id="Path_1881" data-name="Path 1881" d="M52.773,2.421C40.982-4.943,25.584,6.84,25.584,6.84a93.645,93.645,0,0,0-7.1,9.555C16.092,31.4,5.841,47.761.759,55.131.447,56.147.183,57.037,0,57.678c5.793-3.885,22.652-14.421,39.071-17.39a87.385,87.385,0,0,0,11.482-8.929C68.963,14.1,52.773,2.421,52.773,2.421Z" transform="translate(115.748 15.595)" fill="#659c35"/>
          <path id="Path_1882" data-name="Path 1882" d="M0,8.7s40.909-24.347,65.9,8.4c0,0,6.5,7.428,1.238,14.769-5.18,7.218-16.388,5.93-21.829-1.5C40.4,23.667,28.413,15.272,0,8.7Z" transform="translate(115.756 64.002)" fill="#a5cb81"/>
          <g id="Group_453" data-name="Group 453" transform="translate(0 45.879)">
            <path id="Path_1883" data-name="Path 1883" d="M1.6,0C.646,1.778,0,2.788,0,2.788S1.551,1.87,4.209.636C3.359.422,2.5.21,1.6,0Z" transform="translate(116.49 23.22)" fill="#f2681c"/>
            <path id="Path_1884" data-name="Path 1884" d="M138.734,43.956a18.736,18.736,0,0,0,.657-11.041,160.629,160.629,0,0,0-22.9-6.907A114.85,114.85,0,0,0,108.806,1.2a20.4,20.4,0,0,0-13.654-.036C80.223,6.692,13.165,100.107.322,132.467c-1.208,3.044,1.158,5.364,4.254,4.176C37.518,124.017,133.111,58.618,138.734,43.956Z" transform="translate(0 0)" fill="#ed8f20"/>
          </g>
          <g id="Group_458" data-name="Group 458" transform="translate(15.975 64.289)">
            <path id="Path_1885" data-name="Path 1885" d="M11.564,4.217a38.058,38.058,0,0,1-6.3-3.63,3.358,3.358,0,0,0-4.59.783,3.135,3.135,0,0,0,.613,4.481,44.053,44.053,0,0,0,7.337,4.227,3.256,3.256,0,0,0,1.405.287,3.449,3.449,0,0,0,3-1.89A3.1,3.1,0,0,0,11.564,4.217Z" transform="translate(0 83.309)" fill="#dd7017"/>
            <path id="Path_1886" data-name="Path 1886" d="M24.018,14.114C17.367,11.739,11.238,7.353,5.809,1.077A3.294,3.294,0,0,0,1.2.816,3.2,3.2,0,0,0,.745,5.36c6.133,7.088,13.137,12.074,20.818,14.818a3.293,3.293,0,0,0,1.162.189A3.45,3.45,0,0,0,25.83,18.23,3.091,3.091,0,0,0,24.018,14.114Z" transform="translate(90.097 10.148)" fill="#dd7017"/>
            <g id="Group_454" data-name="Group 454" transform="translate(56.805 0)">
              <path id="Path_1887" data-name="Path 1887" d="M3.976,0A3.069,3.069,0,0,1,6.37,2.7c.479,5.239,3.1,11.989,7.892,15.254a3.131,3.131,0,0,1,.695,4.469,3.439,3.439,0,0,1-2.707,1.415,3.2,3.2,0,0,1-1.875-.551C3.912,18.876.819,10.782,0,4.688" transform="translate(0 0)" fill="#dd7017"/>
              <path id="Path_1888" data-name="Path 1888" d="M10.374,23.285a3.183,3.183,0,0,0,1.875.551,3.439,3.439,0,0,0,2.707-1.415,3.134,3.134,0,0,0-.695-4.469C9.475,14.684,6.849,7.934,6.37,2.7A3.072,3.072,0,0,0,3.976,0C2.685,1.5,1.363,3.046,0,4.685.819,10.782,3.912,18.876,10.374,23.285Z" transform="translate(0 0)" fill="#dd7017"/>
            </g>
            <g id="Group_455" data-name="Group 455" transform="translate(65.332 44.165)">
              <path id="Path_1889" data-name="Path 1889" d="M19.209,15.273C13.037,14.413,4.982,11.371.561,5.127a3.24,3.24,0,0,1,.881-4.5,3.267,3.267,0,0,1,4.551.684c3.326,4.7,10.2,7.277,15.533,7.745a3.057,3.057,0,0,1,2.753,2.46" transform="translate(0 0.001)" fill="#dd7017"/>
              <path id="Path_1890" data-name="Path 1890" d="M21.528,9.057C16.191,8.588,9.318,6.011,5.995,1.311A3.264,3.264,0,0,0,1.444.627a3.233,3.233,0,0,0-.881,4.5c4.421,6.244,12.476,9.286,18.647,10.147q2.588-1.9,5.07-3.755A3.06,3.06,0,0,0,21.528,9.057Z" transform="translate(0.001 0)" fill="#dd7017"/>
            </g>
            <g id="Group_456" data-name="Group 456" transform="translate(30.173 34.182)">
              <path id="Path_1891" data-name="Path 1891" d="M3.827,0a3.061,3.061,0,0,1,2.46,2.7c.3,3.29,1.926,7.516,4.878,9.535a3.131,3.131,0,0,1,.695,4.469,3.444,3.444,0,0,1-2.707,1.415,3.2,3.2,0,0,1-1.875-.551C2.989,14.644.763,9.468,0,5.287" transform="translate(0 0)" fill="#dd7017"/>
              <path id="Path_1892" data-name="Path 1892" d="M7.278,17.571a3.183,3.183,0,0,0,1.875.551,3.444,3.444,0,0,0,2.707-1.415,3.134,3.134,0,0,0-.695-4.469C8.21,10.22,6.587,6,6.287,2.7A3.047,3.047,0,0,0,3.827,0Q1.913,2.619,0,5.287C.763,9.468,2.989,14.644,7.278,17.571Z" transform="translate(0.003 0)" fill="#dd7017"/>
            </g>
            <g id="Group_457" data-name="Group 457" transform="translate(29.17 75.038)">
              <path id="Path_1893" data-name="Path 1893" d="M14.444,12.458C10.01,11.977,3.875,9.814.562,5.13A3.239,3.239,0,0,1,1.44.629,3.262,3.262,0,0,1,5.99,1.31C8.047,4.211,12.346,5.8,15.7,6.1a3.082,3.082,0,0,1,2.827,3.491,2.861,2.861,0,0,1-.091.282" transform="translate(0.001 0)" fill="#dd7017"/>
              <path id="Path_1894" data-name="Path 1894" d="M15.7,6.1C12.348,5.8,8.045,4.209,5.992,1.311A3.259,3.259,0,0,0,1.441.63a3.235,3.235,0,0,0-.878,4.5c3.317,4.684,9.448,6.848,13.882,7.328,1.327-.853,2.658-1.719,3.989-2.585a2.855,2.855,0,0,0,.091-.282A3.083,3.083,0,0,0,15.7,6.1Z" transform="translate(0 0.002)" fill="#dd7017"/>
            </g>
          </g>
        </g>
        <g id="cucumber-1" transform="translate(149.861 227.566)">
          <ellipse id="Ellipse_401" data-name="Ellipse 401" cx="39.275" cy="37.577" rx="39.275" ry="37.577" transform="translate(0 0)" fill="#619f38"/>
          <ellipse id="Ellipse_402" data-name="Ellipse 402" cx="35.301" cy="33.774" rx="35.301" ry="33.774" transform="translate(3.975 3.803)" fill="#def7cd"/>
          <ellipse id="Ellipse_403" data-name="Ellipse 403" cx="21.86" cy="20.915" rx="21.86" ry="20.915" transform="translate(17.415 16.662)" fill="#f2ffdb"/>
          <g id="Group_460" data-name="Group 460" transform="translate(22.592 21.886)">
            <path id="Path_1900" data-name="Path 1900" d="M263.285,160.953l8.315-4.6a1.758,1.758,0,0,0,.523-2.752,16.951,16.951,0,0,0-9.466-5.254,1.892,1.892,0,0,0-2.249,1.8v9.206A1.924,1.924,0,0,0,263.285,160.953Z" transform="translate(-242.837 -148.315)" fill="#cde4a7"/>
            <path id="Path_1901" data-name="Path 1901" d="M182.14,159.353v-9.206a1.893,1.893,0,0,0-2.249-1.8,16.66,16.66,0,0,0-9.466,5.254,1.758,1.758,0,0,0,.523,2.752l8.315,4.6A1.924,1.924,0,0,0,182.14,159.353Z" transform="translate(-166.347 -148.316)" fill="#cde4a7"/>
            <path id="Path_1902" data-name="Path 1902" d="M279.659,219.04l8.315,4.6a1.952,1.952,0,0,0,2.772-.951,15.133,15.133,0,0,0,0-10.508,1.974,1.974,0,0,0-2.772-.951l-8.315,4.6A1.832,1.832,0,0,0,279.659,219.04Z" transform="translate(-258.322 -201.749)" fill="#cde4a7"/>
            <path id="Path_1903" data-name="Path 1903" d="M260.408,275.524v9.207a1.893,1.893,0,0,0,2.249,1.8,16.66,16.66,0,0,0,9.466-5.254,1.758,1.758,0,0,0-.523-2.752l-8.315-4.6A1.924,1.924,0,0,0,260.408,275.524Z" transform="translate(-242.836 -255.181)" fill="#cde4a7"/>
            <path id="Path_1904" data-name="Path 1904" d="M158.507,215.783l-8.315-4.6a1.952,1.952,0,0,0-2.772.951,15.132,15.132,0,0,0,0,10.508,1.974,1.974,0,0,0,2.772.951l8.315-4.6A1.832,1.832,0,0,0,158.507,215.783Z" transform="translate(-146.479 -201.694)" fill="#cde4a7"/>
            <path id="Path_1905" data-name="Path 1905" d="M179.263,273.924l-8.315,4.6a1.758,1.758,0,0,0-.523,2.752,16.951,16.951,0,0,0,9.466,5.254,1.892,1.892,0,0,0,2.249-1.8v-9.206A1.924,1.924,0,0,0,179.263,273.924Z" transform="translate(-166.346 -255.181)" fill="#cde4a7"/>
          </g>
        </g>
        <g id="apple" transform="translate(471.214 203.646)">
          <path id="Path_1712" data-name="Path 1712" d="M85.624,89.676c4.757-3.685,13.956-8.284,26.729-3.2,19.282,7.669,32.384,35.957,18.293,66.042s-33.373,30.392-39.059,28.7c-2.977-.885-5.485-1.826-7.2-2.521a6.23,6.23,0,0,0-4.807-.046c-1.715.7-4.268,1.662-7.312,2.568-5.686,1.691-24.968,1.384-39.059-28.7s-.989-58.373,18.294-66.042c12.773-5.08,21.972-.48,26.729,3.2l3.7,3.213Z" transform="translate(-27.3 -64.372)" fill="#f47c7c"/>
          <g id="Group_366" data-name="Group 366" transform="translate(0 19.85)">
            <path id="Path_1713" data-name="Path 1713" d="M57.424,152.514C43.7,123.2,55.778,95.6,74.24,87.11c-5.2-2.725-12.911-4.544-22.735-.637-19.282,7.669-32.384,35.957-18.294,66.042s33.373,30.392,39.059,28.7c3.044-.905,5.6-1.868,7.312-2.568.05-.02.1-.038.151-.057-7.2-3.7-15.384-11.288-22.31-26.076Z" transform="translate(-27.301 -84.222)" fill="#ee6161"/>
          </g>
          <g id="Group_367" data-name="Group 367" transform="translate(41.839 32.617)">
            <path id="Path_1714" data-name="Path 1714" d="M210.021,144.091a31.573,31.573,0,0,1-11.74-2.3,1.741,1.741,0,0,1-1-2.31,1.877,1.877,0,0,1,2.415-.954,27.581,27.581,0,0,0,20.887-.009,1.877,1.877,0,0,1,2.4.986,1.743,1.743,0,0,1-1.03,2.3A33.284,33.284,0,0,1,210.021,144.091Z" transform="translate(-197.142 -138.39)" fill="#ee6161"/>
          </g>
          <path id="Path_1715" data-name="Path 1715" d="M272.221,13.365H261.853V7.035A7.2,7.2,0,0,1,269.206,0h9.016a1.324,1.324,0,0,1,1.352,1.293V6.33A7.2,7.2,0,0,1,272.221,13.365Z" transform="translate(-204.073 0)" fill="#22b27f"/>
          <g id="Group_368" data-name="Group 368" transform="translate(46.697 0)">
            <path id="Path_1716" data-name="Path 1716" d="M228.492,35.933V15.626a22.768,22.768,0,0,0-2.593-10.5L223.634.791a1.527,1.527,0,0,0-2.006-.639l-3.935,1.884a1.4,1.4,0,0,0-.668,1.919l2.266,4.332a15.909,15.909,0,0,1,1.812,7.34V35.933h7.39Z" transform="translate(-216.866 0)" fill="#fdd79b"/>
          </g>
        </g>
        <g id="avocado" transform="translate(394.741 206.971)">
          <g id="Group_351" data-name="Group 351">
            <g id="Group_350" data-name="Group 350">
              <path id="Path_1701" data-name="Path 1701" d="M159.876,48.158C155.288,32.515,146.781,0,122.4,0,97.152,0,89.52,32.515,84.932,48.158c-5,17.041-26.845,77.069,37.472,77.069S164.873,65.2,159.876,48.158Z" transform="translate(-77.323)" fill="#a5cb81"/>
            </g>
          </g>
          <g id="Group_353" data-name="Group 353" transform="translate(10.171 9.503)">
            <g id="Group_352" data-name="Group 352">
              <path id="Path_1702" data-name="Path 1702" d="M150.852,143.83l-.087,0c-9.884.206-21.438-1.26-28.456-8.669-6.781-7.159-6.984-17.927-5.83-27.524,2.082-17.32,7.314-34.185,14.01-50.4,2.046-4.955,4.305-9.97,8.111-13.86s9.491-6.5,14.945-5.422c4.6.905,8.275,4.209,11.083,7.8,6.383,8.176,9.434,18.227,12.466,28.011,3.833,12.372,7.857,24.835,8.722,37.712.539,8.03-.4,16.713-5.8,22.886-7.052,8.065-18.9,9.241-29.164,9.46Z" transform="translate(-115.943 -37.713)" fill="#e3f18c"/>
            </g>
          </g>
          <g id="Group_355" data-name="Group 355" transform="translate(39.6 9.502)">
            <g id="Group_354" data-name="Group 354" transform="translate(0)">
              <path id="Path_1703" data-name="Path 1703" d="M268.132,111.483c-.865-12.877-4.888-25.34-8.722-37.712-3.032-9.784-6.082-19.835-12.466-28.011-2.808-3.6-6.488-6.9-11.083-7.8a14.053,14.053,0,0,0-6.576.34c3.982,1.223,7.226,4.221,9.759,7.465,6.383,8.176,9.434,18.227,12.466,28.011,3.833,12.372,7.857,24.835,8.722,37.712.539,8.03-.4,16.713-5.8,22.886-6.5,7.439-17.083,9.016-26.744,9.388,1.827.093,3.637.111,5.393.074l.087,0c10.269-.219,22.112-1.395,29.164-9.461,5.4-6.172,6.338-14.855,5.8-22.886Z" transform="translate(-227.689 -37.712)" fill="#d5e37d"/>
            </g>
          </g>
          <g id="Group_357" data-name="Group 357" transform="translate(26.839 56.59)">
            <g id="Group_356" data-name="Group 356">
              <ellipse id="Ellipse_397" data-name="Ellipse 397" cx="19.214" cy="22.238" rx="19.214" ry="22.238" fill="#dfa267"/>
            </g>
          </g>
          <g id="Group_359" data-name="Group 359" transform="translate(42.635 56.568)">
            <g id="Group_358" data-name="Group 358">
              <path id="Path_1704" data-name="Path 1704" d="M243.165,224.507a16.774,16.774,0,0,0-3.95.471c8.717,2.108,15.264,11.052,15.264,21.767s-6.548,19.658-15.264,21.767a16.773,16.773,0,0,0,3.95.471c10.612,0,19.214-9.956,19.214-22.238S253.777,224.507,243.165,224.507Z" transform="translate(-239.215 -224.507)" fill="#d49559"/>
            </g>
          </g>
        </g>
        <g id="lentils" transform="translate(608.256 274.069)">
          <path id="Path_1822" data-name="Path 1822" d="M172.338,242.209c4.7,6.1-1.551,9.771-10.342,12.906s-18.415,2.439-21.495-1.553,1.551-9.771,10.342-12.906,15.919-5.676,21.495,1.553Z" transform="translate(-109.532 -206.346)" fill="#c6814e"/>
          <path id="Path_1823" data-name="Path 1823" d="M227.417,317.2c10.085.63,11.22,6.2,10.313,12.917a13.233,13.233,0,0,1-13.6,11.424,11.124,11.124,0,0,1-10.313-12.917C214.725,321.9,215.461,316.451,227.417,317.2Z" transform="translate(-167.739 -274.297)" fill="#fdaa6a"/>
          <path id="Path_1824" data-name="Path 1824" d="M235.74,402.573c-.629-4.034-3.285-6.94-10.4-7.384-6.252-.39-9.435.914-11.18,3.208C215.508,409.061,229.2,411.737,235.74,402.573Z" transform="translate(-168.094 -340.884)" fill="#fcbc80"/>
          <path id="Path_1825" data-name="Path 1825" d="M348.134,153.153c4.527-6.16,12.565-4.857,21.446-1.84s13.677,8.732,10.713,12.765-12.565,4.857-21.446,1.84-16.08-5.462-10.713-12.765Z" transform="translate(-271.808 -130.577)" fill="#f0a567"/>
          <path id="Path_1826" data-name="Path 1826" d="M91.927,174.14c0,6.886-8.048,8.163-17.975,8.163s-17.975-3.655-17.975-8.163,8.048-8.163,17.975-8.163S91.927,165.977,91.927,174.14Z" transform="translate(-43.937 -145.251)" fill="#c6814e"/>
          <path id="Path_1827" data-name="Path 1827" d="M259.008,32.417c0,6.886-8.048,8.163-17.975,8.163s-17.975-3.655-17.975-8.163,8.048-8.163,17.975-8.163S259.008,24.254,259.008,32.417Z" transform="translate(-175.081 -24.254)" fill="#f0a567"/>
          <path id="Path_1828" data-name="Path 1828" d="M143.347,95.672c-5.15,5.929-13.035,4.247-21.583.815s-12.744-9.362-9.372-13.244,13.035-4.247,21.583-.815,15.478,6.214,9.372,13.244Z" transform="translate(-87.303 -71.912)" fill="#f0a567"/>
          <path id="Path_1829" data-name="Path 1829" d="M363.725,297.095c-5.15,5.929-13.035,4.247-21.583.815s-12.744-9.362-9.372-13.244,13.035-4.247,21.583-.815,15.478,6.215,9.372,13.244Z" transform="translate(-260.281 -243.878)" fill="#c6814e"/>
          <path id="Path_1830" data-name="Path 1830" d="M261.609,249.866c-6.266-5.41-1.105-9.8,6.694-13.975s17.448-4.69,21.55-1.148,1.105,9.8-6.694,13.975-14.122,7.561-21.55,1.148Z" transform="translate(-203.146 -201.951)" fill="#f0a567"/>
          <path id="Path_1831" data-name="Path 1831" d="M316.517,234.751c-3.654-3.155-11.705-3.089-18.933-.088-4.863,3.411-6.9,7.065-1.941,11.343,5.214,4.5,9.9,4.283,14.9,2.321C317.8,244.16,320.491,238.182,316.517,234.751Z" transform="translate(-229.811 -201.959)" fill="#fdaa6a"/>
          <path id="Path_1832" data-name="Path 1832" d="M355.206,232.415c-3.463,3.008-4.4,6.236-.118,9.929a14.655,14.655,0,0,0,5.927,3.292C368.168,239.3,365.37,232.5,355.206,232.415Z" transform="translate(-276.47 -201.973)" fill="#fcbc80"/>
          <path id="Path_1833" data-name="Path 1833" d="M32.624,254.544c4.819,6.057-1.365,9.783-10.1,13s-18.367,2.6-21.523-1.364,1.365-9.783,10.1-13S26.911,247.364,32.624,254.544Z" transform="translate(0 -216.945)" fill="#f0a567"/>
          <path id="Path_1834" data-name="Path 1834" d="M1.006,282.836c2.81,3.531,10.76,4.4,18.634,2.279,5.647-2.8,8.564-6.163,4.753-10.952-4.011-5.04-8.679-5.366-14.1-4.012C2.094,273.416-2.051,279,1.006,282.836Z" transform="translate(0 -233.605)" fill="#fdaa6a"/>
          <path id="Path_1835" data-name="Path 1835" d="M8.337,303.055c4.166-2.563,5.893-5.636,2.6-9.77a12.225,12.225,0,0,0-5.016-3.93C-2.71,294.766-1.658,301.8,8.337,303.055Z" transform="translate(-0.066 -250.586)" fill="#fcbc80"/>
          <path id="Path_1836" data-name="Path 1836" d="M133.335,82.186c-8.385-3.162-17.654-2.723-20.941,1.062-2.678,3.083-.578,7.457,4.681,10.847,7.046,2.351,13.388,2.8,17.76-2.23C138.808,87.289,137.258,84.513,133.335,82.186Z" transform="translate(-87.305 -71.917)" fill="#fdaa6a"/>
          <path id="Path_1837" data-name="Path 1837" d="M137.236,82.778q-.372-.249-.779-.491c-7.395-2.789-17.9-3.228-21.25,1.457a18.522,18.522,0,0,0,3.233,2.6C127.011,89.2,133.189,88.7,137.236,82.778Z" transform="translate(-90.427 -72.019)" fill="#fcbc80"/>
          <path id="Path_1838" data-name="Path 1838" d="M426.6,327.87c4.328-4.983,2.1-7.831-2.6-10.29-13.217-.643-16.589,7.716-6.094,14.212A11.221,11.221,0,0,0,426.6,327.87Z" transform="translate(-323.155 -274.653)" fill="#f0a567"/>
          <path id="Path_1839" data-name="Path 1839" d="M415.791,160.221a34.011,34.011,0,0,0,10.072,1.809c.1-3.652-4.406-7.854-11.586-10.293a44.678,44.678,0,0,0-10.336-2.451C401,155.2,407.7,157.472,415.791,160.221Z" transform="translate(-316.505 -131.001)" fill="#fcbc80"/>
          <path id="Path_1840" data-name="Path 1840" d="M276.773,24.254a36.861,36.861,0,0,0-7.589.763c-3,5.24,5.786,10.222,17.4,10.222a63.493,63.493,0,0,0,7.762-.4,7.016,7.016,0,0,0,.4-2.426C294.748,24.254,286.7,24.254,276.773,24.254Z" transform="translate(-210.821 -24.254)" fill="#fdaa6a"/>
          <path id="Path_1841" data-name="Path 1841" d="M336.021,32.352c-.074-7.168-6.457-7.944-14.843-8.028.01,4.019,6.416,7.355,14.843,8.028Z" transform="translate(-252.097 -24.314)" fill="#f7caa9"/>
          <path id="Path_1842" data-name="Path 1842" d="M123.874,262.913c0,6.886-8.048,8.163-17.975,8.163s-17.975-3.655-17.975-8.163,8.048-8.163,17.975-8.163S123.874,254.75,123.874,262.913Z" transform="translate(-69.013 -221.042)" fill="#f0a567"/>
          <path id="Path_1843" data-name="Path 1843" d="M141.639,254.75a36.862,36.862,0,0,0-7.589.763c-3,5.24,5.786,10.222,17.4,10.222a63.493,63.493,0,0,0,7.762-.4,7.016,7.016,0,0,0,.4-2.426C159.614,254.75,151.566,254.75,141.639,254.75Z" transform="translate(-104.753 -221.042)" fill="#fdaa6a"/>
          <path id="Path_1844" data-name="Path 1844" d="M200.887,262.848c-.074-7.168-6.457-7.944-14.843-8.028C186.054,258.839,192.46,262.175,200.887,262.848Z" transform="translate(-146.028 -221.101)" fill="#f7caa9"/>
          <path id="Path_1845" data-name="Path 1845" d="M225.853,138.226c-6.266-5.41-1.105-9.8,6.694-13.975s17.448-4.69,21.55-1.148,1.105,9.8-6.694,13.975S233.281,144.64,225.853,138.226Z" transform="translate(-175.081 -106.638)" fill="#fdaa6a"/>
          <path id="Path_1846" data-name="Path 1846" d="M280.761,123.111c-3.653-3.155-11.705-3.089-18.933-.088-4.863,3.411-6.9,7.065-1.941,11.343,5.214,4.5,9.9,4.283,14.9,2.321C282.048,132.52,284.735,126.542,280.761,123.111Z" transform="translate(-201.746 -106.646)" fill="#fcbc80"/>
          <path id="Path_1847" data-name="Path 1847" d="M319.553,120.775c-3.463,3.008-4.4,6.236-.118,9.929A14.655,14.655,0,0,0,325.362,134c7.153-6.332,4.355-13.14-5.809-13.221Z" transform="translate(-248.486 -106.659)" fill="#f7caa9"/>
        </g>
      </g>
    </g>
    <g id="Group_520" data-name="Group 520" transform="translate(-20 20)">
      <g transform="matrix(1, 0, 0, 1, 20, 1460)" filter="url(#Rectangle_214)">
        <rect id="Rectangle_214-2" data-name="Rectangle 214" width="580" height="220" rx="73" transform="translate(660 79.5)" fill="rgba(255,255,255,0.9)"/>
      </g>
      <text id="Hydrate_Have_a_glass_of_water_with_every_meal._Drink_Milk_Dairy_1-2_servings_day._Avoid_sugary_drinks_" data-name="Hydrate! 
Have a glass of water with every meal. 
Drink Milk/Dairy 1-2 servings/day. 
Avoid sugary drinks
" transform="translate(680 1561)" fill="#707070" stroke="rgba(112,112,112,0)" stroke-width="1" font-size="40" font-family="AppleGothic"><tspan x="220.32" y="36">Hydrate! </tspan><tspan font-size="30"><tspan x="30.87" y="76">Have a glass of water with every meal. </tspan><tspan x="61.8" y="113">Drink Milk/Dairy 1-2 servings/day. </tspan><tspan x="166.545" y="150">Avoid sugary drinks</tspan><tspan x="300" y="187"></tspan></tspan></text>
    </g>
    <g id="Group_522" data-name="Group 522" transform="translate(20 20)">
      <g transform="matrix(1, 0, 0, 1, -20, 1460)" filter="url(#Rectangle_213)">
        <rect id="Rectangle_213-2" data-name="Rectangle 213" width="580" height="220" rx="73" transform="translate(40 680)" fill="rgba(255,255,255,0.9)"/>
      </g>
      <text id="Whole_Grains_25_of_your_plate_Whole-wheat_bread_whole-grain_pasta_brown_rice_" data-name="Whole Grains!
25% of your plate
Whole-wheat bread, whole-grain pasta, brown rice 
" transform="translate(63 2174)" fill="#707070" stroke="rgba(112,112,112,0)" stroke-width="1" font-size="40" font-family="AppleGothic"><tspan x="129.7" y="36">Whole Grains!</tspan><tspan font-size="30"><tspan x="130.995" y="76">25% of your plate</tspan><tspan x="32.985" y="113">Whole-wheat bread, whole-grain </tspan><tspan x="139.275" y="150">pasta, brown rice </tspan></tspan></text>
    </g>
    <g id="Group_523" data-name="Group 523" transform="translate(300 -340)">
      <g transform="matrix(1, 0, 0, 1, -300, 1820)" filter="url(#Rectangle_215)">
        <rect id="Rectangle_215-2" data-name="Rectangle 215" width="580" height="217" rx="73" transform="translate(40 80)" fill="rgba(255,255,255,0.9)"/>
      </g>
      <text id="Lean_Protein_Fat_25_of_your_plate_Fish_chicken_beans_nuts_avocados_Avoid_bacon_red_meat_cheese_and_processed_meat._" data-name="Lean Protein &amp; Fat
25% of your plate
Fish, chicken, beans, nuts, avocados… 
Avoid bacon, red meat, cheese and processed meat. 

" transform="translate(-220 1920)" fill="#707070" stroke="rgba(112,112,112,0)" stroke-width="1" font-size="40" font-family="AppleGothic"><tspan x="77.28" y="36">Lean Protein &amp; Fat</tspan><tspan font-size="25"><tspan x="144.162" y="71">25% of your plate</tspan><tspan x="30.15" y="101">Fish, chicken, beans, nuts, avocados… </tspan><tspan x="48.225" y="131">Avoid bacon, red meat, cheese and </tspan><tspan x="154.35" y="161">processed meat. </tspan></tspan></text>
    </g>
    <g id="Group_521" data-name="Group 521" transform="translate(20 20)">
      <g transform="matrix(1, 0, 0, 1, -20, 1460)" filter="url(#Rectangle_216)">
        <rect id="Rectangle_216-2" data-name="Rectangle 216" width="560" height="220" rx="73" transform="translate(660 680)" fill="rgba(255,255,255,0.9)"/>
      </g>
      <text id="Fruits_and_Vegetables_50_of_your_plate_Greens_salad_lettuce_peppers_tomatoes_fruit_salad_etc._Aim_for_variety_Avoid_Potatoes_" data-name="Fruits and Vegetables
50% of your plate
Greens salad, lettuce, peppers, tomatoes, fruit salad, etc. Aim for variety!
Avoid Potatoes
" transform="translate(660 2174)" fill="#707070" stroke="rgba(112,112,112,0)" stroke-width="1" font-size="40" font-family="AppleGothic"><tspan x="63.16" y="36">Fruits and Vegetables</tspan><tspan font-size="25"><tspan x="154.162" y="71">50% of your plate</tspan><tspan x="22.775" y="101">Greens salad, lettuce, peppers, tomatoes, </tspan><tspan x="82.325" y="131">fruit salad, etc. Aim for variety!</tspan><tspan x="173.338" y="161">Avoid Potatoes</tspan></tspan></text>
    </g>
  </g>
</svg>
