<svg id="Layer_1" enable-background="new 0 0 508.451 508.451" height="512" viewBox="0 0 508.451 508.451" width="512" xmlns="http://www.w3.org/2000/svg"><path d="m291.998 269.484c21.869 41.701-7.21 66.812-48.085 88.248s-85.617 16.681-99.935-10.621 7.21-66.812 48.085-88.248 74.01-38.814 99.935 10.621z" fill="#c6814e"/><path d="m277.46 317.597c46.89 4.305 52.165 42.362 47.946 88.323-4.22 45.961-32.527 80.935-63.227 78.117-30.699-2.819-52.165-42.362-47.946-88.323s7.641-83.22 63.227-78.117z" fill="#fdaa6a"/><path d="m314.508 446.081c-2.925-27.584-15.275-47.453-48.374-50.492-29.067-2.669-43.866 6.251-51.978 21.938 6.285 72.922 69.936 91.217 100.352 28.554z" fill="#fcbc80"/><path d="m354.86 178.632c21.046-42.122 58.419-33.211 99.707-12.582s63.588 59.708 49.809 87.286-58.419 33.211-99.707 12.582-74.758-37.352-49.809-87.286z" fill="#f0a567"/><path d="m223.117 221.797c0 47.087-37.416 55.82-83.57 55.82s-83.57-24.991-83.57-55.82 37.416-55.82 83.57-55.82 83.57 0 83.57 55.82z" fill="#c6814e"/><path d="m390.198 80.074c0 47.087-37.416 55.82-83.57 55.82s-83.57-24.991-83.57-55.82 37.416-55.82 83.57-55.82 83.57 0 83.57 55.82z" fill="#f0a567"/><path d="m260.561 186.726c-23.944 40.545-60.601 29.039-100.343 5.57s-59.251-64.014-43.575-90.559 60.601-29.039 100.343-5.57 71.959 42.494 43.575 90.559z" fill="#f0a567"/><path d="m480.939 388.149c-23.944 40.545-60.601 29.039-100.343 5.57s-59.251-64.014-43.575-90.559 60.601-29.039 100.343-5.57c39.741 23.469 71.959 42.495 43.575 90.559z" fill="#c6814e"/><path d="m271.808 351.892c-29.132-36.994-5.139-67.003 31.121-95.558 36.261-28.555 81.118-32.069 100.191-7.849s5.139 67.003-31.121 95.558-65.656 51.703-100.191 7.849z" fill="#f0a567"/><path d="m403.12 248.485c-16.986-21.571-54.42-21.125-88.023-.602-22.611 23.326-32.059 48.307-9.023 77.56 24.243 30.786 46.01 29.284 69.271 15.871 33.757-28.492 46.25-69.368 27.775-92.829z" fill="#fdaa6a"/><path d="m366.062 232.415c-16.101 20.57-20.435 42.639-.548 67.892 9.485 12.045 18.59 19.129 27.555 22.51 33.257-43.296 20.248-89.849-27.007-90.402z" fill="#fcbc80"/><path d="m151.678 281.356c22.406 41.415-6.346 66.899-46.94 88.862s-85.394 17.786-100.064-9.329 6.346-66.899 46.94-88.862 73.502-39.766 100.064 9.329z" fill="#f0a567"/><path d="m4.674 360.889c13.065 24.148 50.028 30.084 86.634 15.583 26.253-19.135 39.818-42.142 22.1-74.89-18.646-34.465-40.351-36.692-65.557-27.436-38.115 22.328-57.387 60.479-43.177 86.743z" fill="#fdaa6a"/><path d="m38.454 383.036c19.369-17.527 27.398-38.536 12.103-66.807-7.295-13.484-15.061-22.016-23.319-26.874-40.145 36.999-35.255 85.089 11.216 93.681z" fill="#fcbc80"/><path d="m214.004 94.473c-38.983-21.624-82.076-18.621-97.362 7.263-12.451 21.084-2.689 50.991 21.761 74.168 32.758 16.076 62.246 19.169 82.571-15.249 18.476-31.287 11.27-50.269-6.97-66.182z" fill="#fdaa6a"/><path d="m217.624 97.829c-1.153-1.135-2.357-2.254-3.621-3.356-34.38-19.071-83.21-22.072-98.796 9.965 4.085 6.163 9.124 12.155 15.029 17.752 39.853 19.558 68.572 16.112 87.388-24.361z" fill="#fcbc80"/><path d="m480.939 388.149c20.121-34.072 9.785-53.551-12.093-70.365-61.451-4.397-77.127 52.759-28.332 97.179 15.558-.45 29.352-8.063 40.425-26.814z" fill="#f0a567"/><path d="m461.606 224.06c15.756 7.872 31.995 11.908 46.826 12.371.472-24.969-20.486-53.704-53.865-70.382-16.966-8.477-33.27-14.971-48.053-16.763-13.664 40.412 17.463 55.973 55.092 74.774z" fill="#fcbc80"/><path d="m306.628 24.254c-12.612 0-24.562 1.877-35.283 5.218-13.939 35.834 26.899 69.896 80.886 69.896 12.925 0 25.164-.687 36.089-2.707 1.221-4.92 1.879-10.417 1.879-16.587-.001-55.82-37.417-55.82-83.571-55.82z" fill="#fdaa6a"/><path d="m390.189 79.22c-.343-49.016-30.021-54.323-69.011-54.896.045 27.482 29.83 50.296 69.011 54.896z" fill="#f7caa9"/><path d="m255.064 310.57c0 47.087-37.416 55.82-83.57 55.82s-83.57-24.991-83.57-55.82 37.416-55.82 83.57-55.82 83.57 0 83.57 55.82z" fill="#f0a567"/><path d="m171.494 254.75c-12.612 0-24.562 1.877-35.283 5.218-13.939 35.834 26.899 69.896 80.886 69.896 12.925 0 25.164-.687 36.089-2.707 1.221-4.92 1.879-10.417 1.879-16.587-.001-55.82-37.417-55.82-83.571-55.82z" fill="#fdaa6a"/><path d="m255.055 309.716c-.343-49.016-30.021-54.323-69.011-54.896.045 27.482 29.83 50.296 69.011 54.896z" fill="#f7caa9"/><path d="m236.052 240.252c-29.132-36.994-5.139-67.003 31.121-95.558s81.118-32.069 100.191-7.849 5.139 67.003-31.121 95.558c-36.261 28.555-65.656 51.703-100.191 7.849z" fill="#fdaa6a"/><path d="m367.364 136.845c-16.986-21.571-54.42-21.125-88.023-.602-22.611 23.326-32.059 48.307-9.023 77.56 24.243 30.786 46.01 29.284 69.271 15.871 33.757-28.492 46.25-69.368 27.775-92.829z" fill="#fcbc80"/><path d="m330.409 120.775c-16.101 20.57-20.435 42.639-.548 67.892 9.485 12.045 18.59 19.129 27.555 22.51 33.257-43.295 20.248-89.849-27.007-90.402z" fill="#f7caa9"/></svg>