<svg id="Capa_1" enable-background="new 0 0 512 512" height="512" viewBox="0 0 512 512" width="512" xmlns="http://www.w3.org/2000/svg"><g><path d="m512 256c0 55.44-17.62 106.77-47.58 148.68-33.47 46.84-82.33 81.91-139.19 97.84-.53.15-1.07.3-1.61.45-1.83.5-3.67.98-5.52 1.43-1.56.4-3.13.77-4.7 1.13-1.91.44-3.83.86-5.76 1.25-6.61 1.36-13.32 2.46-20.11 3.29-3.38.42-6.79.77-10.21 1.04-7.03.6-14.14.89-21.32.89-17.11 0-33.84-1.68-50.01-4.89-41.17-8.15-78.8-26.18-110.3-51.51-58.35-46.92-95.69-118.9-95.69-199.6 0-13.25 1.01-26.27 2.95-38.98v-.01c3.94-25.77 11.72-50.29 22.76-72.93 14.91-30.65 35.77-57.87 61.07-80.18 17.51-15.43 37.14-28.51 58.41-38.73 33.53-16.13 71.11-25.17 110.81-25.17 46.42 0 89.96 12.36 127.5 33.97 22.7 13.05 43.2 29.49 60.82 48.62 42.01 45.61 67.68 106.51 67.68 173.41z" fill="#ffe239"/><g><path d="m338.83 413.05c-11.79 28.82-22.11 60.58-15.21 89.92-1.83.5-3.67.98-5.52 1.43-1.56.4-3.13.77-4.7 1.13-1.91.44-3.83.86-5.76 1.25-6.61 1.36-13.32 2.46-20.11 3.29-3.38.42-6.79.77-10.21 1.04-7.03.6-14.14.89-21.32.89-17.11 0-33.84-1.68-50.01-4.89-41.17-8.15-78.8-26.18-110.3-51.51-24.64-50.37 1.02-61.52-9.71-111.93-5.02-26.85-25.06-43.84-45.15-65.03-15.72-16.54-31.48-35.7-37.88-61.62v-.01c-1.71-6.9-2.75-14.29-2.95-22.23-.03-35.96 11.44-47.01 25.71-50.7 15.43-3.98 34.15.64 45.15-8.34 10.84-8.09 9.64-36.55 14.31-63.37.47-2.85 1-5.69 1.61-8.47 5.14-23.35 15.87-43.39 39.88-43.38 7.21.02 13.31 1.71 18.53 4.65 32.65 18.29 31.29 84.68 54.79 90.58 25.65 5.84 62.32-27.49 85.11 19.24 11.86 22.7 5.07 44.17-1.27 65.8-6.37 21.36-12.29 42.87.82 59.21 26.96 32 50.5 13.28 73.2 54.16 15.37 25.99-3.13 59.8-19.01 98.89z" fill="#649b54"/><g><path d="m318.1 504.4c-1.56.4-3.13.77-4.7 1.13-1.91.44-3.83.86-5.76 1.25-13.15-13.86-25.63-28.3-37.46-43.23-29.09-36.82-54.13-76.66-74.72-118.64-20.59-41.97-36.75-86.09-48.05-131.48-5.62-22.7-10.05-45.71-13.13-68.94-1.53-11.61-2.76-23.27-3.61-34.97-.86-11.7-1.34-23.43-1.4-35.19 1.91 11.6 3.96 23.12 6.15 34.56 2.21 11.45 4.57 22.82 7.16 34.11 5.15 22.58 11.08 44.87 17.86 66.81 13.51 43.91 30.37 86.49 50.5 127.5 20.15 41.02 43.55 80.46 70.11 118.12 11.73 16.67 24.1 32.99 37.05 48.97z" fill="#528442"/></g><g><path d="m72.613 209.398c4.258 1.305 8.456 2.837 12.637 4.411 4.184 1.562 8.338 3.228 12.487 4.89 8.291 3.359 16.521 6.889 24.727 10.433 16.411 7.106 32.687 14.47 48.922 21.727-3.223 1.097-6.445 2.194-9.667 3.291 4.174-7.92 8.605-15.595 13.28-23.022 4.678-7.425 9.584-14.613 14.775-21.501 5.183-6.894 10.592-13.542 16.304-19.856 2.868-3.145 5.78-6.239 8.803-9.213 3.015-2.984 6.102-5.884 9.371-8.597-1.734 4.168-3.598 8.214-5.481 12.242-1.874 4.037-3.806 8.02-5.728 12.016-3.867 7.97-7.822 15.871-11.776 23.788-3.947 7.924-7.955 15.81-11.956 23.717-4.006 7.906-8.02 15.822-12.047 23.747-1.055 2.076-2.102 4.16-3.139 6.253-2.15-.899-4.299-1.811-6.447-2.734-16.446-7.071-32.735-15.457-48.675-25.53-7.967-5.045-15.856-10.461-23.612-16.403-3.874-2.988-7.726-6.062-11.526-9.327-3.804-3.252-7.572-6.636-11.252-10.332z" fill="#528442"/></g><g><path d="m127.152 363.153c4.428.436 8.84 1.106 13.245 1.822 4.406.703 8.803 1.513 13.193 2.322 8.78 1.652 17.538 3.487 26.275 5.343 17.475 3.729 34.874 7.747 52.218 11.683-2.945 1.708-5.889 3.415-8.834 5.123 2.539-8.587 5.38-16.98 8.509-25.176 3.132-8.194 6.537-16.2 10.28-23.963 3.735-7.768 7.74-15.338 12.107-22.639 2.199-3.642 4.449-7.24 6.833-10.743 2.373-3.511 4.834-6.953 7.51-10.25-.888 4.417-1.927 8.737-2.987 13.048-1.05 4.316-2.168 8.594-3.271 12.883-2.235 8.561-4.569 17.074-6.896 25.608-2.319 8.537-4.703 17.055-7.076 25.596-2.376 8.539-4.758 17.094-7.148 25.663-.626 2.244-1.242 4.496-1.848 6.754-2.286-.462-4.573-.937-6.862-1.423-17.522-3.722-35.141-8.755-52.739-15.492-8.797-3.378-17.59-7.129-26.353-11.418-4.381-2.162-8.756-4.411-13.117-6.855-4.36-2.434-8.712-4.999-13.039-7.886z" fill="#528442"/></g></g><g><path d="m499.75 211.53c-2.22 25.51-19.5 39.95-36.49 54.77-16.86 14.57-33.43 29.52-31.17 50.35 5.49 41.48 35.42 38.37 32.54 85.04-.03 1.01-.1 2-.21 2.99-33.79 47.28-83.25 82.57-140.8 98.29-11.72 3.2-23.77 5.59-36.09 7.1-3.38.42-6.79.77-10.21 1.04-12.24-8.51-25.39-16.39-38.38-24.61-37.66-23.75-73.85-50.31-72.26-96.36 3.99-66.74 33.8-58.83 52.95-109.9 10.21-25.33 2.47-50.43-3.06-79.1-5.51-28.38-8.81-60.33 10.73-92.66 40.24-63.13 64.35-8.44 91.49-11.62 13.49-.98 27.8-25.61 46.17-45.7 5.8-6.48 12.02-12.5 18.54-17.19 13.81-9.95 28.96-14.02 44.34-4.19 18.92 12.16 19.93 32.24 16.48 52.81-4.56 27.21-16.94 55.27-5.95 66.91 18.48 18.73 67.33 10.38 61.38 62.03z" fill="#7bb56d"/><path d="m428.58 209.94c-3.71 2.58-7.46 4.99-11.21 7.37-3.75 2.39-7.53 4.71-11.3 7.04-7.55 4.64-15.13 9.17-22.72 13.71-7.6 4.56-15.22 9.05-22.85 13.56-6.49 3.83-13 7.67-19.52 11.51-5.42 26.16-9.64 52.51-12.61 79.01-1.45 12.93-2.6 25.89-3.47 38.88 2.15-1.68 4.32-3.34 6.5-4.96 7.05-5.22 14.23-10.13 21.56-14.66 7.33-4.54 14.78-8.76 22.39-12.56 3.81-1.89 7.65-3.71 11.54-5.38 3.89-1.68 7.82-3.26 11.85-4.6-3.13 3.25-6.33 6.33-9.54 9.39-3.21 3.07-6.45 6.08-9.69 9.1-6.49 6.01-13.04 11.93-19.6 17.87-6.55 5.95-13.14 11.84-19.74 17.76-5.54 4.97-11.09 9.95-16.65 14.94-.85 23.76-.74 47.6.36 71.5.35 7.7.8 15.4 1.35 23.1-.53.15-1.07.3-1.61.45-3.38.92-6.79 1.78-10.22 2.56-1.18-8.35-2.2-16.73-3.05-25.11-2.44-24.25-3.51-48.59-3.26-72.89-11.65-11.74-22.76-24.46-33.07-38.4-5.6-7.58-10.99-15.48-16.07-23.81-2.53-4.18-5-8.43-7.36-12.84-2.37-4.39-4.66-8.9-6.75-13.66 3.5 2.75 6.85 5.69 10.18 8.67 3.34 2.96 6.61 6.01 9.87 9.05 6.51 6.12 12.91 12.38 19.27 18.65 8.34 8.22 16.58 16.54 24.8 24.86.69-13.31 1.77-26.6 3.27-39.84 3.05-27.12 7.79-54.04 14.16-80.57-9.2-13.86-17.66-28.59-25.08-44.4-4-8.54-7.73-17.35-11.07-26.53-1.66-4.61-3.25-9.27-4.69-14.07-1.46-4.78-2.81-9.66-3.93-14.76 2.89 3.39 5.6 6.94 8.28 10.52 2.69 3.57 5.29 7.21 7.89 10.84 5.18 7.3 10.22 14.7 15.23 22.1 6.81 10.08 13.49 20.23 20.15 30.36 2.87-10.12 5.97-20.18 9.33-30.16 7.48-22.16 16.13-43.94 26.03-65.17 4.96-10.61 10.2-21.1 15.79-31.42 5.56-10.32 11.48-20.47 17.75-30.41-4.63 10.8-9.1 21.61-13.42 32.44-4.3 10.83-8.43 21.69-12.32 32.6-7.81 21.8-14.81 43.77-20.91 65.92-2.75 9.96-5.32 19.95-7.71 29.98 2.83-1.43 5.66-2.84 8.51-4.18 7.94-3.74 15.94-7.16 24.03-10.17 8.08-3.02 16.21-5.71 24.42-7.96 4.11-1.11 8.23-2.15 12.38-3.03 4.15-.89 8.31-1.67 12.53-2.2z" fill="#649b54"/></g></g></svg>