<?xml version="1.0" encoding="iso-8859-1"?>
<!-- Generator: Adobe Illustrator 19.0.0, SVG Export Plug-In . SVG Version: 6.00 Build 0)  -->
<svg version="1.1" id="Capa_1" xmlns="http://www.w3.org/2000/svg" xmlns:xlink="http://www.w3.org/1999/xlink" x="0px" y="0px"
	 viewBox="0 0 512.001 512.001" style="enable-background:new 0 0 512.001 512.001;" xml:space="preserve">
<g>
	<path style="fill:#F7EAB7;" d="M16.643,197.521l-1.2,1.034v292.679c0,11.47,9.299,20.767,20.768,20.767h439.578
		c11.469,0,20.768-9.298,20.768-20.767V197.521H16.643z"/>
	<path style="fill:#F7EAB7;" d="M309.816,37.723L309.816,37.723L274.109,6.969l-0.002-0.001c-18.204-15.677-36.216,0-36.216,0
		L15.442,198.554h34.461h71.256h375.398L309.816,37.723z"/>
</g>
<g>
	<path style="fill:#E8CDA0;" d="M269.625,3.726c-16.565-9.94-31.734,3.243-31.734,3.243L15.442,198.554h26.84
		C283.213-8.949,265.194,6.12,269.625,3.726z"/>
	<path style="fill:#E8CDA0;" d="M36.089,491.234V197.521H16.643l-1.2,1.034v292.679c0,11.47,9.299,20.767,20.768,20.767h20.646
		C45.388,512.001,36.089,502.703,36.089,491.234z"/>
	<path style="fill:#E8CDA0;" d="M222.751,376.067L256,401.779c43.023-33.273,1.835,1.341,240.558-204.258
		c-3.499,0-373.616,0-377.181,0H16.643l-0.6,0.517L222.751,376.067z"/>
</g>
<path style="fill:#EA473B;" d="M408.735,273.158c25.14-47.067,44.365-109.954,19.035-171.586
	c-17.056-41.499-64.519-61.316-106.022-44.26c-28.042,11.525-46.152,36.933-49.706,65.001h-0.009c0,0-2.059,6.9-7.625,9.188
	c-5.569,2.289-11.892-1.166-11.892-1.166l-0.006,0.007c-22.264-17.458-53.005-22.791-81.041-11.269
	c-41.503,17.056-61.315,64.522-44.259,106.022C164.049,314.73,269.76,340.004,322.881,347.1L408.735,273.158z"/>
<path style="fill:#D63322;" d="M147.857,225.094c-20.252-49.274,11.684-104.603,64.749-111.459
	c-61.422-7.917-109.119,53.736-85.395,111.459c36.839,89.635,142.55,114.909,195.671,122.005l3.178-2.737
	C269.874,334.277,180.999,305.733,147.857,225.094z"/>
<path style="fill:#C16B3D;" d="M273.623,366.584c-6.329,0-12.205,3.428-15.363,8.978c-0.172,0.198-1.091,1.181-2.261,1.181
	c-0.958,0-1.895-0.726-2.291-1.214c-3.129-5.517-9.006-8.945-15.336-8.945c-9.718,0-17.624,7.907-17.624,17.626
	c0,26.35,31.797,43.186,35.244,43.186c0.804,0,1.608-0.188,2.345-0.564C301.086,405.036,297.516,366.584,273.623,366.584z"/>
<path style="fill:#AF5127;" d="M241.395,384.211c0-5.864,2.889-11.054,7.307-14.26c-2.962-2.145-6.562-3.366-10.329-3.366
	c-9.718,0-17.624,7.907-17.624,17.626c0,26.35,31.797,43.186,35.244,43.186c0.804,0,1.608-0.188,2.345-0.564
	c1.848-0.942,4.7-2.508,7.964-4.663C255.93,415.336,241.395,402.495,241.395,384.211z"/>
<path style="fill:#D1B080;" d="M16.043,198.038l20.107,17.318c0-13.897,7.332-17.834,7.332-17.834l-0.001-0.001H16.643
	L16.043,198.038z"/>
<g>
</g>
<g>
</g>
<g>
</g>
<g>
</g>
<g>
</g>
<g>
</g>
<g>
</g>
<g>
</g>
<g>
</g>
<g>
</g>
<g>
</g>
<g>
</g>
<g>
</g>
<g>
</g>
<g>
</g>
</svg>
