<svg id="Capa_1" enable-background="new 0 0 512 512" height="512" viewBox="0 0 512 512" width="512" xmlns="http://www.w3.org/2000/svg"><g><path d="m474.792 0h-218.792l-20.016 50.016 238.808-20.016z" fill="#04303e"/><path d="m37.208 0v30l218.792 20.016v-50.016z" fill="#09607d"/><path d="m474.792 30h-218.792l-20.016 411.944 238.808-20.016z" fill="#7ed8f6"/><path d="m37.208 30v391.928l218.792 20.016v-411.944z" fill="#9bfbff"/><path d="m349.282 232.671c24.784-24.784 24.784-64.966 0-89.75-24.784-24.783-64.966-24.783-89.75 0l-3.532 3.532-23.195 78.69 23.195 100.81z" fill="#d10050"/><path d="m162.718 142.921c-24.784 24.784-24.784 64.967 0 89.75l93.282 93.282v-179.5l-3.532-3.532c-24.784-24.784-64.966-24.784-89.75 0z" fill="#ff415b"/><path d="m474.792 512v-90.072h-218.792l-20.016 45.036 20.016 45.036z" fill="#04303e"/><path d="m37.208 421.928h218.792v90.072h-218.792z" fill="#09607d"/><path d="m241 451.964h30v30h-30z" fill="#cde1e6"/></g></svg>