<svg id="Layer_1" enable-background="new 0 0 512 512" height="512" viewBox="0 0 512 512" width="512" xmlns="http://www.w3.org/2000/svg"><g id="Flat"><path d="m488 399.3c0 16.1-13.1 29.2-29.2 29.2-1.1 0-2.2-.1-3.2-.2l-183.6-20.3h-32l-183.5 20.4c-1.1.1-2.2.2-3.3.2-16.2-.1-29.2-13.2-29.2-29.3 0-13.6 9.5-25.4 22.8-28.5l153.2-34.8 5.3-16 10.7-32-8-48h96l-8 48 10.7 32 5.3 16 153.2 34.8c13.4 3.1 22.8 14.9 22.8 28.5z" fill="#fec093"/><path d="m488 399.3c0 16.1-13.1 29.2-29.2 29.2-1.1 0-2.2-.1-3.2-.2l-173.2-19.2-10.4-1.1h-32l-10.5 1.2-173 19.2c-1.1.1-2.2.2-3.3.2-16.2-.1-29.2-13.2-29.2-29.3 0-13.6 9.5-25.4 22.8-28.5l153.2-34.8 5.3-16h101.3l5.3 16 153.2 34.8c13.5 3.1 22.9 14.9 22.9 28.5z" fill="#b03b8d"/><path d="m250.7 408h-10.7l-10.5 1.2-13.6-13.9c-3.1-3.2-3-8.2.1-11.3 3.2-3.1 8.2-3 11.3.1z" fill="#a33484"/><path d="m296.1 395.3-13.7 13.8-10.4-1.1h-11l23.7-23.9c3.1-3.1 8.2-3.2 11.3-.1 3.1 3.1 3.2 8.2.1 11.3z" fill="#a33484"/><path d="m488 401.9c0 17-13 31.2-30 32.6l-86.7 7.2-75.3 6.3-12.4 31c-2.2 5.4-7.4 9-13.3 9-7.9 0-14.3-6.4-14.3-14.3v-65.7h40l67.6-16.9 83.8-21c17.5-4.4 35.3 6.3 39.7 23.8.6 2.7.9 5.3.9 8z" fill="#feb784"/><path d="m488 401.9c0 17-13 31.2-30 32.6l-86.7 7.2-7.8-50.6 83.8-21c17.5-4.4 35.3 6.3 39.7 23.8.7 2.7 1 5.3 1 8z" fill="#bc4598"/><path d="m24 401.9c0 17 13 31.2 30 32.6l86.7 7.2 75.3 6.3 12.4 31c2.2 5.4 7.4 9 13.3 9 7.9 0 14.3-6.4 14.3-14.3v-65.7h-40l-67.6-16.9-83.8-20.9c-17.5-4.4-35.3 6.3-39.7 23.8-.6 2.6-.9 5.2-.9 7.9z" fill="#feb784"/><path d="m24 401.9c0 17 13 31.2 30 32.6l86.7 7.2 7.8-50.6-83.8-20.9c-17.5-4.4-35.3 6.3-39.7 23.8-.7 2.6-1 5.2-1 7.9z" fill="#bc4598"/><path d="m352 184v104l-8 120-8 64h-40l16-64v-208l-16 56h-80l-16-56v208l16 64h-40l-8-64-8-120v-104c0-13.3 10.7-24 24-24h44c4.4 0 8-3.6 8-8v-40h40v40c0 4.4 3.6 8 8 8h44c13.3 0 24 10.7 24 24z" fill="#fec093"/><path d="m276 112v24.6c-11.5 9.9-28.5 9.9-40 0v-24.6z" fill="#f7b488"/><path d="m304.8 203.4-8.8-43.4h-8l-8.6 17.2c-3.7 7.6-10.8 12.9-19.1 14.4-11.2 1.9-22.4-3.8-27.5-14l-8.8-17.6h-8l-8.8 43.4-4.1 6.4c-9.6 15.1-5.1 35.1 10 44.6.9.6 1.9 1.1 2.8 1.6h80c16-8 22.4-27.4 14.5-43.4-.5-1-1-1.9-1.6-2.8z" fill="#c378cb"/><path d="m272 32v32h24v32c0 17.7 14.3 32 32 32v-64c0-17.7-14.3-32-32-32z" fill="#61311c"/><path d="m220 96h12v-24h-12c-6.6 0-12 5.4-12 12 0 6.6 5.4 12 12 12z" fill="#feb784"/><path d="m292 72h-12v24h12c6.6 0 12-5.4 12-12 0-6.6-5.4-12-12-12z" fill="#feb784"/><path d="m256 128c-14.1 0-26.4-9.6-29.8-23.3l-1-3.8c-.8-3.3-1.2-6.6-1.2-9.9v-19c0-17.7 14.3-32 32-32 17.7 0 32 14.3 32 32v19c0 3.4-.4 6.7-1.2 9.9l-1 3.8c-3.4 13.7-15.7 23.3-29.8 23.3z" fill="#fec093"/><path d="m264 48s8 16 29.8 37.2c1.5-7 2.2-14 2.2-21.2 0-22.1-17.9-40-40-40-22.1 0-40 17.9-40 40 0 4.1.3 8.2.8 12.3 12.3-4.5 29.8-6.4 47.2-28.3z" fill="#6e3c26"/><path d="m248 288h16v32h-16z" fill="#f7b488"/><path d="m248 408h16v56c0 4.4-3.6 8-8 8-4.4 0-8-3.6-8-8z" fill="#f5a76e"/></g></svg>