<svg xmlns="http://www.w3.org/2000/svg" width="1280" height="1380" viewBox="0 0 1280 1380">
  <g id="Group_476" data-name="Group 476" transform="translate(0 -180)">
    <g id="more-questions-block" transform="translate(0 -1474)">
      <g id="more-questions" transform="translate(0 1654)" fill="#9a9ef8" stroke="rgba(112,112,112,0)" stroke-width="1">
        <rect width="1280" height="1380" stroke="none"/>
        <rect x="0.5" y="0.5" width="1279" height="1379" fill="none"/>
      </g>
    </g>
    <g id="meditation" transform="translate(392 440)">
      <path id="Path_1913" data-name="Path 1913" d="M275.6,27.59V48.76h-55.18V27.59a27.59,27.59,0,1,1,55.18,0Z" fill="#6d6d6d"/>
      <path id="Path_1914" data-name="Path 1914" d="M441.114,445.84A50.155,50.155,0,0,1,390.954,496H105.074c-40.009,0-63.542-44.46-42.06-77.49A50.007,50.007,0,0,1,84.694,400l94.35-27.59h137.94L411.334,400A50.173,50.173,0,0,1,441.114,445.84Z" fill="#5fc68f"/>
      <path id="Path_1915" data-name="Path 1915" d="M440.754,439.87a50.16,50.16,0,0,1-49.8,44.13,22.941,22.941,0,0,1-22.94-22.94v-20.9l16-8-99,14.142a42.049,42.049,0,0,1-24.753-4.017c-13.855-6.927-27.308-6.6-39.057-.722a42.049,42.049,0,0,1-27.617,3.506L96.014,424.16l32,16v20.9A22.941,22.941,0,0,1,105.074,484a50.162,50.162,0,0,1-49.8-44.13A50.156,50.156,0,0,1,84.694,400l94.35-27.59h137.94L411.334,400a50.154,50.154,0,0,1,29.42,39.87Z" fill="#7adbae"/>
      <g id="Group_463" data-name="Group 463">
        <path id="Path_1916" data-name="Path 1916" d="M341.274,199.29c-14.661,78.458-24.29,50.662-24.29,173.12H179.044c0-123.016-9.467-93.793-24.29-173.12l38.36-17.43c14.916-3.379,18.848-2.55,87.23-2.55A103.467,103.467,0,0,1,303,181.82c42.094,18.887,37.749,16.8,38.27,17.47Z" fill="#b3cec9"/>
        <path id="Path_1917" data-name="Path 1917" d="M178.614,331.04l-2.63-41.38C177.274,300,178.134,312.83,178.614,331.04Z" fill="#b3cec9"/>
        <path id="Path_1918" data-name="Path 1918" d="M320.044,289.66l-2.63,41.38C317.894,312.83,318.754,300,320.044,289.66Z" fill="#b3cec9"/>
      </g>
      <path id="Path_1919" data-name="Path 1919" d="M328.014,196.449c-10.142,54.276-18.825,50.7-20.468,113.017a36.091,36.091,0,0,1-36.082,35.488h-46.9a36.1,36.1,0,0,1-36.075-35.193c-1.616-62.558-10.453-59.68-20.475-113.312L200.92,181.5c12.793-2.9,16.161-2.187,74.827-2.187a88.757,88.757,0,0,1,19.438,2.153c36.115,16.205,32.382,14.415,32.829,14.986Z" fill="#cae0dd"/>
      <path id="Path_1920" data-name="Path 1920" d="M188.482,309.467l-2.256-35.5C187.332,282.84,188.07,293.846,188.482,309.467Z" fill="#cae0dd"/>
      <path id="Path_1921" data-name="Path 1921" d="M309.8,273.97l-2.256,35.5C307.958,293.846,308.7,282.84,309.8,273.97Z" fill="#cae0dd"/>
      <path id="Path_1922" data-name="Path 1922" d="M382.894,331.04H261.8a13.793,13.793,0,0,1-13.79-13.8V234.48a22.909,22.909,0,0,1,8,.77c24,6.95,24,54.41,24,54.41h70.48c-18.617-23.7-21.712-27.648-53.96-68.73A24.4,24.4,0,0,1,303,181.82a103.434,103.434,0,0,1,37.91,17.01c.561.717,64.811,81.056,65.91,82.43,15.866,19.843,1.877,49.78-23.93,49.78Z" fill="#f9cfac"/>
      <path id="Path_1923" data-name="Path 1923" d="M248.014,234.48v82.76a13.793,13.793,0,0,1-13.79,13.8H113.134c-25.651,0-39.9-29.8-23.93-49.78l65.55-81.97a103.894,103.894,0,0,1,38.36-17.43,24.4,24.4,0,0,1,6.38,39.07c-23.761,30.27-33.65,42.872-53.96,68.73h70.48s0-47.46,24-54.41a22.909,22.909,0,0,1,8-.77Z" fill="#f9cfac"/>
      <path id="Path_1924" data-name="Path 1924" d="M411.074,312.42a30.369,30.369,0,0,1-20.18,7.62H269.8a13.793,13.793,0,0,1-13.79-13.8V234.48c32-2.32,32,55.18,32,55.18h70.48a31.816,31.816,0,0,0-6.794-19.651c-21.775-27.729-11.175-14.227-47.166-60.079-4.139-4.139-6.51-10.14-6.51-11.74a24.386,24.386,0,0,1,10.5-14.97,103.192,103.192,0,0,1,32.39,15.61c.561.717,64.811,81.056,65.91,82.43A30.641,30.641,0,0,1,411.074,312.42Z" fill="#ffe4cc"/>
      <path id="Path_1925" data-name="Path 1925" d="M240.014,234.48v71.76a13.793,13.793,0,0,1-13.79,13.8H105.134a30.369,30.369,0,0,1-20.18-7.62,30.642,30.642,0,0,1,4.25-31.16c68.673-85.883,65.421-81.877,65.78-82.14a102.244,102.244,0,0,1,32.6-15.84A24.319,24.319,0,0,1,198,198.19a24.216,24.216,0,0,1-6.51,11.74c-.084.107-47.267,60.206-47.166,60.079a31.816,31.816,0,0,0-6.794,19.651h70.48s0-57.5,32-55.18Z" fill="#ffe4cc"/>
      <path id="Path_1926" data-name="Path 1926" d="M303.184,91.54c0,28.556-9.275,46.165-17.34,64.48C272.2,187,223.815,187,210.184,156.02l-7.1-16.11c-9.379-21.367-11.5-44.138-9.66-55.69,3.858-23.957,26.524-42.84,54.59-42.84,30.278,0,55.17,22.257,55.17,50.16Z" fill="#f9cfac"/>
      <path id="Path_1927" data-name="Path 1927" d="M302.6,84.21c-2.1,21.714-8.967,35.112-16.76,52.81-13.643,30.984-62.019,30.98-75.66,0-8.121-18.443-14.6-30.928-16.76-52.8,6.454-40.084,61.157-57.647,93.61-28.15A48.5,48.5,0,0,1,302.6,84.21Z" fill="#ffe4cc"/>
      <path id="Path_1928" data-name="Path 1928" d="M303.024,87.75c-54.7-22.71-55.34,39.51-110.07,8.94-.07-1.71-.11-3.43-.11-5.15,0-27.874,24.861-50.16,55.17-50.16C276.672,41.38,300.871,61.431,303.024,87.75Z" fill="#6d6d6d"/>
      <path id="Path_1929" data-name="Path 1929" d="M206.634,461.52c-30.544,15.272-33.486,15.605-37.87,22.48a22.251,22.251,0,0,0-3.51,12h-27.59V444.28l68.97,17.24Z" fill="#f9cfac"/>
      <path id="Path_1930" data-name="Path 1930" d="M358.364,444.28V496H165.254a22.345,22.345,0,0,1,12.34-19.96c34.89-17.445,25.4-12.093,42.94-23.79,14.279-9.508,34.7-3.612,40.41,13.55l.86,2.61Z" fill="#f9cfac"/>
      <path id="Path_1931" data-name="Path 1931" d="M190.634,457.52c-13.878,6.939-16.229,7.631-19.871,11.8-8.6,9.854-19.431,14.678-33.1,14.678V444.28Z" fill="#ffe4cc"/>
      <path id="Path_1932" data-name="Path 1932" d="M358.364,444.28V484h-178.9a4.2,4.2,0,0,1-1.872-7.96c34.89-17.445,25.4-12.093,42.94-23.79,14.279-9.508,34.7-3.612,40.41,13.55l.86,2.61Z" fill="#ffe4cc"/>
      <path id="Path_1933" data-name="Path 1933" d="M291.334,60.46c-16.441,13.854-65.856,15.887-89.39,3.46C222.658,35.464,267.889,33.285,291.334,60.46Z" fill="#797a7a"/>
      <path id="Path_1934" data-name="Path 1934" d="M275.6,28.65c-16.484,4.84-38.855,4.718-55.18-.62,0-25.542,30.026-36.976,47.11-19.96C272.85,13.407,275.6,20.078,275.6,28.65Z" fill="#797a7a"/>
    </g>
  </g>
</svg>
