<svg xmlns="http://www.w3.org/2000/svg" width="200" height="200" viewBox="0 0 200 200"><circle cx="100" cy="100" r="100" fill="#949bf0"/><rect width="68.345" height="135.43" transform="translate(47.034 130.037) rotate(-108.93)" fill="#fff"/><g transform="translate(30.394 26.929)"><path d="M77.2,109.5,96.57,165.88l119.843-41.1L197.043,68.4Zm19.213,42.835L85.546,120.526A8.609,8.609,0,0,0,90.9,109.5l34.488-11.811c-5.669,7.4-7.4,18.11-3.937,28.346a30.855,30.855,0,0,0,20.472,20l-34.488,11.654A8.609,8.609,0,0,0,96.413,152.337Zm111.654-38.425a8.609,8.609,0,0,0-5.354,11.024l-34.488,11.811c5.669-7.4,7.4-18.11,3.937-28.346a30.855,30.855,0,0,0-20.472-20l34.488-11.654A8.609,8.609,0,0,0,197.2,82.1Z" transform="translate(-77.2 -68.4)" fill="#4cdbc4"/><circle cx="9.291" cy="9.291" r="9.291" transform="translate(60.315 25.354)" fill="#4cdbc4"/><circle cx="9.291" cy="9.291" r="9.291" transform="translate(11.181 53.701)" fill="#4cdbc4"/></g><path d="M212.84,156.858a4.482,4.482,0,0,1-2.835-8.5,3.879,3.879,0,0,1,3.465.315,2.923,2.923,0,0,0,2.677-5.2,10.01,10.01,0,0,0-5.2-1.1l-.63-1.89a2.988,2.988,0,1,0-5.669,1.89l.63,1.89a10.391,10.391,0,0,0,9.449,18.268,4.482,4.482,0,0,1,2.835,8.5,3.879,3.879,0,0,1-3.465-.315,2.923,2.923,0,0,0-2.677,5.2,10.009,10.009,0,0,0,5.2,1.1l.63,1.89a2.988,2.988,0,1,0,5.669-1.89l-.63-1.89a10.391,10.391,0,0,0-9.449-18.268Z" transform="translate(-121.817 -83.945)" fill="#fff"/><circle cx="28.661" cy="28.661" r="28.661" transform="translate(71.339 121.26)" fill="#ffd05b"/><circle cx="28.661" cy="28.661" r="28.661" transform="translate(71.339 113.386)" fill="#f9b54c"/><circle cx="28.661" cy="28.661" r="28.661" transform="translate(71.339 105.512)" fill="#ffd05b"/><circle cx="28.661" cy="28.661" r="28.661" transform="translate(71.339 97.638)" fill="#f9b54c"/><circle cx="28.661" cy="28.661" r="28.661" transform="translate(71.339 89.764)" fill="#ffd05b"/><circle cx="28.661" cy="28.661" r="28.661" transform="translate(71.339 81.89)" fill="#f9b54c"/><circle cx="28.661" cy="28.661" r="28.661" transform="translate(71.339 74.173)" fill="#ffd05b"/><circle cx="22.047" cy="22.047" r="22.047" transform="translate(77.953 80.787)" fill="#f9b54c"/><path d="M249.493,239.38a8.4,8.4,0,0,0-8.346-8.346,3.622,3.622,0,0,1,0-7.244,3.716,3.716,0,0,1,2.52,1.1,2.341,2.341,0,1,0,3.465-3.15,7.319,7.319,0,0,0-3.622-2.2v-1.575a2.362,2.362,0,0,0-4.724,0v1.575a8.362,8.362,0,0,0,2.362,16.378,3.622,3.622,0,1,1,0,7.244,3.716,3.716,0,0,1-2.52-1.1,2.341,2.341,0,0,0-3.465,3.15,7.319,7.319,0,0,0,3.622,2.2v1.575a2.362,2.362,0,1,0,4.724,0v-1.575A8.459,8.459,0,0,0,249.493,239.38Z" transform="translate(-141.146 -130.718)" fill="#ffd05b"/><circle cx="28.661" cy="28.661" r="28.661" transform="translate(43.78 121.26)" fill="#f9b54c"/><circle cx="28.661" cy="28.661" r="28.661" transform="translate(43.78 113.386)" fill="#ffd05b"/><circle cx="28.661" cy="28.661" r="28.661" transform="translate(43.78 105.512)" fill="#f9b54c"/><circle cx="28.661" cy="28.661" r="28.661" transform="translate(43.78 97.638)" fill="#ffd05b"/><circle cx="22.047" cy="22.047" r="22.047" transform="translate(50.394 104.252)" fill="#f9b54c"/><path d="M179.493,299.379a8.4,8.4,0,0,0-8.346-8.346,3.622,3.622,0,1,1,0-7.244,3.716,3.716,0,0,1,2.52,1.1,2.341,2.341,0,1,0,3.465-3.15,7.319,7.319,0,0,0-3.622-2.2v-1.575a2.362,2.362,0,1,0-4.724,0v1.575a8.362,8.362,0,0,0,2.362,16.378,3.622,3.622,0,0,1,0,7.244,3.716,3.716,0,0,1-2.52-1.1,2.341,2.341,0,0,0-3.465,3.15,7.318,7.318,0,0,0,3.622,2.2v1.575a2.362,2.362,0,1,0,4.724,0v-1.575A8.459,8.459,0,0,0,179.493,299.379Z" transform="translate(-98.705 -167.096)" fill="#ffd05b"/></svg>