<svg id="Capa_1" enable-background="new 0 0 497 497" height="512" viewBox="0 0 497 497" width="512" xmlns="http://www.w3.org/2000/svg"><g><g><path d="m434.127 118.547-52.592-70.286c-22.73-30.377-58.448-48.261-96.387-48.261h-45.102c-31.161 0-56.422 25.261-56.422 56.422v14.045c0 28.872 22.248 45.025 49.884 45.025h25.338c11.433 0 19.861-9.474 19.861-20.199v-6.088c17.184 0 31.115 13.931 31.115 31.115v112.444h-6.897c-46.045 0-89.858 19.84-120.231 54.447v.001h-41.499c-81.189 0-121.041 44.901-121.041 105.664.001 55.952 46.669 104.124 105.609 104.124 15.102 0 65.547-6.519 109.079-18.688 125.969-35.539 242.004-118.905 242.004-247.331-.001-37.71-3.316-62.081-42.719-112.434z" fill="#fed2a4"/><path d="m240.046 0c-31.162 0-56.423 25.261-56.423 56.422v14.045c0 28.872 22.248 45.025 49.884 45.025h25.338c11.433 0 19.861-9.474 19.861-20.199v-6.088c17.184 0 31.115 13.931 31.115 31.115v112.445h-6.897c-46.045 0-89.858 19.84-120.231 54.447v.001h-41.499c-81.189 0-121.041 44.901-121.041 105.664 0 47.313 33.372 89.06 79.314 100.824 66.215-10.217 171.036-75.772 171.036-75.772l31.102-21.283c41.449-28.363 66.232-75.353 66.232-125.577v-143.277c.001-70.578-57.213-127.792-127.791-127.792z" fill="#ffbd86"/></g><g fill="#d4d4ff"><path d="m200.58 182.52c-1.33-2.31-3.82-3.75-6.5-3.75-1.31 0-2.6.351-3.74 1.01-3.58 2.061-4.82 6.66-2.75 10.24l13.86 24c1.33 2.311 3.83 3.75 6.5 3.75 1.31 0 2.6-.35 3.74-1.01 1.74-1 2.98-2.62 3.5-4.55.52-1.94.25-3.96-.75-5.69z"/><path d="m263.37 160.25c-4.14 0-7.5 3.37-7.5 7.5v27.699c0 4.141 3.36 7.5 7.5 7.5 4.13 0 7.5-3.359 7.5-7.5v-27.699c0-4.13-3.37-7.5-7.5-7.5z"/><path d="m171.12 244.35-24-13.86c-1.14-.659-2.44-1-3.75-1-2.67 0-5.16 1.431-6.5 3.75-2.06 3.58-.83 8.181 2.75 10.24l24 13.86c1.14.66 2.43 1 3.74 1 2.68 0 5.17-1.43 6.5-3.75 1-1.73 1.27-3.75.75-5.69-.52-1.93-1.76-3.55-3.49-4.55z"/></g><g><path d="m347.062 271.423c-10.013 0-19.307 3.073-26.986 8.326-4.636 3.171-10.408 3.826-15.522 1.984-1.356-.489-2.669-1.143-3.898-1.984-7.679-5.253-16.972-8.326-26.986-8.326-26.396 0-47.794 21.359-47.794 47.708 0 27.134 19.114 46.32 35.766 60.004 10.86 8.924 19.488 14.638 33.995 23.965 8.969 5.767 20.491 5.764 29.46-.003 11.664-7.5 19.279-12.499 27.294-18.641 2.174-1.667 4.377-3.413 6.7-5.321 16.652-13.684 35.766-32.87 35.766-60.004-.001-26.348-21.399-47.708-47.795-47.708z" fill="#ff8e9e"/><path d="m295.876 309.131c0-10.199 3.217-19.643 8.678-27.397-1.356-.489-2.669-1.143-3.898-1.984-7.679-5.253-16.972-8.326-26.986-8.326-26.396 0-47.794 21.359-47.794 47.708 0 27.134 19.114 46.32 35.766 60.004 10.86 8.924 19.488 14.638 33.995 23.965 8.969 5.767 20.491 5.764 29.46-.003 11.664-7.5 19.279-12.499 27.294-18.641-7.474-5.006-13.638-9.478-20.749-15.321-16.652-13.685-35.766-32.871-35.766-60.005z" fill="#ea5b70"/></g></g></svg>