<svg xmlns="http://www.w3.org/2000/svg" xmlns:xlink="http://www.w3.org/1999/xlink" width="238" height="238" viewBox="0 0 238 238"><defs><style>.a{fill:#ffe5e5;}.b{fill:#03aa6f;}.c{fill:#86daf1;}.d{fill:#cb4242;}.e{fill:#fff;}.f{filter:url(#a);}</style><filter id="a" x="0" y="0" width="238" height="238" filterUnits="userSpaceOnUse"><feOffset dx="3" dy="3" input="SourceAlpha"/><feGaussianBlur stdDeviation="3" result="b"/><feFlood flood-opacity="0.502"/><feComposite operator="in" in2="b"/><feComposite in="SourceGraphic"/></filter></defs><g transform="translate(-275 -2145)"><g transform="translate(281 2151)"><g class="f" transform="matrix(1, 0, 0, 1, -6, -6)"><path class="a" d="M110,0A110,110,0,1,1,0,110,110.119,110.119,0,0,1,110,0Z" transform="translate(6 6)"/></g><path class="b" d="M73.275,0A73.275,73.275,0,1,1,0,73.275,73.275,73.275,0,0,1,73.275,0Z" transform="translate(36.725 36.725)"/><path class="c" d="M98.717,22.261a76.455,76.455,0,1,0,76.455,76.455A76.554,76.554,0,0,0,98.717,22.261ZM46.57,55.283a77.8,77.8,0,0,0,11.937,9.192,121.118,121.118,0,0,0-4.531,30.016h-23A67.486,67.486,0,0,1,46.57,55.283Zm22.349,81.683a66.827,66.827,0,0,1,25.572-6.709v35.9C83.992,163.715,74.756,152.65,68.919,136.966Zm3.921,24.527a68.172,68.172,0,0,1-20.432-13.156,68.338,68.338,0,0,1,8.887-7.014A70.159,70.159,0,0,0,72.84,161.493ZM94.448,31.323v35.9a67.621,67.621,0,0,1-25.572-6.709C74.756,44.784,83.992,33.719,94.448,31.323ZM61.3,56.111A71.4,71.4,0,0,1,52.408,49.1,67.633,67.633,0,0,1,72.84,35.941,70.16,70.16,0,0,0,61.3,56.111ZM94.448,75.758V94.491H62.471A111.452,111.452,0,0,1,66.3,68.7,76.349,76.349,0,0,0,94.448,75.758Zm0,27.228v18.733a75.937,75.937,0,0,0-28.186,7.057,116.336,116.336,0,0,1-3.834-25.79Zm8.539,27.228a67.621,67.621,0,0,1,25.572,6.709c-5.838,15.683-15.117,26.792-25.572,29.188Zm0-8.539V102.943h31.976a111.451,111.451,0,0,1-3.834,25.79A76.349,76.349,0,0,0,102.986,121.675Zm0-27.228V75.715a75.937,75.937,0,0,0,28.186-7.057,116.335,116.335,0,0,1,3.834,25.79Zm0-27.228v-35.9c10.455,2.4,19.691,13.5,25.572,29.188A68.651,68.651,0,0,1,102.986,67.22Zm21.608-31.279A68.173,68.173,0,0,1,145.026,49.1a68.338,68.338,0,0,1-8.887,7.014A70.16,70.16,0,0,0,124.594,35.941ZM53.933,102.986A123.187,123.187,0,0,0,58.463,133a77.172,77.172,0,0,0-11.937,9.192,67.6,67.6,0,0,1-15.6-39.208Zm70.661,58.507a70.16,70.16,0,0,0,11.545-20.17,71.4,71.4,0,0,1,8.887,7.014A68.173,68.173,0,0,1,124.594,161.493Zm26.269-19.343a77.8,77.8,0,0,0-11.937-9.192,121.116,121.116,0,0,0,4.531-30.016h23A67.486,67.486,0,0,1,150.863,142.151Zm-7.362-47.7a123.187,123.187,0,0,0-4.531-30.016,77.169,77.169,0,0,0,11.937-9.192,67.6,67.6,0,0,1,15.6,39.208Z" transform="translate(11.283 11.283)"/><path class="d" d="M190.408,103.666H17.371a5.308,5.308,0,0,1-5.315-5.315V63.108a5.308,5.308,0,0,1,5.315-5.315H190.408a5.308,5.308,0,0,1,5.315,5.315V98.351A5.308,5.308,0,0,1,190.408,103.666Z" transform="translate(6.11 29.292)"/><g transform="translate(37.073 95.362)"><path class="e" d="M44.469,63.691h6.317v28.4H44.469L30.964,74.32V92.095H24.6v-28.4h5.925l13.941,18.3Z" transform="translate(-24.603 -63.081)"/><path class="e" d="M72.515,63.691v5.663H58.356v5.838H71.077v5.4H58.356v5.881H72.95v5.62H52.04v-28.4Z" transform="translate(-10.697 -63.081)"/><path class="e" d="M85.112,80.027l5.053-16.337h6.622l5.01,16.337,5.663-16.337h6.883l-9.976,28.4h-4.7L93.433,72.36,87.291,92.095h-4.7l-9.933-28.4h6.883Z" transform="translate(-0.249 -63.081)"/><path class="e" d="M115.1,69.559a2.5,2.5,0,0,0-.915,2,2.247,2.247,0,0,0,1.133,1.96,22.466,22.466,0,0,0,5.141,1.743,14.073,14.073,0,0,1,6.273,3.006,7.36,7.36,0,0,1,2.222,5.794,7.642,7.642,0,0,1-2.875,6.186,11.488,11.488,0,0,1-7.537,2.4,17.412,17.412,0,0,1-12.154-5.01l3.79-4.618c3.049,2.7,5.881,4.008,8.5,4.008a4.567,4.567,0,0,0,2.745-.741,2.56,2.56,0,0,0-.044-4.1,13.257,13.257,0,0,0-4.182-1.525c-3.311-.784-5.707-1.786-7.232-3.05s-2.309-3.224-2.309-5.925a7.252,7.252,0,0,1,2.919-6.23,11.513,11.513,0,0,1,7.232-2.178,17.63,17.63,0,0,1,5.707.958,15.691,15.691,0,0,1,4.966,2.745l-3.224,4.618a12.486,12.486,0,0,0-7.624-2.788A3.723,3.723,0,0,0,115.1,69.559Z" transform="translate(16.851 -63.286)"/></g></g></g></svg>