<svg xmlns="http://www.w3.org/2000/svg" xmlns:xlink="http://www.w3.org/1999/xlink" width="1192.404" height="639.98" viewBox="0 0 1192.404 639.98">
  <defs>
    <filter id="pink-gaussian" x="0" y="0" width="1192.404" height="639.98" filterUnits="userSpaceOnUse">
      <feOffset dx="10" input="SourceAlpha"/>
      <feGaussianBlur stdDeviation="5" result="blur"/>
      <feFlood flood-opacity="0.212"/>
      <feComposite operator="in" in2="blur"/>
      <feComposite in="SourceGraphic"/>
    </filter>
  </defs>
  <g transform="matrix(1, 0, 0, 1, 0, 0)" filter="url(#pink-gaussian)">
    <g id="pink-gaussian-2" data-name="pink-gaussian" transform="translate(8.66 27.55)" fill="#ff8997">
      <path d="M789.3,423.261C640.724,270.813,621.66-3.358,501.854-12.358c-114.3-8.63-152.715,283.171-256.5,435.619S-3.659,597.434-3.659,597.434h1162.4S937.87,575.709,789.3,423.261Z" stroke="none"/>
      <path d="M 1143.673706054688 596.4344482421875 C 1137.824340820312 595.5432739257812 1130.414672851562 594.3077392578125 1121.723266601562 592.6400146484375 C 1108.333374023438 590.0707397460938 1094.557250976562 586.992431640625 1080.777587890625 583.4904174804688 C 1063.553588867188 579.11328125 1046.274658203125 574.0579833984375 1029.421020507812 568.4650268554688 C 986.5166625976562 554.227294921875 946.072265625 536.4613037109375 909.2111206054688 515.660888671875 C 887.3206787109375 503.3081359863281 866.4666748046875 489.7337036132812 847.2286987304688 475.3147277832031 C 836.8870849609375 467.5635681152344 826.8084106445312 459.4144287109375 817.272705078125 451.0934448242188 C 807.3027954101562 442.3935852050781 797.6494140625 433.2642822265625 788.580810546875 423.9592895507812 C 780.2872314453125 415.4492797851562 772.0827026367188 406.22314453125 764.1949462890625 396.5371398925781 C 756.7172241210938 387.3544311523438 749.2893676757812 377.4695739746094 742.1177978515625 367.1570129394531 C 735.3743896484375 357.4601440429688 728.6349487304688 347.0644226074219 722.0865478515625 336.2584228515625 C 715.9996948242188 326.2144165039062 709.860107421875 315.4552917480469 703.838134765625 304.2802734375 C 693.4351196289062 284.9751586914062 682.9033813476562 263.5687255859375 671.64111328125 238.8374328613281 C 661.6912841796875 216.9881439208984 652.40966796875 195.3040008544922 643.4335327148438 174.3337097167969 C 632.7789916992188 149.4420013427734 622.7153930664062 125.9307174682617 612.44580078125 104.2277145385742 C 606.9481201171875 92.60900115966797 601.857421875 82.49257659912109 596.8826904296875 73.30028533935547 C 591.3429565429688 63.06385803222656 586.0538330078125 54.16285705566406 580.7129516601562 46.08842849731445 C 568.93310546875 28.27985954284668 557.2239990234375 15.06743049621582 544.9165649414062 5.696287155151367 C 538.3353881835938 0.6851445436477661 531.4611206054688 -3.27771258354187 524.4845581054688 -6.082427024841309 C 520.8876953125 -7.528427124023438 517.1741333007812 -8.703855514526367 513.4469604492188 -9.575855255126953 C 509.6513977050781 -10.4638557434082 505.7256774902344 -11.06442642211914 501.7786865234375 -11.36099815368652 C 500.157958984375 -11.48342704772949 498.5243835449219 -11.5454273223877 496.9236755371094 -11.5454273223877 C 492.8313903808594 -11.5454273223877 488.7419738769531 -11.13985538482666 484.7694091796875 -10.33971214294434 C 480.8746948242188 -9.555426597595215 476.9762573242188 -8.368712425231934 473.1819763183594 -6.812569618225098 C 469.4642639160156 -5.287712574005127 465.73583984375 -3.362712621688843 462.10009765625 -1.090855479240417 C 458.5428161621094 1.131858825683594 454.9679565429688 3.753144502639771 451.4745483398438 6.70000171661377 C 444.7536926269531 12.36985874176025 438.0108337402344 19.52442932128906 431.4329833984375 27.96528816223145 C 425.2476806640625 35.90257263183594 418.9608154296875 45.29743194580078 412.7471008300781 55.88885879516602 C 388.5661010742188 97.10514831542969 367.3132629394531 152.6974334716797 344.8126831054688 211.5537109375 C 330.5759582519531 248.7931518554688 315.8546752929688 287.3005676269531 299.7559814453125 323.701416015625 C 291.0586853027344 343.3670043945312 282.7686767578125 360.61328125 274.4125366210938 376.4258728027344 C 269.8701171875 385.0215759277344 265.258544921875 393.2678527832031 260.7062683105469 400.9357299804688 C 255.9176788330078 409.0012817382812 251.03125 416.7019958496094 246.1826782226562 423.8240051269531 C 233.7815399169922 442.0401306152344 220.1264038085938 459.3221435546875 205.5966796875 475.1898498535156 C 192.3866882324219 489.6163024902344 178.1572570800781 503.1982727050781 163.3035430908203 515.55859375 C 138.2855377197266 536.3771362304688 111.0572509765625 554.159423828125 82.37496948242188 568.4114379882812 C 71.10568237304688 574.010986328125 59.58182525634766 579.0725708007812 48.12368392944336 583.4552612304688 C 38.95511245727539 586.962158203125 29.8071117401123 590.045166015625 20.9338264465332 592.6182861328125 C 15.14323997497559 594.2975463867188 10.21715259552002 595.5398559570312 6.33723258972168 596.4344482421875 L 1143.673706054688 596.4344482421875 M 1158.744873046875 597.4344482421875 L -3.658745527267456 597.4344482421875 C -3.658745527267456 597.4344482421875 141.5728302001953 575.7094116210938 245.3561096191406 423.2612915039062 C 347.6382751464844 273.0183715820312 386.410888671875 -12.54539012908936 496.9236145019531 -12.54539012908936 C 498.5456848144531 -12.54539012908936 500.2005615234375 -12.48297691345215 501.8539733886719 -12.35814094543457 C 621.6600952148438 -3.357712507247925 640.7239990234375 270.8131408691406 789.2969970703125 423.2612915039062 C 937.8702392578125 575.7094116210938 1158.744873046875 597.4344482421875 1158.744873046875 597.4344482421875 Z" stroke="none" fill="rgba(112,112,112,0)"/>
    </g>
  </g>
</svg>
