<svg height="512" viewBox="0 0 512 512" width="512" xmlns="http://www.w3.org/2000/svg"><g id="Flat"><path d="m496 464v24h-64l-24-24h-16l-64-64h104z" fill="#f6d0b1"/><path d="m448 416v24h-26.41992l-2.02-1.33984a43.78141 43.78141 0 0 1 -19.29008-38.66016h31.73z" fill="#f4c396"/><path d="m280 176v28.28a32 32 0 1 1 -32 0v-28.28h-64v-160h160v160z" fill="#ea8804"/><path d="m272 96a32.00454 32.00454 0 0 1 -59.72 16h-28.28v64h-160v-160h160v64h28.28a32.00454 32.00454 0 0 1 59.72 16z" fill="#37a0c5"/><path d="m96 256a32.00454 32.00454 0 0 0 59.72 16h28.28v64h-160v-160h64v-28.28a32 32 0 1 1 32 0v28.28h64v64h-28.28a32.00454 32.00454 0 0 0 -59.72 16z" fill="#e64042"/><path d="m416 248v160h-160v-64h-28.28a32 32 0 1 1 0-32h28.28v-64h64v28.27979a32 32 0 1 0 32 0v-28.27979z" fill="#90c937"/><path d="m416 336v72h-15.41992a43.31192 43.31192 0 0 1 2.7-21.75l1.54-3.83984a40.07367 40.07367 0 0 1 -28.82008-38.41016v-8z" fill="#68ba40"/><path d="m424 432a35.54916 35.54916 0 0 1 -13.28745-42.78132l5.28745-13.21868a32 32 0 0 1 -32-32h40a24 24 0 0 1 24 24v64z" fill="#f6d0b1"/></g></svg>