<svg id="Layer_1" enable-background="new 0 0 50 50" height="512" viewBox="0 0 50 50" width="512" xmlns="http://www.w3.org/2000/svg"><g><g><g><g><g enable-background="new"><path d="m33.4281 6.3884 10.6882 6.2356.0662 17.543-10.7598-6.2357z" fill="#ce954f"/><g><path d="m33.4281 6.3884 2.3486-1.3649 10.7964 6.1819-2.4568 1.4186z" fill="#f9cb9a"/></g></g></g></g><g><g><g enable-background="new"><path d="m35.7767 5.1164-29.9538 17.4011-.0662 17.543 30.0255-17.4012z" fill="#915624"/><g><path d="m38.1271 3.7576-2.3486-1.3649-34.7556 20.0174 2.4568 1.4186z" fill="#f9cb9a"/></g></g></g></g><g><g><g enable-background="new"><path d="m1.0175 25.1006 10.6882 6.2357.0662 14.9061-10.7599-6.2357z" fill="#ce954f"/><g><path d="m1.0175 25.1006 2.3486-1.3649 10.7964 6.1819-2.4568 1.4187z" fill="#f9cb9a"/></g></g></g></g><g><g><g><g enable-background="new"><g><path d="m46.465 5.5467-2.3487-1.3648.0055 1.9276 2.3486 1.3649z" fill="#ce954f"/></g><g><path d="m48.9218 4.1281-2.3486-1.3649-2.4569 1.4187 2.3487 1.3648z" fill="#f9cb9a"/></g><g><path d="m46.4704 7.4744-2.3486-1.3649-2.5439 1.4687 2.3486 1.3649z" fill="#f9cb9a"/></g><g><path d="m39.6125 9.503-2.3487-1.3648.0055 1.9276 2.3486 1.3649z" fill="#ce954f"/></g><g><path d="m43.9211 7.0155-2.3487-1.3649-4.3086 2.4876 2.3487 1.3648z" fill="#f9cb9a"/></g><g><path d="m39.6179 11.4307-2.3486-1.3649-2.5393 1.4661 2.3486 1.3649z" fill="#f9cb9a"/></g><g><path d="m37.0732 10.9691-2.3487-1.3649-4.3131 2.4902 2.3486 1.3649z" fill="#f9cb9a"/></g><g><path d="m32.76 13.4593-2.3486-1.3649.0054 1.9277 2.3487 1.3649z" fill="#ce954f"/></g><g><path d="m32.7655 15.387-2.3487-1.3649-2.5439 1.4687 2.3487 1.3649z" fill="#f9cb9a"/></g><g><path d="m30.2161 14.928-2.3486-1.3648-4.3132 2.4902 2.3486 1.3648z" fill="#f9cb9a"/></g><g><path d="m25.9029 17.4182-2.3486-1.3648.0055 1.9276 2.3486 1.3649z" fill="#ce954f"/></g><g><path d="m25.9084 19.3459-2.3486-1.3649-2.5394 1.4661 2.3487 1.3649z" fill="#f9cb9a"/></g><g><path d="m23.3636 18.8843-2.3486-1.3649-4.3086 2.4876 2.3486 1.3649z" fill="#f9cb9a"/></g><g><path d="m19.055 21.3719-2.3486-1.3649.0055 1.9277 2.3486 1.3648z" fill="#ce954f"/></g><g><path d="m19.0605 23.2995-2.3486-1.3648-2.5439 1.4687 2.3486 1.3649z" fill="#f9cb9a"/></g><g><path d="m14.0543 24.259-2.3486-1.3648.0662 23.3482 2.3486 1.3648z" fill="#ce954f"/></g><g><path d="m14.0543 24.259.0662 23.3482 34.8675-20.1309-.0662-23.3482-2.4568 1.4186.0054 1.9277-2.5439 1.4687-.0054-1.9276-4.3086 2.4875.0054 1.9277-2.5393 1.4661-.0054-1.9277-4.3132 2.4902.0055 1.9277-2.5439 1.4687-.0055-1.9277-4.3132 2.4902.0055 1.9277-2.5393 1.4661-.0055-1.9277-4.3086 2.4876.0055 1.9276-2.5439 1.4688-.0055-1.9277z" fill="#e8b77e"/></g><g><path d="m16.5111 22.8406-2.3486-1.3649-2.4568 1.4185 2.3486 1.3648z" fill="#f9cb9a"/></g></g></g><g><g enable-background="new"><g><path d="m45.5731 14.8357c-.0402.1173-.124.233-.2235.2905l-.8796.5078c.0167.0288.0263.0663.0264.1108l.0021.7359c.0001.0483-.0098.0993-.0273.149l.1435-.0829c-.0671.0387-.116.0038-.1162-.0662l-.0021-.7359c-.0002-.0699.0484-.154.1155-.1927l1.8474-1.0666c.061-.0352.116-.011.1162.0589l.0021.7359c.0002.0699-.0545.1647-.1155.1999l-1.1097.6407c.0981-.0567.1813-.0426.2227.026l.8874-.5123c.1341-.0774.2496-.2705.2492-.4317l-.0021-.7359c-.0004-.1539-.1167-.2201-.2508-.1426z" fill="#ce954f"/></g><g><path d="m45.3459 13.816c.1402-.081.2503-.0181.2508.143l.0021.7355c.0001.0449-.0092.0933-.0257.1412-.0403.1173-.124.233-.2235.2905l-.8796.5078-.9678.5587c-.0952.0549-.1811.0372-.2233-.0325-.0173-.0285-.0274-.0657-.0275-.1105l-.0021-.7355c-.0005-.1612.115-.3542.2492-.4317zm-1.9603 2.1563c.0002.07.0552.0945.1162.0593l1.8474-1.0666c.0671-.0387.1157-.1231.1155-.1931l-.0021-.7355c-.0002-.0703-.0492-.1052-.1162-.0665l-1.8474 1.0666c-.061.0352-.1157.13-.1155.2003z" fill="#ce954f"/></g><g><path d="m42.3982 16.6687c-.1402.081-.2496.2774-.2492.4313l.0021.7359c.0005.1612.1106.224.2508.143l.8825-.5095c.0423-.1169.1268-.2278.2207-.282l-1.1036.6371c-.0671.0387-.116.0038-.1162-.0662l-.0021-.7359c-.0002-.0699.0484-.154.1155-.1927l1.8474-1.0666c.061-.0352.116-.011.1162.0589l.0021.7359c.0002.0699-.0545.1647-.1155.1999l.2223-.1283c.0175-.0497.0274-.1007.0273-.149l-.0021-.7359c-.0001-.0445-.0097-.082-.0264-.1108l-.9678.5587c-.0952.0549-.1811.0372-.2233-.0325z" fill="#ce954f"/></g></g><g><path d="m43.505 17.1875.7438-.4295.2223-.1284.1435-.0829.7377-.4259c.0981-.0566.1813-.0426.2227.026.0178.0293.0279.0684.0281.117l.0021.7287c.0005.1612-.1089.3503-.2492.4313l-1.8474 1.0666c-.1341.0774-.2503.0185-.2508-.1426l-.0021-.7287c-.0001-.0486.0103-.0996.0285-.1497.0424-.1169.127-.2278.2208-.2819zm-.1129 1.0829c.0002.0768.0553.1014.1162.0662l1.8474-1.0666c.0671-.0387.1157-.1231.1155-.1999l-.0021-.7287c-.0002-.0772-.0492-.1048-.1162-.0661l-1.8474 1.0666c-.061.0352-.1157.1227-.1155.1999z" fill="#ce954f"/></g><g><path d="m35.393 18.6642.7438-.4295.2239-.1293.8857-.5114c.1341-.0774.2504-.0113.2508.1426l.0021.7359c.0005.1612-.115.3539-.2492.4313l-1.8535 1.0701c-.1341.0774-.2503.0185-.2508-.1426l-.0021-.7359c-.0001-.0445.0098-.0932.0268-.1415.0418-.1184.1273-.2348.2225-.2897zm-.1068 1.0862c.0002.0699.0492.1049.1101.0697l1.8535-1.0701c.061-.0352.1096-.1265.1094-.1964l-.0021-.7359c-.0002-.0699-.0491-.0976-.1101-.0624l-1.8535 1.0701c-.061.0352-.1096.1193-.1094.1892z" fill="#ce954f"/></g><g><path d="m35.0268 16.5665c.1341-.0774.2504-.0109.2508.143l.0021.7358c.0001.0483-.0103.0996-.0285.1497-.0423.1169-.1268.2274-.2207.2816l-.9661.5578-.8874.5123c-.1341.0774-.2503.0181-.2508-.1426l-.0021-.7359c-.0004-.154.115-.3543.2492-.4317zm-1.9604 2.1567c.0002.07.0492.1049.1101.0697l1.8535-1.0701c.061-.0352.1096-.1264.1094-.1964l-.0021-.7359c-.0002-.07-.0491-.098-.1101-.0628l-1.8535 1.0701c-.061.0352-.1096.1196-.1094.1896z" fill="#ce954f"/></g><g><path d="m35.2512 17.5951c-.0423.1169-.1268.2274-.2207.2816l-.9661.5578c-.0175.0497-.0275.1008-.0273.149l.0021.7359c.0004.1539.1106.224.2508.143l.8808-.5085c.0416-.1185.1272-.2349.2223-.2898l-1.1036.6371c-.061.0352-.116.0106-.1162-.0593l-.0021-.7359c-.0002-.0699.0545-.1647.1155-.1999l1.8474-1.0666c.061-.0352.116-.0038.1162.0661l.0021.7359c.0002.0699-.0545.1579-.1155.1931l.2239-.1293c.0165-.0483.0258-.0964.0257-.1412l-.0021-.7359c-.0005-.1608-.1106-.2236-.2508-.1426z" fill="#ce954f"/></g><g><path d="m19.2387 27.9909.2228-.1286.7438-.4295c.0995-.0575.1836-.039.2244.0319.0167.0288.0263.0663.0264.1108l.0021.7359c.0005.1612-.109.3504-.2492.4313l-1.8474 1.0666c-.1402.081-.2503.0185-.2508-.1427l-.0021-.7359c-.0004-.1539.1089-.3503.2491-.4313zm-.9937 1.5982c.0002.0699.0552.1014.1162.0662l1.8474-1.0666c.0671-.0387.1157-.13.1155-.1999l-.0021-.7359c-.0002-.0699-.0491-.0976-.1162-.0589l-1.8474 1.0666c-.061.0352-.1157.1228-.1155.1927z" fill="#ce954f"/></g><g><path d="m22.412 23.8497c.1402-.081.2504-.0109.2508.143l.0021.7358c.0005.1608-.109.3504-.2492.4313l-.7987.4612c-.0336.0194-.0653.0305-.0944.0339-.0491.0059-.09-.0101-.1178-.0447-.0243-.0301-.0385-.0748-.0387-.1319l-.0021-.7358c-.0004-.154.1089-.3507.2492-.4317zm-.9116 1.5512c.0002.07.0552.1014.1162.0662l.7987-.4611c.061-.0352.1157-.13.1155-.1999l-.0021-.7358c-.0002-.07-.0553-.0945-.1162-.0593l-.7987.4611c-.061.0352-.1157.1231-.1155.1931z" fill="#ce954f"/></g><g><path d="m19.4582 26.7132c-.1341.0774-.2496.2705-.2492.4313l.0021.7359c.0001.0449.0103.0816.0275.1105l.2228-.1286c-.061.0352-.1099.0071-.1101-.0628l-.0021-.7359c-.0002-.0699.0484-.1612.1094-.1964l1.8535-1.0701c.061-.0352.1099-.0003.1101.0697l.0021.7359c.0002.0699-.0484.1544-.1094.1896l-1.1097.6407c.0995-.0574.1836-.039.2244.0319l.8857-.5114c.1341-.0774.2496-.2777.2492-.4317l-.0021-.7359c-.0002-.057-.0151-.101-.0399-.1308-.0491.0059-.09-.0101-.1177-.0447-.0291.0035-.0606.014-.0932.0329z" fill="#ce954f"/></g><g><path d="m25.3298 27.681.7377-.4259.2223-.1284.8873-.5123c.1341-.0774.2503-.0181.2508.143l.0021.7287c.0005.1612-.115.3539-.2492.4313l-1.8474 1.0666c-.1402.081-.2503.0185-.2508-.1426l-.0021-.7287c-.0001-.0486.0098-.0993.0274-.149.0409-.1162.1238-.2261.2219-.2827zm-.113 1.0828c.0002.0768.0491.1049.1162.0662l1.8474-1.0666c.061-.0352.1096-.1196.1094-.1964l-.0021-.7287c-.0002-.0772-.0492-.1048-.1101-.0696l-1.8474 1.0666c-.0671.0387-.1157.1227-.1155.1999z" fill="#ce954f"/></g><g><path d="m24.2169 27.1657c-.1341.0774-.2496.2774-.2492.4313l.0021.7359c.0005.1612.1167.2205.2508.143l.8874-.5123c.0409-.1161.1237-.226.2218-.2826l-1.1097.6407c-.061.0352-.116.0038-.1162-.0662l-.0021-.7359c-.0002-.0699.0545-.1575.1155-.1927l1.8474-1.0666c.0671-.0387.116-.011.1162.0589l.0021.7359c.0002.0699-.0484.1612-.1155.1999l.2223-.1283c.0175-.0497.0274-.1007.0273-.149l-.0021-.7359c-.0004-.1539-.1106-.2236-.2508-.1427z" fill="#ce954f"/></g><g><path d="m20.3588 40.6419c-.0001-.0483.0098-.0993.0273-.149l-.1436.0829c.0672-.0387.1161-.0038.1163.0661z" fill="#ce954f"/></g><g><path d="m19.5016 41.9999.7438-.4295.1419-.0819.2239-.1293.7438-.4295c.0944-.0545.1797-.0375.2222.0331.018.03.0285.0692.0286.1171l.0021.7283c.0005.1612-.1151.3542-.2492.4317l-1.8535 1.0701c-.1341.0774-.2503.0181-.2508-.143l-.0021-.7283c-.0001-.0479.0101-.0991.0278-.1497.0422-.1193.1271-.2346.2215-.2891zm-.1069 1.0862c.0002.0772.0491.1053.1101.0701l1.8535-1.0701c.061-.0352.1096-.1196.1094-.1968l-.0021-.7283c-.0002-.0772-.0492-.1052-.1102-.07l-1.8535 1.0701c-.061.0352-.1096.1196-.1094.1968z" fill="#ce954f"/></g><g><path d="m21.3485 38.6321c.1341-.0774.2504-.0185.2508.1427l.0021.7286c.0001.0487-.0103.0996-.0285.1501-.0423.1166-.1268.2274-.2207.2816l-.9661.5578-.8874.5123c-.0939.0542-.1788.0412-.2216-.0263-.0184-.0294-.0291-.0681-.0292-.1168l-.0021-.7286c-.0005-.1612.115-.3539.2491-.4313zm-1.9603 2.1491c.0002.0772.0491.1053.1101.0701l1.8535-1.0701c.061-.0352.1096-.1196.1094-.1968l-.0021-.7286c-.0002-.0768-.0492-.1049-.1102-.0697l-1.8535 1.0701c-.061.0352-.1096.1196-.1094.1964z" fill="#ce954f"/></g><g><path d="m18.3947 41.4884c-.1402.081-.2496.2701-.2491.4313l.0021.7359c.0004.1539.1105.2236.2508.1427l.8818-.5091c.042-.1194.127-.2347.2213-.2892l-1.1036.6371c-.061.0352-.116.011-.1162-.0589l-.0021-.7359c-.0002-.0699.0545-.1647.1154-.1999l1.1036-.6371c-.0939.0542-.1788.0412-.2216-.0263z" fill="#ce954f"/></g><g><path d="m20.3609 41.3778c.0002.0699-.0484.154-.1155.1927l.1419-.0819c-.0167-.0289-.0263-.0664-.0264-.1108z" fill="#ce954f"/></g><g><path d="m21.5729 39.6535c-.0423.1165-.1268.2274-.2207.2816l-.9661.5578c-.0175.0497-.0275.1008-.0273.149l.0021.7359c.0001.0445.0097.0819.0264.1108l.2239-.1293c-.061.0352-.116.011-.1162-.0589l-.0021-.7359c-.0002-.0699.0545-.1647.1155-.1999l1.8474-1.0666c.061-.0352.116-.0038.1162.0661l.0021.7359c.0002.0699-.0545.1575-.1155.1927l-1.1036.6371c.0944-.0545.1796-.0375.2222.0331l.8818-.5091c.1402-.081.2496-.2774.2492-.4313l-.0021-.7359c-.0005-.1612-.1106-.2236-.2508-.1426z" fill="#ce954f"/></g><g><path d="m44.6457 27.483.7377-.4259.2239-.1293.8857-.5114c.1341-.0774.2504-.0109.2508.1502l.0021.7283c.0005.1612-.115.3542-.2492.4317l-1.8474 1.0666c-.1402.081-.2503.0181-.2508-.143l-.0021-.7283c-.0001-.0479.0096-.0988.0267-.1491.0408-.1186.124-.2329.2226-.2898zm-.1129 1.0897c.0002.0772.0492.1052.1162.0665l1.8474-1.0666c.061-.0352.1157-.1231.1155-.2003l-.0021-.7283c-.0002-.0772-.0552-.1017-.1162-.0665l-1.8474 1.0666c-.0671.0387-.1157.1231-.1155.2003z" fill="#ce954f"/></g><g><path d="m43.5328 26.975c-.1341.0774-.2496.2701-.2492.4313l.0021.7359c.0004.1539.1166.2201.2508.1427l.8868-.512c.0406-.1186.1238-.2329.2224-.2898l-1.1097.6407c-.061.0352-.116.011-.1162-.0589l-.0021-.7359c-.0002-.0699.0545-.1647.1155-.1999l1.8474-1.0666c.0671-.0387.116-.0038.1162.0661l.0021.7359c.0002.0699-.0484.154-.1155.1927l.2239-.1293c.0165-.048.0258-.0964.0257-.1409l-.002-.736c-.0005-.1612-.1106-.2236-.2508-.1426z" fill="#ce954f"/></g></g></g><g><path d="m31.0569 29.0476c.4939-1.6839 1.6841-3.3618 3.0769-4.166 1.8424-1.0636 3.3365-.2087 3.3428 1.9125l.0131 7.3216-6.64-4.0327c.0397-.3423.1011-.6889.2072-1.0354z" fill="#915624"/><path d="m37.4897 34.1156c-.4877.4215-6.6745 3.8529-6.6745 3.8529l-.0116-7.3258c0-.182.0243-.3714.0461-.5598z" fill="#ce954f"/></g></g></g><path d="m1.0229 22.4101 2.4568 1.4186.0176 2.7187-2.4798-1.4468z" fill="#ce954f"/><path d="m38.1271 3.7576-34.6474 20.0711.0176 2.7187 34.7676-20.0992z" fill="#915624"/></g></svg>