<svg height="463pt" viewBox="0 0 463 463.74381" width="463pt" xmlns="http://www.w3.org/2000/svg"><path d="m424.953125 213.105469-8.722656 15.519531-7.917969 14-16.402344 29.117188h-288.398437c-14.925781.039062-27.882813-10.273438-31.199219-24.824219s3.894531-29.457031 17.359375-35.894531c-1.414063-3.59375-2.148437-7.417969-2.160156-11.28125 0-17.671876 14.328125-32 32-32 2.957031.042968 5.890625.5 8.71875 1.363281 2.929687-13.5 14.1875-23.59375 27.921875-25.042969-3.007813-4.914062-4.613282-10.558594-4.640625-16.320312 0-17.671876 14.328125-32 32-32 1.417969.054687 2.835937.1875 4.238281.402343 5.578125-10.113281 16.210938-16.398437 27.761719-16.402343 3.863281.015624 7.6875.746093 11.28125 2.160156 5.261719-11.089844 16.441406-18.15625 28.71875-18.15625 12.277343 0 23.457031 7.066406 28.71875 18.15625 3.59375-1.414063 7.417969-2.144532 11.28125-2.160156 11.550781.003906 22.183593 6.289062 27.761719 16.402343 1.402343-.214843 2.820312-.347656 4.238281-.402343 16.890625.011718 30.863281 13.144531 31.921875 30 .066406.667968.089844 1.332031.078125 2-.027344 5.761718-1.632813 11.40625-4.640625 16.320312 13.734375 1.449219 24.992187 11.542969 27.921875 25.042969 2.828125-.863281 5.761719-1.320313 8.71875-1.363281 17.671875 0 32 14.328124 32 32-.011719 3.863281-.746094 7.6875-2.160157 11.28125 1.253907.597656 2.457032 1.292968 3.601563 2.082031zm0 0" fill="#7ca540"/><path d="m458.777344 98.945312c8.636718-20.328124 5.75-41.015624-6.449219-46.203124-9.65625-4.09375-22.191406 2.839843-31.3125 16-3.9375-6.617188-11.140625-10.59375-18.839844-10.398438-13.152343 1.601562-21.601562 20.695312-18.960937 42.625 2.640625 21.925781 15.527344 38.398438 28.6875 36.800781 5.859375-1.113281 10.859375-4.90625 13.503906-10.25 11.609375 1.074219 25.722656-10.558593 33.371094-28.574219zm0 0" fill="#88bf40"/><path d="m450.472656 154.703125c-.003906 3.277344-.324218 6.546875-.960937 9.761719-1.085938 5.179687-2.949219 10.171875-5.519531 14.800781l-.082032.238281-18.957031 33.601563-8.722656 15.519531-7.917969 14-16.402344 29.117188-50.71875 90.320312c-6.691406 11.898438-21.257812 16.863281-33.824218 11.535156-12.566407-5.328125-19.117188-19.253906-15.214844-32.332031l20.800781-69.523437 27.757813-92.636719 4.5625-15.363281 7.039062-23.4375c1.535156-5.21875 3.945312-10.140626 7.121094-14.5625 12.605468-17.824219 35.304687-25.4375 56.109375-18.820313 20.808593 6.621094 34.9375 25.949219 34.929687 47.78125zm0 0" fill="#faac2b"/><path d="m381.289062 179.023438-6.265624 14.703124-34.3125-14.621093 4.5625-15.363281zm0 0" fill="#e87425"/><path d="m416.230469 228.625-7.917969 14-38.410156-16.320312 6.265625-14.703126zm0 0" fill="#e87425"/><path d="m449.511719 164.464844c-1.085938 5.179687-2.949219 10.171875-5.519531 14.800781l-.082032.238281-23.757812-10.082031 6.253906-14.726563zm0 0" fill="#e87425"/><path d="m303.511719 351.742188c0 44.183593-35.816407 80-80 80-44.183594 0-80-35.816407-80-80 0-44.179688 35.816406-80 80-80 44.183593 0 80 35.820312 80 80zm0 0" fill="#9f1f5a"/><path d="m306.335938 274.382812c24.195312-26.277343 27.664062-65.550781 8.457031-95.664062 4.695312-3.886719 6.773437-10.101562 5.359375-16.03125-1.410156-5.929688-6.070313-10.542969-12.015625-11.894531-5.941407-1.351563-12.140625.792969-15.976563 5.527343-.367187.464844-.710937.953126-1.023437 1.457032-29.863281-15.707032-69.511719-7.578125-94.679688 21.503906-25.167969 29.078125-27.539062 69.480469-7.722656 96.796875-.453125.386719-.882813.796875-1.292969 1.226563-5.679687 6.691406-4.910156 16.707031 1.722656 22.449218 6.636719 5.746094 16.660157 5.074219 22.46875-1.507812.453126-.554688.867188-1.144532 1.238282-1.757813 32.5625 14.691407 70.933594 5.617188 93.464844-22.105469zm0 0" fill="#fde700"/><path d="m38.75 244.183594c2.441406 44.113281 41.503906 101.863281 85.601562 99.425781 44.097657-2.441406 76.574219-64.136719 74.136719-108.257813-2.441406-44.121093-39.738281-69.910156-83.847656-67.472656-44.113281 2.441406-78.328125 32.183594-75.890625 76.304688zm0 0" fill="#9f1f5a"/><path d="m68.175781 21.34375c-22.980469-10.410156-50.101562-1.25-62.0625 20.960938-11.964843 22.214843-4.691406 49.898437 16.644531 63.359374-.613281 17.140626 7.992188 33.300782 22.558594 42.359376 14.570313 9.058593 32.867188 9.628906 47.972656 1.496093 3.25-1.722656 6.28125-3.828125 9.03125-6.273437l21.886719-1.207032c3 2.128907 6.246094 3.882813 9.664063 5.234376 15.90625 6.417968 34.03125 3.832031 47.511718-6.773438 13.480469-10.609375 20.25-27.617188 17.753907-44.589844 19.613281-15.757812 23.730469-43.984375 9.433593-64.6875-14.292968-20.703125-42.148437-26.859375-63.835937-14.101562zm0 0" fill="#88bf40"/><path d="m60.105469 50.710938c-1.144531-20.164063 10.460937-38.882813 29.023437-46.835938 18.566406-7.949219 40.121094-3.429688 53.929688 11.308594 13.804687 14.742187 16.910156 36.546875 7.765625 54.550781 12.785156 19.496094 9.714843 45.363281-7.285157 61.320313-17 15.957031-43.003906 17.394531-61.65625 3.402343-18.652343-13.992187-24.550781-39.359375-13.988281-60.144531-4.636719-7.039062-7.324219-15.183594-7.789062-23.601562zm0 0" fill="#7ca540"/><path d="m137.519531 44.085938-11.917969-10.671876-17.289062 19.320313-19.34375-17.292969-10.671875 11.917969 22.816406 20.425781 1.398438 25.335938-10.894531-9.761719-10.671876 11.921875 22.8125 20.460938 3.792969 68.585937c.246094 4.410156 4.019531 7.789063 8.433594 7.542969 4.40625-.25 7.777344-4.015625 7.535156-8.421875l-6.40625-116.503907zm0 0" fill="#ecaf4a"/><path d="m143.511719 239.742188h32c22.089843 0 40 17.910156 40 40 0 22.09375-17.910157 40-40 40h-32c-22.089844 0-40-17.90625-40-40 0-22.089844 17.910156-40 40-40zm0 0" fill="#ecaf4a"/><path d="m279.511719 343.742188h32c22.089843 0 40 17.910156 40 40 0 22.09375-17.910157 40-40 40h-32c-22.089844 0-40-17.90625-40-40 0-22.089844 17.910156-40 40-40zm0 0" fill="#ecaf4a"/><path d="m183.511719 240.542969v39.199219h-16v-40h8c2.6875-.019532 5.371093.25 8 .800781zm0 0" fill="#d18b29"/><path d="m151.511719 239.742188v24h-16v-23.199219c2.628906-.550781 5.3125-.820313 8-.800781zm0 0" fill="#d18b29"/><path d="m375.511719 271.742188c0 35.347656-28.652344 64-64 64-35.347657 0-64-28.652344-64-64 0-35.34375 28.652343-64 64-64 35.347656 0 64 28.65625 64 64zm0 0" fill="#ffc018"/><path d="m215.511719 375.742188c0 35.347656-28.652344 64-64 64-35.347657 0-64-28.652344-64-64 0-35.34375 28.652343-64 64-64 35.347656 0 64 28.65625 64 64zm0 0" fill="#fde700"/><path d="m289.328125 273.464844c-6.535156-.136719-12.765625-2.777344-17.410156-7.378906l11.242187-11.382813c1.953125 2.246094 4.988282 3.222656 7.882813 2.535156 2.898437-.6875 5.171875-2.925781 5.90625-5.808593.734375-2.882813-.191407-5.9375-2.40625-7.925782l11.3125-11.3125c4.675781 4.40625 7.328125 10.542969 7.328125 16.96875 0 6.421875-2.652344 12.5625-7.328125 16.96875-4.277344 4.597656-10.25 7.246094-16.527344 7.335938zm0 0" fill="#faac2b"/><path d="m31.511719 303.742188h400v64h-400zm0 0" fill="#8e662b"/><path d="m31.511719 399.742188h400v64h-400zm0 0" fill="#8e662b"/><path d="m135.511719 463.742188v-160c0-17.671876-14.328125-32-32-32s-32 14.328124-32 32v160" fill="#a2783b"/><path d="m327.511719 463.742188v-160c0-17.671876 14.328125-32 32-32s32 14.328124 32 32v160" fill="#a2783b"/><g fill="#80582f"><path d="m95.511719 423.742188h16v16h-16zm0 0"/><path d="m95.511719 327.742188h16v16h-16zm0 0"/><path d="m351.511719 423.742188h16v16h-16zm0 0"/><path d="m351.511719 327.742188h16v16h-16zm0 0"/><path d="m135.511719 303.742188h16v64h-16zm0 0"/><path d="m135.511719 399.742188h16v64h-16zm0 0"/><path d="m391.511719 303.742188h16v64h-16zm0 0"/><path d="m391.511719 399.742188h16v64h-16zm0 0"/></g></svg>