<svg id="Capa_1" enable-background="new 0 0 512 512" height="512" viewBox="0 0 512 512" width="512" xmlns="http://www.w3.org/2000/svg"><path d="m184.164 312.354 144.941-306.685c3.81-8.061 15.5-7.369 18.332 1.085 14.039 41.901 13.575 87.307-1.317 128.912l-42.14 117.737c-2.254 6.298-7.148 11.297-13.397 13.685l-35.888 13.712c-7.679 2.934-13.927 8.721-17.439 16.153l-15.643 33.101z" fill="#f1faff"/><path d="m347.438 6.754c-2.833-8.454-14.522-9.146-18.332-1.085l-.025.054c7.052 34.98 4.496 71.385-7.632 105.271l-42.142 117.736c-2.254 6.298-7.148 11.297-13.397 13.685l-35.888 13.712c-7.679 2.934-13.927 8.721-17.439 16.153l-21.046 43.56 30.075 14.214 15.643-33.101c3.512-7.432 9.76-13.219 17.439-16.153l35.888-13.712c6.249-2.388 11.143-7.387 13.397-13.685l42.141-117.737c14.892-41.606 15.356-87.011 1.318-128.912z" fill="#dcf5ff"/><path d="m177.284 308.201-17.535 37.102c-6.087 12.879-21.392 18.36-34.341 12.424-.923-.423-1.859-.831-2.806-1.224-38.27-15.861-82.878.158-102.303 36.748-21.603 40.695-5.018 90.628 35.73 110.637 40.551 19.912 90.018 1.758 109.321-39.086l62.677-132.619c1.667-3.528.159-7.74-3.369-9.408l-37.967-17.943c-3.527-1.667-7.739-.159-9.407 3.369zm-103.839 161.729c-21.346-10.088-30.473-35.571-20.384-56.918 10.088-21.346 35.571-30.473 56.918-20.384 21.346 10.088 30.473 35.571 20.384 56.918-10.089 21.346-35.572 30.472-56.918 20.384z" fill="#0acefa"/><path d="m224.659 322.775-25.711-12.151-60.263 127.512c-19.303 40.844-68.77 58.998-109.321 39.086-2.287-1.123-4.485-2.353-6.617-3.658 7.74 12.651 19.026 23.323 33.284 30.324 40.551 19.912 90.018 1.758 109.321-39.086l62.677-132.619c1.666-3.528.158-7.74-3.37-9.408z" fill="#00bef7"/><path d="m327.836 312.354-144.941-306.685c-3.81-8.061-15.5-7.369-18.332 1.085-14.039 41.901-13.575 87.307 1.317 128.912l42.141 117.737c2.254 6.298 7.148 11.297 13.397 13.685l35.888 13.712c7.679 2.934 13.927 8.721 17.439 16.153l15.643 33.101z" fill="#f1faff"/><path d="m295.256 327.752 32.58-15.398-144.941-306.685c-3.81-8.061-15.5-7.369-18.332 1.085-3.13 9.341-5.534 18.858-7.223 28.466z" fill="#dcf5ff"/><path d="m491.7 393.252c-19.424-36.59-64.033-52.609-102.303-36.748-.947.393-1.882.801-2.806 1.224-12.949 5.936-28.254.455-34.341-12.424l-17.535-37.102c-1.668-3.528-5.879-5.037-9.408-3.369l-37.967 17.943c-3.528 1.667-5.037 5.879-3.369 9.408l62.677 132.619c19.303 40.844 68.771 58.998 109.321 39.086 40.748-20.009 57.334-69.943 35.731-110.637zm-32.761 56.294c-10.088 21.346-35.571 30.473-56.918 20.384-21.346-10.088-30.473-35.571-20.384-56.918 10.088-21.346 35.571-30.473 56.918-20.384 21.346 10.088 30.473 35.571 20.384 56.918z" fill="#0acefa"/><path d="m491.7 393.252c-19.424-36.59-64.033-52.609-102.303-36.748-.947.393-1.882.801-2.806 1.224-12.949 5.936-28.254.455-34.341-12.424l-17.535-37.102c-1.668-3.528-5.879-5.037-9.408-3.369l-24.325 11.496 24.26 55.983c6.11 12.928 21.463 18.3 34.472 12.364.715-.326 1.436-.643 2.165-.951 38.248-16.15 82.016-1.074 102.118 35.253 14.758 26.669 12.877 57.519-1.613 81.374 36.01-21.89 49.744-68.618 29.316-107.1z" fill="#00bef7"/><circle cx="256" cy="235.398" fill="#0e80ac" r="8.545"/></svg>