<svg xmlns="http://www.w3.org/2000/svg" width="1284.53" height="1360" viewBox="0 0 1284.53 1360"><defs><style>.a{fill:#fff7d8;}.a,.b,.c{stroke:rgba(112,112,112,0);}.b{fill:rgba(201,230,255,0.52);}.c{fill:#f5edcf;}.d{stroke:none;}.e{fill:none;}</style></defs><g transform="translate(0.501 -200)"><g class="a" transform="translate(0 200)"><rect class="d" width="1280" height="1360"/><rect class="e" x="0.5" y="0.5" width="1279" height="1359"/></g><path class="b" d="M1368.475,482.4V937.713s500.371,81.421,820.62,58.082,460.373-151.436,460.373-151.436V482.4s32.869-113.617-287.379-113.617S1368.475,482.4,1368.475,482.4Z" transform="translate(-1367)"/><path class="c" d="M1368.475,322.779l.809,592.2s714.647,54.4,1100.982-127.226c109.184-51.331,146.482-194.727,160.7-315.6,8.576-72.895,17.506-207.865,17.506-207.865s-209.827-12.97-287.466,3.966c-102.479,0-367.7,108.9-492.186,118.593C1604.353,407.449,1368.475,322.779,1368.475,322.779Z" transform="translate(-1368.475 575.704)"/></g></svg>