<svg height="512" viewBox="0 0 60 43" width="512" xmlns="http://www.w3.org/2000/svg"><g id="Page-1" fill="none" fill-rule="evenodd"><g id="026---Romance-Chat" fill-rule="nonzero"><path id="Shape" d="m29.61 5c1.0011903-2.96551526 3.770163-4.97201719 6.9-5 2.9530626.01021131 5.7300524 1.40611153 7.5 3.77 1.7728883-2.36570629 4.5537135-3.76167315 7.51-3.77 4.44 0 7.51 3.87 7.5 8.37-.02 9-13.44 14.53-5.54 21.63-5.7158549-1.6794701-11.1151513-4.2912699-15.98-7.73z" fill="#3b97d3"/><path id="Shape" d="m39 15.61c-.0302516 2.3002934-.541186 4.5688423-1.5 6.66-2.99 6.79-11.1 14.84-29.5 20.73 10-9-7-16-7.02-27.39-.01-5.71 3.88-10.61 9.5-10.61 3.7420649.01301254 7.2618887 1.77847617 9.51 4.77 2.2429096-2.992413 5.7603412-4.75853391 9.5-4.77h.12c5.57.07 9.39 4.94 9.39 10.61z" fill="#ff5364"/><g fill="#fff"><path id="Shape" d="m13 16h-3c-.55228475 0-1-.4477153-1-1s.44771525-1 1-1h3c.5522847 0 1 .4477153 1 1s-.4477153 1-1 1z"/><path id="Shape" d="m30 16h-13c-.5522847 0-1-.4477153-1-1s.4477153-1 1-1h13c.5522847 0 1 .4477153 1 1s-.4477153 1-1 1z"/><path id="Shape" d="m30 21h-3c-.5522847 0-1-.4477153-1-1s.4477153-1 1-1h3c.5522847 0 1 .4477153 1 1s-.4477153 1-1 1z"/><path id="Shape" d="m23 21h-13c-.55228475 0-1-.4477153-1-1s.44771525-1 1-1h13c.5522847 0 1 .4477153 1 1s-.4477153 1-1 1z"/><path id="Shape" d="m13 26h-3c-.55228475 0-1-.4477153-1-1s.44771525-1 1-1h3c.5522847 0 1 .4477153 1 1s-.4477153 1-1 1z"/><path id="Shape" d="m30 26h-13c-.5522847 0-1-.4477153-1-1s.4477153-1 1-1h13c.5522847 0 1 .4477153 1 1s-.4477153 1-1 1z"/></g></g></g></svg>