<svg id="Capa_1" enable-background="new 0 0 512 512" height="512" viewBox="0 0 512 512" width="512" xmlns="http://www.w3.org/2000/svg"><path d="m485.721 219.914h-9.422l-201.686-127.06-16.884 26.799 205.556 129.497c2.528 1.592 5.454 2.438 8.442 2.438h13.995v-31.674z" fill="#fceed9"/><path d="m196.482 69.965c-79.908 0-144.686 64.778-144.686 144.686s64.778 144.686 144.686 144.686 144.686-64.778 144.686-144.686-64.778-144.686-144.686-144.686zm0 205.583c-33.632 0-60.897-27.264-60.897-60.896s27.264-60.897 60.897-60.897c33.632 0 60.896 27.264 60.896 60.897 0 33.631-27.264 60.896-60.896 60.896z" fill="#fcddaf"/><path d="m196.482 124.652c-49.705 0-89.999 40.294-89.999 89.999s40.294 89.999 89.999 89.999 89.999-40.294 89.999-89.999-40.294-89.999-89.999-89.999zm0 146.161c-31.018 0-56.162-25.145-56.162-56.162 0-31.018 25.145-56.162 56.162-56.162s56.162 25.145 56.162 56.162-25.145 56.162-56.162 56.162z" fill="#057195"/><path d="m476.559 197.108h-36.471c-4.348 0-8.184 2.843-9.449 7.002l-23.112 76c-4.062 13.356-17.606 21.44-31.289 18.676l-35.686-7.209c-6.743-1.893-12.916-5.418-17.973-10.264l-75.508-72.354c-7.936-7.605-18.504-11.851-29.496-11.851h-176.115c-8.962 0-16.227 7.265-16.227 16.227v218.915h461.187.347l-.333-225.281c-.008-5.448-4.427-9.861-9.875-9.861z" fill="#fb74c4"/><g fill="#fd4eb4"><path d="m286.866 281.313c5.057 4.846 11.23 8.371 17.973 10.264l35.686 7.209c6.858 1.385 13.68.045 19.292-3.317l-19.264-3.892c-6.743-1.893-12.916-5.418-17.973-10.264l-75.508-72.354c-7.936-7.605-18.504-11.851-29.496-11.851h-35.713c10.992 0 21.559 4.246 29.496 11.851z"/><path d="m486.434 206.969c-.008-5.448-4.427-9.861-9.876-9.861h-35.713c5.449 0 9.868 4.413 9.876 9.861l.333 225.281h35.366.347z"/><path d="m500.676 442.035h-489.352c-6.254 0-11.324-5.07-11.324-11.324v-16.499c0-6.254 5.07-11.324 11.324-11.324h489.352c6.254 0 11.324 5.07 11.324 11.324v16.499c0 6.254-5.07 11.324-11.324 11.324z"/></g></svg>