<svg height="512" viewBox="0 0 64 64" width="512" xmlns="http://www.w3.org/2000/svg"><g id="Layer_60" data-name="Layer 60"><path d="m55 20h-2v-5h-4v-2h4a2 2 0 0 1 2 2z" fill="#aabece"/><path d="m50 11v15a7 7 0 0 1 -7 7h-24a7 7 0 0 1 -5.92-3.27 6.87 6.87 0 0 1 -1.08-3.73v-15a7 7 0 0 1 7-7h24a6.75 6.75 0 0 1 1.92.27 7 7 0 0 1 5.08 6.73z" fill="#cfdfe8"/><path d="m46 8v15a7 7 0 0 1 -7 7h-24a6.75 6.75 0 0 1 -1.92-.27 6.87 6.87 0 0 1 -1.08-3.73v-15a7 7 0 0 1 7-7h24a6.75 6.75 0 0 1 1.92.27 6.87 6.87 0 0 1 1.08 3.73z" fill="#e9f0f4"/><path d="m48 35.5a2.49 2.49 0 0 1 -2.5 2.5h-29a2.51 2.51 0 0 1 -2.5-2 2.32 2.32 0 0 1 0-.46 2.49 2.49 0 0 1 2.5-2.54h29a2.32 2.32 0 0 1 .5 0 2.51 2.51 0 0 1 2 2.5z" fill="#cfdfe8"/><path d="m46 33.5a2.49 2.49 0 0 1 -2.5 2.5h-29a2.32 2.32 0 0 1 -.5 0 2.32 2.32 0 0 1 0-.46 2.49 2.49 0 0 1 2.5-2.54h29a2.32 2.32 0 0 1 .5 0 2.32 2.32 0 0 1 0 .5z" fill="#e9f0f4"/><path d="m46 38v1.57a17.11 17.11 0 0 1 -2.13 8.25 16.89 16.89 0 0 1 -4.46 5.18 15.59 15.59 0 0 1 -1.41 1l.67 1 3.33 5h-22l3.33-5 .67-1a15.59 15.59 0 0 1 -1.41-1 17 17 0 0 1 -6.59-13.43v-1.57z" fill="#aabece"/><path d="m34.07 40a5.36 5.36 0 0 1 4.83 7.77 16.89 16.89 0 0 1 -4.49 5.23 15.59 15.59 0 0 1 -1.41 1l.67 1a3.22 3.22 0 0 1 -2.67 5h-11l3.33-5 .67-1a15.59 15.59 0 0 1 -1.41-1 16.94 16.94 0 0 1 -6.59-13z" fill="#cfdfe8"/><path d="m44 24a12.91 12.91 0 0 1 -3.63 9h-18.74a12.69 12.69 0 0 1 -2.63-4 12.82 12.82 0 0 1 -1-5c0-7.18 5.82-17 13-17a9.09 9.09 0 0 1 5.09 1.67c4.65 3.1 7.91 9.96 7.91 15.33z" fill="#aabece"/><path d="m40 20v.1a8.93 8.93 0 0 1 -8.93 8.9h-8a5.06 5.06 0 0 1 -5.07-4.95v-.05c0-7.18 5.82-17 13-17a9.09 9.09 0 0 1 5.09 1.67 20.66 20.66 0 0 1 3.91 11.33z" fill="#cfdfe8"/></g></svg>