<svg height="512" viewBox="0 0 512 512" width="512" xmlns="http://www.w3.org/2000/svg"><g id="FLAT"><rect fill="#655a56" height="448" rx="32" width="400" x="56" y="24"/><path d="m88 56h336v384h-336z" fill="#f4edea"/><path d="m368.144 276.62292-80.144-28.62292h-64l-80.144 28.62292a47.99978 47.99978 0 0 0 -31.856 45.2035v46.17358h72v72h144v-72h72v-46.17358a47.99978 47.99978 0 0 0 -31.856-45.2035z" fill="#b8c2c2"/><path d="m224 208v40l12.99609 9.74707a31.67322 31.67322 0 0 0 38.00782 0l12.99609-9.74707v-40z" fill="#d7baad"/><path d="m326.03033 144a17.96968 17.96968 0 0 1 17.96967 17.96967 17.96967 17.96967 0 0 1 -13.61139 17.43315l-18.38861 4.59718h-8v-40z" fill="#d7baad"/><path d="m136 368h48v72h-48z" fill="#e8cbbf"/><path d="m384 80h16v16h-16z" fill="#ccc3ba"/><path d="m352 80h16v16h-16z" fill="#ccc3ba"/><path d="m136 104a16 16 0 0 0 -16 16v32a16 16 0 0 0 16 16h8l24 24v-24h32a16 16 0 0 0 16-16v-32a16 16 0 0 0 -16-16z" fill="#ccc3ba"/><path d="m144 128h32v16h-32z" fill="#f4edea"/><path d="m185.96967 144a17.96968 17.96968 0 0 0 -17.96967 17.96967 17.96967 17.96967 0 0 0 13.61139 17.43315l18.38861 4.59718h8v-40z" fill="#d7baad"/><path d="m312 88v80.00006a55.99994 55.99994 0 0 1 -55.99994 55.99994h-.00012a55.99994 55.99994 0 0 1 -55.99994-55.99994v-40.00006a40 40 0 0 1 40-40z" fill="#e8cbbf"/><path d="m232 152h16v16h-16z" fill="#655a56"/><path d="m264 152h16v16h-16z" fill="#655a56"/><path d="m240 184h32v16h-32z" fill="#c9ab9f"/><path d="m200 128h112v-40h-72a40 40 0 0 0 -40 40z" fill="#aa7f5f"/><g fill="#e8cbbf"><path d="m328 368h48v72h-48z"/><path d="m382.62744 224a22.62716 22.62716 0 0 1 16 6.62738l30.05884 30.0589c10.07934 10.07941 27.31372 2.9408 27.31372-11.31372v-105.37256l19.2 14.4a31.99986 31.99986 0 0 1 12.8 25.6v312h-64v-73.37262a54.62731 54.62731 0 0 0 -16-38.62738v-.00006a54.62717 54.62717 0 0 1 -16-38.62732v-50.74524a16.0002 16.0002 0 0 0 -4.68628-11.31366l-20.68628-20.68634a22.62737 22.62737 0 0 1 16-38.62738z"/><path d="m129.37256 224a22.62716 22.62716 0 0 0 -16 6.62738l-30.05884 30.0589c-10.07934 10.07941-27.31372 2.9408-27.31372-11.31372v-105.37256l-19.19995 14.4a31.99986 31.99986 0 0 0 -12.80005 25.6v312h64v-73.37262a54.62731 54.62731 0 0 1 16-38.62738v-.00006a54.62717 54.62717 0 0 0 16-38.62732v-50.74524a16.0002 16.0002 0 0 1 4.68628-11.31366l20.68628-20.68634a22.62737 22.62737 0 0 0 -16-38.62738z"/></g><path d="m176 328h16v40h-16z" fill="#a7b2b1"/><path d="m320 328h16v40h-16z" fill="#a7b2b1"/><path d="m248 304h112v136h-112z" fill="#f4edea"/><path d="m338.0957 398.28735a15.99952 15.99952 0 0 0 -8.02343-9.25122l-26.07227-13.03613-26.07227 13.03613a15.99952 15.99952 0 0 0 -8.02343 9.25122l-13.9043 41.71265h96z" fill="#776e6b"/><path d="m320 358.11145v-6.11145a16 16 0 0 0 -32 0v6.11145a16.00006 16.00006 0 0 0 8.84448 14.31079l7.15552 3.57776 7.15552-3.57776a16.00006 16.00006 0 0 0 8.84448-14.31079z" fill="#776e6b"/></g></svg>