<?xml version="1.0" encoding="iso-8859-1"?>
<!-- Generator: Adobe Illustrator 19.0.0, SVG Export Plug-In . SVG Version: 6.00 Build 0)  -->
<svg version="1.1" id="Capa_1" xmlns="http://www.w3.org/2000/svg" xmlns:xlink="http://www.w3.org/1999/xlink" x="0px" y="0px"
	 viewBox="0 0 512 512" style="enable-background:new 0 0 512 512;" xml:space="preserve">
<path style="fill:#F3E2A9;" d="M329.802,73.5c0,40.593-33.042,73.5-73.802,73.5s-73.802-32.907-73.802-73.5S215.24,0,256,0
	S329.802,32.907,329.802,73.5z"/>
<path style="fill:#EFD898;" d="M329.802,73.5c0,40.593-33.042,73.5-73.802,73.5c-4,0-7.923-0.328-11.751-0.938
	c35.173-5.606,62.051-35.953,62.051-72.562S279.422,6.544,244.249,0.938C248.077,0.328,252,0,256,0
	C296.76,0,329.802,32.907,329.802,73.5z"/>
<path style="fill:#FF7F54;" d="M488.5,164.75c0,40.593-33.042,73.5-73.802,73.5s-73.802-32.907-73.802-73.5s33.042-73.5,73.802-73.5
	S488.5,124.157,488.5,164.75z"/>
<path style="fill:#F06C4A;" d="M488.5,164.75c0,40.593-33.042,73.5-73.802,73.5c-4,0-7.923-0.328-11.751-0.938
	c35.173-5.606,62.051-35.953,62.051-72.562s-26.878-66.956-62.051-72.562c3.828-0.61,7.75-0.938,11.751-0.938
	C455.458,91.25,488.5,124.157,488.5,164.75z"/>
<path style="fill:#FFCF56;" d="M488.5,347.25c0,40.593-33.042,73.5-73.802,73.5s-73.802-32.907-73.802-73.5s33.042-73.5,73.802-73.5
	S488.5,306.657,488.5,347.25z"/>
<path style="fill:#FFB154;" d="M488.5,347.25c0,40.593-33.042,73.5-73.802,73.5c-4,0-7.923-0.328-11.751-0.938
	c35.173-5.606,62.051-35.953,62.051-72.562s-26.878-66.956-62.051-72.562c3.828-0.61,7.75-0.938,11.751-0.938
	C455.458,273.75,488.5,306.657,488.5,347.25z"/>
<path style="fill:#B8C76F;" d="M329.802,438.5c0,40.593-33.042,73.5-73.802,73.5s-73.802-32.907-73.802-73.5S215.24,365,256,365
	S329.802,397.907,329.802,438.5z"/>
<path style="fill:#A2B16F;" d="M329.802,438.5c0,40.593-33.042,73.5-73.802,73.5c-4,0-7.923-0.328-11.751-0.938
	c35.173-5.606,62.051-35.953,62.051-72.562s-26.878-66.956-62.051-72.562C248.077,365.328,252,365,256,365
	C296.76,365,329.802,397.907,329.802,438.5z"/>
<path style="fill:#A0C1B7;" d="M171.103,347.25c0,40.593-33.042,73.5-73.802,73.5S23.5,387.843,23.5,347.25s33.042-73.5,73.802-73.5
	S171.103,306.657,171.103,347.25z"/>
<path style="fill:#84AB9E;" d="M171.103,347.25c0,40.593-33.042,73.5-73.802,73.5c-4,0-7.923-0.328-11.751-0.938
	c35.173-5.606,62.051-35.953,62.051-72.562s-26.878-66.956-62.051-72.562c3.828-0.61,7.75-0.938,11.751-0.938
	C138.061,273.75,171.103,306.657,171.103,347.25z"/>
<path style="fill:#AA8753;" d="M171.103,164.75c0,40.593-33.042,73.5-73.802,73.5S23.5,205.343,23.5,164.75s33.042-73.5,73.802-73.5
	S171.103,124.157,171.103,164.75z"/>
<path style="fill:#925F43;" d="M171.103,164.75c0,40.593-33.042,73.5-73.802,73.5c-4,0-7.923-0.328-11.751-0.938
	c35.173-5.606,62.051-35.953,62.051-72.562S120.723,97.794,85.55,92.188c3.828-0.61,7.75-0.938,11.751-0.938
	C138.061,91.25,171.103,124.157,171.103,164.75z"/>
<path style="fill:#AA8753;" d="M285.76,101.532l-13.173-52.475c-1.909-7.604-8.73-12.916-16.588-12.916
	c-7.857,0-14.679,5.311-16.588,12.916l-13.173,52.475c-1.008,4.018,1.431,8.092,5.449,9.101c4.016,1.006,8.092-1.431,9.101-5.448
	l2.979-11.868h24.463l2.979,11.868c0.855,3.404,3.911,5.676,7.269,5.676c0.605,0,1.219-0.074,1.832-0.228
	C284.329,109.625,286.769,105.55,285.76,101.532z M247.534,78.316l6.428-25.607c0.231-0.923,1.07-1.568,2.038-1.568
	c0.968,0,1.807,0.645,2.038,1.568l6.428,25.607H247.534z"/>
<path style="fill:#F3E2A9;" d="M123.54,194.608c0,4.142-3.358,7.5-7.5,7.5H78.563c-4.143,0-7.5-3.358-7.5-7.5v-32.471v-27.246
	c0-4.142,3.358-7.5,7.5-7.5h37.477c4.142,0,7.5,3.358,7.5,7.5s-3.358,7.5-7.5,7.5H86.064v12.246h21.169c4.142,0,7.5,3.358,7.5,7.5
	s-3.358,7.5-7.5,7.5H86.064v17.471h29.976C120.182,187.108,123.54,190.466,123.54,194.608z"/>
<path style="fill:#FFFFFF;" d="M89.927,309.892H74.816c-4.142,0-7.5,3.358-7.5,7.5v59.717c0,4.142,3.358,7.5,7.5,7.5h15.111
	c20.601,0,37.36-16.759,37.36-37.358S110.528,309.892,89.927,309.892z M89.927,369.608h-7.611v-44.717h7.611
	c12.329,0,22.36,10.03,22.36,22.358S102.257,369.608,89.927,369.608z M241.015,423.571v29.858c0,4.097,3.36,7.429,7.49,7.429h14.991
	c4.13,0,7.49-3.333,7.49-7.429c0-4.142,3.358-7.5,7.5-7.5s7.5,3.358,7.5,7.5c0,12.368-10.089,22.429-22.49,22.429h-14.991
	c-12.402,0-22.491-10.062-22.491-22.429v-29.858c0-12.368,10.089-22.429,22.491-22.429h14.991c12.401,0,22.49,10.062,22.49,22.429
	c0,4.142-3.358,7.5-7.5,7.5s-7.5-3.358-7.5-7.5c0-4.097-3.36-7.429-7.49-7.429h-14.991
	C244.375,416.142,241.015,419.474,241.015,423.571z M424.951,156.445c1.732-3.064,2.734-6.593,2.734-10.357
	c0-11.647-9.476-21.123-21.124-21.123h-23.853c-4.143,0-7.5,3.358-7.5,7.5v27.246v32.471c0,4.142,3.358,7.5,7.5,7.5h28.735
	c13.088,0,23.737-10.648,23.737-23.736C435.18,167.875,431.126,160.735,424.951,156.445z M390.208,139.965h16.352
	c3.376,0,6.123,2.747,6.123,6.123s-2.747,6.123-6.123,6.123h-16.352V139.965z M411.443,184.683h-21.234v-17.471h16.352h4.882
	c4.817,0,8.736,3.918,8.736,8.735S416.26,184.683,411.443,184.683z M454.189,189.57v7.465c0,4.142-3.358,7.5-7.5,7.5
	c-4.143,0-7.5-3.358-7.5-7.5v-7.465c0-4.142,3.358-7.5,7.5-7.5S454.189,185.428,454.189,189.57z M415.947,338.945
	c1.732-3.064,2.734-6.593,2.734-10.357c0-11.647-9.476-21.123-21.125-21.123h-23.853c-4.143,0-7.5,3.358-7.5,7.5v27.246v32.471
	c0,4.142,3.358,7.5,7.5,7.5h28.735c13.088,0,23.737-10.648,23.737-23.736C426.176,350.375,422.122,343.235,415.947,338.945z
	 M381.204,322.465h16.352c3.377,0,6.124,2.747,6.124,6.123s-2.747,6.123-6.124,6.123h-16.352V322.465z M402.439,367.183h-21.235
	v-17.471h16.352h4.883c4.817,0,8.736,3.918,8.736,8.735S407.256,367.183,402.439,367.183z M444.18,372.07v7.465
	c0,4.142-3.358,7.5-7.5,7.5c-4.143,0-7.5-3.358-7.5-7.5v-7.465c0-4.142,3.358-7.5,7.5-7.5S444.18,367.928,444.18,372.07z
	 M463.193,372.07v7.465c0,4.142-3.358,7.5-7.5,7.5c-4.143,0-7.5-3.358-7.5-7.5v-7.465c0-4.142,3.358-7.5,7.5-7.5
	S463.193,367.928,463.193,372.07z"/>
<path style="fill:#84AB9E;" d="M329.548,296.54c-14.851,26.687-43.261,43.163-73.588,43.163c-2.058,0-4.121-0.076-6.192-0.229
	c-22.383-1.659-42.779-11.902-57.431-28.841c-10.652-12.315-17.319-27.102-19.541-42.824l-1.205,1.347
	c-1.482,1.656-3.533,2.5-5.593,2.5c-1.78,0-3.566-0.63-4.998-1.91c-3.088-2.762-3.352-7.503-0.591-10.59l12.992-14.525
	c2.758-3.083,7.49-3.35,10.578-0.602l15.225,13.552c3.094,2.754,3.369,7.495,0.615,10.589c-2.755,3.095-7.495,3.369-10.589,0.615
	l-1.296-1.154c2.082,12.171,7.447,23.592,15.748,33.188c12.037,13.916,28.797,22.331,47.194,23.694
	c26.801,1.981,52.535-11.858,65.563-35.269c2.015-3.619,6.583-4.92,10.201-2.907C330.261,288.353,331.562,292.92,329.548,296.54z"/>
<path style="fill:#FF7F54;" d="M351.34,257.979l-13.945,13.62c-1.459,1.425-3.35,2.135-5.241,2.135c-1.943,0-3.885-0.75-5.353-2.247
	l-14.274-14.542c-2.901-2.956-2.857-7.705,0.099-10.606c2.957-2.902,7.706-2.857,10.606,0.099l1.341,1.366
	c-1.591-13.475-7.158-26.173-16.249-36.683c-12.037-13.916-28.797-22.331-47.194-23.694c-28.37-2.1-55.554,13.7-67.645,39.323
	c-1.769,3.747-6.239,5.349-9.984,3.582c-3.746-1.768-5.35-6.237-3.582-9.983c14.722-31.197,47.796-50.438,82.321-47.881
	c22.383,1.659,42.779,11.901,57.431,28.841c11.606,13.418,18.487,29.769,20.031,47.069l1.156-1.13
	c2.964-2.895,7.711-2.839,10.607,0.125C354.359,250.337,354.303,255.085,351.34,257.979z"/>
<g>
</g>
<g>
</g>
<g>
</g>
<g>
</g>
<g>
</g>
<g>
</g>
<g>
</g>
<g>
</g>
<g>
</g>
<g>
</g>
<g>
</g>
<g>
</g>
<g>
</g>
<g>
</g>
<g>
</g>
</svg>
