<svg xmlns="http://www.w3.org/2000/svg" width="1280" height="1280" viewBox="0 0 1280 1280">
  <g id="Group_545" data-name="Group 545" transform="translate(0 -200)">
    <path id="Path_2114" data-name="Path 2114" d="M0,0H1280V1280H0Z" transform="translate(0 200)" fill="#b1ef97"/>
    <g id="Path_780" data-name="Path 780" transform="translate(300 546)" fill="#def7ff">
      <path d="M137.34,0H980V234H137.34C61.489,234,0,181.617,0,117S61.489,0,137.34,0Z" stroke="none"/>
      <path d="M 137.339599609375 1 C 128.0787353515625 1 118.823974609375 1.794754028320312 109.8326416015625 3.36212158203125 C 101.0713500976562 4.889495849609375 92.4539794921875 7.168243408203125 84.2198486328125 10.13525390625 C 76.13714599609375 13.04762268066406 68.34173583984375 16.65213012695312 61.05047607421875 20.84849548339844 C 53.83099365234375 25.00349426269531 47.042724609375 29.77487182617188 40.8743896484375 35.02975463867188 C 34.708740234375 40.28225708007812 29.11175537109375 46.06100463867188 24.239013671875 52.20562744140625 C 19.3221435546875 58.40562438964844 15.0994873046875 65.03286743164062 11.6884765625 71.90299987792969 C 8.21612548828125 78.89674377441406 5.54949951171875 86.21487426757812 3.76263427734375 93.65400695800781 C 1.92950439453125 101.2855072021484 1 109.140251159668 1 117 C 1 124.859748840332 1.92950439453125 132.7145080566406 3.76263427734375 140.3460083007812 C 5.54949951171875 147.7851257324219 8.21612548828125 155.1032409667969 11.6884765625 162.0970001220703 C 15.0994873046875 168.9671325683594 19.3221435546875 175.5943756103516 24.239013671875 181.7943725585938 C 29.11175537109375 187.9389953613281 34.708740234375 193.7177429199219 40.8743896484375 198.9702453613281 C 47.042724609375 204.2251281738281 53.83099365234375 208.9965057373047 61.05047607421875 213.1515045166016 C 68.34173583984375 217.3478698730469 76.13714599609375 220.9523773193359 84.2198486328125 223.86474609375 C 92.4539794921875 226.8317565917969 101.0713500976562 229.1105041503906 109.8326416015625 230.6378784179688 C 118.823974609375 232.2052459716797 128.0787353515625 233 137.339599609375 233 L 979 233 L 979 1 L 137.339599609375 1 M 137.339599609375 0 L 980 0 L 980 234 L 137.339599609375 234 C 61.489013671875 234 0 181.6172485351562 0 117 C 0 52.38275146484375 61.489013671875 0 137.339599609375 0 Z" stroke="none" fill="rgba(112,112,112,0)"/>
    </g>
    <g id="Path_1009" data-name="Path 1009" transform="translate(-185.5 300)" fill="#defff0">
      <path d="M185.5,0h850.011C1107.3,0,1165.5,49.249,1165.5,110s-58.2,110-129.989,110H185.5Z" stroke="none"/>
      <path d="M 186.5 1 L 186.5 219 L 1035.5107421875 219 C 1044.2734375 219 1053.030029296875 218.2530059814453 1061.537475585938 216.7798767089844 C 1069.8271484375 215.3443756103516 1077.980590820312 213.2026214599609 1085.771484375 210.4141235351562 C 1093.4189453125 207.677001953125 1100.794189453125 204.2893676757812 1107.692626953125 200.3456268310547 C 1114.52294921875 196.4407501220703 1120.9453125 191.9567565917969 1126.781127929688 187.0183715820312 C 1132.613891601562 182.0825042724609 1137.90869140625 176.6522521972656 1142.518310546875 170.8781280517578 C 1147.16943359375 165.05224609375 1151.163818359375 158.8252563476562 1154.390380859375 152.369873046875 C 1157.674560546875 145.7988739013672 1160.197021484375 138.9231262207031 1161.887084960938 131.9337463378906 C 1163.620849609375 124.7638778686523 1164.5 117.3842468261719 1164.5 110 C 1164.5 102.6157531738281 1163.620849609375 95.23612213134766 1161.887084960938 88.06625366210938 C 1160.197021484375 81.07687377929688 1157.674560546875 74.20112609863281 1154.390380859375 67.630126953125 C 1151.163818359375 61.17474365234375 1147.16943359375 54.94775390625 1142.518310546875 49.12187194824219 C 1137.90869140625 43.34774780273438 1132.613891601562 37.91749572753906 1126.781127929688 32.98162841796875 C 1120.9453125 28.04324340820312 1114.52294921875 23.55924987792969 1107.692626953125 19.65437316894531 C 1100.794189453125 15.71063232421875 1093.4189453125 12.322998046875 1085.771484375 9.58587646484375 C 1077.980590820312 6.797378540039062 1069.8271484375 4.655624389648438 1061.537475585938 3.220123291015625 C 1053.030029296875 1.746994018554688 1044.2734375 1 1035.5107421875 1 L 186.5 1 M 185.5 0 L 1035.5107421875 0 C 1107.301879882812 0 1165.5 49.24862670898438 1165.5 110 C 1165.5 170.7513732910156 1107.301879882812 220 1035.5107421875 220 L 185.5 220 L 185.5 0 Z" stroke="none" fill="rgba(112,112,112,0)"/>
    </g>
    <text id="Eating_and_nutrition_is_very_closely_linked_to_immunity._If_you_are_eating_healthy_your_body_is_much_more_equipped_to_fight_the_virus._" data-name="Eating and nutrition is very closely linked to immunity. If you are eating healthy, your body is much more equipped to fight the virus. 

" transform="translate(60 340)" fill="#707070" stroke="rgba(112,112,112,0)" stroke-width="1" font-size="40" font-family="AppleGothic"><tspan x="0" y="36">Eating and nutrition is very closely linked to </tspan><tspan x="0" y="85">immunity. If you are eating healthy, your body </tspan><tspan x="0" y="134">is much more equipped to fight the virus. </tspan></text>
    <g id="Path_2115" data-name="Path 2115" transform="translate(240 1126)" fill="#def7ff">
      <path d="M145.748,0H1040V314H145.748C65.254,314,0,243.709,0,157S65.254,0,145.748,0Z" stroke="none"/>
      <path d="M 145.748291015625 1 C 135.9317626953125 1 126.1214599609375 2.065338134765625 116.5901489257812 4.166259765625 C 107.30078125 6.2138671875 98.1632080078125 9.26934814453125 89.43109130859375 13.24786376953125 C 80.85601806640625 17.15478515625 72.58477783203125 21.99093627929688 64.84747314453125 27.62173461914062 C 57.181884765625 33.20025634765625 49.97320556640625 39.60720825195312 43.42156982421875 46.6646728515625 C 36.8687744140625 53.72332763671875 30.9193115234375 61.49079895019531 25.7386474609375 69.75120544433594 C 20.50762939453125 78.09187316894531 16.0146484375 87.00880432128906 12.3843994140625 96.25399780273438 C 8.686767578125 105.6712036132812 5.8468017578125 115.5262603759766 3.9434814453125 125.5455932617188 C 1.9903564453125 135.8274688720703 1 146.4102630615234 1 157 C 1 167.5897369384766 1.9903564453125 178.1725311279297 3.9434814453125 188.4544067382812 C 5.8468017578125 198.4737243652344 8.686767578125 208.3287963867188 12.3843994140625 217.7460021972656 C 16.0146484375 226.9912109375 20.50762939453125 235.9081420898438 25.7386474609375 244.2488098144531 C 30.9193115234375 252.5092010498047 36.8687744140625 260.2766723632812 43.42156982421875 267.3353271484375 C 49.97320556640625 274.3927917480469 57.181884765625 280.7997436523438 64.84747314453125 286.3782653808594 C 72.58477783203125 292.0090637207031 80.85601806640625 296.84521484375 89.43109130859375 300.7521362304688 C 98.1632080078125 304.7306518554688 107.30078125 307.7861328125 116.5901489257812 309.833740234375 C 126.1214599609375 311.9346618652344 135.9317626953125 313 145.748291015625 313 L 1039 313 L 1039 1 L 145.748291015625 1 M 145.748291015625 0 L 1040 0 L 1040 314 L 145.748291015625 314 C 65.25372314453125 314 0 243.7086639404297 0 157 C 0 70.29133605957031 65.25372314453125 0 145.748291015625 0 Z" stroke="none" fill="rgba(112,112,112,0)"/>
    </g>
    <g id="Path_2116" data-name="Path 2116" transform="translate(-185.5 800)" fill="#defff0">
      <path d="M185.5,0h884.705C1144.926,0,1205.5,62.68,1205.5,140s-60.574,140-135.295,140H185.5Z" stroke="none"/>
      <path d="M 186.5 1 L 186.5 279 L 1070.204956054688 279 C 1079.315185546875 279 1088.419189453125 278.0503845214844 1097.264526367188 276.1773681640625 C 1105.884887695312 274.3521118164062 1114.364135742188 271.6283874511719 1122.467041015625 268.0820007324219 C 1130.423461914062 264.599609375 1138.097900390625 260.2892456054688 1145.276733398438 255.2706298828125 C 1152.388427734375 250.2989959716797 1159.076049804688 244.5892486572266 1165.15380859375 238.3000030517578 C 1171.232421875 232.01025390625 1176.7509765625 225.0890045166016 1181.556396484375 217.7286224365234 C 1186.408081054688 210.2973785400391 1190.575439453125 202.3528747558594 1193.942260742188 194.1159973144531 C 1197.371337890625 185.7263793945312 1200.005126953125 176.9467468261719 1201.770263671875 168.0208740234375 C 1203.581665039062 158.8613739013672 1204.5 149.4338684082031 1204.5 140 C 1204.5 130.5661315917969 1203.581665039062 121.1386260986328 1201.770263671875 111.9791259765625 C 1200.005126953125 103.0532531738281 1197.371337890625 94.27362060546875 1193.942260742188 85.88400268554688 C 1190.575439453125 77.64712524414062 1186.408081054688 69.70262145996094 1181.556396484375 62.27137756347656 C 1176.7509765625 54.91099548339844 1171.232421875 47.98974609375 1165.15380859375 41.69999694824219 C 1159.076049804688 35.41075134277344 1152.388427734375 29.70100402832031 1145.276733398438 24.7293701171875 C 1138.097900390625 19.71075439453125 1130.423461914062 15.40036010742188 1122.467041015625 11.91799926757812 C 1114.364135742188 8.371612548828125 1105.884887695312 5.64788818359375 1097.264526367188 3.8226318359375 C 1088.419189453125 1.949615478515625 1079.315185546875 1 1070.204956054688 1 L 186.5 1 M 185.5 0 L 1070.204956054688 0 C 1144.926391601562 0 1205.5 62.68013000488281 1205.5 140 C 1205.5 217.3198699951172 1144.926391601562 280 1070.204956054688 280 L 185.5 280 L 185.5 0 Z" stroke="none" fill="rgba(112,112,112,0)"/>
    </g>
    <text id="A_healthy_diet_provides_minerals_and_vitamins_that_are_important_in_ensuring_enough_immune_cells_and_antibodies_which_is_important_to_fight_an_infection_or_virus._" data-name="A healthy diet provides minerals and vitamins that are important in ensuring enough immune cells and antibodies, which is important to fight an infection or virus. 
" transform="translate(440 560)" fill="#707070" stroke="rgba(112,112,112,0)" stroke-width="1" font-size="40" font-family="AppleGothic"><tspan x="0" y="36">A healthy diet provides minerals and </tspan><tspan x="0" y="85">vitamins that are important in ensuring </tspan><tspan x="0" y="134">enough immune cells and antibodies, which </tspan><tspan x="0" y="183">is important to fight an infection or virus. </tspan></text>
    <text id="Sources_of_high_quality_protein_fat_and_carbohydrates_can_maintain_a_healthy_weight_which_is_important_if_you_get_COVID-19_in_order_to_prevent_unintended_weight_loss._" data-name="Sources of high quality protein, fat, and carbohydrates can maintain a healthy weight, which is important if you get COVID-19 in order to prevent unintended weight loss. 
" transform="translate(60 840)" fill="#707070" stroke="rgba(112,112,112,0)" stroke-width="1" font-size="40" font-family="AppleGothic"><tspan x="0" y="36">Sources of high quality protein, fat, and </tspan><tspan x="0" y="85">carbohydrates can maintain a healthy weight, </tspan><tspan x="0" y="134">which is important if you get COVID-19 in order </tspan><tspan x="0" y="183">to prevent unintended weight loss. </tspan></text>
    <text id="Replacing_existing_eating_habits_with_higher-quality_foods_can_end_up_being_cheaper_as_the_cost_of_blood_testing_is_more_than_the_cost_of_supplements._Overall_healthy_diets_can_significantly_reduce_health_care_costs_in_the_future._" data-name="Replacing existing eating habits with higher-quality foods can end up being cheaper as the cost of blood testing is more than the cost of supplements. Overall healthy diets can significantly reduce health care costs in the future. " transform="translate(340 1160)" fill="#707070" stroke="rgba(112,112,112,0)" stroke-width="1" font-size="40" font-family="AppleGothic"><tspan x="0" y="36">Replacing existing eating habits with higher-quality </tspan><tspan x="0" y="85">foods can end up being cheaper as the cost of </tspan><tspan x="0" y="134">blood testing is more than the cost of </tspan><tspan x="0" y="183">supplements. Overall healthy diets can significantly </tspan><tspan x="0" y="232">reduce health care costs in the future. </tspan></text>
    <g id="_031-cell" data-name="031-cell" transform="translate(1003 263)">
      <path id="Path_2153" data-name="Path 2153" d="M113.178,0C57.121,0,2.439,56.149.145,103.7c-3.23,66.932,48.4,122,101.5,103.7,45.071-15.538,82.689-38.109,97.738-73.209,3.243-7.564,3.761-16.514,3.761-26.089,0-57.271-32.3-108.1-89.965-108.1Z" transform="translate(0)" fill="#ffd064"/>
      <path id="Path_2154" data-name="Path 2154" d="M203.084,134.952C203.084,90.137,182.115,50,130.642,50c-22.219,0-46.166,3.125-66.078,22.1-1.691,1.612-3.544,2.921-5.12,4.6-16.055,17.059-25.96,37.072-26.8,54.58C31.318,158.67,40.7,185.7,57.747,203.588c11.781,12.362,26.172,19.171,40.524,19.171a48.82,48.82,0,0,0,15.932-2.734c33.857-11.672,58.27-25.634,73.817-42.309,0,0,9.765-14.716,13.211-22.755,2.236-5.214,1.852-12.619,1.852-20.008Z" transform="translate(-17.464 -26.855)" fill="#fff5d7"/>
      <g id="Group_525" data-name="Group 525" transform="translate(48.904 64.957)">
        <path id="Path_2155" data-name="Path 2155" d="M128.217,221.083a3.747,3.747,0,0,1-2.2-.709,48.81,48.81,0,0,1,0-79.338,3.763,3.763,0,0,1,4.4,6.106,41.279,41.279,0,0,0,0,67.127,3.763,3.763,0,0,1-2.2,6.815Z" transform="translate(-105.649 -140.329)" fill="#ffd064"/>
      </g>
      <g id="Group_526" data-name="Group 526" transform="translate(120.381 64.954)">
        <path id="Path_2156" data-name="Path 2156" d="M263.828,221.08a3.763,3.763,0,0,1-2.2-6.815,41.279,41.279,0,0,0,0-67.127,3.763,3.763,0,0,1,4.4-6.106,48.809,48.809,0,0,1,0,79.338A3.747,3.747,0,0,1,263.828,221.08Z" transform="translate(-260.063 -140.323)" fill="#ffd064"/>
      </g>
      <path id="Path_2157" data-name="Path 2157" d="M209.813,192.635a29.961,29.961,0,0,1-5.762,17.713c-5.473,7.5-14.333,10.729-24.333,10.729-16.621,0-27.218-11.821-27.218-28.442,0-9.991,1.991-18.845,9.485-24.318a30.1,30.1,0,0,1,47.829,24.318Z" transform="translate(-81.908 -87.302)" fill="#ffa95f"/>
      <path id="Path_2158" data-name="Path 2158" d="M182.963,222.85a30.1,30.1,0,0,1-24.317-47.831,30.1,30.1,0,1,0,42.067,42.031A30.033,30.033,0,0,1,182.963,222.85Z" transform="translate(-78.57 -94.004)" fill="#ff8b5a"/>
      <path id="Path_2159" data-name="Path 2159" d="M161.887,32.508c-22.219,0-46.383,10.884-66.3,29.863-1.7,1.619-3.321,3.251-4.9,4.933,17.944-12.69,37.958-19.746,56.653-19.746,53.713,0,78.177,48.234,78.177,93.049,0,7.389-.321,14.945-2.655,20.16a71.613,71.613,0,0,1-4.7,8.711,79.1,79.1,0,0,0,16.1-23.761c2.236-5.214,2.544-12.771,2.544-20.16,0-44.815-23.444-93.049-74.917-93.049Z" transform="translate(-48.709 -17.46)" fill="#fff0af"/>
      <g id="Group_531" data-name="Group 531" transform="translate(139.191 139.19)">
        <path id="Path_2160" data-name="Path 2160" d="M0,0H7.524V18.81H0Z" transform="matrix(-0.866, 0.5, -0.5, -0.866, 39, 24.223)" fill="#ffd064"/>
        <circle id="Ellipse_412" data-name="Ellipse 412" cx="3.762" cy="3.762" r="3.762" transform="translate(22.571 6.048)" fill="#ffe07d"/>
        <path id="Path_2161" data-name="Path 2161" d="M0,0H7.524V18.81H0Z" transform="matrix(0.866, -0.5, 0.5, 0.866, 58.808, 73.586)" fill="#ffd064"/>
        <circle id="Ellipse_413" data-name="Ellipse 413" cx="3.762" cy="3.762" r="3.762" transform="translate(67.714 84.238)" fill="#ffe07d"/>
        <path id="Path_2162" data-name="Path 2162" d="M0,0H7.524V18.81H0Z" transform="matrix(-0.5, -0.866, 0.866, -0.5, 73.587, 39.002)" fill="#ffd064"/>
        <circle id="Ellipse_414" data-name="Ellipse 414" cx="3.762" cy="3.762" r="3.762" transform="translate(84.238 22.571)" fill="#ffe07d"/>
        <path id="Path_2163" data-name="Path 2163" d="M0,0H7.524V18.81H0Z" transform="matrix(0.5, 0.866, -0.866, 0.5, 24.223, 58.81)" fill="#ffd064"/>
        <circle id="Ellipse_415" data-name="Ellipse 415" cx="3.762" cy="3.762" r="3.762" transform="translate(6.048 67.714)" fill="#ffe07d"/>
        <path id="Path_2164" data-name="Path 2164" d="M0,0H7.524V18.81H0Z" transform="matrix(0.866, 0.5, -0.5, 0.866, 68.213, 7.926)" fill="#ffd064"/>
        <circle id="Ellipse_416" data-name="Ellipse 416" cx="3.762" cy="3.762" r="3.762" transform="translate(67.714 6.048)" fill="#ffe07d"/>
        <path id="Path_2165" data-name="Path 2165" d="M0,0H7.524V18.81H0Z" transform="matrix(-0.866, -0.5, 0.5, -0.866, 29.595, 89.886)" fill="#ffd064"/>
        <circle id="Ellipse_417" data-name="Ellipse 417" cx="3.762" cy="3.762" r="3.762" transform="translate(22.571 84.238)" fill="#ffe07d"/>
        <path id="Path_2166" data-name="Path 2166" d="M0,0H7.524V18.81H0Z" transform="matrix(0.5, -0.866, 0.866, 0.5, 7.925, 29.596)" fill="#ffd064"/>
        <circle id="Ellipse_418" data-name="Ellipse 418" cx="3.762" cy="3.762" r="3.762" transform="translate(6.048 22.571)" fill="#ffe07d"/>
        <path id="Path_2167" data-name="Path 2167" d="M0,0H7.524V18.81H0Z" transform="matrix(-0.5, 0.866, -0.866, -0.5, 89.886, 68.213)" fill="#ffd064"/>
        <circle id="Ellipse_419" data-name="Ellipse 419" cx="3.762" cy="3.762" r="3.762" transform="translate(84.238 67.714)" fill="#ffe07d"/>
        <path id="Path_2168" data-name="Path 2168" d="M0,0H7.524V18.81H0Z" transform="translate(94.047 45.143) rotate(90)" fill="#ffd064"/>
        <circle id="Ellipse_420" data-name="Ellipse 420" cx="3.762" cy="3.762" r="3.762" transform="translate(90.286 45.143)" fill="#ffe07d"/>
        <path id="Path_2169" data-name="Path 2169" d="M0,0H7.524V18.81H0Z" transform="translate(3.762 52.667) rotate(-90)" fill="#ffd064"/>
        <circle id="Ellipse_421" data-name="Ellipse 421" cx="3.762" cy="3.762" r="3.762" transform="translate(0 45.143)" fill="#ffe07d"/>
        <path id="Path_2170" data-name="Path 2170" d="M398.222,308.825h7.524v18.81h-7.524Z" transform="translate(-353.079 -305.063)" fill="#ffd064"/>
        <circle id="Ellipse_422" data-name="Ellipse 422" cx="3.762" cy="3.762" r="3.762" transform="translate(45.143)" fill="#ffe07d"/>
        <path id="Path_2171" data-name="Path 2171" d="M0,0H7.524V18.81H0Z" transform="translate(52.666 94.048) rotate(180)" fill="#ffd064"/>
        <circle id="Ellipse_423" data-name="Ellipse 423" cx="3.762" cy="3.762" r="3.762" transform="translate(45.143 90.286)" fill="#ffe07d"/>
        <path id="Path_2172" data-name="Path 2172" d="M403.8,371.429a29.959,29.959,0,0,1-5.769,17.723c-5.473,7.5-14.331,10.907-24.326,10.907-16.621,0-28.134-12.008-28.134-28.629,0-9.99,2.905-18.842,10.4-24.316A30.1,30.1,0,0,1,403.8,371.429Z" transform="translate(-324.8 -322.524)" fill="#ff8086"/>
        <path id="Path_2173" data-name="Path 2173" d="M378.012,401.646a30.1,30.1,0,0,1-24.319-47.828,30.1,30.1,0,1,0,42.062,42.039A30.008,30.008,0,0,1,378.012,401.646Z" transform="translate(-322.523 -329.229)" fill="#e5646e"/>
        <g id="Group_527" data-name="Group 527" transform="translate(45.143 30.095)">
          <path id="Path_2174" data-name="Path 2174" d="M401.984,377a3.761,3.761,0,0,1-3.762-3.762v-3.762a3.762,3.762,0,1,1,7.524,0v3.762A3.761,3.761,0,0,1,401.984,377Z" transform="translate(-398.222 -365.714)" fill="#ffe07d"/>
        </g>
        <g id="Group_528" data-name="Group 528" transform="translate(45.143 56.429)">
          <path id="Path_2175" data-name="Path 2175" d="M401.984,433.889a3.761,3.761,0,0,1-3.762-3.762v-3.762a3.762,3.762,0,0,1,7.524,0v3.762A3.761,3.761,0,0,1,401.984,433.889Z" transform="translate(-398.222 -422.603)" fill="#ffe07d"/>
        </g>
        <g id="Group_529" data-name="Group 529" transform="translate(56.429 45.143)">
          <path id="Path_2176" data-name="Path 2176" d="M430.127,405.746h-3.762a3.762,3.762,0,0,1,0-7.524h3.762a3.762,3.762,0,1,1,0,7.524Z" transform="translate(-422.603 -398.222)" fill="#ffe07d"/>
        </g>
        <g id="Group_530" data-name="Group 530" transform="translate(30.095 45.143)">
          <path id="Path_2177" data-name="Path 2177" d="M373.238,405.746h-3.762a3.762,3.762,0,1,1,0-7.524h3.762a3.762,3.762,0,0,1,0,7.524Z" transform="translate(-365.714 -398.222)" fill="#ffe07d"/>
        </g>
      </g>
    </g>
    <g id="Flat" transform="translate(57.004 539.002)">
      <g id="Color_copy" data-name="Color copy" transform="translate(2.996 20.998)">
        <g id="Group_541" data-name="Group 541">
          <path id="Path_2178" data-name="Path 2178" d="M92.2,90.642a9.567,9.567,0,0,0,12.912-9.051,14.481,14.481,0,1,0,0-28.962,14.337,14.337,0,0,0-7.1,1.931A14.48,14.48,0,0,0,95.261,51.4a9.63,9.63,0,1,0-11.3-15.374A14.385,14.385,0,0,0,57.407,39.21a14.428,14.428,0,0,0-14.843,24.3A9.625,9.625,0,1,0,55.6,76.547a14.38,14.38,0,0,0,10.9,5.044,14.428,14.428,0,0,0,25.7,9.051Z" transform="translate(129.02 7.718)" fill="#5ba006"/>
          <g id="Group_532" data-name="Group 532" transform="translate(139.792 1.173)">
            <path id="Path_2179" data-name="Path 2179" d="M28.962,0A28.962,28.962,0,0,1,57.925,28.962,14.481,14.481,0,0,1,43.443,43.443H14.481A14.481,14.481,0,0,1,0,28.962,28.962,28.962,0,0,1,28.962,0Z" transform="translate(42.526 0) rotate(45)" fill="#f9e109"/>
            <path id="Path_2180" data-name="Path 2180" d="M36.948,67.277a17.044,17.044,0,0,1,1.588-25.506L54.012,29.732,74.493,50.213,62.454,65.689a17.044,17.044,0,0,1-25.506,1.588Z" transform="translate(-31.956 11.254)" fill="#fcbc04"/>
            <path id="Path_2181" data-name="Path 2181" d="M85.671,48.751a14.481,14.481,0,0,1-20.476,0L44.714,28.269a14.177,14.177,0,0,1-2.341-3.2A28.2,28.2,0,0,0,39.887,27.1a14.481,14.481,0,0,0,0,20.476L60.368,68.059a14.481,14.481,0,0,0,20.476,0A28.76,28.76,0,0,0,89.05,44.623a28.871,28.871,0,0,1-3.379,4.127Z" transform="translate(-17.831 -6.591)" fill="#fcbc04"/>
            <path id="Path_2182" data-name="Path 2182" d="M53.965,29.732,48.6,33.912c.188.212.338.444.541.647L66.516,51.936A16.952,16.952,0,0,1,36.95,43.282,17,17,0,1,0,62.427,65.689L74.466,50.213Z" transform="translate(-31.91 11.254)" fill="#e59730"/>
          </g>
          <g id="Group_534" data-name="Group 534" transform="translate(77.225 9.663)">
            <path id="Path_2183" data-name="Path 2183" d="M19,61.616A19.308,19.308,0,0,1,34.49,42.694a14.3,14.3,0,0,1-1.009-5.213,14.481,14.481,0,0,1,28.962,0c0,.241-.058.483-.072.7a19.1,19.1,0,0,1,4.9-.7A19.308,19.308,0,0,1,86.579,56.789a19.077,19.077,0,0,1-2.414,9.171A19.115,19.115,0,0,1,81.5,97.694a14.65,14.65,0,0,1,.256,2.539A14.481,14.481,0,0,1,67.27,114.714a14.336,14.336,0,0,1-7.1-1.931A14.452,14.452,0,0,1,34.562,99.61a19,19,0,0,1-4.615-20.66A19.25,19.25,0,0,1,19,61.616Z" transform="translate(-18.971 -23)" fill="#a1d51c"/>
            <path id="Path_2184" data-name="Path 2184" d="M86.6,73.346a14.336,14.336,0,0,1-7.1-1.931A14.452,14.452,0,0,1,53.893,58.242a19,19,0,0,1-4.615-20.66,19.308,19.308,0,0,1-10.62-13.863,14.22,14.22,0,0,0-4.175,16.224A19.255,19.255,0,0,0,29.946,76.2a19,19,0,0,0,4.615,20.66A14.457,14.457,0,0,0,60.2,110.031a14.336,14.336,0,0,0,7.1,1.931A14.481,14.481,0,0,0,81.774,97.481a14.65,14.65,0,0,0-.256-2.539,19.231,19.231,0,0,0,9.91-16.769,18.551,18.551,0,0,0-.893-5.435,14.288,14.288,0,0,1-3.934.608Z" transform="translate(-18.994 -20.248)" fill="#7ab92d"/>
            <g id="Group_533" data-name="Group 533" transform="translate(14.513 24.139)">
              <path id="Path_2185" data-name="Path 2185" d="M40.658,79.979h-.193a4.827,4.827,0,0,1-4.634-5.015A71.441,71.441,0,0,0,25.694,35.315a4.827,4.827,0,1,1,8.274-4.972,81.022,81.022,0,0,1,11.522,45,4.827,4.827,0,0,1-4.832,4.634Z" transform="translate(-10.511 -28.001)" fill="#5ba006"/>
              <path id="Path_2186" data-name="Path 2186" d="M49.511,53.137a4.75,4.75,0,0,1-1.887-.386L24.937,43.1a4.827,4.827,0,1,1,3.784-8.882L47,41.986l4.344-10.074A4.828,4.828,0,1,1,60.2,35.745L53.928,50.226a4.827,4.827,0,0,1-4.417,2.911Z" transform="translate(-22.001 -24.179)" fill="#5ba006"/>
              <path id="Path_2187" data-name="Path 2187" d="M44.648,55.722a4.731,4.731,0,0,1-2.018-.444L26.909,48.037a4.827,4.827,0,1,1,4.035-8.766l12.068,5.546,6.106-8.751a4.827,4.827,0,1,1,7.917,5.523L48.621,53.656A4.827,4.827,0,0,1,44.648,55.722Z" transform="translate(-14.449 -5.042)" fill="#5ba006"/>
            </g>
          </g>
          <g id="Group_536" data-name="Group 536" transform="translate(4.846)">
            <path id="Path_2188" data-name="Path 2188" d="M4,35.488a14.481,14.481,0,0,1,26.418-8.206A19.274,19.274,0,0,1,56.668,41.107,18.772,18.772,0,0,1,78.694,50.2a14.65,14.65,0,0,1,2.539-.232A14.481,14.481,0,0,1,95.714,64.451a14.317,14.317,0,0,1-3.109,8.862,19.134,19.134,0,0,1-4.7,25.873,14.433,14.433,0,1,1-25.366,12.661,18.714,18.714,0,0,1-19.308-5.035,14.447,14.447,0,0,1-18.825-18.85,18.748,18.748,0,0,1-5.2-18.758c-.241.014-.483.072-.724.072A14.423,14.423,0,0,1,7.76,45.143,14.375,14.375,0,0,1,4,35.488Z" transform="translate(-3.998 -20.998)" fill="#c4f236"/>
            <path id="Path_2189" data-name="Path 2189" d="M89.624,97.658A14.2,14.2,0,0,1,72.2,87.623,18.714,18.714,0,0,1,52.89,82.588a14.447,14.447,0,0,1-18.825-18.85,18.748,18.748,0,0,1-5.2-18.758c-.241,0-.483.063-.724.063A14.414,14.414,0,0,1,17.324,21.024,14.365,14.365,0,0,0,7.762,45.043,14.423,14.423,0,0,0,18.483,69.179c.241,0,.483-.058.7-.072a18.748,18.748,0,0,0,5.2,18.758,14.447,14.447,0,0,0,18.825,18.85,18.714,18.714,0,0,0,19.308,5.035A14.438,14.438,0,1,0,87.91,99.106a21.268,21.268,0,0,0,1.714-1.448Z" transform="translate(-4 -20.899)" fill="#a1d51c"/>
            <g id="Group_535" data-name="Group 535" transform="translate(14.48 14.49)">
              <path id="Path_2190" data-name="Path 2190" d="M62.185,91.447a4.827,4.827,0,0,1-4.547-3.206A96.575,96.575,0,0,0,9.672,34.155a4.829,4.829,0,1,1,4.315-8.64,106.2,106.2,0,0,1,52.74,59.479,4.827,4.827,0,0,1-4.542,6.454Z" transform="translate(-6.999 -20.156)" fill="#7ab92d"/>
              <path id="Path_2191" data-name="Path 2191" d="M34.135,52.141H14.827a4.827,4.827,0,1,1,0-9.654H30.655l3.731-11.179a4.833,4.833,0,0,1,9.171,3.051L38.731,48.839A4.827,4.827,0,0,1,34.135,52.141Z" transform="translate(4.484 -8.697)" fill="#7ab92d"/>
              <path id="Path_2192" data-name="Path 2192" d="M12.835,52.962a4.827,4.827,0,0,1-2.163-9.147l6.99-3.49v-11.5a4.827,4.827,0,0,1,9.654,0V43.308a4.827,4.827,0,0,1-2.669,4.32l-9.654,4.827a4.827,4.827,0,0,1-2.158.507Z" transform="translate(-3.178 -24)" fill="#7ab92d"/>
              <path id="Path_2193" data-name="Path 2193" d="M37.14,66.393a4.909,4.909,0,0,1-.647-.043L17.184,63.762a4.827,4.827,0,1,1,1.284-9.568l14.737,1.975,4.006-22.2a4.827,4.827,0,1,1,9.5,1.718L41.885,62.405a4.827,4.827,0,0,1-4.745,3.987Z" transform="translate(15.961 -1.054)" fill="#7ab92d"/>
            </g>
          </g>
          <g id="Group_537" data-name="Group 537" transform="translate(19.33 82.069)">
            <path id="Path_2194" data-name="Path 2194" d="M7,38H229.044v9.654a77.233,77.233,0,0,1-77.233,77.233H84.233A77.233,77.233,0,0,1,7,47.654Z" transform="translate(-7 -38)" fill="#84d2f4"/>
            <path id="Path_2195" data-name="Path 2195" d="M220.442,78.113a48.174,48.174,0,0,0-75.785-4.489A14.447,14.447,0,0,0,132.5,66.962c-.294,0-.57.068-.859.087a14.418,14.418,0,0,0-27.7,1.448,9.654,9.654,0,1,0-5.233,17.773c.314,0,.608-.063.917-.092a13.472,13.472,0,0,0-.087,9.543A77.184,77.184,0,0,1,28.833,38H7v9.654a77.233,77.233,0,0,0,77.233,77.233h67.579a77.185,77.185,0,0,0,72.242-50.119C222.861,75.892,221.707,77.06,220.442,78.113Z" transform="translate(-7 -38)" fill="#57b7eb"/>
          </g>
          <path id="Path_2196" data-name="Path 2196" d="M83.977,66.145A14.481,14.481,0,0,0,69.5,51.664c-.294,0-.57.068-.859.087a14.418,14.418,0,0,0-27.7,1.448,9.654,9.654,0,1,0-5.233,17.773c.314,0,.608-.063.917-.092a13.931,13.931,0,0,0,.145,10.306A14.443,14.443,0,1,0,50.188,105.8a14.351,14.351,0,0,0,23.459-6.57A14.351,14.351,0,0,0,80.217,75.8a14.375,14.375,0,0,0,3.76-9.654Z" transform="translate(84.991 59.368)" fill="#c4f236"/>
          <path id="Path_2197" data-name="Path 2197" d="M77.407,44.491a14.39,14.39,0,0,1-3.76,1.781,14.351,14.351,0,0,1-23.459,6.57A14.385,14.385,0,0,1,27.1,47.479a9.529,9.529,0,0,0-1.052,4.3,9.654,9.654,0,0,0,9.654,9.654c.314,0,.608-.063.917-.092a13.931,13.931,0,0,0,.145,10.306A14.443,14.443,0,1,0,50.188,96.261a14.351,14.351,0,0,0,23.459-6.57,14.351,14.351,0,0,0,6.57-23.435,14.375,14.375,0,0,0-2.809-21.765Z" transform="translate(84.991 68.91)" fill="#a1d51c"/>
          <g id="Group_538" data-name="Group 538" transform="translate(162.265 62.761)">
            <circle id="Ellipse_424" data-name="Ellipse 424" cx="48.27" cy="48.27" r="48.27" transform="translate(0.162 33.789)" fill="#f89c8d"/>
            <path id="Path_2198" data-name="Path 2198" d="M109.179,99.024A48.27,48.27,0,0,1,63.805,67.165L75.39,55.58l6.676,31.81L99.525,65.234l9.76,24.241,18.536-22.422a48.314,48.314,0,1,0,5.31,25.559,48.01,48.01,0,0,1-23.952,6.41Z" transform="translate(-36.611 -7.31)" fill="#f8664f"/>
            <path id="Path_2199" data-name="Path 2199" d="M97.924,34A50.79,50.79,0,0,0,56.605,55.264l-8.96,12.525,14.481,4.827A53.059,53.059,0,0,1,108.369,57.8l2.027.338,1.448-7.173A14.182,14.182,0,0,0,97.924,34Z" transform="translate(5.615 -34)" fill="#a1d51c"/>
            <path id="Path_2200" data-name="Path 2200" d="M91.088,39.514a95.763,95.763,0,0,1-25.014-3.171A50.686,50.686,0,0,0,56.6,46.306L47.645,58.823,62.126,63.65a53.059,53.059,0,0,1,46.243-14.819l2.027.338L111.845,42a13.964,13.964,0,0,0,.072-4.629A99.267,99.267,0,0,1,91.088,39.514Z" transform="translate(5.615 -25.033)" fill="#7ab92d"/>
            <path id="Path_2201" data-name="Path 2201" d="M48.23,43.589l-3.34,4.175a17.049,17.049,0,0,0-2.515,16.977l5.966,14.916L62.823,65.176,69.5,96.986,86.958,74.83l9.76,24.241,18.864-22.793A17.049,17.049,0,0,0,99.638,48.6l-6.034,1a17.02,17.02,0,0,1-12.256-2.631L71,40.075A17.054,17.054,0,0,0,48.23,43.589Z" transform="translate(-19.217 -21.732)" fill="#a1d51c"/>
            <path id="Path_2202" data-name="Path 2202" d="M106.266,69.974c-24,0-43.443-14.047-43.443-31.376,0-.444.068-.879.092-1.323A16.986,16.986,0,0,0,48.23,43.55l-3.34,4.175A17.049,17.049,0,0,0,42.375,64.7l5.966,14.925L62.823,65.147,69.5,96.957,86.958,74.8l9.76,24.241,18.864-22.793A17.011,17.011,0,0,0,119.1,68.6a59.161,59.161,0,0,1-12.835,1.371Z" transform="translate(-19.217 -21.703)" fill="#7ab92d"/>
          </g>
          <g id="Group_540" data-name="Group 540" transform="translate(0 135.159)">
            <path id="Path_2203" data-name="Path 2203" d="M44.657,54.229l4.827,8.36L17.935,85.277A8.73,8.73,0,1,1,9.241,70.236Z" transform="translate(1.221 -28.981)" fill="#a1d51c"/>
            <path id="Path_2204" data-name="Path 2204" d="M44.7,54.229,9.283,70.211a8.453,8.453,0,0,0-1.931,1.236,8.26,8.26,0,0,0,1.1.024l17.764-1.776-8.235,5.918A8.689,8.689,0,0,1,5.644,73.344,8.689,8.689,0,0,0,17.977,85.267L49.526,62.58Z" transform="translate(1.179 -28.981)" fill="#7ab92d"/>
            <path id="Path_2205" data-name="Path 2205" d="M44.657,81.69l4.827-8.36L17.935,50.642A8.736,8.736,0,1,0,9.241,65.7Z" transform="translate(1.221 -48.998)" fill="#c4f236"/>
            <path id="Path_2206" data-name="Path 2206" d="M32.871,56.183a10.62,10.62,0,0,1-11.513,1.839L4.386,50.362A8.713,8.713,0,0,0,9.214,60.5L44.639,76.471l4.827-8.36Z" transform="translate(1.239 -43.78)" fill="#a1d51c"/>
            <path id="Path_2207" data-name="Path 2207" d="M51.27,57.1V66.75L12.606,70.612a8.732,8.732,0,1,1,0-17.377Z" transform="translate(-2.979 -32.953)" fill="#c4f236"/>
            <path id="Path_2208" data-name="Path 2208" d="M51.287,55.378,33.91,53.64A14.443,14.443,0,0,1,25,58.009L12.623,59.239a8.732,8.732,0,0,1-8.129-3.862,8.689,8.689,0,0,0,8.129,13.516l38.665-3.862Z" transform="translate(-2.996 -31.235)" fill="#a1d51c"/>
            <path id="Path_2209" data-name="Path 2209" d="M10,76.265a26.819,26.819,0,0,0,28.875,26.742l77.378-5.952a20.852,20.852,0,0,0,0-41.58L38.875,49.523A26.819,26.819,0,0,0,10,76.265Z" transform="translate(23.811 -47.295)" fill="#f89c8d"/>
            <path id="Path_2210" data-name="Path 2210" d="M126.593,82.623l-77.267-7.2a26.829,26.829,0,0,1-24.3-25.41,26.819,26.819,0,0,0,13.849,50.824l77.378-5.952a20.848,20.848,0,0,0,17.7-12.927,20.756,20.756,0,0,1-7.356.666Z" transform="translate(23.815 -45.123)" fill="#f8664f"/>
            <g id="Group_539" data-name="Group 539" transform="translate(62.773 2.228)">
              <path id="Path_2211" data-name="Path 2211" d="M16,49.46l9.654.724V66.548a4.827,4.827,0,0,1-9.654,0Z" transform="translate(-16 -49.46)" fill="#cc5144"/>
              <path id="Path_2212" data-name="Path 2212" d="M30.654,59.827V79.135L21,79.859V59.827a4.827,4.827,0,1,1,9.654,0Z" transform="translate(3.135 -28.258)" fill="#cc5144"/>
              <path id="Path_2213" data-name="Path 2213" d="M24,50.08l9.654.724V69A4.827,4.827,0,1,1,24,69Z" transform="translate(14.616 -47.087)" fill="#cc5144"/>
              <path id="Path_2214" data-name="Path 2214" d="M28,50.38l9.654.772V63.027a4.827,4.827,0,0,1-9.654,0Z" transform="translate(29.925 -45.939)" fill="#cc5144"/>
              <path id="Path_2215" data-name="Path 2215" d="M40.654,59.827V74.839a19.53,19.53,0,0,1-4.779.965L31,76.191V59.827a4.827,4.827,0,0,1,9.654,0Z" transform="translate(41.406 -28.258)" fill="#cc5144"/>
              <path id="Path_2216" data-name="Path 2216" d="M33.654,50.8V69A4.827,4.827,0,1,1,24,69V50.08Z" transform="translate(14.616 -47.087)" fill="#cc5144"/>
              <path id="Path_2217" data-name="Path 2217" d="M25.654,50.184V66.548a4.827,4.827,0,0,1-9.654,0V49.46Z" transform="translate(-16 -49.46)" fill="#cc5144"/>
              <path id="Path_2218" data-name="Path 2218" d="M40.654,59.827V74.839a19.53,19.53,0,0,1-4.779.965L31,76.191V59.827a4.827,4.827,0,0,1,9.654,0Z" transform="translate(41.406 -28.258)" fill="#cc5144"/>
              <path id="Path_2219" data-name="Path 2219" d="M30.654,59.827V79.135L21,79.859V59.827a4.827,4.827,0,1,1,9.654,0Z" transform="translate(3.135 -28.258)" fill="#cc5144"/>
              <path id="Path_2220" data-name="Path 2220" d="M37.654,51.152V63.027a4.827,4.827,0,0,1-9.654,0V50.38Z" transform="translate(29.925 -45.939)" fill="#cc5144"/>
            </g>
          </g>
        </g>
      </g>
    </g>
    <g id="avocado" transform="translate(976.187 819.999)">
      <path id="Path_2221" data-name="Path 2221" d="M329.35,28.357h-.061a3.575,3.575,0,0,1-3.515-3.622A31.481,31.481,0,0,0,318.3,5.906a3.575,3.575,0,1,1,5.423-4.66,38.188,38.188,0,0,1,9.2,23.6A3.575,3.575,0,0,1,329.35,28.357Z" transform="translate(-166.614 0)" fill="#994e37"/>
      <path id="Path_2222" data-name="Path 2222" d="M372.939,187.929c-7.138-32.959-20.232-36.476-26.379-80.478-4.615-33.042-23.2-54.583-49.852-54.583C279,52.868,264.853,62.38,256,78.453a84.221,84.221,0,0,1,9.144,29c6.146,44,19.241,47.519,26.379,80.478,4.646,21.451-2.6,56.175-35.523,71.921,10.7,5.119,24.107,8.237,40.708,8.237C364.383,268.087,379.1,216.352,372.939,187.929Z" transform="translate(-133.974 -28.086)" fill="#348021"/>
      <path id="Path_2223" data-name="Path 2223" d="M296.708,421.884a101.093,101.093,0,0,1-31.9-4.706A67.307,67.307,0,0,1,256,422.228c10.7,5.118,24.107,8.236,40.708,8.236,61.566,0,79.3-42.813,77.361-71.943C372.259,386.783,352.454,421.884,296.708,421.884Z" transform="translate(-133.974 -190.463)" fill="#2e701b"/>
      <path id="Path_2224" data-name="Path 2224" d="M81.318,268.087c67.675,0,82.387-51.735,76.231-80.158-7.138-32.959-20.232-36.476-26.379-80.478-4.615-33.042-23.2-54.583-49.853-54.583S36.081,74.409,31.465,107.451c-6.146,44-19.24,47.519-26.378,80.478-6.156,28.423,8.556,80.158,76.231,80.158Z" transform="translate(0 -28.086)" fill="#98db7c"/>
      <path id="Path_2225" data-name="Path 2225" d="M81.322,421.884c-55.746,0-75.55-35.1-77.361-63.363-1.935,29.13,15.8,71.943,77.361,71.943s79.3-42.813,77.361-71.943c-1.811,28.262-21.616,63.363-77.361,63.363Z" transform="translate(-0.004 -190.463)" fill="#82d361"/>
      <path id="Path_2226" data-name="Path 2226" d="M97.493,269.981c58.742,0,67.222-44.905,61.878-69.577-6.2-28.608-17.562-31.661-22.9-69.855-4.006-28.681-15.843-47.378-38.982-47.378s-34.975,18.7-38.982,47.378c-5.335,38.194-16.7,41.246-22.9,69.855C30.271,225.075,38.751,269.981,97.493,269.981Z" transform="translate(-16.175 -44.185)" fill="#ffeca1"/>
      <path id="Path_2227" data-name="Path 2227" d="M97.493,404.233c-46.562,0-61.541-28.213-63.092-52.2-1.654,25.217,10.816,60.78,63.092,60.78s64.745-35.562,63.091-60.78C159.034,376.02,144.055,404.233,97.493,404.233Z" transform="translate(-16.175 -187.017)" fill="#ffdf85"/>
      <path id="Path_2228" data-name="Path 2228" d="M135.3,355.506c16.177,0,32.124-9.6,29.291-33.025-2.579-21.324-17.306-38.72-29.291-38.72s-26.713,17.4-29.291,38.72C103.172,345.9,119.119,355.506,135.3,355.506Z" transform="translate(-54.114 -150.747)" fill="#994e37"/>
      <path id="Path_2229" data-name="Path 2229" d="M135.3,391.755c-13.808,0-27.444-7-29.383-23.61-2.356,22.815,13.4,32.19,29.383,32.19s31.739-9.375,29.383-32.19C162.743,384.758,149.106,391.755,135.3,391.755Z" transform="translate(-54.117 -195.576)" fill="#844131"/>
    </g>
    <g id="muscle" transform="translate(22.555 1100)">
      <g id="Group_542" data-name="Group 542" transform="translate(20.153 0)">
        <path id="Path_2230" data-name="Path 2230" d="M253.378,66.787l-29.629-39.6A67.821,67.821,0,0,0,169.446,0h-25.41A31.787,31.787,0,0,0,112.25,31.787V39.7c0,16.266,12.534,25.366,28.1,25.366h14.275a11.271,11.271,0,0,0,11.189-11.38v-3.43a17.53,17.53,0,0,1,17.53,17.53v63.349h-3.886a90.124,90.124,0,0,0-67.736,30.674H88.346c-45.74,0-68.192,25.3-68.192,59.529,0,31.522,26.292,58.661,59.5,58.661,8.508,0,36.928-3.673,61.453-10.528,70.968-20.022,136.34-66.989,136.34-139.341,0-21.245-1.868-34.975-24.067-63.343Z" transform="translate(-20.153 0)" fill="#fed2a4"/>
        <path id="Path_2231" data-name="Path 2231" d="M144.036,0a31.787,31.787,0,0,0-31.788,31.787V39.7c0,16.266,12.534,25.366,28.1,25.366h14.275a11.271,11.271,0,0,0,11.189-11.38v-3.43a17.53,17.53,0,0,1,17.53,17.53v63.349h-3.886a90.124,90.124,0,0,0-67.736,30.674H88.345c-45.74,0-68.192,25.3-68.192,59.529,0,26.655,18.8,50.175,44.684,56.8,37.3-5.756,96.358-42.688,96.358-42.688l17.522-11.99a85.726,85.726,0,0,0,37.314-70.748V72A71.994,71.994,0,0,0,144.036,0Z" transform="translate(-20.153 0)" fill="#ffbd86"/>
      </g>
      <g id="Group_543" data-name="Group 543" transform="translate(85.347 90.282)">
        <path id="Path_2232" data-name="Path 2232" d="M194.47,180.883a4.225,4.225,0,0,0-7.318,4.225l7.808,13.521a4.216,4.216,0,0,0,5.769,1.544,4.218,4.218,0,0,0,1.549-5.769Z" transform="translate(-158.015 -168.336)" fill="#d4d4ff"/>
        <path id="Path_2233" data-name="Path 2233" d="M260.1,160.25a4.23,4.23,0,0,0-4.225,4.225V180.08a4.225,4.225,0,0,0,8.451,0V164.475A4.234,4.234,0,0,0,260.1,160.25Z" transform="translate(-188.265 -160.25)" fill="#d4d4ff"/>
        <path id="Path_2234" data-name="Path 2234" d="M155.73,237.862l-13.521-7.808a4.225,4.225,0,1,0-4.225,7.318L151.5,245.18a4.225,4.225,0,0,0,4.225-7.318Z" transform="translate(-135.872 -190.482)" fill="#d4d4ff"/>
      </g>
      <g id="Group_544" data-name="Group 544" transform="translate(136.053 152.914)">
        <path id="Path_2235" data-name="Path 2235" d="M294.15,271.423a26.836,26.836,0,0,0-15.2,4.691,9.718,9.718,0,0,1-10.941,0,26.94,26.94,0,0,0-42.13,22.187c0,15.287,10.768,26.1,20.15,33.805,6.118,5.028,10.979,8.247,19.152,13.5a15.349,15.349,0,0,0,16.6,0c6.571-4.225,10.861-7.042,15.377-10.5,1.225-.939,2.466-1.923,3.775-3,9.381-7.709,20.15-18.518,20.15-33.805A26.9,26.9,0,0,0,294.15,271.423Z" transform="translate(-225.876 -271.423)" fill="#ff8e9e"/>
        <path id="Path_2236" data-name="Path 2236" d="M265.313,292.667a26.712,26.712,0,0,1,4.889-15.435,9.715,9.715,0,0,1-2.2-1.118,26.94,26.94,0,0,0-42.13,22.187c0,15.287,10.768,26.1,20.15,33.805,6.118,5.028,10.979,8.247,19.152,13.5a15.349,15.349,0,0,0,16.6,0c6.571-4.225,10.861-7.042,15.377-10.5a140.62,140.62,0,0,1-11.69-8.632C276.081,318.763,265.313,307.954,265.313,292.667Z" transform="translate(-225.876 -271.423)" fill="#ea5b70"/>
      </g>
    </g>
  </g>
</svg>
