<svg xmlns="http://www.w3.org/2000/svg" xmlns:xlink="http://www.w3.org/1999/xlink" width="102" height="102" viewBox="0 0 102 102"><defs><clipPath id="a"><circle cx="51" cy="51" r="51" fill="#fff" stroke="#707070" stroke-width="1"/></clipPath></defs><g clip-path="url(#a)"><g transform="translate(0 0.013)"><g transform="translate(3.971 3.696)"><path d="M125.472,19.423l-5.281,3.52-8.8-1.76-5.281-1.76-7.041,1.76-5.281-1.76,3.52-7.041h7.041l6.9-3.45A50.415,50.415,0,0,1,125.472,19.423Z" transform="translate(-41.439 -7.278)" fill="#03aa6f"/><path d="M50.16,11.282,48.4,16.562l-5.281,1.76-5.281,8.8-8.8,5.281-12.321,1.76v5.281l3.52,3.52v7.041l-5.28-3.521-5.281-3.52L6.613,33.76A51.014,51.014,0,0,1,34.6,6.177l5,3.344Z" transform="translate(-6.613 -6.177)" fill="#03aa6f"/><path d="M60.4,86.213l-1.76,8.8L51.6,102.055v5.281l-7.041,5.28v8.8l-5.281-1.76-3.521-8.8v-17.6l-8.8-1.76-3.52-7.041V79.172l3.52-3.52,5.281-5.281,3.52,7.041H48.081l5.281,8.8Z" transform="translate(-13.335 -31.823)" fill="#03aa6f"/><path d="M131.87,41.349a51,51,0,0,1-2.816,54.338L124.3,90.934V83.893l-3.52-7.041-3.52-7.041V62.77l-5.281-3.52-7.041,1.76L92.617,55.729l-1.76-12.321,5.281-5.281H106.7l3.52,5.281,10.561,1.76,10.561-3.52Z" transform="translate(-40.269 -18.941)" fill="#03aa6f"/></g><path d="M61.6,17.624l7.041-1.76,5.281,1.76,8.8,1.76L88,15.864a50.269,50.269,0,0,1,7.569,10.262l-.528.3-10.561,3.52-10.561-1.76L70.4,22.9H59.84L54.56,28.185l1.76,12.321,12.321,5.281,7.041-1.76,5.281,3.52v7.041l3.52,7.041L88,68.67v7.041l4.753,4.753A51.046,51.046,0,0,1,3.971,31.3l3.063,9.206,5.281,3.52,5.281,3.52-3.521,3.521v5.281l3.52,7.041,8.8,1.76v17.6l3.52,8.8,5.281,1.76v-8.8l7.041-5.281V73.95l7.041-7.041,1.76-8.8H44l-5.281-8.8H26.4l-3.52-7.041-5.281,5.281V40.506l-3.52-3.52V31.705L26.4,29.945l8.8-5.281,5.281-8.8,5.281-1.76,1.76-5.281L36.957,7.062l-5-3.344A51.049,51.049,0,0,1,73.781,5.373l-6.9,3.45H59.84l-3.52,7.041Z" transform="translate(0 -0.022)" fill="#86daf1"/></g></g></svg>