<svg id="Capa_1" enable-background="new 0 0 512.295 512.295" height="512" viewBox="0 0 512.295 512.295" width="512" xmlns="http://www.w3.org/2000/svg"><g><g fill="#fdbbab"><path d="m87.87 130.347c.001.001.007.006.015.012-.001-.001-.003-.002-.004-.003-.003-.003-.006-.005-.011-.009z"/><path d="m497 30.807h-132.89s-128.22-30.66-157.89-30.66c-46.01 0-86.85 29.44-101.04 73.21l-17.31 56.99c-.001-.001.004.003.012.009.003.002.005.004.008.006-.002-.001-.003-.002-.005-.004.018.014.056.044.12.095-.018-.014-.037-.029-.055-.043.034.027.061.048.082.065.008.006.014.011.023.018-.004-.004-.009-.007-.013-.011.019.015.034.027.043.034-.001 0-.002-.001-.002-.002.001.001.003.002.004.003.014.011.016.012.01.008 1.347 1.064 9.865 7.791 54.103 42.731.84-2.071 33.084-81.544 33.33-82.15 3.65-9 13.57-13.73 22.86-10.91l75.985 23.02c15.262 4.624 11.928 27.13-4.019 27.13h-46.456l31.26 80.24c.36.001 204.933.553 241 .65.15 0 .3 0 .45-.01 7.98-.3 14.39-6.84 14.44-14.9.03-4.65.21-34.22.41-65.98.25-37.92.51-78.96.54-84.45.05-8.309-6.68-15.089-15-15.089z"/><path d="m88.086 130.518c.005.004.009.007.012.009-.003-.002-.006-.005-.01-.008-.001 0-.002-.001-.002-.001z"/><path d="m88.006 130.455c.013.01.025.02.037.029-.003-.002-.006-.005-.009-.007-.011-.008-.019-.016-.028-.022z"/></g><g><path d="m362.295 252.142 39.615 19.979 5.385 240.021h-190.85v-177l18-18h39.1" fill="#ffa58d"/><path d="m472.295 261.578c0 30.687-24.877 55.564-55.564 55.564h-24.436v97.5h-175.85v-79.5c7.029-7.029 10.971-10.971 18-18h39.1c.43-36.023 29.754-65 65.78-65h123.534c5.211 0 9.436 4.225 9.436 9.436z" fill="#fdbbab"/><path d="m512.295 349.643c0-17.949-14.551-32.5-32.5-32.5h-85c-17.949 0-32.5 14.551-32.5 32.5s14.551 32.5 32.5 32.5h85c17.949-.001 32.5-14.551 32.5-32.5z" fill="#ffa58d"/><path d="m512.295 414.643c0-17.949-14.551-32.5-32.5-32.5h-85c-17.949 0-32.5 14.551-32.5 32.5s14.551 32.5 32.5 32.5h85c17.949-.001 32.5-14.551 32.5-32.5z" fill="#f59280"/><path d="m394.795 382.142h85c17.95 0 32.5 14.55 32.5 32.5h-150c0-17.95 14.55-32.5 32.5-32.5z" fill="#ffa58d"/><path d="m512.295 479.643c0-17.949-14.551-32.5-32.5-32.5h-85c-17.949 0-32.5 14.551-32.5 32.5s14.551 32.5 32.5 32.5h85c17.949-.001 32.5-14.551 32.5-32.5z" fill="#f59280"/><path d="m69.26 317.148c-1.679 8.647-36.252 186.725-37.86 195h-31.4v-195z" fill="#fdbbab"/><path d="m50.33 414.648c-7.87 40.535-14.616 75.288-17.988 92.651-2.218 1.826-3.671 3.023-5.889 4.849h-26.453v-97.5z" fill="#ffa58d"/><path d="m284.25 512.148h-95.61l38.89-186.19c2.861 3.851-1.191-5.943 56.72 186.19z" fill="#e6faff"/><path d="m284.25 512.148h-95.61l20.37-97.5h45.97c7.38 24.7 16.92 56.51 29.27 97.5z" fill="#ccf8ff"/><path d="m234.48 317.148-40.73 195h-76.5l34.792-195z" fill="#ccf8ff"/><path d="m214.12 414.648-20.37 97.5h-76.5l17.396-97.5z" fill="#b0f2ff"/><path d="m181.98 174.976s-60.319 336.8-60.4 337.171h-95.54l61.828-381.796h82.598z" fill="#e6faff"/><path d="m139.053 414.648-17.473 97.5h-95.54l15.789-97.5z" fill="#ccf8ff"/></g><path d="m511.46 130.347c-.2 31.76-.38 61.33-.41 65.98-.05 8.06-6.46 14.6-14.44 14.9-127.927-.335-287.288-.764-332.69-.88-22.04 0-39.97-17.94-39.97-40 0-21.965 17.864-40 40-40z" fill="#ffa58d"/></g></svg>