<svg xmlns="http://www.w3.org/2000/svg" width="236.45" height="300" viewBox="0 0 236.45 300"><g transform="translate(-49.145)"><path d="M275.414,313.536,269.223,267.1a25.861,25.861,0,0,0-14.07-19.714l-11.141-5.571a3.267,3.267,0,0,0-4.375,1.481l-22.049-8.113a10.345,10.345,0,0,1-7.073-9.814V208.689l22.281-9.284a31.032,31.032,0,0,0,19.1-28.647v-5.172a15.517,15.517,0,1,0,0-31.034V124.207c0-14.284-11.579-36.207-25.862-36.207h-93.1c-14.284,0-25.862,21.924-25.862,36.207v46.552a31.034,31.034,0,0,0,19.1,28.647l22.281,9.284v16.682a10.345,10.345,0,0,1-7.073,9.814L119.325,243.3a3.25,3.25,0,0,0-4.359-1.488l-10.16,5.08c-8.67,4.335-13.934,11.716-15.067,20.212l-6.191,46.433A15.516,15.516,0,0,0,98.927,331.1H260.032A15.517,15.517,0,0,0,275.414,313.536Z" transform="translate(-12.11 -31.103)" fill="#dbf1ff"/><g transform="translate(193.232 77.586)"><path d="M349.586,244.138S334.069,154.052,334.069,120L272,213.1l67.241,36.207c-3.233,6.142-6.161,14.529,5.172,25.862,10.022,10.022,15.517,31.034,15.517,31.034C374.155,253.19,349.586,244.138,349.586,244.138Z" transform="translate(-272 -120)" fill="#984dff"/><g transform="translate(59.058 118.475)"><path d="M370.8,320.09l14.28-7.04a5.171,5.171,0,0,0,2.351-6.926h0a5.17,5.17,0,0,0-6.923-2.35l-14.28,7.04a5.171,5.171,0,0,0-2.351,6.926h0A5.17,5.17,0,0,0,370.8,320.09Z" transform="translate(-363.343 -303.241)" fill="#ff4d4d"/></g></g><g transform="translate(49.145 77.586)"><path d="M141.508,213.1,79.439,120c0,34.052-15.517,124.138-15.517,124.138s-24.569,9.052-10.345,62.069c0,0,5.5-21.013,15.517-31.034,11.333-11.333,8.405-19.72,5.172-25.862Z" transform="translate(-49.145 -120)" fill="#6b1bc7"/><g transform="translate(8.681 118.475)"><path d="M79.738,320.09l-14.28-7.04a5.171,5.171,0,0,1-2.351-6.926h0a5.17,5.17,0,0,1,6.923-2.35l14.28,7.04a5.171,5.171,0,0,1,2.351,6.926h0A5.17,5.17,0,0,1,79.738,320.09Z" transform="translate(-62.572 -303.241)" fill="#ff4d4d"/></g></g><g transform="translate(131.152 177.155)"><path d="M242.589,274H181.166v17.113a10.253,10.253,0,0,1-5.183,8.831C219.362,307.537,242.589,274,242.589,274Z" transform="translate(-175.983 -274)" fill="#bce2fa"/></g><g transform="translate(71.298 210.362)"><path d="M255.153,331.283l-11.141-5.571a3.3,3.3,0,0,0-4.645,2.174,62.078,62.078,0,0,1-119.781-.02,3.28,3.28,0,0,0-4.62-2.163l-10.16,5.08C96.136,335.118,90.871,342.5,89.739,351l-6.191,46.433A15.517,15.517,0,0,0,98.928,415H260.033a15.517,15.517,0,0,0,15.381-17.568L269.223,351A25.861,25.861,0,0,0,255.153,331.283Z" transform="translate(-83.409 -325.36)" fill="#6c1cd9"/></g><g transform="translate(71.297 228.313)"><path d="M92.093,353.124a25.2,25.2,0,0,0-2.357,7.686l-6.191,46.433a15.518,15.518,0,0,0,15.382,17.568h23.656v-20.69a31.037,31.037,0,0,0-6.207-18.621Z" transform="translate(-83.407 -353.124)" fill="#984dff"/></g><g transform="translate(224.267 228.313)"><path d="M350.489,353.124a25.2,25.2,0,0,1,2.357,7.686l6.191,46.433a15.518,15.518,0,0,1-15.381,17.568H320v-20.69a31.032,31.032,0,0,1,6.207-18.621Z" transform="translate(-320 -353.124)" fill="#984dff"/></g><path d="M264.828,134.552V124.207c0-14.284-11.579-36.207-25.862-36.207h-93.1C131.578,88,120,109.924,120,124.207v46.552a31.034,31.034,0,0,0,19.1,28.647l33.421,13.925a51.72,51.72,0,0,0,19.894,3.979h0a51.717,51.717,0,0,0,19.894-3.979l33.423-13.926a31.033,31.033,0,0,0,19.1-28.647v-5.172a15.517,15.517,0,0,0,0-31.034Z" transform="translate(-25.044 -31.103)" fill="#dbf1ff"/><g transform="translate(198.405 108.621)"><path d="M285.172,183.517h0A5.188,5.188,0,0,1,280,178.345v-5.172A5.188,5.188,0,0,1,285.172,168h0a5.188,5.188,0,0,1,5.172,5.172v5.172A5.188,5.188,0,0,1,285.172,183.517Z" transform="translate(-280 -168)" fill="#623f33"/></g><g transform="translate(141.507 144.827)"><path d="M217.861,239.658c-9.2,0-17.8-2.263-23.6-6.21a5.172,5.172,0,1,1,5.819-8.551c4.066,2.765,10.713,4.417,17.78,4.417s13.714-1.652,17.78-4.417a5.172,5.172,0,1,1,5.819,8.551C235.66,237.4,227.057,239.658,217.861,239.658Z" transform="translate(-191.998 -223.998)" fill="#e47b7b"/></g><path d="M204.7,102.635,192.413,82S120,134.155,120,153.121v15.517a31.034,31.034,0,0,0,19.1,28.647l33.42,13.925a51.8,51.8,0,0,0,5,1.777,215.875,215.875,0,0,1-30.362-26.426,24.248,24.248,0,0,1-6.462-16.568v-6.529C140.689,130.778,191.283,125.843,204.7,102.635Z" transform="translate(-25.043 -28.983)" fill="#bce2fa"/><g transform="translate(79.393)"><path d="M103.986,166.055l-.024.005Z" transform="translate(-98.768 -58.692)" fill="#984dff"/><path d="M209.768,0c-16.81,0-25.862,5.172-25.862,5.172S174.854,0,158.044,0s-80.6,32.363-56.9,107.363c7.759,21.624,20.69,32.292,20.69,32.292-.7-4.087-.041-9.122,1.543-14.462a55.668,55.668,0,0,1,29.348-34.076c16.783-8.048,31.178-19.3,31.178-34.221,0,35.776,82.759,50.467,82.759,50.467C290.372,32.363,226.578,0,209.768,0Z" transform="translate(-95.929)" fill="#984dff"/></g><g transform="translate(79.393)"><path d="M183.9,5.172S174.853,0,158.043,0s-80.6,32.363-56.9,107.363c8.082,22.486,20.69,32.292,20.69,32.292C89.508,40.948,174.423,7.327,183.9,5.172Z" transform="translate(-95.928)" fill="#6b1bc7"/></g><g transform="translate(97.059 210.362)"><path d="M193.563,383.963A72.382,72.382,0,0,0,263.873,328.6l-5.779-2.889a3.3,3.3,0,0,0-4.645,2.174,62.078,62.078,0,0,1-119.781-.02,3.28,3.28,0,0,0-4.62-2.163l-5.8,2.9A72.382,72.382,0,0,0,193.563,383.963Z" transform="translate(-123.252 -325.359)" fill="#984dff"/></g><g transform="translate(122.296 198.707)"><path d="M207.388,340.534c-20.756,0-39.175-10.8-44.791-26.266a5.173,5.173,0,1,1,9.723-3.536c4.16,11.456,18.581,19.457,35.068,19.457,16.4,0,30.807-7.951,35.025-19.336a5.172,5.172,0,0,1,9.7,3.6C246.423,329.8,228.032,340.534,207.388,340.534Z" transform="translate(-162.285 -307.334)" fill="#984dff"/></g><g transform="translate(157.054 226.735)"><circle cx="10.345" cy="10.345" r="10.345" fill="#ff6473"/></g><g transform="translate(157.054 226.735)"><path d="M221.216,361.028a10.32,10.32,0,0,1,7.759-9.979,10.346,10.346,0,1,0,0,19.958A10.32,10.32,0,0,1,221.216,361.028Z" transform="translate(-216.044 -350.683)" fill="#f05467"/></g><g transform="translate(167.399 231.907)"><circle cx="2.586" cy="2.586" r="2.586" fill="#ffa0b5"/></g><g transform="translate(125.99 108.621)"><path d="M173.171,183.517h0A5.188,5.188,0,0,1,168,178.345v-5.172A5.188,5.188,0,0,1,173.171,168h0a5.188,5.188,0,0,1,5.172,5.172v5.172A5.188,5.188,0,0,1,173.171,183.517Z" transform="translate(-167.999 -168)" fill="#623f33"/></g></g></svg>