<svg xmlns="http://www.w3.org/2000/svg" xmlns:xlink="http://www.w3.org/1999/xlink" width="220" height="220" viewBox="0 0 220 220"><defs><style>.a,.h{fill:#fff;}.a,.c{stroke:rgba(112,112,112,0);}.b{clip-path:url(#a);}.c{fill:#707070;stroke-width:0.262px;}.d{fill:#d9a49d;}.e{fill:#f1b6af;}.f{fill:#f5a209;}.g{fill:#fbb429;}</style><clipPath id="a"><circle class="a" cx="110" cy="110" r="110" transform="translate(736 380)"/></clipPath></defs><g class="b" transform="translate(-736 -380)"><g transform="translate(736 380)"><path class="c" d="M110.085,220.168c60.632,0,110.084-49.452,110.084-110.084S170.716,0,110.085,0,0,49.452,0,110.085,49.452,220.168,110.085,220.168Z" transform="translate(0 0)"/><path class="d" d="M132.192,149.3c.937.45,26.957,12.671,39.8-8.633,13.077-21.7,3.457-20.87,3.249-22.644s19.042-21.938-4.438-37.095c0,0-28.531-65.089-101.942-33.288,0,0-22.589-3.27-33.585,21.4,0,0-27.344,10.106-16.05,42.5S57.565,129.37,57.565,129.37c3.712,20.188,27.152,25.13,43.987,16.345,0,0,5.647,6.241,12.483,3.863.239-.939,2.107-.241.873-3.425,1.726-2.546,5.644-3.9,12.656-.675.369.3,1.022.822.921.76Z" transform="translate(10.604 25.004)"/><path class="e" d="M36.82,69.492c-.319.531-17.973,4.961-19.218,22.415C15.688,118.761,34.6,137.76,57.337,126.164c4.747,19.085,30.639,26.276,44.705,15.021,0,0,3.687,9.2,12.237,4.671l.417.456c2.055-.028,7.489,3.354,12.239-1.131.329.272.884.713.929.76.672.073,1.625-.221,2.107.056,29.043,16.671,47.895-12.024,44.709-23.506-.446-1.606-1.22-1.891-2.566-2.7a5.167,5.167,0,0,1,1.426-4.325c8.24-9.73,12.464-24.851-4.71-33.263C151.436,43.687,109,27.042,67,49.42,42.367,47.957,37.1,69.031,36.82,69.492Z" transform="translate(11.233 25.302)"/><path class="d" d="M78.735,52.366a1.571,1.571,0,0,1-.826-3.032c.037-.01,12.3-3.454,15.142,6.542a9.258,9.258,0,0,1,7.525-.792c-.392-3.408.592-8.119,8.126-10.056a1.571,1.571,0,0,1,.776,3.044c-8.624,2.218-4.991,9.486-4.98,9.506l-.005,0A1.57,1.57,0,0,1,102.1,59.5a6.56,6.56,0,0,0-8.524-.235c-.046,5.85-7.941,7.168-7.964,7.172h0a1.569,1.569,0,0,1-1.336-.406C75.219,57.5,65.2,68.331,65.168,68.36h0a1.573,1.573,0,0,1-1.94.279c-8.974-5.26-1.237-20.934.573-24.318,1.1.037,1.726.128,1.726.128.488-.212.967-.4,1.451-.606a1.569,1.569,0,0,1-.083,1.382c-.025.045-8.559,14.873-3.014,20.009,3.066-2.777,12.673-10.052,21.925-2.064,1.52-.393,4.928-1.594,4.594-4.421l-.006-.073c-1.015-9.294-11.628-6.317-11.658-6.308Zm94.33,63.523h0c-.614-.405-1.114-.669-1.16-1.059a8.3,8.3,0,0,1,1.324-2.464c-1.018-4.854-4.922-4.707-7.048-4.237a16.131,16.131,0,0,1-.554-11.487,1.745,1.745,0,0,0,.064-.187c2.207-6.277,12.436-3.727,12.465-3.719a1.579,1.579,0,0,0,.71.006,17.6,17.6,0,0,0-.9-3.255c-2.771-.5-10.972-1.432-14.4,4.137a6.443,6.443,0,0,0-5.446-.765c-2.067-8.12-9.65-5.139-9.674-5.13a1.571,1.571,0,0,0,1.1,2.945c.013-.005,4.436-1.749,5.632,3.479-2.753.765-8.3,3.037-9.089,9.041a1.572,1.572,0,1,0,3.117.407c.706-5.357,7.244-6.565,7.936-6.678a1.567,1.567,0,0,0,.875-.4,3.384,3.384,0,0,1,4.347.058,19.3,19.3,0,0,0,.2,10.754,12.5,12.5,0,0,0-12.726,4.274,1.626,1.626,0,0,0-.168.239c-4.4,7.7-13.322,4.718-16.133,3.531-.274-12.618-14.576-10.017-14.618-10.01a1.576,1.576,0,1,0,.542,3.105c.031,0,10.225-1.856,10.9,6.485a16.553,16.553,0,0,0-14.364,12.529,1.572,1.572,0,1,0,3.081.629c.006-.026,1.826-9.258,12.58-10.131,2.373,1.1,14.587,6.065,20.7-4.491.5-.633,4.75-5.678,12.3-2.1a1.57,1.57,0,0,0,1.318.064l0,0c.012,0,4.3-1.8,4.37,3.378a1.571,1.571,0,0,0,1.59,1.552,1.552,1.552,0,0,0,1.142-.51Zm-5.034-37.777h0a1.576,1.576,0,0,1-.279.174c-3.568,1.753-5.465,5.876-5.47,5.888a1.576,1.576,0,1,1-2.847-1.355c.006-.015,2.334-5.082,6.916-7.344.751,1.425,1.117,2.261,1.117,2.261.194.125.376.252.563.377ZM32.978,63.666h0q-.535,1.053-1.038,2.181s-.542.2-1.443.636a1.673,1.673,0,0,0,.124.227,1.577,1.577,0,0,0,2.181.457,5.342,5.342,0,0,1,1.313-.564,12.621,12.621,0,0,1,6.083-.248A9.234,9.234,0,0,1,46.182,70.4a11.607,11.607,0,0,1,.813,1.475c-2.932.649-7.976,2.666-8.723,8.9a1.576,1.576,0,1,0,3.13.369c.661-5.506,6.336-6.3,7.569-6.411A8.015,8.015,0,0,1,54.8,81.388a1.571,1.571,0,1,0,3.13-.271,11.209,11.209,0,0,0-7.535-9.227,15.146,15.146,0,0,0-1.572-3.217,12.3,12.3,0,0,0-7.968-5.4,15.878,15.878,0,0,0-7.648.322l-.226.071Zm-11.3,56.005h0a28.3,28.3,0,0,0,2.481,2.906,1.57,1.57,0,0,0,.576-1.173c.135-4.655,1.158-8.353,3.271-10.872a11.027,11.027,0,0,1,6.623-3.644c.22,3.912,1.6,6.5,3.456,7.982.03.027.061.053.094.079a7.069,7.069,0,0,0,3.676,1.438A7.943,7.943,0,0,0,45.6,115.8a8.791,8.791,0,0,0,5.223-6.265,1.576,1.576,0,0,0-3.081-.665,5.63,5.63,0,0,1-3.337,4.022,4.8,4.8,0,0,1-2.27.363,3.909,3.909,0,0,1-2.037-.8c-.025-.02-.053-.039-.079-.058-1.227-.987-2.132-2.86-2.265-5.844h.021c3.738-.105,4.954-1.024,4.9-2.774a5.782,5.782,0,0,0-1.349-2.917c-1.531-2.241-4.021-5.886.271-11.058A1.575,1.575,0,0,0,39.174,87.8c-5.8,6.995-2.485,11.853-.442,14.842.45.658.806,1.179.807,1.227.009.337-.472-.493-1.849-.453-5.5.157-9.454,1.942-12.1,5.1-2.323,2.768-3.567,6.544-3.914,11.159Zm31.13,7.177h0c.912-.39,1.426-.667,1.426-.667.1.523.209,1.035.332,1.538l.069-.016a1.574,1.574,0,0,0,1.121-1.923c-.77-2.909-.322-8.8,2.735-14.2a20.523,20.523,0,0,1,10.517-9.145,1.571,1.571,0,0,0,1-.944c.428-.9,3.927-7.875,8.89-6.709,1.2.464,10.271,3.721,13.791-1.755,3.585.385,14.356.584,16.027-10.637,4.532-.578,19.189-3.564,20.36-18.038,3.22.393,9.706.214,13.677-6.486a1.575,1.575,0,1,0-2.712-1.6,10.43,10.43,0,0,1-11.27,4.871c-4.255-11.159-14.116-5.3-14.145-5.282a1.57,1.57,0,1,0,1.565,2.723c.019-.012,6.91-4.111,9.8,4.146-.165,13.18-13.273,15.969-17.494,16.526-3.811-13.9-15.3-6.412-15.337-6.391a1.573,1.573,0,1,0,1.676,2.662c.023-.015,8.35-5.445,10.862,5.536-1.027,10.833-12.768,8.867-13.552,8.723a1.575,1.575,0,0,0-1.779.922C88.525,95.037,80.815,92.153,80,91.836a1.561,1.561,0,0,0-.274-.1,8.379,8.379,0,0,0-1.18-.207c-2.371-9.066,2.987-9.019,3-9.019a1.571,1.571,0,1,0-.037-3.142c-.028,0-9.2-.04-6.123,12.495-4.225,1.346-7.011,5.955-7.944,7.717-5.77,1.359-6.773-2.512-6.776-2.523h0A1.572,1.572,0,0,0,59.113,95.9c-3.948.107-3.951-4.151-3.951-4.162a1.571,1.571,0,0,0-3.143.049c0,.019,0,6.666,6.068,7.22a7.223,7.223,0,0,0,4.149,3.612,23.834,23.834,0,0,0-6.485,7.41c-3.5,6.172-3.962,13.085-3.044,16.555a1.592,1.592,0,0,0,.1.267Zm44,16.375h0a1.575,1.575,0,0,1,.3-1.8c1.038-1.038,1.967-4.614,1.743-8.427a14.528,14.528,0,0,0-.806-4.109,8.947,8.947,0,0,0-2.031-3.3l0,0,0,0c-1.578-1.579-3.983-2.55-7.511-2.364a1.7,1.7,0,0,1-.195.012,1.626,1.626,0,0,1-.252-.021c-.717-.079-7-.64-6.589,4.322a1.576,1.576,0,1,1-3.142.259c-.57-6.836,5.346-7.763,8.406-7.79V114.41c-9.519.484-6.564-10.685-6.556-10.719a1.571,1.571,0,1,1,3.044.776c-.006.022-2.073,7.845,4.818,6.622a1.57,1.57,0,0,1,.8.068c1.04.292,11.573,3,15.736-5.951-3.883-2.832-8.346.042-8.364.054a1.573,1.573,0,1,1-1.676-2.662c.037-.023,12.776-8.221,17.383,9.35a1.572,1.572,0,0,1-3.044.788,18.12,18.12,0,0,0-2.04-5.019c-4.426,7.918-13.032,7.531-16.943,6.879v5.463a11.823,11.823,0,0,1,8.359,3.3l0,0A12.09,12.09,0,0,1,101,127.81a17.7,17.7,0,0,1,.99,5c.272,4.629-1.108,9.234-2.621,10.795a12.611,12.611,0,0,1-1.149-1.074c-.465.243-.937.473-1.411.7Zm17.457-45.767h0a1.573,1.573,0,1,1-2.058-2.379c.021-.018,4.56-4.029,9.8-3.565A13.242,13.242,0,0,1,122.858,84a12.722,12.722,0,0,1,6.443-6.639,13.216,13.216,0,0,1,1.656-.626c3.831-1.166,6.285-.128,7.829,1.378a14.276,14.276,0,0,1,7.084-9.386c8.223-4.2,14.1,3.415,14.122,3.437a1.571,1.571,0,1,1-2.477,1.934c-.012-.016-4.317-5.586-10.214-2.573-4.654,2.376-5.733,7.587-5.981,10.034,4.271,1.49,2.767,9.545,2.762,9.57a1.576,1.576,0,0,1-3.105-.542c0-.018,1.131-6.2-1.253-6.119a1.574,1.574,0,0,1-1.588-1.246l0,0a4.609,4.609,0,0,0-6.266-3.481,10.142,10.142,0,0,0-1.261.477,9.6,9.6,0,0,0-4.854,5.013,10.018,10.018,0,0,0-.392,6.8c.053.176.112.352.178.527,2.126,1.129,4.23,3.253,6.074,6.9a1.573,1.573,0,1,1-2.809,1.416C123.115,89.629,114.288,97.433,114.263,97.455Zm24.023,36.825h0a1.572,1.572,0,1,1-2.748-1.529c.018-.031,5.816-10.694,13.983-6.114a13.572,13.572,0,0,1,10.444-4.457c8.192.381,7.2,7.164,7.2,7.183a1.572,1.572,0,0,1-3.117-.407c0-.009.507-3.414-4.218-3.633a10.331,10.331,0,0,0-7.939,3.366c5.23,6.854-2.46,13.914-2.483,13.935a1.573,1.573,0,1,1-2.156-2.292c.017-.016,6.093-5.6,1.545-10.427-5.859-4.163-10.5,4.35-10.51,4.375Z" transform="translate(13.938 28.192)"/><path class="f" d="M76.732,104.171c1.024,2.262-.634,2.485-.873,3.425,1.538,1.453,8.207,5.042,13.07,9.2,5.9,5.05,5,7.062,8.922,7.3,1.994.118,6.18-.76,5.839-3.585-.612-5.059-9.7-13.211-9.7-13.211l.028.013-3.706-3.057C85.913,107.368,81.35,106.43,76.732,104.171Z" transform="translate(48.781 66.987)"/><path class="g" d="M76.39,104.435c2.63,2.868,16.1,13.968,18.831,17.082s7.739.059,6.44-3.461-11.694-13.536-11.694-13.536c.1.062-.553-.456-.921-.76-5.885,3.321-9.768.772-12.656.674Z" transform="translate(49.122 66.723)"/><path class="h" d="M.048,12.011A10.383,10.383,0,0,1,1.8,6.5,13.487,13.487,0,0,1,6.883,1.885,16.033,16.033,0,0,1,14.7.06a16.615,16.615,0,0,1,7.324,1.533,11.805,11.805,0,0,1,4.892,4.16,10.194,10.194,0,0,1,1.729,5.711,8.894,8.894,0,0,1-.987,4.267,12.677,12.677,0,0,1-2.342,3.154q-1.349,1.334-4.864,4.482a17.912,17.912,0,0,0-1.562,1.554,6.14,6.14,0,0,0-.87,1.23,6.017,6.017,0,0,0-.448,1.112c-.1.372-.264,1.026-.468,1.963a3.18,3.18,0,0,1-3.409,2.969,3.484,3.484,0,0,1-2.5-.966,3.805,3.805,0,0,1-1.016-2.891,10.112,10.112,0,0,1,2.715-7.246c.82-.888,1.934-1.943,3.32-3.164,1.22-1.064,2.11-1.875,2.646-2.412A8.218,8.218,0,0,0,20.232,13.7a4.405,4.405,0,0,0,.557-2.178,5.047,5.047,0,0,0-1.7-3.857A6.244,6.244,0,0,0,14.7,6.094a6.07,6.07,0,0,0-4.638,1.591,12.664,12.664,0,0,0-2.51,4.678q-.982,3.223-3.691,3.222a3.593,3.593,0,0,1-2.7-1.132A3.453,3.453,0,0,1,.048,12.011ZM14,43.356h0a4.521,4.521,0,0,1-3.047-1.133,3.959,3.959,0,0,1-1.3-3.164,4.063,4.063,0,0,1,1.26-3.027A4.245,4.245,0,0,1,14,34.8a4.2,4.2,0,0,1,4.267,4.258,4,4,0,0,1-1.288,3.154A4.35,4.35,0,0,1,14,43.356Z" transform="translate(40.626 48.125) rotate(-59)"/><path class="h" d="M1.357,19.273.28,8.478c-.194-2.1-.3-3.619-.3-4.535A3.387,3.387,0,0,1,1.437,1.025,6.4,6.4,0,0,1,5.263-.022q2.886,0,3.849,1.34a6.5,6.5,0,0,1,.974,3.865,20.9,20.9,0,0,1-.229,3.025L8.413,19.32a6.5,6.5,0,0,1-1.008,3.049,2.919,2.919,0,0,1-2.542,1.055A2.824,2.824,0,0,1,2.355,22.4a7.609,7.609,0,0,1-1-3.126ZM5.069,34.118h0a6.909,6.909,0,0,1-3.563-.893A2.753,2.753,0,0,1-.017,30.73a2.83,2.83,0,0,1,1.454-2.379A6.226,6.226,0,0,1,5,27.373a6.388,6.388,0,0,1,3.6.977,2.82,2.82,0,0,1,1.49,2.379,2.788,2.788,0,0,1-1.5,2.487,6.733,6.733,0,0,1-3.516.9Z" transform="matrix(0.819, 0.574, -0.574, 0.819, 171.217, 35.366)"/></g></g></svg>