<svg xmlns="http://www.w3.org/2000/svg" xmlns:xlink="http://www.w3.org/1999/xlink" width="220" height="220" viewBox="0 0 220 220"><defs><style>.a{fill:#fff;}.a,.b{stroke:rgba(112,112,112,0);}.b{fill:#707070;}.c{clip-path:url(#a);}.d{fill:#f1b6af;}.e{opacity:0.1;}.f{stroke:none;}.g{fill:none;}</style><clipPath id="a"><circle class="a" cx="110" cy="110" r="110"/></clipPath></defs><g transform="translate(-774 -407)"><g transform="translate(774 407)"><g class="b"><circle class="f" cx="110" cy="110" r="110"/><circle class="g" cx="110" cy="110" r="109.5"/></g><g class="c"><g transform="translate(17.46 0)"><path class="d" d="M185.081,220V171.111q0-2.594-.174-4.965a36.846,36.846,0,0,0-33.8-33.838c-23.908-2.052-32.461-11.626-34.965-15.464v-9.65a31.754,31.754,0,0,1,10.511-23.108,48.91,48.91,0,0,0,15.381-35.856C142.025,21.59,121.326,0,95.791,0,73.734,0,55.319,16.121,50.7,37.673L39.683,61.414a1.291,1.291,0,0,0,1.172,1.836h7.966v8.17c-1.8,27.2,20.961,23.407,20.961,23.407v22.759s-5.519,11.952-34.07,14.6C15.965,134.022.383,149.919.015,169.749,0,170.2,0,170.652,0,171.111V220" transform="translate(0 0)"/><path class="e" d="M66.867,126.124a39.367,39.367,0,0,0-21.738-6.672v-7.586a54.784,54.784,0,0,1,26.552,6.953Z" transform="translate(13.273 32.902)"/><path class="e" d="M78.646,125.038l-4.207-6.312c.5-.334,10.416-7.347,26.552-7.347v7.586c-13.864,0-22.243,6-22.345,6.073Z" transform="translate(21.894 32.759)"/><path class="e" d="M112.493,143.621h7.586v34.138h-7.586Z" transform="translate(33.086 42.241)"/><path class="e" d="M24.612,143.621H32.2v34.138H24.612Z" transform="translate(7.239 42.241)"/><path class="e" d="M74.779,8.193A44.668,44.668,0,0,0,45.686,18.966,45.3,45.3,0,0,1,82.365,0C107.893,0,128.6,21.583,128.6,48.21a48.982,48.982,0,0,1-15.4,35.883c-.8.721-1.555,1.517-2.276,2.314a49.192,49.192,0,0,0,10.09-30c0-26.628-20.71-48.21-46.238-48.21Z" transform="translate(13.437 0)"/></g></g></g></g></svg>